<svg xmlns="http://www.w3.org/2000/svg" xmlns:xlink="http://www.w3.org/1999/xlink" version="1.1" class="marks" width="895" height="509" viewBox="0 0 895 509"><rect width="895" height="509" fill="white"/><g fill="none" stroke-miterlimit="10" transform="translate(169,22)"><g class="mark-group role-frame root" role="graphics-object" aria-roledescription="group mark container"><g transform="translate(0,0)"><path class="background" aria-hidden="true" d="M0.5,0.5h720v450h-720Z"/><g><g class="mark-group role-axis" aria-hidden="true"><g transform="translate(0.5,450.5)"><path class="background" aria-hidden="true" d="M0,0h0v0h0Z" pointer-events="none"/><g><g class="mark-rule role-axis-grid" pointer-events="none"><line transform="translate(0,0)" x2="0" y2="-450" stroke="#ddd" stroke-width="1" opacity="1"/><line transform="translate(45,0)" x2="0" y2="-450" stroke="#ddd" stroke-width="1" opacity="1"/><line transform="translate(90,0)" x2="0" y2="-450" stroke="#ddd" stroke-width="1" opacity="1"/><line transform="translate(135,0)" x2="0" y2="-450" stroke="#ddd" stroke-width="1" opacity="1"/><line transform="translate(180,0)" x2="0" y2="-450" stroke="#ddd" stroke-width="1" opacity="1"/><line transform="translate(225,0)" x2="0" y2="-450" stroke="#ddd" stroke-width="1" opacity="1"/><line transform="translate(270,0)" x2="0" y2="-450" stroke="#ddd" stroke-width="1" opacity="1"/><line transform="translate(315,0)" x2="0" y2="-450" stroke="#ddd" stroke-width="1" opacity="1"/><line transform="translate(360,0)" x2="0" y2="-450" stroke="#ddd" stroke-width="1" opacity="1"/><line transform="translate(405,0)" x2="0" y2="-450" stroke="#ddd" stroke-width="1" opacity="1"/><line transform="translate(450,0)" x2="0" y2="-450" stroke="#ddd" stroke-width="1" opacity="1"/><line transform="translate(495,0)" x2="0" y2="-450" stroke="#ddd" stroke-width="1" opacity="1"/><line transform="translate(540,0)" x2="0" y2="-450" stroke="#ddd" stroke-width="1" opacity="1"/><line transform="translate(585,0)" x2="0" y2="-450" stroke="#ddd" stroke-width="1" opacity="1"/><line transform="translate(630,0)" x2="0" y2="-450" stroke="#ddd" stroke-width="1" opacity="1"/><line transform="translate(675,0)" x2="0" y2="-450" stroke="#ddd" stroke-width="1" opacity="1"/><line transform="translate(720,0)" x2="0" y2="-450" stroke="#ddd" stroke-width="1" opacity="1"/></g></g><path class="foreground" aria-hidden="true" d="" pointer-events="none" display="none"/></g></g><g class="mark-group role-axis" role="graphics-symbol" aria-roledescription="axis" aria-label="X-axis titled 'Erwerbstätige (Tsd.)' for a linear scale with values from 0 to 800,000"><g transform="translate(0.5,450.5)"><path class="background" aria-hidden="true" d="M0,0h0v0h0Z" pointer-events="none"/><g><g class="mark-rule role-axis-tick" pointer-events="none"><line transform="translate(0,0)" x2="0" y2="5" stroke="#888" stroke-width="1" opacity="1"/><line transform="translate(45,0)" x2="0" y2="5" stroke="#888" stroke-width="1" opacity="1"/><line transform="translate(90,0)" x2="0" y2="5" stroke="#888" stroke-width="1" opacity="1"/><line transform="translate(135,0)" x2="0" y2="5" stroke="#888" stroke-width="1" opacity="1"/><line transform="translate(180,0)" x2="0" y2="5" stroke="#888" stroke-width="1" opacity="1"/><line transform="translate(225,0)" x2="0" y2="5" stroke="#888" stroke-width="1" opacity="1"/><line transform="translate(270,0)" x2="0" y2="5" stroke="#888" stroke-width="1" opacity="1"/><line transform="translate(315,0)" x2="0" y2="5" stroke="#888" stroke-width="1" opacity="1"/><line transform="translate(360,0)" x2="0" y2="5" stroke="#888" stroke-width="1" opacity="1"/><line transform="translate(405,0)" x2="0" y2="5" stroke="#888" stroke-width="1" opacity="1"/><line transform="translate(450,0)" x2="0" y2="5" stroke="#888" stroke-width="1" opacity="1"/><line transform="translate(495,0)" x2="0" y2="5" stroke="#888" stroke-width="1" opacity="1"/><line transform="translate(540,0)" x2="0" y2="5" stroke="#888" stroke-width="1" opacity="1"/><line transform="translate(585,0)" x2="0" y2="5" stroke="#888" stroke-width="1" opacity="1"/><line transform="translate(630,0)" x2="0" y2="5" stroke="#888" stroke-width="1" opacity="1"/><line transform="translate(675,0)" x2="0" y2="5" stroke="#888" stroke-width="1" opacity="1"/><line transform="translate(720,0)" x2="0" y2="5" stroke="#888" stroke-width="1" opacity="1"/></g><g class="mark-text role-axis-label" pointer-events="none"><text text-anchor="start" transform="translate(0,15)" font-family="Switzer, system-ui, sans-serif" font-size="10px" fill="#000" opacity="1">0</text><text text-anchor="middle" transform="translate(45,15)" font-family="Switzer, system-ui, sans-serif" font-size="10px" fill="#000" opacity="0">50,000</text><text text-anchor="middle" transform="translate(90,15)" font-family="Switzer, system-ui, sans-serif" font-size="10px" fill="#000" opacity="1">100,000</text><text text-anchor="middle" transform="translate(135,15)" font-family="Switzer, system-ui, sans-serif" font-size="10px" fill="#000" opacity="0">150,000</text><text text-anchor="middle" transform="translate(180,15)" font-family="Switzer, system-ui, sans-serif" font-size="10px" fill="#000" opacity="1">200,000</text><text text-anchor="middle" transform="translate(225,15)" font-family="Switzer, system-ui, sans-serif" font-size="10px" fill="#000" opacity="0">250,000</text><text text-anchor="middle" transform="translate(270,15)" font-family="Switzer, system-ui, sans-serif" font-size="10px" fill="#000" opacity="1">300,000</text><text text-anchor="middle" transform="translate(315,15)" font-family="Switzer, system-ui, sans-serif" font-size="10px" fill="#000" opacity="0">350,000</text><text text-anchor="middle" transform="translate(360,15)" font-family="Switzer, system-ui, sans-serif" font-size="10px" fill="#000" opacity="1">400,000</text><text text-anchor="middle" transform="translate(405,15)" font-family="Switzer, system-ui, sans-serif" font-size="10px" fill="#000" opacity="0">450,000</text><text text-anchor="middle" transform="translate(450,15)" font-family="Switzer, system-ui, sans-serif" font-size="10px" fill="#000" opacity="1">500,000</text><text text-anchor="middle" transform="translate(495,15)" font-family="Switzer, system-ui, sans-serif" font-size="10px" fill="#000" opacity="0">550,000</text><text text-anchor="middle" transform="translate(540,15)" font-family="Switzer, system-ui, sans-serif" font-size="10px" fill="#000" opacity="1">600,000</text><text text-anchor="middle" transform="translate(585,15)" font-family="Switzer, system-ui, sans-serif" font-size="10px" fill="#000" opacity="0">650,000</text><text text-anchor="middle" transform="translate(630,15)" font-family="Switzer, system-ui, sans-serif" font-size="10px" fill="#000" opacity="1">700,000</text><text text-anchor="middle" transform="translate(675,15)" font-family="Switzer, system-ui, sans-serif" font-size="10px" fill="#000" opacity="0">750,000</text><text text-anchor="end" transform="translate(720,15)" font-family="Switzer, system-ui, sans-serif" font-size="10px" fill="#000" opacity="1">800,000</text></g><g class="mark-rule role-axis-domain" pointer-events="none"><line transform="translate(0,0)" x2="720" y2="0" stroke="#888" stroke-width="1" opacity="1"/></g><g class="mark-text role-axis-title" pointer-events="none"><text text-anchor="middle" transform="translate(360,30)" font-family="Switzer, system-ui, sans-serif" font-size="11px" font-weight="bold" fill="#000" opacity="1">Erwerbstätige (Tsd.)</text></g></g><path class="foreground" aria-hidden="true" d="" pointer-events="none" display="none"/></g></g><g class="mark-group role-axis" role="graphics-symbol" aria-roledescription="axis" aria-label="Y-axis for a discrete scale with 19 values: Gesundheits-, Sozialwesen, Verarbeitendes Gewerbe, Bergbau, Handel, Reparatur, Freiberufliche, wiss. Dienstl., Erziehung und Unterricht, ending with Wasserversorgung, Entsorgung"><g transform="translate(0.5,0.5)"><path class="background" aria-hidden="true" d="M0,0h0v0h0Z" pointer-events="none"/><g><g class="mark-rule role-axis-tick" pointer-events="none"><line transform="translate(0,11)" x2="-5" y2="0" stroke="#888" stroke-width="1" opacity="1"/><line transform="translate(0,35)" x2="-5" y2="0" stroke="#888" stroke-width="1" opacity="1"/><line transform="translate(0,59)" x2="-5" y2="0" stroke="#888" stroke-width="1" opacity="1"/><line transform="translate(0,82)" x2="-5" y2="0" stroke="#888" stroke-width="1" opacity="1"/><line transform="translate(0,106)" x2="-5" y2="0" stroke="#888" stroke-width="1" opacity="1"/><line transform="translate(0,130)" x2="-5" y2="0" stroke="#888" stroke-width="1" opacity="1"/><line transform="translate(0,153)" x2="-5" y2="0" stroke="#888" stroke-width="1" opacity="1"/><line transform="translate(0,177)" x2="-5" y2="0" stroke="#888" stroke-width="1" opacity="1"/><line transform="translate(0,201)" x2="-5" y2="0" stroke="#888" stroke-width="1" opacity="1"/><line transform="translate(0,225)" x2="-5" y2="0" stroke="#888" stroke-width="1" opacity="1"/><line transform="translate(0,248)" x2="-5" y2="0" stroke="#888" stroke-width="1" opacity="1"/><line transform="translate(0,272)" x2="-5" y2="0" stroke="#888" stroke-width="1" opacity="1"/><line transform="translate(0,296)" x2="-5" y2="0" stroke="#888" stroke-width="1" opacity="1"/><line transform="translate(0,319)" x2="-5" y2="0" stroke="#888" stroke-width="1" opacity="1"/><line transform="translate(0,343)" x2="-5" y2="0" stroke="#888" stroke-width="1" opacity="1"/><line transform="translate(0,367)" x2="-5" y2="0" stroke="#888" stroke-width="1" opacity="1"/><line transform="translate(0,390)" x2="-5" y2="0" stroke="#888" stroke-width="1" opacity="1"/><line transform="translate(0,414)" x2="-5" y2="0" stroke="#888" stroke-width="1" opacity="1"/><line transform="translate(0,438)" x2="-5" y2="0" stroke="#888" stroke-width="1" opacity="1"/></g><g class="mark-text role-axis-label" pointer-events="none"><text text-anchor="end" transform="translate(-7,14.342105263157887)" font-family="Switzer, system-ui, sans-serif" font-size="10px" fill="#000" opacity="1">Gesundheits-, Sozialwesen</text><text text-anchor="end" transform="translate(-7,38.02631578947368)" font-family="Switzer, system-ui, sans-serif" font-size="10px" fill="#000" opacity="1">Verarbeitendes Gewerbe, Bergbau</text><text text-anchor="end" transform="translate(-7,61.710526315789465)" font-family="Switzer, system-ui, sans-serif" font-size="10px" fill="#000" opacity="1">Handel, Reparatur</text><text text-anchor="end" transform="translate(-7,85.39473684210526)" font-family="Switzer, system-ui, sans-serif" font-size="10px" fill="#000" opacity="1">Freiberufliche, wiss. Dienstl.</text><text text-anchor="end" transform="translate(-7,109.07894736842105)" font-family="Switzer, system-ui, sans-serif" font-size="10px" fill="#000" opacity="1">Erziehung und Unterricht</text><text text-anchor="end" transform="translate(-7,132.76315789473685)" font-family="Switzer, system-ui, sans-serif" font-size="10px" fill="#000" opacity="1">Sonstige wirtsch. Dienstl.</text><text text-anchor="end" transform="translate(-7,156.44736842105263)" font-family="Switzer, system-ui, sans-serif" font-size="10px" fill="#000" opacity="1">Baugewerbe</text><text text-anchor="end" transform="translate(-7,180.13157894736844)" font-family="Switzer, system-ui, sans-serif" font-size="10px" fill="#000" opacity="1">Verkehr, Lagerei</text><text text-anchor="end" transform="translate(-7,203.81578947368422)" font-family="Switzer, system-ui, sans-serif" font-size="10px" fill="#000" opacity="1">Gastgewerbe, Beherbergung</text><text text-anchor="end" transform="translate(-7,227.5)" font-family="Switzer, system-ui, sans-serif" font-size="10px" fill="#000" opacity="1">Finanz-, Versicherungsdienstl.</text><text text-anchor="end" transform="translate(-7,251.1842105263158)" font-family="Switzer, system-ui, sans-serif" font-size="10px" fill="#000" opacity="1">Öffentliche Verwaltung</text><text text-anchor="end" transform="translate(-7,274.86842105263156)" font-family="Switzer, system-ui, sans-serif" font-size="10px" fill="#000" opacity="1">Information, Kommunikation</text><text text-anchor="end" transform="translate(-7,298.55263157894734)" font-family="Switzer, system-ui, sans-serif" font-size="10px" fill="#000" opacity="1">Sonstige Dienstleistungen</text><text text-anchor="end" transform="translate(-7,322.2368421052631)" font-family="Switzer, system-ui, sans-serif" font-size="10px" fill="#000" opacity="1">Land- und Forstwirtschaft</text><text text-anchor="end" transform="translate(-7,345.92105263157896)" font-family="Switzer, system-ui, sans-serif" font-size="10px" fill="#000" opacity="1">Kunst, Unterhaltung, Erholung</text><text text-anchor="end" transform="translate(-7,369.60526315789474)" font-family="Switzer, system-ui, sans-serif" font-size="10px" fill="#000" opacity="1">Private Haushalte</text><text text-anchor="end" transform="translate(-7,393.2894736842105)" font-family="Switzer, system-ui, sans-serif" font-size="10px" fill="#000" opacity="1">Grundstücks-, Wohnungswesen</text><text text-anchor="end" transform="translate(-7,416.9736842105263)" font-family="Switzer, system-ui, sans-serif" font-size="10px" fill="#000" opacity="1">Energieversorgung</text><text text-anchor="end" transform="translate(-7,440.6578947368421)" font-family="Switzer, system-ui, sans-serif" font-size="10px" fill="#000" opacity="1">Wasserversorgung, Entsorgung</text></g><g class="mark-rule role-axis-domain" pointer-events="none"><line transform="translate(0,0)" x2="0" y2="450" stroke="#888" stroke-width="1" opacity="1"/></g></g><path class="foreground" aria-hidden="true" d="" pointer-events="none" display="none"/></g></g><g class="mark-group role-scope" role="graphics-object" aria-roledescription="group mark container"><g transform="translate(0,1.1842105263157805)"><path class="background" aria-hidden="true" d="M0,0L705.6851,0C707.8927600979761,0,709.6851,1.792339902024,709.6851,4L709.6851,17.315789473684212C709.6851,19.523449571660212,707.8927600979761,21.315789473684212,705.6851,21.315789473684212L0,21.315789473684212C0,21.315789473684212,0,21.315789473684212,0,21.315789473684212L0,0C0,0,0,0,0,0Z"/><g clip-path="url(#clip58)"><g class="mark-group role-scope" role="graphics-object" aria-roledescription="group mark container"><g transform="translate(0,0)"><path class="background" aria-hidden="true" d="M0,0h0v21.315789473684212h0Z"/><g><g class="mark-rect role-mark marks" role="graphics-object" aria-roledescription="rect mark container"><path aria-label="Erwerbstätige (Tsd.): 788539; Sektor: Gesundheits-, Sozialwesen" role="graphics-symbol" aria-roledescription="bar" d="M0,0h709.6851v21.315789473684212h-709.6851Z" fill="#a855f7"/></g></g><path class="foreground" aria-hidden="true" d="" display="none"/></g></g></g><path class="foreground" aria-hidden="true" d="" display="none"/></g><g transform="translate(0,24.86842105263157)"><path class="background" aria-hidden="true" d="M0,0L588.6428000000001,0C590.8504600979761,0,592.6428000000001,1.792339902024,592.6428000000001,4L592.6428000000001,17.315789473684212C592.6428000000001,19.523449571660212,590.8504600979761,21.315789473684212,588.6428000000001,21.315789473684212L0,21.315789473684212C0,21.315789473684212,0,21.315789473684212,0,21.315789473684212L0,0C0,0,0,0,0,0Z"/><g clip-path="url(#clip59)"><g class="mark-group role-scope" role="graphics-object" aria-roledescription="group mark container"><g transform="translate(0,0)"><path class="background" aria-hidden="true" d="M0,0h0v21.315789473684212h0Z"/><g><g class="mark-rect role-mark marks" role="graphics-object" aria-roledescription="rect mark container"><path aria-label="Erwerbstätige (Tsd.): 658492; Sektor: Verarbeitendes Gewerbe, Bergbau" role="graphics-symbol" aria-roledescription="bar" d="M0,0h592.6428000000001v21.315789473684212h-592.6428000000001Z" fill="#a855f7"/></g></g><path class="foreground" aria-hidden="true" d="" display="none"/></g></g></g><path class="foreground" aria-hidden="true" d="" display="none"/></g><g transform="translate(0,48.55263157894736)"><path class="background" aria-hidden="true" d="M0,0L529.2158,0C531.423460097976,0,533.2158,1.792339902024,533.2158,4L533.2158,17.315789473684212C533.2158,19.523449571660212,531.423460097976,21.315789473684212,529.2158,21.315789473684212L0,21.315789473684212C0,21.315789473684212,0,21.315789473684212,0,21.315789473684212L0,0C0,0,0,0,0,0Z"/><g clip-path="url(#clip60)"><g class="mark-group role-scope" role="graphics-object" aria-roledescription="group mark container"><g transform="translate(0,0)"><path class="background" aria-hidden="true" d="M0,0h0v21.315789473684212h0Z"/><g><g class="mark-rect role-mark marks" role="graphics-object" aria-roledescription="rect mark container"><path aria-label="Erwerbstätige (Tsd.): 592462; Sektor: Handel, Reparatur" role="graphics-symbol" aria-roledescription="bar" d="M0,0h533.2158v21.315789473684212h-533.2158Z" fill="#a855f7"/></g></g><path class="foreground" aria-hidden="true" d="" display="none"/></g></g></g><path class="foreground" aria-hidden="true" d="" display="none"/></g><g transform="translate(0,72.23684210526315)"><path class="background" aria-hidden="true" d="M0,0L415.031,0C417.238660097976,0,419.031,1.792339902024,419.031,4L419.031,17.315789473684212C419.031,19.523449571660212,417.238660097976,21.315789473684212,415.031,21.315789473684212L0,21.315789473684212C0,21.315789473684212,0,21.315789473684212,0,21.315789473684212L0,0C0,0,0,0,0,0Z"/><g clip-path="url(#clip61)"><g class="mark-group role-scope" role="graphics-object" aria-roledescription="group mark container"><g transform="translate(0,0)"><path class="background" aria-hidden="true" d="M0,0h0v21.315789473684212h0Z"/><g><g class="mark-rect role-mark marks" role="graphics-object" aria-roledescription="rect mark container"><path aria-label="Erwerbstätige (Tsd.): 465590; Sektor: Freiberufliche, wiss. Dienstl." role="graphics-symbol" aria-roledescription="bar" d="M0,0h419.031v21.315789473684212h-419.031Z" fill="#a855f7"/></g></g><path class="foreground" aria-hidden="true" d="" display="none"/></g></g></g><path class="foreground" aria-hidden="true" d="" display="none"/></g><g transform="translate(0,95.92105263157895)"><path class="background" aria-hidden="true" d="M0,0L343.80769999999995,0C346.01536009797593,0,347.80769999999995,1.792339902024,347.80769999999995,4L347.80769999999995,17.315789473684212C347.80769999999995,19.523449571660212,346.01536009797593,21.315789473684212,343.80769999999995,21.315789473684212L0,21.315789473684212C0,21.315789473684212,0,21.315789473684212,0,21.315789473684212L0,0C0,0,0,0,0,0Z"/><g clip-path="url(#clip62)"><g class="mark-group role-scope" role="graphics-object" aria-roledescription="group mark container"><g transform="translate(0,0)"><path class="background" aria-hidden="true" d="M0,0h0v21.315789473684212h0Z"/><g><g class="mark-rect role-mark marks" role="graphics-object" aria-roledescription="rect mark container"><path aria-label="Erwerbstätige (Tsd.): 386453; Sektor: Erziehung und Unterricht" role="graphics-symbol" aria-roledescription="bar" d="M0,0h347.80769999999995v21.315789473684212h-347.80769999999995Z" fill="#a855f7"/></g></g><path class="foreground" aria-hidden="true" d="" display="none"/></g></g></g><path class="foreground" aria-hidden="true" d="" display="none"/></g><g transform="translate(0,119.60526315789474)"><path class="background" aria-hidden="true" d="M0,0L316.95259999999996,0C319.16026009797594,0,320.95259999999996,1.792339902024,320.95259999999996,4L320.95259999999996,17.315789473684212C320.95259999999996,19.523449571660212,319.16026009797594,21.315789473684212,316.95259999999996,21.315789473684212L0,21.315789473684212C0,21.315789473684212,0,21.315789473684212,0,21.315789473684212L0,0C0,0,0,0,0,0Z"/><g clip-path="url(#clip63)"><g class="mark-group role-scope" role="graphics-object" aria-roledescription="group mark container"><g transform="translate(0,0)"><path class="background" aria-hidden="true" d="M0,0h0v21.315789473684212h0Z"/><g><g class="mark-rect role-mark marks" role="graphics-object" aria-roledescription="rect mark container"><path aria-label="Erwerbstätige (Tsd.): 356614; Sektor: Sonstige wirtsch. Dienstl." role="graphics-symbol" aria-roledescription="bar" d="M0,0h320.95259999999996v21.315789473684212h-320.95259999999996Z" fill="#a855f7"/></g></g><path class="foreground" aria-hidden="true" d="" display="none"/></g></g></g><path class="foreground" aria-hidden="true" d="" display="none"/></g><g transform="translate(0,143.28947368421052)"><path class="background" aria-hidden="true" d="M0,0L311.7398,0C313.947460097976,0,315.7398,1.792339902024,315.7398,4L315.7398,17.315789473684212C315.7398,19.523449571660212,313.947460097976,21.315789473684212,311.7398,21.315789473684212L0,21.315789473684212C0,21.315789473684212,0,21.315789473684212,0,21.315789473684212L0,0C0,0,0,0,0,0Z"/><g clip-path="url(#clip64)"><g class="mark-group role-scope" role="graphics-object" aria-roledescription="group mark container"><g transform="translate(0,0)"><path class="background" aria-hidden="true" d="M0,0h0v21.315789473684212h0Z"/><g><g class="mark-rect role-mark marks" role="graphics-object" aria-roledescription="rect mark container"><path aria-label="Erwerbstätige (Tsd.): 350822; Sektor: Baugewerbe" role="graphics-symbol" aria-roledescription="bar" d="M0,0h315.7398v21.315789473684212h-315.7398Z" fill="#a855f7"/></g></g><path class="foreground" aria-hidden="true" d="" display="none"/></g></g></g><path class="foreground" aria-hidden="true" d="" display="none"/></g><g transform="translate(0,166.97368421052633)"><path class="background" aria-hidden="true" d="M0,0L223.74949999999998,0C225.957160097976,0,227.74949999999998,1.792339902024,227.74949999999998,4L227.74949999999998,17.315789473684212C227.74949999999998,19.523449571660212,225.957160097976,21.315789473684212,223.74949999999998,21.315789473684212L0,21.315789473684212C0,21.315789473684212,0,21.315789473684212,0,21.315789473684212L0,0C0,0,0,0,0,0Z"/><g clip-path="url(#clip65)"><g class="mark-group role-scope" role="graphics-object" aria-roledescription="group mark container"><g transform="translate(0,0)"><path class="background" aria-hidden="true" d="M0,0h0v21.315789473684212h0Z"/><g><g class="mark-rect role-mark marks" role="graphics-object" aria-roledescription="rect mark container"><path aria-label="Erwerbstätige (Tsd.): 253055; Sektor: Verkehr, Lagerei" role="graphics-symbol" aria-roledescription="bar" d="M0,0h227.74949999999998v21.315789473684212h-227.74949999999998Z" fill="#a855f7"/></g></g><path class="foreground" aria-hidden="true" d="" display="none"/></g></g></g><path class="foreground" aria-hidden="true" d="" display="none"/></g><g transform="translate(0,190.6578947368421)"><path class="background" aria-hidden="true" d="M0,0L223.1474,0C225.355060097976,0,227.1474,1.792339902024,227.1474,4L227.1474,17.315789473684212C227.1474,19.523449571660212,225.355060097976,21.315789473684212,223.1474,21.315789473684212L0,21.315789473684212C0,21.315789473684212,0,21.315789473684212,0,21.315789473684212L0,0C0,0,0,0,0,0Z"/><g clip-path="url(#clip66)"><g class="mark-group role-scope" role="graphics-object" aria-roledescription="group mark container"><g transform="translate(0,0)"><path class="background" aria-hidden="true" d="M0,0h0v21.315789473684212h0Z"/><g><g class="mark-rect role-mark marks" role="graphics-object" aria-roledescription="rect mark container"><path aria-label="Erwerbstätige (Tsd.): 252386; Sektor: Gastgewerbe, Beherbergung" role="graphics-symbol" aria-roledescription="bar" d="M0,0h227.1474v21.315789473684212h-227.1474Z" fill="#a855f7"/></g></g><path class="foreground" aria-hidden="true" d="" display="none"/></g></g></g><path class="foreground" aria-hidden="true" d="" display="none"/></g><g transform="translate(0,214.3421052631579)"><path class="background" aria-hidden="true" d="M0,0L212.9945,0C215.202160097976,0,216.9945,1.792339902024,216.9945,4L216.9945,17.315789473684212C216.9945,19.523449571660212,215.202160097976,21.315789473684212,212.9945,21.315789473684212L0,21.315789473684212C0,21.315789473684212,0,21.315789473684212,0,21.315789473684212L0,0C0,0,0,0,0,0Z"/><g clip-path="url(#clip67)"><g class="mark-group role-scope" role="graphics-object" aria-roledescription="group mark container"><g transform="translate(0,0)"><path class="background" aria-hidden="true" d="M0,0h0v21.315789473684212h0Z"/><g><g class="mark-rect role-mark marks" role="graphics-object" aria-roledescription="rect mark container"><path aria-label="Erwerbstätige (Tsd.): 241105; Sektor: Finanz-, Versicherungsdienstl." role="graphics-symbol" aria-roledescription="bar" d="M0,0h216.9945v21.315789473684212h-216.9945Z" fill="#a855f7"/></g></g><path class="foreground" aria-hidden="true" d="" display="none"/></g></g></g><path class="foreground" aria-hidden="true" d="" display="none"/></g><g transform="translate(0,238.0263157894737)"><path class="background" aria-hidden="true" d="M0,0L181.14079999999998,0C183.348460097976,0,185.14079999999998,1.792339902024,185.14079999999998,4L185.14079999999998,17.315789473684212C185.14079999999998,19.523449571660212,183.348460097976,21.315789473684212,181.14079999999998,21.315789473684212L0,21.315789473684212C0,21.315789473684212,0,21.315789473684212,0,21.315789473684212L0,0C0,0,0,0,0,0Z"/><g clip-path="url(#clip68)"><g class="mark-group role-scope" role="graphics-object" aria-roledescription="group mark container"><g transform="translate(0,0)"><path class="background" aria-hidden="true" d="M0,0h0v21.315789473684212h0Z"/><g><g class="mark-rect role-mark marks" role="graphics-object" aria-roledescription="rect mark container"><path aria-label="Erwerbstätige (Tsd.): 205712; Sektor: Öffentliche Verwaltung" role="graphics-symbol" aria-roledescription="bar" d="M0,0h185.14079999999998v21.315789473684212h-185.14079999999998Z" fill="#a855f7"/></g></g><path class="foreground" aria-hidden="true" d="" display="none"/></g></g></g><path class="foreground" aria-hidden="true" d="" display="none"/></g><g transform="translate(0,261.7105263157895)"><path class="background" aria-hidden="true" d="M0,0L170.0816,0C172.289260097976,0,174.0816,1.792339902024,174.0816,4L174.0816,17.315789473684212C174.0816,19.523449571660212,172.289260097976,21.315789473684212,170.0816,21.315789473684212L0,21.315789473684212C0,21.315789473684212,0,21.315789473684212,0,21.315789473684212L0,0C0,0,0,0,0,0Z"/><g clip-path="url(#clip69)"><g class="mark-group role-scope" role="graphics-object" aria-roledescription="group mark container"><g transform="translate(0,0)"><path class="background" aria-hidden="true" d="M0,0h0v21.315789473684212h0Z"/><g><g class="mark-rect role-mark marks" role="graphics-object" aria-roledescription="rect mark container"><path aria-label="Erwerbstätige (Tsd.): 193424; Sektor: Information, Kommunikation" role="graphics-symbol" aria-roledescription="bar" d="M0,0h174.0816v21.315789473684212h-174.0816Z" fill="#a855f7"/></g></g><path class="foreground" aria-hidden="true" d="" display="none"/></g></g></g><path class="foreground" aria-hidden="true" d="" display="none"/></g><g transform="translate(0,285.39473684210526)"><path class="background" aria-hidden="true" d="M0,0L140.981,0C143.188660097976,0,144.981,1.792339902024,144.981,4L144.981,17.315789473684212C144.981,19.523449571660212,143.188660097976,21.315789473684212,140.981,21.315789473684212L0,21.315789473684212C0,21.315789473684212,0,21.315789473684212,0,21.315789473684212L0,0C0,0,0,0,0,0Z"/><g clip-path="url(#clip70)"><g class="mark-group role-scope" role="graphics-object" aria-roledescription="group mark container"><g transform="translate(0,0)"><path class="background" aria-hidden="true" d="M0,0h0v21.315789473684212h0Z"/><g><g class="mark-rect role-mark marks" role="graphics-object" aria-roledescription="rect mark container"><path aria-label="Erwerbstätige (Tsd.): 161090; Sektor: Sonstige Dienstleistungen" role="graphics-symbol" aria-roledescription="bar" d="M0,0h144.981v21.315789473684212h-144.981Z" fill="#a855f7"/></g></g><path class="foreground" aria-hidden="true" d="" display="none"/></g></g></g><path class="foreground" aria-hidden="true" d="" display="none"/></g><g transform="translate(0,309.07894736842104)"><path class="background" aria-hidden="true" d="M0,0L108.6431,0C110.850760097976,0,112.6431,1.792339902024,112.6431,4L112.6431,17.315789473684212C112.6431,19.523449571660212,110.850760097976,21.315789473684212,108.6431,21.315789473684212L0,21.315789473684212C0,21.315789473684212,0,21.315789473684212,0,21.315789473684212L0,0C0,0,0,0,0,0Z"/><g clip-path="url(#clip71)"><g class="mark-group role-scope" role="graphics-object" aria-roledescription="group mark container"><g transform="translate(0,0)"><path class="background" aria-hidden="true" d="M0,0h0v21.315789473684212h0Z"/><g><g class="mark-rect role-mark marks" role="graphics-object" aria-roledescription="rect mark container"><path aria-label="Erwerbstätige (Tsd.): 125159; Sektor: Land- und Forstwirtschaft" role="graphics-symbol" aria-roledescription="bar" d="M0,0h112.6431v21.315789473684212h-112.6431Z" fill="#a855f7"/></g></g><path class="foreground" aria-hidden="true" d="" display="none"/></g></g></g><path class="foreground" aria-hidden="true" d="" display="none"/></g><g transform="translate(0,332.7631578947369)"><path class="background" aria-hidden="true" d="M0,0L94.6103,0C96.817960097976,0,98.6103,1.792339902024,98.6103,4L98.6103,17.315789473684212C98.6103,19.523449571660212,96.817960097976,21.315789473684212,94.6103,21.315789473684212L0,21.315789473684212C0,21.315789473684212,0,21.315789473684212,0,21.315789473684212L0,0C0,0,0,0,0,0Z"/><g clip-path="url(#clip72)"><g class="mark-group role-scope" role="graphics-object" aria-roledescription="group mark container"><g transform="translate(0,0)"><path class="background" aria-hidden="true" d="M0,0h0v21.315789473684212h0Z"/><g><g class="mark-rect role-mark marks" role="graphics-object" aria-roledescription="rect mark container"><path aria-label="Erwerbstätige (Tsd.): 109567; Sektor: Kunst, Unterhaltung, Erholung" role="graphics-symbol" aria-roledescription="bar" d="M0,0h98.6103v21.315789473684212h-98.6103Z" fill="#a855f7"/></g></g><path class="foreground" aria-hidden="true" d="" display="none"/></g></g></g><path class="foreground" aria-hidden="true" d="" display="none"/></g><g transform="translate(0,356.44736842105266)"><path class="background" aria-hidden="true" d="M0,0L67.0586,0C69.266260097976,0,71.0586,1.792339902024,71.0586,4L71.0586,17.315789473684212C71.0586,19.523449571660212,69.266260097976,21.315789473684212,67.0586,21.315789473684212L0,21.315789473684212C0,21.315789473684212,0,21.315789473684212,0,21.315789473684212L0,0C0,0,0,0,0,0Z"/><g clip-path="url(#clip73)"><g class="mark-group role-scope" role="graphics-object" aria-roledescription="group mark container"><g transform="translate(0,0)"><path class="background" aria-hidden="true" d="M0,0h0v21.315789473684212h0Z"/><g><g class="mark-rect role-mark marks" role="graphics-object" aria-roledescription="rect mark container"><path aria-label="Erwerbstätige (Tsd.): 78954; Sektor: Private Haushalte" role="graphics-symbol" aria-roledescription="bar" d="M0,0h71.0586v21.315789473684212h-71.0586Z" fill="#a855f7"/></g></g><path class="foreground" aria-hidden="true" d="" display="none"/></g></g></g><path class="foreground" aria-hidden="true" d="" display="none"/></g><g transform="translate(0,380.13157894736844)"><path class="background" aria-hidden="true" d="M0,0L58.3448,0C60.552460097976,0,62.3448,1.792339902024,62.3448,4L62.3448,17.315789473684212C62.3448,19.523449571660212,60.552460097976,21.315789473684212,58.3448,21.315789473684212L0,21.315789473684212C0,21.315789473684212,0,21.315789473684212,0,21.315789473684212L0,0C0,0,0,0,0,0Z"/><g clip-path="url(#clip74)"><g class="mark-group role-scope" role="graphics-object" aria-roledescription="group mark container"><g transform="translate(0,0)"><path class="background" aria-hidden="true" d="M0,0h0v21.315789473684212h0Z"/><g><g class="mark-rect role-mark marks" role="graphics-object" aria-roledescription="rect mark container"><path aria-label="Erwerbstätige (Tsd.): 69272; Sektor: Grundstücks-, Wohnungswesen" role="graphics-symbol" aria-roledescription="bar" d="M0,0h62.3448v21.315789473684212h-62.3448Z" fill="#a855f7"/></g></g><path class="foreground" aria-hidden="true" d="" display="none"/></g></g></g><path class="foreground" aria-hidden="true" d="" display="none"/></g><g transform="translate(0,403.8157894736842)"><path class="background" aria-hidden="true" d="M0,0L24.982699999999998,0C27.190360097975997,0,28.982699999999998,1.792339902024,28.982699999999998,4L28.982699999999998,17.315789473684212C28.982699999999998,19.523449571660212,27.190360097975997,21.315789473684212,24.982699999999998,21.315789473684212L0,21.315789473684212C0,21.315789473684212,0,21.315789473684212,0,21.315789473684212L0,0C0,0,0,0,0,0Z"/><g clip-path="url(#clip75)"><g class="mark-group role-scope" role="graphics-object" aria-roledescription="group mark container"><g transform="translate(0,0)"><path class="background" aria-hidden="true" d="M0,0h0v21.315789473684212h0Z"/><g><g class="mark-rect role-mark marks" role="graphics-object" aria-roledescription="rect mark container"><path aria-label="Erwerbstätige (Tsd.): 32203; Sektor: Energieversorgung" role="graphics-symbol" aria-roledescription="bar" d="M0,0h28.982699999999998v21.315789473684212h-28.982699999999998Z" fill="#a855f7"/></g></g><path class="foreground" aria-hidden="true" d="" display="none"/></g></g></g><path class="foreground" aria-hidden="true" d="" display="none"/></g><g transform="translate(0,427.5)"><path class="background" aria-hidden="true" d="M0,0L14.9072,0C17.114860097976,0,18.9072,1.792339902024,18.9072,4L18.9072,17.315789473684212C18.9072,19.523449571660212,17.114860097976,21.315789473684212,14.9072,21.315789473684212L0,21.315789473684212C0,21.315789473684212,0,21.315789473684212,0,21.315789473684212L0,0C0,0,0,0,0,0Z"/><g clip-path="url(#clip76)"><g class="mark-group role-scope" role="graphics-object" aria-roledescription="group mark container"><g transform="translate(0,0)"><path class="background" aria-hidden="true" d="M0,0h0v21.315789473684212h0Z"/><g><g class="mark-rect role-mark marks" role="graphics-object" aria-roledescription="rect mark container"><path aria-label="Erwerbstätige (Tsd.): 21008; Sektor: Wasserversorgung, Entsorgung" role="graphics-symbol" aria-roledescription="bar" d="M0,0h18.9072v21.315789473684212h-18.9072Z" fill="#a855f7"/></g></g><path class="foreground" aria-hidden="true" d="" display="none"/></g></g></g><path class="foreground" aria-hidden="true" d="" display="none"/></g></g><g class="mark-group role-title"><g transform="translate(360,-17)"><path class="background" aria-hidden="true" d="M0,0h0v0h0Z" pointer-events="none"/><g><g class="mark-text role-title-text" role="graphics-symbol" aria-roledescription="title" aria-label="Title text 'Erwerbstätige nach Wirtschaftsabschnitt — Schweiz (2024, in Tsd.)'" pointer-events="none"><text text-anchor="middle" transform="translate(0,10)" font-family="Switzer, system-ui, sans-serif" font-size="13px" font-weight="bold" fill="#000" opacity="1">Erwerbstätige nach Wirtschaftsabschnitt — Schweiz (2024, in Tsd.)</text></g></g><path class="foreground" aria-hidden="true" d="" pointer-events="none" display="none"/></g></g></g><path class="foreground" aria-hidden="true" d="" display="none"/></g></g></g><defs><clipPath id="clip58"><path d="M0,0L705.6851,0C707.8927600979761,0,709.6851,1.792339902024,709.6851,4L709.6851,17.315789473684212C709.6851,19.523449571660212,707.8927600979761,21.315789473684212,705.6851,21.315789473684212L0,21.315789473684212C0,21.315789473684212,0,21.315789473684212,0,21.315789473684212L0,0C0,0,0,0,0,0Z"/></clipPath><clipPath id="clip59"><path d="M0,0L588.6428000000001,0C590.8504600979761,0,592.6428000000001,1.792339902024,592.6428000000001,4L592.6428000000001,17.315789473684212C592.6428000000001,19.523449571660212,590.8504600979761,21.315789473684212,588.6428000000001,21.315789473684212L0,21.315789473684212C0,21.315789473684212,0,21.315789473684212,0,21.315789473684212L0,0C0,0,0,0,0,0Z"/></clipPath><clipPath id="clip60"><path d="M0,0L529.2158,0C531.423460097976,0,533.2158,1.792339902024,533.2158,4L533.2158,17.315789473684212C533.2158,19.523449571660212,531.423460097976,21.315789473684212,529.2158,21.315789473684212L0,21.315789473684212C0,21.315789473684212,0,21.315789473684212,0,21.315789473684212L0,0C0,0,0,0,0,0Z"/></clipPath><clipPath id="clip61"><path d="M0,0L415.031,0C417.238660097976,0,419.031,1.792339902024,419.031,4L419.031,17.315789473684212C419.031,19.523449571660212,417.238660097976,21.315789473684212,415.031,21.315789473684212L0,21.315789473684212C0,21.315789473684212,0,21.315789473684212,0,21.315789473684212L0,0C0,0,0,0,0,0Z"/></clipPath><clipPath id="clip62"><path d="M0,0L343.80769999999995,0C346.01536009797593,0,347.80769999999995,1.792339902024,347.80769999999995,4L347.80769999999995,17.315789473684212C347.80769999999995,19.523449571660212,346.01536009797593,21.315789473684212,343.80769999999995,21.315789473684212L0,21.315789473684212C0,21.315789473684212,0,21.315789473684212,0,21.315789473684212L0,0C0,0,0,0,0,0Z"/></clipPath><clipPath id="clip63"><path d="M0,0L316.95259999999996,0C319.16026009797594,0,320.95259999999996,1.792339902024,320.95259999999996,4L320.95259999999996,17.315789473684212C320.95259999999996,19.523449571660212,319.16026009797594,21.315789473684212,316.95259999999996,21.315789473684212L0,21.315789473684212C0,21.315789473684212,0,21.315789473684212,0,21.315789473684212L0,0C0,0,0,0,0,0Z"/></clipPath><clipPath id="clip64"><path d="M0,0L311.7398,0C313.947460097976,0,315.7398,1.792339902024,315.7398,4L315.7398,17.315789473684212C315.7398,19.523449571660212,313.947460097976,21.315789473684212,311.7398,21.315789473684212L0,21.315789473684212C0,21.315789473684212,0,21.315789473684212,0,21.315789473684212L0,0C0,0,0,0,0,0Z"/></clipPath><clipPath id="clip65"><path d="M0,0L223.74949999999998,0C225.957160097976,0,227.74949999999998,1.792339902024,227.74949999999998,4L227.74949999999998,17.315789473684212C227.74949999999998,19.523449571660212,225.957160097976,21.315789473684212,223.74949999999998,21.315789473684212L0,21.315789473684212C0,21.315789473684212,0,21.315789473684212,0,21.315789473684212L0,0C0,0,0,0,0,0Z"/></clipPath><clipPath id="clip66"><path d="M0,0L223.1474,0C225.355060097976,0,227.1474,1.792339902024,227.1474,4L227.1474,17.315789473684212C227.1474,19.523449571660212,225.355060097976,21.315789473684212,223.1474,21.315789473684212L0,21.315789473684212C0,21.315789473684212,0,21.315789473684212,0,21.315789473684212L0,0C0,0,0,0,0,0Z"/></clipPath><clipPath id="clip67"><path d="M0,0L212.9945,0C215.202160097976,0,216.9945,1.792339902024,216.9945,4L216.9945,17.315789473684212C216.9945,19.523449571660212,215.202160097976,21.315789473684212,212.9945,21.315789473684212L0,21.315789473684212C0,21.315789473684212,0,21.315789473684212,0,21.315789473684212L0,0C0,0,0,0,0,0Z"/></clipPath><clipPath id="clip68"><path d="M0,0L181.14079999999998,0C183.348460097976,0,185.14079999999998,1.792339902024,185.14079999999998,4L185.14079999999998,17.315789473684212C185.14079999999998,19.523449571660212,183.348460097976,21.315789473684212,181.14079999999998,21.315789473684212L0,21.315789473684212C0,21.315789473684212,0,21.315789473684212,0,21.315789473684212L0,0C0,0,0,0,0,0Z"/></clipPath><clipPath id="clip69"><path d="M0,0L170.0816,0C172.289260097976,0,174.0816,1.792339902024,174.0816,4L174.0816,17.315789473684212C174.0816,19.523449571660212,172.289260097976,21.315789473684212,170.0816,21.315789473684212L0,21.315789473684212C0,21.315789473684212,0,21.315789473684212,0,21.315789473684212L0,0C0,0,0,0,0,0Z"/></clipPath><clipPath id="clip70"><path d="M0,0L140.981,0C143.188660097976,0,144.981,1.792339902024,144.981,4L144.981,17.315789473684212C144.981,19.523449571660212,143.188660097976,21.315789473684212,140.981,21.315789473684212L0,21.315789473684212C0,21.315789473684212,0,21.315789473684212,0,21.315789473684212L0,0C0,0,0,0,0,0Z"/></clipPath><clipPath id="clip71"><path d="M0,0L108.6431,0C110.850760097976,0,112.6431,1.792339902024,112.6431,4L112.6431,17.315789473684212C112.6431,19.523449571660212,110.850760097976,21.315789473684212,108.6431,21.315789473684212L0,21.315789473684212C0,21.315789473684212,0,21.315789473684212,0,21.315789473684212L0,0C0,0,0,0,0,0Z"/></clipPath><clipPath id="clip72"><path d="M0,0L94.6103,0C96.817960097976,0,98.6103,1.792339902024,98.6103,4L98.6103,17.315789473684212C98.6103,19.523449571660212,96.817960097976,21.315789473684212,94.6103,21.315789473684212L0,21.315789473684212C0,21.315789473684212,0,21.315789473684212,0,21.315789473684212L0,0C0,0,0,0,0,0Z"/></clipPath><clipPath id="clip73"><path d="M0,0L67.0586,0C69.266260097976,0,71.0586,1.792339902024,71.0586,4L71.0586,17.315789473684212C71.0586,19.523449571660212,69.266260097976,21.315789473684212,67.0586,21.315789473684212L0,21.315789473684212C0,21.315789473684212,0,21.315789473684212,0,21.315789473684212L0,0C0,0,0,0,0,0Z"/></clipPath><clipPath id="clip74"><path d="M0,0L58.3448,0C60.552460097976,0,62.3448,1.792339902024,62.3448,4L62.3448,17.315789473684212C62.3448,19.523449571660212,60.552460097976,21.315789473684212,58.3448,21.315789473684212L0,21.315789473684212C0,21.315789473684212,0,21.315789473684212,0,21.315789473684212L0,0C0,0,0,0,0,0Z"/></clipPath><clipPath id="clip75"><path d="M0,0L24.982699999999998,0C27.190360097975997,0,28.982699999999998,1.792339902024,28.982699999999998,4L28.982699999999998,17.315789473684212C28.982699999999998,19.523449571660212,27.190360097975997,21.315789473684212,24.982699999999998,21.315789473684212L0,21.315789473684212C0,21.315789473684212,0,21.315789473684212,0,21.315789473684212L0,0C0,0,0,0,0,0Z"/></clipPath><clipPath id="clip76"><path d="M0,0L14.9072,0C17.114860097976,0,18.9072,1.792339902024,18.9072,4L18.9072,17.315789473684212C18.9072,19.523449571660212,17.114860097976,21.315789473684212,14.9072,21.315789473684212L0,21.315789473684212C0,21.315789473684212,0,21.315789473684212,0,21.315789473684212L0,0C0,0,0,0,0,0Z"/></clipPath></defs></svg>