<svg xmlns="http://www.w3.org/2000/svg" xmlns:xlink="http://www.w3.org/1999/xlink" version="1.1" class="marks" width="1002" height="509" viewBox="0 0 1002 509"><rect width="1002" height="509" fill="white"/><g fill="none" stroke-miterlimit="10" transform="translate(169,22)"><g class="mark-group role-frame root" role="graphics-object" aria-roledescription="group mark container"><g transform="translate(0,0)"><path class="background" aria-hidden="true" d="M0.5,0.5h720v450h-720Z"/><g><g class="mark-group role-axis" aria-hidden="true"><g transform="translate(0.5,450.5)"><path class="background" aria-hidden="true" d="M0,0h0v0h0Z" pointer-events="none"/><g><g class="mark-rule role-axis-grid" pointer-events="none"><line transform="translate(16,0)" x2="0" y2="-450" stroke="#ddd" stroke-width="1" opacity="1"/><line transform="translate(48,0)" x2="0" y2="-450" stroke="#ddd" stroke-width="1" opacity="1"/><line transform="translate(80,0)" x2="0" y2="-450" stroke="#ddd" stroke-width="1" opacity="1"/><line transform="translate(112,0)" x2="0" y2="-450" stroke="#ddd" stroke-width="1" opacity="1"/><line transform="translate(144,0)" x2="0" y2="-450" stroke="#ddd" stroke-width="1" opacity="1"/><line transform="translate(176,0)" x2="0" y2="-450" stroke="#ddd" stroke-width="1" opacity="1"/><line transform="translate(208,0)" x2="0" y2="-450" stroke="#ddd" stroke-width="1" opacity="1"/><line transform="translate(240,0)" x2="0" y2="-450" stroke="#ddd" stroke-width="1" opacity="1"/><line transform="translate(272,0)" x2="0" y2="-450" stroke="#ddd" stroke-width="1" opacity="1"/><line transform="translate(304,0)" x2="0" y2="-450" stroke="#ddd" stroke-width="1" opacity="1"/><line transform="translate(336,0)" x2="0" y2="-450" stroke="#ddd" stroke-width="1" opacity="1"/><line transform="translate(368,0)" x2="0" y2="-450" stroke="#ddd" stroke-width="1" opacity="1"/><line transform="translate(400,0)" x2="0" y2="-450" stroke="#ddd" stroke-width="1" opacity="1"/><line transform="translate(432,0)" x2="0" y2="-450" stroke="#ddd" stroke-width="1" opacity="1"/><line transform="translate(464,0)" x2="0" y2="-450" stroke="#ddd" stroke-width="1" opacity="1"/><line transform="translate(496,0)" x2="0" y2="-450" stroke="#ddd" stroke-width="1" opacity="1"/><line transform="translate(528,0)" x2="0" y2="-450" stroke="#ddd" stroke-width="1" opacity="1"/><line transform="translate(560,0)" x2="0" y2="-450" stroke="#ddd" stroke-width="1" opacity="1"/><line transform="translate(592,0)" x2="0" y2="-450" stroke="#ddd" stroke-width="1" opacity="1"/><line transform="translate(624,0)" x2="0" y2="-450" stroke="#ddd" stroke-width="1" opacity="1"/><line transform="translate(656,0)" x2="0" y2="-450" stroke="#ddd" stroke-width="1" opacity="1"/><line transform="translate(688,0)" x2="0" y2="-450" stroke="#ddd" stroke-width="1" opacity="1"/><line transform="translate(720,0)" x2="0" y2="-450" stroke="#ddd" stroke-width="1" opacity="1"/></g></g><path class="foreground" aria-hidden="true" d="" pointer-events="none" display="none"/></g></g><g class="mark-group role-axis" role="graphics-symbol" aria-roledescription="axis" aria-label="X-axis titled 'Veränderung (Prozentpunkte)' for a linear scale with values from −15 to 30"><g transform="translate(0.5,450.5)"><path class="background" aria-hidden="true" d="M0,0h0v0h0Z" pointer-events="none"/><g><g class="mark-rule role-axis-tick" pointer-events="none"><line transform="translate(16,0)" x2="0" y2="5" stroke="#888" stroke-width="1" opacity="1"/><line transform="translate(48,0)" x2="0" y2="5" stroke="#888" stroke-width="1" opacity="1"/><line transform="translate(80,0)" x2="0" y2="5" stroke="#888" stroke-width="1" opacity="1"/><line transform="translate(112,0)" x2="0" y2="5" stroke="#888" stroke-width="1" opacity="1"/><line transform="translate(144,0)" x2="0" y2="5" stroke="#888" stroke-width="1" opacity="1"/><line transform="translate(176,0)" x2="0" y2="5" stroke="#888" stroke-width="1" opacity="1"/><line transform="translate(208,0)" x2="0" y2="5" stroke="#888" stroke-width="1" opacity="1"/><line transform="translate(240,0)" x2="0" y2="5" stroke="#888" stroke-width="1" opacity="1"/><line transform="translate(272,0)" x2="0" y2="5" stroke="#888" stroke-width="1" opacity="1"/><line transform="translate(304,0)" x2="0" y2="5" stroke="#888" stroke-width="1" opacity="1"/><line transform="translate(336,0)" x2="0" y2="5" stroke="#888" stroke-width="1" opacity="1"/><line transform="translate(368,0)" x2="0" y2="5" stroke="#888" stroke-width="1" opacity="1"/><line transform="translate(400,0)" x2="0" y2="5" stroke="#888" stroke-width="1" opacity="1"/><line transform="translate(432,0)" x2="0" y2="5" stroke="#888" stroke-width="1" opacity="1"/><line transform="translate(464,0)" x2="0" y2="5" stroke="#888" stroke-width="1" opacity="1"/><line transform="translate(496,0)" x2="0" y2="5" stroke="#888" stroke-width="1" opacity="1"/><line transform="translate(528,0)" x2="0" y2="5" stroke="#888" stroke-width="1" opacity="1"/><line transform="translate(560,0)" x2="0" y2="5" stroke="#888" stroke-width="1" opacity="1"/><line transform="translate(592,0)" x2="0" y2="5" stroke="#888" stroke-width="1" opacity="1"/><line transform="translate(624,0)" x2="0" y2="5" stroke="#888" stroke-width="1" opacity="1"/><line transform="translate(656,0)" x2="0" y2="5" stroke="#888" stroke-width="1" opacity="1"/><line transform="translate(688,0)" x2="0" y2="5" stroke="#888" stroke-width="1" opacity="1"/><line transform="translate(720,0)" x2="0" y2="5" stroke="#888" stroke-width="1" opacity="1"/></g><g class="mark-text role-axis-label" pointer-events="none"><text text-anchor="middle" transform="translate(16,15)" font-family="Switzer, system-ui, sans-serif" font-size="10px" fill="#000" opacity="1">−14</text><text text-anchor="middle" transform="translate(48,15)" font-family="Switzer, system-ui, sans-serif" font-size="10px" fill="#000" opacity="1">−12</text><text text-anchor="middle" transform="translate(80,15)" font-family="Switzer, system-ui, sans-serif" font-size="10px" fill="#000" opacity="1">−10</text><text text-anchor="middle" transform="translate(112,15)" font-family="Switzer, system-ui, sans-serif" font-size="10px" fill="#000" opacity="1">−8</text><text text-anchor="middle" transform="translate(144,15)" font-family="Switzer, system-ui, sans-serif" font-size="10px" fill="#000" opacity="1">−6</text><text text-anchor="middle" transform="translate(176,15)" font-family="Switzer, system-ui, sans-serif" font-size="10px" fill="#000" opacity="1">−4</text><text text-anchor="middle" transform="translate(207.99999999999997,15)" font-family="Switzer, system-ui, sans-serif" font-size="10px" fill="#000" opacity="1">−2</text><text text-anchor="middle" transform="translate(240,15)" font-family="Switzer, system-ui, sans-serif" font-size="10px" fill="#000" opacity="1">0</text><text text-anchor="middle" transform="translate(272,15)" font-family="Switzer, system-ui, sans-serif" font-size="10px" fill="#000" opacity="1">2</text><text text-anchor="middle" transform="translate(304,15)" font-family="Switzer, system-ui, sans-serif" font-size="10px" fill="#000" opacity="1">4</text><text text-anchor="middle" transform="translate(336,15)" font-family="Switzer, system-ui, sans-serif" font-size="10px" fill="#000" opacity="1">6</text><text text-anchor="middle" transform="translate(368,15)" font-family="Switzer, system-ui, sans-serif" font-size="10px" fill="#000" opacity="1">8</text><text text-anchor="middle" transform="translate(400,15)" font-family="Switzer, system-ui, sans-serif" font-size="10px" fill="#000" opacity="1">10</text><text text-anchor="middle" transform="translate(432,15)" font-family="Switzer, system-ui, sans-serif" font-size="10px" fill="#000" opacity="1">12</text><text text-anchor="middle" transform="translate(464.00000000000006,15)" font-family="Switzer, system-ui, sans-serif" font-size="10px" fill="#000" opacity="1">14</text><text text-anchor="middle" transform="translate(496,15)" font-family="Switzer, system-ui, sans-serif" font-size="10px" fill="#000" opacity="1">16</text><text text-anchor="middle" transform="translate(528,15)" font-family="Switzer, system-ui, sans-serif" font-size="10px" fill="#000" opacity="1">18</text><text text-anchor="middle" transform="translate(560,15)" font-family="Switzer, system-ui, sans-serif" font-size="10px" fill="#000" opacity="1">20</text><text text-anchor="middle" transform="translate(592,15)" font-family="Switzer, system-ui, sans-serif" font-size="10px" fill="#000" opacity="1">22</text><text text-anchor="middle" transform="translate(624,15)" font-family="Switzer, system-ui, sans-serif" font-size="10px" fill="#000" opacity="1">24</text><text text-anchor="middle" transform="translate(656,15)" font-family="Switzer, system-ui, sans-serif" font-size="10px" fill="#000" opacity="1">26</text><text text-anchor="middle" transform="translate(688,15)" font-family="Switzer, system-ui, sans-serif" font-size="10px" fill="#000" opacity="1">28</text><text text-anchor="end" transform="translate(720,15)" font-family="Switzer, system-ui, sans-serif" font-size="10px" fill="#000" opacity="1">30</text></g><g class="mark-rule role-axis-domain" pointer-events="none"><line transform="translate(0,0)" x2="720" y2="0" stroke="#888" stroke-width="1" opacity="1"/></g><g class="mark-text role-axis-title" pointer-events="none"><text text-anchor="middle" transform="translate(360,30)" font-family="Switzer, system-ui, sans-serif" font-size="11px" font-weight="bold" fill="#000" opacity="1">Veränderung (Prozentpunkte)</text></g></g><path class="foreground" aria-hidden="true" d="" pointer-events="none" display="none"/></g></g><g class="mark-group role-axis" role="graphics-symbol" aria-roledescription="axis" aria-label="Y-axis for a discrete scale with 13 values: Verkehr, Lagerei, Gastgewerbe, Beherbergung, Baugewerbe, Sonstige wirtsch. Dienstl., Verarbeitendes Gewerbe, Bergbau, ending with Freiberufliche, wiss. Dienstl."><g transform="translate(0.5,0.5)"><path class="background" aria-hidden="true" d="M0,0h0v0h0Z" pointer-events="none"/><g><g class="mark-rule role-axis-tick" pointer-events="none"><line transform="translate(0,17)" x2="-5" y2="0" stroke="#888" stroke-width="1" opacity="1"/><line transform="translate(0,51)" x2="-5" y2="0" stroke="#888" stroke-width="1" opacity="1"/><line transform="translate(0,86)" x2="-5" y2="0" stroke="#888" stroke-width="1" opacity="1"/><line transform="translate(0,121)" x2="-5" y2="0" stroke="#888" stroke-width="1" opacity="1"/><line transform="translate(0,155)" x2="-5" y2="0" stroke="#888" stroke-width="1" opacity="1"/><line transform="translate(0,190)" x2="-5" y2="0" stroke="#888" stroke-width="1" opacity="1"/><line transform="translate(0,224)" x2="-5" y2="0" stroke="#888" stroke-width="1" opacity="1"/><line transform="translate(0,259)" x2="-5" y2="0" stroke="#888" stroke-width="1" opacity="1"/><line transform="translate(0,294)" x2="-5" y2="0" stroke="#888" stroke-width="1" opacity="1"/><line transform="translate(0,328)" x2="-5" y2="0" stroke="#888" stroke-width="1" opacity="1"/><line transform="translate(0,363)" x2="-5" y2="0" stroke="#888" stroke-width="1" opacity="1"/><line transform="translate(0,398)" x2="-5" y2="0" stroke="#888" stroke-width="1" opacity="1"/><line transform="translate(0,432)" x2="-5" y2="0" stroke="#888" stroke-width="1" opacity="1"/></g><g class="mark-text role-axis-label" pointer-events="none"><text text-anchor="end" transform="translate(-7,19.807692307692303)" font-family="Switzer, system-ui, sans-serif" font-size="10px" fill="#000" opacity="1">Verkehr, Lagerei</text><text text-anchor="end" transform="translate(-7,54.42307692307692)" font-family="Switzer, system-ui, sans-serif" font-size="10px" fill="#000" opacity="1">Gastgewerbe, Beherbergung</text><text text-anchor="end" transform="translate(-7,89.03846153846153)" font-family="Switzer, system-ui, sans-serif" font-size="10px" fill="#000" opacity="1">Baugewerbe</text><text text-anchor="end" transform="translate(-7,123.65384615384615)" font-family="Switzer, system-ui, sans-serif" font-size="10px" fill="#000" opacity="1">Sonstige wirtsch. Dienstl.</text><text text-anchor="end" transform="translate(-7,158.26923076923075)" font-family="Switzer, system-ui, sans-serif" font-size="10px" fill="#000" opacity="1">Verarbeitendes Gewerbe, Bergbau</text><text text-anchor="end" transform="translate(-7,192.88461538461536)" font-family="Switzer, system-ui, sans-serif" font-size="10px" fill="#000" opacity="1">Handel, Reparatur</text><text text-anchor="end" transform="translate(-7,227.49999999999997)" font-family="Switzer, system-ui, sans-serif" font-size="10px" fill="#000" opacity="1">Gesundheits-, Sozialwesen</text><text text-anchor="end" transform="translate(-7,262.1153846153846)" font-family="Switzer, system-ui, sans-serif" font-size="10px" fill="#000" opacity="1">Grundstücks-, Wohnungswesen</text><text text-anchor="end" transform="translate(-7,296.7307692307692)" font-family="Switzer, system-ui, sans-serif" font-size="10px" fill="#000" opacity="1">Erziehung und Unterricht</text><text text-anchor="end" transform="translate(-7,331.34615384615387)" font-family="Switzer, system-ui, sans-serif" font-size="10px" fill="#000" opacity="1">Öffentliche Verwaltung</text><text text-anchor="end" transform="translate(-7,365.96153846153845)" font-family="Switzer, system-ui, sans-serif" font-size="10px" fill="#000" opacity="1">Finanz-, Versicherungsdienstl.</text><text text-anchor="end" transform="translate(-7,400.57692307692304)" font-family="Switzer, system-ui, sans-serif" font-size="10px" fill="#000" opacity="1">Information, Kommunikation</text><text text-anchor="end" transform="translate(-7,435.1923076923077)" font-family="Switzer, system-ui, sans-serif" font-size="10px" fill="#000" opacity="1">Freiberufliche, wiss. Dienstl.</text></g><g class="mark-rule role-axis-domain" pointer-events="none"><line transform="translate(0,0)" x2="0" y2="450" stroke="#888" stroke-width="1" opacity="1"/></g></g><path class="foreground" aria-hidden="true" d="" pointer-events="none" display="none"/></g></g><g class="mark-group role-scope" role="graphics-object" aria-roledescription="group mark container"><g transform="translate(32,1.7307692307692264)"><path class="background" aria-hidden="true" d="M0,0L205,0C206.655745073482,0,208,1.344254926518,208,3L208,28.153846153846153C208,29.809591227328152,206.655745073482,31.153846153846153,205,31.153846153846153L0,31.153846153846153C0,31.153846153846153,0,31.153846153846153,0,31.153846153846153L0,0C0,0,0,0,0,0Z"/><g clip-path="url(#clip77)"><g class="mark-group role-scope" role="graphics-object" aria-roledescription="group mark container"><g transform="translate(-32,0)"><path class="background" aria-hidden="true" d="M0,0h0v31.153846153846153h0Z"/><g><g class="mark-rect role-mark marks" role="graphics-object" aria-roledescription="rect mark container"><path aria-label="Veränderung (Prozentpunkte): −13; Sektor: Verkehr, Lagerei; Richtung: Risiko gesunken" role="graphics-symbol" aria-roledescription="bar" d="M32,0h208v31.153846153846153h-208Z" fill="#10b981"/></g></g><path class="foreground" aria-hidden="true" d="" display="none"/></g></g></g><path class="foreground" aria-hidden="true" d="" display="none"/></g><g transform="translate(48,36.34615384615384)"><path class="background" aria-hidden="true" d="M0,0L189,0C190.655745073482,0,192,1.344254926518,192,3L192,28.153846153846153C192,29.809591227328152,190.655745073482,31.153846153846153,189,31.153846153846153L0,31.153846153846153C0,31.153846153846153,0,31.153846153846153,0,31.153846153846153L0,0C0,0,0,0,0,0Z"/><g clip-path="url(#clip78)"><g class="mark-group role-scope" role="graphics-object" aria-roledescription="group mark container"><g transform="translate(-48,0)"><path class="background" aria-hidden="true" d="M0,0h0v31.153846153846153h0Z"/><g><g class="mark-rect role-mark marks" role="graphics-object" aria-roledescription="rect mark container"><path aria-label="Veränderung (Prozentpunkte): −12; Sektor: Gastgewerbe, Beherbergung; Richtung: Risiko gesunken" role="graphics-symbol" aria-roledescription="bar" d="M48,0h192v31.153846153846153h-192Z" fill="#10b981"/></g></g><path class="foreground" aria-hidden="true" d="" display="none"/></g></g></g><path class="foreground" aria-hidden="true" d="" display="none"/></g><g transform="translate(80,70.96153846153845)"><path class="background" aria-hidden="true" d="M0,0L157,0C158.655745073482,0,160,1.344254926518,160,3L160,28.153846153846153C160,29.809591227328152,158.655745073482,31.153846153846153,157,31.153846153846153L0,31.153846153846153C0,31.153846153846153,0,31.153846153846153,0,31.153846153846153L0,0C0,0,0,0,0,0Z"/><g clip-path="url(#clip79)"><g class="mark-group role-scope" role="graphics-object" aria-roledescription="group mark container"><g transform="translate(-80,0)"><path class="background" aria-hidden="true" d="M0,0h0v31.153846153846153h0Z"/><g><g class="mark-rect role-mark marks" role="graphics-object" aria-roledescription="rect mark container"><path aria-label="Veränderung (Prozentpunkte): −10; Sektor: Baugewerbe; Richtung: Risiko gesunken" role="graphics-symbol" aria-roledescription="bar" d="M80,0h160v31.153846153846153h-160Z" fill="#10b981"/></g></g><path class="foreground" aria-hidden="true" d="" display="none"/></g></g></g><path class="foreground" aria-hidden="true" d="" display="none"/></g><g transform="translate(112,105.57692307692307)"><path class="background" aria-hidden="true" d="M0,0L125,0C126.655745073482,0,128,1.344254926518,128,3L128,28.153846153846153C128,29.809591227328152,126.655745073482,31.153846153846153,125,31.153846153846153L0,31.153846153846153C0,31.153846153846153,0,31.153846153846153,0,31.153846153846153L0,0C0,0,0,0,0,0Z"/><g clip-path="url(#clip80)"><g class="mark-group role-scope" role="graphics-object" aria-roledescription="group mark container"><g transform="translate(-112,0)"><path class="background" aria-hidden="true" d="M0,0h0v31.153846153846153h0Z"/><g><g class="mark-rect role-mark marks" role="graphics-object" aria-roledescription="rect mark container"><path aria-label="Veränderung (Prozentpunkte): −8; Sektor: Sonstige wirtsch. Dienstl.; Richtung: Risiko gesunken" role="graphics-symbol" aria-roledescription="bar" d="M112,0h128v31.153846153846153h-128Z" fill="#10b981"/></g></g><path class="foreground" aria-hidden="true" d="" display="none"/></g></g></g><path class="foreground" aria-hidden="true" d="" display="none"/></g><g transform="translate(128,140.19230769230768)"><path class="background" aria-hidden="true" d="M0,0L109,0C110.655745073482,0,112,1.344254926518,112,3L112,28.153846153846153C112,29.809591227328152,110.655745073482,31.153846153846153,109,31.153846153846153L0,31.153846153846153C0,31.153846153846153,0,31.153846153846153,0,31.153846153846153L0,0C0,0,0,0,0,0Z"/><g clip-path="url(#clip81)"><g class="mark-group role-scope" role="graphics-object" aria-roledescription="group mark container"><g transform="translate(-128,0)"><path class="background" aria-hidden="true" d="M0,0h0v31.153846153846153h0Z"/><g><g class="mark-rect role-mark marks" role="graphics-object" aria-roledescription="rect mark container"><path aria-label="Veränderung (Prozentpunkte): −7; Sektor: Verarbeitendes Gewerbe, Bergbau; Richtung: Risiko gesunken" role="graphics-symbol" aria-roledescription="bar" d="M128,0h112v31.153846153846153h-112Z" fill="#10b981"/></g></g><path class="foreground" aria-hidden="true" d="" display="none"/></g></g></g><path class="foreground" aria-hidden="true" d="" display="none"/></g><g transform="translate(240,174.8076923076923)"><path class="background" aria-hidden="true" d="M0,0L61,0C62.655745073482,0,64,1.344254926518,64,3L64,28.153846153846153C64,29.809591227328152,62.655745073482,31.153846153846153,61,31.153846153846153L0,31.153846153846153C0,31.153846153846153,0,31.153846153846153,0,31.153846153846153L0,0C0,0,0,0,0,0Z"/><g clip-path="url(#clip82)"><g class="mark-group role-scope" role="graphics-object" aria-roledescription="group mark container"><g transform="translate(-240,0)"><path class="background" aria-hidden="true" d="M0,0h0v31.153846153846153h0Z"/><g><g class="mark-rect role-mark marks" role="graphics-object" aria-roledescription="rect mark container"><path aria-label="Veränderung (Prozentpunkte): 4; Sektor: Handel, Reparatur; Richtung: Risiko gestiegen" role="graphics-symbol" aria-roledescription="bar" d="M240,0h64v31.153846153846153h-64Z" fill="#ef4444"/></g></g><path class="foreground" aria-hidden="true" d="" display="none"/></g></g></g><path class="foreground" aria-hidden="true" d="" display="none"/></g><g transform="translate(240,209.4230769230769)"><path class="background" aria-hidden="true" d="M0,0L93,0C94.655745073482,0,96,1.344254926518,96,3L96,28.153846153846153C96,29.809591227328152,94.655745073482,31.153846153846153,93,31.153846153846153L0,31.153846153846153C0,31.153846153846153,0,31.153846153846153,0,31.153846153846153L0,0C0,0,0,0,0,0Z"/><g clip-path="url(#clip83)"><g class="mark-group role-scope" role="graphics-object" aria-roledescription="group mark container"><g transform="translate(-240,0)"><path class="background" aria-hidden="true" d="M0,0h0v31.153846153846153h0Z"/><g><g class="mark-rect role-mark marks" role="graphics-object" aria-roledescription="rect mark container"><path aria-label="Veränderung (Prozentpunkte): 6; Sektor: Gesundheits-, Sozialwesen; Richtung: Risiko gestiegen" role="graphics-symbol" aria-roledescription="bar" d="M240,0h96v31.153846153846153h-96Z" fill="#ef4444"/></g></g><path class="foreground" aria-hidden="true" d="" display="none"/></g></g></g><path class="foreground" aria-hidden="true" d="" display="none"/></g><g transform="translate(240,244.03846153846152)"><path class="background" aria-hidden="true" d="M0,0L109,0C110.655745073482,0,112,1.344254926518,112,3L112,28.153846153846153C112,29.809591227328152,110.655745073482,31.153846153846153,109,31.153846153846153L0,31.153846153846153C0,31.153846153846153,0,31.153846153846153,0,31.153846153846153L0,0C0,0,0,0,0,0Z"/><g clip-path="url(#clip84)"><g class="mark-group role-scope" role="graphics-object" aria-roledescription="group mark container"><g transform="translate(-240,0)"><path class="background" aria-hidden="true" d="M0,0h0v31.153846153846153h0Z"/><g><g class="mark-rect role-mark marks" role="graphics-object" aria-roledescription="rect mark container"><path aria-label="Veränderung (Prozentpunkte): 7; Sektor: Grundstücks-, Wohnungswesen; Richtung: Risiko gestiegen" role="graphics-symbol" aria-roledescription="bar" d="M240,0h112v31.153846153846153h-112Z" fill="#ef4444"/></g></g><path class="foreground" aria-hidden="true" d="" display="none"/></g></g></g><path class="foreground" aria-hidden="true" d="" display="none"/></g><g transform="translate(240,278.65384615384613)"><path class="background" aria-hidden="true" d="M0,0L157,0C158.655745073482,0,160,1.344254926518,160,3L160,28.153846153846153C160,29.809591227328152,158.655745073482,31.153846153846153,157,31.153846153846153L0,31.153846153846153C0,31.153846153846153,0,31.153846153846153,0,31.153846153846153L0,0C0,0,0,0,0,0Z"/><g clip-path="url(#clip85)"><g class="mark-group role-scope" role="graphics-object" aria-roledescription="group mark container"><g transform="translate(-240,0)"><path class="background" aria-hidden="true" d="M0,0h0v31.153846153846153h0Z"/><g><g class="mark-rect role-mark marks" role="graphics-object" aria-roledescription="rect mark container"><path aria-label="Veränderung (Prozentpunkte): 10; Sektor: Erziehung und Unterricht; Richtung: Risiko gestiegen" role="graphics-symbol" aria-roledescription="bar" d="M240,0h160v31.153846153846153h-160Z" fill="#ef4444"/></g></g><path class="foreground" aria-hidden="true" d="" display="none"/></g></g></g><path class="foreground" aria-hidden="true" d="" display="none"/></g><g transform="translate(240,313.2692307692308)"><path class="background" aria-hidden="true" d="M0,0L205,0C206.655745073482,0,208,1.344254926518,208,3L208,28.153846153846153C208,29.809591227328152,206.655745073482,31.153846153846153,205,31.153846153846153L0,31.153846153846153C0,31.153846153846153,0,31.153846153846153,0,31.153846153846153L0,0C0,0,0,0,0,0Z"/><g clip-path="url(#clip86)"><g class="mark-group role-scope" role="graphics-object" aria-roledescription="group mark container"><g transform="translate(-240,0)"><path class="background" aria-hidden="true" d="M0,0h0v31.153846153846153h0Z"/><g><g class="mark-rect role-mark marks" role="graphics-object" aria-roledescription="rect mark container"><path aria-label="Veränderung (Prozentpunkte): 13; Sektor: Öffentliche Verwaltung; Richtung: Risiko gestiegen" role="graphics-symbol" aria-roledescription="bar" d="M240,0h208v31.153846153846153h-208Z" fill="#ef4444"/></g></g><path class="foreground" aria-hidden="true" d="" display="none"/></g></g></g><path class="foreground" aria-hidden="true" d="" display="none"/></g><g transform="translate(240,347.88461538461536)"><path class="background" aria-hidden="true" d="M0,0L365,0C366.655745073482,0,368,1.344254926518,368,3L368,28.153846153846153C368,29.809591227328152,366.655745073482,31.153846153846153,365,31.153846153846153L0,31.153846153846153C0,31.153846153846153,0,31.153846153846153,0,31.153846153846153L0,0C0,0,0,0,0,0Z"/><g clip-path="url(#clip87)"><g class="mark-group role-scope" role="graphics-object" aria-roledescription="group mark container"><g transform="translate(-240,0)"><path class="background" aria-hidden="true" d="M0,0h0v31.153846153846153h0Z"/><g><g class="mark-rect role-mark marks" role="graphics-object" aria-roledescription="rect mark container"><path aria-label="Veränderung (Prozentpunkte): 23; Sektor: Finanz-, Versicherungsdienstl.; Richtung: Risiko gestiegen" role="graphics-symbol" aria-roledescription="bar" d="M240,0h368v31.153846153846153h-368Z" fill="#ef4444"/></g></g><path class="foreground" aria-hidden="true" d="" display="none"/></g></g></g><path class="foreground" aria-hidden="true" d="" display="none"/></g><g transform="translate(240,382.49999999999994)"><path class="background" aria-hidden="true" d="M0,0L429,0C430.655745073482,0,432,1.344254926518,432,3L432,28.153846153846153C432,29.809591227328152,430.655745073482,31.153846153846153,429,31.153846153846153L0,31.153846153846153C0,31.153846153846153,0,31.153846153846153,0,31.153846153846153L0,0C0,0,0,0,0,0Z"/><g clip-path="url(#clip88)"><g class="mark-group role-scope" role="graphics-object" aria-roledescription="group mark container"><g transform="translate(-240,0)"><path class="background" aria-hidden="true" d="M0,0h0v31.153846153846153h0Z"/><g><g class="mark-rect role-mark marks" role="graphics-object" aria-roledescription="rect mark container"><path aria-label="Veränderung (Prozentpunkte): 27; Sektor: Information, Kommunikation; Richtung: Risiko gestiegen" role="graphics-symbol" aria-roledescription="bar" d="M240,0h432v31.153846153846153h-432Z" fill="#ef4444"/></g></g><path class="foreground" aria-hidden="true" d="" display="none"/></g></g></g><path class="foreground" aria-hidden="true" d="" display="none"/></g><g transform="translate(240,417.1153846153846)"><path class="background" aria-hidden="true" d="M0,0L445,0C446.655745073482,0,448,1.344254926518,448,3L448,28.153846153846153C448,29.809591227328152,446.655745073482,31.153846153846153,445,31.153846153846153L0,31.153846153846153C0,31.153846153846153,0,31.153846153846153,0,31.153846153846153L0,0C0,0,0,0,0,0Z"/><g clip-path="url(#clip89)"><g class="mark-group role-scope" role="graphics-object" aria-roledescription="group mark container"><g transform="translate(-240,0)"><path class="background" aria-hidden="true" d="M0,0h0v31.153846153846153h0Z"/><g><g class="mark-rect role-mark marks" role="graphics-object" aria-roledescription="rect mark container"><path aria-label="Veränderung (Prozentpunkte): 28; Sektor: Freiberufliche, wiss. Dienstl.; Richtung: Risiko gestiegen" role="graphics-symbol" aria-roledescription="bar" d="M240,0h448v31.153846153846153h-448Z" fill="#ef4444"/></g></g><path class="foreground" aria-hidden="true" d="" display="none"/></g></g></g><path class="foreground" aria-hidden="true" d="" display="none"/></g></g><g class="mark-group role-legend" role="graphics-symbol" aria-roledescription="legend" aria-label="Symbol legend titled 'Richtung' for fill color with 2 values: Risiko gestiegen, Risiko gesunken"><g transform="translate(738,0)"><path class="background" aria-hidden="true" d="M0,0h90v40h-90Z" pointer-events="none"/><g><g class="mark-group role-legend-entry"><g transform="translate(0,16)"><path class="background" aria-hidden="true" d="M0,0h0v0h0Z" pointer-events="none"/><g><g class="mark-group role-scope" role="graphics-object" aria-roledescription="group mark container"><g transform="translate(0,0)"><path class="background" aria-hidden="true" d="M0,0h89.30000305175781v11h-89.30000305175781Z" pointer-events="none" opacity="1"/><g><g class="mark-symbol role-legend-symbol" pointer-events="none"><path transform="translate(6,6)" d="M-5,-5h10v10h-10Z" fill="#ef4444" stroke-width="1.5" opacity="1"/></g><g class="mark-text role-legend-label" pointer-events="none"><text text-anchor="start" transform="translate(16,9)" font-family="Switzer, system-ui, sans-serif" font-size="10px" fill="#000" opacity="1">Risiko gestiegen</text></g></g><path class="foreground" aria-hidden="true" d="" pointer-events="none" display="none"/></g><g transform="translate(0,13)"><path class="background" aria-hidden="true" d="M0,0h89.30000305175781v11h-89.30000305175781Z" pointer-events="none" opacity="1"/><g><g class="mark-symbol role-legend-symbol" pointer-events="none"><path transform="translate(6,6)" d="M-5,-5h10v10h-10Z" fill="#10b981" stroke-width="1.5" opacity="1"/></g><g class="mark-text role-legend-label" pointer-events="none"><text text-anchor="start" transform="translate(16,9)" font-family="Switzer, system-ui, sans-serif" font-size="10px" fill="#000" opacity="1">Risiko gesunken</text></g></g><path class="foreground" aria-hidden="true" d="" pointer-events="none" display="none"/></g></g></g><path class="foreground" aria-hidden="true" d="" pointer-events="none" display="none"/></g></g><g class="mark-text role-legend-title" pointer-events="none"><text text-anchor="start" transform="translate(0,9)" font-family="Switzer, system-ui, sans-serif" font-size="11px" font-weight="bold" fill="#000" opacity="1">Richtung</text></g></g><path class="foreground" aria-hidden="true" d="" pointer-events="none" display="none"/></g></g><g class="mark-group role-title"><g transform="translate(360,-17)"><path class="background" aria-hidden="true" d="M0,0h0v0h0Z" pointer-events="none"/><g><g class="mark-text role-title-text" role="graphics-symbol" aria-roledescription="title" aria-label="Title text 'Risikoverschiebung durch LLM: Veränderung des Automatisierungsrisikos (PP)'" pointer-events="none"><text text-anchor="middle" transform="translate(0,10)" font-family="Switzer, system-ui, sans-serif" font-size="13px" font-weight="bold" fill="#000" opacity="1">Risikoverschiebung durch LLM: Veränderung des Automatisierungsrisikos (PP)</text></g></g><path class="foreground" aria-hidden="true" d="" pointer-events="none" display="none"/></g></g></g><path class="foreground" aria-hidden="true" d="" display="none"/></g></g></g><defs><clipPath id="clip77"><path d="M0,0L205,0C206.655745073482,0,208,1.344254926518,208,3L208,28.153846153846153C208,29.809591227328152,206.655745073482,31.153846153846153,205,31.153846153846153L0,31.153846153846153C0,31.153846153846153,0,31.153846153846153,0,31.153846153846153L0,0C0,0,0,0,0,0Z"/></clipPath><clipPath id="clip78"><path d="M0,0L189,0C190.655745073482,0,192,1.344254926518,192,3L192,28.153846153846153C192,29.809591227328152,190.655745073482,31.153846153846153,189,31.153846153846153L0,31.153846153846153C0,31.153846153846153,0,31.153846153846153,0,31.153846153846153L0,0C0,0,0,0,0,0Z"/></clipPath><clipPath id="clip79"><path d="M0,0L157,0C158.655745073482,0,160,1.344254926518,160,3L160,28.153846153846153C160,29.809591227328152,158.655745073482,31.153846153846153,157,31.153846153846153L0,31.153846153846153C0,31.153846153846153,0,31.153846153846153,0,31.153846153846153L0,0C0,0,0,0,0,0Z"/></clipPath><clipPath id="clip80"><path d="M0,0L125,0C126.655745073482,0,128,1.344254926518,128,3L128,28.153846153846153C128,29.809591227328152,126.655745073482,31.153846153846153,125,31.153846153846153L0,31.153846153846153C0,31.153846153846153,0,31.153846153846153,0,31.153846153846153L0,0C0,0,0,0,0,0Z"/></clipPath><clipPath id="clip81"><path d="M0,0L109,0C110.655745073482,0,112,1.344254926518,112,3L112,28.153846153846153C112,29.809591227328152,110.655745073482,31.153846153846153,109,31.153846153846153L0,31.153846153846153C0,31.153846153846153,0,31.153846153846153,0,31.153846153846153L0,0C0,0,0,0,0,0Z"/></clipPath><clipPath id="clip82"><path d="M0,0L61,0C62.655745073482,0,64,1.344254926518,64,3L64,28.153846153846153C64,29.809591227328152,62.655745073482,31.153846153846153,61,31.153846153846153L0,31.153846153846153C0,31.153846153846153,0,31.153846153846153,0,31.153846153846153L0,0C0,0,0,0,0,0Z"/></clipPath><clipPath id="clip83"><path d="M0,0L93,0C94.655745073482,0,96,1.344254926518,96,3L96,28.153846153846153C96,29.809591227328152,94.655745073482,31.153846153846153,93,31.153846153846153L0,31.153846153846153C0,31.153846153846153,0,31.153846153846153,0,31.153846153846153L0,0C0,0,0,0,0,0Z"/></clipPath><clipPath id="clip84"><path d="M0,0L109,0C110.655745073482,0,112,1.344254926518,112,3L112,28.153846153846153C112,29.809591227328152,110.655745073482,31.153846153846153,109,31.153846153846153L0,31.153846153846153C0,31.153846153846153,0,31.153846153846153,0,31.153846153846153L0,0C0,0,0,0,0,0Z"/></clipPath><clipPath id="clip85"><path d="M0,0L157,0C158.655745073482,0,160,1.344254926518,160,3L160,28.153846153846153C160,29.809591227328152,158.655745073482,31.153846153846153,157,31.153846153846153L0,31.153846153846153C0,31.153846153846153,0,31.153846153846153,0,31.153846153846153L0,0C0,0,0,0,0,0Z"/></clipPath><clipPath id="clip86"><path d="M0,0L205,0C206.655745073482,0,208,1.344254926518,208,3L208,28.153846153846153C208,29.809591227328152,206.655745073482,31.153846153846153,205,31.153846153846153L0,31.153846153846153C0,31.153846153846153,0,31.153846153846153,0,31.153846153846153L0,0C0,0,0,0,0,0Z"/></clipPath><clipPath id="clip87"><path d="M0,0L365,0C366.655745073482,0,368,1.344254926518,368,3L368,28.153846153846153C368,29.809591227328152,366.655745073482,31.153846153846153,365,31.153846153846153L0,31.153846153846153C0,31.153846153846153,0,31.153846153846153,0,31.153846153846153L0,0C0,0,0,0,0,0Z"/></clipPath><clipPath id="clip88"><path d="M0,0L429,0C430.655745073482,0,432,1.344254926518,432,3L432,28.153846153846153C432,29.809591227328152,430.655745073482,31.153846153846153,429,31.153846153846153L0,31.153846153846153C0,31.153846153846153,0,31.153846153846153,0,31.153846153846153L0,0C0,0,0,0,0,0Z"/></clipPath><clipPath id="clip89"><path d="M0,0L445,0C446.655745073482,0,448,1.344254926518,448,3L448,28.153846153846153C448,29.809591227328152,446.655745073482,31.153846153846153,445,31.153846153846153L0,31.153846153846153C0,31.153846153846153,0,31.153846153846153,0,31.153846153846153L0,0C0,0,0,0,0,0Z"/></clipPath></defs></svg>