<svg xmlns="http://www.w3.org/2000/svg" xmlns:xlink="http://www.w3.org/1999/xlink" version="1.1" class="marks" width="997" height="459" viewBox="0 0 997 459"><rect width="997" height="459" fill="white"/><g fill="none" stroke-miterlimit="10" transform="translate(169,22)"><g class="mark-group role-frame root" role="graphics-object" aria-roledescription="group mark container"><g transform="translate(0,0)"><path class="background" aria-hidden="true" d="M0.5,0.5h720v400h-720Z"/><g><g class="mark-group role-axis" aria-hidden="true"><g transform="translate(0.5,400.5)"><path class="background" aria-hidden="true" d="M0,0h0v0h0Z" pointer-events="none"/><g><g class="mark-rule role-axis-grid" pointer-events="none"><line transform="translate(0,0)" x2="0" y2="-400" stroke="#ddd" stroke-width="1" opacity="1"/><line transform="translate(51,0)" x2="0" y2="-400" stroke="#ddd" stroke-width="1" opacity="1"/><line transform="translate(103,0)" x2="0" y2="-400" stroke="#ddd" stroke-width="1" opacity="1"/><line transform="translate(154,0)" x2="0" y2="-400" stroke="#ddd" stroke-width="1" opacity="1"/><line transform="translate(206,0)" x2="0" y2="-400" stroke="#ddd" stroke-width="1" opacity="1"/><line transform="translate(257,0)" x2="0" y2="-400" stroke="#ddd" stroke-width="1" opacity="1"/><line transform="translate(309,0)" x2="0" y2="-400" stroke="#ddd" stroke-width="1" opacity="1"/><line transform="translate(360,0)" x2="0" y2="-400" stroke="#ddd" stroke-width="1" opacity="1"/><line transform="translate(411,0)" x2="0" y2="-400" stroke="#ddd" stroke-width="1" opacity="1"/><line transform="translate(463,0)" x2="0" y2="-400" stroke="#ddd" stroke-width="1" opacity="1"/><line transform="translate(514,0)" x2="0" y2="-400" stroke="#ddd" stroke-width="1" opacity="1"/><line transform="translate(566,0)" x2="0" y2="-400" stroke="#ddd" stroke-width="1" opacity="1"/><line transform="translate(617,0)" x2="0" y2="-400" stroke="#ddd" stroke-width="1" opacity="1"/><line transform="translate(669,0)" x2="0" y2="-400" stroke="#ddd" stroke-width="1" opacity="1"/><line transform="translate(720,0)" x2="0" y2="-400" stroke="#ddd" stroke-width="1" opacity="1"/></g></g><path class="foreground" aria-hidden="true" d="" pointer-events="none" display="none"/></g></g><g class="mark-group role-axis" role="graphics-symbol" aria-roledescription="axis" aria-label="X-axis titled 'Anteil Arbeitsplätze (%)' for a linear scale with values from 0 to 70"><g transform="translate(0.5,400.5)"><path class="background" aria-hidden="true" d="M0,0h0v0h0Z" pointer-events="none"/><g><g class="mark-rule role-axis-tick" pointer-events="none"><line transform="translate(0,0)" x2="0" y2="5" stroke="#888" stroke-width="1" opacity="1"/><line transform="translate(51,0)" x2="0" y2="5" stroke="#888" stroke-width="1" opacity="1"/><line transform="translate(103,0)" x2="0" y2="5" stroke="#888" stroke-width="1" opacity="1"/><line transform="translate(154,0)" x2="0" y2="5" stroke="#888" stroke-width="1" opacity="1"/><line transform="translate(206,0)" x2="0" y2="5" stroke="#888" stroke-width="1" opacity="1"/><line transform="translate(257,0)" x2="0" y2="5" stroke="#888" stroke-width="1" opacity="1"/><line transform="translate(309,0)" x2="0" y2="5" stroke="#888" stroke-width="1" opacity="1"/><line transform="translate(360,0)" x2="0" y2="5" stroke="#888" stroke-width="1" opacity="1"/><line transform="translate(411,0)" x2="0" y2="5" stroke="#888" stroke-width="1" opacity="1"/><line transform="translate(463,0)" x2="0" y2="5" stroke="#888" stroke-width="1" opacity="1"/><line transform="translate(514,0)" x2="0" y2="5" stroke="#888" stroke-width="1" opacity="1"/><line transform="translate(566,0)" x2="0" y2="5" stroke="#888" stroke-width="1" opacity="1"/><line transform="translate(617,0)" x2="0" y2="5" stroke="#888" stroke-width="1" opacity="1"/><line transform="translate(669,0)" x2="0" y2="5" stroke="#888" stroke-width="1" opacity="1"/><line transform="translate(720,0)" x2="0" y2="5" stroke="#888" stroke-width="1" opacity="1"/></g><g class="mark-text role-axis-label" pointer-events="none"><text text-anchor="start" transform="translate(0,15)" font-family="Switzer, system-ui, sans-serif" font-size="10px" fill="#000" opacity="1">0</text><text text-anchor="middle" transform="translate(51.42857142857142,15)" font-family="Switzer, system-ui, sans-serif" font-size="10px" fill="#000" opacity="1">5</text><text text-anchor="middle" transform="translate(102.85714285714285,15)" font-family="Switzer, system-ui, sans-serif" font-size="10px" fill="#000" opacity="1">10</text><text text-anchor="middle" transform="translate(154.28571428571428,15)" font-family="Switzer, system-ui, sans-serif" font-size="10px" fill="#000" opacity="1">15</text><text text-anchor="middle" transform="translate(205.7142857142857,15)" font-family="Switzer, system-ui, sans-serif" font-size="10px" fill="#000" opacity="1">20</text><text text-anchor="middle" transform="translate(257.14285714285717,15)" font-family="Switzer, system-ui, sans-serif" font-size="10px" fill="#000" opacity="1">25</text><text text-anchor="middle" transform="translate(308.57142857142856,15)" font-family="Switzer, system-ui, sans-serif" font-size="10px" fill="#000" opacity="1">30</text><text text-anchor="middle" transform="translate(360,15)" font-family="Switzer, system-ui, sans-serif" font-size="10px" fill="#000" opacity="1">35</text><text text-anchor="middle" transform="translate(411.4285714285714,15)" font-family="Switzer, system-ui, sans-serif" font-size="10px" fill="#000" opacity="1">40</text><text text-anchor="middle" transform="translate(462.8571428571429,15)" font-family="Switzer, system-ui, sans-serif" font-size="10px" fill="#000" opacity="1">45</text><text text-anchor="middle" transform="translate(514.2857142857143,15)" font-family="Switzer, system-ui, sans-serif" font-size="10px" fill="#000" opacity="1">50</text><text text-anchor="middle" transform="translate(565.7142857142857,15)" font-family="Switzer, system-ui, sans-serif" font-size="10px" fill="#000" opacity="1">55</text><text text-anchor="middle" transform="translate(617.1428571428571,15)" font-family="Switzer, system-ui, sans-serif" font-size="10px" fill="#000" opacity="1">60</text><text text-anchor="middle" transform="translate(668.5714285714286,15)" font-family="Switzer, system-ui, sans-serif" font-size="10px" fill="#000" opacity="1">65</text><text text-anchor="end" transform="translate(720,15)" font-family="Switzer, system-ui, sans-serif" font-size="10px" fill="#000" opacity="1">70</text></g><g class="mark-rule role-axis-domain" pointer-events="none"><line transform="translate(0,0)" x2="720" y2="0" stroke="#888" stroke-width="1" opacity="1"/></g><g class="mark-text role-axis-title" pointer-events="none"><text text-anchor="middle" transform="translate(360,30)" font-family="Switzer, system-ui, sans-serif" font-size="11px" font-weight="bold" fill="#000" opacity="1">Anteil Arbeitsplätze (%)</text></g></g><path class="foreground" aria-hidden="true" d="" pointer-events="none" display="none"/></g></g><g class="mark-group role-axis" role="graphics-symbol" aria-roledescription="axis" aria-label="Y-axis for a discrete scale with 10 values: Gastgewerbe, Beherbergung, Verarbeitendes Gewerbe, Bergbau, Handel, Reparatur, Verkehr, Lagerei, Finanz-, Versicherungsdienstl., ending with Erziehung und Unterricht"><g transform="translate(0.5,0.5)"><path class="background" aria-hidden="true" d="M0,0h0v0h0Z" pointer-events="none"/><g><g class="mark-rule role-axis-tick" pointer-events="none"><line transform="translate(0,20)" x2="-5" y2="0" stroke="#888" stroke-width="1" opacity="1"/><line transform="translate(0,60)" x2="-5" y2="0" stroke="#888" stroke-width="1" opacity="1"/><line transform="translate(0,100)" x2="-5" y2="0" stroke="#888" stroke-width="1" opacity="1"/><line transform="translate(0,140)" x2="-5" y2="0" stroke="#888" stroke-width="1" opacity="1"/><line transform="translate(0,180)" x2="-5" y2="0" stroke="#888" stroke-width="1" opacity="1"/><line transform="translate(0,220)" x2="-5" y2="0" stroke="#888" stroke-width="1" opacity="1"/><line transform="translate(0,260)" x2="-5" y2="0" stroke="#888" stroke-width="1" opacity="1"/><line transform="translate(0,300)" x2="-5" y2="0" stroke="#888" stroke-width="1" opacity="1"/><line transform="translate(0,340)" x2="-5" y2="0" stroke="#888" stroke-width="1" opacity="1"/><line transform="translate(0,380)" x2="-5" y2="0" stroke="#888" stroke-width="1" opacity="1"/></g><g class="mark-text role-axis-label" pointer-events="none"><text text-anchor="end" transform="translate(-7,22.5)" font-family="Switzer, system-ui, sans-serif" font-size="10px" fill="#000" opacity="1">Gastgewerbe, Beherbergung</text><text text-anchor="end" transform="translate(-7,62.5)" font-family="Switzer, system-ui, sans-serif" font-size="10px" fill="#000" opacity="1">Verarbeitendes Gewerbe, Bergbau</text><text text-anchor="end" transform="translate(-7,102.5)" font-family="Switzer, system-ui, sans-serif" font-size="10px" fill="#000" opacity="1">Handel, Reparatur</text><text text-anchor="end" transform="translate(-7,142.5)" font-family="Switzer, system-ui, sans-serif" font-size="10px" fill="#000" opacity="1">Verkehr, Lagerei</text><text text-anchor="end" transform="translate(-7,182.5)" font-family="Switzer, system-ui, sans-serif" font-size="10px" fill="#000" opacity="1">Finanz-, Versicherungsdienstl.</text><text text-anchor="end" transform="translate(-7,222.5)" font-family="Switzer, system-ui, sans-serif" font-size="10px" fill="#000" opacity="1">Baugewerbe</text><text text-anchor="end" transform="translate(-7,262.5)" font-family="Switzer, system-ui, sans-serif" font-size="10px" fill="#000" opacity="1">Öffentliche Verwaltung</text><text text-anchor="end" transform="translate(-7,302.5)" font-family="Switzer, system-ui, sans-serif" font-size="10px" fill="#000" opacity="1">Gesundheits-, Sozialwesen</text><text text-anchor="end" transform="translate(-7,342.5)" font-family="Switzer, system-ui, sans-serif" font-size="10px" fill="#000" opacity="1">Information, Kommunikation</text><text text-anchor="end" transform="translate(-7,382.5)" font-family="Switzer, system-ui, sans-serif" font-size="10px" fill="#000" opacity="1">Erziehung und Unterricht</text></g><g class="mark-rule role-axis-domain" pointer-events="none"><line transform="translate(0,0)" x2="0" y2="400" stroke="#888" stroke-width="1" opacity="1"/></g></g><path class="foreground" aria-hidden="true" d="" pointer-events="none" display="none"/></g></g><g class="mark-group role-scope" role="graphics-object" aria-roledescription="group mark container"><g transform="translate(0,42)"><path class="background" aria-hidden="true" d="M0,0L664.5714285714286,0C666.7790886694046,0,668.5714285714286,1.792339902024,668.5714285714286,4L668.5714285714286,32C668.5714285714286,34.207660097976,666.7790886694046,36,664.5714285714286,36L0,36C0,36,0,36,0,36L0,0C0,0,0,0,0,0Z"/><g clip-path="url(#clip55)"><g class="mark-group role-scope" role="graphics-object" aria-roledescription="group mark container"><g transform="translate(0,0)"><path class="background" aria-hidden="true" d="M0,0h0v36h0Z"/><g><g class="mark-rect role-mark marks" role="graphics-object" aria-roledescription="rect mark container"><path aria-label="Anteil Arbeitsplätze (%): 35; Sektor: Verarbeitendes Gewerbe, Bergbau; Risikostufe: Hoch (&gt;70%)" role="graphics-symbol" aria-roledescription="bar" d="M0,0h360v36h-360Z" fill="#ef4444"/><path aria-label="Anteil Arbeitsplätze (%): 30; Sektor: Verarbeitendes Gewerbe, Bergbau; Risikostufe: Mittel (50-70%)" role="graphics-symbol" aria-roledescription="bar" d="M360,0h308.57142857142856v36h-308.57142857142856Z" fill="#f59e0b"/></g></g><path class="foreground" aria-hidden="true" d="" display="none"/></g></g></g><path class="foreground" aria-hidden="true" d="" display="none"/></g><g transform="translate(0,82)"><path class="background" aria-hidden="true" d="M0,0L644,0C646.207660097976,0,648,1.792339902024,648,4L648,32C648,34.207660097976,646.207660097976,36,644,36L0,36C0,36,0,36,0,36L0,0C0,0,0,0,0,0Z"/><g clip-path="url(#clip56)"><g class="mark-group role-scope" role="graphics-object" aria-roledescription="group mark container"><g transform="translate(0,0)"><path class="background" aria-hidden="true" d="M0,0h0v36h0Z"/><g><g class="mark-rect role-mark marks" role="graphics-object" aria-roledescription="rect mark container"><path aria-label="Anteil Arbeitsplätze (%): 28; Sektor: Handel, Reparatur; Risikostufe: Hoch (&gt;70%)" role="graphics-symbol" aria-roledescription="bar" d="M0,0h288v36h-288Z" fill="#ef4444"/><path aria-label="Anteil Arbeitsplätze (%): 35; Sektor: Handel, Reparatur; Risikostufe: Mittel (50-70%)" role="graphics-symbol" aria-roledescription="bar" d="M288,0h360v36h-360Z" fill="#f59e0b"/></g></g><path class="foreground" aria-hidden="true" d="" display="none"/></g></g></g><path class="foreground" aria-hidden="true" d="" display="none"/></g><g transform="translate(0,2)"><path class="background" aria-hidden="true" d="M0,0L716,0C718.207660097976,0,720,1.792339902024,720,4L720,32C720,34.207660097976,718.207660097976,36,716,36L0,36C0,36,0,36,0,36L0,0C0,0,0,0,0,0Z"/><g clip-path="url(#clip57)"><g class="mark-group role-scope" role="graphics-object" aria-roledescription="group mark container"><g transform="translate(0,0)"><path class="background" aria-hidden="true" d="M0,0h0v36h0Z"/><g><g class="mark-rect role-mark marks" role="graphics-object" aria-roledescription="rect mark container"><path aria-label="Anteil Arbeitsplätze (%): 42; Sektor: Gastgewerbe, Beherbergung; Risikostufe: Hoch (&gt;70%)" role="graphics-symbol" aria-roledescription="bar" d="M0,0h432v36h-432Z" fill="#ef4444"/><path aria-label="Anteil Arbeitsplätze (%): 28; Sektor: Gastgewerbe, Beherbergung; Risikostufe: Mittel (50-70%)" role="graphics-symbol" aria-roledescription="bar" d="M432,0h288v36h-288Z" fill="#f59e0b"/></g></g><path class="foreground" aria-hidden="true" d="" display="none"/></g></g></g><path class="foreground" aria-hidden="true" d="" display="none"/></g><g transform="translate(0,122)"><path class="background" aria-hidden="true" d="M0,0L644,0C646.207660097976,0,648,1.792339902024,648,4L648,32C648,34.207660097976,646.207660097976,36,644,36L0,36C0,36,0,36,0,36L0,0C0,0,0,0,0,0Z"/><g clip-path="url(#clip58)"><g class="mark-group role-scope" role="graphics-object" aria-roledescription="group mark container"><g transform="translate(0,0)"><path class="background" aria-hidden="true" d="M0,0h0v36h0Z"/><g><g class="mark-rect role-mark marks" role="graphics-object" aria-roledescription="rect mark container"><path aria-label="Anteil Arbeitsplätze (%): 38; Sektor: Verkehr, Lagerei; Risikostufe: Hoch (&gt;70%)" role="graphics-symbol" aria-roledescription="bar" d="M0,0h390.85714285714283v36h-390.85714285714283Z" fill="#ef4444"/><path aria-label="Anteil Arbeitsplätze (%): 25; Sektor: Verkehr, Lagerei; Risikostufe: Mittel (50-70%)" role="graphics-symbol" aria-roledescription="bar" d="M390.85714285714283,0h257.14285714285717v36h-257.14285714285717Z" fill="#f59e0b"/></g></g><path class="foreground" aria-hidden="true" d="" display="none"/></g></g></g><path class="foreground" aria-hidden="true" d="" display="none"/></g><g transform="translate(0,162)"><path class="background" aria-hidden="true" d="M0,0L613.1428571428571,0C615.3505172408331,0,617.1428571428571,1.792339902024,617.1428571428571,4L617.1428571428571,32C617.1428571428571,34.207660097976,615.3505172408331,36,613.1428571428571,36L0,36C0,36,0,36,0,36L0,0C0,0,0,0,0,0Z"/><g clip-path="url(#clip59)"><g class="mark-group role-scope" role="graphics-object" aria-roledescription="group mark container"><g transform="translate(0,0)"><path class="background" aria-hidden="true" d="M0,0h0v36h0Z"/><g><g class="mark-rect role-mark marks" role="graphics-object" aria-roledescription="rect mark container"><path aria-label="Anteil Arbeitsplätze (%): 22; Sektor: Finanz-, Versicherungsdienstl.; Risikostufe: Hoch (&gt;70%)" role="graphics-symbol" aria-roledescription="bar" d="M0,0h226.28571428571428v36h-226.28571428571428Z" fill="#ef4444"/><path aria-label="Anteil Arbeitsplätze (%): 38; Sektor: Finanz-, Versicherungsdienstl.; Risikostufe: Mittel (50-70%)" role="graphics-symbol" aria-roledescription="bar" d="M226.28571428571428,0h390.85714285714283v36h-390.85714285714283Z" fill="#f59e0b"/></g></g><path class="foreground" aria-hidden="true" d="" display="none"/></g></g></g><path class="foreground" aria-hidden="true" d="" display="none"/></g><g transform="translate(0,282)"><path class="background" aria-hidden="true" d="M0,0L376.57142857142856,0C378.77908866940453,0,380.57142857142856,1.792339902024,380.57142857142856,4L380.57142857142856,32C380.57142857142856,34.207660097976,378.77908866940453,36,376.57142857142856,36L0,36C0,36,0,36,0,36L0,0C0,0,0,0,0,0Z"/><g clip-path="url(#clip60)"><g class="mark-group role-scope" role="graphics-object" aria-roledescription="group mark container"><g transform="translate(0,0)"><path class="background" aria-hidden="true" d="M0,0h0v36h0Z"/><g><g class="mark-rect role-mark marks" role="graphics-object" aria-roledescription="rect mark container"><path aria-label="Anteil Arbeitsplätze (%): 12; Sektor: Gesundheits-, Sozialwesen; Risikostufe: Hoch (&gt;70%)" role="graphics-symbol" aria-roledescription="bar" d="M0,0h123.42857142857143v36h-123.42857142857143Z" fill="#ef4444"/><path aria-label="Anteil Arbeitsplätze (%): 25; Sektor: Gesundheits-, Sozialwesen; Risikostufe: Mittel (50-70%)" role="graphics-symbol" aria-roledescription="bar" d="M123.42857142857143,0h257.1428571428571v36h-257.1428571428571Z" fill="#f59e0b"/></g></g><path class="foreground" aria-hidden="true" d="" display="none"/></g></g></g><path class="foreground" aria-hidden="true" d="" display="none"/></g><g transform="translate(0,322)"><path class="background" aria-hidden="true" d="M0,0L304.57142857142856,0C306.77908866940453,0,308.57142857142856,1.792339902024,308.57142857142856,4L308.57142857142856,32C308.57142857142856,34.207660097976,306.77908866940453,36,304.57142857142856,36L0,36C0,36,0,36,0,36L0,0C0,0,0,0,0,0Z"/><g clip-path="url(#clip61)"><g class="mark-group role-scope" role="graphics-object" aria-roledescription="group mark container"><g transform="translate(0,0)"><path class="background" aria-hidden="true" d="M0,0h0v36h0Z"/><g><g class="mark-rect role-mark marks" role="graphics-object" aria-roledescription="rect mark container"><path aria-label="Anteil Arbeitsplätze (%): 8; Sektor: Information, Kommunikation; Risikostufe: Hoch (&gt;70%)" role="graphics-symbol" aria-roledescription="bar" d="M0,0h82.28571428571428v36h-82.28571428571428Z" fill="#ef4444"/><path aria-label="Anteil Arbeitsplätze (%): 22; Sektor: Information, Kommunikation; Risikostufe: Mittel (50-70%)" role="graphics-symbol" aria-roledescription="bar" d="M82.28571428571428,0h226.28571428571428v36h-226.28571428571428Z" fill="#f59e0b"/></g></g><path class="foreground" aria-hidden="true" d="" display="none"/></g></g></g><path class="foreground" aria-hidden="true" d="" display="none"/></g><g transform="translate(0,202)"><path class="background" aria-hidden="true" d="M0,0L582.2857142857143,0C584.4933743836904,0,586.2857142857143,1.792339902024,586.2857142857143,4L586.2857142857143,32C586.2857142857143,34.207660097976,584.4933743836904,36,582.2857142857143,36L0,36C0,36,0,36,0,36L0,0C0,0,0,0,0,0Z"/><g clip-path="url(#clip62)"><g class="mark-group role-scope" role="graphics-object" aria-roledescription="group mark container"><g transform="translate(0,0)"><path class="background" aria-hidden="true" d="M0,0h0v36h0Z"/><g><g class="mark-rect role-mark marks" role="graphics-object" aria-roledescription="rect mark container"><path aria-label="Anteil Arbeitsplätze (%): 25; Sektor: Baugewerbe; Risikostufe: Hoch (&gt;70%)" role="graphics-symbol" aria-roledescription="bar" d="M0,0h257.14285714285717v36h-257.14285714285717Z" fill="#ef4444"/><path aria-label="Anteil Arbeitsplätze (%): 32; Sektor: Baugewerbe; Risikostufe: Mittel (50-70%)" role="graphics-symbol" aria-roledescription="bar" d="M257.14285714285717,0h329.14285714285717v36h-329.14285714285717Z" fill="#f59e0b"/></g></g><path class="foreground" aria-hidden="true" d="" display="none"/></g></g></g><path class="foreground" aria-hidden="true" d="" display="none"/></g><g transform="translate(0,362)"><path class="background" aria-hidden="true" d="M0,0L201.7142857142857,0C203.9219458122617,0,205.7142857142857,1.792339902024,205.7142857142857,4L205.7142857142857,32C205.7142857142857,34.207660097976,203.9219458122617,36,201.7142857142857,36L0,36C0,36,0,36,0,36L0,0C0,0,0,0,0,0Z"/><g clip-path="url(#clip63)"><g class="mark-group role-scope" role="graphics-object" aria-roledescription="group mark container"><g transform="translate(0,0)"><path class="background" aria-hidden="true" d="M0,0h0v36h0Z"/><g><g class="mark-rect role-mark marks" role="graphics-object" aria-roledescription="rect mark container"><path aria-label="Anteil Arbeitsplätze (%): 5; Sektor: Erziehung und Unterricht; Risikostufe: Hoch (&gt;70%)" role="graphics-symbol" aria-roledescription="bar" d="M0,0h51.42857142857142v36h-51.42857142857142Z" fill="#ef4444"/><path aria-label="Anteil Arbeitsplätze (%): 15; Sektor: Erziehung und Unterricht; Risikostufe: Mittel (50-70%)" role="graphics-symbol" aria-roledescription="bar" d="M51.42857142857142,0h154.28571428571428v36h-154.28571428571428Z" fill="#f59e0b"/></g></g><path class="foreground" aria-hidden="true" d="" display="none"/></g></g></g><path class="foreground" aria-hidden="true" d="" display="none"/></g><g transform="translate(0,242)"><path class="background" aria-hidden="true" d="M0,0L458.8571428571429,0C461.06480295511886,0,462.8571428571429,1.792339902024,462.8571428571429,4L462.8571428571429,32C462.8571428571429,34.207660097976,461.06480295511886,36,458.8571428571429,36L0,36C0,36,0,36,0,36L0,0C0,0,0,0,0,0Z"/><g clip-path="url(#clip64)"><g class="mark-group role-scope" role="graphics-object" aria-roledescription="group mark container"><g transform="translate(0,0)"><path class="background" aria-hidden="true" d="M0,0h0v36h0Z"/><g><g class="mark-rect role-mark marks" role="graphics-object" aria-roledescription="rect mark container"><path aria-label="Anteil Arbeitsplätze (%): 15; Sektor: Öffentliche Verwaltung; Risikostufe: Hoch (&gt;70%)" role="graphics-symbol" aria-roledescription="bar" d="M0,0h154.28571428571428v36h-154.28571428571428Z" fill="#ef4444"/><path aria-label="Anteil Arbeitsplätze (%): 30; Sektor: Öffentliche Verwaltung; Risikostufe: Mittel (50-70%)" role="graphics-symbol" aria-roledescription="bar" d="M154.28571428571428,0h308.5714285714286v36h-308.5714285714286Z" fill="#f59e0b"/></g></g><path class="foreground" aria-hidden="true" d="" display="none"/></g></g></g><path class="foreground" aria-hidden="true" d="" display="none"/></g></g><g class="mark-group role-legend" role="graphics-symbol" aria-roledescription="legend" aria-label="Symbol legend titled 'Risikostufe' for fill color with 2 values: Hoch (&gt;70%), Mittel (50-70%)"><g transform="translate(738,0)"><path class="background" aria-hidden="true" d="M0,0h85v40h-85Z" pointer-events="none"/><g><g class="mark-group role-legend-entry"><g transform="translate(0,16)"><path class="background" aria-hidden="true" d="M0,0h0v0h0Z" pointer-events="none"/><g><g class="mark-group role-scope" role="graphics-object" aria-roledescription="group mark container"><g transform="translate(0,0)"><path class="background" aria-hidden="true" d="M0,0h84.22998809814453v11h-84.22998809814453Z" pointer-events="none" opacity="1"/><g><g class="mark-symbol role-legend-symbol" pointer-events="none"><path transform="translate(6,6)" d="M-5,-5h10v10h-10Z" fill="#ef4444" stroke-width="1.5" opacity="1"/></g><g class="mark-text role-legend-label" pointer-events="none"><text text-anchor="start" transform="translate(16,9)" font-family="Switzer, system-ui, sans-serif" font-size="10px" fill="#000" opacity="1">Hoch (&gt;70%)</text></g></g><path class="foreground" aria-hidden="true" d="" pointer-events="none" display="none"/></g><g transform="translate(0,13)"><path class="background" aria-hidden="true" d="M0,0h84.22998809814453v11h-84.22998809814453Z" pointer-events="none" opacity="1"/><g><g class="mark-symbol role-legend-symbol" pointer-events="none"><path transform="translate(6,6)" d="M-5,-5h10v10h-10Z" fill="#f59e0b" stroke-width="1.5" opacity="1"/></g><g class="mark-text role-legend-label" pointer-events="none"><text text-anchor="start" transform="translate(16,9)" font-family="Switzer, system-ui, sans-serif" font-size="10px" fill="#000" opacity="1">Mittel (50-70%)</text></g></g><path class="foreground" aria-hidden="true" d="" pointer-events="none" display="none"/></g></g></g><path class="foreground" aria-hidden="true" d="" pointer-events="none" display="none"/></g></g><g class="mark-text role-legend-title" pointer-events="none"><text text-anchor="start" transform="translate(0,9)" font-family="Switzer, system-ui, sans-serif" font-size="11px" font-weight="bold" fill="#000" opacity="1">Risikostufe</text></g></g><path class="foreground" aria-hidden="true" d="" pointer-events="none" display="none"/></g></g><g class="mark-group role-title"><g transform="translate(360,-17)"><path class="background" aria-hidden="true" d="M0,0h0v0h0Z" pointer-events="none"/><g><g class="mark-text role-title-text" role="graphics-symbol" aria-roledescription="title" aria-label="Title text 'Automatisierungsrisiko nach Branche (OECD-Methodik)'" pointer-events="none"><text text-anchor="middle" transform="translate(0,10)" font-family="Switzer, system-ui, sans-serif" font-size="13px" font-weight="bold" fill="#000" opacity="1">Automatisierungsrisiko nach Branche (OECD-Methodik)</text></g></g><path class="foreground" aria-hidden="true" d="" pointer-events="none" display="none"/></g></g></g><path class="foreground" aria-hidden="true" d="" display="none"/></g></g></g><defs><clipPath id="clip55"><path d="M0,0L664.5714285714286,0C666.7790886694046,0,668.5714285714286,1.792339902024,668.5714285714286,4L668.5714285714286,32C668.5714285714286,34.207660097976,666.7790886694046,36,664.5714285714286,36L0,36C0,36,0,36,0,36L0,0C0,0,0,0,0,0Z"/></clipPath><clipPath id="clip56"><path d="M0,0L644,0C646.207660097976,0,648,1.792339902024,648,4L648,32C648,34.207660097976,646.207660097976,36,644,36L0,36C0,36,0,36,0,36L0,0C0,0,0,0,0,0Z"/></clipPath><clipPath id="clip57"><path d="M0,0L716,0C718.207660097976,0,720,1.792339902024,720,4L720,32C720,34.207660097976,718.207660097976,36,716,36L0,36C0,36,0,36,0,36L0,0C0,0,0,0,0,0Z"/></clipPath><clipPath id="clip58"><path d="M0,0L644,0C646.207660097976,0,648,1.792339902024,648,4L648,32C648,34.207660097976,646.207660097976,36,644,36L0,36C0,36,0,36,0,36L0,0C0,0,0,0,0,0Z"/></clipPath><clipPath id="clip59"><path d="M0,0L613.1428571428571,0C615.3505172408331,0,617.1428571428571,1.792339902024,617.1428571428571,4L617.1428571428571,32C617.1428571428571,34.207660097976,615.3505172408331,36,613.1428571428571,36L0,36C0,36,0,36,0,36L0,0C0,0,0,0,0,0Z"/></clipPath><clipPath id="clip60"><path d="M0,0L376.57142857142856,0C378.77908866940453,0,380.57142857142856,1.792339902024,380.57142857142856,4L380.57142857142856,32C380.57142857142856,34.207660097976,378.77908866940453,36,376.57142857142856,36L0,36C0,36,0,36,0,36L0,0C0,0,0,0,0,0Z"/></clipPath><clipPath id="clip61"><path d="M0,0L304.57142857142856,0C306.77908866940453,0,308.57142857142856,1.792339902024,308.57142857142856,4L308.57142857142856,32C308.57142857142856,34.207660097976,306.77908866940453,36,304.57142857142856,36L0,36C0,36,0,36,0,36L0,0C0,0,0,0,0,0Z"/></clipPath><clipPath id="clip62"><path d="M0,0L582.2857142857143,0C584.4933743836904,0,586.2857142857143,1.792339902024,586.2857142857143,4L586.2857142857143,32C586.2857142857143,34.207660097976,584.4933743836904,36,582.2857142857143,36L0,36C0,36,0,36,0,36L0,0C0,0,0,0,0,0Z"/></clipPath><clipPath id="clip63"><path d="M0,0L201.7142857142857,0C203.9219458122617,0,205.7142857142857,1.792339902024,205.7142857142857,4L205.7142857142857,32C205.7142857142857,34.207660097976,203.9219458122617,36,201.7142857142857,36L0,36C0,36,0,36,0,36L0,0C0,0,0,0,0,0Z"/></clipPath><clipPath id="clip64"><path d="M0,0L458.8571428571429,0C461.06480295511886,0,462.8571428571429,1.792339902024,462.8571428571429,4L462.8571428571429,32C462.8571428571429,34.207660097976,461.06480295511886,36,458.8571428571429,36L0,36C0,36,0,36,0,36L0,0C0,0,0,0,0,0Z"/></clipPath></defs></svg>