<svg xmlns="http://www.w3.org/2000/svg" xmlns:xlink="http://www.w3.org/1999/xlink" version="1.1" class="marks" width="895" height="509" viewBox="0 0 895 509"><rect width="895" height="509" fill="white"/><g fill="none" stroke-miterlimit="10" transform="translate(169,22)"><g class="mark-group role-frame root" role="graphics-object" aria-roledescription="group mark container"><g transform="translate(0,0)"><path class="background" aria-hidden="true" d="M0.5,0.5h720v450h-720Z"/><g><g class="mark-group role-axis" aria-hidden="true"><g transform="translate(0.5,450.5)"><path class="background" aria-hidden="true" d="M0,0h0v0h0Z" pointer-events="none"/><g><g class="mark-rule role-axis-grid" pointer-events="none"><line transform="translate(0,0)" x2="0" y2="-450" stroke="#ddd" stroke-width="1" opacity="1"/><line transform="translate(36,0)" x2="0" y2="-450" stroke="#ddd" stroke-width="1" opacity="1"/><line transform="translate(72,0)" x2="0" y2="-450" stroke="#ddd" stroke-width="1" opacity="1"/><line transform="translate(108,0)" x2="0" y2="-450" stroke="#ddd" stroke-width="1" opacity="1"/><line transform="translate(144,0)" x2="0" y2="-450" stroke="#ddd" stroke-width="1" opacity="1"/><line transform="translate(180,0)" x2="0" y2="-450" stroke="#ddd" stroke-width="1" opacity="1"/><line transform="translate(216,0)" x2="0" y2="-450" stroke="#ddd" stroke-width="1" opacity="1"/><line transform="translate(252,0)" x2="0" y2="-450" stroke="#ddd" stroke-width="1" opacity="1"/><line transform="translate(288,0)" x2="0" y2="-450" stroke="#ddd" stroke-width="1" opacity="1"/><line transform="translate(324,0)" x2="0" y2="-450" stroke="#ddd" stroke-width="1" opacity="1"/><line transform="translate(360,0)" x2="0" y2="-450" stroke="#ddd" stroke-width="1" opacity="1"/><line transform="translate(396,0)" x2="0" y2="-450" stroke="#ddd" stroke-width="1" opacity="1"/><line transform="translate(432,0)" x2="0" y2="-450" stroke="#ddd" stroke-width="1" opacity="1"/><line transform="translate(468,0)" x2="0" y2="-450" stroke="#ddd" stroke-width="1" opacity="1"/><line transform="translate(504,0)" x2="0" y2="-450" stroke="#ddd" stroke-width="1" opacity="1"/><line transform="translate(540,0)" x2="0" y2="-450" stroke="#ddd" stroke-width="1" opacity="1"/><line transform="translate(576,0)" x2="0" y2="-450" stroke="#ddd" stroke-width="1" opacity="1"/><line transform="translate(612,0)" x2="0" y2="-450" stroke="#ddd" stroke-width="1" opacity="1"/><line transform="translate(648,0)" x2="0" y2="-450" stroke="#ddd" stroke-width="1" opacity="1"/><line transform="translate(684,0)" x2="0" y2="-450" stroke="#ddd" stroke-width="1" opacity="1"/><line transform="translate(720,0)" x2="0" y2="-450" stroke="#ddd" stroke-width="1" opacity="1"/></g></g><path class="foreground" aria-hidden="true" d="" pointer-events="none" display="none"/></g></g><g class="mark-group role-axis" role="graphics-symbol" aria-roledescription="axis" aria-label="X-axis titled 'Exponierte Stellen Tsd' for a linear scale with values from 0 to 200,000"><g transform="translate(0.5,450.5)"><path class="background" aria-hidden="true" d="M0,0h0v0h0Z" pointer-events="none"/><g><g class="mark-rule role-axis-tick" pointer-events="none"><line transform="translate(0,0)" x2="0" y2="5" stroke="#888" stroke-width="1" opacity="1"/><line transform="translate(36,0)" x2="0" y2="5" stroke="#888" stroke-width="1" opacity="1"/><line transform="translate(72,0)" x2="0" y2="5" stroke="#888" stroke-width="1" opacity="1"/><line transform="translate(108,0)" x2="0" y2="5" stroke="#888" stroke-width="1" opacity="1"/><line transform="translate(144,0)" x2="0" y2="5" stroke="#888" stroke-width="1" opacity="1"/><line transform="translate(180,0)" x2="0" y2="5" stroke="#888" stroke-width="1" opacity="1"/><line transform="translate(216,0)" x2="0" y2="5" stroke="#888" stroke-width="1" opacity="1"/><line transform="translate(252,0)" x2="0" y2="5" stroke="#888" stroke-width="1" opacity="1"/><line transform="translate(288,0)" x2="0" y2="5" stroke="#888" stroke-width="1" opacity="1"/><line transform="translate(324,0)" x2="0" y2="5" stroke="#888" stroke-width="1" opacity="1"/><line transform="translate(360,0)" x2="0" y2="5" stroke="#888" stroke-width="1" opacity="1"/><line transform="translate(396,0)" x2="0" y2="5" stroke="#888" stroke-width="1" opacity="1"/><line transform="translate(432,0)" x2="0" y2="5" stroke="#888" stroke-width="1" opacity="1"/><line transform="translate(468,0)" x2="0" y2="5" stroke="#888" stroke-width="1" opacity="1"/><line transform="translate(504,0)" x2="0" y2="5" stroke="#888" stroke-width="1" opacity="1"/><line transform="translate(540,0)" x2="0" y2="5" stroke="#888" stroke-width="1" opacity="1"/><line transform="translate(576,0)" x2="0" y2="5" stroke="#888" stroke-width="1" opacity="1"/><line transform="translate(612,0)" x2="0" y2="5" stroke="#888" stroke-width="1" opacity="1"/><line transform="translate(648,0)" x2="0" y2="5" stroke="#888" stroke-width="1" opacity="1"/><line transform="translate(684,0)" x2="0" y2="5" stroke="#888" stroke-width="1" opacity="1"/><line transform="translate(720,0)" x2="0" y2="5" stroke="#888" stroke-width="1" opacity="1"/></g><g class="mark-text role-axis-label" pointer-events="none"><text text-anchor="start" transform="translate(0,15)" font-family="Switzer, system-ui, sans-serif" font-size="10px" fill="#000" opacity="1">0</text><text text-anchor="middle" transform="translate(36,15)" font-family="Switzer, system-ui, sans-serif" font-size="10px" fill="#000" opacity="0">10,000</text><text text-anchor="middle" transform="translate(72,15)" font-family="Switzer, system-ui, sans-serif" font-size="10px" fill="#000" opacity="1">20,000</text><text text-anchor="middle" transform="translate(108,15)" font-family="Switzer, system-ui, sans-serif" font-size="10px" fill="#000" opacity="0">30,000</text><text text-anchor="middle" transform="translate(144,15)" font-family="Switzer, system-ui, sans-serif" font-size="10px" fill="#000" opacity="1">40,000</text><text text-anchor="middle" transform="translate(180,15)" font-family="Switzer, system-ui, sans-serif" font-size="10px" fill="#000" opacity="0">50,000</text><text text-anchor="middle" transform="translate(216,15)" font-family="Switzer, system-ui, sans-serif" font-size="10px" fill="#000" opacity="1">60,000</text><text text-anchor="middle" transform="translate(251.99999999999997,15)" font-family="Switzer, system-ui, sans-serif" font-size="10px" fill="#000" opacity="0">70,000</text><text text-anchor="middle" transform="translate(288,15)" font-family="Switzer, system-ui, sans-serif" font-size="10px" fill="#000" opacity="1">80,000</text><text text-anchor="middle" transform="translate(324,15)" font-family="Switzer, system-ui, sans-serif" font-size="10px" fill="#000" opacity="0">90,000</text><text text-anchor="middle" transform="translate(360,15)" font-family="Switzer, system-ui, sans-serif" font-size="10px" fill="#000" opacity="1">100,000</text><text text-anchor="middle" transform="translate(396.00000000000006,15)" font-family="Switzer, system-ui, sans-serif" font-size="10px" fill="#000" opacity="0">110,000</text><text text-anchor="middle" transform="translate(432,15)" font-family="Switzer, system-ui, sans-serif" font-size="10px" fill="#000" opacity="1">120,000</text><text text-anchor="middle" transform="translate(468,15)" font-family="Switzer, system-ui, sans-serif" font-size="10px" fill="#000" opacity="0">130,000</text><text text-anchor="middle" transform="translate(503.99999999999994,15)" font-family="Switzer, system-ui, sans-serif" font-size="10px" fill="#000" opacity="1">140,000</text><text text-anchor="middle" transform="translate(540,15)" font-family="Switzer, system-ui, sans-serif" font-size="10px" fill="#000" opacity="0">150,000</text><text text-anchor="middle" transform="translate(576,15)" font-family="Switzer, system-ui, sans-serif" font-size="10px" fill="#000" opacity="1">160,000</text><text text-anchor="middle" transform="translate(612,15)" font-family="Switzer, system-ui, sans-serif" font-size="10px" fill="#000" opacity="0">170,000</text><text text-anchor="middle" transform="translate(648,15)" font-family="Switzer, system-ui, sans-serif" font-size="10px" fill="#000" opacity="1">180,000</text><text text-anchor="middle" transform="translate(684,15)" font-family="Switzer, system-ui, sans-serif" font-size="10px" fill="#000" opacity="0">190,000</text><text text-anchor="end" transform="translate(720,15)" font-family="Switzer, system-ui, sans-serif" font-size="10px" fill="#000" opacity="1">200,000</text></g><g class="mark-rule role-axis-domain" pointer-events="none"><line transform="translate(0,0)" x2="720" y2="0" stroke="#888" stroke-width="1" opacity="1"/></g><g class="mark-text role-axis-title" pointer-events="none"><text text-anchor="middle" transform="translate(360,30)" font-family="Switzer, system-ui, sans-serif" font-size="11px" font-weight="bold" fill="#000" opacity="1">Exponierte Stellen Tsd</text></g></g><path class="foreground" aria-hidden="true" d="" pointer-events="none" display="none"/></g></g><g class="mark-group role-axis" role="graphics-symbol" aria-roledescription="axis" aria-label="Y-axis for a discrete scale with 13 values: Handel, Reparatur, Verarbeitendes Gewerbe, Bergbau, Freiberufliche, wiss. Dienstl., Gesundheits-, Sozialwesen, Finanz-, Versicherungsdienstl., ending with Grundstücks-, Wohnungswesen"><g transform="translate(0.5,0.5)"><path class="background" aria-hidden="true" d="M0,0h0v0h0Z" pointer-events="none"/><g><g class="mark-rule role-axis-tick" pointer-events="none"><line transform="translate(0,17)" x2="-5" y2="0" stroke="#888" stroke-width="1" opacity="1"/><line transform="translate(0,51)" x2="-5" y2="0" stroke="#888" stroke-width="1" opacity="1"/><line transform="translate(0,86)" x2="-5" y2="0" stroke="#888" stroke-width="1" opacity="1"/><line transform="translate(0,121)" x2="-5" y2="0" stroke="#888" stroke-width="1" opacity="1"/><line transform="translate(0,155)" x2="-5" y2="0" stroke="#888" stroke-width="1" opacity="1"/><line transform="translate(0,190)" x2="-5" y2="0" stroke="#888" stroke-width="1" opacity="1"/><line transform="translate(0,224)" x2="-5" y2="0" stroke="#888" stroke-width="1" opacity="1"/><line transform="translate(0,259)" x2="-5" y2="0" stroke="#888" stroke-width="1" opacity="1"/><line transform="translate(0,294)" x2="-5" y2="0" stroke="#888" stroke-width="1" opacity="1"/><line transform="translate(0,328)" x2="-5" y2="0" stroke="#888" stroke-width="1" opacity="1"/><line transform="translate(0,363)" x2="-5" y2="0" stroke="#888" stroke-width="1" opacity="1"/><line transform="translate(0,398)" x2="-5" y2="0" stroke="#888" stroke-width="1" opacity="1"/><line transform="translate(0,432)" x2="-5" y2="0" stroke="#888" stroke-width="1" opacity="1"/></g><g class="mark-text role-axis-label" pointer-events="none"><text text-anchor="end" transform="translate(-7,19.807692307692303)" font-family="Switzer, system-ui, sans-serif" font-size="10px" fill="#000" opacity="1">Handel, Reparatur</text><text text-anchor="end" transform="translate(-7,54.42307692307692)" font-family="Switzer, system-ui, sans-serif" font-size="10px" fill="#000" opacity="1">Verarbeitendes Gewerbe, Bergbau</text><text text-anchor="end" transform="translate(-7,89.03846153846153)" font-family="Switzer, system-ui, sans-serif" font-size="10px" fill="#000" opacity="1">Freiberufliche, wiss. Dienstl.</text><text text-anchor="end" transform="translate(-7,123.65384615384615)" font-family="Switzer, system-ui, sans-serif" font-size="10px" fill="#000" opacity="1">Gesundheits-, Sozialwesen</text><text text-anchor="end" transform="translate(-7,158.26923076923075)" font-family="Switzer, system-ui, sans-serif" font-size="10px" fill="#000" opacity="1">Finanz-, Versicherungsdienstl.</text><text text-anchor="end" transform="translate(-7,192.88461538461536)" font-family="Switzer, system-ui, sans-serif" font-size="10px" fill="#000" opacity="1">Sonstige wirtsch. Dienstl.</text><text text-anchor="end" transform="translate(-7,227.49999999999997)" font-family="Switzer, system-ui, sans-serif" font-size="10px" fill="#000" opacity="1">Gastgewerbe, Beherbergung</text><text text-anchor="end" transform="translate(-7,262.1153846153846)" font-family="Switzer, system-ui, sans-serif" font-size="10px" fill="#000" opacity="1">Information, Kommunikation</text><text text-anchor="end" transform="translate(-7,296.7307692307692)" font-family="Switzer, system-ui, sans-serif" font-size="10px" fill="#000" opacity="1">Verkehr, Lagerei</text><text text-anchor="end" transform="translate(-7,331.34615384615387)" font-family="Switzer, system-ui, sans-serif" font-size="10px" fill="#000" opacity="1">Erziehung und Unterricht</text><text text-anchor="end" transform="translate(-7,365.96153846153845)" font-family="Switzer, system-ui, sans-serif" font-size="10px" fill="#000" opacity="1">Öffentliche Verwaltung</text><text text-anchor="end" transform="translate(-7,400.57692307692304)" font-family="Switzer, system-ui, sans-serif" font-size="10px" fill="#000" opacity="1">Baugewerbe</text><text text-anchor="end" transform="translate(-7,435.1923076923077)" font-family="Switzer, system-ui, sans-serif" font-size="10px" fill="#000" opacity="1">Grundstücks-, Wohnungswesen</text></g><g class="mark-rule role-axis-domain" pointer-events="none"><line transform="translate(0,0)" x2="0" y2="450" stroke="#888" stroke-width="1" opacity="1"/></g></g><path class="foreground" aria-hidden="true" d="" pointer-events="none" display="none"/></g></g><g class="mark-group role-scope" role="graphics-object" aria-roledescription="group mark container"><g transform="translate(0,1.7307692307692264)"><path class="background" aria-hidden="true" d="M0,0L678.5168,0C680.724460097976,0,682.5168,1.792339902024,682.5168,4L682.5168,27.153846153846153C682.5168,29.361506251822153,680.724460097976,31.153846153846153,678.5168,31.153846153846153L0,31.153846153846153C0,31.153846153846153,0,31.153846153846153,0,31.153846153846153L0,0C0,0,0,0,0,0Z"/><g clip-path="url(#clip90)"><g class="mark-group role-scope" role="graphics-object" aria-roledescription="group mark container"><g transform="translate(0,0)"><path class="background" aria-hidden="true" d="M0,0h0v31.153846153846153h0Z"/><g><g class="mark-rect role-mark marks" role="graphics-object" aria-roledescription="rect mark container"><path aria-label="Exponierte Stellen Tsd: 189588; Sektor: Handel, Reparatur" role="graphics-symbol" aria-roledescription="bar" d="M0,0h682.5168v31.153846153846153h-682.5168Z" fill="#ef4444"/></g></g><path class="foreground" aria-hidden="true" d="" display="none"/></g></g></g><path class="foreground" aria-hidden="true" d="" display="none"/></g><g transform="translate(0,36.34615384615384)"><path class="background" aria-hidden="true" d="M0,0L659.7608,0C661.968460097976,0,663.7608,1.792339902024,663.7608,4L663.7608,27.153846153846153C663.7608,29.361506251822153,661.968460097976,31.153846153846153,659.7608,31.153846153846153L0,31.153846153846153C0,31.153846153846153,0,31.153846153846153,0,31.153846153846153L0,0C0,0,0,0,0,0Z"/><g clip-path="url(#clip91)"><g class="mark-group role-scope" role="graphics-object" aria-roledescription="group mark container"><g transform="translate(0,0)"><path class="background" aria-hidden="true" d="M0,0h0v31.153846153846153h0Z"/><g><g class="mark-rect role-mark marks" role="graphics-object" aria-roledescription="rect mark container"><path aria-label="Exponierte Stellen Tsd: 184378; Sektor: Verarbeitendes Gewerbe, Bergbau" role="graphics-symbol" aria-roledescription="bar" d="M0,0h663.7608v31.153846153846153h-663.7608Z" fill="#ef4444"/></g></g><path class="foreground" aria-hidden="true" d="" display="none"/></g></g></g><path class="foreground" aria-hidden="true" d="" display="none"/></g><g transform="translate(0,70.96153846153845)"><path class="background" aria-hidden="true" d="M0,0L632.9264,0C635.134060097976,0,636.9264,1.792339902024,636.9264,4L636.9264,27.153846153846153C636.9264,29.361506251822153,635.134060097976,31.153846153846153,632.9264,31.153846153846153L0,31.153846153846153C0,31.153846153846153,0,31.153846153846153,0,31.153846153846153L0,0C0,0,0,0,0,0Z"/><g clip-path="url(#clip92)"><g class="mark-group role-scope" role="graphics-object" aria-roledescription="group mark container"><g transform="translate(0,0)"><path class="background" aria-hidden="true" d="M0,0h0v31.153846153846153h0Z"/><g><g class="mark-rect role-mark marks" role="graphics-object" aria-roledescription="rect mark container"><path aria-label="Exponierte Stellen Tsd: 176924; Sektor: Freiberufliche, wiss. Dienstl." role="graphics-symbol" aria-roledescription="bar" d="M0,0h636.9264v31.153846153846153h-636.9264Z" fill="#ef4444"/></g></g><path class="foreground" aria-hidden="true" d="" display="none"/></g></g></g><path class="foreground" aria-hidden="true" d="" display="none"/></g><g transform="translate(0,105.57692307692307)"><path class="background" aria-hidden="true" d="M0,0L506.9732,0C509.180860097976,0,510.9732,1.792339902024,510.9732,4L510.9732,27.153846153846153C510.9732,29.361506251822153,509.180860097976,31.153846153846153,506.9732,31.153846153846153L0,31.153846153846153C0,31.153846153846153,0,31.153846153846153,0,31.153846153846153L0,0C0,0,0,0,0,0Z"/><g clip-path="url(#clip93)"><g class="mark-group role-scope" role="graphics-object" aria-roledescription="group mark container"><g transform="translate(0,0)"><path class="background" aria-hidden="true" d="M0,0h0v31.153846153846153h0Z"/><g><g class="mark-rect role-mark marks" role="graphics-object" aria-roledescription="rect mark container"><path aria-label="Exponierte Stellen Tsd: 141937; Sektor: Gesundheits-, Sozialwesen" role="graphics-symbol" aria-roledescription="bar" d="M0,0h510.9732v31.153846153846153h-510.9732Z" fill="#ef4444"/></g></g><path class="foreground" aria-hidden="true" d="" display="none"/></g></g></g><path class="foreground" aria-hidden="true" d="" display="none"/></g><g transform="translate(0,140.19230769230768)"><path class="background" aria-hidden="true" d="M0,0L386.5892,0C388.796860097976,0,390.5892,1.792339902024,390.5892,4L390.5892,27.153846153846153C390.5892,29.361506251822153,388.796860097976,31.153846153846153,386.5892,31.153846153846153L0,31.153846153846153C0,31.153846153846153,0,31.153846153846153,0,31.153846153846153L0,0C0,0,0,0,0,0Z"/><g clip-path="url(#clip94)"><g class="mark-group role-scope" role="graphics-object" aria-roledescription="group mark container"><g transform="translate(0,0)"><path class="background" aria-hidden="true" d="M0,0h0v31.153846153846153h0Z"/><g><g class="mark-rect role-mark marks" role="graphics-object" aria-roledescription="rect mark container"><path aria-label="Exponierte Stellen Tsd: 108497; Sektor: Finanz-, Versicherungsdienstl." role="graphics-symbol" aria-roledescription="bar" d="M0,0h390.5892v31.153846153846153h-390.5892Z" fill="#ef4444"/></g></g><path class="foreground" aria-hidden="true" d="" display="none"/></g></g></g><path class="foreground" aria-hidden="true" d="" display="none"/></g><g transform="translate(0,174.8076923076923)"><path class="background" aria-hidden="true" d="M0,0L278.438,0C280.64566009797596,0,282.438,1.792339902024,282.438,4L282.438,27.153846153846153C282.438,29.361506251822153,280.64566009797596,31.153846153846153,278.438,31.153846153846153L0,31.153846153846153C0,31.153846153846153,0,31.153846153846153,0,31.153846153846153L0,0C0,0,0,0,0,0Z"/><g clip-path="url(#clip95)"><g class="mark-group role-scope" role="graphics-object" aria-roledescription="group mark container"><g transform="translate(0,0)"><path class="background" aria-hidden="true" d="M0,0h0v31.153846153846153h0Z"/><g><g class="mark-rect role-mark marks" role="graphics-object" aria-roledescription="rect mark container"><path aria-label="Exponierte Stellen Tsd: 78455; Sektor: Sonstige wirtsch. Dienstl." role="graphics-symbol" aria-roledescription="bar" d="M0,0h282.438v31.153846153846153h-282.438Z" fill="#ef4444"/></g></g><path class="foreground" aria-hidden="true" d="" display="none"/></g></g></g><path class="foreground" aria-hidden="true" d="" display="none"/></g><g transform="translate(0,209.4230769230769)"><path class="background" aria-hidden="true" d="M0,0L268.5776,0C270.785260097976,0,272.5776,1.792339902024,272.5776,4L272.5776,27.153846153846153C272.5776,29.361506251822153,270.785260097976,31.153846153846153,268.5776,31.153846153846153L0,31.153846153846153C0,31.153846153846153,0,31.153846153846153,0,31.153846153846153L0,0C0,0,0,0,0,0Z"/><g clip-path="url(#clip96)"><g class="mark-group role-scope" role="graphics-object" aria-roledescription="group mark container"><g transform="translate(0,0)"><path class="background" aria-hidden="true" d="M0,0h0v31.153846153846153h0Z"/><g><g class="mark-rect role-mark marks" role="graphics-object" aria-roledescription="rect mark container"><path aria-label="Exponierte Stellen Tsd: 75716; Sektor: Gastgewerbe, Beherbergung" role="graphics-symbol" aria-roledescription="bar" d="M0,0h272.5776v31.153846153846153h-272.5776Z" fill="#ef4444"/></g></g><path class="foreground" aria-hidden="true" d="" display="none"/></g></g></g><path class="foreground" aria-hidden="true" d="" display="none"/></g><g transform="translate(0,244.03846153846152)"><path class="background" aria-hidden="true" d="M0,0L239.71280000000002,0C241.92046009797602,0,243.71280000000002,1.792339902024,243.71280000000002,4L243.71280000000002,27.153846153846153C243.71280000000002,29.361506251822153,241.92046009797602,31.153846153846153,239.71280000000002,31.153846153846153L0,31.153846153846153C0,31.153846153846153,0,31.153846153846153,0,31.153846153846153L0,0C0,0,0,0,0,0Z"/><g clip-path="url(#clip97)"><g class="mark-group role-scope" role="graphics-object" aria-roledescription="group mark container"><g transform="translate(0,0)"><path class="background" aria-hidden="true" d="M0,0h0v31.153846153846153h0Z"/><g><g class="mark-rect role-mark marks" role="graphics-object" aria-roledescription="rect mark container"><path aria-label="Exponierte Stellen Tsd: 67698; Sektor: Information, Kommunikation" role="graphics-symbol" aria-roledescription="bar" d="M0,0h243.71280000000002v31.153846153846153h-243.71280000000002Z" fill="#ef4444"/></g></g><path class="foreground" aria-hidden="true" d="" display="none"/></g></g></g><path class="foreground" aria-hidden="true" d="" display="none"/></g><g transform="translate(0,278.65384615384613)"><path class="background" aria-hidden="true" d="M0,0L223.75039999999998,0C225.958060097976,0,227.75039999999998,1.792339902024,227.75039999999998,4L227.75039999999998,27.153846153846153C227.75039999999998,29.361506251822153,225.958060097976,31.153846153846153,223.75039999999998,31.153846153846153L0,31.153846153846153C0,31.153846153846153,0,31.153846153846153,0,31.153846153846153L0,0C0,0,0,0,0,0Z"/><g clip-path="url(#clip98)"><g class="mark-group role-scope" role="graphics-object" aria-roledescription="group mark container"><g transform="translate(0,0)"><path class="background" aria-hidden="true" d="M0,0h0v31.153846153846153h0Z"/><g><g class="mark-rect role-mark marks" role="graphics-object" aria-roledescription="rect mark container"><path aria-label="Exponierte Stellen Tsd: 63264; Sektor: Verkehr, Lagerei" role="graphics-symbol" aria-roledescription="bar" d="M0,0h227.75039999999998v31.153846153846153h-227.75039999999998Z" fill="#ef4444"/></g></g><path class="foreground" aria-hidden="true" d="" display="none"/></g></g></g><path class="foreground" aria-hidden="true" d="" display="none"/></g><g transform="translate(0,313.2692307692308)"><path class="background" aria-hidden="true" d="M0,0L204.6848,0C206.892460097976,0,208.6848,1.792339902024,208.6848,4L208.6848,27.153846153846153C208.6848,29.361506251822153,206.892460097976,31.153846153846153,204.6848,31.153846153846153L0,31.153846153846153C0,31.153846153846153,0,31.153846153846153,0,31.153846153846153L0,0C0,0,0,0,0,0Z"/><g clip-path="url(#clip99)"><g class="mark-group role-scope" role="graphics-object" aria-roledescription="group mark container"><g transform="translate(0,0)"><path class="background" aria-hidden="true" d="M0,0h0v31.153846153846153h0Z"/><g><g class="mark-rect role-mark marks" role="graphics-object" aria-roledescription="rect mark container"><path aria-label="Exponierte Stellen Tsd: 57968; Sektor: Erziehung und Unterricht" role="graphics-symbol" aria-roledescription="bar" d="M0,0h208.6848v31.153846153846153h-208.6848Z" fill="#ef4444"/></g></g><path class="foreground" aria-hidden="true" d="" display="none"/></g></g></g><path class="foreground" aria-hidden="true" d="" display="none"/></g><g transform="translate(0,347.88461538461536)"><path class="background" aria-hidden="true" d="M0,0L203.3564,0C205.564060097976,0,207.3564,1.792339902024,207.3564,4L207.3564,27.153846153846153C207.3564,29.361506251822153,205.564060097976,31.153846153846153,203.3564,31.153846153846153L0,31.153846153846153C0,31.153846153846153,0,31.153846153846153,0,31.153846153846153L0,0C0,0,0,0,0,0Z"/><g clip-path="url(#clip100)"><g class="mark-group role-scope" role="graphics-object" aria-roledescription="group mark container"><g transform="translate(0,0)"><path class="background" aria-hidden="true" d="M0,0h0v31.153846153846153h0Z"/><g><g class="mark-rect role-mark marks" role="graphics-object" aria-roledescription="rect mark container"><path aria-label="Exponierte Stellen Tsd: 57599; Sektor: Öffentliche Verwaltung" role="graphics-symbol" aria-roledescription="bar" d="M0,0h207.3564v31.153846153846153h-207.3564Z" fill="#ef4444"/></g></g><path class="foreground" aria-hidden="true" d="" display="none"/></g></g></g><path class="foreground" aria-hidden="true" d="" display="none"/></g><g transform="translate(0,382.49999999999994)"><path class="background" aria-hidden="true" d="M0,0L185.44279999999998,0C187.65046009797598,0,189.44279999999998,1.792339902024,189.44279999999998,4L189.44279999999998,27.153846153846153C189.44279999999998,29.361506251822153,187.65046009797598,31.153846153846153,185.44279999999998,31.153846153846153L0,31.153846153846153C0,31.153846153846153,0,31.153846153846153,0,31.153846153846153L0,0C0,0,0,0,0,0Z"/><g clip-path="url(#clip101)"><g class="mark-group role-scope" role="graphics-object" aria-roledescription="group mark container"><g transform="translate(0,0)"><path class="background" aria-hidden="true" d="M0,0h0v31.153846153846153h0Z"/><g><g class="mark-rect role-mark marks" role="graphics-object" aria-roledescription="rect mark container"><path aria-label="Exponierte Stellen Tsd: 52623; Sektor: Baugewerbe" role="graphics-symbol" aria-roledescription="bar" d="M0,0h189.44279999999998v31.153846153846153h-189.44279999999998Z" fill="#ef4444"/></g></g><path class="foreground" aria-hidden="true" d="" display="none"/></g></g></g><path class="foreground" aria-hidden="true" d="" display="none"/></g><g transform="translate(0,417.1153846153846)"><path class="background" aria-hidden="true" d="M0,0L58.3448,0C60.552460097976,0,62.3448,1.792339902024,62.3448,4L62.3448,27.153846153846153C62.3448,29.361506251822153,60.552460097976,31.153846153846153,58.3448,31.153846153846153L0,31.153846153846153C0,31.153846153846153,0,31.153846153846153,0,31.153846153846153L0,0C0,0,0,0,0,0Z"/><g clip-path="url(#clip102)"><g class="mark-group role-scope" role="graphics-object" aria-roledescription="group mark container"><g transform="translate(0,0)"><path class="background" aria-hidden="true" d="M0,0h0v31.153846153846153h0Z"/><g><g class="mark-rect role-mark marks" role="graphics-object" aria-roledescription="rect mark container"><path aria-label="Exponierte Stellen Tsd: 17318; Sektor: Grundstücks-, Wohnungswesen" role="graphics-symbol" aria-roledescription="bar" d="M0,0h62.3448v31.153846153846153h-62.3448Z" fill="#ef4444"/></g></g><path class="foreground" aria-hidden="true" d="" display="none"/></g></g></g><path class="foreground" aria-hidden="true" d="" display="none"/></g></g><g class="mark-group role-title"><g transform="translate(360,-17)"><path class="background" aria-hidden="true" d="M0,0h0v0h0Z" pointer-events="none"/><g><g class="mark-text role-title-text" role="graphics-symbol" aria-roledescription="title" aria-label="Title text 'Geschätzte exponierte Arbeitsplätze nach Post-LLM-Modell (Tsd.)'" pointer-events="none"><text text-anchor="middle" transform="translate(0,10)" font-family="Switzer, system-ui, sans-serif" font-size="13px" font-weight="bold" fill="#000" opacity="1">Geschätzte exponierte Arbeitsplätze nach Post-LLM-Modell (Tsd.)</text></g></g><path class="foreground" aria-hidden="true" d="" pointer-events="none" display="none"/></g></g></g><path class="foreground" aria-hidden="true" d="" display="none"/></g></g></g><defs><clipPath id="clip90"><path d="M0,0L678.5168,0C680.724460097976,0,682.5168,1.792339902024,682.5168,4L682.5168,27.153846153846153C682.5168,29.361506251822153,680.724460097976,31.153846153846153,678.5168,31.153846153846153L0,31.153846153846153C0,31.153846153846153,0,31.153846153846153,0,31.153846153846153L0,0C0,0,0,0,0,0Z"/></clipPath><clipPath id="clip91"><path d="M0,0L659.7608,0C661.968460097976,0,663.7608,1.792339902024,663.7608,4L663.7608,27.153846153846153C663.7608,29.361506251822153,661.968460097976,31.153846153846153,659.7608,31.153846153846153L0,31.153846153846153C0,31.153846153846153,0,31.153846153846153,0,31.153846153846153L0,0C0,0,0,0,0,0Z"/></clipPath><clipPath id="clip92"><path d="M0,0L632.9264,0C635.134060097976,0,636.9264,1.792339902024,636.9264,4L636.9264,27.153846153846153C636.9264,29.361506251822153,635.134060097976,31.153846153846153,632.9264,31.153846153846153L0,31.153846153846153C0,31.153846153846153,0,31.153846153846153,0,31.153846153846153L0,0C0,0,0,0,0,0Z"/></clipPath><clipPath id="clip93"><path d="M0,0L506.9732,0C509.180860097976,0,510.9732,1.792339902024,510.9732,4L510.9732,27.153846153846153C510.9732,29.361506251822153,509.180860097976,31.153846153846153,506.9732,31.153846153846153L0,31.153846153846153C0,31.153846153846153,0,31.153846153846153,0,31.153846153846153L0,0C0,0,0,0,0,0Z"/></clipPath><clipPath id="clip94"><path d="M0,0L386.5892,0C388.796860097976,0,390.5892,1.792339902024,390.5892,4L390.5892,27.153846153846153C390.5892,29.361506251822153,388.796860097976,31.153846153846153,386.5892,31.153846153846153L0,31.153846153846153C0,31.153846153846153,0,31.153846153846153,0,31.153846153846153L0,0C0,0,0,0,0,0Z"/></clipPath><clipPath id="clip95"><path d="M0,0L278.438,0C280.64566009797596,0,282.438,1.792339902024,282.438,4L282.438,27.153846153846153C282.438,29.361506251822153,280.64566009797596,31.153846153846153,278.438,31.153846153846153L0,31.153846153846153C0,31.153846153846153,0,31.153846153846153,0,31.153846153846153L0,0C0,0,0,0,0,0Z"/></clipPath><clipPath id="clip96"><path d="M0,0L268.5776,0C270.785260097976,0,272.5776,1.792339902024,272.5776,4L272.5776,27.153846153846153C272.5776,29.361506251822153,270.785260097976,31.153846153846153,268.5776,31.153846153846153L0,31.153846153846153C0,31.153846153846153,0,31.153846153846153,0,31.153846153846153L0,0C0,0,0,0,0,0Z"/></clipPath><clipPath id="clip97"><path d="M0,0L239.71280000000002,0C241.92046009797602,0,243.71280000000002,1.792339902024,243.71280000000002,4L243.71280000000002,27.153846153846153C243.71280000000002,29.361506251822153,241.92046009797602,31.153846153846153,239.71280000000002,31.153846153846153L0,31.153846153846153C0,31.153846153846153,0,31.153846153846153,0,31.153846153846153L0,0C0,0,0,0,0,0Z"/></clipPath><clipPath id="clip98"><path d="M0,0L223.75039999999998,0C225.958060097976,0,227.75039999999998,1.792339902024,227.75039999999998,4L227.75039999999998,27.153846153846153C227.75039999999998,29.361506251822153,225.958060097976,31.153846153846153,223.75039999999998,31.153846153846153L0,31.153846153846153C0,31.153846153846153,0,31.153846153846153,0,31.153846153846153L0,0C0,0,0,0,0,0Z"/></clipPath><clipPath id="clip99"><path d="M0,0L204.6848,0C206.892460097976,0,208.6848,1.792339902024,208.6848,4L208.6848,27.153846153846153C208.6848,29.361506251822153,206.892460097976,31.153846153846153,204.6848,31.153846153846153L0,31.153846153846153C0,31.153846153846153,0,31.153846153846153,0,31.153846153846153L0,0C0,0,0,0,0,0Z"/></clipPath><clipPath id="clip100"><path d="M0,0L203.3564,0C205.564060097976,0,207.3564,1.792339902024,207.3564,4L207.3564,27.153846153846153C207.3564,29.361506251822153,205.564060097976,31.153846153846153,203.3564,31.153846153846153L0,31.153846153846153C0,31.153846153846153,0,31.153846153846153,0,31.153846153846153L0,0C0,0,0,0,0,0Z"/></clipPath><clipPath id="clip101"><path d="M0,0L185.44279999999998,0C187.65046009797598,0,189.44279999999998,1.792339902024,189.44279999999998,4L189.44279999999998,27.153846153846153C189.44279999999998,29.361506251822153,187.65046009797598,31.153846153846153,185.44279999999998,31.153846153846153L0,31.153846153846153C0,31.153846153846153,0,31.153846153846153,0,31.153846153846153L0,0C0,0,0,0,0,0Z"/></clipPath><clipPath id="clip102"><path d="M0,0L58.3448,0C60.552460097976,0,62.3448,1.792339902024,62.3448,4L62.3448,27.153846153846153C62.3448,29.361506251822153,60.552460097976,31.153846153846153,58.3448,31.153846153846153L0,31.153846153846153C0,31.153846153846153,0,31.153846153846153,0,31.153846153846153L0,0C0,0,0,0,0,0Z"/></clipPath></defs></svg>