<svg xmlns="http://www.w3.org/2000/svg" xmlns:xlink="http://www.w3.org/1999/xlink" version="1.1" class="marks" width="895" height="559" viewBox="0 0 895 559"><rect width="895" height="559" fill="white"/><g fill="none" stroke-miterlimit="10" transform="translate(169,22)"><g class="mark-group role-frame root" role="graphics-object" aria-roledescription="group mark container"><g transform="translate(0,0)"><path class="background" aria-hidden="true" d="M0.5,0.5h720v500h-720Z"/><g><g class="mark-group role-axis" aria-hidden="true"><g transform="translate(0.5,500.5)"><path class="background" aria-hidden="true" d="M0,0h0v0h0Z" pointer-events="none"/><g><g class="mark-rule role-axis-grid" pointer-events="none"><line transform="translate(0,0)" x2="0" y2="-500" stroke="#ddd" stroke-width="1" opacity="1"/><line transform="translate(45,0)" x2="0" y2="-500" stroke="#ddd" stroke-width="1" opacity="1"/><line transform="translate(90,0)" x2="0" y2="-500" stroke="#ddd" stroke-width="1" opacity="1"/><line transform="translate(135,0)" x2="0" y2="-500" stroke="#ddd" stroke-width="1" opacity="1"/><line transform="translate(180,0)" x2="0" y2="-500" stroke="#ddd" stroke-width="1" opacity="1"/><line transform="translate(225,0)" x2="0" y2="-500" stroke="#ddd" stroke-width="1" opacity="1"/><line transform="translate(270,0)" x2="0" y2="-500" stroke="#ddd" stroke-width="1" opacity="1"/><line transform="translate(315,0)" x2="0" y2="-500" stroke="#ddd" stroke-width="1" opacity="1"/><line transform="translate(360,0)" x2="0" y2="-500" stroke="#ddd" stroke-width="1" opacity="1"/><line transform="translate(405,0)" x2="0" y2="-500" stroke="#ddd" stroke-width="1" opacity="1"/><line transform="translate(450,0)" x2="0" y2="-500" stroke="#ddd" stroke-width="1" opacity="1"/><line transform="translate(495,0)" x2="0" y2="-500" stroke="#ddd" stroke-width="1" opacity="1"/><line transform="translate(540,0)" x2="0" y2="-500" stroke="#ddd" stroke-width="1" opacity="1"/><line transform="translate(585,0)" x2="0" y2="-500" stroke="#ddd" stroke-width="1" opacity="1"/><line transform="translate(630,0)" x2="0" y2="-500" stroke="#ddd" stroke-width="1" opacity="1"/><line transform="translate(675,0)" x2="0" y2="-500" stroke="#ddd" stroke-width="1" opacity="1"/><line transform="translate(720,0)" x2="0" y2="-500" stroke="#ddd" stroke-width="1" opacity="1"/></g></g><path class="foreground" aria-hidden="true" d="" pointer-events="none" display="none"/></g></g><g class="mark-group role-axis" role="graphics-symbol" aria-roledescription="axis" aria-label="X-axis titled 'Erwerbstätige (in 1'000)' for a linear scale with values from 0 to 800"><g transform="translate(0.5,500.5)"><path class="background" aria-hidden="true" d="M0,0h0v0h0Z" pointer-events="none"/><g><g class="mark-rule role-axis-tick" pointer-events="none"><line transform="translate(0,0)" x2="0" y2="5" stroke="#888" stroke-width="1" opacity="1"/><line transform="translate(45,0)" x2="0" y2="5" stroke="#888" stroke-width="1" opacity="1"/><line transform="translate(90,0)" x2="0" y2="5" stroke="#888" stroke-width="1" opacity="1"/><line transform="translate(135,0)" x2="0" y2="5" stroke="#888" stroke-width="1" opacity="1"/><line transform="translate(180,0)" x2="0" y2="5" stroke="#888" stroke-width="1" opacity="1"/><line transform="translate(225,0)" x2="0" y2="5" stroke="#888" stroke-width="1" opacity="1"/><line transform="translate(270,0)" x2="0" y2="5" stroke="#888" stroke-width="1" opacity="1"/><line transform="translate(315,0)" x2="0" y2="5" stroke="#888" stroke-width="1" opacity="1"/><line transform="translate(360,0)" x2="0" y2="5" stroke="#888" stroke-width="1" opacity="1"/><line transform="translate(405,0)" x2="0" y2="5" stroke="#888" stroke-width="1" opacity="1"/><line transform="translate(450,0)" x2="0" y2="5" stroke="#888" stroke-width="1" opacity="1"/><line transform="translate(495,0)" x2="0" y2="5" stroke="#888" stroke-width="1" opacity="1"/><line transform="translate(540,0)" x2="0" y2="5" stroke="#888" stroke-width="1" opacity="1"/><line transform="translate(585,0)" x2="0" y2="5" stroke="#888" stroke-width="1" opacity="1"/><line transform="translate(630,0)" x2="0" y2="5" stroke="#888" stroke-width="1" opacity="1"/><line transform="translate(675,0)" x2="0" y2="5" stroke="#888" stroke-width="1" opacity="1"/><line transform="translate(720,0)" x2="0" y2="5" stroke="#888" stroke-width="1" opacity="1"/></g><g class="mark-text role-axis-label" pointer-events="none"><text text-anchor="start" transform="translate(0,15)" font-family="Switzer, system-ui, sans-serif" font-size="10px" fill="#000" opacity="1">0</text><text text-anchor="middle" transform="translate(45,15)" font-family="Switzer, system-ui, sans-serif" font-size="10px" fill="#000" opacity="1">50</text><text text-anchor="middle" transform="translate(90,15)" font-family="Switzer, system-ui, sans-serif" font-size="10px" fill="#000" opacity="1">100</text><text text-anchor="middle" transform="translate(135,15)" font-family="Switzer, system-ui, sans-serif" font-size="10px" fill="#000" opacity="1">150</text><text text-anchor="middle" transform="translate(180,15)" font-family="Switzer, system-ui, sans-serif" font-size="10px" fill="#000" opacity="1">200</text><text text-anchor="middle" transform="translate(225,15)" font-family="Switzer, system-ui, sans-serif" font-size="10px" fill="#000" opacity="1">250</text><text text-anchor="middle" transform="translate(270,15)" font-family="Switzer, system-ui, sans-serif" font-size="10px" fill="#000" opacity="1">300</text><text text-anchor="middle" transform="translate(315,15)" font-family="Switzer, system-ui, sans-serif" font-size="10px" fill="#000" opacity="1">350</text><text text-anchor="middle" transform="translate(360,15)" font-family="Switzer, system-ui, sans-serif" font-size="10px" fill="#000" opacity="1">400</text><text text-anchor="middle" transform="translate(405,15)" font-family="Switzer, system-ui, sans-serif" font-size="10px" fill="#000" opacity="1">450</text><text text-anchor="middle" transform="translate(450,15)" font-family="Switzer, system-ui, sans-serif" font-size="10px" fill="#000" opacity="1">500</text><text text-anchor="middle" transform="translate(495,15)" font-family="Switzer, system-ui, sans-serif" font-size="10px" fill="#000" opacity="1">550</text><text text-anchor="middle" transform="translate(540,15)" font-family="Switzer, system-ui, sans-serif" font-size="10px" fill="#000" opacity="1">600</text><text text-anchor="middle" transform="translate(585,15)" font-family="Switzer, system-ui, sans-serif" font-size="10px" fill="#000" opacity="1">650</text><text text-anchor="middle" transform="translate(630,15)" font-family="Switzer, system-ui, sans-serif" font-size="10px" fill="#000" opacity="1">700</text><text text-anchor="middle" transform="translate(675,15)" font-family="Switzer, system-ui, sans-serif" font-size="10px" fill="#000" opacity="1">750</text><text text-anchor="end" transform="translate(720,15)" font-family="Switzer, system-ui, sans-serif" font-size="10px" fill="#000" opacity="1">800</text></g><g class="mark-rule role-axis-domain" pointer-events="none"><line transform="translate(0,0)" x2="720" y2="0" stroke="#888" stroke-width="1" opacity="1"/></g><g class="mark-text role-axis-title" pointer-events="none"><text text-anchor="middle" transform="translate(360,30)" font-family="Switzer, system-ui, sans-serif" font-size="11px" font-weight="bold" fill="#000" opacity="1">Erwerbstätige (in 1'000)</text></g></g><path class="foreground" aria-hidden="true" d="" pointer-events="none" display="none"/></g></g><g class="mark-group role-axis" role="graphics-symbol" aria-roledescription="axis" aria-label="Y-axis for a discrete scale with 19 values: Gesundheits-, Sozialwesen, Verarbeitendes Gewerbe, Bergbau, Handel, Reparatur, Freiberufliche, wiss. Dienstl., Erziehung und Unterricht, ending with Wasserversorgung, Entsorgung"><g transform="translate(0.5,0.5)"><path class="background" aria-hidden="true" d="M0,0h0v0h0Z" pointer-events="none"/><g><g class="mark-rule role-axis-tick" pointer-events="none"><line transform="translate(0,13)" x2="-5" y2="0" stroke="#888" stroke-width="1" opacity="1"/><line transform="translate(0,39)" x2="-5" y2="0" stroke="#888" stroke-width="1" opacity="1"/><line transform="translate(0,65)" x2="-5" y2="0" stroke="#888" stroke-width="1" opacity="1"/><line transform="translate(0,92)" x2="-5" y2="0" stroke="#888" stroke-width="1" opacity="1"/><line transform="translate(0,118)" x2="-5" y2="0" stroke="#888" stroke-width="1" opacity="1"/><line transform="translate(0,144)" x2="-5" y2="0" stroke="#888" stroke-width="1" opacity="1"/><line transform="translate(0,171)" x2="-5" y2="0" stroke="#888" stroke-width="1" opacity="1"/><line transform="translate(0,197)" x2="-5" y2="0" stroke="#888" stroke-width="1" opacity="1"/><line transform="translate(0,223)" x2="-5" y2="0" stroke="#888" stroke-width="1" opacity="1"/><line transform="translate(0,250)" x2="-5" y2="0" stroke="#888" stroke-width="1" opacity="1"/><line transform="translate(0,276)" x2="-5" y2="0" stroke="#888" stroke-width="1" opacity="1"/><line transform="translate(0,302)" x2="-5" y2="0" stroke="#888" stroke-width="1" opacity="1"/><line transform="translate(0,328)" x2="-5" y2="0" stroke="#888" stroke-width="1" opacity="1"/><line transform="translate(0,355)" x2="-5" y2="0" stroke="#888" stroke-width="1" opacity="1"/><line transform="translate(0,381)" x2="-5" y2="0" stroke="#888" stroke-width="1" opacity="1"/><line transform="translate(0,407)" x2="-5" y2="0" stroke="#888" stroke-width="1" opacity="1"/><line transform="translate(0,434)" x2="-5" y2="0" stroke="#888" stroke-width="1" opacity="1"/><line transform="translate(0,460)" x2="-5" y2="0" stroke="#888" stroke-width="1" opacity="1"/><line transform="translate(0,486)" x2="-5" y2="0" stroke="#888" stroke-width="1" opacity="1"/></g><g class="mark-text role-axis-label" pointer-events="none"><text text-anchor="end" transform="translate(-7,15.657894736842142)" font-family="Switzer, system-ui, sans-serif" font-size="10px" fill="#000" opacity="1">Gesundheits-, Sozialwesen</text><text text-anchor="end" transform="translate(-7,41.97368421052635)" font-family="Switzer, system-ui, sans-serif" font-size="10px" fill="#000" opacity="1">Verarbeitendes Gewerbe, Bergbau</text><text text-anchor="end" transform="translate(-7,68.28947368421056)" font-family="Switzer, system-ui, sans-serif" font-size="10px" fill="#000" opacity="1">Handel, Reparatur</text><text text-anchor="end" transform="translate(-7,94.60526315789477)" font-family="Switzer, system-ui, sans-serif" font-size="10px" fill="#000" opacity="1">Freiberufliche, wiss. Dienstl.</text><text text-anchor="end" transform="translate(-7,120.92105263157897)" font-family="Switzer, system-ui, sans-serif" font-size="10px" fill="#000" opacity="1">Erziehung und Unterricht</text><text text-anchor="end" transform="translate(-7,147.23684210526318)" font-family="Switzer, system-ui, sans-serif" font-size="10px" fill="#000" opacity="1">Sonstige wirtsch. Dienstl.</text><text text-anchor="end" transform="translate(-7,173.5526315789474)" font-family="Switzer, system-ui, sans-serif" font-size="10px" fill="#000" opacity="1">Baugewerbe</text><text text-anchor="end" transform="translate(-7,199.8684210526316)" font-family="Switzer, system-ui, sans-serif" font-size="10px" fill="#000" opacity="1">Verkehr, Lagerei</text><text text-anchor="end" transform="translate(-7,226.1842105263158)" font-family="Switzer, system-ui, sans-serif" font-size="10px" fill="#000" opacity="1">Gastgewerbe, Beherbergung</text><text text-anchor="end" transform="translate(-7,252.50000000000003)" font-family="Switzer, system-ui, sans-serif" font-size="10px" fill="#000" opacity="1">Finanz-, Versicherungsdienstl.</text><text text-anchor="end" transform="translate(-7,278.8157894736843)" font-family="Switzer, system-ui, sans-serif" font-size="10px" fill="#000" opacity="1">Öffentliche Verwaltung</text><text text-anchor="end" transform="translate(-7,305.13157894736844)" font-family="Switzer, system-ui, sans-serif" font-size="10px" fill="#000" opacity="1">Information, Kommunikation</text><text text-anchor="end" transform="translate(-7,331.4473684210527)" font-family="Switzer, system-ui, sans-serif" font-size="10px" fill="#000" opacity="1">Sonstige Dienstleistungen</text><text text-anchor="end" transform="translate(-7,357.7631578947369)" font-family="Switzer, system-ui, sans-serif" font-size="10px" fill="#000" opacity="1">Land- und Forstwirtschaft</text><text text-anchor="end" transform="translate(-7,384.07894736842104)" font-family="Switzer, system-ui, sans-serif" font-size="10px" fill="#000" opacity="1">Kunst, Unterhaltung, Erholung</text><text text-anchor="end" transform="translate(-7,410.3947368421053)" font-family="Switzer, system-ui, sans-serif" font-size="10px" fill="#000" opacity="1">Private Haushalte</text><text text-anchor="end" transform="translate(-7,436.7105263157895)" font-family="Switzer, system-ui, sans-serif" font-size="10px" fill="#000" opacity="1">Grundstücks-, Wohnungswesen</text><text text-anchor="end" transform="translate(-7,463.02631578947376)" font-family="Switzer, system-ui, sans-serif" font-size="10px" fill="#000" opacity="1">Energieversorgung</text><text text-anchor="end" transform="translate(-7,489.3421052631579)" font-family="Switzer, system-ui, sans-serif" font-size="10px" fill="#000" opacity="1">Wasserversorgung, Entsorgung</text></g><g class="mark-rule role-axis-domain" pointer-events="none"><line transform="translate(0,0)" x2="0" y2="500" stroke="#888" stroke-width="1" opacity="1"/></g></g><path class="foreground" aria-hidden="true" d="" pointer-events="none" display="none"/></g></g><g class="mark-group role-scope" role="graphics-object" aria-roledescription="group mark container"><g transform="translate(0,1.315789473684248)"><path class="background" aria-hidden="true" d="M0,0L706.1,0C708.307660097976,0,710.1,1.792339902024,710.1,4L710.1,19.684210526315788C710.1,21.891870624291787,708.307660097976,23.684210526315788,706.1,23.684210526315788L0,23.684210526315788C0,23.684210526315788,0,23.684210526315788,0,23.684210526315788L0,0C0,0,0,0,0,0Z"/><g clip-path="url(#clip36)"><g class="mark-group role-scope" role="graphics-object" aria-roledescription="group mark container"><g transform="translate(0,0)"><path class="background" aria-hidden="true" d="M0,0h0v23.684210526315788h0Z"/><g><g class="mark-rect role-mark marks" role="graphics-object" aria-roledescription="rect mark container"><path aria-label="Erwerbstätige (in 1'000): 789; Bezeichnung: Gesundheits-, Sozialwesen" role="graphics-symbol" aria-roledescription="bar" d="M0,0h710.1v23.684210526315788h-710.1Z" fill="#3b82f6"/></g></g><path class="foreground" aria-hidden="true" d="" display="none"/></g></g></g><path class="foreground" aria-hidden="true" d="" display="none"/></g><g transform="translate(0,27.631578947368457)"><path class="background" aria-hidden="true" d="M0,0L588.2,0C590.4076600979761,0,592.2,1.792339902024,592.2,4L592.2,19.684210526315788C592.2,21.891870624291787,590.4076600979761,23.684210526315788,588.2,23.684210526315788L0,23.684210526315788C0,23.684210526315788,0,23.684210526315788,0,23.684210526315788L0,0C0,0,0,0,0,0Z"/><g clip-path="url(#clip37)"><g class="mark-group role-scope" role="graphics-object" aria-roledescription="group mark container"><g transform="translate(0,0)"><path class="background" aria-hidden="true" d="M0,0h0v23.684210526315788h0Z"/><g><g class="mark-rect role-mark marks" role="graphics-object" aria-roledescription="rect mark container"><path aria-label="Erwerbstätige (in 1'000): 658; Bezeichnung: Verarbeitendes Gewerbe, Bergbau" role="graphics-symbol" aria-roledescription="bar" d="M0,0h592.2v23.684210526315788h-592.2Z" fill="#3b82f6"/></g></g><path class="foreground" aria-hidden="true" d="" display="none"/></g></g></g><path class="foreground" aria-hidden="true" d="" display="none"/></g><g transform="translate(0,53.947368421052666)"><path class="background" aria-hidden="true" d="M0,0L528.8,0C531.007660097976,0,532.8,1.792339902024,532.8,4L532.8,19.684210526315788C532.8,21.891870624291787,531.007660097976,23.684210526315788,528.8,23.684210526315788L0,23.684210526315788C0,23.684210526315788,0,23.684210526315788,0,23.684210526315788L0,0C0,0,0,0,0,0Z"/><g clip-path="url(#clip38)"><g class="mark-group role-scope" role="graphics-object" aria-roledescription="group mark container"><g transform="translate(0,0)"><path class="background" aria-hidden="true" d="M0,0h0v23.684210526315788h0Z"/><g><g class="mark-rect role-mark marks" role="graphics-object" aria-roledescription="rect mark container"><path aria-label="Erwerbstätige (in 1'000): 592; Bezeichnung: Handel, Reparatur" role="graphics-symbol" aria-roledescription="bar" d="M0,0h532.8v23.684210526315788h-532.8Z" fill="#3b82f6"/></g></g><path class="foreground" aria-hidden="true" d="" display="none"/></g></g></g><path class="foreground" aria-hidden="true" d="" display="none"/></g><g transform="translate(0,80.26315789473688)"><path class="background" aria-hidden="true" d="M0,0L415.40000000000003,0C417.607660097976,0,419.40000000000003,1.792339902024,419.40000000000003,4L419.40000000000003,19.684210526315788C419.40000000000003,21.891870624291787,417.607660097976,23.684210526315788,415.40000000000003,23.684210526315788L0,23.684210526315788C0,23.684210526315788,0,23.684210526315788,0,23.684210526315788L0,0C0,0,0,0,0,0Z"/><g clip-path="url(#clip39)"><g class="mark-group role-scope" role="graphics-object" aria-roledescription="group mark container"><g transform="translate(0,0)"><path class="background" aria-hidden="true" d="M0,0h0v23.684210526315788h0Z"/><g><g class="mark-rect role-mark marks" role="graphics-object" aria-roledescription="rect mark container"><path aria-label="Erwerbstätige (in 1'000): 466; Bezeichnung: Freiberufliche, wiss. Dienstl." role="graphics-symbol" aria-roledescription="bar" d="M0,0h419.40000000000003v23.684210526315788h-419.40000000000003Z" fill="#3b82f6"/></g></g><path class="foreground" aria-hidden="true" d="" display="none"/></g></g></g><path class="foreground" aria-hidden="true" d="" display="none"/></g><g transform="translate(0,106.57894736842108)"><path class="background" aria-hidden="true" d="M0,0L343.4,0C345.60766009797595,0,347.4,1.792339902024,347.4,4L347.4,19.684210526315788C347.4,21.891870624291787,345.60766009797595,23.684210526315788,343.4,23.684210526315788L0,23.684210526315788C0,23.684210526315788,0,23.684210526315788,0,23.684210526315788L0,0C0,0,0,0,0,0Z"/><g clip-path="url(#clip40)"><g class="mark-group role-scope" role="graphics-object" aria-roledescription="group mark container"><g transform="translate(0,0)"><path class="background" aria-hidden="true" d="M0,0h0v23.684210526315788h0Z"/><g><g class="mark-rect role-mark marks" role="graphics-object" aria-roledescription="rect mark container"><path aria-label="Erwerbstätige (in 1'000): 386; Bezeichnung: Erziehung und Unterricht" role="graphics-symbol" aria-roledescription="bar" d="M0,0h347.4v23.684210526315788h-347.4Z" fill="#3b82f6"/></g></g><path class="foreground" aria-hidden="true" d="" display="none"/></g></g></g><path class="foreground" aria-hidden="true" d="" display="none"/></g><g transform="translate(0,132.8947368421053)"><path class="background" aria-hidden="true" d="M0,0L317.3,0C319.507660097976,0,321.3,1.792339902024,321.3,4L321.3,19.684210526315788C321.3,21.891870624291787,319.507660097976,23.684210526315788,317.3,23.684210526315788L0,23.684210526315788C0,23.684210526315788,0,23.684210526315788,0,23.684210526315788L0,0C0,0,0,0,0,0Z"/><g clip-path="url(#clip41)"><g class="mark-group role-scope" role="graphics-object" aria-roledescription="group mark container"><g transform="translate(0,0)"><path class="background" aria-hidden="true" d="M0,0h0v23.684210526315788h0Z"/><g><g class="mark-rect role-mark marks" role="graphics-object" aria-roledescription="rect mark container"><path aria-label="Erwerbstätige (in 1'000): 357; Bezeichnung: Sonstige wirtsch. Dienstl." role="graphics-symbol" aria-roledescription="bar" d="M0,0h321.3v23.684210526315788h-321.3Z" fill="#3b82f6"/></g></g><path class="foreground" aria-hidden="true" d="" display="none"/></g></g></g><path class="foreground" aria-hidden="true" d="" display="none"/></g><g transform="translate(0,159.2105263157895)"><path class="background" aria-hidden="true" d="M0,0L311.9,0C314.10766009797595,0,315.9,1.792339902024,315.9,4L315.9,19.684210526315788C315.9,21.891870624291787,314.10766009797595,23.684210526315788,311.9,23.684210526315788L0,23.684210526315788C0,23.684210526315788,0,23.684210526315788,0,23.684210526315788L0,0C0,0,0,0,0,0Z"/><g clip-path="url(#clip42)"><g class="mark-group role-scope" role="graphics-object" aria-roledescription="group mark container"><g transform="translate(0,0)"><path class="background" aria-hidden="true" d="M0,0h0v23.684210526315788h0Z"/><g><g class="mark-rect role-mark marks" role="graphics-object" aria-roledescription="rect mark container"><path aria-label="Erwerbstätige (in 1'000): 351; Bezeichnung: Baugewerbe" role="graphics-symbol" aria-roledescription="bar" d="M0,0h315.9v23.684210526315788h-315.9Z" fill="#3b82f6"/></g></g><path class="foreground" aria-hidden="true" d="" display="none"/></g></g></g><path class="foreground" aria-hidden="true" d="" display="none"/></g><g transform="translate(0,185.5263157894737)"><path class="background" aria-hidden="true" d="M0,0L223.7,0C225.907660097976,0,227.7,1.792339902024,227.7,4L227.7,19.684210526315788C227.7,21.891870624291787,225.907660097976,23.684210526315788,223.7,23.684210526315788L0,23.684210526315788C0,23.684210526315788,0,23.684210526315788,0,23.684210526315788L0,0C0,0,0,0,0,0Z"/><g clip-path="url(#clip43)"><g class="mark-group role-scope" role="graphics-object" aria-roledescription="group mark container"><g transform="translate(0,0)"><path class="background" aria-hidden="true" d="M0,0h0v23.684210526315788h0Z"/><g><g class="mark-rect role-mark marks" role="graphics-object" aria-roledescription="rect mark container"><path aria-label="Erwerbstätige (in 1'000): 253; Bezeichnung: Verkehr, Lagerei" role="graphics-symbol" aria-roledescription="bar" d="M0,0h227.7v23.684210526315788h-227.7Z" fill="#3b82f6"/></g></g><path class="foreground" aria-hidden="true" d="" display="none"/></g></g></g><path class="foreground" aria-hidden="true" d="" display="none"/></g><g transform="translate(0,211.84210526315792)"><path class="background" aria-hidden="true" d="M0,0L222.8,0C225.00766009797601,0,226.8,1.792339902024,226.8,4L226.8,19.684210526315788C226.8,21.891870624291787,225.00766009797601,23.684210526315788,222.8,23.684210526315788L0,23.684210526315788C0,23.684210526315788,0,23.684210526315788,0,23.684210526315788L0,0C0,0,0,0,0,0Z"/><g clip-path="url(#clip44)"><g class="mark-group role-scope" role="graphics-object" aria-roledescription="group mark container"><g transform="translate(0,0)"><path class="background" aria-hidden="true" d="M0,0h0v23.684210526315788h0Z"/><g><g class="mark-rect role-mark marks" role="graphics-object" aria-roledescription="rect mark container"><path aria-label="Erwerbstätige (in 1'000): 252; Bezeichnung: Gastgewerbe, Beherbergung" role="graphics-symbol" aria-roledescription="bar" d="M0,0h226.8v23.684210526315788h-226.8Z" fill="#3b82f6"/></g></g><path class="foreground" aria-hidden="true" d="" display="none"/></g></g></g><path class="foreground" aria-hidden="true" d="" display="none"/></g><g transform="translate(0,238.15789473684214)"><path class="background" aria-hidden="true" d="M0,0L212.9,0C215.107660097976,0,216.9,1.792339902024,216.9,4L216.9,19.684210526315788C216.9,21.891870624291787,215.107660097976,23.684210526315788,212.9,23.684210526315788L0,23.684210526315788C0,23.684210526315788,0,23.684210526315788,0,23.684210526315788L0,0C0,0,0,0,0,0Z"/><g clip-path="url(#clip45)"><g class="mark-group role-scope" role="graphics-object" aria-roledescription="group mark container"><g transform="translate(0,0)"><path class="background" aria-hidden="true" d="M0,0h0v23.684210526315788h0Z"/><g><g class="mark-rect role-mark marks" role="graphics-object" aria-roledescription="rect mark container"><path aria-label="Erwerbstätige (in 1'000): 241; Bezeichnung: Finanz-, Versicherungsdienstl." role="graphics-symbol" aria-roledescription="bar" d="M0,0h216.9v23.684210526315788h-216.9Z" fill="#3b82f6"/></g></g><path class="foreground" aria-hidden="true" d="" display="none"/></g></g></g><path class="foreground" aria-hidden="true" d="" display="none"/></g><g transform="translate(0,264.47368421052636)"><path class="background" aria-hidden="true" d="M0,0L181.4,0C183.607660097976,0,185.4,1.792339902024,185.4,4L185.4,19.684210526315788C185.4,21.891870624291787,183.607660097976,23.684210526315788,181.4,23.684210526315788L0,23.684210526315788C0,23.684210526315788,0,23.684210526315788,0,23.684210526315788L0,0C0,0,0,0,0,0Z"/><g clip-path="url(#clip46)"><g class="mark-group role-scope" role="graphics-object" aria-roledescription="group mark container"><g transform="translate(0,0)"><path class="background" aria-hidden="true" d="M0,0h0v23.684210526315788h0Z"/><g><g class="mark-rect role-mark marks" role="graphics-object" aria-roledescription="rect mark container"><path aria-label="Erwerbstätige (in 1'000): 206; Bezeichnung: Öffentliche Verwaltung" role="graphics-symbol" aria-roledescription="bar" d="M0,0h185.4v23.684210526315788h-185.4Z" fill="#3b82f6"/></g></g><path class="foreground" aria-hidden="true" d="" display="none"/></g></g></g><path class="foreground" aria-hidden="true" d="" display="none"/></g><g transform="translate(0,290.7894736842105)"><path class="background" aria-hidden="true" d="M0,0L169.7,0C171.907660097976,0,173.7,1.792339902024,173.7,4L173.7,19.684210526315788C173.7,21.891870624291787,171.907660097976,23.684210526315788,169.7,23.684210526315788L0,23.684210526315788C0,23.684210526315788,0,23.684210526315788,0,23.684210526315788L0,0C0,0,0,0,0,0Z"/><g clip-path="url(#clip47)"><g class="mark-group role-scope" role="graphics-object" aria-roledescription="group mark container"><g transform="translate(0,0)"><path class="background" aria-hidden="true" d="M0,0h0v23.684210526315788h0Z"/><g><g class="mark-rect role-mark marks" role="graphics-object" aria-roledescription="rect mark container"><path aria-label="Erwerbstätige (in 1'000): 193; Bezeichnung: Information, Kommunikation" role="graphics-symbol" aria-roledescription="bar" d="M0,0h173.7v23.684210526315788h-173.7Z" fill="#3b82f6"/></g></g><path class="foreground" aria-hidden="true" d="" display="none"/></g></g></g><path class="foreground" aria-hidden="true" d="" display="none"/></g><g transform="translate(0,317.1052631578948)"><path class="background" aria-hidden="true" d="M0,0L140.9,0C143.107660097976,0,144.9,1.792339902024,144.9,4L144.9,19.684210526315788C144.9,21.891870624291787,143.107660097976,23.684210526315788,140.9,23.684210526315788L0,23.684210526315788C0,23.684210526315788,0,23.684210526315788,0,23.684210526315788L0,0C0,0,0,0,0,0Z"/><g clip-path="url(#clip48)"><g class="mark-group role-scope" role="graphics-object" aria-roledescription="group mark container"><g transform="translate(0,0)"><path class="background" aria-hidden="true" d="M0,0h0v23.684210526315788h0Z"/><g><g class="mark-rect role-mark marks" role="graphics-object" aria-roledescription="rect mark container"><path aria-label="Erwerbstätige (in 1'000): 161; Bezeichnung: Sonstige Dienstleistungen" role="graphics-symbol" aria-roledescription="bar" d="M0,0h144.9v23.684210526315788h-144.9Z" fill="#3b82f6"/></g></g><path class="foreground" aria-hidden="true" d="" display="none"/></g></g></g><path class="foreground" aria-hidden="true" d="" display="none"/></g><g transform="translate(0,343.42105263157896)"><path class="background" aria-hidden="true" d="M0,0L108.5,0C110.707660097976,0,112.5,1.792339902024,112.5,4L112.5,19.684210526315788C112.5,21.891870624291787,110.707660097976,23.684210526315788,108.5,23.684210526315788L0,23.684210526315788C0,23.684210526315788,0,23.684210526315788,0,23.684210526315788L0,0C0,0,0,0,0,0Z"/><g clip-path="url(#clip49)"><g class="mark-group role-scope" role="graphics-object" aria-roledescription="group mark container"><g transform="translate(0,0)"><path class="background" aria-hidden="true" d="M0,0h0v23.684210526315788h0Z"/><g><g class="mark-rect role-mark marks" role="graphics-object" aria-roledescription="rect mark container"><path aria-label="Erwerbstätige (in 1'000): 125; Bezeichnung: Land- und Forstwirtschaft" role="graphics-symbol" aria-roledescription="bar" d="M0,0h112.5v23.684210526315788h-112.5Z" fill="#3b82f6"/></g></g><path class="foreground" aria-hidden="true" d="" display="none"/></g></g></g><path class="foreground" aria-hidden="true" d="" display="none"/></g><g transform="translate(0,369.7368421052631)"><path class="background" aria-hidden="true" d="M0,0L95.00000000000001,0C97.20766009797602,0,99.00000000000001,1.792339902024,99.00000000000001,4L99.00000000000001,19.684210526315788C99.00000000000001,21.891870624291787,97.20766009797602,23.684210526315788,95.00000000000001,23.684210526315788L0,23.684210526315788C0,23.684210526315788,0,23.684210526315788,0,23.684210526315788L0,0C0,0,0,0,0,0Z"/><g clip-path="url(#clip50)"><g class="mark-group role-scope" role="graphics-object" aria-roledescription="group mark container"><g transform="translate(0,0)"><path class="background" aria-hidden="true" d="M0,0h0v23.684210526315788h0Z"/><g><g class="mark-rect role-mark marks" role="graphics-object" aria-roledescription="rect mark container"><path aria-label="Erwerbstätige (in 1'000): 110; Bezeichnung: Kunst, Unterhaltung, Erholung" role="graphics-symbol" aria-roledescription="bar" d="M0,0h99.00000000000001v23.684210526315788h-99.00000000000001Z" fill="#3b82f6"/></g></g><path class="foreground" aria-hidden="true" d="" display="none"/></g></g></g><path class="foreground" aria-hidden="true" d="" display="none"/></g><g transform="translate(0,396.0526315789474)"><path class="background" aria-hidden="true" d="M0,0L67.10000000000001,0C69.30766009797601,0,71.10000000000001,1.792339902024,71.10000000000001,4L71.10000000000001,19.684210526315788C71.10000000000001,21.891870624291787,69.30766009797601,23.684210526315788,67.10000000000001,23.684210526315788L0,23.684210526315788C0,23.684210526315788,0,23.684210526315788,0,23.684210526315788L0,0C0,0,0,0,0,0Z"/><g clip-path="url(#clip51)"><g class="mark-group role-scope" role="graphics-object" aria-roledescription="group mark container"><g transform="translate(0,0)"><path class="background" aria-hidden="true" d="M0,0h0v23.684210526315788h0Z"/><g><g class="mark-rect role-mark marks" role="graphics-object" aria-roledescription="rect mark container"><path aria-label="Erwerbstätige (in 1'000): 79; Bezeichnung: Private Haushalte" role="graphics-symbol" aria-roledescription="bar" d="M0,0h71.10000000000001v23.684210526315788h-71.10000000000001Z" fill="#3b82f6"/></g></g><path class="foreground" aria-hidden="true" d="" display="none"/></g></g></g><path class="foreground" aria-hidden="true" d="" display="none"/></g><g transform="translate(0,422.36842105263156)"><path class="background" aria-hidden="true" d="M0,0L58.099999999999994,0C60.307660097976,0,62.099999999999994,1.792339902024,62.099999999999994,4L62.099999999999994,19.684210526315788C62.099999999999994,21.891870624291787,60.307660097976,23.684210526315788,58.099999999999994,23.684210526315788L0,23.684210526315788C0,23.684210526315788,0,23.684210526315788,0,23.684210526315788L0,0C0,0,0,0,0,0Z"/><g clip-path="url(#clip52)"><g class="mark-group role-scope" role="graphics-object" aria-roledescription="group mark container"><g transform="translate(0,0)"><path class="background" aria-hidden="true" d="M0,0h0v23.684210526315788h0Z"/><g><g class="mark-rect role-mark marks" role="graphics-object" aria-roledescription="rect mark container"><path aria-label="Erwerbstätige (in 1'000): 69; Bezeichnung: Grundstücks-, Wohnungswesen" role="graphics-symbol" aria-roledescription="bar" d="M0,0h62.099999999999994v23.684210526315788h-62.099999999999994Z" fill="#3b82f6"/></g></g><path class="foreground" aria-hidden="true" d="" display="none"/></g></g></g><path class="foreground" aria-hidden="true" d="" display="none"/></g><g transform="translate(0,448.68421052631584)"><path class="background" aria-hidden="true" d="M0,0L24.8,0C27.007660097976,0,28.8,1.792339902024,28.8,4L28.8,19.684210526315788C28.8,21.891870624291787,27.007660097976,23.684210526315788,24.8,23.684210526315788L0,23.684210526315788C0,23.684210526315788,0,23.684210526315788,0,23.684210526315788L0,0C0,0,0,0,0,0Z"/><g clip-path="url(#clip53)"><g class="mark-group role-scope" role="graphics-object" aria-roledescription="group mark container"><g transform="translate(0,0)"><path class="background" aria-hidden="true" d="M0,0h0v23.684210526315788h0Z"/><g><g class="mark-rect role-mark marks" role="graphics-object" aria-roledescription="rect mark container"><path aria-label="Erwerbstätige (in 1'000): 32; Bezeichnung: Energieversorgung" role="graphics-symbol" aria-roledescription="bar" d="M0,0h28.8v23.684210526315788h-28.8Z" fill="#3b82f6"/></g></g><path class="foreground" aria-hidden="true" d="" display="none"/></g></g></g><path class="foreground" aria-hidden="true" d="" display="none"/></g><g transform="translate(0,475)"><path class="background" aria-hidden="true" d="M0,0L14.899999999999999,0C17.107660097975998,0,18.9,1.792339902024,18.9,4L18.9,19.684210526315788C18.9,21.891870624291787,17.107660097975998,23.684210526315788,14.899999999999999,23.684210526315788L0,23.684210526315788C0,23.684210526315788,0,23.684210526315788,0,23.684210526315788L0,0C0,0,0,0,0,0Z"/><g clip-path="url(#clip54)"><g class="mark-group role-scope" role="graphics-object" aria-roledescription="group mark container"><g transform="translate(0,0)"><path class="background" aria-hidden="true" d="M0,0h0v23.684210526315788h0Z"/><g><g class="mark-rect role-mark marks" role="graphics-object" aria-roledescription="rect mark container"><path aria-label="Erwerbstätige (in 1'000): 21; Bezeichnung: Wasserversorgung, Entsorgung" role="graphics-symbol" aria-roledescription="bar" d="M0,0h18.9v23.684210526315788h-18.9Z" fill="#3b82f6"/></g></g><path class="foreground" aria-hidden="true" d="" display="none"/></g></g></g><path class="foreground" aria-hidden="true" d="" display="none"/></g></g><g class="mark-group role-title"><g transform="translate(360,-17)"><path class="background" aria-hidden="true" d="M0,0h0v0h0Z" pointer-events="none"/><g><g class="mark-text role-title-text" role="graphics-symbol" aria-roledescription="title" aria-label="Title text 'Erwerbstätige nach Wirtschaftsabschnitt (2024, in Tsd.)'" pointer-events="none"><text text-anchor="middle" transform="translate(0,10)" font-family="Switzer, system-ui, sans-serif" font-size="13px" font-weight="bold" fill="#000" opacity="1">Erwerbstätige nach Wirtschaftsabschnitt (2024, in Tsd.)</text></g></g><path class="foreground" aria-hidden="true" d="" pointer-events="none" display="none"/></g></g></g><path class="foreground" aria-hidden="true" d="" display="none"/></g></g></g><defs><clipPath id="clip36"><path d="M0,0L706.1,0C708.307660097976,0,710.1,1.792339902024,710.1,4L710.1,19.684210526315788C710.1,21.891870624291787,708.307660097976,23.684210526315788,706.1,23.684210526315788L0,23.684210526315788C0,23.684210526315788,0,23.684210526315788,0,23.684210526315788L0,0C0,0,0,0,0,0Z"/></clipPath><clipPath id="clip37"><path d="M0,0L588.2,0C590.4076600979761,0,592.2,1.792339902024,592.2,4L592.2,19.684210526315788C592.2,21.891870624291787,590.4076600979761,23.684210526315788,588.2,23.684210526315788L0,23.684210526315788C0,23.684210526315788,0,23.684210526315788,0,23.684210526315788L0,0C0,0,0,0,0,0Z"/></clipPath><clipPath id="clip38"><path d="M0,0L528.8,0C531.007660097976,0,532.8,1.792339902024,532.8,4L532.8,19.684210526315788C532.8,21.891870624291787,531.007660097976,23.684210526315788,528.8,23.684210526315788L0,23.684210526315788C0,23.684210526315788,0,23.684210526315788,0,23.684210526315788L0,0C0,0,0,0,0,0Z"/></clipPath><clipPath id="clip39"><path d="M0,0L415.40000000000003,0C417.607660097976,0,419.40000000000003,1.792339902024,419.40000000000003,4L419.40000000000003,19.684210526315788C419.40000000000003,21.891870624291787,417.607660097976,23.684210526315788,415.40000000000003,23.684210526315788L0,23.684210526315788C0,23.684210526315788,0,23.684210526315788,0,23.684210526315788L0,0C0,0,0,0,0,0Z"/></clipPath><clipPath id="clip40"><path d="M0,0L343.4,0C345.60766009797595,0,347.4,1.792339902024,347.4,4L347.4,19.684210526315788C347.4,21.891870624291787,345.60766009797595,23.684210526315788,343.4,23.684210526315788L0,23.684210526315788C0,23.684210526315788,0,23.684210526315788,0,23.684210526315788L0,0C0,0,0,0,0,0Z"/></clipPath><clipPath id="clip41"><path d="M0,0L317.3,0C319.507660097976,0,321.3,1.792339902024,321.3,4L321.3,19.684210526315788C321.3,21.891870624291787,319.507660097976,23.684210526315788,317.3,23.684210526315788L0,23.684210526315788C0,23.684210526315788,0,23.684210526315788,0,23.684210526315788L0,0C0,0,0,0,0,0Z"/></clipPath><clipPath id="clip42"><path d="M0,0L311.9,0C314.10766009797595,0,315.9,1.792339902024,315.9,4L315.9,19.684210526315788C315.9,21.891870624291787,314.10766009797595,23.684210526315788,311.9,23.684210526315788L0,23.684210526315788C0,23.684210526315788,0,23.684210526315788,0,23.684210526315788L0,0C0,0,0,0,0,0Z"/></clipPath><clipPath id="clip43"><path d="M0,0L223.7,0C225.907660097976,0,227.7,1.792339902024,227.7,4L227.7,19.684210526315788C227.7,21.891870624291787,225.907660097976,23.684210526315788,223.7,23.684210526315788L0,23.684210526315788C0,23.684210526315788,0,23.684210526315788,0,23.684210526315788L0,0C0,0,0,0,0,0Z"/></clipPath><clipPath id="clip44"><path d="M0,0L222.8,0C225.00766009797601,0,226.8,1.792339902024,226.8,4L226.8,19.684210526315788C226.8,21.891870624291787,225.00766009797601,23.684210526315788,222.8,23.684210526315788L0,23.684210526315788C0,23.684210526315788,0,23.684210526315788,0,23.684210526315788L0,0C0,0,0,0,0,0Z"/></clipPath><clipPath id="clip45"><path d="M0,0L212.9,0C215.107660097976,0,216.9,1.792339902024,216.9,4L216.9,19.684210526315788C216.9,21.891870624291787,215.107660097976,23.684210526315788,212.9,23.684210526315788L0,23.684210526315788C0,23.684210526315788,0,23.684210526315788,0,23.684210526315788L0,0C0,0,0,0,0,0Z"/></clipPath><clipPath id="clip46"><path d="M0,0L181.4,0C183.607660097976,0,185.4,1.792339902024,185.4,4L185.4,19.684210526315788C185.4,21.891870624291787,183.607660097976,23.684210526315788,181.4,23.684210526315788L0,23.684210526315788C0,23.684210526315788,0,23.684210526315788,0,23.684210526315788L0,0C0,0,0,0,0,0Z"/></clipPath><clipPath id="clip47"><path d="M0,0L169.7,0C171.907660097976,0,173.7,1.792339902024,173.7,4L173.7,19.684210526315788C173.7,21.891870624291787,171.907660097976,23.684210526315788,169.7,23.684210526315788L0,23.684210526315788C0,23.684210526315788,0,23.684210526315788,0,23.684210526315788L0,0C0,0,0,0,0,0Z"/></clipPath><clipPath id="clip48"><path d="M0,0L140.9,0C143.107660097976,0,144.9,1.792339902024,144.9,4L144.9,19.684210526315788C144.9,21.891870624291787,143.107660097976,23.684210526315788,140.9,23.684210526315788L0,23.684210526315788C0,23.684210526315788,0,23.684210526315788,0,23.684210526315788L0,0C0,0,0,0,0,0Z"/></clipPath><clipPath id="clip49"><path d="M0,0L108.5,0C110.707660097976,0,112.5,1.792339902024,112.5,4L112.5,19.684210526315788C112.5,21.891870624291787,110.707660097976,23.684210526315788,108.5,23.684210526315788L0,23.684210526315788C0,23.684210526315788,0,23.684210526315788,0,23.684210526315788L0,0C0,0,0,0,0,0Z"/></clipPath><clipPath id="clip50"><path d="M0,0L95.00000000000001,0C97.20766009797602,0,99.00000000000001,1.792339902024,99.00000000000001,4L99.00000000000001,19.684210526315788C99.00000000000001,21.891870624291787,97.20766009797602,23.684210526315788,95.00000000000001,23.684210526315788L0,23.684210526315788C0,23.684210526315788,0,23.684210526315788,0,23.684210526315788L0,0C0,0,0,0,0,0Z"/></clipPath><clipPath id="clip51"><path d="M0,0L67.10000000000001,0C69.30766009797601,0,71.10000000000001,1.792339902024,71.10000000000001,4L71.10000000000001,19.684210526315788C71.10000000000001,21.891870624291787,69.30766009797601,23.684210526315788,67.10000000000001,23.684210526315788L0,23.684210526315788C0,23.684210526315788,0,23.684210526315788,0,23.684210526315788L0,0C0,0,0,0,0,0Z"/></clipPath><clipPath id="clip52"><path d="M0,0L58.099999999999994,0C60.307660097976,0,62.099999999999994,1.792339902024,62.099999999999994,4L62.099999999999994,19.684210526315788C62.099999999999994,21.891870624291787,60.307660097976,23.684210526315788,58.099999999999994,23.684210526315788L0,23.684210526315788C0,23.684210526315788,0,23.684210526315788,0,23.684210526315788L0,0C0,0,0,0,0,0Z"/></clipPath><clipPath id="clip53"><path d="M0,0L24.8,0C27.007660097976,0,28.8,1.792339902024,28.8,4L28.8,19.684210526315788C28.8,21.891870624291787,27.007660097976,23.684210526315788,24.8,23.684210526315788L0,23.684210526315788C0,23.684210526315788,0,23.684210526315788,0,23.684210526315788L0,0C0,0,0,0,0,0Z"/></clipPath><clipPath id="clip54"><path d="M0,0L14.899999999999999,0C17.107660097975998,0,18.9,1.792339902024,18.9,4L18.9,19.684210526315788C18.9,21.891870624291787,17.107660097975998,23.684210526315788,14.899999999999999,23.684210526315788L0,23.684210526315788C0,23.684210526315788,0,23.684210526315788,0,23.684210526315788L0,0C0,0,0,0,0,0Z"/></clipPath></defs></svg>