<svg xmlns="http://www.w3.org/2000/svg" xmlns:xlink="http://www.w3.org/1999/xlink" version="1.1" class="marks" width="813" height="409" viewBox="0 0 813 409"><rect width="813" height="409" fill="white"/><g fill="none" stroke-miterlimit="10" transform="translate(87,22)"><g class="mark-group role-frame root" role="graphics-object" aria-roledescription="group mark container"><g transform="translate(0,0)"><path class="background" aria-hidden="true" d="M0.5,0.5h720v350h-720Z"/><g><g class="mark-group role-axis" aria-hidden="true"><g transform="translate(0.5,350.5)"><path class="background" aria-hidden="true" d="M0,0h0v0h0Z" pointer-events="none"/><g><g class="mark-rule role-axis-grid" pointer-events="none"><line transform="translate(0,0)" x2="0" y2="-350" stroke="#ddd" stroke-width="1" opacity="1"/><line transform="translate(36,0)" x2="0" y2="-350" stroke="#ddd" stroke-width="1" opacity="1"/><line transform="translate(72,0)" x2="0" y2="-350" stroke="#ddd" stroke-width="1" opacity="1"/><line transform="translate(108,0)" x2="0" y2="-350" stroke="#ddd" stroke-width="1" opacity="1"/><line transform="translate(144,0)" x2="0" y2="-350" stroke="#ddd" stroke-width="1" opacity="1"/><line transform="translate(180,0)" x2="0" y2="-350" stroke="#ddd" stroke-width="1" opacity="1"/><line transform="translate(216,0)" x2="0" y2="-350" stroke="#ddd" stroke-width="1" opacity="1"/><line transform="translate(252,0)" x2="0" y2="-350" stroke="#ddd" stroke-width="1" opacity="1"/><line transform="translate(288,0)" x2="0" y2="-350" stroke="#ddd" stroke-width="1" opacity="1"/><line transform="translate(324,0)" x2="0" y2="-350" stroke="#ddd" stroke-width="1" opacity="1"/><line transform="translate(360,0)" x2="0" y2="-350" stroke="#ddd" stroke-width="1" opacity="1"/><line transform="translate(396,0)" x2="0" y2="-350" stroke="#ddd" stroke-width="1" opacity="1"/><line transform="translate(432,0)" x2="0" y2="-350" stroke="#ddd" stroke-width="1" opacity="1"/><line transform="translate(468,0)" x2="0" y2="-350" stroke="#ddd" stroke-width="1" opacity="1"/><line transform="translate(504,0)" x2="0" y2="-350" stroke="#ddd" stroke-width="1" opacity="1"/><line transform="translate(540,0)" x2="0" y2="-350" stroke="#ddd" stroke-width="1" opacity="1"/><line transform="translate(576,0)" x2="0" y2="-350" stroke="#ddd" stroke-width="1" opacity="1"/><line transform="translate(612,0)" x2="0" y2="-350" stroke="#ddd" stroke-width="1" opacity="1"/><line transform="translate(648,0)" x2="0" y2="-350" stroke="#ddd" stroke-width="1" opacity="1"/><line transform="translate(684,0)" x2="0" y2="-350" stroke="#ddd" stroke-width="1" opacity="1"/><line transform="translate(720,0)" x2="0" y2="-350" stroke="#ddd" stroke-width="1" opacity="1"/></g></g><path class="foreground" aria-hidden="true" d="" pointer-events="none" display="none"/></g></g><g class="mark-group role-axis" role="graphics-symbol" aria-roledescription="axis" aria-label="X-axis titled 'Reifegrad-Score (%)' for a linear scale with values from 0 to 100"><g transform="translate(0.5,350.5)"><path class="background" aria-hidden="true" d="M0,0h0v0h0Z" pointer-events="none"/><g><g class="mark-rule role-axis-tick" pointer-events="none"><line transform="translate(0,0)" x2="0" y2="5" stroke="#888" stroke-width="1" opacity="1"/><line transform="translate(36,0)" x2="0" y2="5" stroke="#888" stroke-width="1" opacity="1"/><line transform="translate(72,0)" x2="0" y2="5" stroke="#888" stroke-width="1" opacity="1"/><line transform="translate(108,0)" x2="0" y2="5" stroke="#888" stroke-width="1" opacity="1"/><line transform="translate(144,0)" x2="0" y2="5" stroke="#888" stroke-width="1" opacity="1"/><line transform="translate(180,0)" x2="0" y2="5" stroke="#888" stroke-width="1" opacity="1"/><line transform="translate(216,0)" x2="0" y2="5" stroke="#888" stroke-width="1" opacity="1"/><line transform="translate(252,0)" x2="0" y2="5" stroke="#888" stroke-width="1" opacity="1"/><line transform="translate(288,0)" x2="0" y2="5" stroke="#888" stroke-width="1" opacity="1"/><line transform="translate(324,0)" x2="0" y2="5" stroke="#888" stroke-width="1" opacity="1"/><line transform="translate(360,0)" x2="0" y2="5" stroke="#888" stroke-width="1" opacity="1"/><line transform="translate(396,0)" x2="0" y2="5" stroke="#888" stroke-width="1" opacity="1"/><line transform="translate(432,0)" x2="0" y2="5" stroke="#888" stroke-width="1" opacity="1"/><line transform="translate(468,0)" x2="0" y2="5" stroke="#888" stroke-width="1" opacity="1"/><line transform="translate(504,0)" x2="0" y2="5" stroke="#888" stroke-width="1" opacity="1"/><line transform="translate(540,0)" x2="0" y2="5" stroke="#888" stroke-width="1" opacity="1"/><line transform="translate(576,0)" x2="0" y2="5" stroke="#888" stroke-width="1" opacity="1"/><line transform="translate(612,0)" x2="0" y2="5" stroke="#888" stroke-width="1" opacity="1"/><line transform="translate(648,0)" x2="0" y2="5" stroke="#888" stroke-width="1" opacity="1"/><line transform="translate(684,0)" x2="0" y2="5" stroke="#888" stroke-width="1" opacity="1"/><line transform="translate(720,0)" x2="0" y2="5" stroke="#888" stroke-width="1" opacity="1"/></g><g class="mark-text role-axis-label" pointer-events="none"><text text-anchor="start" transform="translate(0,15)" font-family="Switzer, system-ui, sans-serif" font-size="10px" fill="#000" opacity="1">0</text><text text-anchor="middle" transform="translate(36,15)" font-family="Switzer, system-ui, sans-serif" font-size="10px" fill="#000" opacity="1">5</text><text text-anchor="middle" transform="translate(72,15)" font-family="Switzer, system-ui, sans-serif" font-size="10px" fill="#000" opacity="1">10</text><text text-anchor="middle" transform="translate(108,15)" font-family="Switzer, system-ui, sans-serif" font-size="10px" fill="#000" opacity="1">15</text><text text-anchor="middle" transform="translate(144,15)" font-family="Switzer, system-ui, sans-serif" font-size="10px" fill="#000" opacity="1">20</text><text text-anchor="middle" transform="translate(180,15)" font-family="Switzer, system-ui, sans-serif" font-size="10px" fill="#000" opacity="1">25</text><text text-anchor="middle" transform="translate(216,15)" font-family="Switzer, system-ui, sans-serif" font-size="10px" fill="#000" opacity="1">30</text><text text-anchor="middle" transform="translate(251.99999999999997,15)" font-family="Switzer, system-ui, sans-serif" font-size="10px" fill="#000" opacity="1">35</text><text text-anchor="middle" transform="translate(288,15)" font-family="Switzer, system-ui, sans-serif" font-size="10px" fill="#000" opacity="1">40</text><text text-anchor="middle" transform="translate(324,15)" font-family="Switzer, system-ui, sans-serif" font-size="10px" fill="#000" opacity="1">45</text><text text-anchor="middle" transform="translate(360,15)" font-family="Switzer, system-ui, sans-serif" font-size="10px" fill="#000" opacity="1">50</text><text text-anchor="middle" transform="translate(396.00000000000006,15)" font-family="Switzer, system-ui, sans-serif" font-size="10px" fill="#000" opacity="1">55</text><text text-anchor="middle" transform="translate(432,15)" font-family="Switzer, system-ui, sans-serif" font-size="10px" fill="#000" opacity="1">60</text><text text-anchor="middle" transform="translate(468,15)" font-family="Switzer, system-ui, sans-serif" font-size="10px" fill="#000" opacity="1">65</text><text text-anchor="middle" transform="translate(503.99999999999994,15)" font-family="Switzer, system-ui, sans-serif" font-size="10px" fill="#000" opacity="1">70</text><text text-anchor="middle" transform="translate(540,15)" font-family="Switzer, system-ui, sans-serif" font-size="10px" fill="#000" opacity="1">75</text><text text-anchor="middle" transform="translate(576,15)" font-family="Switzer, system-ui, sans-serif" font-size="10px" fill="#000" opacity="1">80</text><text text-anchor="middle" transform="translate(612,15)" font-family="Switzer, system-ui, sans-serif" font-size="10px" fill="#000" opacity="1">85</text><text text-anchor="middle" transform="translate(648,15)" font-family="Switzer, system-ui, sans-serif" font-size="10px" fill="#000" opacity="1">90</text><text text-anchor="middle" transform="translate(684,15)" font-family="Switzer, system-ui, sans-serif" font-size="10px" fill="#000" opacity="1">95</text><text text-anchor="end" transform="translate(720,15)" font-family="Switzer, system-ui, sans-serif" font-size="10px" fill="#000" opacity="1">100</text></g><g class="mark-rule role-axis-domain" pointer-events="none"><line transform="translate(0,0)" x2="720" y2="0" stroke="#888" stroke-width="1" opacity="1"/></g><g class="mark-text role-axis-title" pointer-events="none"><text text-anchor="middle" transform="translate(360,30)" font-family="Switzer, system-ui, sans-serif" font-size="11px" font-weight="bold" fill="#000" opacity="1">Reifegrad-Score (%)</text></g></g><path class="foreground" aria-hidden="true" d="" pointer-events="none" display="none"/></g></g><g class="mark-group role-axis" role="graphics-symbol" aria-roledescription="axis" aria-label="Y-axis for a discrete scale with 8 values: Frankreich, Irland, Spanien, Estland, Österreich, ending with Schweiz"><g transform="translate(0.5,0.5)"><path class="background" aria-hidden="true" d="M0,0h0v0h0Z" pointer-events="none"/><g><g class="mark-rule role-axis-tick" pointer-events="none"><line transform="translate(0,21)" x2="-5" y2="0" stroke="#888" stroke-width="1" opacity="1"/><line transform="translate(0,65)" x2="-5" y2="0" stroke="#888" stroke-width="1" opacity="1"/><line transform="translate(0,109)" x2="-5" y2="0" stroke="#888" stroke-width="1" opacity="1"/><line transform="translate(0,153)" x2="-5" y2="0" stroke="#888" stroke-width="1" opacity="1"/><line transform="translate(0,196)" x2="-5" y2="0" stroke="#888" stroke-width="1" opacity="1"/><line transform="translate(0,240)" x2="-5" y2="0" stroke="#888" stroke-width="1" opacity="1"/><line transform="translate(0,284)" x2="-5" y2="0" stroke="#888" stroke-width="1" opacity="1"/><line transform="translate(0,328)" x2="-5" y2="0" stroke="#888" stroke-width="1" opacity="1"/></g><g class="mark-text role-axis-label" pointer-events="none"><text text-anchor="end" transform="translate(-7,24.375)" font-family="Switzer, system-ui, sans-serif" font-size="10px" fill="#000" opacity="1">Frankreich</text><text text-anchor="end" transform="translate(-7,68.125)" font-family="Switzer, system-ui, sans-serif" font-size="10px" fill="#000" opacity="1">Irland</text><text text-anchor="end" transform="translate(-7,111.875)" font-family="Switzer, system-ui, sans-serif" font-size="10px" fill="#000" opacity="1">Spanien</text><text text-anchor="end" transform="translate(-7,155.625)" font-family="Switzer, system-ui, sans-serif" font-size="10px" fill="#000" opacity="1">Estland</text><text text-anchor="end" transform="translate(-7,199.375)" font-family="Switzer, system-ui, sans-serif" font-size="10px" fill="#000" opacity="1">Österreich</text><text text-anchor="end" transform="translate(-7,243.125)" font-family="Switzer, system-ui, sans-serif" font-size="10px" fill="#000" opacity="1">EU-Durchschnitt</text><text text-anchor="end" transform="translate(-7,286.875)" font-family="Switzer, system-ui, sans-serif" font-size="10px" fill="#000" opacity="1">Deutschland</text><text text-anchor="end" transform="translate(-7,330.625)" font-family="Switzer, system-ui, sans-serif" font-size="10px" fill="#000" opacity="1">Schweiz</text></g><g class="mark-rule role-axis-domain" pointer-events="none"><line transform="translate(0,0)" x2="0" y2="350" stroke="#888" stroke-width="1" opacity="1"/></g></g><path class="foreground" aria-hidden="true" d="" pointer-events="none" display="none"/></g></g><g class="mark-group role-scope" role="graphics-object" aria-roledescription="group mark container"><g transform="translate(0,2.1875)"><path class="background" aria-hidden="true" d="M0,0L680,0C682.207660097976,0,684,1.792339902024,684,4L684,35.375C684,37.582660097976,682.207660097976,39.375,680,39.375L0,39.375C0,39.375,0,39.375,0,39.375L0,0C0,0,0,0,0,0Z"/><g clip-path="url(#clip50)"><g class="mark-group role-scope" role="graphics-object" aria-roledescription="group mark container"><g transform="translate(0,0)"><path class="background" aria-hidden="true" d="M0,0h0v39.375h0Z"/><g><g class="mark-rect role-mark marks" role="graphics-object" aria-roledescription="rect mark container"><path aria-label="Reifegrad-Score (%): 95; Land: Frankreich" role="graphics-symbol" aria-roledescription="bar" d="M0,0h684v39.375h-684Z" fill="#3b82f6"/></g></g><path class="foreground" aria-hidden="true" d="" display="none"/></g></g></g><path class="foreground" aria-hidden="true" d="" display="none"/></g><g transform="translate(0,45.9375)"><path class="background" aria-hidden="true" d="M0,0L665.6,0C667.807660097976,0,669.6,1.792339902024,669.6,4L669.6,35.375C669.6,37.582660097976,667.807660097976,39.375,665.6,39.375L0,39.375C0,39.375,0,39.375,0,39.375L0,0C0,0,0,0,0,0Z"/><g clip-path="url(#clip51)"><g class="mark-group role-scope" role="graphics-object" aria-roledescription="group mark container"><g transform="translate(0,0)"><path class="background" aria-hidden="true" d="M0,0h0v39.375h0Z"/><g><g class="mark-rect role-mark marks" role="graphics-object" aria-roledescription="rect mark container"><path aria-label="Reifegrad-Score (%): 93; Land: Irland" role="graphics-symbol" aria-roledescription="bar" d="M0,0h669.6v39.375h-669.6Z" fill="#06b6d4"/></g></g><path class="foreground" aria-hidden="true" d="" display="none"/></g></g></g><path class="foreground" aria-hidden="true" d="" display="none"/></g><g transform="translate(0,89.6875)"><path class="background" aria-hidden="true" d="M0,0L651.2,0C653.4076600979761,0,655.2,1.792339902024,655.2,4L655.2,35.375C655.2,37.582660097976,653.4076600979761,39.375,651.2,39.375L0,39.375C0,39.375,0,39.375,0,39.375L0,0C0,0,0,0,0,0Z"/><g clip-path="url(#clip52)"><g class="mark-group role-scope" role="graphics-object" aria-roledescription="group mark container"><g transform="translate(0,0)"><path class="background" aria-hidden="true" d="M0,0h0v39.375h0Z"/><g><g class="mark-rect role-mark marks" role="graphics-object" aria-roledescription="rect mark container"><path aria-label="Reifegrad-Score (%): 91; Land: Spanien" role="graphics-symbol" aria-roledescription="bar" d="M0,0h655.2v39.375h-655.2Z" fill="#f59e0b"/></g></g><path class="foreground" aria-hidden="true" d="" display="none"/></g></g></g><path class="foreground" aria-hidden="true" d="" display="none"/></g><g transform="translate(0,133.4375)"><path class="background" aria-hidden="true" d="M0,0L629.6,0C631.807660097976,0,633.6,1.792339902024,633.6,4L633.6,35.375C633.6,37.582660097976,631.807660097976,39.375,629.6,39.375L0,39.375C0,39.375,0,39.375,0,39.375L0,0C0,0,0,0,0,0Z"/><g clip-path="url(#clip53)"><g class="mark-group role-scope" role="graphics-object" aria-roledescription="group mark container"><g transform="translate(0,0)"><path class="background" aria-hidden="true" d="M0,0h0v39.375h0Z"/><g><g class="mark-rect role-mark marks" role="graphics-object" aria-roledescription="rect mark container"><path aria-label="Reifegrad-Score (%): 88; Land: Estland" role="graphics-symbol" aria-roledescription="bar" d="M0,0h633.6v39.375h-633.6Z" fill="#10b981"/></g></g><path class="foreground" aria-hidden="true" d="" display="none"/></g></g></g><path class="foreground" aria-hidden="true" d="" display="none"/></g><g transform="translate(0,177.1875)"><path class="background" aria-hidden="true" d="M0,0L586.4,0C588.607660097976,0,590.4,1.792339902024,590.4,4L590.4,35.375C590.4,37.582660097976,588.607660097976,39.375,586.4,39.375L0,39.375C0,39.375,0,39.375,0,39.375L0,0C0,0,0,0,0,0Z"/><g clip-path="url(#clip54)"><g class="mark-group role-scope" role="graphics-object" aria-roledescription="group mark container"><g transform="translate(0,0)"><path class="background" aria-hidden="true" d="M0,0h0v39.375h0Z"/><g><g class="mark-rect role-mark marks" role="graphics-object" aria-roledescription="rect mark container"><path aria-label="Reifegrad-Score (%): 82; Land: Österreich" role="graphics-symbol" aria-roledescription="bar" d="M0,0h590.4v39.375h-590.4Z" fill="#8b5cf6"/></g></g><path class="foreground" aria-hidden="true" d="" display="none"/></g></g></g><path class="foreground" aria-hidden="true" d="" display="none"/></g><g transform="translate(0,220.9375)"><path class="background" aria-hidden="true" d="M0,0L564.8000000000001,0C567.0076600979761,0,568.8000000000001,1.792339902024,568.8000000000001,4L568.8000000000001,35.375C568.8000000000001,37.582660097976,567.0076600979761,39.375,564.8000000000001,39.375L0,39.375C0,39.375,0,39.375,0,39.375L0,0C0,0,0,0,0,0Z"/><g clip-path="url(#clip55)"><g class="mark-group role-scope" role="graphics-object" aria-roledescription="group mark container"><g transform="translate(0,0)"><path class="background" aria-hidden="true" d="M0,0h0v39.375h0Z"/><g><g class="mark-rect role-mark marks" role="graphics-object" aria-roledescription="rect mark container"><path aria-label="Reifegrad-Score (%): 79; Land: EU-Durchschnitt" role="graphics-symbol" aria-roledescription="bar" d="M0,0h568.8000000000001v39.375h-568.8000000000001Z" fill="#6b7280"/></g></g><path class="foreground" aria-hidden="true" d="" display="none"/></g></g></g><path class="foreground" aria-hidden="true" d="" display="none"/></g><g transform="translate(0,264.6875)"><path class="background" aria-hidden="true" d="M0,0L557.6,0C559.807660097976,0,561.6,1.792339902024,561.6,4L561.6,35.375C561.6,37.582660097976,559.807660097976,39.375,557.6,39.375L0,39.375C0,39.375,0,39.375,0,39.375L0,0C0,0,0,0,0,0Z"/><g clip-path="url(#clip56)"><g class="mark-group role-scope" role="graphics-object" aria-roledescription="group mark container"><g transform="translate(0,0)"><path class="background" aria-hidden="true" d="M0,0h0v39.375h0Z"/><g><g class="mark-rect role-mark marks" role="graphics-object" aria-roledescription="rect mark container"><path aria-label="Reifegrad-Score (%): 78; Land: Deutschland" role="graphics-symbol" aria-roledescription="bar" d="M0,0h561.6v39.375h-561.6Z" fill="#ef4444"/></g></g><path class="foreground" aria-hidden="true" d="" display="none"/></g></g></g><path class="foreground" aria-hidden="true" d="" display="none"/></g><g transform="translate(0,308.4375)"><path class="background" aria-hidden="true" d="M0,0L464,0C466.207660097976,0,468,1.792339902024,468,4L468,35.375C468,37.582660097976,466.207660097976,39.375,464,39.375L0,39.375C0,39.375,0,39.375,0,39.375L0,0C0,0,0,0,0,0Z"/><g clip-path="url(#clip57)"><g class="mark-group role-scope" role="graphics-object" aria-roledescription="group mark container"><g transform="translate(0,0)"><path class="background" aria-hidden="true" d="M0,0h0v39.375h0Z"/><g><g class="mark-rect role-mark marks" role="graphics-object" aria-roledescription="rect mark container"><path aria-label="Reifegrad-Score (%): 65; Land: Schweiz" role="graphics-symbol" aria-roledescription="bar" d="M0,0h468v39.375h-468Z" fill="#a855f7"/></g></g><path class="foreground" aria-hidden="true" d="" display="none"/></g></g></g><path class="foreground" aria-hidden="true" d="" display="none"/></g></g><g class="mark-group role-title"><g transform="translate(360,-17)"><path class="background" aria-hidden="true" d="M0,0h0v0h0Z" pointer-events="none"/><g><g class="mark-text role-title-text" role="graphics-symbol" aria-roledescription="title" aria-label="Title text 'Open-Data-Reife im Vergleich (EU Open Data Maturity 2023)'" pointer-events="none"><text text-anchor="middle" transform="translate(0,10)" font-family="Switzer, system-ui, sans-serif" font-size="13px" font-weight="bold" fill="#000" opacity="1">Open-Data-Reife im Vergleich (EU Open Data Maturity 2023)</text></g></g><path class="foreground" aria-hidden="true" d="" pointer-events="none" display="none"/></g></g></g><path class="foreground" aria-hidden="true" d="" display="none"/></g></g></g><defs><clipPath id="clip50"><path d="M0,0L680,0C682.207660097976,0,684,1.792339902024,684,4L684,35.375C684,37.582660097976,682.207660097976,39.375,680,39.375L0,39.375C0,39.375,0,39.375,0,39.375L0,0C0,0,0,0,0,0Z"/></clipPath><clipPath id="clip51"><path d="M0,0L665.6,0C667.807660097976,0,669.6,1.792339902024,669.6,4L669.6,35.375C669.6,37.582660097976,667.807660097976,39.375,665.6,39.375L0,39.375C0,39.375,0,39.375,0,39.375L0,0C0,0,0,0,0,0Z"/></clipPath><clipPath id="clip52"><path d="M0,0L651.2,0C653.4076600979761,0,655.2,1.792339902024,655.2,4L655.2,35.375C655.2,37.582660097976,653.4076600979761,39.375,651.2,39.375L0,39.375C0,39.375,0,39.375,0,39.375L0,0C0,0,0,0,0,0Z"/></clipPath><clipPath id="clip53"><path d="M0,0L629.6,0C631.807660097976,0,633.6,1.792339902024,633.6,4L633.6,35.375C633.6,37.582660097976,631.807660097976,39.375,629.6,39.375L0,39.375C0,39.375,0,39.375,0,39.375L0,0C0,0,0,0,0,0Z"/></clipPath><clipPath id="clip54"><path d="M0,0L586.4,0C588.607660097976,0,590.4,1.792339902024,590.4,4L590.4,35.375C590.4,37.582660097976,588.607660097976,39.375,586.4,39.375L0,39.375C0,39.375,0,39.375,0,39.375L0,0C0,0,0,0,0,0Z"/></clipPath><clipPath id="clip55"><path d="M0,0L564.8000000000001,0C567.0076600979761,0,568.8000000000001,1.792339902024,568.8000000000001,4L568.8000000000001,35.375C568.8000000000001,37.582660097976,567.0076600979761,39.375,564.8000000000001,39.375L0,39.375C0,39.375,0,39.375,0,39.375L0,0C0,0,0,0,0,0Z"/></clipPath><clipPath id="clip56"><path d="M0,0L557.6,0C559.807660097976,0,561.6,1.792339902024,561.6,4L561.6,35.375C561.6,37.582660097976,559.807660097976,39.375,557.6,39.375L0,39.375C0,39.375,0,39.375,0,39.375L0,0C0,0,0,0,0,0Z"/></clipPath><clipPath id="clip57"><path d="M0,0L464,0C466.207660097976,0,468,1.792339902024,468,4L468,35.375C468,37.582660097976,466.207660097976,39.375,464,39.375L0,39.375C0,39.375,0,39.375,0,39.375L0,0C0,0,0,0,0,0Z"/></clipPath></defs></svg>