<svg xmlns="http://www.w3.org/2000/svg" xmlns:xlink="http://www.w3.org/1999/xlink" version="1.1" class="marks" width="930" height="359" viewBox="0 0 930 359"><rect width="930" height="359" fill="white"/><g fill="none" stroke-miterlimit="10" transform="translate(140,22)"><g class="mark-group role-frame root" role="graphics-object" aria-roledescription="group mark container"><g transform="translate(0,0)"><path class="background" aria-hidden="true" d="M0.5,0.5h720v300h-720Z"/><g><g class="mark-group role-axis" aria-hidden="true"><g transform="translate(0.5,300.5)"><path class="background" aria-hidden="true" d="M0,0h0v0h0Z" pointer-events="none"/><g><g class="mark-rule role-axis-grid" pointer-events="none"><line transform="translate(0,0)" x2="0" y2="-300" stroke="#ddd" stroke-width="1" opacity="1"/><line transform="translate(45,0)" x2="0" y2="-300" stroke="#ddd" stroke-width="1" opacity="1"/><line transform="translate(90,0)" x2="0" y2="-300" stroke="#ddd" stroke-width="1" opacity="1"/><line transform="translate(135,0)" x2="0" y2="-300" stroke="#ddd" stroke-width="1" opacity="1"/><line transform="translate(180,0)" x2="0" y2="-300" stroke="#ddd" stroke-width="1" opacity="1"/><line transform="translate(225,0)" x2="0" y2="-300" stroke="#ddd" stroke-width="1" opacity="1"/><line transform="translate(270,0)" x2="0" y2="-300" stroke="#ddd" stroke-width="1" opacity="1"/><line transform="translate(315,0)" x2="0" y2="-300" stroke="#ddd" stroke-width="1" opacity="1"/><line transform="translate(360,0)" x2="0" y2="-300" stroke="#ddd" stroke-width="1" opacity="1"/><line transform="translate(405,0)" x2="0" y2="-300" stroke="#ddd" stroke-width="1" opacity="1"/><line transform="translate(450,0)" x2="0" y2="-300" stroke="#ddd" stroke-width="1" opacity="1"/><line transform="translate(495,0)" x2="0" y2="-300" stroke="#ddd" stroke-width="1" opacity="1"/><line transform="translate(540,0)" x2="0" y2="-300" stroke="#ddd" stroke-width="1" opacity="1"/><line transform="translate(585,0)" x2="0" y2="-300" stroke="#ddd" stroke-width="1" opacity="1"/><line transform="translate(630,0)" x2="0" y2="-300" stroke="#ddd" stroke-width="1" opacity="1"/><line transform="translate(675,0)" x2="0" y2="-300" stroke="#ddd" stroke-width="1" opacity="1"/><line transform="translate(720,0)" x2="0" y2="-300" stroke="#ddd" stroke-width="1" opacity="1"/></g></g><path class="foreground" aria-hidden="true" d="" pointer-events="none" display="none"/></g></g><g class="mark-group role-axis" role="graphics-symbol" aria-roledescription="axis" aria-label="X-axis titled 'Zustimmung zum Argument (%)' for a linear scale with values from 0 to 80"><g transform="translate(0.5,300.5)"><path class="background" aria-hidden="true" d="M0,0h0v0h0Z" pointer-events="none"/><g><g class="mark-rule role-axis-tick" pointer-events="none"><line transform="translate(0,0)" x2="0" y2="5" stroke="#888" stroke-width="1" opacity="1"/><line transform="translate(45,0)" x2="0" y2="5" stroke="#888" stroke-width="1" opacity="1"/><line transform="translate(90,0)" x2="0" y2="5" stroke="#888" stroke-width="1" opacity="1"/><line transform="translate(135,0)" x2="0" y2="5" stroke="#888" stroke-width="1" opacity="1"/><line transform="translate(180,0)" x2="0" y2="5" stroke="#888" stroke-width="1" opacity="1"/><line transform="translate(225,0)" x2="0" y2="5" stroke="#888" stroke-width="1" opacity="1"/><line transform="translate(270,0)" x2="0" y2="5" stroke="#888" stroke-width="1" opacity="1"/><line transform="translate(315,0)" x2="0" y2="5" stroke="#888" stroke-width="1" opacity="1"/><line transform="translate(360,0)" x2="0" y2="5" stroke="#888" stroke-width="1" opacity="1"/><line transform="translate(405,0)" x2="0" y2="5" stroke="#888" stroke-width="1" opacity="1"/><line transform="translate(450,0)" x2="0" y2="5" stroke="#888" stroke-width="1" opacity="1"/><line transform="translate(495,0)" x2="0" y2="5" stroke="#888" stroke-width="1" opacity="1"/><line transform="translate(540,0)" x2="0" y2="5" stroke="#888" stroke-width="1" opacity="1"/><line transform="translate(585,0)" x2="0" y2="5" stroke="#888" stroke-width="1" opacity="1"/><line transform="translate(630,0)" x2="0" y2="5" stroke="#888" stroke-width="1" opacity="1"/><line transform="translate(675,0)" x2="0" y2="5" stroke="#888" stroke-width="1" opacity="1"/><line transform="translate(720,0)" x2="0" y2="5" stroke="#888" stroke-width="1" opacity="1"/></g><g class="mark-text role-axis-label" pointer-events="none"><text text-anchor="start" transform="translate(0,15)" font-family="Switzer, system-ui, sans-serif" font-size="10px" fill="#000" opacity="1">0</text><text text-anchor="middle" transform="translate(45,15)" font-family="Switzer, system-ui, sans-serif" font-size="10px" fill="#000" opacity="1">5</text><text text-anchor="middle" transform="translate(90,15)" font-family="Switzer, system-ui, sans-serif" font-size="10px" fill="#000" opacity="1">10</text><text text-anchor="middle" transform="translate(135,15)" font-family="Switzer, system-ui, sans-serif" font-size="10px" fill="#000" opacity="1">15</text><text text-anchor="middle" transform="translate(180,15)" font-family="Switzer, system-ui, sans-serif" font-size="10px" fill="#000" opacity="1">20</text><text text-anchor="middle" transform="translate(225,15)" font-family="Switzer, system-ui, sans-serif" font-size="10px" fill="#000" opacity="1">25</text><text text-anchor="middle" transform="translate(270,15)" font-family="Switzer, system-ui, sans-serif" font-size="10px" fill="#000" opacity="1">30</text><text text-anchor="middle" transform="translate(315,15)" font-family="Switzer, system-ui, sans-serif" font-size="10px" fill="#000" opacity="1">35</text><text text-anchor="middle" transform="translate(360,15)" font-family="Switzer, system-ui, sans-serif" font-size="10px" fill="#000" opacity="1">40</text><text text-anchor="middle" transform="translate(405,15)" font-family="Switzer, system-ui, sans-serif" font-size="10px" fill="#000" opacity="1">45</text><text text-anchor="middle" transform="translate(450,15)" font-family="Switzer, system-ui, sans-serif" font-size="10px" fill="#000" opacity="1">50</text><text text-anchor="middle" transform="translate(495,15)" font-family="Switzer, system-ui, sans-serif" font-size="10px" fill="#000" opacity="1">55</text><text text-anchor="middle" transform="translate(540,15)" font-family="Switzer, system-ui, sans-serif" font-size="10px" fill="#000" opacity="1">60</text><text text-anchor="middle" transform="translate(585,15)" font-family="Switzer, system-ui, sans-serif" font-size="10px" fill="#000" opacity="1">65</text><text text-anchor="middle" transform="translate(630,15)" font-family="Switzer, system-ui, sans-serif" font-size="10px" fill="#000" opacity="1">70</text><text text-anchor="middle" transform="translate(675,15)" font-family="Switzer, system-ui, sans-serif" font-size="10px" fill="#000" opacity="1">75</text><text text-anchor="end" transform="translate(720,15)" font-family="Switzer, system-ui, sans-serif" font-size="10px" fill="#000" opacity="1">80</text></g><g class="mark-rule role-axis-domain" pointer-events="none"><line transform="translate(0,0)" x2="720" y2="0" stroke="#888" stroke-width="1" opacity="1"/></g><g class="mark-text role-axis-title" pointer-events="none"><text text-anchor="middle" transform="translate(360,30)" font-family="Switzer, system-ui, sans-serif" font-size="11px" font-weight="bold" fill="#000" opacity="1">Zustimmung zum Argument (%)</text></g></g><path class="foreground" aria-hidden="true" d="" pointer-events="none" display="none"/></g></g><g class="mark-group role-axis" role="graphics-symbol" aria-roledescription="axis" aria-label="Y-axis for a discrete scale with 5 values: Privatwirtschaftliche Lösung, Datenschutzbedenken, Staat soll E-ID herausgeben, Digitalisierung notwendig, Internationaler Anschluss"><g transform="translate(0.5,0.5)"><path class="background" aria-hidden="true" d="M0,0h0v0h0Z" pointer-events="none"/><g><g class="mark-rule role-axis-tick" pointer-events="none"><line transform="translate(0,30)" x2="-5" y2="0" stroke="#888" stroke-width="1" opacity="1"/><line transform="translate(0,90)" x2="-5" y2="0" stroke="#888" stroke-width="1" opacity="1"/><line transform="translate(0,150)" x2="-5" y2="0" stroke="#888" stroke-width="1" opacity="1"/><line transform="translate(0,210)" x2="-5" y2="0" stroke="#888" stroke-width="1" opacity="1"/><line transform="translate(0,270)" x2="-5" y2="0" stroke="#888" stroke-width="1" opacity="1"/></g><g class="mark-text role-axis-label" pointer-events="none"><text text-anchor="end" transform="translate(-7,32.5)" font-family="Switzer, system-ui, sans-serif" font-size="10px" fill="#000" opacity="1">Privatwirtschaftliche Lösung</text><text text-anchor="end" transform="translate(-7,92.5)" font-family="Switzer, system-ui, sans-serif" font-size="10px" fill="#000" opacity="1">Datenschutzbedenken</text><text text-anchor="end" transform="translate(-7,152.5)" font-family="Switzer, system-ui, sans-serif" font-size="10px" fill="#000" opacity="1">Staat soll E-ID herausgeben</text><text text-anchor="end" transform="translate(-7,212.5)" font-family="Switzer, system-ui, sans-serif" font-size="10px" fill="#000" opacity="1">Digitalisierung notwendig</text><text text-anchor="end" transform="translate(-7,272.5)" font-family="Switzer, system-ui, sans-serif" font-size="10px" fill="#000" opacity="1">Internationaler Anschluss</text></g><g class="mark-rule role-axis-domain" pointer-events="none"><line transform="translate(0,0)" x2="0" y2="300" stroke="#888" stroke-width="1" opacity="1"/></g></g><path class="foreground" aria-hidden="true" d="" pointer-events="none" display="none"/></g></g><g class="mark-group role-scope" role="graphics-object" aria-roledescription="group mark container"><g transform="translate(0,3)"><path class="background" aria-hidden="true" d="M0,0L644,0C646.207660097976,0,648,1.792339902024,648,4L648,50C648,52.207660097976,646.207660097976,54,644,54L0,54C0,54,0,54,0,54L0,0C0,0,0,0,0,0Z"/><g clip-path="url(#clip45)"><g class="mark-group role-scope" role="graphics-object" aria-roledescription="group mark container"><g transform="translate(0,0)"><path class="background" aria-hidden="true" d="M0,0h0v54h0Z"/><g><g class="mark-rect role-mark marks" role="graphics-object" aria-roledescription="rect mark container"><path aria-label="Zustimmung zum Argument (%): 72; Argument: Privatwirtschaftliche Lösung; Typ: Contra" role="graphics-symbol" aria-roledescription="bar" d="M0,0h648v54h-648Z" fill="#ef4444"/></g></g><path class="foreground" aria-hidden="true" d="" display="none"/></g></g></g><path class="foreground" aria-hidden="true" d="" display="none"/></g><g transform="translate(0,63)"><path class="background" aria-hidden="true" d="M0,0L608,0C610.207660097976,0,612,1.792339902024,612,4L612,50C612,52.207660097976,610.207660097976,54,608,54L0,54C0,54,0,54,0,54L0,0C0,0,0,0,0,0Z"/><g clip-path="url(#clip46)"><g class="mark-group role-scope" role="graphics-object" aria-roledescription="group mark container"><g transform="translate(0,0)"><path class="background" aria-hidden="true" d="M0,0h0v54h0Z"/><g><g class="mark-rect role-mark marks" role="graphics-object" aria-roledescription="rect mark container"><path aria-label="Zustimmung zum Argument (%): 68; Argument: Datenschutzbedenken; Typ: Contra" role="graphics-symbol" aria-roledescription="bar" d="M0,0h612v54h-612Z" fill="#ef4444"/></g></g><path class="foreground" aria-hidden="true" d="" display="none"/></g></g></g><path class="foreground" aria-hidden="true" d="" display="none"/></g><g transform="translate(0,123)"><path class="background" aria-hidden="true" d="M0,0L581,0C583.207660097976,0,585,1.792339902024,585,4L585,50C585,52.207660097976,583.207660097976,54,581,54L0,54C0,54,0,54,0,54L0,0C0,0,0,0,0,0Z"/><g clip-path="url(#clip47)"><g class="mark-group role-scope" role="graphics-object" aria-roledescription="group mark container"><g transform="translate(0,0)"><path class="background" aria-hidden="true" d="M0,0h0v54h0Z"/><g><g class="mark-rect role-mark marks" role="graphics-object" aria-roledescription="rect mark container"><path aria-label="Zustimmung zum Argument (%): 65; Argument: Staat soll E-ID herausgeben; Typ: Contra" role="graphics-symbol" aria-roledescription="bar" d="M0,0h585v54h-585Z" fill="#ef4444"/></g></g><path class="foreground" aria-hidden="true" d="" display="none"/></g></g></g><path class="foreground" aria-hidden="true" d="" display="none"/></g><g transform="translate(0,183)"><path class="background" aria-hidden="true" d="M0,0L518,0C520.207660097976,0,522,1.792339902024,522,4L522,50C522,52.207660097976,520.207660097976,54,518,54L0,54C0,54,0,54,0,54L0,0C0,0,0,0,0,0Z"/><g clip-path="url(#clip48)"><g class="mark-group role-scope" role="graphics-object" aria-roledescription="group mark container"><g transform="translate(0,0)"><path class="background" aria-hidden="true" d="M0,0h0v54h0Z"/><g><g class="mark-rect role-mark marks" role="graphics-object" aria-roledescription="rect mark container"><path aria-label="Zustimmung zum Argument (%): 58; Argument: Digitalisierung notwendig; Typ: Pro" role="graphics-symbol" aria-roledescription="bar" d="M0,0h522v54h-522Z" fill="#3b82f6"/></g></g><path class="foreground" aria-hidden="true" d="" display="none"/></g></g></g><path class="foreground" aria-hidden="true" d="" display="none"/></g><g transform="translate(0,243)"><path class="background" aria-hidden="true" d="M0,0L374,0C376.207660097976,0,378,1.792339902024,378,4L378,50C378,52.207660097976,376.207660097976,54,374,54L0,54C0,54,0,54,0,54L0,0C0,0,0,0,0,0Z"/><g clip-path="url(#clip49)"><g class="mark-group role-scope" role="graphics-object" aria-roledescription="group mark container"><g transform="translate(0,0)"><path class="background" aria-hidden="true" d="M0,0h0v54h0Z"/><g><g class="mark-rect role-mark marks" role="graphics-object" aria-roledescription="rect mark container"><path aria-label="Zustimmung zum Argument (%): 42; Argument: Internationaler Anschluss; Typ: Pro" role="graphics-symbol" aria-roledescription="bar" d="M0,0h378v54h-378Z" fill="#3b82f6"/></g></g><path class="foreground" aria-hidden="true" d="" display="none"/></g></g></g><path class="foreground" aria-hidden="true" d="" display="none"/></g></g><g class="mark-group role-legend" role="graphics-symbol" aria-roledescription="legend" aria-label="Symbol legend titled 'Typ' for fill color with 2 values: Contra, Pro"><g transform="translate(738,0)"><path class="background" aria-hidden="true" d="M0,0h47v40h-47Z" pointer-events="none"/><g><g class="mark-group role-legend-entry"><g transform="translate(0,16)"><path class="background" aria-hidden="true" d="M0,0h0v0h0Z" pointer-events="none"/><g><g class="mark-group role-scope" role="graphics-object" aria-roledescription="group mark container"><g transform="translate(0,0)"><path class="background" aria-hidden="true" d="M0,0h46.61000061035156v11h-46.61000061035156Z" pointer-events="none" opacity="1"/><g><g class="mark-symbol role-legend-symbol" pointer-events="none"><path transform="translate(6,6)" d="M-5,-5h10v10h-10Z" fill="#ef4444" stroke-width="1.5" opacity="1"/></g><g class="mark-text role-legend-label" pointer-events="none"><text text-anchor="start" transform="translate(16,9)" font-family="Switzer, system-ui, sans-serif" font-size="10px" fill="#000" opacity="1">Contra</text></g></g><path class="foreground" aria-hidden="true" d="" pointer-events="none" display="none"/></g><g transform="translate(0,13)"><path class="background" aria-hidden="true" d="M0,0h46.61000061035156v11h-46.61000061035156Z" pointer-events="none" opacity="1"/><g><g class="mark-symbol role-legend-symbol" pointer-events="none"><path transform="translate(6,6)" d="M-5,-5h10v10h-10Z" fill="#3b82f6" stroke-width="1.5" opacity="1"/></g><g class="mark-text role-legend-label" pointer-events="none"><text text-anchor="start" transform="translate(16,9)" font-family="Switzer, system-ui, sans-serif" font-size="10px" fill="#000" opacity="1">Pro</text></g></g><path class="foreground" aria-hidden="true" d="" pointer-events="none" display="none"/></g></g></g><path class="foreground" aria-hidden="true" d="" pointer-events="none" display="none"/></g></g><g class="mark-text role-legend-title" pointer-events="none"><text text-anchor="start" transform="translate(0,9)" font-family="Switzer, system-ui, sans-serif" font-size="11px" font-weight="bold" fill="#000" opacity="1">Typ</text></g></g><path class="foreground" aria-hidden="true" d="" pointer-events="none" display="none"/></g></g><g class="mark-group role-title"><g transform="translate(360,-17)"><path class="background" aria-hidden="true" d="M0,0h0v0h0Z" pointer-events="none"/><g><g class="mark-text role-title-text" role="graphics-symbol" aria-roledescription="title" aria-label="Title text 'E-ID-Referendum 2021: Abstimmungsmotive (VOX/Sotomo)'" pointer-events="none"><text text-anchor="middle" transform="translate(0,10)" font-family="Switzer, system-ui, sans-serif" font-size="13px" font-weight="bold" fill="#000" opacity="1">E-ID-Referendum 2021: Abstimmungsmotive (VOX/Sotomo)</text></g></g><path class="foreground" aria-hidden="true" d="" pointer-events="none" display="none"/></g></g></g><path class="foreground" aria-hidden="true" d="" display="none"/></g></g></g><defs><clipPath id="clip45"><path d="M0,0L644,0C646.207660097976,0,648,1.792339902024,648,4L648,50C648,52.207660097976,646.207660097976,54,644,54L0,54C0,54,0,54,0,54L0,0C0,0,0,0,0,0Z"/></clipPath><clipPath id="clip46"><path d="M0,0L608,0C610.207660097976,0,612,1.792339902024,612,4L612,50C612,52.207660097976,610.207660097976,54,608,54L0,54C0,54,0,54,0,54L0,0C0,0,0,0,0,0Z"/></clipPath><clipPath id="clip47"><path d="M0,0L581,0C583.207660097976,0,585,1.792339902024,585,4L585,50C585,52.207660097976,583.207660097976,54,581,54L0,54C0,54,0,54,0,54L0,0C0,0,0,0,0,0Z"/></clipPath><clipPath id="clip48"><path d="M0,0L518,0C520.207660097976,0,522,1.792339902024,522,4L522,50C522,52.207660097976,520.207660097976,54,518,54L0,54C0,54,0,54,0,54L0,0C0,0,0,0,0,0Z"/></clipPath><clipPath id="clip49"><path d="M0,0L374,0C376.207660097976,0,378,1.792339902024,378,4L378,50C378,52.207660097976,376.207660097976,54,374,54L0,54C0,54,0,54,0,54L0,0C0,0,0,0,0,0Z"/></clipPath></defs></svg>