<svg xmlns="http://www.w3.org/2000/svg" xmlns:xlink="http://www.w3.org/1999/xlink" version="1.1" class="marks" width="854" height="458" viewBox="0 0 854 458"><rect width="854" height="458" fill="white"/><g fill="none" stroke-miterlimit="10" transform="translate(45,27)"><g class="mark-group role-frame root" role="graphics-object" aria-roledescription="group mark container"><g transform="translate(0,0)"><path class="background" aria-hidden="true" d="M0.5,0.5h720v380h-720Z"/><g><g class="mark-group role-axis" aria-hidden="true"><g transform="translate(0.5,0.5)"><path class="background" aria-hidden="true" d="M0,0h0v0h0Z" pointer-events="none"/><g><g class="mark-rule role-axis-grid" pointer-events="none"><line transform="translate(0,380)" x2="720" y2="0" stroke="#ddd" stroke-width="1" opacity="1"/><line transform="translate(0,348)" x2="720" y2="0" stroke="#ddd" stroke-width="1" opacity="1"/><line transform="translate(0,317)" x2="720" y2="0" stroke="#ddd" stroke-width="1" opacity="1"/><line transform="translate(0,285)" x2="720" y2="0" stroke="#ddd" stroke-width="1" opacity="1"/><line transform="translate(0,253)" x2="720" y2="0" stroke="#ddd" stroke-width="1" opacity="1"/><line transform="translate(0,222)" x2="720" y2="0" stroke="#ddd" stroke-width="1" opacity="1"/><line transform="translate(0,190)" x2="720" y2="0" stroke="#ddd" stroke-width="1" opacity="1"/><line transform="translate(0,158)" x2="720" y2="0" stroke="#ddd" stroke-width="1" opacity="1"/><line transform="translate(0,127)" x2="720" y2="0" stroke="#ddd" stroke-width="1" opacity="1"/><line transform="translate(0,95)" x2="720" y2="0" stroke="#ddd" stroke-width="1" opacity="1"/><line transform="translate(0,63)" x2="720" y2="0" stroke="#ddd" stroke-width="1" opacity="1"/><line transform="translate(0,32)" x2="720" y2="0" stroke="#ddd" stroke-width="1" opacity="1"/><line transform="translate(0,0)" x2="720" y2="0" stroke="#ddd" stroke-width="1" opacity="1"/></g></g><path class="foreground" aria-hidden="true" d="" pointer-events="none" display="none"/></g></g><g class="mark-group role-axis" role="graphics-symbol" aria-roledescription="axis" aria-label="X-axis titled 'Jahr' for a discrete scale with 6 values: 2014, 2017, 2019, 2021, 2023, 2025"><g transform="translate(0.5,380.5)"><path class="background" aria-hidden="true" d="M0,0h0v0h0Z" pointer-events="none"/><g><g class="mark-rule role-axis-tick" pointer-events="none"><line transform="translate(60,0)" x2="0" y2="5" stroke="#888" stroke-width="1" opacity="1"/><line transform="translate(180,0)" x2="0" y2="5" stroke="#888" stroke-width="1" opacity="1"/><line transform="translate(300,0)" x2="0" y2="5" stroke="#888" stroke-width="1" opacity="1"/><line transform="translate(420,0)" x2="0" y2="5" stroke="#888" stroke-width="1" opacity="1"/><line transform="translate(540,0)" x2="0" y2="5" stroke="#888" stroke-width="1" opacity="1"/><line transform="translate(660,0)" x2="0" y2="5" stroke="#888" stroke-width="1" opacity="1"/></g><g class="mark-text role-axis-label" pointer-events="none"><text text-anchor="end" transform="translate(60,7) rotate(270) translate(0,3)" font-family="Switzer, system-ui, sans-serif" font-size="10px" fill="#000" opacity="1">2014</text><text text-anchor="end" transform="translate(180,7) rotate(270) translate(0,3)" font-family="Switzer, system-ui, sans-serif" font-size="10px" fill="#000" opacity="1">2017</text><text text-anchor="end" transform="translate(300,7) rotate(270) translate(0,3)" font-family="Switzer, system-ui, sans-serif" font-size="10px" fill="#000" opacity="1">2019</text><text text-anchor="end" transform="translate(420,7) rotate(270) translate(0,3)" font-family="Switzer, system-ui, sans-serif" font-size="10px" fill="#000" opacity="1">2021</text><text text-anchor="end" transform="translate(540,7) rotate(270) translate(0,3)" font-family="Switzer, system-ui, sans-serif" font-size="10px" fill="#000" opacity="1">2023</text><text text-anchor="end" transform="translate(660,7) rotate(270) translate(0,3)" font-family="Switzer, system-ui, sans-serif" font-size="10px" fill="#000" opacity="1">2025</text></g><g class="mark-rule role-axis-domain" pointer-events="none"><line transform="translate(0,0)" x2="720" y2="0" stroke="#888" stroke-width="1" opacity="1"/></g><g class="mark-text role-axis-title" pointer-events="none"><text text-anchor="middle" transform="translate(360,43.040000915527344)" font-family="Switzer, system-ui, sans-serif" font-size="11px" font-weight="bold" fill="#000" opacity="1">Jahr</text></g></g><path class="foreground" aria-hidden="true" d="" pointer-events="none" display="none"/></g></g><g class="mark-group role-axis" role="graphics-symbol" aria-roledescription="axis" aria-label="Y-axis titled 'Anteil der Bevölkerung (%)' for a linear scale with values from 40 to 100"><g transform="translate(0.5,0.5)"><path class="background" aria-hidden="true" d="M0,0h0v0h0Z" pointer-events="none"/><g><g class="mark-rule role-axis-tick" pointer-events="none"><line transform="translate(0,380)" x2="-5" y2="0" stroke="#888" stroke-width="1" opacity="1"/><line transform="translate(0,348)" x2="-5" y2="0" stroke="#888" stroke-width="1" opacity="1"/><line transform="translate(0,317)" x2="-5" y2="0" stroke="#888" stroke-width="1" opacity="1"/><line transform="translate(0,285)" x2="-5" y2="0" stroke="#888" stroke-width="1" opacity="1"/><line transform="translate(0,253)" x2="-5" y2="0" stroke="#888" stroke-width="1" opacity="1"/><line transform="translate(0,222)" x2="-5" y2="0" stroke="#888" stroke-width="1" opacity="1"/><line transform="translate(0,190)" x2="-5" y2="0" stroke="#888" stroke-width="1" opacity="1"/><line transform="translate(0,158)" x2="-5" y2="0" stroke="#888" stroke-width="1" opacity="1"/><line transform="translate(0,127)" x2="-5" y2="0" stroke="#888" stroke-width="1" opacity="1"/><line transform="translate(0,95)" x2="-5" y2="0" stroke="#888" stroke-width="1" opacity="1"/><line transform="translate(0,63)" x2="-5" y2="0" stroke="#888" stroke-width="1" opacity="1"/><line transform="translate(0,32)" x2="-5" y2="0" stroke="#888" stroke-width="1" opacity="1"/><line transform="translate(0,0)" x2="-5" y2="0" stroke="#888" stroke-width="1" opacity="1"/></g><g class="mark-text role-axis-label" pointer-events="none"><text text-anchor="end" transform="translate(-7,383)" font-family="Switzer, system-ui, sans-serif" font-size="10px" fill="#000" opacity="1">40</text><text text-anchor="end" transform="translate(-7,351.3333333333333)" font-family="Switzer, system-ui, sans-serif" font-size="10px" fill="#000" opacity="1">45</text><text text-anchor="end" transform="translate(-7,319.6666666666667)" font-family="Switzer, system-ui, sans-serif" font-size="10px" fill="#000" opacity="1">50</text><text text-anchor="end" transform="translate(-7,288)" font-family="Switzer, system-ui, sans-serif" font-size="10px" fill="#000" opacity="1">55</text><text text-anchor="end" transform="translate(-7,256.33333333333337)" font-family="Switzer, system-ui, sans-serif" font-size="10px" fill="#000" opacity="1">60</text><text text-anchor="end" transform="translate(-7,224.66666666666663)" font-family="Switzer, system-ui, sans-serif" font-size="10px" fill="#000" opacity="1">65</text><text text-anchor="end" transform="translate(-7,193)" font-family="Switzer, system-ui, sans-serif" font-size="10px" fill="#000" opacity="1">70</text><text text-anchor="end" transform="translate(-7,161.33333333333331)" font-family="Switzer, system-ui, sans-serif" font-size="10px" fill="#000" opacity="1">75</text><text text-anchor="end" transform="translate(-7,129.66666666666669)" font-family="Switzer, system-ui, sans-serif" font-size="10px" fill="#000" opacity="1">80</text><text text-anchor="end" transform="translate(-7,98)" font-family="Switzer, system-ui, sans-serif" font-size="10px" fill="#000" opacity="1">85</text><text text-anchor="end" transform="translate(-7,66.33333333333331)" font-family="Switzer, system-ui, sans-serif" font-size="10px" fill="#000" opacity="1">90</text><text text-anchor="end" transform="translate(-7,34.666666666666686)" font-family="Switzer, system-ui, sans-serif" font-size="10px" fill="#000" opacity="1">95</text><text text-anchor="end" transform="translate(-7,3)" font-family="Switzer, system-ui, sans-serif" font-size="10px" fill="#000" opacity="1">100</text></g><g class="mark-rule role-axis-domain" pointer-events="none"><line transform="translate(0,380)" x2="0" y2="-380" stroke="#888" stroke-width="1" opacity="1"/></g><g class="mark-text role-axis-title" pointer-events="none"><text text-anchor="middle" transform="translate(-28.279998779296875,190) rotate(-90) translate(0,-2)" font-family="Switzer, system-ui, sans-serif" font-size="11px" font-weight="bold" fill="#000" opacity="1">Anteil der Bevölkerung (%)</text></g></g><path class="foreground" aria-hidden="true" d="" pointer-events="none" display="none"/></g></g><g class="mark-group role-scope layer_0_pathgroup" role="graphics-object" aria-roledescription="group mark container"><g transform="translate(0,0)"><path class="background" aria-hidden="true" d="M0,0h720v380h-720Z"/><g><g class="mark-line role-mark layer_0_marks" role="graphics-object" aria-roledescription="line mark container"><path aria-label="Jahr: 2014; Anteil der Bevölkerung (%): 95.7; Altersgruppe: 15–29" role="graphics-symbol" aria-roledescription="line mark" d="M60,27.233L180,23.433L300,25.967L420,27.233L540,29.767L660,34.2" stroke="#a855f7" stroke-width="2"/></g></g><path class="foreground" aria-hidden="true" d="" display="none"/></g><g transform="translate(0,0)"><path class="background" aria-hidden="true" d="M0,0h720v380h-720Z"/><g><g class="mark-line role-mark layer_0_marks" role="graphics-object" aria-roledescription="line mark container"><path aria-label="Jahr: 2014; Anteil der Bevölkerung (%): 87.8; Altersgruppe: 30–59" role="graphics-symbol" aria-roledescription="line mark" d="M60,77.267L180,59.533L300,46.867L420,40.533L540,34.2L660,28.5" stroke="#3b82f6" stroke-width="2"/></g></g><path class="foreground" aria-hidden="true" d="" display="none"/></g><g transform="translate(0,0)"><path class="background" aria-hidden="true" d="M0,0h720v380h-720Z"/><g><g class="mark-line role-mark layer_0_marks" role="graphics-object" aria-roledescription="line mark container"><path aria-label="Jahr: 2014; Anteil der Bevölkerung (%): 48.1; Altersgruppe: 60+" role="graphics-symbol" aria-roledescription="line mark" d="M60,328.7L180,236.233L300,187.467L420,172.267L540,136.167L660,133.633" stroke="#06b6d4" stroke-width="2"/></g></g><path class="foreground" aria-hidden="true" d="" display="none"/></g></g><g class="mark-symbol role-mark layer_1_marks" role="graphics-object" aria-roledescription="symbol mark container"><path aria-label="Jahr: 2025; Anteil der Bevölkerung (%): 94.6; Altersgruppe: 15–29" role="graphics-symbol" aria-roledescription="point" transform="translate(660,34.20000000000003)" d="M2.739,0A2.739,2.739,0,1,1,-2.739,0A2.739,2.739,0,1,1,2.739,0" fill="#a855f7" stroke-width="2" opacity="1"/><path aria-label="Jahr: 2023; Anteil der Bevölkerung (%): 95.3; Altersgruppe: 15–29" role="graphics-symbol" aria-roledescription="point" transform="translate(540,29.76666666666668)" d="M2.739,0A2.739,2.739,0,1,1,-2.739,0A2.739,2.739,0,1,1,2.739,0" fill="#a855f7" stroke-width="2" opacity="1"/><path aria-label="Jahr: 2021; Anteil der Bevölkerung (%): 95.7; Altersgruppe: 15–29" role="graphics-symbol" aria-roledescription="point" transform="translate(420,27.23333333333333)" d="M2.739,0A2.739,2.739,0,1,1,-2.739,0A2.739,2.739,0,1,1,2.739,0" fill="#a855f7" stroke-width="2" opacity="1"/><path aria-label="Jahr: 2019; Anteil der Bevölkerung (%): 95.9; Altersgruppe: 15–29" role="graphics-symbol" aria-roledescription="point" transform="translate(300,25.966666666666633)" d="M2.739,0A2.739,2.739,0,1,1,-2.739,0A2.739,2.739,0,1,1,2.739,0" fill="#a855f7" stroke-width="2" opacity="1"/><path aria-label="Jahr: 2017; Anteil der Bevölkerung (%): 96.3; Altersgruppe: 15–29" role="graphics-symbol" aria-roledescription="point" transform="translate(180,23.43333333333337)" d="M2.739,0A2.739,2.739,0,1,1,-2.739,0A2.739,2.739,0,1,1,2.739,0" fill="#a855f7" stroke-width="2" opacity="1"/><path aria-label="Jahr: 2014; Anteil der Bevölkerung (%): 95.7; Altersgruppe: 15–29" role="graphics-symbol" aria-roledescription="point" transform="translate(60,27.23333333333333)" d="M2.739,0A2.739,2.739,0,1,1,-2.739,0A2.739,2.739,0,1,1,2.739,0" fill="#a855f7" stroke-width="2" opacity="1"/><path aria-label="Jahr: 2025; Anteil der Bevölkerung (%): 95.5; Altersgruppe: 30–59" role="graphics-symbol" aria-roledescription="point" transform="translate(660,28.499999999999982)" d="M2.739,0A2.739,2.739,0,1,1,-2.739,0A2.739,2.739,0,1,1,2.739,0" fill="#3b82f6" stroke-width="2" opacity="1"/><path aria-label="Jahr: 2023; Anteil der Bevölkerung (%): 94.6; Altersgruppe: 30–59" role="graphics-symbol" aria-roledescription="point" transform="translate(540,34.20000000000003)" d="M2.739,0A2.739,2.739,0,1,1,-2.739,0A2.739,2.739,0,1,1,2.739,0" fill="#3b82f6" stroke-width="2" opacity="1"/><path aria-label="Jahr: 2021; Anteil der Bevölkerung (%): 93.6; Altersgruppe: 30–59" role="graphics-symbol" aria-roledescription="point" transform="translate(420,40.53333333333338)" d="M2.739,0A2.739,2.739,0,1,1,-2.739,0A2.739,2.739,0,1,1,2.739,0" fill="#3b82f6" stroke-width="2" opacity="1"/><path aria-label="Jahr: 2019; Anteil der Bevölkerung (%): 92.6; Altersgruppe: 30–59" role="graphics-symbol" aria-roledescription="point" transform="translate(300,46.866666666666696)" d="M2.739,0A2.739,2.739,0,1,1,-2.739,0A2.739,2.739,0,1,1,2.739,0" fill="#3b82f6" stroke-width="2" opacity="1"/><path aria-label="Jahr: 2017; Anteil der Bevölkerung (%): 90.6; Altersgruppe: 30–59" role="graphics-symbol" aria-roledescription="point" transform="translate(180,59.53333333333336)" d="M2.739,0A2.739,2.739,0,1,1,-2.739,0A2.739,2.739,0,1,1,2.739,0" fill="#3b82f6" stroke-width="2" opacity="1"/><path aria-label="Jahr: 2014; Anteil der Bevölkerung (%): 87.8; Altersgruppe: 30–59" role="graphics-symbol" aria-roledescription="point" transform="translate(60,77.26666666666668)" d="M2.739,0A2.739,2.739,0,1,1,-2.739,0A2.739,2.739,0,1,1,2.739,0" fill="#3b82f6" stroke-width="2" opacity="1"/><path aria-label="Jahr: 2025; Anteil der Bevölkerung (%): 78.9; Altersgruppe: 60+" role="graphics-symbol" aria-roledescription="point" transform="translate(660,133.6333333333333)" d="M2.739,0A2.739,2.739,0,1,1,-2.739,0A2.739,2.739,0,1,1,2.739,0" fill="#06b6d4" stroke-width="2" opacity="1"/><path aria-label="Jahr: 2023; Anteil der Bevölkerung (%): 78.5; Altersgruppe: 60+" role="graphics-symbol" aria-roledescription="point" transform="translate(540,136.16666666666666)" d="M2.739,0A2.739,2.739,0,1,1,-2.739,0A2.739,2.739,0,1,1,2.739,0" fill="#06b6d4" stroke-width="2" opacity="1"/><path aria-label="Jahr: 2021; Anteil der Bevölkerung (%): 72.8; Altersgruppe: 60+" role="graphics-symbol" aria-roledescription="point" transform="translate(420,172.26666666666668)" d="M2.739,0A2.739,2.739,0,1,1,-2.739,0A2.739,2.739,0,1,1,2.739,0" fill="#06b6d4" stroke-width="2" opacity="1"/><path aria-label="Jahr: 2019; Anteil der Bevölkerung (%): 70.4; Altersgruppe: 60+" role="graphics-symbol" aria-roledescription="point" transform="translate(300,187.46666666666664)" d="M2.739,0A2.739,2.739,0,1,1,-2.739,0A2.739,2.739,0,1,1,2.739,0" fill="#06b6d4" stroke-width="2" opacity="1"/><path aria-label="Jahr: 2017; Anteil der Bevölkerung (%): 62.7; Altersgruppe: 60+" role="graphics-symbol" aria-roledescription="point" transform="translate(180,236.2333333333333)" d="M2.739,0A2.739,2.739,0,1,1,-2.739,0A2.739,2.739,0,1,1,2.739,0" fill="#06b6d4" stroke-width="2" opacity="1"/><path aria-label="Jahr: 2014; Anteil der Bevölkerung (%): 48.1; Altersgruppe: 60+" role="graphics-symbol" aria-roledescription="point" transform="translate(60,328.7)" d="M2.739,0A2.739,2.739,0,1,1,-2.739,0A2.739,2.739,0,1,1,2.739,0" fill="#06b6d4" stroke-width="2" opacity="1"/></g><g class="mark-group role-legend" role="graphics-symbol" aria-roledescription="legend" aria-label="Symbol legend titled 'Altersgruppe' for fill color and stroke color with 3 values: 15–29, 30–59, 60+"><g transform="translate(738,0)"><path class="background" aria-hidden="true" d="M0,0h66v61h-66Z" pointer-events="none"/><g><g class="mark-group role-legend-entry"><g transform="translate(0,16)"><path class="background" aria-hidden="true" d="M0,0h0v0h0Z" pointer-events="none"/><g><g class="mark-group role-scope" role="graphics-object" aria-roledescription="group mark container"><g transform="translate(0,0)"><path class="background" aria-hidden="true" d="M0,0h44.040000915527344v12.5h-44.040000915527344Z" pointer-events="none" opacity="1"/><g><g class="mark-symbol role-legend-symbol" pointer-events="none"><path transform="translate(6,6)" d="M5,0A5,5,0,1,1,-5,0A5,5,0,1,1,5,0" fill="#a855f7" stroke="#a855f7" stroke-width="1.5" opacity="1"/></g><g class="mark-text role-legend-label" pointer-events="none"><text text-anchor="start" transform="translate(16,9)" font-family="Switzer, system-ui, sans-serif" font-size="10px" fill="#000" opacity="1">15–29</text></g></g><path class="foreground" aria-hidden="true" d="" pointer-events="none" display="none"/></g><g transform="translate(0,16)"><path class="background" aria-hidden="true" d="M0,0h44.040000915527344v12.5h-44.040000915527344Z" pointer-events="none" opacity="1"/><g><g class="mark-symbol role-legend-symbol" pointer-events="none"><path transform="translate(6,6)" d="M5,0A5,5,0,1,1,-5,0A5,5,0,1,1,5,0" fill="#3b82f6" stroke="#3b82f6" stroke-width="1.5" opacity="1"/></g><g class="mark-text role-legend-label" pointer-events="none"><text text-anchor="start" transform="translate(16,9)" font-family="Switzer, system-ui, sans-serif" font-size="10px" fill="#000" opacity="1">30–59</text></g></g><path class="foreground" aria-hidden="true" d="" pointer-events="none" display="none"/></g><g transform="translate(0,32)"><path class="background" aria-hidden="true" d="M0,0h44.040000915527344v12.5h-44.040000915527344Z" pointer-events="none" opacity="1"/><g><g class="mark-symbol role-legend-symbol" pointer-events="none"><path transform="translate(6,6)" d="M5,0A5,5,0,1,1,-5,0A5,5,0,1,1,5,0" fill="#06b6d4" stroke="#06b6d4" stroke-width="1.5" opacity="1"/></g><g class="mark-text role-legend-label" pointer-events="none"><text text-anchor="start" transform="translate(16,9)" font-family="Switzer, system-ui, sans-serif" font-size="10px" fill="#000" opacity="1">60+</text></g></g><path class="foreground" aria-hidden="true" d="" pointer-events="none" display="none"/></g></g></g><path class="foreground" aria-hidden="true" d="" pointer-events="none" display="none"/></g></g><g class="mark-text role-legend-title" pointer-events="none"><text text-anchor="start" transform="translate(0,9)" font-family="Switzer, system-ui, sans-serif" font-size="11px" font-weight="bold" fill="#000" opacity="1">Altersgruppe</text></g></g><path class="foreground" aria-hidden="true" d="" pointer-events="none" display="none"/></g></g><g class="mark-group role-title"><g transform="translate(360,-22)"><path class="background" aria-hidden="true" d="M0,0h0v0h0Z" pointer-events="none"/><g><g class="mark-text role-title-text" role="graphics-symbol" aria-roledescription="title" aria-label="Title text 'Internetnutzung nach Altersgruppe — Schweiz (BFS Omnibus ICT, 2014–2025)'" pointer-events="none"><text text-anchor="middle" transform="translate(0,10)" font-family="Switzer, system-ui, sans-serif" font-size="13px" font-weight="bold" fill="#000" opacity="1">Internetnutzung nach Altersgruppe — Schweiz (BFS Omnibus ICT, 2014–2025)</text></g></g><path class="foreground" aria-hidden="true" d="" pointer-events="none" display="none"/></g></g></g><path class="foreground" aria-hidden="true" d="" display="none"/></g></g></g></svg>