<svg xmlns="http://www.w3.org/2000/svg" xmlns:xlink="http://www.w3.org/1999/xlink" version="1.1" class="marks" width="770" height="478" viewBox="0 0 770 478"><rect width="770" height="478" fill="white"/><g fill="none" stroke-miterlimit="10" transform="translate(45,27)"><g class="mark-group role-frame root" role="graphics-object" aria-roledescription="group mark container"><g transform="translate(0,0)"><path class="background" aria-hidden="true" d="M0.5,0.5h720v400h-720Z"/><g><g class="mark-group role-axis" aria-hidden="true"><g transform="translate(0.5,0.5)"><path class="background" aria-hidden="true" d="M0,0h0v0h0Z" pointer-events="none"/><g><g class="mark-rule role-axis-grid" pointer-events="none"><line transform="translate(0,400)" x2="720" y2="0" stroke="#ddd" stroke-width="1" opacity="1"/><line transform="translate(0,360)" x2="720" y2="0" stroke="#ddd" stroke-width="1" opacity="1"/><line transform="translate(0,320)" x2="720" y2="0" stroke="#ddd" stroke-width="1" opacity="1"/><line transform="translate(0,280)" x2="720" y2="0" stroke="#ddd" stroke-width="1" opacity="1"/><line transform="translate(0,240)" x2="720" y2="0" stroke="#ddd" stroke-width="1" opacity="1"/><line transform="translate(0,200)" x2="720" y2="0" stroke="#ddd" stroke-width="1" opacity="1"/><line transform="translate(0,160)" x2="720" y2="0" stroke="#ddd" stroke-width="1" opacity="1"/><line transform="translate(0,120)" x2="720" y2="0" stroke="#ddd" stroke-width="1" opacity="1"/><line transform="translate(0,80)" x2="720" y2="0" stroke="#ddd" stroke-width="1" opacity="1"/><line transform="translate(0,40)" x2="720" y2="0" stroke="#ddd" stroke-width="1" opacity="1"/><line transform="translate(0,0)" x2="720" y2="0" stroke="#ddd" stroke-width="1" opacity="1"/></g></g><path class="foreground" aria-hidden="true" d="" pointer-events="none" display="none"/></g></g><g class="mark-group role-axis" role="graphics-symbol" aria-roledescription="axis" aria-label="X-axis titled 'Jahr' for a discrete scale with 6 values: 2014, 2017, 2019, 2021, 2023, 2025"><g transform="translate(0.5,400.5)"><path class="background" aria-hidden="true" d="M0,0h0v0h0Z" pointer-events="none"/><g><g class="mark-rule role-axis-tick" pointer-events="none"><line transform="translate(60,0)" x2="0" y2="5" stroke="#888" stroke-width="1" opacity="1"/><line transform="translate(180,0)" x2="0" y2="5" stroke="#888" stroke-width="1" opacity="1"/><line transform="translate(300,0)" x2="0" y2="5" stroke="#888" stroke-width="1" opacity="1"/><line transform="translate(420,0)" x2="0" y2="5" stroke="#888" stroke-width="1" opacity="1"/><line transform="translate(540,0)" x2="0" y2="5" stroke="#888" stroke-width="1" opacity="1"/><line transform="translate(660,0)" x2="0" y2="5" stroke="#888" stroke-width="1" opacity="1"/></g><g class="mark-text role-axis-label" pointer-events="none"><text text-anchor="end" transform="translate(60,7) rotate(270) translate(0,3)" font-family="Switzer, system-ui, sans-serif" font-size="10px" fill="#000" opacity="1">2014</text><text text-anchor="end" transform="translate(180,7) rotate(270) translate(0,3)" font-family="Switzer, system-ui, sans-serif" font-size="10px" fill="#000" opacity="1">2017</text><text text-anchor="end" transform="translate(300,7) rotate(270) translate(0,3)" font-family="Switzer, system-ui, sans-serif" font-size="10px" fill="#000" opacity="1">2019</text><text text-anchor="end" transform="translate(420,7) rotate(270) translate(0,3)" font-family="Switzer, system-ui, sans-serif" font-size="10px" fill="#000" opacity="1">2021</text><text text-anchor="end" transform="translate(540,7) rotate(270) translate(0,3)" font-family="Switzer, system-ui, sans-serif" font-size="10px" fill="#000" opacity="1">2023</text><text text-anchor="end" transform="translate(660,7) rotate(270) translate(0,3)" font-family="Switzer, system-ui, sans-serif" font-size="10px" fill="#000" opacity="1">2025</text></g><g class="mark-rule role-axis-domain" pointer-events="none"><line transform="translate(0,0)" x2="720" y2="0" stroke="#888" stroke-width="1" opacity="1"/></g><g class="mark-text role-axis-title" pointer-events="none"><text text-anchor="middle" transform="translate(360,43.040000915527344)" font-family="Switzer, system-ui, sans-serif" font-size="11px" font-weight="bold" fill="#000" opacity="1">Jahr</text></g></g><path class="foreground" aria-hidden="true" d="" pointer-events="none" display="none"/></g></g><g class="mark-group role-axis" role="graphics-symbol" aria-roledescription="axis" aria-label="Y-axis titled 'Anteil der Bevölkerung (%)' for a linear scale with values from 0 to 100"><g transform="translate(0.5,0.5)"><path class="background" aria-hidden="true" d="M0,0h0v0h0Z" pointer-events="none"/><g><g class="mark-rule role-axis-tick" pointer-events="none"><line transform="translate(0,400)" x2="-5" y2="0" stroke="#888" stroke-width="1" opacity="1"/><line transform="translate(0,360)" x2="-5" y2="0" stroke="#888" stroke-width="1" opacity="1"/><line transform="translate(0,320)" x2="-5" y2="0" stroke="#888" stroke-width="1" opacity="1"/><line transform="translate(0,280)" x2="-5" y2="0" stroke="#888" stroke-width="1" opacity="1"/><line transform="translate(0,240)" x2="-5" y2="0" stroke="#888" stroke-width="1" opacity="1"/><line transform="translate(0,200)" x2="-5" y2="0" stroke="#888" stroke-width="1" opacity="1"/><line transform="translate(0,160)" x2="-5" y2="0" stroke="#888" stroke-width="1" opacity="1"/><line transform="translate(0,120)" x2="-5" y2="0" stroke="#888" stroke-width="1" opacity="1"/><line transform="translate(0,80)" x2="-5" y2="0" stroke="#888" stroke-width="1" opacity="1"/><line transform="translate(0,40)" x2="-5" y2="0" stroke="#888" stroke-width="1" opacity="1"/><line transform="translate(0,0)" x2="-5" y2="0" stroke="#888" stroke-width="1" opacity="1"/></g><g class="mark-text role-axis-label" pointer-events="none"><text text-anchor="end" transform="translate(-7,403)" font-family="Switzer, system-ui, sans-serif" font-size="10px" fill="#000" opacity="1">0</text><text text-anchor="end" transform="translate(-7,363)" font-family="Switzer, system-ui, sans-serif" font-size="10px" fill="#000" opacity="1">10</text><text text-anchor="end" transform="translate(-7,323)" font-family="Switzer, system-ui, sans-serif" font-size="10px" fill="#000" opacity="1">20</text><text text-anchor="end" transform="translate(-7,283)" font-family="Switzer, system-ui, sans-serif" font-size="10px" fill="#000" opacity="1">30</text><text text-anchor="end" transform="translate(-7,243)" font-family="Switzer, system-ui, sans-serif" font-size="10px" fill="#000" opacity="1">40</text><text text-anchor="end" transform="translate(-7,203)" font-family="Switzer, system-ui, sans-serif" font-size="10px" fill="#000" opacity="1">50</text><text text-anchor="end" transform="translate(-7,163)" font-family="Switzer, system-ui, sans-serif" font-size="10px" fill="#000" opacity="1">60</text><text text-anchor="end" transform="translate(-7,123.00000000000001)" font-family="Switzer, system-ui, sans-serif" font-size="10px" fill="#000" opacity="1">70</text><text text-anchor="end" transform="translate(-7,82.99999999999999)" font-family="Switzer, system-ui, sans-serif" font-size="10px" fill="#000" opacity="1">80</text><text text-anchor="end" transform="translate(-7,42.99999999999999)" font-family="Switzer, system-ui, sans-serif" font-size="10px" fill="#000" opacity="1">90</text><text text-anchor="end" transform="translate(-7,3)" font-family="Switzer, system-ui, sans-serif" font-size="10px" fill="#000" opacity="1">100</text></g><g class="mark-rule role-axis-domain" pointer-events="none"><line transform="translate(0,400)" x2="0" y2="-400" stroke="#888" stroke-width="1" opacity="1"/></g><g class="mark-text role-axis-title" pointer-events="none"><text text-anchor="middle" transform="translate(-28.279998779296875,200) rotate(-90) translate(0,-2)" font-family="Switzer, system-ui, sans-serif" font-size="11px" font-weight="bold" fill="#000" opacity="1">Anteil der Bevölkerung (%)</text></g></g><path class="foreground" aria-hidden="true" d="" pointer-events="none" display="none"/></g></g><g class="mark-group role-scope layer_0_pathgroup" role="graphics-object" aria-roledescription="group mark container"><g transform="translate(0,0)"><path class="background" aria-hidden="true" d="M0,0h720v400h-720Z"/><g><g class="mark-line role-mark layer_0_marks" role="graphics-object" aria-roledescription="line mark container"><path aria-label="Jahr: 2014; Anteil der Bevölkerung (%): 78.7; Kategorie: Internetnutzung" role="graphics-symbol" aria-roledescription="line mark" d="M60,85.2L180,62.4L300,51.2L420,47.6L540,40L660,39.2" stroke="#3b82f6" stroke-width="2" stroke-dasharray=""/></g></g><path class="foreground" aria-hidden="true" d="" display="none"/></g><g transform="translate(0,0)"><path class="background" aria-hidden="true" d="M0,0h720v400h-720Z"/><g><g class="mark-line role-mark layer_0_marks" role="graphics-object" aria-roledescription="line mark container"><path aria-label="Jahr: 2014; Anteil der Bevölkerung (%): 66.6; Kategorie: E-Gov-Nutzung" role="graphics-symbol" aria-roledescription="line mark" d="M60,133.6L180,117.6L300,115.2L420,80.8L540,74L660,92" stroke="#a855f7" stroke-width="2" stroke-dasharray=""/></g></g><path class="foreground" aria-hidden="true" d="" display="none"/></g><g transform="translate(0,0)"><path class="background" aria-hidden="true" d="M0,0h720v400h-720Z"/><g><g class="mark-line role-mark layer_0_marks" role="graphics-object" aria-roledescription="line mark container"><path aria-label="Jahr: 2014; Anteil der Bevölkerung (%): 12.1; Kategorie: Lücke" role="graphics-symbol" aria-roledescription="line mark" d="M60,351.6L180,344.8L300,336L420,366.8L540,366L660,347.2" stroke="#ef4444" stroke-width="2" stroke-dasharray="5,5"/></g></g><path class="foreground" aria-hidden="true" d="" display="none"/></g></g><g class="mark-symbol role-mark layer_1_marks" role="graphics-object" aria-roledescription="symbol mark container"><path aria-label="Jahr: 2014; Anteil der Bevölkerung (%): 78.7; Kategorie: Internetnutzung" role="graphics-symbol" aria-roledescription="point" transform="translate(60,85.19999999999999)" d="M3.873,0A3.873,3.873,0,1,1,-3.873,0A3.873,3.873,0,1,1,3.873,0" fill="#3b82f6" stroke-width="2" stroke-dasharray="" opacity="1"/><path aria-label="Jahr: 2014; Anteil der Bevölkerung (%): 66.6; Kategorie: E-Gov-Nutzung" role="graphics-symbol" aria-roledescription="point" transform="translate(60,133.60000000000002)" d="M3.873,0A3.873,3.873,0,1,1,-3.873,0A3.873,3.873,0,1,1,3.873,0" fill="#a855f7" stroke-width="2" stroke-dasharray="" opacity="1"/><path aria-label="Jahr: 2014; Anteil der Bevölkerung (%): 12.1; Kategorie: Lücke" role="graphics-symbol" aria-roledescription="point" transform="translate(60,351.6)" d="M3.873,0A3.873,3.873,0,1,1,-3.873,0A3.873,3.873,0,1,1,3.873,0" fill="#ef4444" stroke-width="2" stroke-dasharray="5,5" opacity="1"/><path aria-label="Jahr: 2017; Anteil der Bevölkerung (%): 84.4; Kategorie: Internetnutzung" role="graphics-symbol" aria-roledescription="point" transform="translate(180,62.39999999999996)" d="M3.873,0A3.873,3.873,0,1,1,-3.873,0A3.873,3.873,0,1,1,3.873,0" fill="#3b82f6" stroke-width="2" stroke-dasharray="" opacity="1"/><path aria-label="Jahr: 2017; Anteil der Bevölkerung (%): 70.6; Kategorie: E-Gov-Nutzung" role="graphics-symbol" aria-roledescription="point" transform="translate(180,117.60000000000002)" d="M3.873,0A3.873,3.873,0,1,1,-3.873,0A3.873,3.873,0,1,1,3.873,0" fill="#a855f7" stroke-width="2" stroke-dasharray="" opacity="1"/><path aria-label="Jahr: 2017; Anteil der Bevölkerung (%): 13.8; Kategorie: Lücke" role="graphics-symbol" aria-roledescription="point" transform="translate(180,344.8)" d="M3.873,0A3.873,3.873,0,1,1,-3.873,0A3.873,3.873,0,1,1,3.873,0" fill="#ef4444" stroke-width="2" stroke-dasharray="5,5" opacity="1"/><path aria-label="Jahr: 2019; Anteil der Bevölkerung (%): 87.2; Kategorie: Internetnutzung" role="graphics-symbol" aria-roledescription="point" transform="translate(300,51.2)" d="M3.873,0A3.873,3.873,0,1,1,-3.873,0A3.873,3.873,0,1,1,3.873,0" fill="#3b82f6" stroke-width="2" stroke-dasharray="" opacity="1"/><path aria-label="Jahr: 2019; Anteil der Bevölkerung (%): 71.2; Kategorie: E-Gov-Nutzung" role="graphics-symbol" aria-roledescription="point" transform="translate(300,115.19999999999997)" d="M3.873,0A3.873,3.873,0,1,1,-3.873,0A3.873,3.873,0,1,1,3.873,0" fill="#a855f7" stroke-width="2" stroke-dasharray="" opacity="1"/><path aria-label="Jahr: 2019; Anteil der Bevölkerung (%): 16; Kategorie: Lücke" role="graphics-symbol" aria-roledescription="point" transform="translate(300,336)" d="M3.873,0A3.873,3.873,0,1,1,-3.873,0A3.873,3.873,0,1,1,3.873,0" fill="#ef4444" stroke-width="2" stroke-dasharray="5,5" opacity="1"/><path aria-label="Jahr: 2021; Anteil der Bevölkerung (%): 88.1; Kategorie: Internetnutzung" role="graphics-symbol" aria-roledescription="point" transform="translate(420,47.600000000000044)" d="M3.873,0A3.873,3.873,0,1,1,-3.873,0A3.873,3.873,0,1,1,3.873,0" fill="#3b82f6" stroke-width="2" stroke-dasharray="" opacity="1"/><path aria-label="Jahr: 2021; Anteil der Bevölkerung (%): 79.8; Kategorie: E-Gov-Nutzung" role="graphics-symbol" aria-roledescription="point" transform="translate(420,80.80000000000003)" d="M3.873,0A3.873,3.873,0,1,1,-3.873,0A3.873,3.873,0,1,1,3.873,0" fill="#a855f7" stroke-width="2" stroke-dasharray="" opacity="1"/><path aria-label="Jahr: 2021; Anteil der Bevölkerung (%): 8.3; Kategorie: Lücke" role="graphics-symbol" aria-roledescription="point" transform="translate(420,366.8)" d="M3.873,0A3.873,3.873,0,1,1,-3.873,0A3.873,3.873,0,1,1,3.873,0" fill="#ef4444" stroke-width="2" stroke-dasharray="5,5" opacity="1"/><path aria-label="Jahr: 2023; Anteil der Bevölkerung (%): 90; Kategorie: Internetnutzung" role="graphics-symbol" aria-roledescription="point" transform="translate(540,39.99999999999999)" d="M3.873,0A3.873,3.873,0,1,1,-3.873,0A3.873,3.873,0,1,1,3.873,0" fill="#3b82f6" stroke-width="2" stroke-dasharray="" opacity="1"/><path aria-label="Jahr: 2023; Anteil der Bevölkerung (%): 81.5; Kategorie: E-Gov-Nutzung" role="graphics-symbol" aria-roledescription="point" transform="translate(540,74.00000000000003)" d="M3.873,0A3.873,3.873,0,1,1,-3.873,0A3.873,3.873,0,1,1,3.873,0" fill="#a855f7" stroke-width="2" stroke-dasharray="" opacity="1"/><path aria-label="Jahr: 2023; Anteil der Bevölkerung (%): 8.5; Kategorie: Lücke" role="graphics-symbol" aria-roledescription="point" transform="translate(540,366)" d="M3.873,0A3.873,3.873,0,1,1,-3.873,0A3.873,3.873,0,1,1,3.873,0" fill="#ef4444" stroke-width="2" stroke-dasharray="5,5" opacity="1"/><path aria-label="Jahr: 2025; Anteil der Bevölkerung (%): 90.2; Kategorie: Internetnutzung" role="graphics-symbol" aria-roledescription="point" transform="translate(660,39.19999999999999)" d="M3.873,0A3.873,3.873,0,1,1,-3.873,0A3.873,3.873,0,1,1,3.873,0" fill="#3b82f6" stroke-width="2" stroke-dasharray="" opacity="1"/><path aria-label="Jahr: 2025; Anteil der Bevölkerung (%): 77; Kategorie: E-Gov-Nutzung" role="graphics-symbol" aria-roledescription="point" transform="translate(660,92)" d="M3.873,0A3.873,3.873,0,1,1,-3.873,0A3.873,3.873,0,1,1,3.873,0" fill="#a855f7" stroke-width="2" stroke-dasharray="" opacity="1"/><path aria-label="Jahr: 2025; Anteil der Bevölkerung (%): 13.2; Kategorie: Lücke" role="graphics-symbol" aria-roledescription="point" transform="translate(660,347.2)" d="M3.873,0A3.873,3.873,0,1,1,-3.873,0A3.873,3.873,0,1,1,3.873,0" fill="#ef4444" stroke-width="2" stroke-dasharray="5,5" opacity="1"/></g><g class="mark-group role-title"><g transform="translate(360,-22)"><path class="background" aria-hidden="true" d="M0,0h0v0h0Z" pointer-events="none"/><g><g class="mark-text role-title-text" role="graphics-symbol" aria-roledescription="title" aria-label="Title text 'Digitale Bereitschaftslücke: Internetnutzung vs. E-Government-Nutzung'" pointer-events="none"><text text-anchor="middle" transform="translate(0,10)" font-family="Switzer, system-ui, sans-serif" font-size="13px" font-weight="bold" fill="#000" opacity="1">Digitale Bereitschaftslücke: Internetnutzung vs. E-Government-Nutzung</text></g></g><path class="foreground" aria-hidden="true" d="" pointer-events="none" display="none"/></g></g></g><path class="foreground" aria-hidden="true" d="" display="none"/></g></g></g></svg>