<svg xmlns="http://www.w3.org/2000/svg" xmlns:xlink="http://www.w3.org/1999/xlink" version="1.1" class="marks" width="924" height="478" viewBox="0 0 924 478"><rect width="924" height="478" fill="white"/><g fill="none" stroke-miterlimit="10" transform="translate(39,27)"><g class="mark-group role-frame root" role="graphics-object" aria-roledescription="group mark container"><g transform="translate(0,0)"><path class="background" aria-hidden="true" d="M0.5,0.5h720v400h-720Z"/><g><g class="mark-group role-axis" aria-hidden="true"><g transform="translate(0.5,0.5)"><path class="background" aria-hidden="true" d="M0,0h0v0h0Z" pointer-events="none"/><g><g class="mark-rule role-axis-grid" pointer-events="none"><line transform="translate(0,400)" x2="720" y2="0" stroke="#ddd" stroke-width="1" opacity="1"/><line transform="translate(0,367)" x2="720" y2="0" stroke="#ddd" stroke-width="1" opacity="1"/><line transform="translate(0,333)" x2="720" y2="0" stroke="#ddd" stroke-width="1" opacity="1"/><line transform="translate(0,300)" x2="720" y2="0" stroke="#ddd" stroke-width="1" opacity="1"/><line transform="translate(0,267)" x2="720" y2="0" stroke="#ddd" stroke-width="1" opacity="1"/><line transform="translate(0,233)" x2="720" y2="0" stroke="#ddd" stroke-width="1" opacity="1"/><line transform="translate(0,200)" x2="720" y2="0" stroke="#ddd" stroke-width="1" opacity="1"/><line transform="translate(0,167)" x2="720" y2="0" stroke="#ddd" stroke-width="1" opacity="1"/><line transform="translate(0,133)" x2="720" y2="0" stroke="#ddd" stroke-width="1" opacity="1"/><line transform="translate(0,100)" x2="720" y2="0" stroke="#ddd" stroke-width="1" opacity="1"/><line transform="translate(0,67)" x2="720" y2="0" stroke="#ddd" stroke-width="1" opacity="1"/><line transform="translate(0,33)" x2="720" y2="0" stroke="#ddd" stroke-width="1" opacity="1"/><line transform="translate(0,0)" x2="720" y2="0" stroke="#ddd" stroke-width="1" opacity="1"/></g></g><path class="foreground" aria-hidden="true" d="" pointer-events="none" display="none"/></g></g><g class="mark-group role-axis" role="graphics-symbol" aria-roledescription="axis" aria-label="X-axis titled 'Jahr' for a discrete scale with 6 values: 2014, 2017, 2019, 2021, 2023, 2025"><g transform="translate(0.5,400.5)"><path class="background" aria-hidden="true" d="M0,0h0v0h0Z" pointer-events="none"/><g><g class="mark-rule role-axis-tick" pointer-events="none"><line transform="translate(60,0)" x2="0" y2="5" stroke="#888" stroke-width="1" opacity="1"/><line transform="translate(180,0)" x2="0" y2="5" stroke="#888" stroke-width="1" opacity="1"/><line transform="translate(300,0)" x2="0" y2="5" stroke="#888" stroke-width="1" opacity="1"/><line transform="translate(420,0)" x2="0" y2="5" stroke="#888" stroke-width="1" opacity="1"/><line transform="translate(540,0)" x2="0" y2="5" stroke="#888" stroke-width="1" opacity="1"/><line transform="translate(660,0)" x2="0" y2="5" stroke="#888" stroke-width="1" opacity="1"/></g><g class="mark-text role-axis-label" pointer-events="none"><text text-anchor="end" transform="translate(60,7) rotate(270) translate(0,3)" font-family="Switzer, system-ui, sans-serif" font-size="10px" fill="#000" opacity="1">2014</text><text text-anchor="end" transform="translate(180,7) rotate(270) translate(0,3)" font-family="Switzer, system-ui, sans-serif" font-size="10px" fill="#000" opacity="1">2017</text><text text-anchor="end" transform="translate(300,7) rotate(270) translate(0,3)" font-family="Switzer, system-ui, sans-serif" font-size="10px" fill="#000" opacity="1">2019</text><text text-anchor="end" transform="translate(420,7) rotate(270) translate(0,3)" font-family="Switzer, system-ui, sans-serif" font-size="10px" fill="#000" opacity="1">2021</text><text text-anchor="end" transform="translate(540,7) rotate(270) translate(0,3)" font-family="Switzer, system-ui, sans-serif" font-size="10px" fill="#000" opacity="1">2023</text><text text-anchor="end" transform="translate(660,7) rotate(270) translate(0,3)" font-family="Switzer, system-ui, sans-serif" font-size="10px" fill="#000" opacity="1">2025</text></g><g class="mark-rule role-axis-domain" pointer-events="none"><line transform="translate(0,0)" x2="720" y2="0" stroke="#888" stroke-width="1" opacity="1"/></g><g class="mark-text role-axis-title" pointer-events="none"><text text-anchor="middle" transform="translate(360,43.040000915527344)" font-family="Switzer, system-ui, sans-serif" font-size="11px" font-weight="bold" fill="#000" opacity="1">Jahr</text></g></g><path class="foreground" aria-hidden="true" d="" pointer-events="none" display="none"/></g></g><g class="mark-group role-axis" role="graphics-symbol" aria-roledescription="axis" aria-label="Y-axis titled 'Anteil der Bevölkerung (%)' for a linear scale with values from 30 to 90"><g transform="translate(0.5,0.5)"><path class="background" aria-hidden="true" d="M0,0h0v0h0Z" pointer-events="none"/><g><g class="mark-rule role-axis-tick" pointer-events="none"><line transform="translate(0,400)" x2="-5" y2="0" stroke="#888" stroke-width="1" opacity="1"/><line transform="translate(0,367)" x2="-5" y2="0" stroke="#888" stroke-width="1" opacity="1"/><line transform="translate(0,333)" x2="-5" y2="0" stroke="#888" stroke-width="1" opacity="1"/><line transform="translate(0,300)" x2="-5" y2="0" stroke="#888" stroke-width="1" opacity="1"/><line transform="translate(0,267)" x2="-5" y2="0" stroke="#888" stroke-width="1" opacity="1"/><line transform="translate(0,233)" x2="-5" y2="0" stroke="#888" stroke-width="1" opacity="1"/><line transform="translate(0,200)" x2="-5" y2="0" stroke="#888" stroke-width="1" opacity="1"/><line transform="translate(0,167)" x2="-5" y2="0" stroke="#888" stroke-width="1" opacity="1"/><line transform="translate(0,133)" x2="-5" y2="0" stroke="#888" stroke-width="1" opacity="1"/><line transform="translate(0,100)" x2="-5" y2="0" stroke="#888" stroke-width="1" opacity="1"/><line transform="translate(0,67)" x2="-5" y2="0" stroke="#888" stroke-width="1" opacity="1"/><line transform="translate(0,33)" x2="-5" y2="0" stroke="#888" stroke-width="1" opacity="1"/><line transform="translate(0,0)" x2="-5" y2="0" stroke="#888" stroke-width="1" opacity="1"/></g><g class="mark-text role-axis-label" pointer-events="none"><text text-anchor="end" transform="translate(-7,403)" font-family="Switzer, system-ui, sans-serif" font-size="10px" fill="#000" opacity="1">30</text><text text-anchor="end" transform="translate(-7,369.66666666666663)" font-family="Switzer, system-ui, sans-serif" font-size="10px" fill="#000" opacity="1">35</text><text text-anchor="end" transform="translate(-7,336.33333333333337)" font-family="Switzer, system-ui, sans-serif" font-size="10px" fill="#000" opacity="1">40</text><text text-anchor="end" transform="translate(-7,303)" font-family="Switzer, system-ui, sans-serif" font-size="10px" fill="#000" opacity="1">45</text><text text-anchor="end" transform="translate(-7,269.6666666666667)" font-family="Switzer, system-ui, sans-serif" font-size="10px" fill="#000" opacity="1">50</text><text text-anchor="end" transform="translate(-7,236.33333333333331)" font-family="Switzer, system-ui, sans-serif" font-size="10px" fill="#000" opacity="1">55</text><text text-anchor="end" transform="translate(-7,203)" font-family="Switzer, system-ui, sans-serif" font-size="10px" fill="#000" opacity="1">60</text><text text-anchor="end" transform="translate(-7,169.66666666666666)" font-family="Switzer, system-ui, sans-serif" font-size="10px" fill="#000" opacity="1">65</text><text text-anchor="end" transform="translate(-7,136.33333333333334)" font-family="Switzer, system-ui, sans-serif" font-size="10px" fill="#000" opacity="1">70</text><text text-anchor="end" transform="translate(-7,103)" font-family="Switzer, system-ui, sans-serif" font-size="10px" fill="#000" opacity="1">75</text><text text-anchor="end" transform="translate(-7,69.66666666666666)" font-family="Switzer, system-ui, sans-serif" font-size="10px" fill="#000" opacity="1">80</text><text text-anchor="end" transform="translate(-7,36.33333333333335)" font-family="Switzer, system-ui, sans-serif" font-size="10px" fill="#000" opacity="1">85</text><text text-anchor="end" transform="translate(-7,3)" font-family="Switzer, system-ui, sans-serif" font-size="10px" fill="#000" opacity="1">90</text></g><g class="mark-rule role-axis-domain" pointer-events="none"><line transform="translate(0,400)" x2="0" y2="-400" stroke="#888" stroke-width="1" opacity="1"/></g><g class="mark-text role-axis-title" pointer-events="none"><text text-anchor="middle" transform="translate(-22.520000457763672,200) rotate(-90) translate(0,-2)" font-family="Switzer, system-ui, sans-serif" font-size="11px" font-weight="bold" fill="#000" opacity="1">Anteil der Bevölkerung (%)</text></g></g><path class="foreground" aria-hidden="true" d="" pointer-events="none" display="none"/></g></g><g class="mark-group role-scope layer_0_pathgroup" role="graphics-object" aria-roledescription="group mark container"><g transform="translate(0,0)"><path class="background" aria-hidden="true" d="M0,0h720v400h-720Z"/><g><g class="mark-line role-mark layer_0_marks" role="graphics-object" aria-roledescription="line mark container"><path aria-label="Jahr: 2014; Anteil der Bevölkerung (%): 66.6; Indikator: Behördenkontakte (gesamt)" role="graphics-symbol" aria-roledescription="line mark" d="M60,156L180,129.333L300,125.333L420,68L540,56.667L660,86.667" stroke="#a855f7" stroke-width="2"/></g></g><path class="foreground" aria-hidden="true" d="" display="none"/></g><g transform="translate(0,0)"><path class="background" aria-hidden="true" d="M0,0h720v400h-720Z"/><g><g class="mark-line role-mark layer_0_marks" role="graphics-object" aria-roledescription="line mark container"><path aria-label="Jahr: 2014; Anteil der Bevölkerung (%): 58; Indikator: Informationen suchen" role="graphics-symbol" aria-roledescription="line mark" d="M60,213.333L180,176.667L300,176.667L420,119.333L540,118L660,147.333" stroke="#10b981" stroke-width="2"/></g></g><path class="foreground" aria-hidden="true" d="" display="none"/></g><g transform="translate(0,0)"><path class="background" aria-hidden="true" d="M0,0h720v400h-720Z"/><g><g class="mark-line role-mark layer_0_marks" role="graphics-object" aria-roledescription="line mark container"><path aria-label="Jahr: 2014; Anteil der Bevölkerung (%): 46.1; Indikator: Formulare herunterladen" role="graphics-symbol" aria-roledescription="line mark" d="M60,292.667L180,230.667L300,228.667L420,164.667L540,159.333L660,196" stroke="#06b6d4" stroke-width="2"/></g></g><path class="foreground" aria-hidden="true" d="" display="none"/></g><g transform="translate(0,0)"><path class="background" aria-hidden="true" d="M0,0h720v400h-720Z"/><g><g class="mark-line role-mark layer_0_marks" role="graphics-object" aria-roledescription="line mark container"><path aria-label="Jahr: 2014; Anteil der Bevölkerung (%): 40; Indikator: Formulare ausfüllen" role="graphics-symbol" aria-roledescription="line mark" d="M60,333.333L180,334.667L300,316L420,146L540,147.333L660,170" stroke="#3b82f6" stroke-width="2"/></g></g><path class="foreground" aria-hidden="true" d="" display="none"/></g></g><g class="mark-symbol role-mark layer_1_marks" role="graphics-object" aria-roledescription="symbol mark container"><path aria-label="Jahr: 2025; Anteil der Bevölkerung (%): 77; Indikator: Behördenkontakte (gesamt)" role="graphics-symbol" aria-roledescription="point" transform="translate(660,86.66666666666667)" d="M2.739,0A2.739,2.739,0,1,1,-2.739,0A2.739,2.739,0,1,1,2.739,0" fill="#a855f7" stroke-width="2" opacity="1"/><path aria-label="Jahr: 2023; Anteil der Bevölkerung (%): 81.5; Indikator: Behördenkontakte (gesamt)" role="graphics-symbol" aria-roledescription="point" transform="translate(540,56.666666666666686)" d="M2.739,0A2.739,2.739,0,1,1,-2.739,0A2.739,2.739,0,1,1,2.739,0" fill="#a855f7" stroke-width="2" opacity="1"/><path aria-label="Jahr: 2021; Anteil der Bevölkerung (%): 79.8; Indikator: Behördenkontakte (gesamt)" role="graphics-symbol" aria-roledescription="point" transform="translate(420,68.00000000000001)" d="M2.739,0A2.739,2.739,0,1,1,-2.739,0A2.739,2.739,0,1,1,2.739,0" fill="#a855f7" stroke-width="2" opacity="1"/><path aria-label="Jahr: 2019; Anteil der Bevölkerung (%): 71.2; Indikator: Behördenkontakte (gesamt)" role="graphics-symbol" aria-roledescription="point" transform="translate(300,125.3333333333333)" d="M2.739,0A2.739,2.739,0,1,1,-2.739,0A2.739,2.739,0,1,1,2.739,0" fill="#a855f7" stroke-width="2" opacity="1"/><path aria-label="Jahr: 2017; Anteil der Bevölkerung (%): 70.6; Indikator: Behördenkontakte (gesamt)" role="graphics-symbol" aria-roledescription="point" transform="translate(180,129.3333333333334)" d="M2.739,0A2.739,2.739,0,1,1,-2.739,0A2.739,2.739,0,1,1,2.739,0" fill="#a855f7" stroke-width="2" opacity="1"/><path aria-label="Jahr: 2014; Anteil der Bevölkerung (%): 66.6; Indikator: Behördenkontakte (gesamt)" role="graphics-symbol" aria-roledescription="point" transform="translate(60,156.00000000000006)" d="M2.739,0A2.739,2.739,0,1,1,-2.739,0A2.739,2.739,0,1,1,2.739,0" fill="#a855f7" stroke-width="2" opacity="1"/><path aria-label="Jahr: 2025; Anteil der Bevölkerung (%): 67.9; Indikator: Informationen suchen" role="graphics-symbol" aria-roledescription="point" transform="translate(660,147.33333333333331)" d="M2.739,0A2.739,2.739,0,1,1,-2.739,0A2.739,2.739,0,1,1,2.739,0" fill="#10b981" stroke-width="2" opacity="1"/><path aria-label="Jahr: 2023; Anteil der Bevölkerung (%): 72.3; Indikator: Informationen suchen" role="graphics-symbol" aria-roledescription="point" transform="translate(540,118.00000000000001)" d="M2.739,0A2.739,2.739,0,1,1,-2.739,0A2.739,2.739,0,1,1,2.739,0" fill="#10b981" stroke-width="2" opacity="1"/><path aria-label="Jahr: 2021; Anteil der Bevölkerung (%): 72.1; Indikator: Informationen suchen" role="graphics-symbol" aria-roledescription="point" transform="translate(420,119.33333333333339)" d="M2.739,0A2.739,2.739,0,1,1,-2.739,0A2.739,2.739,0,1,1,2.739,0" fill="#10b981" stroke-width="2" opacity="1"/><path aria-label="Jahr: 2019; Anteil der Bevölkerung (%): 63.5; Indikator: Informationen suchen" role="graphics-symbol" aria-roledescription="point" transform="translate(300,176.66666666666666)" d="M2.739,0A2.739,2.739,0,1,1,-2.739,0A2.739,2.739,0,1,1,2.739,0" fill="#10b981" stroke-width="2" opacity="1"/><path aria-label="Jahr: 2017; Anteil der Bevölkerung (%): 63.5; Indikator: Informationen suchen" role="graphics-symbol" aria-roledescription="point" transform="translate(180,176.66666666666666)" d="M2.739,0A2.739,2.739,0,1,1,-2.739,0A2.739,2.739,0,1,1,2.739,0" fill="#10b981" stroke-width="2" opacity="1"/><path aria-label="Jahr: 2014; Anteil der Bevölkerung (%): 58; Indikator: Informationen suchen" role="graphics-symbol" aria-roledescription="point" transform="translate(60,213.33333333333334)" d="M2.739,0A2.739,2.739,0,1,1,-2.739,0A2.739,2.739,0,1,1,2.739,0" fill="#10b981" stroke-width="2" opacity="1"/><path aria-label="Jahr: 2025; Anteil der Bevölkerung (%): 60.6; Indikator: Formulare herunterladen" role="graphics-symbol" aria-roledescription="point" transform="translate(660,196)" d="M2.739,0A2.739,2.739,0,1,1,-2.739,0A2.739,2.739,0,1,1,2.739,0" fill="#06b6d4" stroke-width="2" opacity="1"/><path aria-label="Jahr: 2023; Anteil der Bevölkerung (%): 66.1; Indikator: Formulare herunterladen" role="graphics-symbol" aria-roledescription="point" transform="translate(540,159.33333333333337)" d="M2.739,0A2.739,2.739,0,1,1,-2.739,0A2.739,2.739,0,1,1,2.739,0" fill="#06b6d4" stroke-width="2" opacity="1"/><path aria-label="Jahr: 2021; Anteil der Bevölkerung (%): 65.3; Indikator: Formulare herunterladen" role="graphics-symbol" aria-roledescription="point" transform="translate(420,164.66666666666669)" d="M2.739,0A2.739,2.739,0,1,1,-2.739,0A2.739,2.739,0,1,1,2.739,0" fill="#06b6d4" stroke-width="2" opacity="1"/><path aria-label="Jahr: 2019; Anteil der Bevölkerung (%): 55.7; Indikator: Formulare herunterladen" role="graphics-symbol" aria-roledescription="point" transform="translate(300,228.66666666666663)" d="M2.739,0A2.739,2.739,0,1,1,-2.739,0A2.739,2.739,0,1,1,2.739,0" fill="#06b6d4" stroke-width="2" opacity="1"/><path aria-label="Jahr: 2017; Anteil der Bevölkerung (%): 55.4; Indikator: Formulare herunterladen" role="graphics-symbol" aria-roledescription="point" transform="translate(180,230.66666666666666)" d="M2.739,0A2.739,2.739,0,1,1,-2.739,0A2.739,2.739,0,1,1,2.739,0" fill="#06b6d4" stroke-width="2" opacity="1"/><path aria-label="Jahr: 2014; Anteil der Bevölkerung (%): 46.1; Indikator: Formulare herunterladen" role="graphics-symbol" aria-roledescription="point" transform="translate(60,292.6666666666667)" d="M2.739,0A2.739,2.739,0,1,1,-2.739,0A2.739,2.739,0,1,1,2.739,0" fill="#06b6d4" stroke-width="2" opacity="1"/><path aria-label="Jahr: 2025; Anteil der Bevölkerung (%): 64.5; Indikator: Formulare ausfüllen" role="graphics-symbol" aria-roledescription="point" transform="translate(660,170.00000000000003)" d="M2.739,0A2.739,2.739,0,1,1,-2.739,0A2.739,2.739,0,1,1,2.739,0" fill="#3b82f6" stroke-width="2" opacity="1"/><path aria-label="Jahr: 2023; Anteil der Bevölkerung (%): 67.9; Indikator: Formulare ausfüllen" role="graphics-symbol" aria-roledescription="point" transform="translate(540,147.33333333333331)" d="M2.739,0A2.739,2.739,0,1,1,-2.739,0A2.739,2.739,0,1,1,2.739,0" fill="#3b82f6" stroke-width="2" opacity="1"/><path aria-label="Jahr: 2021; Anteil der Bevölkerung (%): 68.1; Indikator: Formulare ausfüllen" role="graphics-symbol" aria-roledescription="point" transform="translate(420,146.00000000000003)" d="M2.739,0A2.739,2.739,0,1,1,-2.739,0A2.739,2.739,0,1,1,2.739,0" fill="#3b82f6" stroke-width="2" opacity="1"/><path aria-label="Jahr: 2019; Anteil der Bevölkerung (%): 42.6; Indikator: Formulare ausfüllen" role="graphics-symbol" aria-roledescription="point" transform="translate(300,316)" d="M2.739,0A2.739,2.739,0,1,1,-2.739,0A2.739,2.739,0,1,1,2.739,0" fill="#3b82f6" stroke-width="2" opacity="1"/><path aria-label="Jahr: 2017; Anteil der Bevölkerung (%): 39.8; Indikator: Formulare ausfüllen" role="graphics-symbol" aria-roledescription="point" transform="translate(180,334.6666666666667)" d="M2.739,0A2.739,2.739,0,1,1,-2.739,0A2.739,2.739,0,1,1,2.739,0" fill="#3b82f6" stroke-width="2" opacity="1"/><path aria-label="Jahr: 2014; Anteil der Bevölkerung (%): 40; Indikator: Formulare ausfüllen" role="graphics-symbol" aria-roledescription="point" transform="translate(60,333.33333333333337)" d="M2.739,0A2.739,2.739,0,1,1,-2.739,0A2.739,2.739,0,1,1,2.739,0" fill="#3b82f6" stroke-width="2" opacity="1"/></g><g class="mark-group role-legend" role="graphics-symbol" aria-roledescription="legend" aria-label="Symbol legend titled 'Indikator' for fill color and stroke color with 4 values: Behördenkontakte (gesamt), Formulare ausfüllen, Formulare herunterladen, Informationen suchen"><g transform="translate(738,0)"><path class="background" aria-hidden="true" d="M0,0h142v77h-142Z" pointer-events="none"/><g><g class="mark-group role-legend-entry"><g transform="translate(0,16)"><path class="background" aria-hidden="true" d="M0,0h0v0h0Z" pointer-events="none"/><g><g class="mark-group role-scope" role="graphics-object" aria-roledescription="group mark container"><g transform="translate(0,0)"><path class="background" aria-hidden="true" d="M0,0h141.63999938964844v12.5h-141.63999938964844Z" pointer-events="none" opacity="1"/><g><g class="mark-symbol role-legend-symbol" pointer-events="none"><path transform="translate(6,6)" d="M5,0A5,5,0,1,1,-5,0A5,5,0,1,1,5,0" fill="#a855f7" stroke="#a855f7" stroke-width="1.5" opacity="1"/></g><g class="mark-text role-legend-label" pointer-events="none"><text text-anchor="start" transform="translate(16,9)" font-family="Switzer, system-ui, sans-serif" font-size="10px" fill="#000" opacity="1">Behördenkontakte (gesamt)</text></g></g><path class="foreground" aria-hidden="true" d="" pointer-events="none" display="none"/></g><g transform="translate(0,16)"><path class="background" aria-hidden="true" d="M0,0h141.63999938964844v12.5h-141.63999938964844Z" pointer-events="none" opacity="1"/><g><g class="mark-symbol role-legend-symbol" pointer-events="none"><path transform="translate(6,6)" d="M5,0A5,5,0,1,1,-5,0A5,5,0,1,1,5,0" fill="#3b82f6" stroke="#3b82f6" stroke-width="1.5" opacity="1"/></g><g class="mark-text role-legend-label" pointer-events="none"><text text-anchor="start" transform="translate(16,9)" font-family="Switzer, system-ui, sans-serif" font-size="10px" fill="#000" opacity="1">Formulare ausfüllen</text></g></g><path class="foreground" aria-hidden="true" d="" pointer-events="none" display="none"/></g><g transform="translate(0,32)"><path class="background" aria-hidden="true" d="M0,0h141.63999938964844v12.5h-141.63999938964844Z" pointer-events="none" opacity="1"/><g><g class="mark-symbol role-legend-symbol" pointer-events="none"><path transform="translate(6,6)" d="M5,0A5,5,0,1,1,-5,0A5,5,0,1,1,5,0" fill="#06b6d4" stroke="#06b6d4" stroke-width="1.5" opacity="1"/></g><g class="mark-text role-legend-label" pointer-events="none"><text text-anchor="start" transform="translate(16,9)" font-family="Switzer, system-ui, sans-serif" font-size="10px" fill="#000" opacity="1">Formulare herunterladen</text></g></g><path class="foreground" aria-hidden="true" d="" pointer-events="none" display="none"/></g><g transform="translate(0,48)"><path class="background" aria-hidden="true" d="M0,0h141.63999938964844v12.5h-141.63999938964844Z" pointer-events="none" opacity="1"/><g><g class="mark-symbol role-legend-symbol" pointer-events="none"><path transform="translate(6,6)" d="M5,0A5,5,0,1,1,-5,0A5,5,0,1,1,5,0" fill="#10b981" stroke="#10b981" stroke-width="1.5" opacity="1"/></g><g class="mark-text role-legend-label" pointer-events="none"><text text-anchor="start" transform="translate(16,9)" font-family="Switzer, system-ui, sans-serif" font-size="10px" fill="#000" opacity="1">Informationen suchen</text></g></g><path class="foreground" aria-hidden="true" d="" pointer-events="none" display="none"/></g></g></g><path class="foreground" aria-hidden="true" d="" pointer-events="none" display="none"/></g></g><g class="mark-text role-legend-title" pointer-events="none"><text text-anchor="start" transform="translate(0,9)" font-family="Switzer, system-ui, sans-serif" font-size="11px" font-weight="bold" fill="#000" opacity="1">Indikator</text></g></g><path class="foreground" aria-hidden="true" d="" pointer-events="none" display="none"/></g></g><g class="mark-group role-title"><g transform="translate(360,-22)"><path class="background" aria-hidden="true" d="M0,0h0v0h0Z" pointer-events="none"/><g><g class="mark-text role-title-text" role="graphics-symbol" aria-roledescription="title" aria-label="Title text 'E-Government-Nutzung in der Schweiz (BFS Omnibus ICT, 2014–2025)'" pointer-events="none"><text text-anchor="middle" transform="translate(0,10)" font-family="Switzer, system-ui, sans-serif" font-size="13px" font-weight="bold" fill="#000" opacity="1">E-Government-Nutzung in der Schweiz (BFS Omnibus ICT, 2014–2025)</text></g></g><path class="foreground" aria-hidden="true" d="" pointer-events="none" display="none"/></g></g></g><path class="foreground" aria-hidden="true" d="" display="none"/></g></g></g></svg>