<svg xmlns="http://www.w3.org/2000/svg" xmlns:xlink="http://www.w3.org/1999/xlink" version="1.1" class="marks" width="873" height="464" viewBox="0 0 873 464"><rect width="873" height="464" fill="white"/><g fill="none" stroke-miterlimit="10" transform="translate(39,27)"><g class="mark-group role-frame root" role="graphics-object" aria-roledescription="group mark container"><g transform="translate(0,0)"><path class="background" aria-hidden="true" d="M0.5,0.5h720v400h-720Z"/><g><g class="mark-group role-axis" aria-hidden="true"><g transform="translate(0.5,400.5)"><path class="background" aria-hidden="true" d="M0,0h0v0h0Z" pointer-events="none"/><g><g class="mark-rule role-axis-grid" pointer-events="none"><line transform="translate(0,-400)" x2="0" y2="400" stroke="#ddd" stroke-width="1" opacity="1"/><line transform="translate(36,-400)" x2="0" y2="400" stroke="#ddd" stroke-width="1" opacity="1"/><line transform="translate(72,-400)" x2="0" y2="400" stroke="#ddd" stroke-width="1" opacity="1"/><line transform="translate(108,-400)" x2="0" y2="400" stroke="#ddd" stroke-width="1" opacity="1"/><line transform="translate(144,-400)" x2="0" y2="400" stroke="#ddd" stroke-width="1" opacity="1"/><line transform="translate(180,-400)" x2="0" y2="400" stroke="#ddd" stroke-width="1" opacity="1"/><line transform="translate(216,-400)" x2="0" y2="400" stroke="#ddd" stroke-width="1" opacity="1"/><line transform="translate(252,-400)" x2="0" y2="400" stroke="#ddd" stroke-width="1" opacity="1"/><line transform="translate(288,-400)" x2="0" y2="400" stroke="#ddd" stroke-width="1" opacity="1"/><line transform="translate(324,-400)" x2="0" y2="400" stroke="#ddd" stroke-width="1" opacity="1"/><line transform="translate(360,-400)" x2="0" y2="400" stroke="#ddd" stroke-width="1" opacity="1"/><line transform="translate(396,-400)" x2="0" y2="400" stroke="#ddd" stroke-width="1" opacity="1"/><line transform="translate(432,-400)" x2="0" y2="400" stroke="#ddd" stroke-width="1" opacity="1"/><line transform="translate(468,-400)" x2="0" y2="400" stroke="#ddd" stroke-width="1" opacity="1"/><line transform="translate(504,-400)" x2="0" y2="400" stroke="#ddd" stroke-width="1" opacity="1"/><line transform="translate(540,-400)" x2="0" y2="400" stroke="#ddd" stroke-width="1" opacity="1"/><line transform="translate(576,-400)" x2="0" y2="400" stroke="#ddd" stroke-width="1" opacity="1"/><line transform="translate(612,-400)" x2="0" y2="400" stroke="#ddd" stroke-width="1" opacity="1"/><line transform="translate(648,-400)" x2="0" y2="400" stroke="#ddd" stroke-width="1" opacity="1"/><line transform="translate(684,-400)" x2="0" y2="400" stroke="#ddd" stroke-width="1" opacity="1"/><line transform="translate(720,-400)" x2="0" y2="400" stroke="#ddd" stroke-width="1" opacity="1"/></g></g><path class="foreground" aria-hidden="true" d="" pointer-events="none" display="none"/></g></g><g class="mark-group role-axis" aria-hidden="true"><g transform="translate(0.5,0.5)"><path class="background" aria-hidden="true" d="M0,0h0v0h0Z" pointer-events="none"/><g><g class="mark-rule role-axis-grid" pointer-events="none"><line transform="translate(0,400)" x2="720" y2="0" stroke="#ddd" stroke-width="1" opacity="1"/><line transform="translate(0,360)" x2="720" y2="0" stroke="#ddd" stroke-width="1" opacity="1"/><line transform="translate(0,320)" x2="720" y2="0" stroke="#ddd" stroke-width="1" opacity="1"/><line transform="translate(0,280)" x2="720" y2="0" stroke="#ddd" stroke-width="1" opacity="1"/><line transform="translate(0,240)" x2="720" y2="0" stroke="#ddd" stroke-width="1" opacity="1"/><line transform="translate(0,200)" x2="720" y2="0" stroke="#ddd" stroke-width="1" opacity="1"/><line transform="translate(0,160)" x2="720" y2="0" stroke="#ddd" stroke-width="1" opacity="1"/><line transform="translate(0,120)" x2="720" y2="0" stroke="#ddd" stroke-width="1" opacity="1"/><line transform="translate(0,80)" x2="720" y2="0" stroke="#ddd" stroke-width="1" opacity="1"/><line transform="translate(0,40)" x2="720" y2="0" stroke="#ddd" stroke-width="1" opacity="1"/><line transform="translate(0,0)" x2="720" y2="0" stroke="#ddd" stroke-width="1" opacity="1"/></g></g><path class="foreground" aria-hidden="true" d="" pointer-events="none" display="none"/></g></g><g class="mark-group role-axis" role="graphics-symbol" aria-roledescription="axis" aria-label="X-axis titled 'Online-Verfügbarkeit (%)' for a linear scale with values from 60 to 100"><g transform="translate(0.5,400.5)"><path class="background" aria-hidden="true" d="M0,0h0v0h0Z" pointer-events="none"/><g><g class="mark-rule role-axis-tick" pointer-events="none"><line transform="translate(0,0)" x2="0" y2="5" stroke="#888" stroke-width="1" opacity="1"/><line transform="translate(36,0)" x2="0" y2="5" stroke="#888" stroke-width="1" opacity="1"/><line transform="translate(72,0)" x2="0" y2="5" stroke="#888" stroke-width="1" opacity="1"/><line transform="translate(108,0)" x2="0" y2="5" stroke="#888" stroke-width="1" opacity="1"/><line transform="translate(144,0)" x2="0" y2="5" stroke="#888" stroke-width="1" opacity="1"/><line transform="translate(180,0)" x2="0" y2="5" stroke="#888" stroke-width="1" opacity="1"/><line transform="translate(216,0)" x2="0" y2="5" stroke="#888" stroke-width="1" opacity="1"/><line transform="translate(252,0)" x2="0" y2="5" stroke="#888" stroke-width="1" opacity="1"/><line transform="translate(288,0)" x2="0" y2="5" stroke="#888" stroke-width="1" opacity="1"/><line transform="translate(324,0)" x2="0" y2="5" stroke="#888" stroke-width="1" opacity="1"/><line transform="translate(360,0)" x2="0" y2="5" stroke="#888" stroke-width="1" opacity="1"/><line transform="translate(396,0)" x2="0" y2="5" stroke="#888" stroke-width="1" opacity="1"/><line transform="translate(432,0)" x2="0" y2="5" stroke="#888" stroke-width="1" opacity="1"/><line transform="translate(468,0)" x2="0" y2="5" stroke="#888" stroke-width="1" opacity="1"/><line transform="translate(504,0)" x2="0" y2="5" stroke="#888" stroke-width="1" opacity="1"/><line transform="translate(540,0)" x2="0" y2="5" stroke="#888" stroke-width="1" opacity="1"/><line transform="translate(576,0)" x2="0" y2="5" stroke="#888" stroke-width="1" opacity="1"/><line transform="translate(612,0)" x2="0" y2="5" stroke="#888" stroke-width="1" opacity="1"/><line transform="translate(648,0)" x2="0" y2="5" stroke="#888" stroke-width="1" opacity="1"/><line transform="translate(684,0)" x2="0" y2="5" stroke="#888" stroke-width="1" opacity="1"/><line transform="translate(720,0)" x2="0" y2="5" stroke="#888" stroke-width="1" opacity="1"/></g><g class="mark-text role-axis-label" pointer-events="none"><text text-anchor="start" transform="translate(0,15)" font-family="Switzer, system-ui, sans-serif" font-size="10px" fill="#000" opacity="1">60</text><text text-anchor="middle" transform="translate(36,15)" font-family="Switzer, system-ui, sans-serif" font-size="10px" fill="#000" opacity="1">62</text><text text-anchor="middle" transform="translate(72,15)" font-family="Switzer, system-ui, sans-serif" font-size="10px" fill="#000" opacity="1">64</text><text text-anchor="middle" transform="translate(108,15)" font-family="Switzer, system-ui, sans-serif" font-size="10px" fill="#000" opacity="1">66</text><text text-anchor="middle" transform="translate(144,15)" font-family="Switzer, system-ui, sans-serif" font-size="10px" fill="#000" opacity="1">68</text><text text-anchor="middle" transform="translate(180,15)" font-family="Switzer, system-ui, sans-serif" font-size="10px" fill="#000" opacity="1">70</text><text text-anchor="middle" transform="translate(216,15)" font-family="Switzer, system-ui, sans-serif" font-size="10px" fill="#000" opacity="1">72</text><text text-anchor="middle" transform="translate(251.99999999999997,15)" font-family="Switzer, system-ui, sans-serif" font-size="10px" fill="#000" opacity="1">74</text><text text-anchor="middle" transform="translate(288,15)" font-family="Switzer, system-ui, sans-serif" font-size="10px" fill="#000" opacity="1">76</text><text text-anchor="middle" transform="translate(324,15)" font-family="Switzer, system-ui, sans-serif" font-size="10px" fill="#000" opacity="1">78</text><text text-anchor="middle" transform="translate(360,15)" font-family="Switzer, system-ui, sans-serif" font-size="10px" fill="#000" opacity="1">80</text><text text-anchor="middle" transform="translate(396.00000000000006,15)" font-family="Switzer, system-ui, sans-serif" font-size="10px" fill="#000" opacity="1">82</text><text text-anchor="middle" transform="translate(432,15)" font-family="Switzer, system-ui, sans-serif" font-size="10px" fill="#000" opacity="1">84</text><text text-anchor="middle" transform="translate(468,15)" font-family="Switzer, system-ui, sans-serif" font-size="10px" fill="#000" opacity="1">86</text><text text-anchor="middle" transform="translate(503.99999999999994,15)" font-family="Switzer, system-ui, sans-serif" font-size="10px" fill="#000" opacity="1">88</text><text text-anchor="middle" transform="translate(540,15)" font-family="Switzer, system-ui, sans-serif" font-size="10px" fill="#000" opacity="1">90</text><text text-anchor="middle" transform="translate(576,15)" font-family="Switzer, system-ui, sans-serif" font-size="10px" fill="#000" opacity="1">92</text><text text-anchor="middle" transform="translate(612,15)" font-family="Switzer, system-ui, sans-serif" font-size="10px" fill="#000" opacity="1">94</text><text text-anchor="middle" transform="translate(648,15)" font-family="Switzer, system-ui, sans-serif" font-size="10px" fill="#000" opacity="1">96</text><text text-anchor="middle" transform="translate(684,15)" font-family="Switzer, system-ui, sans-serif" font-size="10px" fill="#000" opacity="1">98</text><text text-anchor="end" transform="translate(720,15)" font-family="Switzer, system-ui, sans-serif" font-size="10px" fill="#000" opacity="1">100</text></g><g class="mark-rule role-axis-domain" pointer-events="none"><line transform="translate(0,0)" x2="720" y2="0" stroke="#888" stroke-width="1" opacity="1"/></g><g class="mark-text role-axis-title" pointer-events="none"><text text-anchor="middle" transform="translate(360,30)" font-family="Switzer, system-ui, sans-serif" font-size="11px" font-weight="bold" fill="#000" opacity="1">Online-Verfügbarkeit (%)</text></g></g><path class="foreground" aria-hidden="true" d="" pointer-events="none" display="none"/></g></g><g class="mark-group role-axis" role="graphics-symbol" aria-roledescription="axis" aria-label="Y-axis titled 'Nutzungsrate (%)' for a linear scale with values from 45 to 95"><g transform="translate(0.5,0.5)"><path class="background" aria-hidden="true" d="M0,0h0v0h0Z" pointer-events="none"/><g><g class="mark-rule role-axis-tick" pointer-events="none"><line transform="translate(0,400)" x2="-5" y2="0" stroke="#888" stroke-width="1" opacity="1"/><line transform="translate(0,360)" x2="-5" y2="0" stroke="#888" stroke-width="1" opacity="1"/><line transform="translate(0,320)" x2="-5" y2="0" stroke="#888" stroke-width="1" opacity="1"/><line transform="translate(0,280)" x2="-5" y2="0" stroke="#888" stroke-width="1" opacity="1"/><line transform="translate(0,240)" x2="-5" y2="0" stroke="#888" stroke-width="1" opacity="1"/><line transform="translate(0,200)" x2="-5" y2="0" stroke="#888" stroke-width="1" opacity="1"/><line transform="translate(0,160)" x2="-5" y2="0" stroke="#888" stroke-width="1" opacity="1"/><line transform="translate(0,120)" x2="-5" y2="0" stroke="#888" stroke-width="1" opacity="1"/><line transform="translate(0,80)" x2="-5" y2="0" stroke="#888" stroke-width="1" opacity="1"/><line transform="translate(0,40)" x2="-5" y2="0" stroke="#888" stroke-width="1" opacity="1"/><line transform="translate(0,0)" x2="-5" y2="0" stroke="#888" stroke-width="1" opacity="1"/></g><g class="mark-text role-axis-label" pointer-events="none"><text text-anchor="end" transform="translate(-7,403)" font-family="Switzer, system-ui, sans-serif" font-size="10px" fill="#000" opacity="1">45</text><text text-anchor="end" transform="translate(-7,363)" font-family="Switzer, system-ui, sans-serif" font-size="10px" fill="#000" opacity="1">50</text><text text-anchor="end" transform="translate(-7,323)" font-family="Switzer, system-ui, sans-serif" font-size="10px" fill="#000" opacity="1">55</text><text text-anchor="end" transform="translate(-7,283)" font-family="Switzer, system-ui, sans-serif" font-size="10px" fill="#000" opacity="1">60</text><text text-anchor="end" transform="translate(-7,243)" font-family="Switzer, system-ui, sans-serif" font-size="10px" fill="#000" opacity="1">65</text><text text-anchor="end" transform="translate(-7,203)" font-family="Switzer, system-ui, sans-serif" font-size="10px" fill="#000" opacity="1">70</text><text text-anchor="end" transform="translate(-7,163)" font-family="Switzer, system-ui, sans-serif" font-size="10px" fill="#000" opacity="1">75</text><text text-anchor="end" transform="translate(-7,123.00000000000001)" font-family="Switzer, system-ui, sans-serif" font-size="10px" fill="#000" opacity="1">80</text><text text-anchor="end" transform="translate(-7,82.99999999999999)" font-family="Switzer, system-ui, sans-serif" font-size="10px" fill="#000" opacity="1">85</text><text text-anchor="end" transform="translate(-7,42.99999999999999)" font-family="Switzer, system-ui, sans-serif" font-size="10px" fill="#000" opacity="1">90</text><text text-anchor="end" transform="translate(-7,3)" font-family="Switzer, system-ui, sans-serif" font-size="10px" fill="#000" opacity="1">95</text></g><g class="mark-rule role-axis-domain" pointer-events="none"><line transform="translate(0,400)" x2="0" y2="-400" stroke="#888" stroke-width="1" opacity="1"/></g><g class="mark-text role-axis-title" pointer-events="none"><text text-anchor="middle" transform="translate(-22.520000457763672,200) rotate(-90) translate(0,-2)" font-family="Switzer, system-ui, sans-serif" font-size="11px" font-weight="bold" fill="#000" opacity="1">Nutzungsrate (%)</text></g></g><path class="foreground" aria-hidden="true" d="" pointer-events="none" display="none"/></g></g><g class="mark-symbol role-mark marks" role="graphics-object" aria-roledescription="symbol mark container"><path aria-label="Online-Verfügbarkeit (%): 96; Nutzungsrate (%): 92; Land: Dänemark" role="graphics-symbol" aria-roledescription="point" transform="translate(648,24.00000000000002)" d="M5.477,0A5.477,5.477,0,1,1,-5.477,0A5.477,5.477,0,1,1,5.477,0" fill="#06b6d4" stroke-width="2" opacity="0.7"/><path aria-label="Online-Verfügbarkeit (%): 95; Nutzungsrate (%): 89; Land: Estland" role="graphics-symbol" aria-roledescription="point" transform="translate(630,48)" d="M5.477,0A5.477,5.477,0,1,1,-5.477,0A5.477,5.477,0,1,1,5.477,0" fill="#10b981" stroke-width="2" opacity="0.7"/><path aria-label="Online-Verfügbarkeit (%): 93; Nutzungsrate (%): 88; Land: Finnland" role="graphics-symbol" aria-roledescription="point" transform="translate(594,56.00000000000001)" d="M5.477,0A5.477,5.477,0,1,1,-5.477,0A5.477,5.477,0,1,1,5.477,0" fill="#3b82f6" stroke-width="2" opacity="0.7"/><path aria-label="Online-Verfügbarkeit (%): 88; Nutzungsrate (%): 73; Land: Österreich" role="graphics-symbol" aria-roledescription="point" transform="translate(503.99999999999994,175.99999999999997)" d="M5.477,0A5.477,5.477,0,1,1,-5.477,0A5.477,5.477,0,1,1,5.477,0" fill="#f59e0b" stroke-width="2" opacity="0.7"/><path aria-label="Online-Verfügbarkeit (%): 72; Nutzungsrate (%): 55; Land: Deutschland" role="graphics-symbol" aria-roledescription="point" transform="translate(216,320)" d="M5.477,0A5.477,5.477,0,1,1,-5.477,0A5.477,5.477,0,1,1,5.477,0" fill="#ef4444" stroke-width="2" opacity="0.7"/><path aria-label="Online-Verfügbarkeit (%): 68; Nutzungsrate (%): 63; Land: Schweiz" role="graphics-symbol" aria-roledescription="point" transform="translate(144,256)" d="M5.477,0A5.477,5.477,0,1,1,-5.477,0A5.477,5.477,0,1,1,5.477,0" fill="#a855f7" stroke-width="2" opacity="0.7"/><path aria-label="Online-Verfügbarkeit (%): 81; Nutzungsrate (%): 65; Land: EU-Durchschnitt" role="graphics-symbol" aria-roledescription="point" transform="translate(378,240)" d="M5.477,0A5.477,5.477,0,1,1,-5.477,0A5.477,5.477,0,1,1,5.477,0" fill="#6b7280" stroke-width="2" opacity="0.7"/></g><g class="mark-group role-legend" role="graphics-symbol" aria-roledescription="legend" aria-label="Symbol legend titled 'Land' for fill color with 7 values: Schweiz, EU-Durchschnitt, Dänemark, Estland, Finnland, Österreich, Deutschland"><g transform="translate(738,0)"><path class="background" aria-hidden="true" d="M0,0h91v105h-91Z" pointer-events="none"/><g><g class="mark-group role-legend-entry"><g transform="translate(0,16)"><path class="background" aria-hidden="true" d="M0,0h0v0h0Z" pointer-events="none"/><g><g class="mark-group role-scope" role="graphics-object" aria-roledescription="group mark container"><g transform="translate(0,0)"><path class="background" aria-hidden="true" d="M0,0h90.60000610351562v11h-90.60000610351562Z" pointer-events="none" opacity="1"/><g><g class="mark-symbol role-legend-symbol" pointer-events="none"><path transform="translate(6,6)" d="M5,0A5,5,0,1,1,-5,0A5,5,0,1,1,5,0" fill="#a855f7" stroke-width="1.5" opacity="0.7"/></g><g class="mark-text role-legend-label" pointer-events="none"><text text-anchor="start" transform="translate(16,9)" font-family="Switzer, system-ui, sans-serif" font-size="10px" fill="#000" opacity="1">Schweiz</text></g></g><path class="foreground" aria-hidden="true" d="" pointer-events="none" display="none"/></g><g transform="translate(0,13)"><path class="background" aria-hidden="true" d="M0,0h90.60000610351562v11h-90.60000610351562Z" pointer-events="none" opacity="1"/><g><g class="mark-symbol role-legend-symbol" pointer-events="none"><path transform="translate(6,6)" d="M5,0A5,5,0,1,1,-5,0A5,5,0,1,1,5,0" fill="#6b7280" stroke-width="1.5" opacity="0.7"/></g><g class="mark-text role-legend-label" pointer-events="none"><text text-anchor="start" transform="translate(16,9)" font-family="Switzer, system-ui, sans-serif" font-size="10px" fill="#000" opacity="1">EU-Durchschnitt</text></g></g><path class="foreground" aria-hidden="true" d="" pointer-events="none" display="none"/></g><g transform="translate(0,26)"><path class="background" aria-hidden="true" d="M0,0h90.60000610351562v11h-90.60000610351562Z" pointer-events="none" opacity="1"/><g><g class="mark-symbol role-legend-symbol" pointer-events="none"><path transform="translate(6,6)" d="M5,0A5,5,0,1,1,-5,0A5,5,0,1,1,5,0" fill="#06b6d4" stroke-width="1.5" opacity="0.7"/></g><g class="mark-text role-legend-label" pointer-events="none"><text text-anchor="start" transform="translate(16,9)" font-family="Switzer, system-ui, sans-serif" font-size="10px" fill="#000" opacity="1">Dänemark</text></g></g><path class="foreground" aria-hidden="true" d="" pointer-events="none" display="none"/></g><g transform="translate(0,39)"><path class="background" aria-hidden="true" d="M0,0h90.60000610351562v11h-90.60000610351562Z" pointer-events="none" opacity="1"/><g><g class="mark-symbol role-legend-symbol" pointer-events="none"><path transform="translate(6,6)" d="M5,0A5,5,0,1,1,-5,0A5,5,0,1,1,5,0" fill="#10b981" stroke-width="1.5" opacity="0.7"/></g><g class="mark-text role-legend-label" pointer-events="none"><text text-anchor="start" transform="translate(16,9)" font-family="Switzer, system-ui, sans-serif" font-size="10px" fill="#000" opacity="1">Estland</text></g></g><path class="foreground" aria-hidden="true" d="" pointer-events="none" display="none"/></g><g transform="translate(0,52)"><path class="background" aria-hidden="true" d="M0,0h90.60000610351562v11h-90.60000610351562Z" pointer-events="none" opacity="1"/><g><g class="mark-symbol role-legend-symbol" pointer-events="none"><path transform="translate(6,6)" d="M5,0A5,5,0,1,1,-5,0A5,5,0,1,1,5,0" fill="#3b82f6" stroke-width="1.5" opacity="0.7"/></g><g class="mark-text role-legend-label" pointer-events="none"><text text-anchor="start" transform="translate(16,9)" font-family="Switzer, system-ui, sans-serif" font-size="10px" fill="#000" opacity="1">Finnland</text></g></g><path class="foreground" aria-hidden="true" d="" pointer-events="none" display="none"/></g><g transform="translate(0,65)"><path class="background" aria-hidden="true" d="M0,0h90.60000610351562v11h-90.60000610351562Z" pointer-events="none" opacity="1"/><g><g class="mark-symbol role-legend-symbol" pointer-events="none"><path transform="translate(6,6)" d="M5,0A5,5,0,1,1,-5,0A5,5,0,1,1,5,0" fill="#f59e0b" stroke-width="1.5" opacity="0.7"/></g><g class="mark-text role-legend-label" pointer-events="none"><text text-anchor="start" transform="translate(16,9)" font-family="Switzer, system-ui, sans-serif" font-size="10px" fill="#000" opacity="1">Österreich</text></g></g><path class="foreground" aria-hidden="true" d="" pointer-events="none" display="none"/></g><g transform="translate(0,78)"><path class="background" aria-hidden="true" d="M0,0h90.60000610351562v11h-90.60000610351562Z" pointer-events="none" opacity="1"/><g><g class="mark-symbol role-legend-symbol" pointer-events="none"><path transform="translate(6,6)" d="M5,0A5,5,0,1,1,-5,0A5,5,0,1,1,5,0" fill="#ef4444" stroke-width="1.5" opacity="0.7"/></g><g class="mark-text role-legend-label" pointer-events="none"><text text-anchor="start" transform="translate(16,9)" font-family="Switzer, system-ui, sans-serif" font-size="10px" fill="#000" opacity="1">Deutschland</text></g></g><path class="foreground" aria-hidden="true" d="" pointer-events="none" display="none"/></g></g></g><path class="foreground" aria-hidden="true" d="" pointer-events="none" display="none"/></g></g><g class="mark-text role-legend-title" pointer-events="none"><text text-anchor="start" transform="translate(0,9)" font-family="Switzer, system-ui, sans-serif" font-size="11px" font-weight="bold" fill="#000" opacity="1">Land</text></g></g><path class="foreground" aria-hidden="true" d="" pointer-events="none" display="none"/></g></g><g class="mark-group role-title"><g transform="translate(360,-22)"><path class="background" aria-hidden="true" d="M0,0h0v0h0Z" pointer-events="none"/><g><g class="mark-text role-title-text" role="graphics-symbol" aria-roledescription="title" aria-label="Title text 'E-Government: Schweiz im europäischen Vergleich'" pointer-events="none"><text text-anchor="middle" transform="translate(0,10)" font-family="Switzer, system-ui, sans-serif" font-size="13px" font-weight="bold" fill="#000" opacity="1">E-Government: Schweiz im europäischen Vergleich</text></g></g><path class="foreground" aria-hidden="true" d="" pointer-events="none" display="none"/></g></g></g><path class="foreground" aria-hidden="true" d="" display="none"/></g></g></g></svg>