<svg xmlns="http://www.w3.org/2000/svg" xmlns:xlink="http://www.w3.org/1999/xlink" version="1.1" class="marks" width="915" height="466" viewBox="0 0 915 466"><rect width="915" height="466" fill="white"/><g fill="none" stroke-miterlimit="10" transform="translate(59,27)"><g class="mark-group role-frame root" role="graphics-object" aria-roledescription="group mark container"><g transform="translate(0,0)"><path class="background" aria-hidden="true" d="M0.5,0.5h720v400h-720Z"/><g><g class="mark-group role-axis" aria-hidden="true"><g transform="translate(0.5,0.5)"><path class="background" aria-hidden="true" d="M0,0h0v0h0Z" pointer-events="none"/><g><g class="mark-rule role-axis-grid" pointer-events="none"><line transform="translate(0,400)" x2="720" y2="0" stroke="#ddd" stroke-width="1" opacity="1"/><line transform="translate(0,369)" x2="720" y2="0" stroke="#ddd" stroke-width="1" opacity="1"/><line transform="translate(0,338)" x2="720" y2="0" stroke="#ddd" stroke-width="1" opacity="1"/><line transform="translate(0,308)" x2="720" y2="0" stroke="#ddd" stroke-width="1" opacity="1"/><line transform="translate(0,277)" x2="720" y2="0" stroke="#ddd" stroke-width="1" opacity="1"/><line transform="translate(0,246)" x2="720" y2="0" stroke="#ddd" stroke-width="1" opacity="1"/><line transform="translate(0,215)" x2="720" y2="0" stroke="#ddd" stroke-width="1" opacity="1"/><line transform="translate(0,185)" x2="720" y2="0" stroke="#ddd" stroke-width="1" opacity="1"/><line transform="translate(0,154)" x2="720" y2="0" stroke="#ddd" stroke-width="1" opacity="1"/><line transform="translate(0,123)" x2="720" y2="0" stroke="#ddd" stroke-width="1" opacity="1"/><line transform="translate(0,92)" x2="720" y2="0" stroke="#ddd" stroke-width="1" opacity="1"/><line transform="translate(0,62)" x2="720" y2="0" stroke="#ddd" stroke-width="1" opacity="1"/><line transform="translate(0,31)" x2="720" y2="0" stroke="#ddd" stroke-width="1" opacity="1"/><line transform="translate(0,0)" x2="720" y2="0" stroke="#ddd" stroke-width="1" opacity="1"/></g></g><path class="foreground" aria-hidden="true" d="" pointer-events="none" display="none"/></g></g><g class="mark-group role-axis" role="graphics-symbol" aria-roledescription="axis" aria-label="X-axis titled 'Einkommensdezil' for a discrete scale with 10 values: 1, 2, 3, 4, 5, ending with 10"><g transform="translate(0.5,400.5)"><path class="background" aria-hidden="true" d="M0,0h0v0h0Z" pointer-events="none"/><g><g class="mark-rule role-axis-tick" pointer-events="none"><line transform="translate(42,0)" x2="0" y2="5" stroke="#888" stroke-width="1" opacity="1"/><line transform="translate(112,0)" x2="0" y2="5" stroke="#888" stroke-width="1" opacity="1"/><line transform="translate(183,0)" x2="0" y2="5" stroke="#888" stroke-width="1" opacity="1"/><line transform="translate(254,0)" x2="0" y2="5" stroke="#888" stroke-width="1" opacity="1"/><line transform="translate(324,0)" x2="0" y2="5" stroke="#888" stroke-width="1" opacity="1"/><line transform="translate(395,0)" x2="0" y2="5" stroke="#888" stroke-width="1" opacity="1"/><line transform="translate(465,0)" x2="0" y2="5" stroke="#888" stroke-width="1" opacity="1"/><line transform="translate(536,0)" x2="0" y2="5" stroke="#888" stroke-width="1" opacity="1"/><line transform="translate(607,0)" x2="0" y2="5" stroke="#888" stroke-width="1" opacity="1"/><line transform="translate(677,0)" x2="0" y2="5" stroke="#888" stroke-width="1" opacity="1"/></g><g class="mark-text role-axis-label" pointer-events="none"><text text-anchor="end" transform="translate(41.852941176470594,7) rotate(270) translate(0,3)" font-family="Switzer, system-ui, sans-serif" font-size="10px" fill="#000" opacity="1">1</text><text text-anchor="end" transform="translate(112.44117647058823,7) rotate(270) translate(0,3)" font-family="Switzer, system-ui, sans-serif" font-size="10px" fill="#000" opacity="1">2</text><text text-anchor="end" transform="translate(183.02941176470586,7) rotate(270) translate(0,3)" font-family="Switzer, system-ui, sans-serif" font-size="10px" fill="#000" opacity="1">3</text><text text-anchor="end" transform="translate(253.61764705882354,7) rotate(270) translate(0,3)" font-family="Switzer, system-ui, sans-serif" font-size="10px" fill="#000" opacity="1">4</text><text text-anchor="end" transform="translate(324.20588235294116,7) rotate(270) translate(0,3)" font-family="Switzer, system-ui, sans-serif" font-size="10px" fill="#000" opacity="1">5</text><text text-anchor="end" transform="translate(394.7941176470588,7) rotate(270) translate(0,3)" font-family="Switzer, system-ui, sans-serif" font-size="10px" fill="#000" opacity="1">6</text><text text-anchor="end" transform="translate(465.38235294117646,7) rotate(270) translate(0,3)" font-family="Switzer, system-ui, sans-serif" font-size="10px" fill="#000" opacity="1">7</text><text text-anchor="end" transform="translate(535.970588235294,7) rotate(270) translate(0,3)" font-family="Switzer, system-ui, sans-serif" font-size="10px" fill="#000" opacity="1">8</text><text text-anchor="end" transform="translate(606.5588235294117,7) rotate(270) translate(0,3)" font-family="Switzer, system-ui, sans-serif" font-size="10px" fill="#000" opacity="1">9</text><text text-anchor="end" transform="translate(677.1470588235294,7) rotate(270) translate(0,3)" font-family="Switzer, system-ui, sans-serif" font-size="10px" fill="#000" opacity="1">10</text></g><g class="mark-rule role-axis-domain" pointer-events="none"><line transform="translate(0,0)" x2="720" y2="0" stroke="#888" stroke-width="1" opacity="1"/></g><g class="mark-text role-axis-title" pointer-events="none"><text text-anchor="middle" transform="translate(360,31.520000457763672)" font-family="Switzer, system-ui, sans-serif" font-size="11px" font-weight="bold" fill="#000" opacity="1">Einkommensdezil</text></g></g><path class="foreground" aria-hidden="true" d="" pointer-events="none" display="none"/></g></g><g class="mark-group role-axis" role="graphics-symbol" aria-roledescription="axis" aria-label="Y-axis titled 'CHF/Monat' for a linear scale with values from 0 to 13,000"><g transform="translate(0.5,0.5)"><path class="background" aria-hidden="true" d="M0,0h0v0h0Z" pointer-events="none"/><g><g class="mark-rule role-axis-tick" pointer-events="none"><line transform="translate(0,400)" x2="-5" y2="0" stroke="#888" stroke-width="1" opacity="1"/><line transform="translate(0,369)" x2="-5" y2="0" stroke="#888" stroke-width="1" opacity="1"/><line transform="translate(0,338)" x2="-5" y2="0" stroke="#888" stroke-width="1" opacity="1"/><line transform="translate(0,308)" x2="-5" y2="0" stroke="#888" stroke-width="1" opacity="1"/><line transform="translate(0,277)" x2="-5" y2="0" stroke="#888" stroke-width="1" opacity="1"/><line transform="translate(0,246)" x2="-5" y2="0" stroke="#888" stroke-width="1" opacity="1"/><line transform="translate(0,215)" x2="-5" y2="0" stroke="#888" stroke-width="1" opacity="1"/><line transform="translate(0,185)" x2="-5" y2="0" stroke="#888" stroke-width="1" opacity="1"/><line transform="translate(0,154)" x2="-5" y2="0" stroke="#888" stroke-width="1" opacity="1"/><line transform="translate(0,123)" x2="-5" y2="0" stroke="#888" stroke-width="1" opacity="1"/><line transform="translate(0,92)" x2="-5" y2="0" stroke="#888" stroke-width="1" opacity="1"/><line transform="translate(0,62)" x2="-5" y2="0" stroke="#888" stroke-width="1" opacity="1"/><line transform="translate(0,31)" x2="-5" y2="0" stroke="#888" stroke-width="1" opacity="1"/><line transform="translate(0,0)" x2="-5" y2="0" stroke="#888" stroke-width="1" opacity="1"/></g><g class="mark-text role-axis-label" pointer-events="none"><text text-anchor="end" transform="translate(-7,403)" font-family="Switzer, system-ui, sans-serif" font-size="10px" fill="#000" opacity="1">0</text><text text-anchor="end" transform="translate(-7,372.2307692307692)" font-family="Switzer, system-ui, sans-serif" font-size="10px" fill="#000" opacity="1">1,000</text><text text-anchor="end" transform="translate(-7,341.46153846153845)" font-family="Switzer, system-ui, sans-serif" font-size="10px" fill="#000" opacity="1">2,000</text><text text-anchor="end" transform="translate(-7,310.6923076923077)" font-family="Switzer, system-ui, sans-serif" font-size="10px" fill="#000" opacity="1">3,000</text><text text-anchor="end" transform="translate(-7,279.9230769230769)" font-family="Switzer, system-ui, sans-serif" font-size="10px" fill="#000" opacity="1">4,000</text><text text-anchor="end" transform="translate(-7,249.15384615384616)" font-family="Switzer, system-ui, sans-serif" font-size="10px" fill="#000" opacity="1">5,000</text><text text-anchor="end" transform="translate(-7,218.3846153846154)" font-family="Switzer, system-ui, sans-serif" font-size="10px" fill="#000" opacity="1">6,000</text><text text-anchor="end" transform="translate(-7,187.6153846153846)" font-family="Switzer, system-ui, sans-serif" font-size="10px" fill="#000" opacity="1">7,000</text><text text-anchor="end" transform="translate(-7,156.84615384615384)" font-family="Switzer, system-ui, sans-serif" font-size="10px" fill="#000" opacity="1">8,000</text><text text-anchor="end" transform="translate(-7,126.07692307692308)" font-family="Switzer, system-ui, sans-serif" font-size="10px" fill="#000" opacity="1">9,000</text><text text-anchor="end" transform="translate(-7,95.30769230769229)" font-family="Switzer, system-ui, sans-serif" font-size="10px" fill="#000" opacity="1">10,000</text><text text-anchor="end" transform="translate(-7,64.53846153846155)" font-family="Switzer, system-ui, sans-serif" font-size="10px" fill="#000" opacity="1">11,000</text><text text-anchor="end" transform="translate(-7,33.769230769230745)" font-family="Switzer, system-ui, sans-serif" font-size="10px" fill="#000" opacity="1">12,000</text><text text-anchor="end" transform="translate(-7,3)" font-family="Switzer, system-ui, sans-serif" font-size="10px" fill="#000" opacity="1">13,000</text></g><g class="mark-rule role-axis-domain" pointer-events="none"><line transform="translate(0,400)" x2="0" y2="-400" stroke="#888" stroke-width="1" opacity="1"/></g><g class="mark-text role-axis-title" pointer-events="none"><text text-anchor="middle" transform="translate(-42.08000183105469,200) rotate(-90) translate(0,-2)" font-family="Switzer, system-ui, sans-serif" font-size="11px" font-weight="bold" fill="#000" opacity="1">CHF/Monat</text></g></g><path class="foreground" aria-hidden="true" d="" pointer-events="none" display="none"/></g></g><g class="mark-group role-scope" role="graphics-object" aria-roledescription="group mark container"><g transform="translate(42.352941176470594,361.44615384615383)"><path class="background" aria-hidden="true" d="M4,0L24.235294117647058,0C26.442954215623057,0,28.235294117647058,1.792339902024,28.235294117647058,4L28.235294117647058,38.553846153846166C28.235294117647058,38.553846153846166,28.235294117647058,38.553846153846166,28.235294117647058,38.553846153846166L0,38.553846153846166C0,38.553846153846166,0,38.553846153846166,0,38.553846153846166L0,4C0,1.792339902024,1.792339902024,0,4,0Z"/><g clip-path="url(#clip11)"><g class="mark-group role-scope" role="graphics-object" aria-roledescription="group mark container"><g transform="translate(0,-361.44615384615383)"><path class="background" aria-hidden="true" d="M0,0h28.235294117647058v0h-28.235294117647058Z"/><g><g class="mark-rect role-mark marks" role="graphics-object" aria-roledescription="rect mark container"><path aria-label="Einkommensdezil: 1; CHF/Monat: 1253; Szenario: Status quo" role="graphics-symbol" aria-roledescription="bar" d="M0,361.44615384615383h28.235294117647058v38.553846153846166h-28.235294117647058Z" fill="#a855f7"/></g></g><path class="foreground" aria-hidden="true" d="" display="none"/></g></g></g><path class="foreground" aria-hidden="true" d="" display="none"/></g><g transform="translate(14.117647058823536,284.5230769230769)"><path class="background" aria-hidden="true" d="M4,0L24.235294117647058,0C26.442954215623057,0,28.235294117647058,1.792339902024,28.235294117647058,4L28.235294117647058,115.47692307692307C28.235294117647058,115.47692307692307,28.235294117647058,115.47692307692307,28.235294117647058,115.47692307692307L0,115.47692307692307C0,115.47692307692307,0,115.47692307692307,0,115.47692307692307L0,4C0,1.792339902024,1.792339902024,0,4,0Z"/><g clip-path="url(#clip12)"><g class="mark-group role-scope" role="graphics-object" aria-roledescription="group mark container"><g transform="translate(0,-284.5230769230769)"><path class="background" aria-hidden="true" d="M0,0h28.235294117647058v0h-28.235294117647058Z"/><g><g class="mark-rect role-mark marks" role="graphics-object" aria-roledescription="rect mark container"><path aria-label="Einkommensdezil: 1; CHF/Monat: 3753; Szenario: Mit Grundeinkommen" role="graphics-symbol" aria-roledescription="bar" d="M0,284.5230769230769h28.235294117647058v115.47692307692307h-28.235294117647058Z" fill="#3b82f6"/></g></g><path class="foreground" aria-hidden="true" d="" display="none"/></g></g></g><path class="foreground" aria-hidden="true" d="" display="none"/></g><g transform="translate(112.94117647058823,324.5846153846154)"><path class="background" aria-hidden="true" d="M4,0L24.235294117647058,0C26.442954215623057,0,28.235294117647058,1.792339902024,28.235294117647058,4L28.235294117647058,75.4153846153846C28.235294117647058,75.4153846153846,28.235294117647058,75.4153846153846,28.235294117647058,75.4153846153846L0,75.4153846153846C0,75.4153846153846,0,75.4153846153846,0,75.4153846153846L0,4C0,1.792339902024,1.792339902024,0,4,0Z"/><g clip-path="url(#clip13)"><g class="mark-group role-scope" role="graphics-object" aria-roledescription="group mark container"><g transform="translate(0,-324.5846153846154)"><path class="background" aria-hidden="true" d="M0,0h28.235294117647058v0h-28.235294117647058Z"/><g><g class="mark-rect role-mark marks" role="graphics-object" aria-roledescription="rect mark container"><path aria-label="Einkommensdezil: 2; CHF/Monat: 2451; Szenario: Status quo" role="graphics-symbol" aria-roledescription="bar" d="M0,324.5846153846154h28.235294117647058v75.4153846153846h-28.235294117647058Z" fill="#a855f7"/></g></g><path class="foreground" aria-hidden="true" d="" display="none"/></g></g></g><path class="foreground" aria-hidden="true" d="" display="none"/></g><g transform="translate(84.70588235294117,247.66153846153847)"><path class="background" aria-hidden="true" d="M4,0L24.235294117647058,0C26.442954215623057,0,28.235294117647058,1.792339902024,28.235294117647058,4L28.235294117647058,152.33846153846153C28.235294117647058,152.33846153846153,28.235294117647058,152.33846153846153,28.235294117647058,152.33846153846153L0,152.33846153846153C0,152.33846153846153,0,152.33846153846153,0,152.33846153846153L0,4C0,1.792339902024,1.792339902024,0,4,0Z"/><g clip-path="url(#clip14)"><g class="mark-group role-scope" role="graphics-object" aria-roledescription="group mark container"><g transform="translate(0,-247.66153846153847)"><path class="background" aria-hidden="true" d="M0,0h28.235294117647058v0h-28.235294117647058Z"/><g><g class="mark-rect role-mark marks" role="graphics-object" aria-roledescription="rect mark container"><path aria-label="Einkommensdezil: 2; CHF/Monat: 4951; Szenario: Mit Grundeinkommen" role="graphics-symbol" aria-roledescription="bar" d="M0,247.66153846153847h28.235294117647058v152.33846153846153h-28.235294117647058Z" fill="#3b82f6"/></g></g><path class="foreground" aria-hidden="true" d="" display="none"/></g></g></g><path class="foreground" aria-hidden="true" d="" display="none"/></g><g transform="translate(183.52941176470586,307.8153846153846)"><path class="background" aria-hidden="true" d="M4,0L24.235294117647058,0C26.442954215623057,0,28.235294117647058,1.792339902024,28.235294117647058,4L28.235294117647058,92.18461538461543C28.235294117647058,92.18461538461543,28.235294117647058,92.18461538461543,28.235294117647058,92.18461538461543L0,92.18461538461543C0,92.18461538461543,0,92.18461538461543,0,92.18461538461543L0,4C0,1.792339902024,1.792339902024,0,4,0Z"/><g clip-path="url(#clip15)"><g class="mark-group role-scope" role="graphics-object" aria-roledescription="group mark container"><g transform="translate(0,-307.8153846153846)"><path class="background" aria-hidden="true" d="M0,0h28.235294117647058v0h-28.235294117647058Z"/><g><g class="mark-rect role-mark marks" role="graphics-object" aria-roledescription="rect mark container"><path aria-label="Einkommensdezil: 3; CHF/Monat: 2996; Szenario: Status quo" role="graphics-symbol" aria-roledescription="bar" d="M0,307.8153846153846h28.235294117647058v92.18461538461543h-28.235294117647058Z" fill="#a855f7"/></g></g><path class="foreground" aria-hidden="true" d="" display="none"/></g></g></g><path class="foreground" aria-hidden="true" d="" display="none"/></g><g transform="translate(155.2941176470588,230.8923076923077)"><path class="background" aria-hidden="true" d="M4,0L24.235294117647058,0C26.442954215623057,0,28.235294117647058,1.792339902024,28.235294117647058,4L28.235294117647058,169.1076923076923C28.235294117647058,169.1076923076923,28.235294117647058,169.1076923076923,28.235294117647058,169.1076923076923L0,169.1076923076923C0,169.1076923076923,0,169.1076923076923,0,169.1076923076923L0,4C0,1.792339902024,1.792339902024,0,4,0Z"/><g clip-path="url(#clip16)"><g class="mark-group role-scope" role="graphics-object" aria-roledescription="group mark container"><g transform="translate(0,-230.8923076923077)"><path class="background" aria-hidden="true" d="M0,0h28.235294117647058v0h-28.235294117647058Z"/><g><g class="mark-rect role-mark marks" role="graphics-object" aria-roledescription="rect mark container"><path aria-label="Einkommensdezil: 3; CHF/Monat: 5496; Szenario: Mit Grundeinkommen" role="graphics-symbol" aria-roledescription="bar" d="M0,230.8923076923077h28.235294117647058v169.1076923076923h-28.235294117647058Z" fill="#3b82f6"/></g></g><path class="foreground" aria-hidden="true" d="" display="none"/></g></g></g><path class="foreground" aria-hidden="true" d="" display="none"/></g><g transform="translate(254.11764705882354,294.6461538461539)"><path class="background" aria-hidden="true" d="M4,0L24.235294117647058,0C26.442954215623057,0,28.235294117647058,1.792339902024,28.235294117647058,4L28.235294117647058,105.35384615384612C28.235294117647058,105.35384615384612,28.235294117647058,105.35384615384612,28.235294117647058,105.35384615384612L0,105.35384615384612C0,105.35384615384612,0,105.35384615384612,0,105.35384615384612L0,4C0,1.792339902024,1.792339902024,0,4,0Z"/><g clip-path="url(#clip17)"><g class="mark-group role-scope" role="graphics-object" aria-roledescription="group mark container"><g transform="translate(0,-294.6461538461539)"><path class="background" aria-hidden="true" d="M0,0h28.235294117647058v0h-28.235294117647058Z"/><g><g class="mark-rect role-mark marks" role="graphics-object" aria-roledescription="rect mark container"><path aria-label="Einkommensdezil: 4; CHF/Monat: 3424; Szenario: Status quo" role="graphics-symbol" aria-roledescription="bar" d="M0,294.6461538461539h28.235294117647058v105.35384615384612h-28.235294117647058Z" fill="#a855f7"/></g></g><path class="foreground" aria-hidden="true" d="" display="none"/></g></g></g><path class="foreground" aria-hidden="true" d="" display="none"/></g><g transform="translate(225.88235294117646,217.72307692307695)"><path class="background" aria-hidden="true" d="M4,0L24.235294117647058,0C26.442954215623057,0,28.235294117647058,1.792339902024,28.235294117647058,4L28.235294117647058,182.27692307692305C28.235294117647058,182.27692307692305,28.235294117647058,182.27692307692305,28.235294117647058,182.27692307692305L0,182.27692307692305C0,182.27692307692305,0,182.27692307692305,0,182.27692307692305L0,4C0,1.792339902024,1.792339902024,0,4,0Z"/><g clip-path="url(#clip18)"><g class="mark-group role-scope" role="graphics-object" aria-roledescription="group mark container"><g transform="translate(0,-217.72307692307695)"><path class="background" aria-hidden="true" d="M0,0h28.235294117647058v0h-28.235294117647058Z"/><g><g class="mark-rect role-mark marks" role="graphics-object" aria-roledescription="rect mark container"><path aria-label="Einkommensdezil: 4; CHF/Monat: 5924; Szenario: Mit Grundeinkommen" role="graphics-symbol" aria-roledescription="bar" d="M0,217.72307692307695h28.235294117647058v182.27692307692305h-28.235294117647058Z" fill="#3b82f6"/></g></g><path class="foreground" aria-hidden="true" d="" display="none"/></g></g></g><path class="foreground" aria-hidden="true" d="" display="none"/></g><g transform="translate(324.70588235294116,278.4307692307692)"><path class="background" aria-hidden="true" d="M4,0L24.235294117647058,0C26.442954215623057,0,28.235294117647058,1.792339902024,28.235294117647058,4L28.235294117647058,121.56923076923078C28.235294117647058,121.56923076923078,28.235294117647058,121.56923076923078,28.235294117647058,121.56923076923078L0,121.56923076923078C0,121.56923076923078,0,121.56923076923078,0,121.56923076923078L0,4C0,1.792339902024,1.792339902024,0,4,0Z"/><g clip-path="url(#clip19)"><g class="mark-group role-scope" role="graphics-object" aria-roledescription="group mark container"><g transform="translate(0,-278.4307692307692)"><path class="background" aria-hidden="true" d="M0,0h28.235294117647058v0h-28.235294117647058Z"/><g><g class="mark-rect role-mark marks" role="graphics-object" aria-roledescription="rect mark container"><path aria-label="Einkommensdezil: 5; CHF/Monat: 3951; Szenario: Status quo" role="graphics-symbol" aria-roledescription="bar" d="M0,278.4307692307692h28.235294117647058v121.56923076923078h-28.235294117647058Z" fill="#a855f7"/></g></g><path class="foreground" aria-hidden="true" d="" display="none"/></g></g></g><path class="foreground" aria-hidden="true" d="" display="none"/></g><g transform="translate(296.4705882352941,201.5076923076923)"><path class="background" aria-hidden="true" d="M4,0L24.235294117647058,0C26.442954215623057,0,28.235294117647058,1.792339902024,28.235294117647058,4L28.235294117647058,198.4923076923077C28.235294117647058,198.4923076923077,28.235294117647058,198.4923076923077,28.235294117647058,198.4923076923077L0,198.4923076923077C0,198.4923076923077,0,198.4923076923077,0,198.4923076923077L0,4C0,1.792339902024,1.792339902024,0,4,0Z"/><g clip-path="url(#clip20)"><g class="mark-group role-scope" role="graphics-object" aria-roledescription="group mark container"><g transform="translate(0,-201.5076923076923)"><path class="background" aria-hidden="true" d="M0,0h28.235294117647058v0h-28.235294117647058Z"/><g><g class="mark-rect role-mark marks" role="graphics-object" aria-roledescription="rect mark container"><path aria-label="Einkommensdezil: 5; CHF/Monat: 6451; Szenario: Mit Grundeinkommen" role="graphics-symbol" aria-roledescription="bar" d="M0,201.5076923076923h28.235294117647058v198.4923076923077h-28.235294117647058Z" fill="#3b82f6"/></g></g><path class="foreground" aria-hidden="true" d="" display="none"/></g></g></g><path class="foreground" aria-hidden="true" d="" display="none"/></g><g transform="translate(395.2941176470588,261.81538461538463)"><path class="background" aria-hidden="true" d="M4,0L24.235294117647058,0C26.442954215623057,0,28.235294117647058,1.792339902024,28.235294117647058,4L28.235294117647058,138.18461538461537C28.235294117647058,138.18461538461537,28.235294117647058,138.18461538461537,28.235294117647058,138.18461538461537L0,138.18461538461537C0,138.18461538461537,0,138.18461538461537,0,138.18461538461537L0,4C0,1.792339902024,1.792339902024,0,4,0Z"/><g clip-path="url(#clip21)"><g class="mark-group role-scope" role="graphics-object" aria-roledescription="group mark container"><g transform="translate(0,-261.81538461538463)"><path class="background" aria-hidden="true" d="M0,0h28.235294117647058v0h-28.235294117647058Z"/><g><g class="mark-rect role-mark marks" role="graphics-object" aria-roledescription="rect mark container"><path aria-label="Einkommensdezil: 6; CHF/Monat: 4491; Szenario: Status quo" role="graphics-symbol" aria-roledescription="bar" d="M0,261.81538461538463h28.235294117647058v138.18461538461537h-28.235294117647058Z" fill="#a855f7"/></g></g><path class="foreground" aria-hidden="true" d="" display="none"/></g></g></g><path class="foreground" aria-hidden="true" d="" display="none"/></g><g transform="translate(367.0588235294117,184.8923076923077)"><path class="background" aria-hidden="true" d="M4,0L24.235294117647058,0C26.442954215623057,0,28.235294117647058,1.792339902024,28.235294117647058,4L28.235294117647058,215.1076923076923C28.235294117647058,215.1076923076923,28.235294117647058,215.1076923076923,28.235294117647058,215.1076923076923L0,215.1076923076923C0,215.1076923076923,0,215.1076923076923,0,215.1076923076923L0,4C0,1.792339902024,1.792339902024,0,4,0Z"/><g clip-path="url(#clip22)"><g class="mark-group role-scope" role="graphics-object" aria-roledescription="group mark container"><g transform="translate(0,-184.8923076923077)"><path class="background" aria-hidden="true" d="M0,0h28.235294117647058v0h-28.235294117647058Z"/><g><g class="mark-rect role-mark marks" role="graphics-object" aria-roledescription="rect mark container"><path aria-label="Einkommensdezil: 6; CHF/Monat: 6991; Szenario: Mit Grundeinkommen" role="graphics-symbol" aria-roledescription="bar" d="M0,184.8923076923077h28.235294117647058v215.1076923076923h-28.235294117647058Z" fill="#3b82f6"/></g></g><path class="foreground" aria-hidden="true" d="" display="none"/></g></g></g><path class="foreground" aria-hidden="true" d="" display="none"/></g><g transform="translate(465.88235294117646,245.32307692307694)"><path class="background" aria-hidden="true" d="M4,0L24.235294117647058,0C26.442954215623057,0,28.235294117647058,1.792339902024,28.235294117647058,4L28.235294117647058,154.67692307692306C28.235294117647058,154.67692307692306,28.235294117647058,154.67692307692306,28.235294117647058,154.67692307692306L0,154.67692307692306C0,154.67692307692306,0,154.67692307692306,0,154.67692307692306L0,4C0,1.792339902024,1.792339902024,0,4,0Z"/><g clip-path="url(#clip23)"><g class="mark-group role-scope" role="graphics-object" aria-roledescription="group mark container"><g transform="translate(0,-245.32307692307694)"><path class="background" aria-hidden="true" d="M0,0h28.235294117647058v0h-28.235294117647058Z"/><g><g class="mark-rect role-mark marks" role="graphics-object" aria-roledescription="rect mark container"><path aria-label="Einkommensdezil: 7; CHF/Monat: 5027; Szenario: Status quo" role="graphics-symbol" aria-roledescription="bar" d="M0,245.32307692307694h28.235294117647058v154.67692307692306h-28.235294117647058Z" fill="#a855f7"/></g></g><path class="foreground" aria-hidden="true" d="" display="none"/></g></g></g><path class="foreground" aria-hidden="true" d="" display="none"/></g><g transform="translate(437.6470588235294,168.4)"><path class="background" aria-hidden="true" d="M4,0L24.235294117647058,0C26.442954215623057,0,28.235294117647058,1.792339902024,28.235294117647058,4L28.235294117647058,231.6C28.235294117647058,231.6,28.235294117647058,231.6,28.235294117647058,231.6L0,231.6C0,231.6,0,231.6,0,231.6L0,4C0,1.792339902024,1.792339902024,0,4,0Z"/><g clip-path="url(#clip24)"><g class="mark-group role-scope" role="graphics-object" aria-roledescription="group mark container"><g transform="translate(0,-168.4)"><path class="background" aria-hidden="true" d="M0,0h28.235294117647058v0h-28.235294117647058Z"/><g><g class="mark-rect role-mark marks" role="graphics-object" aria-roledescription="rect mark container"><path aria-label="Einkommensdezil: 7; CHF/Monat: 7527; Szenario: Mit Grundeinkommen" role="graphics-symbol" aria-roledescription="bar" d="M0,168.4h28.235294117647058v231.6h-28.235294117647058Z" fill="#3b82f6"/></g></g><path class="foreground" aria-hidden="true" d="" display="none"/></g></g></g><path class="foreground" aria-hidden="true" d="" display="none"/></g><g transform="translate(536.470588235294,222.3692307692308)"><path class="background" aria-hidden="true" d="M4,0L24.235294117647058,0C26.442954215623057,0,28.235294117647058,1.792339902024,28.235294117647058,4L28.235294117647058,177.6307692307692C28.235294117647058,177.6307692307692,28.235294117647058,177.6307692307692,28.235294117647058,177.6307692307692L0,177.6307692307692C0,177.6307692307692,0,177.6307692307692,0,177.6307692307692L0,4C0,1.792339902024,1.792339902024,0,4,0Z"/><g clip-path="url(#clip25)"><g class="mark-group role-scope" role="graphics-object" aria-roledescription="group mark container"><g transform="translate(0,-222.3692307692308)"><path class="background" aria-hidden="true" d="M0,0h28.235294117647058v0h-28.235294117647058Z"/><g><g class="mark-rect role-mark marks" role="graphics-object" aria-roledescription="rect mark container"><path aria-label="Einkommensdezil: 8; CHF/Monat: 5773; Szenario: Status quo" role="graphics-symbol" aria-roledescription="bar" d="M0,222.3692307692308h28.235294117647058v177.6307692307692h-28.235294117647058Z" fill="#a855f7"/></g></g><path class="foreground" aria-hidden="true" d="" display="none"/></g></g></g><path class="foreground" aria-hidden="true" d="" display="none"/></g><g transform="translate(508.235294117647,145.44615384615383)"><path class="background" aria-hidden="true" d="M4,0L24.235294117647058,0C26.442954215623057,0,28.235294117647058,1.792339902024,28.235294117647058,4L28.235294117647058,254.55384615384617C28.235294117647058,254.55384615384617,28.235294117647058,254.55384615384617,28.235294117647058,254.55384615384617L0,254.55384615384617C0,254.55384615384617,0,254.55384615384617,0,254.55384615384617L0,4C0,1.792339902024,1.792339902024,0,4,0Z"/><g clip-path="url(#clip26)"><g class="mark-group role-scope" role="graphics-object" aria-roledescription="group mark container"><g transform="translate(0,-145.44615384615383)"><path class="background" aria-hidden="true" d="M0,0h28.235294117647058v0h-28.235294117647058Z"/><g><g class="mark-rect role-mark marks" role="graphics-object" aria-roledescription="rect mark container"><path aria-label="Einkommensdezil: 8; CHF/Monat: 8273; Szenario: Mit Grundeinkommen" role="graphics-symbol" aria-roledescription="bar" d="M0,145.44615384615383h28.235294117647058v254.55384615384617h-28.235294117647058Z" fill="#3b82f6"/></g></g><path class="foreground" aria-hidden="true" d="" display="none"/></g></g></g><path class="foreground" aria-hidden="true" d="" display="none"/></g><g transform="translate(607.0588235294117,191.56923076923076)"><path class="background" aria-hidden="true" d="M4,0L24.235294117647058,0C26.442954215623057,0,28.235294117647058,1.792339902024,28.235294117647058,4L28.235294117647058,208.43076923076924C28.235294117647058,208.43076923076924,28.235294117647058,208.43076923076924,28.235294117647058,208.43076923076924L0,208.43076923076924C0,208.43076923076924,0,208.43076923076924,0,208.43076923076924L0,4C0,1.792339902024,1.792339902024,0,4,0Z"/><g clip-path="url(#clip27)"><g class="mark-group role-scope" role="graphics-object" aria-roledescription="group mark container"><g transform="translate(0,-191.56923076923076)"><path class="background" aria-hidden="true" d="M0,0h28.235294117647058v0h-28.235294117647058Z"/><g><g class="mark-rect role-mark marks" role="graphics-object" aria-roledescription="rect mark container"><path aria-label="Einkommensdezil: 9; CHF/Monat: 6774; Szenario: Status quo" role="graphics-symbol" aria-roledescription="bar" d="M0,191.56923076923076h28.235294117647058v208.43076923076924h-28.235294117647058Z" fill="#a855f7"/></g></g><path class="foreground" aria-hidden="true" d="" display="none"/></g></g></g><path class="foreground" aria-hidden="true" d="" display="none"/></g><g transform="translate(578.8235294117646,114.64615384615384)"><path class="background" aria-hidden="true" d="M4,0L24.235294117647058,0C26.442954215623057,0,28.235294117647058,1.792339902024,28.235294117647058,4L28.235294117647058,285.3538461538462C28.235294117647058,285.3538461538462,28.235294117647058,285.3538461538462,28.235294117647058,285.3538461538462L0,285.3538461538462C0,285.3538461538462,0,285.3538461538462,0,285.3538461538462L0,4C0,1.792339902024,1.792339902024,0,4,0Z"/><g clip-path="url(#clip28)"><g class="mark-group role-scope" role="graphics-object" aria-roledescription="group mark container"><g transform="translate(0,-114.64615384615384)"><path class="background" aria-hidden="true" d="M0,0h28.235294117647058v0h-28.235294117647058Z"/><g><g class="mark-rect role-mark marks" role="graphics-object" aria-roledescription="rect mark container"><path aria-label="Einkommensdezil: 9; CHF/Monat: 9274; Szenario: Mit Grundeinkommen" role="graphics-symbol" aria-roledescription="bar" d="M0,114.64615384615384h28.235294117647058v285.3538461538462h-28.235294117647058Z" fill="#3b82f6"/></g></g><path class="foreground" aria-hidden="true" d="" display="none"/></g></g></g><path class="foreground" aria-hidden="true" d="" display="none"/></g><g transform="translate(677.6470588235294,78.46153846153845)"><path class="background" aria-hidden="true" d="M4,0L24.235294117647058,0C26.442954215623057,0,28.235294117647058,1.792339902024,28.235294117647058,4L28.235294117647058,321.53846153846155C28.235294117647058,321.53846153846155,28.235294117647058,321.53846153846155,28.235294117647058,321.53846153846155L0,321.53846153846155C0,321.53846153846155,0,321.53846153846155,0,321.53846153846155L0,4C0,1.792339902024,1.792339902024,0,4,0Z"/><g clip-path="url(#clip29)"><g class="mark-group role-scope" role="graphics-object" aria-roledescription="group mark container"><g transform="translate(0,-78.46153846153845)"><path class="background" aria-hidden="true" d="M0,0h28.235294117647058v0h-28.235294117647058Z"/><g><g class="mark-rect role-mark marks" role="graphics-object" aria-roledescription="rect mark container"><path aria-label="Einkommensdezil: 10; CHF/Monat: 10450; Szenario: Status quo" role="graphics-symbol" aria-roledescription="bar" d="M0,78.46153846153845h28.235294117647058v321.53846153846155h-28.235294117647058Z" fill="#a855f7"/></g></g><path class="foreground" aria-hidden="true" d="" display="none"/></g></g></g><path class="foreground" aria-hidden="true" d="" display="none"/></g><g transform="translate(649.4117647058823,1.538461538461533)"><path class="background" aria-hidden="true" d="M4,0L24.235294117647058,0C26.442954215623057,0,28.235294117647058,1.792339902024,28.235294117647058,4L28.235294117647058,398.46153846153845C28.235294117647058,398.46153846153845,28.235294117647058,398.46153846153845,28.235294117647058,398.46153846153845L0,398.46153846153845C0,398.46153846153845,0,398.46153846153845,0,398.46153846153845L0,4C0,1.792339902024,1.792339902024,0,4,0Z"/><g clip-path="url(#clip30)"><g class="mark-group role-scope" role="graphics-object" aria-roledescription="group mark container"><g transform="translate(0,-1.538461538461533)"><path class="background" aria-hidden="true" d="M0,0h28.235294117647058v0h-28.235294117647058Z"/><g><g class="mark-rect role-mark marks" role="graphics-object" aria-roledescription="rect mark container"><path aria-label="Einkommensdezil: 10; CHF/Monat: 12950; Szenario: Mit Grundeinkommen" role="graphics-symbol" aria-roledescription="bar" d="M0,1.538461538461533h28.235294117647058v398.46153846153845h-28.235294117647058Z" fill="#3b82f6"/></g></g><path class="foreground" aria-hidden="true" d="" display="none"/></g></g></g><path class="foreground" aria-hidden="true" d="" display="none"/></g></g><g class="mark-group role-legend" role="graphics-symbol" aria-roledescription="legend" aria-label="Symbol legend titled 'Szenario' for fill color with 2 values: Mit Grundeinkommen, Status quo"><g transform="translate(738,0)"><path class="background" aria-hidden="true" d="M0,0h113v40h-113Z" pointer-events="none"/><g><g class="mark-group role-legend-entry"><g transform="translate(0,16)"><path class="background" aria-hidden="true" d="M0,0h0v0h0Z" pointer-events="none"/><g><g class="mark-group role-scope" role="graphics-object" aria-roledescription="group mark container"><g transform="translate(0,0)"><path class="background" aria-hidden="true" d="M0,0h112.84000396728516v11h-112.84000396728516Z" pointer-events="none" opacity="1"/><g><g class="mark-symbol role-legend-symbol" pointer-events="none"><path transform="translate(6,6)" d="M-5,-5h10v10h-10Z" fill="#3b82f6" stroke-width="1.5" opacity="1"/></g><g class="mark-text role-legend-label" pointer-events="none"><text text-anchor="start" transform="translate(16,9)" font-family="Switzer, system-ui, sans-serif" font-size="10px" fill="#000" opacity="1">Mit Grundeinkommen</text></g></g><path class="foreground" aria-hidden="true" d="" pointer-events="none" display="none"/></g><g transform="translate(0,13)"><path class="background" aria-hidden="true" d="M0,0h112.84000396728516v11h-112.84000396728516Z" pointer-events="none" opacity="1"/><g><g class="mark-symbol role-legend-symbol" pointer-events="none"><path transform="translate(6,6)" d="M-5,-5h10v10h-10Z" fill="#a855f7" stroke-width="1.5" opacity="1"/></g><g class="mark-text role-legend-label" pointer-events="none"><text text-anchor="start" transform="translate(16,9)" font-family="Switzer, system-ui, sans-serif" font-size="10px" fill="#000" opacity="1">Status quo</text></g></g><path class="foreground" aria-hidden="true" d="" pointer-events="none" display="none"/></g></g></g><path class="foreground" aria-hidden="true" d="" pointer-events="none" display="none"/></g></g><g class="mark-text role-legend-title" pointer-events="none"><text text-anchor="start" transform="translate(0,9)" font-family="Switzer, system-ui, sans-serif" font-size="11px" font-weight="bold" fill="#000" opacity="1">Szenario</text></g></g><path class="foreground" aria-hidden="true" d="" pointer-events="none" display="none"/></g></g><g class="mark-group role-title"><g transform="translate(360,-22)"><path class="background" aria-hidden="true" d="M0,0h0v0h0Z" pointer-events="none"/><g><g class="mark-text role-title-text" role="graphics-symbol" aria-roledescription="title" aria-label="Title text 'Geschätztes Monatseinkommen: Status quo vs. Grundeinkommen (CHF 2'500/Mt)'" pointer-events="none"><text text-anchor="middle" transform="translate(0,10)" font-family="Switzer, system-ui, sans-serif" font-size="13px" font-weight="bold" fill="#000" opacity="1">Geschätztes Monatseinkommen: Status quo vs. Grundeinkommen (CHF 2'500/Mt)</text></g></g><path class="foreground" aria-hidden="true" d="" pointer-events="none" display="none"/></g></g></g><path class="foreground" aria-hidden="true" d="" display="none"/></g></g></g><defs><clipPath id="clip11"><path d="M4,0L24.235294117647058,0C26.442954215623057,0,28.235294117647058,1.792339902024,28.235294117647058,4L28.235294117647058,38.553846153846166C28.235294117647058,38.553846153846166,28.235294117647058,38.553846153846166,28.235294117647058,38.553846153846166L0,38.553846153846166C0,38.553846153846166,0,38.553846153846166,0,38.553846153846166L0,4C0,1.792339902024,1.792339902024,0,4,0Z"/></clipPath><clipPath id="clip12"><path d="M4,0L24.235294117647058,0C26.442954215623057,0,28.235294117647058,1.792339902024,28.235294117647058,4L28.235294117647058,115.47692307692307C28.235294117647058,115.47692307692307,28.235294117647058,115.47692307692307,28.235294117647058,115.47692307692307L0,115.47692307692307C0,115.47692307692307,0,115.47692307692307,0,115.47692307692307L0,4C0,1.792339902024,1.792339902024,0,4,0Z"/></clipPath><clipPath id="clip13"><path d="M4,0L24.235294117647058,0C26.442954215623057,0,28.235294117647058,1.792339902024,28.235294117647058,4L28.235294117647058,75.4153846153846C28.235294117647058,75.4153846153846,28.235294117647058,75.4153846153846,28.235294117647058,75.4153846153846L0,75.4153846153846C0,75.4153846153846,0,75.4153846153846,0,75.4153846153846L0,4C0,1.792339902024,1.792339902024,0,4,0Z"/></clipPath><clipPath id="clip14"><path d="M4,0L24.235294117647058,0C26.442954215623057,0,28.235294117647058,1.792339902024,28.235294117647058,4L28.235294117647058,152.33846153846153C28.235294117647058,152.33846153846153,28.235294117647058,152.33846153846153,28.235294117647058,152.33846153846153L0,152.33846153846153C0,152.33846153846153,0,152.33846153846153,0,152.33846153846153L0,4C0,1.792339902024,1.792339902024,0,4,0Z"/></clipPath><clipPath id="clip15"><path d="M4,0L24.235294117647058,0C26.442954215623057,0,28.235294117647058,1.792339902024,28.235294117647058,4L28.235294117647058,92.18461538461543C28.235294117647058,92.18461538461543,28.235294117647058,92.18461538461543,28.235294117647058,92.18461538461543L0,92.18461538461543C0,92.18461538461543,0,92.18461538461543,0,92.18461538461543L0,4C0,1.792339902024,1.792339902024,0,4,0Z"/></clipPath><clipPath id="clip16"><path d="M4,0L24.235294117647058,0C26.442954215623057,0,28.235294117647058,1.792339902024,28.235294117647058,4L28.235294117647058,169.1076923076923C28.235294117647058,169.1076923076923,28.235294117647058,169.1076923076923,28.235294117647058,169.1076923076923L0,169.1076923076923C0,169.1076923076923,0,169.1076923076923,0,169.1076923076923L0,4C0,1.792339902024,1.792339902024,0,4,0Z"/></clipPath><clipPath id="clip17"><path d="M4,0L24.235294117647058,0C26.442954215623057,0,28.235294117647058,1.792339902024,28.235294117647058,4L28.235294117647058,105.35384615384612C28.235294117647058,105.35384615384612,28.235294117647058,105.35384615384612,28.235294117647058,105.35384615384612L0,105.35384615384612C0,105.35384615384612,0,105.35384615384612,0,105.35384615384612L0,4C0,1.792339902024,1.792339902024,0,4,0Z"/></clipPath><clipPath id="clip18"><path d="M4,0L24.235294117647058,0C26.442954215623057,0,28.235294117647058,1.792339902024,28.235294117647058,4L28.235294117647058,182.27692307692305C28.235294117647058,182.27692307692305,28.235294117647058,182.27692307692305,28.235294117647058,182.27692307692305L0,182.27692307692305C0,182.27692307692305,0,182.27692307692305,0,182.27692307692305L0,4C0,1.792339902024,1.792339902024,0,4,0Z"/></clipPath><clipPath id="clip19"><path d="M4,0L24.235294117647058,0C26.442954215623057,0,28.235294117647058,1.792339902024,28.235294117647058,4L28.235294117647058,121.56923076923078C28.235294117647058,121.56923076923078,28.235294117647058,121.56923076923078,28.235294117647058,121.56923076923078L0,121.56923076923078C0,121.56923076923078,0,121.56923076923078,0,121.56923076923078L0,4C0,1.792339902024,1.792339902024,0,4,0Z"/></clipPath><clipPath id="clip20"><path d="M4,0L24.235294117647058,0C26.442954215623057,0,28.235294117647058,1.792339902024,28.235294117647058,4L28.235294117647058,198.4923076923077C28.235294117647058,198.4923076923077,28.235294117647058,198.4923076923077,28.235294117647058,198.4923076923077L0,198.4923076923077C0,198.4923076923077,0,198.4923076923077,0,198.4923076923077L0,4C0,1.792339902024,1.792339902024,0,4,0Z"/></clipPath><clipPath id="clip21"><path d="M4,0L24.235294117647058,0C26.442954215623057,0,28.235294117647058,1.792339902024,28.235294117647058,4L28.235294117647058,138.18461538461537C28.235294117647058,138.18461538461537,28.235294117647058,138.18461538461537,28.235294117647058,138.18461538461537L0,138.18461538461537C0,138.18461538461537,0,138.18461538461537,0,138.18461538461537L0,4C0,1.792339902024,1.792339902024,0,4,0Z"/></clipPath><clipPath id="clip22"><path d="M4,0L24.235294117647058,0C26.442954215623057,0,28.235294117647058,1.792339902024,28.235294117647058,4L28.235294117647058,215.1076923076923C28.235294117647058,215.1076923076923,28.235294117647058,215.1076923076923,28.235294117647058,215.1076923076923L0,215.1076923076923C0,215.1076923076923,0,215.1076923076923,0,215.1076923076923L0,4C0,1.792339902024,1.792339902024,0,4,0Z"/></clipPath><clipPath id="clip23"><path d="M4,0L24.235294117647058,0C26.442954215623057,0,28.235294117647058,1.792339902024,28.235294117647058,4L28.235294117647058,154.67692307692306C28.235294117647058,154.67692307692306,28.235294117647058,154.67692307692306,28.235294117647058,154.67692307692306L0,154.67692307692306C0,154.67692307692306,0,154.67692307692306,0,154.67692307692306L0,4C0,1.792339902024,1.792339902024,0,4,0Z"/></clipPath><clipPath id="clip24"><path d="M4,0L24.235294117647058,0C26.442954215623057,0,28.235294117647058,1.792339902024,28.235294117647058,4L28.235294117647058,231.6C28.235294117647058,231.6,28.235294117647058,231.6,28.235294117647058,231.6L0,231.6C0,231.6,0,231.6,0,231.6L0,4C0,1.792339902024,1.792339902024,0,4,0Z"/></clipPath><clipPath id="clip25"><path d="M4,0L24.235294117647058,0C26.442954215623057,0,28.235294117647058,1.792339902024,28.235294117647058,4L28.235294117647058,177.6307692307692C28.235294117647058,177.6307692307692,28.235294117647058,177.6307692307692,28.235294117647058,177.6307692307692L0,177.6307692307692C0,177.6307692307692,0,177.6307692307692,0,177.6307692307692L0,4C0,1.792339902024,1.792339902024,0,4,0Z"/></clipPath><clipPath id="clip26"><path d="M4,0L24.235294117647058,0C26.442954215623057,0,28.235294117647058,1.792339902024,28.235294117647058,4L28.235294117647058,254.55384615384617C28.235294117647058,254.55384615384617,28.235294117647058,254.55384615384617,28.235294117647058,254.55384615384617L0,254.55384615384617C0,254.55384615384617,0,254.55384615384617,0,254.55384615384617L0,4C0,1.792339902024,1.792339902024,0,4,0Z"/></clipPath><clipPath id="clip27"><path d="M4,0L24.235294117647058,0C26.442954215623057,0,28.235294117647058,1.792339902024,28.235294117647058,4L28.235294117647058,208.43076923076924C28.235294117647058,208.43076923076924,28.235294117647058,208.43076923076924,28.235294117647058,208.43076923076924L0,208.43076923076924C0,208.43076923076924,0,208.43076923076924,0,208.43076923076924L0,4C0,1.792339902024,1.792339902024,0,4,0Z"/></clipPath><clipPath id="clip28"><path d="M4,0L24.235294117647058,0C26.442954215623057,0,28.235294117647058,1.792339902024,28.235294117647058,4L28.235294117647058,285.3538461538462C28.235294117647058,285.3538461538462,28.235294117647058,285.3538461538462,28.235294117647058,285.3538461538462L0,285.3538461538462C0,285.3538461538462,0,285.3538461538462,0,285.3538461538462L0,4C0,1.792339902024,1.792339902024,0,4,0Z"/></clipPath><clipPath id="clip29"><path d="M4,0L24.235294117647058,0C26.442954215623057,0,28.235294117647058,1.792339902024,28.235294117647058,4L28.235294117647058,321.53846153846155C28.235294117647058,321.53846153846155,28.235294117647058,321.53846153846155,28.235294117647058,321.53846153846155L0,321.53846153846155C0,321.53846153846155,0,321.53846153846155,0,321.53846153846155L0,4C0,1.792339902024,1.792339902024,0,4,0Z"/></clipPath><clipPath id="clip30"><path d="M4,0L24.235294117647058,0C26.442954215623057,0,28.235294117647058,1.792339902024,28.235294117647058,4L28.235294117647058,398.46153846153845C28.235294117647058,398.46153846153845,28.235294117647058,398.46153846153845,28.235294117647058,398.46153846153845L0,398.46153846153845C0,398.46153846153845,0,398.46153846153845,0,398.46153846153845L0,4C0,1.792339902024,1.792339902024,0,4,0Z"/></clipPath></defs></svg>