<svg xmlns="http://www.w3.org/2000/svg" xmlns:xlink="http://www.w3.org/1999/xlink" version="1.1" class="marks" width="892" height="485" viewBox="0 0 892 485"><rect width="892" height="485" fill="white"/><g fill="none" stroke-miterlimit="10" transform="translate(59,27)"><g class="mark-group role-frame root" role="graphics-object" aria-roledescription="group mark container"><g transform="translate(0,0)"><path class="background" aria-hidden="true" d="M0.5,0.5h720v400h-720Z"/><g><g class="mark-group role-axis" aria-hidden="true"><g transform="translate(0.5,0.5)"><path class="background" aria-hidden="true" d="M0,0h0v0h0Z" pointer-events="none"/><g><g class="mark-rule role-axis-grid" pointer-events="none"><line transform="translate(0,400)" x2="720" y2="0" stroke="#ddd" stroke-width="1" opacity="1"/><line transform="translate(0,350)" x2="720" y2="0" stroke="#ddd" stroke-width="1" opacity="1"/><line transform="translate(0,300)" x2="720" y2="0" stroke="#ddd" stroke-width="1" opacity="1"/><line transform="translate(0,250)" x2="720" y2="0" stroke="#ddd" stroke-width="1" opacity="1"/><line transform="translate(0,200)" x2="720" y2="0" stroke="#ddd" stroke-width="1" opacity="1"/><line transform="translate(0,150)" x2="720" y2="0" stroke="#ddd" stroke-width="1" opacity="1"/><line transform="translate(0,100)" x2="720" y2="0" stroke="#ddd" stroke-width="1" opacity="1"/><line transform="translate(0,50)" x2="720" y2="0" stroke="#ddd" stroke-width="1" opacity="1"/><line transform="translate(0,0)" x2="720" y2="0" stroke="#ddd" stroke-width="1" opacity="1"/></g></g><path class="foreground" aria-hidden="true" d="" pointer-events="none" display="none"/></g></g><g class="mark-group role-axis" role="graphics-symbol" aria-roledescription="axis" aria-label="X-axis for a discrete scale with 4 values: A: Baseline, B: Trockenjahr (-30% Hydro), C: Atomausstieg, D: Trockenjahr + Atomausstieg"><g transform="translate(0.5,400.5)"><path class="background" aria-hidden="true" d="M0,0h0v0h0Z" pointer-events="none"/><g><g class="mark-rule role-axis-tick" pointer-events="none"><line transform="translate(90,0)" x2="0" y2="5" stroke="#888" stroke-width="1" opacity="1"/><line transform="translate(270,0)" x2="0" y2="5" stroke="#888" stroke-width="1" opacity="1"/><line transform="translate(450,0)" x2="0" y2="5" stroke="#888" stroke-width="1" opacity="1"/><line transform="translate(630,0)" x2="0" y2="5" stroke="#888" stroke-width="1" opacity="1"/></g><g class="mark-text role-axis-label" pointer-events="none"><text text-anchor="end" transform="translate(89.5,7) rotate(345) translate(0,8)" font-family="Switzer, system-ui, sans-serif" font-size="10px" fill="#000" opacity="1">A: Baseline</text><text text-anchor="end" transform="translate(269.5,7) rotate(345) translate(0,8)" font-family="Switzer, system-ui, sans-serif" font-size="10px" fill="#000" opacity="1">B: Trockenjahr (-30% Hydro)</text><text text-anchor="end" transform="translate(449.5,7) rotate(345) translate(0,8)" font-family="Switzer, system-ui, sans-serif" font-size="10px" fill="#000" opacity="1">C: Atomausstieg</text><text text-anchor="end" transform="translate(629.5,7) rotate(345) translate(0,8)" font-family="Switzer, system-ui, sans-serif" font-size="10px" fill="#000" opacity="1">D: Trockenjahr + Atomausstieg</text></g><g class="mark-rule role-axis-domain" pointer-events="none"><line transform="translate(0,0)" x2="720" y2="0" stroke="#888" stroke-width="1" opacity="1"/></g></g><path class="foreground" aria-hidden="true" d="" pointer-events="none" display="none"/></g></g><g class="mark-group role-axis" role="graphics-symbol" aria-roledescription="axis" aria-label="Y-axis titled 'GWh' for a linear scale with values from 0 to 80,000"><g transform="translate(0.5,0.5)"><path class="background" aria-hidden="true" d="M0,0h0v0h0Z" pointer-events="none"/><g><g class="mark-rule role-axis-tick" pointer-events="none"><line transform="translate(0,400)" x2="-5" y2="0" stroke="#888" stroke-width="1" opacity="1"/><line transform="translate(0,350)" x2="-5" y2="0" stroke="#888" stroke-width="1" opacity="1"/><line transform="translate(0,300)" x2="-5" y2="0" stroke="#888" stroke-width="1" opacity="1"/><line transform="translate(0,250)" x2="-5" y2="0" stroke="#888" stroke-width="1" opacity="1"/><line transform="translate(0,200)" x2="-5" y2="0" stroke="#888" stroke-width="1" opacity="1"/><line transform="translate(0,150)" x2="-5" y2="0" stroke="#888" stroke-width="1" opacity="1"/><line transform="translate(0,100)" x2="-5" y2="0" stroke="#888" stroke-width="1" opacity="1"/><line transform="translate(0,50)" x2="-5" y2="0" stroke="#888" stroke-width="1" opacity="1"/><line transform="translate(0,0)" x2="-5" y2="0" stroke="#888" stroke-width="1" opacity="1"/></g><g class="mark-text role-axis-label" pointer-events="none"><text text-anchor="end" transform="translate(-7,403)" font-family="Switzer, system-ui, sans-serif" font-size="10px" fill="#000" opacity="1">0</text><text text-anchor="end" transform="translate(-7,353)" font-family="Switzer, system-ui, sans-serif" font-size="10px" fill="#000" opacity="1">10,000</text><text text-anchor="end" transform="translate(-7,303)" font-family="Switzer, system-ui, sans-serif" font-size="10px" fill="#000" opacity="1">20,000</text><text text-anchor="end" transform="translate(-7,253)" font-family="Switzer, system-ui, sans-serif" font-size="10px" fill="#000" opacity="1">30,000</text><text text-anchor="end" transform="translate(-7,203)" font-family="Switzer, system-ui, sans-serif" font-size="10px" fill="#000" opacity="1">40,000</text><text text-anchor="end" transform="translate(-7,153)" font-family="Switzer, system-ui, sans-serif" font-size="10px" fill="#000" opacity="1">50,000</text><text text-anchor="end" transform="translate(-7,103)" font-family="Switzer, system-ui, sans-serif" font-size="10px" fill="#000" opacity="1">60,000</text><text text-anchor="end" transform="translate(-7,53)" font-family="Switzer, system-ui, sans-serif" font-size="10px" fill="#000" opacity="1">70,000</text><text text-anchor="end" transform="translate(-7,3)" font-family="Switzer, system-ui, sans-serif" font-size="10px" fill="#000" opacity="1">80,000</text></g><g class="mark-rule role-axis-domain" pointer-events="none"><line transform="translate(0,400)" x2="0" y2="-400" stroke="#888" stroke-width="1" opacity="1"/></g><g class="mark-text role-axis-title" pointer-events="none"><text text-anchor="middle" transform="translate(-42.08000183105469,200) rotate(-90) translate(0,-2)" font-family="Switzer, system-ui, sans-serif" font-size="11px" font-weight="bold" fill="#000" opacity="1">GWh</text></g></g><path class="foreground" aria-hidden="true" d="" pointer-events="none" display="none"/></g></g><g class="mark-group role-scope" role="graphics-object" aria-roledescription="group mark container"><g transform="translate(9,24.17500000000001)"><path class="background" aria-hidden="true" d="M3,0L159,0C160.655745073482,0,162,1.344254926518,162,3L162,375.825C162,375.825,162,375.825,162,375.825L0,375.825C0,375.825,0,375.825,0,375.825L0,3C0,1.344254926518,1.344254926518,0,3,0Z"/><g clip-path="url(#clip144)"><g class="mark-group role-scope" role="graphics-object" aria-roledescription="group mark container"><g transform="translate(0,-24.17500000000001)"><path class="background" aria-hidden="true" d="M0,0h162v0h-162Z"/><g><g class="mark-rect role-mark marks" role="graphics-object" aria-roledescription="rect mark container"><path aria-label="Szenario: A: Baseline; GWh: 75165; Typ: Eigenproduktion" role="graphics-symbol" aria-roledescription="bar" d="M0,24.17500000000001h162v375.825h-162Z" fill="#3b82f6"/><path aria-label="Szenario: A: Baseline; GWh: 0; Typ: Importlücke" role="graphics-symbol" aria-roledescription="bar" d="M0,400h162v0h-162Z" fill="#ef4444"/></g></g><path class="foreground" aria-hidden="true" d="" display="none"/></g></g></g><path class="foreground" aria-hidden="true" d="" display="none"/></g><g transform="translate(189,90.81000000000002)"><path class="background" aria-hidden="true" d="M3,0L159,0C160.655745073482,0,162,1.344254926518,162,3L162,309.19C162,309.19,162,309.19,162,309.19L0,309.19C0,309.19,0,309.19,0,309.19L0,3C0,1.344254926518,1.344254926518,0,3,0Z"/><g clip-path="url(#clip145)"><g class="mark-group role-scope" role="graphics-object" aria-roledescription="group mark container"><g transform="translate(0,-90.81000000000002)"><path class="background" aria-hidden="true" d="M0,0h162v0h-162Z"/><g><g class="mark-rect role-mark marks" role="graphics-object" aria-roledescription="rect mark container"><path aria-label="Szenario: B: Trockenjahr (-30% Hydro); GWh: 60664; Typ: Eigenproduktion" role="graphics-symbol" aria-roledescription="bar" d="M0,90.81000000000002h162v303.32h-162Z" fill="#3b82f6"/><path aria-label="Szenario: B: Trockenjahr (-30% Hydro); GWh: 1174; Typ: Importlücke" role="graphics-symbol" aria-roledescription="bar" d="M0,394.13h162v5.8700000000000045h-162Z" fill="#ef4444"/></g></g><path class="foreground" aria-hidden="true" d="" display="none"/></g></g></g><path class="foreground" aria-hidden="true" d="" display="none"/></g><g transform="translate(369,90.81000000000002)"><path class="background" aria-hidden="true" d="M3,0L159,0C160.655745073482,0,162,1.344254926518,162,3L162,309.19C162,309.19,162,309.19,162,309.19L0,309.19C0,309.19,0,309.19,0,309.19L0,3C0,1.344254926518,1.344254926518,0,3,0Z"/><g clip-path="url(#clip146)"><g class="mark-group role-scope" role="graphics-object" aria-roledescription="group mark container"><g transform="translate(0,-90.81000000000002)"><path class="background" aria-hidden="true" d="M0,0h162v0h-162Z"/><g><g class="mark-rect role-mark marks" role="graphics-object" aria-roledescription="rect mark container"><path aria-label="Szenario: C: Atomausstieg; GWh: 52182; Typ: Eigenproduktion" role="graphics-symbol" aria-roledescription="bar" d="M0,90.81000000000002h162v260.90999999999997h-162Z" fill="#3b82f6"/><path aria-label="Szenario: C: Atomausstieg; GWh: 9656; Typ: Importlücke" role="graphics-symbol" aria-roledescription="bar" d="M0,351.71999999999997h162v48.28000000000003h-162Z" fill="#ef4444"/></g></g><path class="foreground" aria-hidden="true" d="" display="none"/></g></g></g><path class="foreground" aria-hidden="true" d="" display="none"/></g><g transform="translate(549,90.81000000000002)"><path class="background" aria-hidden="true" d="M3,0L159,0C160.655745073482,0,162,1.344254926518,162,3L162,309.19C162,309.19,162,309.19,162,309.19L0,309.19C0,309.19,0,309.19,0,309.19L0,3C0,1.344254926518,1.344254926518,0,3,0Z"/><g clip-path="url(#clip147)"><g class="mark-group role-scope" role="graphics-object" aria-roledescription="group mark container"><g transform="translate(0,-90.81000000000002)"><path class="background" aria-hidden="true" d="M0,0h162v0h-162Z"/><g><g class="mark-rect role-mark marks" role="graphics-object" aria-roledescription="rect mark container"><path aria-label="Szenario: D: Trockenjahr + Atomausstieg; GWh: 37681; Typ: Eigenproduktion" role="graphics-symbol" aria-roledescription="bar" d="M0,90.81000000000002h162v188.40499999999997h-162Z" fill="#3b82f6"/><path aria-label="Szenario: D: Trockenjahr + Atomausstieg; GWh: 24157; Typ: Importlücke" role="graphics-symbol" aria-roledescription="bar" d="M0,279.215h162v120.78500000000003h-162Z" fill="#ef4444"/></g></g><path class="foreground" aria-hidden="true" d="" display="none"/></g></g></g><path class="foreground" aria-hidden="true" d="" display="none"/></g></g><g class="mark-group role-legend" role="graphics-symbol" aria-roledescription="legend" aria-label="Symbol legend titled 'Typ' for fill color with 2 values: Eigenproduktion, Importlücke"><g transform="translate(738,0)"><path class="background" aria-hidden="true" d="M0,0h90v40h-90Z" pointer-events="none"/><g><g class="mark-group role-legend-entry"><g transform="translate(0,16)"><path class="background" aria-hidden="true" d="M0,0h0v0h0Z" pointer-events="none"/><g><g class="mark-group role-scope" role="graphics-object" aria-roledescription="group mark container"><g transform="translate(0,0)"><path class="background" aria-hidden="true" d="M0,0h89.82999420166016v11h-89.82999420166016Z" pointer-events="none" opacity="1"/><g><g class="mark-symbol role-legend-symbol" pointer-events="none"><path transform="translate(6,6)" d="M-5,-5h10v10h-10Z" fill="#3b82f6" stroke-width="1.5" opacity="1"/></g><g class="mark-text role-legend-label" pointer-events="none"><text text-anchor="start" transform="translate(16,9)" font-family="Switzer, system-ui, sans-serif" font-size="10px" fill="#000" opacity="1">Eigenproduktion</text></g></g><path class="foreground" aria-hidden="true" d="" pointer-events="none" display="none"/></g><g transform="translate(0,13)"><path class="background" aria-hidden="true" d="M0,0h89.82999420166016v11h-89.82999420166016Z" pointer-events="none" opacity="1"/><g><g class="mark-symbol role-legend-symbol" pointer-events="none"><path transform="translate(6,6)" d="M-5,-5h10v10h-10Z" fill="#ef4444" stroke-width="1.5" opacity="1"/></g><g class="mark-text role-legend-label" pointer-events="none"><text text-anchor="start" transform="translate(16,9)" font-family="Switzer, system-ui, sans-serif" font-size="10px" fill="#000" opacity="1">Importlücke</text></g></g><path class="foreground" aria-hidden="true" d="" pointer-events="none" display="none"/></g></g></g><path class="foreground" aria-hidden="true" d="" pointer-events="none" display="none"/></g></g><g class="mark-text role-legend-title" pointer-events="none"><text text-anchor="start" transform="translate(0,9)" font-family="Switzer, system-ui, sans-serif" font-size="11px" font-weight="bold" fill="#000" opacity="1">Typ</text></g></g><path class="foreground" aria-hidden="true" d="" pointer-events="none" display="none"/></g></g><g class="mark-group role-title"><g transform="translate(360,-22)"><path class="background" aria-hidden="true" d="M0,0h0v0h0Z" pointer-events="none"/><g><g class="mark-text role-title-text" role="graphics-symbol" aria-roledescription="title" aria-label="Title text 'Stressszenarien: Eigenproduktion vs. Importlücke (2024er Basis)'" pointer-events="none"><text text-anchor="middle" transform="translate(0,10)" font-family="Switzer, system-ui, sans-serif" font-size="13px" font-weight="bold" fill="#000" opacity="1">Stressszenarien: Eigenproduktion vs. Importlücke (2024er Basis)</text></g></g><path class="foreground" aria-hidden="true" d="" pointer-events="none" display="none"/></g></g></g><path class="foreground" aria-hidden="true" d="" display="none"/></g></g></g><defs><clipPath id="clip144"><path d="M3,0L159,0C160.655745073482,0,162,1.344254926518,162,3L162,375.825C162,375.825,162,375.825,162,375.825L0,375.825C0,375.825,0,375.825,0,375.825L0,3C0,1.344254926518,1.344254926518,0,3,0Z"/></clipPath><clipPath id="clip145"><path d="M3,0L159,0C160.655745073482,0,162,1.344254926518,162,3L162,309.19C162,309.19,162,309.19,162,309.19L0,309.19C0,309.19,0,309.19,0,309.19L0,3C0,1.344254926518,1.344254926518,0,3,0Z"/></clipPath><clipPath id="clip146"><path d="M3,0L159,0C160.655745073482,0,162,1.344254926518,162,3L162,309.19C162,309.19,162,309.19,162,309.19L0,309.19C0,309.19,0,309.19,0,309.19L0,3C0,1.344254926518,1.344254926518,0,3,0Z"/></clipPath><clipPath id="clip147"><path d="M3,0L159,0C160.655745073482,0,162,1.344254926518,162,3L162,309.19C162,309.19,162,309.19,162,309.19L0,309.19C0,309.19,0,309.19,0,309.19L0,3C0,1.344254926518,1.344254926518,0,3,0Z"/></clipPath></defs></svg>