<svg xmlns="http://www.w3.org/2000/svg" xmlns:xlink="http://www.w3.org/1999/xlink" version="1.1" class="marks" width="796" height="439" viewBox="0 0 796 439"><rect width="796" height="439" fill="white"/><g fill="none" stroke-miterlimit="10" transform="translate(70,22)"><g class="mark-group role-frame root" role="graphics-object" aria-roledescription="group mark container"><g transform="translate(0,0)"><path class="background" aria-hidden="true" d="M0.5,0.5h720v380h-720Z"/><g><g class="mark-group role-axis" aria-hidden="true"><g transform="translate(0.5,380.5)"><path class="background" aria-hidden="true" d="M0,0h0v0h0Z" pointer-events="none"/><g><g class="mark-rule role-axis-grid" pointer-events="none"><line transform="translate(0,0)" x2="0" y2="-380" stroke="#ddd" stroke-width="1" opacity="1"/><line transform="translate(36,0)" x2="0" y2="-380" stroke="#ddd" stroke-width="1" opacity="1"/><line transform="translate(72,0)" x2="0" y2="-380" stroke="#ddd" stroke-width="1" opacity="1"/><line transform="translate(108,0)" x2="0" y2="-380" stroke="#ddd" stroke-width="1" opacity="1"/><line transform="translate(144,0)" x2="0" y2="-380" stroke="#ddd" stroke-width="1" opacity="1"/><line transform="translate(180,0)" x2="0" y2="-380" stroke="#ddd" stroke-width="1" opacity="1"/><line transform="translate(216,0)" x2="0" y2="-380" stroke="#ddd" stroke-width="1" opacity="1"/><line transform="translate(252,0)" x2="0" y2="-380" stroke="#ddd" stroke-width="1" opacity="1"/><line transform="translate(288,0)" x2="0" y2="-380" stroke="#ddd" stroke-width="1" opacity="1"/><line transform="translate(324,0)" x2="0" y2="-380" stroke="#ddd" stroke-width="1" opacity="1"/><line transform="translate(360,0)" x2="0" y2="-380" stroke="#ddd" stroke-width="1" opacity="1"/><line transform="translate(396,0)" x2="0" y2="-380" stroke="#ddd" stroke-width="1" opacity="1"/><line transform="translate(432,0)" x2="0" y2="-380" stroke="#ddd" stroke-width="1" opacity="1"/><line transform="translate(468,0)" x2="0" y2="-380" stroke="#ddd" stroke-width="1" opacity="1"/><line transform="translate(504,0)" x2="0" y2="-380" stroke="#ddd" stroke-width="1" opacity="1"/><line transform="translate(540,0)" x2="0" y2="-380" stroke="#ddd" stroke-width="1" opacity="1"/><line transform="translate(576,0)" x2="0" y2="-380" stroke="#ddd" stroke-width="1" opacity="1"/><line transform="translate(612,0)" x2="0" y2="-380" stroke="#ddd" stroke-width="1" opacity="1"/><line transform="translate(648,0)" x2="0" y2="-380" stroke="#ddd" stroke-width="1" opacity="1"/><line transform="translate(684,0)" x2="0" y2="-380" stroke="#ddd" stroke-width="1" opacity="1"/><line transform="translate(720,0)" x2="0" y2="-380" stroke="#ddd" stroke-width="1" opacity="1"/></g></g><path class="foreground" aria-hidden="true" d="" pointer-events="none" display="none"/></g></g><g class="mark-group role-axis" role="graphics-symbol" aria-roledescription="axis" aria-label="X-axis titled 'EPO-Patentanmeldungen pro Mrd. USD F&amp;E' for a linear scale with values from 0 to 200"><g transform="translate(0.5,380.5)"><path class="background" aria-hidden="true" d="M0,0h0v0h0Z" pointer-events="none"/><g><g class="mark-rule role-axis-tick" pointer-events="none"><line transform="translate(0,0)" x2="0" y2="5" stroke="#888" stroke-width="1" opacity="1"/><line transform="translate(36,0)" x2="0" y2="5" stroke="#888" stroke-width="1" opacity="1"/><line transform="translate(72,0)" x2="0" y2="5" stroke="#888" stroke-width="1" opacity="1"/><line transform="translate(108,0)" x2="0" y2="5" stroke="#888" stroke-width="1" opacity="1"/><line transform="translate(144,0)" x2="0" y2="5" stroke="#888" stroke-width="1" opacity="1"/><line transform="translate(180,0)" x2="0" y2="5" stroke="#888" stroke-width="1" opacity="1"/><line transform="translate(216,0)" x2="0" y2="5" stroke="#888" stroke-width="1" opacity="1"/><line transform="translate(252,0)" x2="0" y2="5" stroke="#888" stroke-width="1" opacity="1"/><line transform="translate(288,0)" x2="0" y2="5" stroke="#888" stroke-width="1" opacity="1"/><line transform="translate(324,0)" x2="0" y2="5" stroke="#888" stroke-width="1" opacity="1"/><line transform="translate(360,0)" x2="0" y2="5" stroke="#888" stroke-width="1" opacity="1"/><line transform="translate(396,0)" x2="0" y2="5" stroke="#888" stroke-width="1" opacity="1"/><line transform="translate(432,0)" x2="0" y2="5" stroke="#888" stroke-width="1" opacity="1"/><line transform="translate(468,0)" x2="0" y2="5" stroke="#888" stroke-width="1" opacity="1"/><line transform="translate(504,0)" x2="0" y2="5" stroke="#888" stroke-width="1" opacity="1"/><line transform="translate(540,0)" x2="0" y2="5" stroke="#888" stroke-width="1" opacity="1"/><line transform="translate(576,0)" x2="0" y2="5" stroke="#888" stroke-width="1" opacity="1"/><line transform="translate(612,0)" x2="0" y2="5" stroke="#888" stroke-width="1" opacity="1"/><line transform="translate(648,0)" x2="0" y2="5" stroke="#888" stroke-width="1" opacity="1"/><line transform="translate(684,0)" x2="0" y2="5" stroke="#888" stroke-width="1" opacity="1"/><line transform="translate(720,0)" x2="0" y2="5" stroke="#888" stroke-width="1" opacity="1"/></g><g class="mark-text role-axis-label" pointer-events="none"><text text-anchor="start" transform="translate(0,15)" font-family="Switzer, system-ui, sans-serif" font-size="10px" fill="#000" opacity="1">0</text><text text-anchor="middle" transform="translate(36,15)" font-family="Switzer, system-ui, sans-serif" font-size="10px" fill="#000" opacity="1">10</text><text text-anchor="middle" transform="translate(72,15)" font-family="Switzer, system-ui, sans-serif" font-size="10px" fill="#000" opacity="1">20</text><text text-anchor="middle" transform="translate(108,15)" font-family="Switzer, system-ui, sans-serif" font-size="10px" fill="#000" opacity="1">30</text><text text-anchor="middle" transform="translate(144,15)" font-family="Switzer, system-ui, sans-serif" font-size="10px" fill="#000" opacity="1">40</text><text text-anchor="middle" transform="translate(180,15)" font-family="Switzer, system-ui, sans-serif" font-size="10px" fill="#000" opacity="1">50</text><text text-anchor="middle" transform="translate(216,15)" font-family="Switzer, system-ui, sans-serif" font-size="10px" fill="#000" opacity="1">60</text><text text-anchor="middle" transform="translate(251.99999999999997,15)" font-family="Switzer, system-ui, sans-serif" font-size="10px" fill="#000" opacity="1">70</text><text text-anchor="middle" transform="translate(288,15)" font-family="Switzer, system-ui, sans-serif" font-size="10px" fill="#000" opacity="1">80</text><text text-anchor="middle" transform="translate(324,15)" font-family="Switzer, system-ui, sans-serif" font-size="10px" fill="#000" opacity="1">90</text><text text-anchor="middle" transform="translate(360,15)" font-family="Switzer, system-ui, sans-serif" font-size="10px" fill="#000" opacity="1">100</text><text text-anchor="middle" transform="translate(396.00000000000006,15)" font-family="Switzer, system-ui, sans-serif" font-size="10px" fill="#000" opacity="1">110</text><text text-anchor="middle" transform="translate(432,15)" font-family="Switzer, system-ui, sans-serif" font-size="10px" fill="#000" opacity="1">120</text><text text-anchor="middle" transform="translate(468,15)" font-family="Switzer, system-ui, sans-serif" font-size="10px" fill="#000" opacity="1">130</text><text text-anchor="middle" transform="translate(503.99999999999994,15)" font-family="Switzer, system-ui, sans-serif" font-size="10px" fill="#000" opacity="1">140</text><text text-anchor="middle" transform="translate(540,15)" font-family="Switzer, system-ui, sans-serif" font-size="10px" fill="#000" opacity="1">150</text><text text-anchor="middle" transform="translate(576,15)" font-family="Switzer, system-ui, sans-serif" font-size="10px" fill="#000" opacity="1">160</text><text text-anchor="middle" transform="translate(612,15)" font-family="Switzer, system-ui, sans-serif" font-size="10px" fill="#000" opacity="1">170</text><text text-anchor="middle" transform="translate(648,15)" font-family="Switzer, system-ui, sans-serif" font-size="10px" fill="#000" opacity="1">180</text><text text-anchor="middle" transform="translate(684,15)" font-family="Switzer, system-ui, sans-serif" font-size="10px" fill="#000" opacity="1">190</text><text text-anchor="end" transform="translate(720,15)" font-family="Switzer, system-ui, sans-serif" font-size="10px" fill="#000" opacity="1">200</text></g><g class="mark-rule role-axis-domain" pointer-events="none"><line transform="translate(0,0)" x2="720" y2="0" stroke="#888" stroke-width="1" opacity="1"/></g><g class="mark-text role-axis-title" pointer-events="none"><text text-anchor="middle" transform="translate(360,30)" font-family="Switzer, system-ui, sans-serif" font-size="11px" font-weight="bold" fill="#000" opacity="1">EPO-Patentanmeldungen pro Mrd. USD F&amp;E</text></g></g><path class="foreground" aria-hidden="true" d="" pointer-events="none" display="none"/></g></g><g class="mark-group role-axis" role="graphics-symbol" aria-roledescription="axis" aria-label="Y-axis for a discrete scale with 8 values: Schweiz, Schweden, Niederlande, Deutschland, Österreich, ending with Japan"><g transform="translate(0.5,0.5)"><path class="background" aria-hidden="true" d="M0,0h0v0h0Z" pointer-events="none"/><g><g class="mark-rule role-axis-tick" pointer-events="none"><line transform="translate(0,23)" x2="-5" y2="0" stroke="#888" stroke-width="1" opacity="1"/><line transform="translate(0,71)" x2="-5" y2="0" stroke="#888" stroke-width="1" opacity="1"/><line transform="translate(0,118)" x2="-5" y2="0" stroke="#888" stroke-width="1" opacity="1"/><line transform="translate(0,166)" x2="-5" y2="0" stroke="#888" stroke-width="1" opacity="1"/><line transform="translate(0,213)" x2="-5" y2="0" stroke="#888" stroke-width="1" opacity="1"/><line transform="translate(0,261)" x2="-5" y2="0" stroke="#888" stroke-width="1" opacity="1"/><line transform="translate(0,308)" x2="-5" y2="0" stroke="#888" stroke-width="1" opacity="1"/><line transform="translate(0,356)" x2="-5" y2="0" stroke="#888" stroke-width="1" opacity="1"/></g><g class="mark-text role-axis-label" pointer-events="none"><text text-anchor="end" transform="translate(-7,26.25)" font-family="Switzer, system-ui, sans-serif" font-size="10px" fill="#000" opacity="1">Schweiz</text><text text-anchor="end" transform="translate(-7,73.75)" font-family="Switzer, system-ui, sans-serif" font-size="10px" fill="#000" opacity="1">Schweden</text><text text-anchor="end" transform="translate(-7,121.25)" font-family="Switzer, system-ui, sans-serif" font-size="10px" fill="#000" opacity="1">Niederlande</text><text text-anchor="end" transform="translate(-7,168.75)" font-family="Switzer, system-ui, sans-serif" font-size="10px" fill="#000" opacity="1">Deutschland</text><text text-anchor="end" transform="translate(-7,216.25)" font-family="Switzer, system-ui, sans-serif" font-size="10px" fill="#000" opacity="1">Österreich</text><text text-anchor="end" transform="translate(-7,263.75)" font-family="Switzer, system-ui, sans-serif" font-size="10px" fill="#000" opacity="1">Frankreich</text><text text-anchor="end" transform="translate(-7,311.25)" font-family="Switzer, system-ui, sans-serif" font-size="10px" fill="#000" opacity="1">USA</text><text text-anchor="end" transform="translate(-7,358.75)" font-family="Switzer, system-ui, sans-serif" font-size="10px" fill="#000" opacity="1">Japan</text></g><g class="mark-rule role-axis-domain" pointer-events="none"><line transform="translate(0,0)" x2="0" y2="380" stroke="#888" stroke-width="1" opacity="1"/></g></g><path class="foreground" aria-hidden="true" d="" pointer-events="none" display="none"/></g></g><g class="mark-group role-scope" role="graphics-object" aria-roledescription="group mark container"><g transform="translate(0,2.375)"><path class="background" aria-hidden="true" d="M0,0L651.2,0C653.4076600979761,0,655.2,1.792339902024,655.2,4L655.2,38.75C655.2,40.957660097976,653.4076600979761,42.75,651.2,42.75L0,42.75C0,42.75,0,42.75,0,42.75L0,0C0,0,0,0,0,0Z"/><g clip-path="url(#clip187)"><g class="mark-group role-scope" role="graphics-object" aria-roledescription="group mark container"><g transform="translate(0,0)"><path class="background" aria-hidden="true" d="M0,0h0v42.75h0Z"/><g><g class="mark-rect role-mark marks" role="graphics-object" aria-roledescription="rect mark container"><path aria-label="EPO-Patentanmeldungen pro Mrd. USD F&amp;E: 182; Land: Schweiz" role="graphics-symbol" aria-roledescription="bar" d="M0,0h655.2v42.75h-655.2Z" fill="#a855f7"/></g></g><path class="foreground" aria-hidden="true" d="" display="none"/></g></g></g><path class="foreground" aria-hidden="true" d="" display="none"/></g><g transform="translate(0,49.875)"><path class="background" aria-hidden="true" d="M0,0L409.99999999999994,0C412.2076600979759,0,413.99999999999994,1.792339902024,413.99999999999994,4L413.99999999999994,38.75C413.99999999999994,40.957660097976,412.2076600979759,42.75,409.99999999999994,42.75L0,42.75C0,42.75,0,42.75,0,42.75L0,0C0,0,0,0,0,0Z"/><g clip-path="url(#clip188)"><g class="mark-group role-scope" role="graphics-object" aria-roledescription="group mark container"><g transform="translate(0,0)"><path class="background" aria-hidden="true" d="M0,0h0v42.75h0Z"/><g><g class="mark-rect role-mark marks" role="graphics-object" aria-roledescription="rect mark container"><path aria-label="EPO-Patentanmeldungen pro Mrd. USD F&amp;E: 115; Land: Schweden" role="graphics-symbol" aria-roledescription="bar" d="M0,0h413.99999999999994v42.75h-413.99999999999994Z" fill="#3b82f6"/></g></g><path class="foreground" aria-hidden="true" d="" display="none"/></g></g></g><path class="foreground" aria-hidden="true" d="" display="none"/></g><g transform="translate(0,97.375)"><path class="background" aria-hidden="true" d="M0,0L388.40000000000003,0C390.607660097976,0,392.40000000000003,1.792339902024,392.40000000000003,4L392.40000000000003,38.75C392.40000000000003,40.957660097976,390.607660097976,42.75,388.40000000000003,42.75L0,42.75C0,42.75,0,42.75,0,42.75L0,0C0,0,0,0,0,0Z"/><g clip-path="url(#clip189)"><g class="mark-group role-scope" role="graphics-object" aria-roledescription="group mark container"><g transform="translate(0,0)"><path class="background" aria-hidden="true" d="M0,0h0v42.75h0Z"/><g><g class="mark-rect role-mark marks" role="graphics-object" aria-roledescription="rect mark container"><path aria-label="EPO-Patentanmeldungen pro Mrd. USD F&amp;E: 109; Land: Niederlande" role="graphics-symbol" aria-roledescription="bar" d="M0,0h392.40000000000003v42.75h-392.40000000000003Z" fill="#06b6d4"/></g></g><path class="foreground" aria-hidden="true" d="" display="none"/></g></g></g><path class="foreground" aria-hidden="true" d="" display="none"/></g><g transform="translate(0,144.875)"><path class="background" aria-hidden="true" d="M0,0L309.2,0C311.40766009797596,0,313.2,1.792339902024,313.2,4L313.2,38.75C313.2,40.957660097976,311.40766009797596,42.75,309.2,42.75L0,42.75C0,42.75,0,42.75,0,42.75L0,0C0,0,0,0,0,0Z"/><g clip-path="url(#clip190)"><g class="mark-group role-scope" role="graphics-object" aria-roledescription="group mark container"><g transform="translate(0,0)"><path class="background" aria-hidden="true" d="M0,0h0v42.75h0Z"/><g><g class="mark-rect role-mark marks" role="graphics-object" aria-roledescription="rect mark container"><path aria-label="EPO-Patentanmeldungen pro Mrd. USD F&amp;E: 87; Land: Deutschland" role="graphics-symbol" aria-roledescription="bar" d="M0,0h313.2v42.75h-313.2Z" fill="#10b981"/></g></g><path class="foreground" aria-hidden="true" d="" display="none"/></g></g></g><path class="foreground" aria-hidden="true" d="" display="none"/></g><g transform="translate(0,192.375)"><path class="background" aria-hidden="true" d="M0,0L280.40000000000003,0C282.607660097976,0,284.40000000000003,1.792339902024,284.40000000000003,4L284.40000000000003,38.75C284.40000000000003,40.957660097976,282.607660097976,42.75,280.40000000000003,42.75L0,42.75C0,42.75,0,42.75,0,42.75L0,0C0,0,0,0,0,0Z"/><g clip-path="url(#clip191)"><g class="mark-group role-scope" role="graphics-object" aria-roledescription="group mark container"><g transform="translate(0,0)"><path class="background" aria-hidden="true" d="M0,0h0v42.75h0Z"/><g><g class="mark-rect role-mark marks" role="graphics-object" aria-roledescription="rect mark container"><path aria-label="EPO-Patentanmeldungen pro Mrd. USD F&amp;E: 79; Land: Österreich" role="graphics-symbol" aria-roledescription="bar" d="M0,0h284.40000000000003v42.75h-284.40000000000003Z" fill="#f59e0b"/></g></g><path class="foreground" aria-hidden="true" d="" display="none"/></g></g></g><path class="foreground" aria-hidden="true" d="" display="none"/></g><g transform="translate(0,239.875)"><path class="background" aria-hidden="true" d="M0,0L208.39999999999998,0C210.60766009797598,0,212.39999999999998,1.792339902024,212.39999999999998,4L212.39999999999998,38.75C212.39999999999998,40.957660097976,210.60766009797598,42.75,208.39999999999998,42.75L0,42.75C0,42.75,0,42.75,0,42.75L0,0C0,0,0,0,0,0Z"/><g clip-path="url(#clip192)"><g class="mark-group role-scope" role="graphics-object" aria-roledescription="group mark container"><g transform="translate(0,0)"><path class="background" aria-hidden="true" d="M0,0h0v42.75h0Z"/><g><g class="mark-rect role-mark marks" role="graphics-object" aria-roledescription="rect mark container"><path aria-label="EPO-Patentanmeldungen pro Mrd. USD F&amp;E: 59; Land: Frankreich" role="graphics-symbol" aria-roledescription="bar" d="M0,0h212.39999999999998v42.75h-212.39999999999998Z" fill="#ef4444"/></g></g><path class="foreground" aria-hidden="true" d="" display="none"/></g></g></g><path class="foreground" aria-hidden="true" d="" display="none"/></g><g transform="translate(0,287.375)"><path class="background" aria-hidden="true" d="M0,0L129.2,0C131.407660097976,0,133.2,1.792339902024,133.2,4L133.2,38.75C133.2,40.957660097976,131.407660097976,42.75,129.2,42.75L0,42.75C0,42.75,0,42.75,0,42.75L0,0C0,0,0,0,0,0Z"/><g clip-path="url(#clip193)"><g class="mark-group role-scope" role="graphics-object" aria-roledescription="group mark container"><g transform="translate(0,0)"><path class="background" aria-hidden="true" d="M0,0h0v42.75h0Z"/><g><g class="mark-rect role-mark marks" role="graphics-object" aria-roledescription="rect mark container"><path aria-label="EPO-Patentanmeldungen pro Mrd. USD F&amp;E: 37; Land: USA" role="graphics-symbol" aria-roledescription="bar" d="M0,0h133.2v42.75h-133.2Z" fill="#6b7280"/></g></g><path class="foreground" aria-hidden="true" d="" display="none"/></g></g></g><path class="foreground" aria-hidden="true" d="" display="none"/></g><g transform="translate(0,334.875)"><path class="background" aria-hidden="true" d="M0,0L86,0C88.207660097976,0,90,1.792339902024,90,4L90,38.75C90,40.957660097976,88.207660097976,42.75,86,42.75L0,42.75C0,42.75,0,42.75,0,42.75L0,0C0,0,0,0,0,0Z"/><g clip-path="url(#clip194)"><g class="mark-group role-scope" role="graphics-object" aria-roledescription="group mark container"><g transform="translate(0,0)"><path class="background" aria-hidden="true" d="M0,0h0v42.75h0Z"/><g><g class="mark-rect role-mark marks" role="graphics-object" aria-roledescription="rect mark container"><path aria-label="EPO-Patentanmeldungen pro Mrd. USD F&amp;E: 25; Land: Japan" role="graphics-symbol" aria-roledescription="bar" d="M0,0h90v42.75h-90Z" fill="#8b5cf6"/></g></g><path class="foreground" aria-hidden="true" d="" display="none"/></g></g></g><path class="foreground" aria-hidden="true" d="" display="none"/></g></g><g class="mark-group role-title"><g transform="translate(360,-17)"><path class="background" aria-hidden="true" d="M0,0h0v0h0Z" pointer-events="none"/><g><g class="mark-text role-title-text" role="graphics-symbol" aria-roledescription="title" aria-label="Title text 'Patenteffizienz: EPO-Patentanmeldungen pro Milliarde F&amp;E-Ausgaben (2023)'" pointer-events="none"><text text-anchor="middle" transform="translate(0,10)" font-family="Switzer, system-ui, sans-serif" font-size="13px" font-weight="bold" fill="#000" opacity="1">Patenteffizienz: EPO-Patentanmeldungen pro Milliarde F&amp;E-Ausgaben (2023)</text></g></g><path class="foreground" aria-hidden="true" d="" pointer-events="none" display="none"/></g></g></g><path class="foreground" aria-hidden="true" d="" display="none"/></g></g></g><defs><clipPath id="clip187"><path d="M0,0L651.2,0C653.4076600979761,0,655.2,1.792339902024,655.2,4L655.2,38.75C655.2,40.957660097976,653.4076600979761,42.75,651.2,42.75L0,42.75C0,42.75,0,42.75,0,42.75L0,0C0,0,0,0,0,0Z"/></clipPath><clipPath id="clip188"><path d="M0,0L409.99999999999994,0C412.2076600979759,0,413.99999999999994,1.792339902024,413.99999999999994,4L413.99999999999994,38.75C413.99999999999994,40.957660097976,412.2076600979759,42.75,409.99999999999994,42.75L0,42.75C0,42.75,0,42.75,0,42.75L0,0C0,0,0,0,0,0Z"/></clipPath><clipPath id="clip189"><path d="M0,0L388.40000000000003,0C390.607660097976,0,392.40000000000003,1.792339902024,392.40000000000003,4L392.40000000000003,38.75C392.40000000000003,40.957660097976,390.607660097976,42.75,388.40000000000003,42.75L0,42.75C0,42.75,0,42.75,0,42.75L0,0C0,0,0,0,0,0Z"/></clipPath><clipPath id="clip190"><path d="M0,0L309.2,0C311.40766009797596,0,313.2,1.792339902024,313.2,4L313.2,38.75C313.2,40.957660097976,311.40766009797596,42.75,309.2,42.75L0,42.75C0,42.75,0,42.75,0,42.75L0,0C0,0,0,0,0,0Z"/></clipPath><clipPath id="clip191"><path d="M0,0L280.40000000000003,0C282.607660097976,0,284.40000000000003,1.792339902024,284.40000000000003,4L284.40000000000003,38.75C284.40000000000003,40.957660097976,282.607660097976,42.75,280.40000000000003,42.75L0,42.75C0,42.75,0,42.75,0,42.75L0,0C0,0,0,0,0,0Z"/></clipPath><clipPath id="clip192"><path d="M0,0L208.39999999999998,0C210.60766009797598,0,212.39999999999998,1.792339902024,212.39999999999998,4L212.39999999999998,38.75C212.39999999999998,40.957660097976,210.60766009797598,42.75,208.39999999999998,42.75L0,42.75C0,42.75,0,42.75,0,42.75L0,0C0,0,0,0,0,0Z"/></clipPath><clipPath id="clip193"><path d="M0,0L129.2,0C131.407660097976,0,133.2,1.792339902024,133.2,4L133.2,38.75C133.2,40.957660097976,131.407660097976,42.75,129.2,42.75L0,42.75C0,42.75,0,42.75,0,42.75L0,0C0,0,0,0,0,0Z"/></clipPath><clipPath id="clip194"><path d="M0,0L86,0C88.207660097976,0,90,1.792339902024,90,4L90,38.75C90,40.957660097976,88.207660097976,42.75,86,42.75L0,42.75C0,42.75,0,42.75,0,42.75L0,0C0,0,0,0,0,0Z"/></clipPath></defs></svg>