<svg xmlns="http://www.w3.org/2000/svg" xmlns:xlink="http://www.w3.org/1999/xlink" version="1.1" class="marks" width="918" height="459" viewBox="0 0 918 459"><rect width="918" height="459" fill="white"/><g fill="none" stroke-miterlimit="10" transform="translate(192,22)"><g class="mark-group role-frame root" role="graphics-object" aria-roledescription="group mark container"><g transform="translate(0,0)"><path class="background" aria-hidden="true" d="M0.5,0.5h720v400h-720Z"/><g><g class="mark-group role-axis" aria-hidden="true"><g transform="translate(0.5,400.5)"><path class="background" aria-hidden="true" d="M0,0h0v0h0Z" pointer-events="none"/><g><g class="mark-rule role-axis-grid" pointer-events="none"><line transform="translate(0,0)" x2="0" y2="-400" stroke="#ddd" stroke-width="1" opacity="1"/><line transform="translate(55,0)" x2="0" y2="-400" stroke="#ddd" stroke-width="1" opacity="1"/><line transform="translate(111,0)" x2="0" y2="-400" stroke="#ddd" stroke-width="1" opacity="1"/><line transform="translate(166,0)" x2="0" y2="-400" stroke="#ddd" stroke-width="1" opacity="1"/><line transform="translate(222,0)" x2="0" y2="-400" stroke="#ddd" stroke-width="1" opacity="1"/><line transform="translate(277,0)" x2="0" y2="-400" stroke="#ddd" stroke-width="1" opacity="1"/><line transform="translate(332,0)" x2="0" y2="-400" stroke="#ddd" stroke-width="1" opacity="1"/><line transform="translate(388,0)" x2="0" y2="-400" stroke="#ddd" stroke-width="1" opacity="1"/><line transform="translate(443,0)" x2="0" y2="-400" stroke="#ddd" stroke-width="1" opacity="1"/><line transform="translate(498,0)" x2="0" y2="-400" stroke="#ddd" stroke-width="1" opacity="1"/><line transform="translate(554,0)" x2="0" y2="-400" stroke="#ddd" stroke-width="1" opacity="1"/><line transform="translate(609,0)" x2="0" y2="-400" stroke="#ddd" stroke-width="1" opacity="1"/><line transform="translate(665,0)" x2="0" y2="-400" stroke="#ddd" stroke-width="1" opacity="1"/><line transform="translate(720,0)" x2="0" y2="-400" stroke="#ddd" stroke-width="1" opacity="1"/></g></g><path class="foreground" aria-hidden="true" d="" pointer-events="none" display="none"/></g></g><g class="mark-group role-axis" role="graphics-symbol" aria-roledescription="axis" aria-label="X-axis titled 'Mio. CHF' for a linear scale with values from 0 to 6,500"><g transform="translate(0.5,400.5)"><path class="background" aria-hidden="true" d="M0,0h0v0h0Z" pointer-events="none"/><g><g class="mark-rule role-axis-tick" pointer-events="none"><line transform="translate(0,0)" x2="0" y2="5" stroke="#888" stroke-width="1" opacity="1"/><line transform="translate(55,0)" x2="0" y2="5" stroke="#888" stroke-width="1" opacity="1"/><line transform="translate(111,0)" x2="0" y2="5" stroke="#888" stroke-width="1" opacity="1"/><line transform="translate(166,0)" x2="0" y2="5" stroke="#888" stroke-width="1" opacity="1"/><line transform="translate(222,0)" x2="0" y2="5" stroke="#888" stroke-width="1" opacity="1"/><line transform="translate(277,0)" x2="0" y2="5" stroke="#888" stroke-width="1" opacity="1"/><line transform="translate(332,0)" x2="0" y2="5" stroke="#888" stroke-width="1" opacity="1"/><line transform="translate(388,0)" x2="0" y2="5" stroke="#888" stroke-width="1" opacity="1"/><line transform="translate(443,0)" x2="0" y2="5" stroke="#888" stroke-width="1" opacity="1"/><line transform="translate(498,0)" x2="0" y2="5" stroke="#888" stroke-width="1" opacity="1"/><line transform="translate(554,0)" x2="0" y2="5" stroke="#888" stroke-width="1" opacity="1"/><line transform="translate(609,0)" x2="0" y2="5" stroke="#888" stroke-width="1" opacity="1"/><line transform="translate(665,0)" x2="0" y2="5" stroke="#888" stroke-width="1" opacity="1"/><line transform="translate(720,0)" x2="0" y2="5" stroke="#888" stroke-width="1" opacity="1"/></g><g class="mark-text role-axis-label" pointer-events="none"><text text-anchor="start" transform="translate(0,15)" font-family="Switzer, system-ui, sans-serif" font-size="10px" fill="#000" opacity="1">0</text><text text-anchor="middle" transform="translate(55.38461538461539,15)" font-family="Switzer, system-ui, sans-serif" font-size="10px" fill="#000" opacity="1">500</text><text text-anchor="middle" transform="translate(110.76923076923077,15)" font-family="Switzer, system-ui, sans-serif" font-size="10px" fill="#000" opacity="1">1,000</text><text text-anchor="middle" transform="translate(166.15384615384616,15)" font-family="Switzer, system-ui, sans-serif" font-size="10px" fill="#000" opacity="1">1,500</text><text text-anchor="middle" transform="translate(221.53846153846155,15)" font-family="Switzer, system-ui, sans-serif" font-size="10px" fill="#000" opacity="1">2,000</text><text text-anchor="middle" transform="translate(276.92307692307696,15)" font-family="Switzer, system-ui, sans-serif" font-size="10px" fill="#000" opacity="1">2,500</text><text text-anchor="middle" transform="translate(332.3076923076923,15)" font-family="Switzer, system-ui, sans-serif" font-size="10px" fill="#000" opacity="1">3,000</text><text text-anchor="middle" transform="translate(387.6923076923077,15)" font-family="Switzer, system-ui, sans-serif" font-size="10px" fill="#000" opacity="1">3,500</text><text text-anchor="middle" transform="translate(443.0769230769231,15)" font-family="Switzer, system-ui, sans-serif" font-size="10px" fill="#000" opacity="1">4,000</text><text text-anchor="middle" transform="translate(498.46153846153845,15)" font-family="Switzer, system-ui, sans-serif" font-size="10px" fill="#000" opacity="1">4,500</text><text text-anchor="middle" transform="translate(553.8461538461539,15)" font-family="Switzer, system-ui, sans-serif" font-size="10px" fill="#000" opacity="1">5,000</text><text text-anchor="middle" transform="translate(609.2307692307692,15)" font-family="Switzer, system-ui, sans-serif" font-size="10px" fill="#000" opacity="1">5,500</text><text text-anchor="middle" transform="translate(664.6153846153846,15)" font-family="Switzer, system-ui, sans-serif" font-size="10px" fill="#000" opacity="1">6,000</text><text text-anchor="end" transform="translate(720,15)" font-family="Switzer, system-ui, sans-serif" font-size="10px" fill="#000" opacity="1">6,500</text></g><g class="mark-rule role-axis-domain" pointer-events="none"><line transform="translate(0,0)" x2="720" y2="0" stroke="#888" stroke-width="1" opacity="1"/></g><g class="mark-text role-axis-title" pointer-events="none"><text text-anchor="middle" transform="translate(360,30)" font-family="Switzer, system-ui, sans-serif" font-size="11px" font-weight="bold" fill="#000" opacity="1">Mio. CHF</text></g></g><path class="foreground" aria-hidden="true" d="" pointer-events="none" display="none"/></g></g><g class="mark-group role-axis" role="graphics-symbol" aria-roledescription="axis" aria-label="Y-axis for a discrete scale with 14 values: Chimie, pharmacie, Hautes écoles universitaires, Autres non répartis, Recherche et développement, Technologie de l'information et de la communication, ending with Département fédéral de l'intérieur"><g transform="translate(0.5,0.5)"><path class="background" aria-hidden="true" d="M0,0h0v0h0Z" pointer-events="none"/><g><g class="mark-rule role-axis-tick" pointer-events="none"><line transform="translate(0,14)" x2="-5" y2="0" stroke="#888" stroke-width="1" opacity="1"/><line transform="translate(0,42)" x2="-5" y2="0" stroke="#888" stroke-width="1" opacity="1"/><line transform="translate(0,71)" x2="-5" y2="0" stroke="#888" stroke-width="1" opacity="1"/><line transform="translate(0,100)" x2="-5" y2="0" stroke="#888" stroke-width="1" opacity="1"/><line transform="translate(0,128)" x2="-5" y2="0" stroke="#888" stroke-width="1" opacity="1"/><line transform="translate(0,157)" x2="-5" y2="0" stroke="#888" stroke-width="1" opacity="1"/><line transform="translate(0,185)" x2="-5" y2="0" stroke="#888" stroke-width="1" opacity="1"/><line transform="translate(0,214)" x2="-5" y2="0" stroke="#888" stroke-width="1" opacity="1"/><line transform="translate(0,242)" x2="-5" y2="0" stroke="#888" stroke-width="1" opacity="1"/><line transform="translate(0,271)" x2="-5" y2="0" stroke="#888" stroke-width="1" opacity="1"/><line transform="translate(0,299)" x2="-5" y2="0" stroke="#888" stroke-width="1" opacity="1"/><line transform="translate(0,328)" x2="-5" y2="0" stroke="#888" stroke-width="1" opacity="1"/><line transform="translate(0,357)" x2="-5" y2="0" stroke="#888" stroke-width="1" opacity="1"/><line transform="translate(0,385)" x2="-5" y2="0" stroke="#888" stroke-width="1" opacity="1"/></g><g class="mark-text role-axis-label" pointer-events="none"><text text-anchor="end" transform="translate(-7,16.785714285714274)" font-family="Switzer, system-ui, sans-serif" font-size="10px" fill="#000" opacity="1">Chimie, pharmacie</text><text text-anchor="end" transform="translate(-7,45.35714285714285)" font-family="Switzer, system-ui, sans-serif" font-size="10px" fill="#000" opacity="1">Hautes écoles universitaires</text><text text-anchor="end" transform="translate(-7,73.92857142857142)" font-family="Switzer, system-ui, sans-serif" font-size="10px" fill="#000" opacity="1">Autres non répartis</text><text text-anchor="end" transform="translate(-7,102.5)" font-family="Switzer, system-ui, sans-serif" font-size="10px" fill="#000" opacity="1">Recherche et développement</text><text text-anchor="end" transform="translate(-7,131.07142857142856)" font-family="Switzer, system-ui, sans-serif" font-size="10px" fill="#000" opacity="1">Technologie de l'information et de la c…</text><text text-anchor="end" transform="translate(-7,159.64285714285714)" font-family="Switzer, system-ui, sans-serif" font-size="10px" fill="#000" opacity="1">Métallurgie, machines</text><text text-anchor="end" transform="translate(-7,188.21428571428572)" font-family="Switzer, system-ui, sans-serif" font-size="10px" fill="#000" opacity="1">Instruments haute technologie</text><text text-anchor="end" transform="translate(-7,216.78571428571428)" font-family="Switzer, system-ui, sans-serif" font-size="10px" fill="#000" opacity="1">Hautes écoles spécialisées</text><text text-anchor="end" transform="translate(-7,245.35714285714286)" font-family="Switzer, system-ui, sans-serif" font-size="10px" fill="#000" opacity="1">Etablissements de recherche du doma…</text><text text-anchor="end" transform="translate(-7,273.9285714285714)" font-family="Switzer, system-ui, sans-serif" font-size="10px" fill="#000" opacity="1">Département fédéral de l'économie, d…</text><text text-anchor="end" transform="translate(-7,302.49999999999994)" font-family="Switzer, system-ui, sans-serif" font-size="10px" fill="#000" opacity="1">Alimentation</text><text text-anchor="end" transform="translate(-7,331.0714285714285)" font-family="Switzer, system-ui, sans-serif" font-size="10px" fill="#000" opacity="1">Autres</text><text text-anchor="end" transform="translate(-7,359.64285714285717)" font-family="Switzer, system-ui, sans-serif" font-size="10px" fill="#000" opacity="1">Département fédéral de la défense, de …</text><text text-anchor="end" transform="translate(-7,388.2142857142857)" font-family="Switzer, system-ui, sans-serif" font-size="10px" fill="#000" opacity="1">Département fédéral de l'intérieur</text></g><g class="mark-rule role-axis-domain" pointer-events="none"><line transform="translate(0,0)" x2="0" y2="400" stroke="#888" stroke-width="1" opacity="1"/></g></g><path class="foreground" aria-hidden="true" d="" pointer-events="none" display="none"/></g></g><g class="mark-group role-scope" role="graphics-object" aria-roledescription="group mark container"><g transform="translate(0,1.4285714285714164)"><path class="background" aria-hidden="true" d="M0,0L667.5606153846154,0C669.7682754825914,0,671.5606153846154,1.792339902024,671.5606153846154,4L671.5606153846154,21.714285714285715C671.5606153846154,23.921945812261715,669.7682754825914,25.714285714285715,667.5606153846154,25.714285714285715L0,25.714285714285715C0,25.714285714285715,0,25.714285714285715,0,25.714285714285715L0,0C0,0,0,0,0,0Z"/><g clip-path="url(#clip130)"><g class="mark-group role-scope" role="graphics-object" aria-roledescription="group mark container"><g transform="translate(0,0)"><path class="background" aria-hidden="true" d="M0,0h0v25.714285714285715h0Z"/><g><g class="mark-rect role-mark marks" role="graphics-object" aria-roledescription="rect mark container"><path aria-label="Mio. CHF: 6062.7; Sektor: Chimie, pharmacie" role="graphics-symbol" aria-roledescription="bar" d="M0,0h671.5606153846154v25.714285714285715h-671.5606153846154Z" fill="#a855f7"/></g></g><path class="foreground" aria-hidden="true" d="" display="none"/></g></g></g><path class="foreground" aria-hidden="true" d="" display="none"/></g><g transform="translate(0,29.99999999999999)"><path class="background" aria-hidden="true" d="M0,0L610.8246153846154,0C613.0322754825914,0,614.8246153846154,1.792339902024,614.8246153846154,4L614.8246153846154,21.714285714285715C614.8246153846154,23.921945812261715,613.0322754825914,25.714285714285715,610.8246153846154,25.714285714285715L0,25.714285714285715C0,25.714285714285715,0,25.714285714285715,0,25.714285714285715L0,0C0,0,0,0,0,0Z"/><g clip-path="url(#clip131)"><g class="mark-group role-scope" role="graphics-object" aria-roledescription="group mark container"><g transform="translate(0,0)"><path class="background" aria-hidden="true" d="M0,0h0v25.714285714285715h0Z"/><g><g class="mark-rect role-mark marks" role="graphics-object" aria-roledescription="rect mark container"><path aria-label="Mio. CHF: 5550.5; Sektor: Hautes écoles universitaires" role="graphics-symbol" aria-roledescription="bar" d="M0,0h614.8246153846154v25.714285714285715h-614.8246153846154Z" fill="#a855f7"/></g></g><path class="foreground" aria-hidden="true" d="" display="none"/></g></g></g><path class="foreground" aria-hidden="true" d="" display="none"/></g><g transform="translate(0,58.57142857142856)"><path class="background" aria-hidden="true" d="M0,0L379.2393846153846,0C381.4470447133606,0,383.2393846153846,1.792339902024,383.2393846153846,4L383.2393846153846,21.714285714285715C383.2393846153846,23.921945812261715,381.4470447133606,25.714285714285715,379.2393846153846,25.714285714285715L0,25.714285714285715C0,25.714285714285715,0,25.714285714285715,0,25.714285714285715L0,0C0,0,0,0,0,0Z"/><g clip-path="url(#clip132)"><g class="mark-group role-scope" role="graphics-object" aria-roledescription="group mark container"><g transform="translate(0,0)"><path class="background" aria-hidden="true" d="M0,0h0v25.714285714285715h0Z"/><g><g class="mark-rect role-mark marks" role="graphics-object" aria-roledescription="rect mark container"><path aria-label="Mio. CHF: 3459.8; Sektor: Autres non répartis" role="graphics-symbol" aria-roledescription="bar" d="M0,0h383.2393846153846v25.714285714285715h-383.2393846153846Z" fill="#a855f7"/></g></g><path class="foreground" aria-hidden="true" d="" display="none"/></g></g></g><path class="foreground" aria-hidden="true" d="" display="none"/></g><g transform="translate(0,87.14285714285714)"><path class="background" aria-hidden="true" d="M0,0L305.3452307692308,0C307.55289086720677,0,309.3452307692308,1.792339902024,309.3452307692308,4L309.3452307692308,21.714285714285715C309.3452307692308,23.921945812261715,307.55289086720677,25.714285714285715,305.3452307692308,25.714285714285715L0,25.714285714285715C0,25.714285714285715,0,25.714285714285715,0,25.714285714285715L0,0C0,0,0,0,0,0Z"/><g clip-path="url(#clip133)"><g class="mark-group role-scope" role="graphics-object" aria-roledescription="group mark container"><g transform="translate(0,0)"><path class="background" aria-hidden="true" d="M0,0h0v25.714285714285715h0Z"/><g><g class="mark-rect role-mark marks" role="graphics-object" aria-roledescription="rect mark container"><path aria-label="Mio. CHF: 2792.7; Sektor: Recherche et développement" role="graphics-symbol" aria-roledescription="bar" d="M0,0h309.3452307692308v25.714285714285715h-309.3452307692308Z" fill="#a855f7"/></g></g><path class="foreground" aria-hidden="true" d="" display="none"/></g></g></g><path class="foreground" aria-hidden="true" d="" display="none"/></g><g transform="translate(0,115.71428571428571)"><path class="background" aria-hidden="true" d="M0,0L264.128,0C266.33566009797596,0,268.128,1.792339902024,268.128,4L268.128,21.714285714285715C268.128,23.921945812261715,266.33566009797596,25.714285714285715,264.128,25.714285714285715L0,25.714285714285715C0,25.714285714285715,0,25.714285714285715,0,25.714285714285715L0,0C0,0,0,0,0,0Z"/><g clip-path="url(#clip134)"><g class="mark-group role-scope" role="graphics-object" aria-roledescription="group mark container"><g transform="translate(0,0)"><path class="background" aria-hidden="true" d="M0,0h0v25.714285714285715h0Z"/><g><g class="mark-rect role-mark marks" role="graphics-object" aria-roledescription="rect mark container"><path aria-label="Mio. CHF: 2420.6; Sektor: Technologie de l'information et de la communication" role="graphics-symbol" aria-roledescription="bar" d="M0,0h268.128v25.714285714285715h-268.128Z" fill="#a855f7"/></g></g><path class="foreground" aria-hidden="true" d="" display="none"/></g></g></g><path class="foreground" aria-hidden="true" d="" display="none"/></g><g transform="translate(0,144.28571428571428)"><path class="background" aria-hidden="true" d="M0,0L215.46707692307692,0C217.67473702105292,0,219.46707692307692,1.792339902024,219.46707692307692,4L219.46707692307692,21.714285714285715C219.46707692307692,23.921945812261715,217.67473702105292,25.714285714285715,215.46707692307692,25.714285714285715L0,25.714285714285715C0,25.714285714285715,0,25.714285714285715,0,25.714285714285715L0,0C0,0,0,0,0,0Z"/><g clip-path="url(#clip135)"><g class="mark-group role-scope" role="graphics-object" aria-roledescription="group mark container"><g transform="translate(0,0)"><path class="background" aria-hidden="true" d="M0,0h0v25.714285714285715h0Z"/><g><g class="mark-rect role-mark marks" role="graphics-object" aria-roledescription="rect mark container"><path aria-label="Mio. CHF: 1981.3; Sektor: Métallurgie, machines" role="graphics-symbol" aria-roledescription="bar" d="M0,0h219.46707692307692v25.714285714285715h-219.46707692307692Z" fill="#a855f7"/></g></g><path class="foreground" aria-hidden="true" d="" display="none"/></g></g></g><path class="foreground" aria-hidden="true" d="" display="none"/></g><g transform="translate(0,172.85714285714286)"><path class="background" aria-hidden="true" d="M0,0L126.14276923076926,0C128.35042932874526,0,130.14276923076926,1.792339902024,130.14276923076926,4L130.14276923076926,21.714285714285715C130.14276923076926,23.921945812261715,128.35042932874526,25.714285714285715,126.14276923076926,25.714285714285715L0,25.714285714285715C0,25.714285714285715,0,25.714285714285715,0,25.714285714285715L0,0C0,0,0,0,0,0Z"/><g clip-path="url(#clip136)"><g class="mark-group role-scope" role="graphics-object" aria-roledescription="group mark container"><g transform="translate(0,0)"><path class="background" aria-hidden="true" d="M0,0h0v25.714285714285715h0Z"/><g><g class="mark-rect role-mark marks" role="graphics-object" aria-roledescription="rect mark container"><path aria-label="Mio. CHF: 1174.9; Sektor: Instruments haute technologie" role="graphics-symbol" aria-roledescription="bar" d="M0,0h130.14276923076926v25.714285714285715h-130.14276923076926Z" fill="#a855f7"/></g></g><path class="foreground" aria-hidden="true" d="" display="none"/></g></g></g><path class="foreground" aria-hidden="true" d="" display="none"/></g><g transform="translate(0,201.42857142857142)"><path class="background" aria-hidden="true" d="M0,0L109.33907692307693,0C111.54673702105293,0,113.33907692307693,1.792339902024,113.33907692307693,4L113.33907692307693,21.714285714285715C113.33907692307693,23.921945812261715,111.54673702105293,25.714285714285715,109.33907692307693,25.714285714285715L0,25.714285714285715C0,25.714285714285715,0,25.714285714285715,0,25.714285714285715L0,0C0,0,0,0,0,0Z"/><g clip-path="url(#clip137)"><g class="mark-group role-scope" role="graphics-object" aria-roledescription="group mark container"><g transform="translate(0,0)"><path class="background" aria-hidden="true" d="M0,0h0v25.714285714285715h0Z"/><g><g class="mark-rect role-mark marks" role="graphics-object" aria-roledescription="rect mark container"><path aria-label="Mio. CHF: 1023.2; Sektor: Hautes écoles spécialisées" role="graphics-symbol" aria-roledescription="bar" d="M0,0h113.33907692307693v25.714285714285715h-113.33907692307693Z" fill="#a855f7"/></g></g><path class="foreground" aria-hidden="true" d="" display="none"/></g></g></g><path class="foreground" aria-hidden="true" d="" display="none"/></g><g transform="translate(0,230)"><path class="background" aria-hidden="true" d="M0,0L82.94276923076923,0C85.15042932874523,0,86.94276923076923,1.792339902024,86.94276923076923,4L86.94276923076923,21.714285714285715C86.94276923076923,23.921945812261715,85.15042932874523,25.714285714285715,82.94276923076923,25.714285714285715L0,25.714285714285715C0,25.714285714285715,0,25.714285714285715,0,25.714285714285715L0,0C0,0,0,0,0,0Z"/><g clip-path="url(#clip138)"><g class="mark-group role-scope" role="graphics-object" aria-roledescription="group mark container"><g transform="translate(0,0)"><path class="background" aria-hidden="true" d="M0,0h0v25.714285714285715h0Z"/><g><g class="mark-rect role-mark marks" role="graphics-object" aria-roledescription="rect mark container"><path aria-label="Mio. CHF: 784.9; Sektor: Etablissements de recherche du domaine des EPF" role="graphics-symbol" aria-roledescription="bar" d="M0,0h86.94276923076923v25.714285714285715h-86.94276923076923Z" fill="#a855f7"/></g></g><path class="foreground" aria-hidden="true" d="" display="none"/></g></g></g><path class="foreground" aria-hidden="true" d="" display="none"/></g><g transform="translate(0,258.57142857142856)"><path class="background" aria-hidden="true" d="M0,0L16.75815384615385,0C18.96581394412985,0,20.75815384615385,1.792339902024,20.75815384615385,4L20.75815384615385,21.714285714285715C20.75815384615385,23.921945812261715,18.96581394412985,25.714285714285715,16.75815384615385,25.714285714285715L0,25.714285714285715C0,25.714285714285715,0,25.714285714285715,0,25.714285714285715L0,0C0,0,0,0,0,0Z"/><g clip-path="url(#clip139)"><g class="mark-group role-scope" role="graphics-object" aria-roledescription="group mark container"><g transform="translate(0,0)"><path class="background" aria-hidden="true" d="M0,0h0v25.714285714285715h0Z"/><g><g class="mark-rect role-mark marks" role="graphics-object" aria-roledescription="rect mark container"><path aria-label="Mio. CHF: 187.4; Sektor: Département fédéral de l'économie, de la formation et de la recherche" role="graphics-symbol" aria-roledescription="bar" d="M0,0h20.75815384615385v25.714285714285715h-20.75815384615385Z" fill="#a855f7"/></g></g><path class="foreground" aria-hidden="true" d="" display="none"/></g></g></g><path class="foreground" aria-hidden="true" d="" display="none"/></g><g transform="translate(0,287.1428571428571)"><path class="background" aria-hidden="true" d="M0,0L3.666461538461539,0C5.690036748267848,0,7.332923076923078,1.6428863286552298,7.332923076923078,3.666461538461539L7.332923076923078,22.047824175824175C7.332923076923078,24.071399385630485,5.690036748267848,25.714285714285715,3.666461538461539,25.714285714285715L0,25.714285714285715C0,25.714285714285715,0,25.714285714285715,0,25.714285714285715L0,0C0,0,0,0,0,0Z"/><g clip-path="url(#clip140)"><g class="mark-group role-scope" role="graphics-object" aria-roledescription="group mark container"><g transform="translate(0,0)"><path class="background" aria-hidden="true" d="M0,0h0v25.714285714285715h0Z"/><g><g class="mark-rect role-mark marks" role="graphics-object" aria-roledescription="rect mark container"><path aria-label="Mio. CHF: 66.2; Sektor: Alimentation" role="graphics-symbol" aria-roledescription="bar" d="M0,0h7.332923076923078v25.714285714285715h-7.332923076923078Z" fill="#a855f7"/></g></g><path class="foreground" aria-hidden="true" d="" display="none"/></g></g></g><path class="foreground" aria-hidden="true" d="" display="none"/></g><g transform="translate(0,315.71428571428567)"><path class="background" aria-hidden="true" d="M0,0L0.9747692307692309,0C1.5127590146452286,0,1.9495384615384619,0.43677944689323334,1.9495384615384619,0.9747692307692309L1.9495384615384619,24.739516483516486C1.9495384615384619,25.277506267392482,1.5127590146452286,25.714285714285715,0.9747692307692309,25.714285714285715L0,25.714285714285715C0,25.714285714285715,0,25.714285714285715,0,25.714285714285715L0,0C0,0,0,0,0,0Z"/><g clip-path="url(#clip141)"><g class="mark-group role-scope" role="graphics-object" aria-roledescription="group mark container"><g transform="translate(0,0)"><path class="background" aria-hidden="true" d="M0,0h0v25.714285714285715h0Z"/><g><g class="mark-rect role-mark marks" role="graphics-object" aria-roledescription="rect mark container"><path aria-label="Mio. CHF: 17.6; Sektor: Autres" role="graphics-symbol" aria-roledescription="bar" d="M0,0h1.9495384615384619v25.714285714285715h-1.9495384615384619Z" fill="#a855f7"/></g></g><path class="foreground" aria-hidden="true" d="" display="none"/></g></g></g><path class="foreground" aria-hidden="true" d="" display="none"/></g><g transform="translate(0,344.28571428571433)"><path class="background" aria-hidden="true" d="M0,0L0.947076923076923,0C1.469782906274625,0,1.894153846153846,0.4243709398792209,1.894153846153846,0.947076923076923L1.894153846153846,24.76720879120879C1.894153846153846,25.289914774406494,1.469782906274625,25.714285714285715,0.947076923076923,25.714285714285715L0,25.714285714285715C0,25.714285714285715,0,25.714285714285715,0,25.714285714285715L0,0C0,0,0,0,0,0Z"/><g clip-path="url(#clip142)"><g class="mark-group role-scope" role="graphics-object" aria-roledescription="group mark container"><g transform="translate(0,0)"><path class="background" aria-hidden="true" d="M0,0h0v25.714285714285715h0Z"/><g><g class="mark-rect role-mark marks" role="graphics-object" aria-roledescription="rect mark container"><path aria-label="Mio. CHF: 17.1; Sektor: Département fédéral de la défense, de la protection de la population et des sports" role="graphics-symbol" aria-roledescription="bar" d="M0,0h1.894153846153846v25.714285714285715h-1.894153846153846Z" fill="#a855f7"/></g></g><path class="foreground" aria-hidden="true" d="" display="none"/></g></g></g><path class="foreground" aria-hidden="true" d="" display="none"/></g><g transform="translate(0,372.8571428571429)"><path class="background" aria-hidden="true" d="M0,0L0.9138461538461539,0C1.4182115762299015,0,1.8276923076923077,0.40948073146240616,1.8276923076923077,0.9138461538461539L1.8276923076923077,24.80043956043956C1.8276923076923077,25.30480498282331,1.4182115762299015,25.714285714285715,0.9138461538461539,25.714285714285715L0,25.714285714285715C0,25.714285714285715,0,25.714285714285715,0,25.714285714285715L0,0C0,0,0,0,0,0Z"/><g clip-path="url(#clip143)"><g class="mark-group role-scope" role="graphics-object" aria-roledescription="group mark container"><g transform="translate(0,0)"><path class="background" aria-hidden="true" d="M0,0h0v25.714285714285715h0Z"/><g><g class="mark-rect role-mark marks" role="graphics-object" aria-roledescription="rect mark container"><path aria-label="Mio. CHF: 16.5; Sektor: Département fédéral de l'intérieur" role="graphics-symbol" aria-roledescription="bar" d="M0,0h1.8276923076923077v25.714285714285715h-1.8276923076923077Z" fill="#a855f7"/></g></g><path class="foreground" aria-hidden="true" d="" display="none"/></g></g></g><path class="foreground" aria-hidden="true" d="" display="none"/></g></g><g class="mark-group role-title"><g transform="translate(360,-17)"><path class="background" aria-hidden="true" d="M0,0h0v0h0Z" pointer-events="none"/><g><g class="mark-text role-title-text" role="graphics-symbol" aria-roledescription="title" aria-label="Title text 'F&amp;E-Ausgaben nach Sektor — 2023 (ohne Total-Zeilen)'" pointer-events="none"><text text-anchor="middle" transform="translate(0,10)" font-family="Switzer, system-ui, sans-serif" font-size="13px" font-weight="bold" fill="#000" opacity="1">F&amp;E-Ausgaben nach Sektor — 2023 (ohne Total-Zeilen)</text></g></g><path class="foreground" aria-hidden="true" d="" pointer-events="none" display="none"/></g></g></g><path class="foreground" aria-hidden="true" d="" display="none"/></g></g></g><defs><clipPath id="clip130"><path d="M0,0L667.5606153846154,0C669.7682754825914,0,671.5606153846154,1.792339902024,671.5606153846154,4L671.5606153846154,21.714285714285715C671.5606153846154,23.921945812261715,669.7682754825914,25.714285714285715,667.5606153846154,25.714285714285715L0,25.714285714285715C0,25.714285714285715,0,25.714285714285715,0,25.714285714285715L0,0C0,0,0,0,0,0Z"/></clipPath><clipPath id="clip131"><path d="M0,0L610.8246153846154,0C613.0322754825914,0,614.8246153846154,1.792339902024,614.8246153846154,4L614.8246153846154,21.714285714285715C614.8246153846154,23.921945812261715,613.0322754825914,25.714285714285715,610.8246153846154,25.714285714285715L0,25.714285714285715C0,25.714285714285715,0,25.714285714285715,0,25.714285714285715L0,0C0,0,0,0,0,0Z"/></clipPath><clipPath id="clip132"><path d="M0,0L379.2393846153846,0C381.4470447133606,0,383.2393846153846,1.792339902024,383.2393846153846,4L383.2393846153846,21.714285714285715C383.2393846153846,23.921945812261715,381.4470447133606,25.714285714285715,379.2393846153846,25.714285714285715L0,25.714285714285715C0,25.714285714285715,0,25.714285714285715,0,25.714285714285715L0,0C0,0,0,0,0,0Z"/></clipPath><clipPath id="clip133"><path d="M0,0L305.3452307692308,0C307.55289086720677,0,309.3452307692308,1.792339902024,309.3452307692308,4L309.3452307692308,21.714285714285715C309.3452307692308,23.921945812261715,307.55289086720677,25.714285714285715,305.3452307692308,25.714285714285715L0,25.714285714285715C0,25.714285714285715,0,25.714285714285715,0,25.714285714285715L0,0C0,0,0,0,0,0Z"/></clipPath><clipPath id="clip134"><path d="M0,0L264.128,0C266.33566009797596,0,268.128,1.792339902024,268.128,4L268.128,21.714285714285715C268.128,23.921945812261715,266.33566009797596,25.714285714285715,264.128,25.714285714285715L0,25.714285714285715C0,25.714285714285715,0,25.714285714285715,0,25.714285714285715L0,0C0,0,0,0,0,0Z"/></clipPath><clipPath id="clip135"><path d="M0,0L215.46707692307692,0C217.67473702105292,0,219.46707692307692,1.792339902024,219.46707692307692,4L219.46707692307692,21.714285714285715C219.46707692307692,23.921945812261715,217.67473702105292,25.714285714285715,215.46707692307692,25.714285714285715L0,25.714285714285715C0,25.714285714285715,0,25.714285714285715,0,25.714285714285715L0,0C0,0,0,0,0,0Z"/></clipPath><clipPath id="clip136"><path d="M0,0L126.14276923076926,0C128.35042932874526,0,130.14276923076926,1.792339902024,130.14276923076926,4L130.14276923076926,21.714285714285715C130.14276923076926,23.921945812261715,128.35042932874526,25.714285714285715,126.14276923076926,25.714285714285715L0,25.714285714285715C0,25.714285714285715,0,25.714285714285715,0,25.714285714285715L0,0C0,0,0,0,0,0Z"/></clipPath><clipPath id="clip137"><path d="M0,0L109.33907692307693,0C111.54673702105293,0,113.33907692307693,1.792339902024,113.33907692307693,4L113.33907692307693,21.714285714285715C113.33907692307693,23.921945812261715,111.54673702105293,25.714285714285715,109.33907692307693,25.714285714285715L0,25.714285714285715C0,25.714285714285715,0,25.714285714285715,0,25.714285714285715L0,0C0,0,0,0,0,0Z"/></clipPath><clipPath id="clip138"><path d="M0,0L82.94276923076923,0C85.15042932874523,0,86.94276923076923,1.792339902024,86.94276923076923,4L86.94276923076923,21.714285714285715C86.94276923076923,23.921945812261715,85.15042932874523,25.714285714285715,82.94276923076923,25.714285714285715L0,25.714285714285715C0,25.714285714285715,0,25.714285714285715,0,25.714285714285715L0,0C0,0,0,0,0,0Z"/></clipPath><clipPath id="clip139"><path d="M0,0L16.75815384615385,0C18.96581394412985,0,20.75815384615385,1.792339902024,20.75815384615385,4L20.75815384615385,21.714285714285715C20.75815384615385,23.921945812261715,18.96581394412985,25.714285714285715,16.75815384615385,25.714285714285715L0,25.714285714285715C0,25.714285714285715,0,25.714285714285715,0,25.714285714285715L0,0C0,0,0,0,0,0Z"/></clipPath><clipPath id="clip140"><path d="M0,0L3.666461538461539,0C5.690036748267848,0,7.332923076923078,1.6428863286552298,7.332923076923078,3.666461538461539L7.332923076923078,22.047824175824175C7.332923076923078,24.071399385630485,5.690036748267848,25.714285714285715,3.666461538461539,25.714285714285715L0,25.714285714285715C0,25.714285714285715,0,25.714285714285715,0,25.714285714285715L0,0C0,0,0,0,0,0Z"/></clipPath><clipPath id="clip141"><path d="M0,0L0.9747692307692309,0C1.5127590146452286,0,1.9495384615384619,0.43677944689323334,1.9495384615384619,0.9747692307692309L1.9495384615384619,24.739516483516486C1.9495384615384619,25.277506267392482,1.5127590146452286,25.714285714285715,0.9747692307692309,25.714285714285715L0,25.714285714285715C0,25.714285714285715,0,25.714285714285715,0,25.714285714285715L0,0C0,0,0,0,0,0Z"/></clipPath><clipPath id="clip142"><path d="M0,0L0.947076923076923,0C1.469782906274625,0,1.894153846153846,0.4243709398792209,1.894153846153846,0.947076923076923L1.894153846153846,24.76720879120879C1.894153846153846,25.289914774406494,1.469782906274625,25.714285714285715,0.947076923076923,25.714285714285715L0,25.714285714285715C0,25.714285714285715,0,25.714285714285715,0,25.714285714285715L0,0C0,0,0,0,0,0Z"/></clipPath><clipPath id="clip143"><path d="M0,0L0.9138461538461539,0C1.4182115762299015,0,1.8276923076923077,0.40948073146240616,1.8276923076923077,0.9138461538461539L1.8276923076923077,24.80043956043956C1.8276923076923077,25.30480498282331,1.4182115762299015,25.714285714285715,0.9138461538461539,25.714285714285715L0,25.714285714285715C0,25.714285714285715,0,25.714285714285715,0,25.714285714285715L0,0C0,0,0,0,0,0Z"/></clipPath></defs></svg>