<svg xmlns="http://www.w3.org/2000/svg" xmlns:xlink="http://www.w3.org/1999/xlink" version="1.1" class="marks" width="835" height="459" viewBox="0 0 835 459"><rect width="835" height="459" fill="white"/><g fill="none" stroke-miterlimit="10" transform="translate(110,22)"><g class="mark-group role-frame root" role="graphics-object" aria-roledescription="group mark container"><g transform="translate(0,0)"><path class="background" aria-hidden="true" d="M0.5,0.5h720v400h-720Z"/><g><g class="mark-group role-axis" aria-hidden="true"><g transform="translate(0.5,400.5)"><path class="background" aria-hidden="true" d="M0,0h0v0h0Z" pointer-events="none"/><g><g class="mark-rule role-axis-grid" pointer-events="none"><line transform="translate(0,0)" x2="0" y2="-400" stroke="#ddd" stroke-width="1" opacity="1"/><line transform="translate(26,0)" x2="0" y2="-400" stroke="#ddd" stroke-width="1" opacity="1"/><line transform="translate(52,0)" x2="0" y2="-400" stroke="#ddd" stroke-width="1" opacity="1"/><line transform="translate(79,0)" x2="0" y2="-400" stroke="#ddd" stroke-width="1" opacity="1"/><line transform="translate(105,0)" x2="0" y2="-400" stroke="#ddd" stroke-width="1" opacity="1"/><line transform="translate(131,0)" x2="0" y2="-400" stroke="#ddd" stroke-width="1" opacity="1"/><line transform="translate(157,0)" x2="0" y2="-400" stroke="#ddd" stroke-width="1" opacity="1"/><line transform="translate(183,0)" x2="0" y2="-400" stroke="#ddd" stroke-width="1" opacity="1"/><line transform="translate(209,0)" x2="0" y2="-400" stroke="#ddd" stroke-width="1" opacity="1"/><line transform="translate(236,0)" x2="0" y2="-400" stroke="#ddd" stroke-width="1" opacity="1"/><line transform="translate(262,0)" x2="0" y2="-400" stroke="#ddd" stroke-width="1" opacity="1"/><line transform="translate(288,0)" x2="0" y2="-400" stroke="#ddd" stroke-width="1" opacity="1"/><line transform="translate(314,0)" x2="0" y2="-400" stroke="#ddd" stroke-width="1" opacity="1"/><line transform="translate(340,0)" x2="0" y2="-400" stroke="#ddd" stroke-width="1" opacity="1"/><line transform="translate(367,0)" x2="0" y2="-400" stroke="#ddd" stroke-width="1" opacity="1"/><line transform="translate(393,0)" x2="0" y2="-400" stroke="#ddd" stroke-width="1" opacity="1"/><line transform="translate(419,0)" x2="0" y2="-400" stroke="#ddd" stroke-width="1" opacity="1"/><line transform="translate(445,0)" x2="0" y2="-400" stroke="#ddd" stroke-width="1" opacity="1"/><line transform="translate(471,0)" x2="0" y2="-400" stroke="#ddd" stroke-width="1" opacity="1"/><line transform="translate(497,0)" x2="0" y2="-400" stroke="#ddd" stroke-width="1" opacity="1"/><line transform="translate(524,0)" x2="0" y2="-400" stroke="#ddd" stroke-width="1" opacity="1"/><line transform="translate(550,0)" x2="0" y2="-400" stroke="#ddd" stroke-width="1" opacity="1"/><line transform="translate(576,0)" x2="0" y2="-400" stroke="#ddd" stroke-width="1" opacity="1"/><line transform="translate(602,0)" x2="0" y2="-400" stroke="#ddd" stroke-width="1" opacity="1"/><line transform="translate(628,0)" x2="0" y2="-400" stroke="#ddd" stroke-width="1" opacity="1"/><line transform="translate(655,0)" x2="0" y2="-400" stroke="#ddd" stroke-width="1" opacity="1"/><line transform="translate(681,0)" x2="0" y2="-400" stroke="#ddd" stroke-width="1" opacity="1"/><line transform="translate(707,0)" x2="0" y2="-400" stroke="#ddd" stroke-width="1" opacity="1"/></g></g><path class="foreground" aria-hidden="true" d="" pointer-events="none" display="none"/></g></g><g class="mark-group role-axis" role="graphics-symbol" aria-roledescription="axis" aria-label="X-axis titled 'Anteil (%)' for a linear scale with values from 0 to 6"><g transform="translate(0.5,400.5)"><path class="background" aria-hidden="true" d="M0,0h0v0h0Z" pointer-events="none"/><g><g class="mark-rule role-axis-tick" pointer-events="none"><line transform="translate(0,0)" x2="0" y2="5" stroke="#888" stroke-width="1" opacity="1"/><line transform="translate(26,0)" x2="0" y2="5" stroke="#888" stroke-width="1" opacity="1"/><line transform="translate(52,0)" x2="0" y2="5" stroke="#888" stroke-width="1" opacity="1"/><line transform="translate(79,0)" x2="0" y2="5" stroke="#888" stroke-width="1" opacity="1"/><line transform="translate(105,0)" x2="0" y2="5" stroke="#888" stroke-width="1" opacity="1"/><line transform="translate(131,0)" x2="0" y2="5" stroke="#888" stroke-width="1" opacity="1"/><line transform="translate(157,0)" x2="0" y2="5" stroke="#888" stroke-width="1" opacity="1"/><line transform="translate(183,0)" x2="0" y2="5" stroke="#888" stroke-width="1" opacity="1"/><line transform="translate(209,0)" x2="0" y2="5" stroke="#888" stroke-width="1" opacity="1"/><line transform="translate(236,0)" x2="0" y2="5" stroke="#888" stroke-width="1" opacity="1"/><line transform="translate(262,0)" x2="0" y2="5" stroke="#888" stroke-width="1" opacity="1"/><line transform="translate(288,0)" x2="0" y2="5" stroke="#888" stroke-width="1" opacity="1"/><line transform="translate(314,0)" x2="0" y2="5" stroke="#888" stroke-width="1" opacity="1"/><line transform="translate(340,0)" x2="0" y2="5" stroke="#888" stroke-width="1" opacity="1"/><line transform="translate(367,0)" x2="0" y2="5" stroke="#888" stroke-width="1" opacity="1"/><line transform="translate(393,0)" x2="0" y2="5" stroke="#888" stroke-width="1" opacity="1"/><line transform="translate(419,0)" x2="0" y2="5" stroke="#888" stroke-width="1" opacity="1"/><line transform="translate(445,0)" x2="0" y2="5" stroke="#888" stroke-width="1" opacity="1"/><line transform="translate(471,0)" x2="0" y2="5" stroke="#888" stroke-width="1" opacity="1"/><line transform="translate(497,0)" x2="0" y2="5" stroke="#888" stroke-width="1" opacity="1"/><line transform="translate(524,0)" x2="0" y2="5" stroke="#888" stroke-width="1" opacity="1"/><line transform="translate(550,0)" x2="0" y2="5" stroke="#888" stroke-width="1" opacity="1"/><line transform="translate(576,0)" x2="0" y2="5" stroke="#888" stroke-width="1" opacity="1"/><line transform="translate(602,0)" x2="0" y2="5" stroke="#888" stroke-width="1" opacity="1"/><line transform="translate(628,0)" x2="0" y2="5" stroke="#888" stroke-width="1" opacity="1"/><line transform="translate(655,0)" x2="0" y2="5" stroke="#888" stroke-width="1" opacity="1"/><line transform="translate(681,0)" x2="0" y2="5" stroke="#888" stroke-width="1" opacity="1"/><line transform="translate(707,0)" x2="0" y2="5" stroke="#888" stroke-width="1" opacity="1"/></g><g class="mark-text role-axis-label" pointer-events="none"><text text-anchor="start" transform="translate(0,15)" font-family="Switzer, system-ui, sans-serif" font-size="10px" fill="#000" opacity="1">0.0</text><text text-anchor="middle" transform="translate(26.181818181818187,15)" font-family="Switzer, system-ui, sans-serif" font-size="10px" fill="#000" opacity="1">0.2</text><text text-anchor="middle" transform="translate(52.363636363636374,15)" font-family="Switzer, system-ui, sans-serif" font-size="10px" fill="#000" opacity="1">0.4</text><text text-anchor="middle" transform="translate(78.54545454545455,15)" font-family="Switzer, system-ui, sans-serif" font-size="10px" fill="#000" opacity="1">0.6</text><text text-anchor="middle" transform="translate(104.72727272727275,15)" font-family="Switzer, system-ui, sans-serif" font-size="10px" fill="#000" opacity="1">0.8</text><text text-anchor="middle" transform="translate(130.9090909090909,15)" font-family="Switzer, system-ui, sans-serif" font-size="10px" fill="#000" opacity="1">1.0</text><text text-anchor="middle" transform="translate(157.0909090909091,15)" font-family="Switzer, system-ui, sans-serif" font-size="10px" fill="#000" opacity="1">1.2</text><text text-anchor="middle" transform="translate(183.27272727272725,15)" font-family="Switzer, system-ui, sans-serif" font-size="10px" fill="#000" opacity="1">1.4</text><text text-anchor="middle" transform="translate(209.4545454545455,15)" font-family="Switzer, system-ui, sans-serif" font-size="10px" fill="#000" opacity="1">1.6</text><text text-anchor="middle" transform="translate(235.63636363636363,15)" font-family="Switzer, system-ui, sans-serif" font-size="10px" fill="#000" opacity="1">1.8</text><text text-anchor="middle" transform="translate(261.8181818181818,15)" font-family="Switzer, system-ui, sans-serif" font-size="10px" fill="#000" opacity="1">2.0</text><text text-anchor="middle" transform="translate(288,15)" font-family="Switzer, system-ui, sans-serif" font-size="10px" fill="#000" opacity="1">2.2</text><text text-anchor="middle" transform="translate(314.1818181818182,15)" font-family="Switzer, system-ui, sans-serif" font-size="10px" fill="#000" opacity="1">2.4</text><text text-anchor="middle" transform="translate(340.3636363636364,15)" font-family="Switzer, system-ui, sans-serif" font-size="10px" fill="#000" opacity="1">2.6</text><text text-anchor="middle" transform="translate(366.5454545454545,15)" font-family="Switzer, system-ui, sans-serif" font-size="10px" fill="#000" opacity="1">2.8</text><text text-anchor="middle" transform="translate(392.7272727272727,15)" font-family="Switzer, system-ui, sans-serif" font-size="10px" fill="#000" opacity="1">3.0</text><text text-anchor="middle" transform="translate(418.909090909091,15)" font-family="Switzer, system-ui, sans-serif" font-size="10px" fill="#000" opacity="1">3.2</text><text text-anchor="middle" transform="translate(445.09090909090907,15)" font-family="Switzer, system-ui, sans-serif" font-size="10px" fill="#000" opacity="1">3.4</text><text text-anchor="middle" transform="translate(471.27272727272725,15)" font-family="Switzer, system-ui, sans-serif" font-size="10px" fill="#000" opacity="1">3.6</text><text text-anchor="middle" transform="translate(497.45454545454544,15)" font-family="Switzer, system-ui, sans-serif" font-size="10px" fill="#000" opacity="1">3.8</text><text text-anchor="middle" transform="translate(523.6363636363636,15)" font-family="Switzer, system-ui, sans-serif" font-size="10px" fill="#000" opacity="1">4.0</text><text text-anchor="middle" transform="translate(549.8181818181819,15)" font-family="Switzer, system-ui, sans-serif" font-size="10px" fill="#000" opacity="1">4.2</text><text text-anchor="middle" transform="translate(576,15)" font-family="Switzer, system-ui, sans-serif" font-size="10px" fill="#000" opacity="1">4.4</text><text text-anchor="middle" transform="translate(602.1818181818181,15)" font-family="Switzer, system-ui, sans-serif" font-size="10px" fill="#000" opacity="1">4.6</text><text text-anchor="middle" transform="translate(628.3636363636364,15)" font-family="Switzer, system-ui, sans-serif" font-size="10px" fill="#000" opacity="1">4.8</text><text text-anchor="middle" transform="translate(654.5454545454545,15)" font-family="Switzer, system-ui, sans-serif" font-size="10px" fill="#000" opacity="1">5.0</text><text text-anchor="middle" transform="translate(680.7272727272727,15)" font-family="Switzer, system-ui, sans-serif" font-size="10px" fill="#000" opacity="1">5.2</text><text text-anchor="middle" transform="translate(706.909090909091,15)" font-family="Switzer, system-ui, sans-serif" font-size="10px" fill="#000" opacity="1">5.4</text></g><g class="mark-rule role-axis-domain" pointer-events="none"><line transform="translate(0,0)" x2="720" y2="0" stroke="#888" stroke-width="1" opacity="1"/></g><g class="mark-text role-axis-title" pointer-events="none"><text text-anchor="middle" transform="translate(360,30)" font-family="Switzer, system-ui, sans-serif" font-size="11px" font-weight="bold" fill="#000" opacity="1">Anteil (%)</text></g></g><path class="foreground" aria-hidden="true" d="" pointer-events="none" display="none"/></g></g><g class="mark-group role-axis" role="graphics-symbol" aria-roledescription="axis" aria-label="Y-axis for a discrete scale with 3 values: CH Verwaltungsanteil, OECD-Schnitt, Überschuss"><g transform="translate(0.5,0.5)"><path class="background" aria-hidden="true" d="M0,0h0v0h0Z" pointer-events="none"/><g><g class="mark-rule role-axis-tick" pointer-events="none"><line transform="translate(0,66)" x2="-5" y2="0" stroke="#888" stroke-width="1" opacity="1"/><line transform="translate(0,200)" x2="-5" y2="0" stroke="#888" stroke-width="1" opacity="1"/><line transform="translate(0,333)" x2="-5" y2="0" stroke="#888" stroke-width="1" opacity="1"/></g><g class="mark-text role-axis-label" pointer-events="none"><text text-anchor="end" transform="translate(-7,69.16666666666666)" font-family="Switzer, system-ui, sans-serif" font-size="10px" fill="#000" opacity="1">CH Verwaltungsanteil</text><text text-anchor="end" transform="translate(-7,202.5)" font-family="Switzer, system-ui, sans-serif" font-size="10px" fill="#000" opacity="1">OECD-Schnitt</text><text text-anchor="end" transform="translate(-7,335.83333333333337)" font-family="Switzer, system-ui, sans-serif" font-size="10px" fill="#000" opacity="1">Überschuss</text></g><g class="mark-rule role-axis-domain" pointer-events="none"><line transform="translate(0,0)" x2="0" y2="400" stroke="#888" stroke-width="1" opacity="1"/></g></g><path class="foreground" aria-hidden="true" d="" pointer-events="none" display="none"/></g></g><g class="mark-group role-scope" role="graphics-object" aria-roledescription="group mark container"><g transform="translate(0,6.666666666666657)"><path class="background" aria-hidden="true" d="M0,0L676.7272727272727,0C678.9349328252488,0,680.7272727272727,1.792339902024,680.7272727272727,4L680.7272727272727,116.00000000000001C680.7272727272727,118.20766009797602,678.9349328252488,120.00000000000001,676.7272727272727,120.00000000000001L0,120.00000000000001C0,120.00000000000001,0,120.00000000000001,0,120.00000000000001L0,0C0,0,0,0,0,0Z"/><g clip-path="url(#clip166)"><g class="mark-group role-scope" role="graphics-object" aria-roledescription="group mark container"><g transform="translate(0,0)"><path class="background" aria-hidden="true" d="M0,0h0v120.00000000000001h0Z"/><g><g class="mark-rect role-mark marks" role="graphics-object" aria-roledescription="rect mark container"><path aria-label="Anteil (%): 5.2; Kategorie: CH Verwaltungsanteil" role="graphics-symbol" aria-roledescription="bar" d="M0,0h680.7272727272727v120.00000000000001h-680.7272727272727Z" fill="#a855f7"/></g></g><path class="foreground" aria-hidden="true" d="" display="none"/></g></g></g><path class="foreground" aria-hidden="true" d="" display="none"/></g><g transform="translate(0,140)"><path class="background" aria-hidden="true" d="M0,0L428,0C430.207660097976,0,432,1.792339902024,432,4L432,116.00000000000001C432,118.20766009797602,430.207660097976,120.00000000000001,428,120.00000000000001L0,120.00000000000001C0,120.00000000000001,0,120.00000000000001,0,120.00000000000001L0,0C0,0,0,0,0,0Z"/><g clip-path="url(#clip167)"><g class="mark-group role-scope" role="graphics-object" aria-roledescription="group mark container"><g transform="translate(0,0)"><path class="background" aria-hidden="true" d="M0,0h0v120.00000000000001h0Z"/><g><g class="mark-rect role-mark marks" role="graphics-object" aria-roledescription="rect mark container"><path aria-label="Anteil (%): 3.3; Kategorie: OECD-Schnitt" role="graphics-symbol" aria-roledescription="bar" d="M0,0h432v120.00000000000001h-432Z" fill="#6b7280"/></g></g><path class="foreground" aria-hidden="true" d="" display="none"/></g></g></g><path class="foreground" aria-hidden="true" d="" display="none"/></g><g transform="translate(0,273.33333333333337)"><path class="background" aria-hidden="true" d="M0,0L244.72727272727278,0C246.93493282524878,0,248.72727272727278,1.792339902024,248.72727272727278,4L248.72727272727278,116.00000000000001C248.72727272727278,118.20766009797602,246.93493282524878,120.00000000000001,244.72727272727278,120.00000000000001L0,120.00000000000001C0,120.00000000000001,0,120.00000000000001,0,120.00000000000001L0,0C0,0,0,0,0,0Z"/><g clip-path="url(#clip168)"><g class="mark-group role-scope" role="graphics-object" aria-roledescription="group mark container"><g transform="translate(0,0)"><path class="background" aria-hidden="true" d="M0,0h0v120.00000000000001h0Z"/><g><g class="mark-rect role-mark marks" role="graphics-object" aria-roledescription="rect mark container"><path aria-label="Anteil (%): 1.9; Kategorie: Überschuss" role="graphics-symbol" aria-roledescription="bar" d="M0,0h248.72727272727278v120.00000000000001h-248.72727272727278Z" fill="#ef4444"/></g></g><path class="foreground" aria-hidden="true" d="" display="none"/></g></g></g><path class="foreground" aria-hidden="true" d="" display="none"/></g></g><g class="mark-group role-title"><g transform="translate(360,-17)"><path class="background" aria-hidden="true" d="M0,0h0v0h0Z" pointer-events="none"/><g><g class="mark-text role-title-text" role="graphics-symbol" aria-roledescription="title" aria-label="Title text 'Verwaltungsüberschuss der Schweiz'" pointer-events="none"><text text-anchor="middle" transform="translate(0,10)" font-family="Switzer, system-ui, sans-serif" font-size="13px" font-weight="bold" fill="#000" opacity="1">Verwaltungsüberschuss der Schweiz</text></g></g><path class="foreground" aria-hidden="true" d="" pointer-events="none" display="none"/></g></g></g><path class="foreground" aria-hidden="true" d="" display="none"/></g></g></g><defs><clipPath id="clip166"><path d="M0,0L676.7272727272727,0C678.9349328252488,0,680.7272727272727,1.792339902024,680.7272727272727,4L680.7272727272727,116.00000000000001C680.7272727272727,118.20766009797602,678.9349328252488,120.00000000000001,676.7272727272727,120.00000000000001L0,120.00000000000001C0,120.00000000000001,0,120.00000000000001,0,120.00000000000001L0,0C0,0,0,0,0,0Z"/></clipPath><clipPath id="clip167"><path d="M0,0L428,0C430.207660097976,0,432,1.792339902024,432,4L432,116.00000000000001C432,118.20766009797602,430.207660097976,120.00000000000001,428,120.00000000000001L0,120.00000000000001C0,120.00000000000001,0,120.00000000000001,0,120.00000000000001L0,0C0,0,0,0,0,0Z"/></clipPath><clipPath id="clip168"><path d="M0,0L244.72727272727278,0C246.93493282524878,0,248.72727272727278,1.792339902024,248.72727272727278,4L248.72727272727278,116.00000000000001C248.72727272727278,118.20766009797602,246.93493282524878,120.00000000000001,244.72727272727278,120.00000000000001L0,120.00000000000001C0,120.00000000000001,0,120.00000000000001,0,120.00000000000001L0,0C0,0,0,0,0,0Z"/></clipPath></defs></svg>