<svg xmlns="http://www.w3.org/2000/svg" xmlns:xlink="http://www.w3.org/1999/xlink" version="1.1" class="marks" width="766" height="428" viewBox="0 0 766 428"><rect width="766" height="428" fill="white"/><g fill="none" stroke-miterlimit="10" transform="translate(41,27)"><g class="mark-group role-frame root" role="graphics-object" aria-roledescription="group mark container"><g transform="translate(0,0)"><path class="background" aria-hidden="true" d="M0.5,0.5h720v350h-720Z"/><g><g class="mark-group role-axis" aria-hidden="true"><g transform="translate(0.5,0.5)"><path class="background" aria-hidden="true" d="M0,0h0v0h0Z" pointer-events="none"/><g><g class="mark-rule role-axis-grid" pointer-events="none"><line transform="translate(0,350)" x2="720" y2="0" stroke="#ddd" stroke-width="1" opacity="1"/><line transform="translate(0,321)" x2="720" y2="0" stroke="#ddd" stroke-width="1" opacity="1"/><line transform="translate(0,292)" x2="720" y2="0" stroke="#ddd" stroke-width="1" opacity="1"/><line transform="translate(0,262)" x2="720" y2="0" stroke="#ddd" stroke-width="1" opacity="1"/><line transform="translate(0,233)" x2="720" y2="0" stroke="#ddd" stroke-width="1" opacity="1"/><line transform="translate(0,204)" x2="720" y2="0" stroke="#ddd" stroke-width="1" opacity="1"/><line transform="translate(0,175)" x2="720" y2="0" stroke="#ddd" stroke-width="1" opacity="1"/><line transform="translate(0,146)" x2="720" y2="0" stroke="#ddd" stroke-width="1" opacity="1"/><line transform="translate(0,117)" x2="720" y2="0" stroke="#ddd" stroke-width="1" opacity="1"/><line transform="translate(0,87)" x2="720" y2="0" stroke="#ddd" stroke-width="1" opacity="1"/><line transform="translate(0,58)" x2="720" y2="0" stroke="#ddd" stroke-width="1" opacity="1"/><line transform="translate(0,29)" x2="720" y2="0" stroke="#ddd" stroke-width="1" opacity="1"/><line transform="translate(0,0)" x2="720" y2="0" stroke="#ddd" stroke-width="1" opacity="1"/></g></g><path class="foreground" aria-hidden="true" d="" pointer-events="none" display="none"/></g></g><g class="mark-group role-axis" role="graphics-symbol" aria-roledescription="axis" aria-label="X-axis titled 'Jahr' for a discrete scale with 25 values: 1995, 1996, 1997, 1998, 1999, ending with 2019"><g transform="translate(0.5,350.5)"><path class="background" aria-hidden="true" d="M0,0h0v0h0Z" pointer-events="none"/><g><g class="mark-rule role-axis-tick" pointer-events="none"><line transform="translate(14,0)" x2="0" y2="5" stroke="#888" stroke-width="1" opacity="1"/><line transform="translate(43,0)" x2="0" y2="5" stroke="#888" stroke-width="1" opacity="1"/><line transform="translate(72,0)" x2="0" y2="5" stroke="#888" stroke-width="1" opacity="1"/><line transform="translate(101,0)" x2="0" y2="5" stroke="#888" stroke-width="1" opacity="1"/><line transform="translate(130,0)" x2="0" y2="5" stroke="#888" stroke-width="1" opacity="1"/><line transform="translate(158,0)" x2="0" y2="5" stroke="#888" stroke-width="1" opacity="1"/><line transform="translate(187,0)" x2="0" y2="5" stroke="#888" stroke-width="1" opacity="1"/><line transform="translate(216,0)" x2="0" y2="5" stroke="#888" stroke-width="1" opacity="1"/><line transform="translate(245,0)" x2="0" y2="5" stroke="#888" stroke-width="1" opacity="1"/><line transform="translate(274,0)" x2="0" y2="5" stroke="#888" stroke-width="1" opacity="1"/><line transform="translate(302,0)" x2="0" y2="5" stroke="#888" stroke-width="1" opacity="1"/><line transform="translate(331,0)" x2="0" y2="5" stroke="#888" stroke-width="1" opacity="1"/><line transform="translate(360,0)" x2="0" y2="5" stroke="#888" stroke-width="1" opacity="1"/><line transform="translate(389,0)" x2="0" y2="5" stroke="#888" stroke-width="1" opacity="1"/><line transform="translate(418,0)" x2="0" y2="5" stroke="#888" stroke-width="1" opacity="1"/><line transform="translate(446,0)" x2="0" y2="5" stroke="#888" stroke-width="1" opacity="1"/><line transform="translate(475,0)" x2="0" y2="5" stroke="#888" stroke-width="1" opacity="1"/><line transform="translate(504,0)" x2="0" y2="5" stroke="#888" stroke-width="1" opacity="1"/><line transform="translate(533,0)" x2="0" y2="5" stroke="#888" stroke-width="1" opacity="1"/><line transform="translate(562,0)" x2="0" y2="5" stroke="#888" stroke-width="1" opacity="1"/><line transform="translate(590,0)" x2="0" y2="5" stroke="#888" stroke-width="1" opacity="1"/><line transform="translate(619,0)" x2="0" y2="5" stroke="#888" stroke-width="1" opacity="1"/><line transform="translate(648,0)" x2="0" y2="5" stroke="#888" stroke-width="1" opacity="1"/><line transform="translate(677,0)" x2="0" y2="5" stroke="#888" stroke-width="1" opacity="1"/><line transform="translate(706,0)" x2="0" y2="5" stroke="#888" stroke-width="1" opacity="1"/></g><g class="mark-text role-axis-label" pointer-events="none"><text text-anchor="end" transform="translate(14.399999999999977,7) rotate(270) translate(0,3)" font-family="Switzer, system-ui, sans-serif" font-size="10px" fill="#000" opacity="1">1995</text><text text-anchor="end" transform="translate(43.199999999999974,7) rotate(270) translate(0,3)" font-family="Switzer, system-ui, sans-serif" font-size="10px" fill="#000" opacity="1">1996</text><text text-anchor="end" transform="translate(71.99999999999997,7) rotate(270) translate(0,3)" font-family="Switzer, system-ui, sans-serif" font-size="10px" fill="#000" opacity="1">1997</text><text text-anchor="end" transform="translate(100.79999999999998,7) rotate(270) translate(0,3)" font-family="Switzer, system-ui, sans-serif" font-size="10px" fill="#000" opacity="1">1998</text><text text-anchor="end" transform="translate(129.59999999999997,7) rotate(270) translate(0,3)" font-family="Switzer, system-ui, sans-serif" font-size="10px" fill="#000" opacity="1">1999</text><text text-anchor="end" transform="translate(158.39999999999998,7) rotate(270) translate(0,3)" font-family="Switzer, system-ui, sans-serif" font-size="10px" fill="#000" opacity="1">2000</text><text text-anchor="end" transform="translate(187.2,7) rotate(270) translate(0,3)" font-family="Switzer, system-ui, sans-serif" font-size="10px" fill="#000" opacity="1">2001</text><text text-anchor="end" transform="translate(215.99999999999997,7) rotate(270) translate(0,3)" font-family="Switzer, system-ui, sans-serif" font-size="10px" fill="#000" opacity="1">2002</text><text text-anchor="end" transform="translate(244.79999999999998,7) rotate(270) translate(0,3)" font-family="Switzer, system-ui, sans-serif" font-size="10px" fill="#000" opacity="1">2003</text><text text-anchor="end" transform="translate(273.59999999999997,7) rotate(270) translate(0,3)" font-family="Switzer, system-ui, sans-serif" font-size="10px" fill="#000" opacity="1">2004</text><text text-anchor="end" transform="translate(302.4,7) rotate(270) translate(0,3)" font-family="Switzer, system-ui, sans-serif" font-size="10px" fill="#000" opacity="1">2005</text><text text-anchor="end" transform="translate(331.2,7) rotate(270) translate(0,3)" font-family="Switzer, system-ui, sans-serif" font-size="10px" fill="#000" opacity="1">2006</text><text text-anchor="end" transform="translate(360,7) rotate(270) translate(0,3)" font-family="Switzer, system-ui, sans-serif" font-size="10px" fill="#000" opacity="1">2007</text><text text-anchor="end" transform="translate(388.8,7) rotate(270) translate(0,3)" font-family="Switzer, system-ui, sans-serif" font-size="10px" fill="#000" opacity="1">2008</text><text text-anchor="end" transform="translate(417.59999999999997,7) rotate(270) translate(0,3)" font-family="Switzer, system-ui, sans-serif" font-size="10px" fill="#000" opacity="1">2009</text><text text-anchor="end" transform="translate(446.4,7) rotate(270) translate(0,3)" font-family="Switzer, system-ui, sans-serif" font-size="10px" fill="#000" opacity="1">2010</text><text text-anchor="end" transform="translate(475.2,7) rotate(270) translate(0,3)" font-family="Switzer, system-ui, sans-serif" font-size="10px" fill="#000" opacity="1">2011</text><text text-anchor="end" transform="translate(504,7) rotate(270) translate(0,3)" font-family="Switzer, system-ui, sans-serif" font-size="10px" fill="#000" opacity="1">2012</text><text text-anchor="end" transform="translate(532.8,7) rotate(270) translate(0,3)" font-family="Switzer, system-ui, sans-serif" font-size="10px" fill="#000" opacity="1">2013</text><text text-anchor="end" transform="translate(561.6,7) rotate(270) translate(0,3)" font-family="Switzer, system-ui, sans-serif" font-size="10px" fill="#000" opacity="1">2014</text><text text-anchor="end" transform="translate(590.4,7) rotate(270) translate(0,3)" font-family="Switzer, system-ui, sans-serif" font-size="10px" fill="#000" opacity="1">2015</text><text text-anchor="end" transform="translate(619.2,7) rotate(270) translate(0,3)" font-family="Switzer, system-ui, sans-serif" font-size="10px" fill="#000" opacity="1">2016</text><text text-anchor="end" transform="translate(648,7) rotate(270) translate(0,3)" font-family="Switzer, system-ui, sans-serif" font-size="10px" fill="#000" opacity="1">2017</text><text text-anchor="end" transform="translate(676.8,7) rotate(270) translate(0,3)" font-family="Switzer, system-ui, sans-serif" font-size="10px" fill="#000" opacity="1">2018</text><text text-anchor="end" transform="translate(705.6,7) rotate(270) translate(0,3)" font-family="Switzer, system-ui, sans-serif" font-size="10px" fill="#000" opacity="1">2019</text></g><g class="mark-rule role-axis-domain" pointer-events="none"><line transform="translate(0,0)" x2="720" y2="0" stroke="#888" stroke-width="1" opacity="1"/></g><g class="mark-text role-axis-title" pointer-events="none"><text text-anchor="middle" transform="translate(360,43.040000915527344)" font-family="Switzer, system-ui, sans-serif" font-size="11px" font-weight="bold" fill="#000" opacity="1">Jahr</text></g></g><path class="foreground" aria-hidden="true" d="" pointer-events="none" display="none"/></g></g><g class="mark-group role-axis" role="graphics-symbol" aria-roledescription="axis" aria-label="Y-axis titled 'Verwaltungsanteil (%)' for a linear scale with values from 3.9 to 5.1"><g transform="translate(0.5,0.5)"><path class="background" aria-hidden="true" d="M0,0h0v0h0Z" pointer-events="none"/><g><g class="mark-rule role-axis-tick" pointer-events="none"><line transform="translate(0,350)" x2="-5" y2="0" stroke="#888" stroke-width="1" opacity="1"/><line transform="translate(0,321)" x2="-5" y2="0" stroke="#888" stroke-width="1" opacity="1"/><line transform="translate(0,292)" x2="-5" y2="0" stroke="#888" stroke-width="1" opacity="1"/><line transform="translate(0,262)" x2="-5" y2="0" stroke="#888" stroke-width="1" opacity="1"/><line transform="translate(0,233)" x2="-5" y2="0" stroke="#888" stroke-width="1" opacity="1"/><line transform="translate(0,204)" x2="-5" y2="0" stroke="#888" stroke-width="1" opacity="1"/><line transform="translate(0,175)" x2="-5" y2="0" stroke="#888" stroke-width="1" opacity="1"/><line transform="translate(0,146)" x2="-5" y2="0" stroke="#888" stroke-width="1" opacity="1"/><line transform="translate(0,117)" x2="-5" y2="0" stroke="#888" stroke-width="1" opacity="1"/><line transform="translate(0,87)" x2="-5" y2="0" stroke="#888" stroke-width="1" opacity="1"/><line transform="translate(0,58)" x2="-5" y2="0" stroke="#888" stroke-width="1" opacity="1"/><line transform="translate(0,29)" x2="-5" y2="0" stroke="#888" stroke-width="1" opacity="1"/><line transform="translate(0,0)" x2="-5" y2="0" stroke="#888" stroke-width="1" opacity="1"/></g><g class="mark-text role-axis-label" pointer-events="none"><text text-anchor="end" transform="translate(-7,353)" font-family="Switzer, system-ui, sans-serif" font-size="10px" fill="#000" opacity="1">3.9</text><text text-anchor="end" transform="translate(-7,323.83333333333326)" font-family="Switzer, system-ui, sans-serif" font-size="10px" fill="#000" opacity="1">4.0</text><text text-anchor="end" transform="translate(-7,294.66666666666674)" font-family="Switzer, system-ui, sans-serif" font-size="10px" fill="#000" opacity="1">4.1</text><text text-anchor="end" transform="translate(-7,265.49999999999994)" font-family="Switzer, system-ui, sans-serif" font-size="10px" fill="#000" opacity="1">4.2</text><text text-anchor="end" transform="translate(-7,236.33333333333337)" font-family="Switzer, system-ui, sans-serif" font-size="10px" fill="#000" opacity="1">4.3</text><text text-anchor="end" transform="translate(-7,207.1666666666665)" font-family="Switzer, system-ui, sans-serif" font-size="10px" fill="#000" opacity="1">4.4</text><text text-anchor="end" transform="translate(-7,177.99999999999991)" font-family="Switzer, system-ui, sans-serif" font-size="10px" fill="#000" opacity="1">4.5</text><text text-anchor="end" transform="translate(-7,148.83333333333337)" font-family="Switzer, system-ui, sans-serif" font-size="10px" fill="#000" opacity="1">4.6</text><text text-anchor="end" transform="translate(-7,119.66666666666653)" font-family="Switzer, system-ui, sans-serif" font-size="10px" fill="#000" opacity="1">4.7</text><text text-anchor="end" transform="translate(-7,90.49999999999996)" font-family="Switzer, system-ui, sans-serif" font-size="10px" fill="#000" opacity="1">4.8</text><text text-anchor="end" transform="translate(-7,61.33333333333313)" font-family="Switzer, system-ui, sans-serif" font-size="10px" fill="#000" opacity="1">4.9</text><text text-anchor="end" transform="translate(-7,32.166666666666565)" font-family="Switzer, system-ui, sans-serif" font-size="10px" fill="#000" opacity="1">5.0</text><text text-anchor="end" transform="translate(-7,3)" font-family="Switzer, system-ui, sans-serif" font-size="10px" fill="#000" opacity="1">5.1</text></g><g class="mark-rule role-axis-domain" pointer-events="none"><line transform="translate(0,350)" x2="0" y2="-350" stroke="#888" stroke-width="1" opacity="1"/></g><g class="mark-text role-axis-title" pointer-events="none"><text text-anchor="middle" transform="translate(-24.799999237060547,175) rotate(-90) translate(0,-2)" font-family="Switzer, system-ui, sans-serif" font-size="11px" font-weight="bold" fill="#000" opacity="1">Verwaltungsanteil (%)</text></g></g><path class="foreground" aria-hidden="true" d="" pointer-events="none" display="none"/></g></g><g class="mark-line role-mark layer_0_marks" role="graphics-object" aria-roledescription="line mark container"><path aria-label="Jahr: 1995; Verwaltungsanteil (%): 4.78" role="graphics-symbol" aria-roledescription="line mark" d="M14.4,93.333L43.2,8.75L72,26.25L100.8,32.083L129.6,72.917L158.4,105L187.2,157.5L216,154.583L244.8,183.75L273.6,183.75L302.4,189.583L331.2,154.583L360,163.333L388.8,128.333L417.6,151.667L446.4,128.333L475.2,128.333L504,215.833L532.8,285.833L561.6,315L590.4,335.417L619.2,317.917L648,332.5L676.8,317.917L705.6,312.083" stroke="#ef4444" stroke-width="2.5"/></g><g class="mark-symbol role-mark layer_1_marks" role="graphics-object" aria-roledescription="symbol mark container"><path aria-label="Jahr: 1995; Verwaltungsanteil (%): 4.78" role="graphics-symbol" aria-roledescription="point" transform="translate(14.399999999999977,93.3333333333332)" d="M4.472,0A4.472,4.472,0,1,1,-4.472,0A4.472,4.472,0,1,1,4.472,0" fill="#ef4444" stroke-width="2" opacity="1"/><path aria-label="Jahr: 1996; Verwaltungsanteil (%): 5.07" role="graphics-symbol" aria-roledescription="point" transform="translate(43.199999999999974,8.749999999999813)" d="M4.472,0A4.472,4.472,0,1,1,-4.472,0A4.472,4.472,0,1,1,4.472,0" fill="#ef4444" stroke-width="2" opacity="1"/><path aria-label="Jahr: 1997; Verwaltungsanteil (%): 5.01" role="graphics-symbol" aria-roledescription="point" transform="translate(71.99999999999997,26.249999999999947)" d="M4.472,0A4.472,4.472,0,1,1,-4.472,0A4.472,4.472,0,1,1,4.472,0" fill="#ef4444" stroke-width="2" opacity="1"/><path aria-label="Jahr: 1998; Verwaltungsanteil (%): 4.99" role="graphics-symbol" aria-roledescription="point" transform="translate(100.79999999999998,32.08333333333318)" d="M4.472,0A4.472,4.472,0,1,1,-4.472,0A4.472,4.472,0,1,1,4.472,0" fill="#ef4444" stroke-width="2" opacity="1"/><path aria-label="Jahr: 1999; Verwaltungsanteil (%): 4.85" role="graphics-symbol" aria-roledescription="point" transform="translate(129.59999999999997,72.91666666666669)" d="M4.472,0A4.472,4.472,0,1,1,-4.472,0A4.472,4.472,0,1,1,4.472,0" fill="#ef4444" stroke-width="2" opacity="1"/><path aria-label="Jahr: 2000; Verwaltungsanteil (%): 4.74" role="graphics-symbol" aria-roledescription="point" transform="translate(158.39999999999998,104.99999999999986)" d="M4.472,0A4.472,4.472,0,1,1,-4.472,0A4.472,4.472,0,1,1,4.472,0" fill="#ef4444" stroke-width="2" opacity="1"/><path aria-label="Jahr: 2001; Verwaltungsanteil (%): 4.56" role="graphics-symbol" aria-roledescription="point" transform="translate(187.2,157.50000000000006)" d="M4.472,0A4.472,4.472,0,1,1,-4.472,0A4.472,4.472,0,1,1,4.472,0" fill="#ef4444" stroke-width="2" opacity="1"/><path aria-label="Jahr: 2002; Verwaltungsanteil (%): 4.57" role="graphics-symbol" aria-roledescription="point" transform="translate(215.99999999999997,154.58333333333317)" d="M4.472,0A4.472,4.472,0,1,1,-4.472,0A4.472,4.472,0,1,1,4.472,0" fill="#ef4444" stroke-width="2" opacity="1"/><path aria-label="Jahr: 2003; Verwaltungsanteil (%): 4.47" role="graphics-symbol" aria-roledescription="point" transform="translate(244.79999999999998,183.75)" d="M4.472,0A4.472,4.472,0,1,1,-4.472,0A4.472,4.472,0,1,1,4.472,0" fill="#ef4444" stroke-width="2" opacity="1"/><path aria-label="Jahr: 2004; Verwaltungsanteil (%): 4.47" role="graphics-symbol" aria-roledescription="point" transform="translate(273.59999999999997,183.75)" d="M4.472,0A4.472,4.472,0,1,1,-4.472,0A4.472,4.472,0,1,1,4.472,0" fill="#ef4444" stroke-width="2" opacity="1"/><path aria-label="Jahr: 2005; Verwaltungsanteil (%): 4.45" role="graphics-symbol" aria-roledescription="point" transform="translate(302.4,189.5833333333332)" d="M4.472,0A4.472,4.472,0,1,1,-4.472,0A4.472,4.472,0,1,1,4.472,0" fill="#ef4444" stroke-width="2" opacity="1"/><path aria-label="Jahr: 2006; Verwaltungsanteil (%): 4.57" role="graphics-symbol" aria-roledescription="point" transform="translate(331.2,154.58333333333317)" d="M4.472,0A4.472,4.472,0,1,1,-4.472,0A4.472,4.472,0,1,1,4.472,0" fill="#ef4444" stroke-width="2" opacity="1"/><path aria-label="Jahr: 2007; Verwaltungsanteil (%): 4.54" role="graphics-symbol" aria-roledescription="point" transform="translate(360,163.33333333333326)" d="M4.472,0A4.472,4.472,0,1,1,-4.472,0A4.472,4.472,0,1,1,4.472,0" fill="#ef4444" stroke-width="2" opacity="1"/><path aria-label="Jahr: 2008; Verwaltungsanteil (%): 4.66" role="graphics-symbol" aria-roledescription="point" transform="translate(388.8,128.33333333333323)" d="M4.472,0A4.472,4.472,0,1,1,-4.472,0A4.472,4.472,0,1,1,4.472,0" fill="#ef4444" stroke-width="2" opacity="1"/><path aria-label="Jahr: 2009; Verwaltungsanteil (%): 4.58" role="graphics-symbol" aria-roledescription="point" transform="translate(417.59999999999997,151.6666666666666)" d="M4.472,0A4.472,4.472,0,1,1,-4.472,0A4.472,4.472,0,1,1,4.472,0" fill="#ef4444" stroke-width="2" opacity="1"/><path aria-label="Jahr: 2010; Verwaltungsanteil (%): 4.66" role="graphics-symbol" aria-roledescription="point" transform="translate(446.4,128.33333333333323)" d="M4.472,0A4.472,4.472,0,1,1,-4.472,0A4.472,4.472,0,1,1,4.472,0" fill="#ef4444" stroke-width="2" opacity="1"/><path aria-label="Jahr: 2011; Verwaltungsanteil (%): 4.66" role="graphics-symbol" aria-roledescription="point" transform="translate(475.2,128.33333333333323)" d="M4.472,0A4.472,4.472,0,1,1,-4.472,0A4.472,4.472,0,1,1,4.472,0" fill="#ef4444" stroke-width="2" opacity="1"/><path aria-label="Jahr: 2012; Verwaltungsanteil (%): 4.36" role="graphics-symbol" aria-roledescription="point" transform="translate(504,215.8333333333332)" d="M4.472,0A4.472,4.472,0,1,1,-4.472,0A4.472,4.472,0,1,1,4.472,0" fill="#ef4444" stroke-width="2" opacity="1"/><path aria-label="Jahr: 2013; Verwaltungsanteil (%): 4.12" role="graphics-symbol" aria-roledescription="point" transform="translate(532.8,285.83333333333326)" d="M4.472,0A4.472,4.472,0,1,1,-4.472,0A4.472,4.472,0,1,1,4.472,0" fill="#ef4444" stroke-width="2" opacity="1"/><path aria-label="Jahr: 2014; Verwaltungsanteil (%): 4.02" role="graphics-symbol" aria-roledescription="point" transform="translate(561.6,315.0000000000001)" d="M4.472,0A4.472,4.472,0,1,1,-4.472,0A4.472,4.472,0,1,1,4.472,0" fill="#ef4444" stroke-width="2" opacity="1"/><path aria-label="Jahr: 2015; Verwaltungsanteil (%): 3.95" role="graphics-symbol" aria-roledescription="point" transform="translate(590.4,335.41666666666663)" d="M4.472,0A4.472,4.472,0,1,1,-4.472,0A4.472,4.472,0,1,1,4.472,0" fill="#ef4444" stroke-width="2" opacity="1"/><path aria-label="Jahr: 2016; Verwaltungsanteil (%): 4.01" role="graphics-symbol" aria-roledescription="point" transform="translate(619.2,317.9166666666667)" d="M4.472,0A4.472,4.472,0,1,1,-4.472,0A4.472,4.472,0,1,1,4.472,0" fill="#ef4444" stroke-width="2" opacity="1"/><path aria-label="Jahr: 2017; Verwaltungsanteil (%): 3.96" role="graphics-symbol" aria-roledescription="point" transform="translate(648,332.5)" d="M4.472,0A4.472,4.472,0,1,1,-4.472,0A4.472,4.472,0,1,1,4.472,0" fill="#ef4444" stroke-width="2" opacity="1"/><path aria-label="Jahr: 2018; Verwaltungsanteil (%): 4.01" role="graphics-symbol" aria-roledescription="point" transform="translate(676.8,317.9166666666667)" d="M4.472,0A4.472,4.472,0,1,1,-4.472,0A4.472,4.472,0,1,1,4.472,0" fill="#ef4444" stroke-width="2" opacity="1"/><path aria-label="Jahr: 2019; Verwaltungsanteil (%): 4.03" role="graphics-symbol" aria-roledescription="point" transform="translate(705.6,312.08333333333326)" d="M4.472,0A4.472,4.472,0,1,1,-4.472,0A4.472,4.472,0,1,1,4.472,0" fill="#ef4444" stroke-width="2" opacity="1"/></g><g class="mark-group role-title"><g transform="translate(360,-22)"><path class="background" aria-hidden="true" d="M0,0h0v0h0Z" pointer-events="none"/><g><g class="mark-text role-title-text" role="graphics-symbol" aria-roledescription="title" aria-label="Title text 'Verwaltungsanteil an den Gesundheitsausgaben (1995–2019)'" pointer-events="none"><text text-anchor="middle" transform="translate(0,10)" font-family="Switzer, system-ui, sans-serif" font-size="13px" font-weight="bold" fill="#000" opacity="1">Verwaltungsanteil an den Gesundheitsausgaben (1995–2019)</text></g></g><path class="foreground" aria-hidden="true" d="" pointer-events="none" display="none"/></g></g></g><path class="foreground" aria-hidden="true" d="" display="none"/></g></g></g></svg>