<svg xmlns="http://www.w3.org/2000/svg" xmlns:xlink="http://www.w3.org/1999/xlink" version="1.1" class="marks" width="801" height="439" viewBox="0 0 801 439"><rect width="801" height="439" fill="white"/><g fill="none" stroke-miterlimit="10" transform="translate(75,22)"><g class="mark-group role-frame root" role="graphics-object" aria-roledescription="group mark container"><g transform="translate(0,0)"><path class="background" aria-hidden="true" d="M0.5,0.5h720v380h-720Z"/><g><g class="mark-group role-axis" aria-hidden="true"><g transform="translate(0.5,380.5)"><path class="background" aria-hidden="true" d="M0,0h0v0h0Z" pointer-events="none"/><g><g class="mark-rule role-axis-grid" pointer-events="none"><line transform="translate(0,0)" x2="0" y2="-380" stroke="#ddd" stroke-width="1" opacity="1"/><line transform="translate(45,0)" x2="0" y2="-380" stroke="#ddd" stroke-width="1" opacity="1"/><line transform="translate(90,0)" x2="0" y2="-380" stroke="#ddd" stroke-width="1" opacity="1"/><line transform="translate(135,0)" x2="0" y2="-380" stroke="#ddd" stroke-width="1" opacity="1"/><line transform="translate(180,0)" x2="0" y2="-380" stroke="#ddd" stroke-width="1" opacity="1"/><line transform="translate(225,0)" x2="0" y2="-380" stroke="#ddd" stroke-width="1" opacity="1"/><line transform="translate(270,0)" x2="0" y2="-380" stroke="#ddd" stroke-width="1" opacity="1"/><line transform="translate(315,0)" x2="0" y2="-380" stroke="#ddd" stroke-width="1" opacity="1"/><line transform="translate(360,0)" x2="0" y2="-380" stroke="#ddd" stroke-width="1" opacity="1"/><line transform="translate(405,0)" x2="0" y2="-380" stroke="#ddd" stroke-width="1" opacity="1"/><line transform="translate(450,0)" x2="0" y2="-380" stroke="#ddd" stroke-width="1" opacity="1"/><line transform="translate(495,0)" x2="0" y2="-380" stroke="#ddd" stroke-width="1" opacity="1"/><line transform="translate(540,0)" x2="0" y2="-380" stroke="#ddd" stroke-width="1" opacity="1"/><line transform="translate(585,0)" x2="0" y2="-380" stroke="#ddd" stroke-width="1" opacity="1"/><line transform="translate(630,0)" x2="0" y2="-380" stroke="#ddd" stroke-width="1" opacity="1"/><line transform="translate(675,0)" x2="0" y2="-380" stroke="#ddd" stroke-width="1" opacity="1"/><line transform="translate(720,0)" x2="0" y2="-380" stroke="#ddd" stroke-width="1" opacity="1"/></g></g><path class="foreground" aria-hidden="true" d="" pointer-events="none" display="none"/></g></g><g class="mark-group role-axis" role="graphics-symbol" aria-roledescription="axis" aria-label="X-axis titled 'Verwaltungsanteil an Gesundheitsausgaben (%)' for a linear scale with values from 0 to 8"><g transform="translate(0.5,380.5)"><path class="background" aria-hidden="true" d="M0,0h0v0h0Z" pointer-events="none"/><g><g class="mark-rule role-axis-tick" pointer-events="none"><line transform="translate(0,0)" x2="0" y2="5" stroke="#888" stroke-width="1" opacity="1"/><line transform="translate(45,0)" x2="0" y2="5" stroke="#888" stroke-width="1" opacity="1"/><line transform="translate(90,0)" x2="0" y2="5" stroke="#888" stroke-width="1" opacity="1"/><line transform="translate(135,0)" x2="0" y2="5" stroke="#888" stroke-width="1" opacity="1"/><line transform="translate(180,0)" x2="0" y2="5" stroke="#888" stroke-width="1" opacity="1"/><line transform="translate(225,0)" x2="0" y2="5" stroke="#888" stroke-width="1" opacity="1"/><line transform="translate(270,0)" x2="0" y2="5" stroke="#888" stroke-width="1" opacity="1"/><line transform="translate(315,0)" x2="0" y2="5" stroke="#888" stroke-width="1" opacity="1"/><line transform="translate(360,0)" x2="0" y2="5" stroke="#888" stroke-width="1" opacity="1"/><line transform="translate(405,0)" x2="0" y2="5" stroke="#888" stroke-width="1" opacity="1"/><line transform="translate(450,0)" x2="0" y2="5" stroke="#888" stroke-width="1" opacity="1"/><line transform="translate(495,0)" x2="0" y2="5" stroke="#888" stroke-width="1" opacity="1"/><line transform="translate(540,0)" x2="0" y2="5" stroke="#888" stroke-width="1" opacity="1"/><line transform="translate(585,0)" x2="0" y2="5" stroke="#888" stroke-width="1" opacity="1"/><line transform="translate(630,0)" x2="0" y2="5" stroke="#888" stroke-width="1" opacity="1"/><line transform="translate(675,0)" x2="0" y2="5" stroke="#888" stroke-width="1" opacity="1"/><line transform="translate(720,0)" x2="0" y2="5" stroke="#888" stroke-width="1" opacity="1"/></g><g class="mark-text role-axis-label" pointer-events="none"><text text-anchor="start" transform="translate(0,15)" font-family="Switzer, system-ui, sans-serif" font-size="10px" fill="#000" opacity="1">0.0</text><text text-anchor="middle" transform="translate(45,15)" font-family="Switzer, system-ui, sans-serif" font-size="10px" fill="#000" opacity="1">0.5</text><text text-anchor="middle" transform="translate(90,15)" font-family="Switzer, system-ui, sans-serif" font-size="10px" fill="#000" opacity="1">1.0</text><text text-anchor="middle" transform="translate(135,15)" font-family="Switzer, system-ui, sans-serif" font-size="10px" fill="#000" opacity="1">1.5</text><text text-anchor="middle" transform="translate(180,15)" font-family="Switzer, system-ui, sans-serif" font-size="10px" fill="#000" opacity="1">2.0</text><text text-anchor="middle" transform="translate(225,15)" font-family="Switzer, system-ui, sans-serif" font-size="10px" fill="#000" opacity="1">2.5</text><text text-anchor="middle" transform="translate(270,15)" font-family="Switzer, system-ui, sans-serif" font-size="10px" fill="#000" opacity="1">3.0</text><text text-anchor="middle" transform="translate(315,15)" font-family="Switzer, system-ui, sans-serif" font-size="10px" fill="#000" opacity="1">3.5</text><text text-anchor="middle" transform="translate(360,15)" font-family="Switzer, system-ui, sans-serif" font-size="10px" fill="#000" opacity="1">4.0</text><text text-anchor="middle" transform="translate(405,15)" font-family="Switzer, system-ui, sans-serif" font-size="10px" fill="#000" opacity="1">4.5</text><text text-anchor="middle" transform="translate(450,15)" font-family="Switzer, system-ui, sans-serif" font-size="10px" fill="#000" opacity="1">5.0</text><text text-anchor="middle" transform="translate(495,15)" font-family="Switzer, system-ui, sans-serif" font-size="10px" fill="#000" opacity="1">5.5</text><text text-anchor="middle" transform="translate(540,15)" font-family="Switzer, system-ui, sans-serif" font-size="10px" fill="#000" opacity="1">6.0</text><text text-anchor="middle" transform="translate(585,15)" font-family="Switzer, system-ui, sans-serif" font-size="10px" fill="#000" opacity="1">6.5</text><text text-anchor="middle" transform="translate(630,15)" font-family="Switzer, system-ui, sans-serif" font-size="10px" fill="#000" opacity="1">7.0</text><text text-anchor="middle" transform="translate(675,15)" font-family="Switzer, system-ui, sans-serif" font-size="10px" fill="#000" opacity="1">7.5</text><text text-anchor="end" transform="translate(720,15)" font-family="Switzer, system-ui, sans-serif" font-size="10px" fill="#000" opacity="1">8.0</text></g><g class="mark-rule role-axis-domain" pointer-events="none"><line transform="translate(0,0)" x2="720" y2="0" stroke="#888" stroke-width="1" opacity="1"/></g><g class="mark-text role-axis-title" pointer-events="none"><text text-anchor="middle" transform="translate(360,30)" font-family="Switzer, system-ui, sans-serif" font-size="11px" font-weight="bold" fill="#000" opacity="1">Verwaltungsanteil an Gesundheitsausgaben (%)</text></g></g><path class="foreground" aria-hidden="true" d="" pointer-events="none" display="none"/></g></g><g class="mark-group role-axis" role="graphics-symbol" aria-roledescription="axis" aria-label="Y-axis for a discrete scale with 8 values: USA, Frankreich, Schweiz, Deutschland, Österreich, ending with Schweden"><g transform="translate(0.5,0.5)"><path class="background" aria-hidden="true" d="M0,0h0v0h0Z" pointer-events="none"/><g><g class="mark-rule role-axis-tick" pointer-events="none"><line transform="translate(0,23)" x2="-5" y2="0" stroke="#888" stroke-width="1" opacity="1"/><line transform="translate(0,71)" x2="-5" y2="0" stroke="#888" stroke-width="1" opacity="1"/><line transform="translate(0,118)" x2="-5" y2="0" stroke="#888" stroke-width="1" opacity="1"/><line transform="translate(0,166)" x2="-5" y2="0" stroke="#888" stroke-width="1" opacity="1"/><line transform="translate(0,213)" x2="-5" y2="0" stroke="#888" stroke-width="1" opacity="1"/><line transform="translate(0,261)" x2="-5" y2="0" stroke="#888" stroke-width="1" opacity="1"/><line transform="translate(0,308)" x2="-5" y2="0" stroke="#888" stroke-width="1" opacity="1"/><line transform="translate(0,356)" x2="-5" y2="0" stroke="#888" stroke-width="1" opacity="1"/></g><g class="mark-text role-axis-label" pointer-events="none"><text text-anchor="end" transform="translate(-7,26.25)" font-family="Switzer, system-ui, sans-serif" font-size="10px" fill="#000" opacity="1">USA</text><text text-anchor="end" transform="translate(-7,73.75)" font-family="Switzer, system-ui, sans-serif" font-size="10px" fill="#000" opacity="1">Frankreich</text><text text-anchor="end" transform="translate(-7,121.25)" font-family="Switzer, system-ui, sans-serif" font-size="10px" fill="#000" opacity="1">Schweiz</text><text text-anchor="end" transform="translate(-7,168.75)" font-family="Switzer, system-ui, sans-serif" font-size="10px" fill="#000" opacity="1">Deutschland</text><text text-anchor="end" transform="translate(-7,216.25)" font-family="Switzer, system-ui, sans-serif" font-size="10px" fill="#000" opacity="1">Österreich</text><text text-anchor="end" transform="translate(-7,263.75)" font-family="Switzer, system-ui, sans-serif" font-size="10px" fill="#000" opacity="1">OECD-Schnitt</text><text text-anchor="end" transform="translate(-7,311.25)" font-family="Switzer, system-ui, sans-serif" font-size="10px" fill="#000" opacity="1">Niederlande</text><text text-anchor="end" transform="translate(-7,358.75)" font-family="Switzer, system-ui, sans-serif" font-size="10px" fill="#000" opacity="1">Schweden</text></g><g class="mark-rule role-axis-domain" pointer-events="none"><line transform="translate(0,0)" x2="0" y2="380" stroke="#888" stroke-width="1" opacity="1"/></g></g><path class="foreground" aria-hidden="true" d="" pointer-events="none" display="none"/></g></g><g class="mark-group role-scope" role="graphics-object" aria-roledescription="group mark container"><g transform="translate(0,97.375)"><path class="background" aria-hidden="true" d="M0,0L464,0C466.207660097976,0,468,1.792339902024,468,4L468,38.75C468,40.957660097976,466.207660097976,42.75,464,42.75L0,42.75C0,42.75,0,42.75,0,42.75L0,0C0,0,0,0,0,0Z"/><g clip-path="url(#clip158)"><g class="mark-group role-scope" role="graphics-object" aria-roledescription="group mark container"><g transform="translate(0,0)"><path class="background" aria-hidden="true" d="M0,0h0v42.75h0Z"/><g><g class="mark-rect role-mark marks" role="graphics-object" aria-roledescription="rect mark container"><path aria-label="Verwaltungsanteil an Gesundheitsausgaben (%): 5.2; Land: Schweiz" role="graphics-symbol" aria-roledescription="bar" d="M0,0h468v42.75h-468Z" fill="#a855f7"/></g></g><path class="foreground" aria-hidden="true" d="" display="none"/></g></g></g><path class="foreground" aria-hidden="true" d="" display="none"/></g><g transform="translate(0,2.375)"><path class="background" aria-hidden="true" d="M0,0L716,0C718.207660097976,0,720,1.792339902024,720,4L720,38.75C720,40.957660097976,718.207660097976,42.75,716,42.75L0,42.75C0,42.75,0,42.75,0,42.75L0,0C0,0,0,0,0,0Z"/><g clip-path="url(#clip159)"><g class="mark-group role-scope" role="graphics-object" aria-roledescription="group mark container"><g transform="translate(0,0)"><path class="background" aria-hidden="true" d="M0,0h0v42.75h0Z"/><g><g class="mark-rect role-mark marks" role="graphics-object" aria-roledescription="rect mark container"><path aria-label="Verwaltungsanteil an Gesundheitsausgaben (%): 8; Land: USA" role="graphics-symbol" aria-roledescription="bar" d="M0,0h720v42.75h-720Z" fill="#ef4444"/></g></g><path class="foreground" aria-hidden="true" d="" display="none"/></g></g></g><path class="foreground" aria-hidden="true" d="" display="none"/></g><g transform="translate(0,144.875)"><path class="background" aria-hidden="true" d="M0,0L428,0C430.207660097976,0,432,1.792339902024,432,4L432,38.75C432,40.957660097976,430.207660097976,42.75,428,42.75L0,42.75C0,42.75,0,42.75,0,42.75L0,0C0,0,0,0,0,0Z"/><g clip-path="url(#clip160)"><g class="mark-group role-scope" role="graphics-object" aria-roledescription="group mark container"><g transform="translate(0,0)"><path class="background" aria-hidden="true" d="M0,0h0v42.75h0Z"/><g><g class="mark-rect role-mark marks" role="graphics-object" aria-roledescription="rect mark container"><path aria-label="Verwaltungsanteil an Gesundheitsausgaben (%): 4.8; Land: Deutschland" role="graphics-symbol" aria-roledescription="bar" d="M0,0h432v42.75h-432Z" fill="#10b981"/></g></g><path class="foreground" aria-hidden="true" d="" display="none"/></g></g></g><path class="foreground" aria-hidden="true" d="" display="none"/></g><g transform="translate(0,49.875)"><path class="background" aria-hidden="true" d="M0,0L499.99999999999994,0C502.2076600979759,0,503.99999999999994,1.792339902024,503.99999999999994,4L503.99999999999994,38.75C503.99999999999994,40.957660097976,502.2076600979759,42.75,499.99999999999994,42.75L0,42.75C0,42.75,0,42.75,0,42.75L0,0C0,0,0,0,0,0Z"/><g clip-path="url(#clip161)"><g class="mark-group role-scope" role="graphics-object" aria-roledescription="group mark container"><g transform="translate(0,0)"><path class="background" aria-hidden="true" d="M0,0h0v42.75h0Z"/><g><g class="mark-rect role-mark marks" role="graphics-object" aria-roledescription="rect mark container"><path aria-label="Verwaltungsanteil an Gesundheitsausgaben (%): 5.6; Land: Frankreich" role="graphics-symbol" aria-roledescription="bar" d="M0,0h503.99999999999994v42.75h-503.99999999999994Z" fill="#3b82f6"/></g></g><path class="foreground" aria-hidden="true" d="" display="none"/></g></g></g><path class="foreground" aria-hidden="true" d="" display="none"/></g><g transform="translate(0,287.375)"><path class="background" aria-hidden="true" d="M0,0L275,0C277.207660097976,0,279,1.792339902024,279,4L279,38.75C279,40.957660097976,277.207660097976,42.75,275,42.75L0,42.75C0,42.75,0,42.75,0,42.75L0,0C0,0,0,0,0,0Z"/><g clip-path="url(#clip162)"><g class="mark-group role-scope" role="graphics-object" aria-roledescription="group mark container"><g transform="translate(0,0)"><path class="background" aria-hidden="true" d="M0,0h0v42.75h0Z"/><g><g class="mark-rect role-mark marks" role="graphics-object" aria-roledescription="rect mark container"><path aria-label="Verwaltungsanteil an Gesundheitsausgaben (%): 3.1; Land: Niederlande" role="graphics-symbol" aria-roledescription="bar" d="M0,0h279v42.75h-279Z" fill="#06b6d4"/></g></g><path class="foreground" aria-hidden="true" d="" display="none"/></g></g></g><path class="foreground" aria-hidden="true" d="" display="none"/></g><g transform="translate(0,334.875)"><path class="background" aria-hidden="true" d="M0,0L257,0C259.207660097976,0,261,1.792339902024,261,4L261,38.75C261,40.957660097976,259.207660097976,42.75,257,42.75L0,42.75C0,42.75,0,42.75,0,42.75L0,0C0,0,0,0,0,0Z"/><g clip-path="url(#clip163)"><g class="mark-group role-scope" role="graphics-object" aria-roledescription="group mark container"><g transform="translate(0,0)"><path class="background" aria-hidden="true" d="M0,0h0v42.75h0Z"/><g><g class="mark-rect role-mark marks" role="graphics-object" aria-roledescription="rect mark container"><path aria-label="Verwaltungsanteil an Gesundheitsausgaben (%): 2.9; Land: Schweden" role="graphics-symbol" aria-roledescription="bar" d="M0,0h261v42.75h-261Z" fill="#f59e0b"/></g></g><path class="foreground" aria-hidden="true" d="" display="none"/></g></g></g><path class="foreground" aria-hidden="true" d="" display="none"/></g><g transform="translate(0,192.375)"><path class="background" aria-hidden="true" d="M0,0L311,0C313.207660097976,0,315,1.792339902024,315,4L315,38.75C315,40.957660097976,313.207660097976,42.75,311,42.75L0,42.75C0,42.75,0,42.75,0,42.75L0,0C0,0,0,0,0,0Z"/><g clip-path="url(#clip164)"><g class="mark-group role-scope" role="graphics-object" aria-roledescription="group mark container"><g transform="translate(0,0)"><path class="background" aria-hidden="true" d="M0,0h0v42.75h0Z"/><g><g class="mark-rect role-mark marks" role="graphics-object" aria-roledescription="rect mark container"><path aria-label="Verwaltungsanteil an Gesundheitsausgaben (%): 3.5; Land: Österreich" role="graphics-symbol" aria-roledescription="bar" d="M0,0h315v42.75h-315Z" fill="#8b5cf6"/></g></g><path class="foreground" aria-hidden="true" d="" display="none"/></g></g></g><path class="foreground" aria-hidden="true" d="" display="none"/></g><g transform="translate(0,239.875)"><path class="background" aria-hidden="true" d="M0,0L293,0C295.207660097976,0,297,1.792339902024,297,4L297,38.75C297,40.957660097976,295.207660097976,42.75,293,42.75L0,42.75C0,42.75,0,42.75,0,42.75L0,0C0,0,0,0,0,0Z"/><g clip-path="url(#clip165)"><g class="mark-group role-scope" role="graphics-object" aria-roledescription="group mark container"><g transform="translate(0,0)"><path class="background" aria-hidden="true" d="M0,0h0v42.75h0Z"/><g><g class="mark-rect role-mark marks" role="graphics-object" aria-roledescription="rect mark container"><path aria-label="Verwaltungsanteil an Gesundheitsausgaben (%): 3.3; Land: OECD-Schnitt" role="graphics-symbol" aria-roledescription="bar" d="M0,0h297v42.75h-297Z" fill="#6b7280"/></g></g><path class="foreground" aria-hidden="true" d="" display="none"/></g></g></g><path class="foreground" aria-hidden="true" d="" display="none"/></g></g><g class="mark-group role-title"><g transform="translate(360,-17)"><path class="background" aria-hidden="true" d="M0,0h0v0h0Z" pointer-events="none"/><g><g class="mark-text role-title-text" role="graphics-symbol" aria-roledescription="title" aria-label="Title text 'Verwaltungskosten im Gesundheitswesen — internationaler Vergleich (OECD 2023)'" pointer-events="none"><text text-anchor="middle" transform="translate(0,10)" font-family="Switzer, system-ui, sans-serif" font-size="13px" font-weight="bold" fill="#000" opacity="1">Verwaltungskosten im Gesundheitswesen — internationaler Vergleich (OECD 2023)</text></g></g><path class="foreground" aria-hidden="true" d="" pointer-events="none" display="none"/></g></g></g><path class="foreground" aria-hidden="true" d="" display="none"/></g></g></g><defs><clipPath id="clip158"><path d="M0,0L464,0C466.207660097976,0,468,1.792339902024,468,4L468,38.75C468,40.957660097976,466.207660097976,42.75,464,42.75L0,42.75C0,42.75,0,42.75,0,42.75L0,0C0,0,0,0,0,0Z"/></clipPath><clipPath id="clip159"><path d="M0,0L716,0C718.207660097976,0,720,1.792339902024,720,4L720,38.75C720,40.957660097976,718.207660097976,42.75,716,42.75L0,42.75C0,42.75,0,42.75,0,42.75L0,0C0,0,0,0,0,0Z"/></clipPath><clipPath id="clip160"><path d="M0,0L428,0C430.207660097976,0,432,1.792339902024,432,4L432,38.75C432,40.957660097976,430.207660097976,42.75,428,42.75L0,42.75C0,42.75,0,42.75,0,42.75L0,0C0,0,0,0,0,0Z"/></clipPath><clipPath id="clip161"><path d="M0,0L499.99999999999994,0C502.2076600979759,0,503.99999999999994,1.792339902024,503.99999999999994,4L503.99999999999994,38.75C503.99999999999994,40.957660097976,502.2076600979759,42.75,499.99999999999994,42.75L0,42.75C0,42.75,0,42.75,0,42.75L0,0C0,0,0,0,0,0Z"/></clipPath><clipPath id="clip162"><path d="M0,0L275,0C277.207660097976,0,279,1.792339902024,279,4L279,38.75C279,40.957660097976,277.207660097976,42.75,275,42.75L0,42.75C0,42.75,0,42.75,0,42.75L0,0C0,0,0,0,0,0Z"/></clipPath><clipPath id="clip163"><path d="M0,0L257,0C259.207660097976,0,261,1.792339902024,261,4L261,38.75C261,40.957660097976,259.207660097976,42.75,257,42.75L0,42.75C0,42.75,0,42.75,0,42.75L0,0C0,0,0,0,0,0Z"/></clipPath><clipPath id="clip164"><path d="M0,0L311,0C313.207660097976,0,315,1.792339902024,315,4L315,38.75C315,40.957660097976,313.207660097976,42.75,311,42.75L0,42.75C0,42.75,0,42.75,0,42.75L0,0C0,0,0,0,0,0Z"/></clipPath><clipPath id="clip165"><path d="M0,0L293,0C295.207660097976,0,297,1.792339902024,297,4L297,38.75C297,40.957660097976,295.207660097976,42.75,293,42.75L0,42.75C0,42.75,0,42.75,0,42.75L0,0C0,0,0,0,0,0Z"/></clipPath></defs></svg>