<svg xmlns="http://www.w3.org/2000/svg" xmlns:xlink="http://www.w3.org/1999/xlink" version="1.1" class="marks" width="784" height="526" viewBox="0 0 784 526"><rect width="784" height="526" fill="white"/><g fill="none" stroke-miterlimit="10" transform="translate(59,67)"><g class="mark-group role-frame root" role="graphics-object" aria-roledescription="group mark container"><g transform="translate(0,0)"><path class="background" aria-hidden="true" d="M0.5,0.5h720v420h-720Z"/><g><g class="mark-group role-axis" aria-hidden="true"><g transform="translate(0.5,0.5)"><path class="background" aria-hidden="true" d="M0,0h0v0h0Z" pointer-events="none"/><g><g class="mark-rule role-axis-grid" pointer-events="none"><line transform="translate(0,420)" x2="720" y2="0" stroke="#ddd" stroke-width="1" opacity="1"/><line transform="translate(0,373)" x2="720" y2="0" stroke="#ddd" stroke-width="1" opacity="1"/><line transform="translate(0,327)" x2="720" y2="0" stroke="#ddd" stroke-width="1" opacity="1"/><line transform="translate(0,280)" x2="720" y2="0" stroke="#ddd" stroke-width="1" opacity="1"/><line transform="translate(0,233)" x2="720" y2="0" stroke="#ddd" stroke-width="1" opacity="1"/><line transform="translate(0,187)" x2="720" y2="0" stroke="#ddd" stroke-width="1" opacity="1"/><line transform="translate(0,140)" x2="720" y2="0" stroke="#ddd" stroke-width="1" opacity="1"/><line transform="translate(0,93)" x2="720" y2="0" stroke="#ddd" stroke-width="1" opacity="1"/><line transform="translate(0,47)" x2="720" y2="0" stroke="#ddd" stroke-width="1" opacity="1"/><line transform="translate(0,0)" x2="720" y2="0" stroke="#ddd" stroke-width="1" opacity="1"/></g></g><path class="foreground" aria-hidden="true" d="" pointer-events="none" display="none"/></g></g><g class="mark-group role-axis" role="graphics-symbol" aria-roledescription="axis" aria-label="X-axis titled 'Einkommensdezil' for a discrete scale with 10 values: 1, 2, 3, 4, 5, ending with 10"><g transform="translate(0.5,420.5)"><path class="background" aria-hidden="true" d="M0,0h0v0h0Z" pointer-events="none"/><g><g class="mark-rule role-axis-tick" pointer-events="none"><line transform="translate(42,0)" x2="0" y2="5" stroke="#888" stroke-width="1" opacity="1"/><line transform="translate(112,0)" x2="0" y2="5" stroke="#888" stroke-width="1" opacity="1"/><line transform="translate(183,0)" x2="0" y2="5" stroke="#888" stroke-width="1" opacity="1"/><line transform="translate(254,0)" x2="0" y2="5" stroke="#888" stroke-width="1" opacity="1"/><line transform="translate(324,0)" x2="0" y2="5" stroke="#888" stroke-width="1" opacity="1"/><line transform="translate(395,0)" x2="0" y2="5" stroke="#888" stroke-width="1" opacity="1"/><line transform="translate(465,0)" x2="0" y2="5" stroke="#888" stroke-width="1" opacity="1"/><line transform="translate(536,0)" x2="0" y2="5" stroke="#888" stroke-width="1" opacity="1"/><line transform="translate(607,0)" x2="0" y2="5" stroke="#888" stroke-width="1" opacity="1"/><line transform="translate(677,0)" x2="0" y2="5" stroke="#888" stroke-width="1" opacity="1"/></g><g class="mark-text role-axis-label" pointer-events="none"><text text-anchor="end" transform="translate(41.852941176470594,7) rotate(270) translate(0,3)" font-family="Switzer, system-ui, sans-serif" font-size="10px" fill="#000" opacity="1">1</text><text text-anchor="end" transform="translate(112.44117647058823,7) rotate(270) translate(0,3)" font-family="Switzer, system-ui, sans-serif" font-size="10px" fill="#000" opacity="1">2</text><text text-anchor="end" transform="translate(183.02941176470586,7) rotate(270) translate(0,3)" font-family="Switzer, system-ui, sans-serif" font-size="10px" fill="#000" opacity="1">3</text><text text-anchor="end" transform="translate(253.61764705882354,7) rotate(270) translate(0,3)" font-family="Switzer, system-ui, sans-serif" font-size="10px" fill="#000" opacity="1">4</text><text text-anchor="end" transform="translate(324.20588235294116,7) rotate(270) translate(0,3)" font-family="Switzer, system-ui, sans-serif" font-size="10px" fill="#000" opacity="1">5</text><text text-anchor="end" transform="translate(394.7941176470588,7) rotate(270) translate(0,3)" font-family="Switzer, system-ui, sans-serif" font-size="10px" fill="#000" opacity="1">6</text><text text-anchor="end" transform="translate(465.38235294117646,7) rotate(270) translate(0,3)" font-family="Switzer, system-ui, sans-serif" font-size="10px" fill="#000" opacity="1">7</text><text text-anchor="end" transform="translate(535.970588235294,7) rotate(270) translate(0,3)" font-family="Switzer, system-ui, sans-serif" font-size="10px" fill="#000" opacity="1">8</text><text text-anchor="end" transform="translate(606.5588235294117,7) rotate(270) translate(0,3)" font-family="Switzer, system-ui, sans-serif" font-size="10px" fill="#000" opacity="1">9</text><text text-anchor="end" transform="translate(677.1470588235294,7) rotate(270) translate(0,3)" font-family="Switzer, system-ui, sans-serif" font-size="10px" fill="#000" opacity="1">10</text></g><g class="mark-rule role-axis-domain" pointer-events="none"><line transform="translate(0,0)" x2="720" y2="0" stroke="#888" stroke-width="1" opacity="1"/></g><g class="mark-text role-axis-title" pointer-events="none"><text text-anchor="middle" transform="translate(360,31.520000457763672)" font-family="Switzer, system-ui, sans-serif" font-size="11px" font-weight="bold" fill="#000" opacity="1">Einkommensdezil</text></g></g><path class="foreground" aria-hidden="true" d="" pointer-events="none" display="none"/></g></g><g class="mark-group role-axis" role="graphics-symbol" aria-roledescription="axis" aria-label="Y-axis titled 'Nettoveränderung (CHF/Monat)' for a linear scale with values from −2,500 to 2,000"><g transform="translate(0.5,0.5)"><path class="background" aria-hidden="true" d="M0,0h0v0h0Z" pointer-events="none"/><g><g class="mark-rule role-axis-tick" pointer-events="none"><line transform="translate(0,420)" x2="-5" y2="0" stroke="#888" stroke-width="1" opacity="1"/><line transform="translate(0,373)" x2="-5" y2="0" stroke="#888" stroke-width="1" opacity="1"/><line transform="translate(0,327)" x2="-5" y2="0" stroke="#888" stroke-width="1" opacity="1"/><line transform="translate(0,280)" x2="-5" y2="0" stroke="#888" stroke-width="1" opacity="1"/><line transform="translate(0,233)" x2="-5" y2="0" stroke="#888" stroke-width="1" opacity="1"/><line transform="translate(0,187)" x2="-5" y2="0" stroke="#888" stroke-width="1" opacity="1"/><line transform="translate(0,140)" x2="-5" y2="0" stroke="#888" stroke-width="1" opacity="1"/><line transform="translate(0,93)" x2="-5" y2="0" stroke="#888" stroke-width="1" opacity="1"/><line transform="translate(0,47)" x2="-5" y2="0" stroke="#888" stroke-width="1" opacity="1"/><line transform="translate(0,0)" x2="-5" y2="0" stroke="#888" stroke-width="1" opacity="1"/></g><g class="mark-text role-axis-label" pointer-events="none"><text text-anchor="end" transform="translate(-7,423)" font-family="Switzer, system-ui, sans-serif" font-size="10px" fill="#000" opacity="1">−2,500</text><text text-anchor="end" transform="translate(-7,376.3333333333333)" font-family="Switzer, system-ui, sans-serif" font-size="10px" fill="#000" opacity="1">−2,000</text><text text-anchor="end" transform="translate(-7,329.6666666666667)" font-family="Switzer, system-ui, sans-serif" font-size="10px" fill="#000" opacity="1">−1,500</text><text text-anchor="end" transform="translate(-7,283.00000000000006)" font-family="Switzer, system-ui, sans-serif" font-size="10px" fill="#000" opacity="1">−1,000</text><text text-anchor="end" transform="translate(-7,236.33333333333334)" font-family="Switzer, system-ui, sans-serif" font-size="10px" fill="#000" opacity="1">−500</text><text text-anchor="end" transform="translate(-7,189.66666666666666)" font-family="Switzer, system-ui, sans-serif" font-size="10px" fill="#000" opacity="1">0</text><text text-anchor="end" transform="translate(-7,143.00000000000003)" font-family="Switzer, system-ui, sans-serif" font-size="10px" fill="#000" opacity="1">500</text><text text-anchor="end" transform="translate(-7,96.33333333333333)" font-family="Switzer, system-ui, sans-serif" font-size="10px" fill="#000" opacity="1">1,000</text><text text-anchor="end" transform="translate(-7,49.666666666666686)" font-family="Switzer, system-ui, sans-serif" font-size="10px" fill="#000" opacity="1">1,500</text><text text-anchor="end" transform="translate(-7,3)" font-family="Switzer, system-ui, sans-serif" font-size="10px" fill="#000" opacity="1">2,000</text></g><g class="mark-rule role-axis-domain" pointer-events="none"><line transform="translate(0,420)" x2="0" y2="-420" stroke="#888" stroke-width="1" opacity="1"/></g><g class="mark-text role-axis-title" pointer-events="none"><text text-anchor="middle" transform="translate(-42.08000183105469,210) rotate(-90) translate(0,-2)" font-family="Switzer, system-ui, sans-serif" font-size="11px" font-weight="bold" fill="#000" opacity="1">Nettoveränderung (CHF/Monat)</text></g></g><path class="foreground" aria-hidden="true" d="" pointer-events="none" display="none"/></g></g><g class="mark-group role-scope" role="graphics-object" aria-roledescription="group mark container"><g transform="translate(14.117647058823536,7.560000000000007)"><path class="background" aria-hidden="true" d="M3,0L15.823529411764707,0C17.479274485246705,0,18.823529411764707,1.344254926518,18.823529411764707,3L18.823529411764707,179.10666666666665C18.823529411764707,179.10666666666665,18.823529411764707,179.10666666666665,18.823529411764707,179.10666666666665L0,179.10666666666665C0,179.10666666666665,0,179.10666666666665,0,179.10666666666665L0,3C0,1.344254926518,1.344254926518,0,3,0Z"/><g clip-path="url(#clip11)"><g class="mark-group role-scope" role="graphics-object" aria-roledescription="group mark container"><g transform="translate(0,-7.560000000000007)"><path class="background" aria-hidden="true" d="M0,0h18.823529411764707v0h-18.823529411764707Z"/><g><g class="mark-rect role-mark marks" role="graphics-object" aria-roledescription="rect mark container"><path aria-label="Einkommensdezil: 1; Nettoveränderung (CHF/Monat): 1919; Szenario: A: Einkommensteuer" role="graphics-symbol" aria-roledescription="bar" d="M0,7.560000000000007h18.823529411764707v179.10666666666665h-18.823529411764707Z" fill="#a855f7"/></g></g><path class="foreground" aria-hidden="true" d="" display="none"/></g></g></g><path class="foreground" aria-hidden="true" d="" display="none"/></g><g transform="translate(84.70588235294117,59.453333333333326)"><path class="background" aria-hidden="true" d="M3,0L15.823529411764707,0C17.479274485246705,0,18.823529411764707,1.344254926518,18.823529411764707,3L18.823529411764707,127.21333333333334C18.823529411764707,127.21333333333334,18.823529411764707,127.21333333333334,18.823529411764707,127.21333333333334L0,127.21333333333334C0,127.21333333333334,0,127.21333333333334,0,127.21333333333334L0,3C0,1.344254926518,1.344254926518,0,3,0Z"/><g clip-path="url(#clip12)"><g class="mark-group role-scope" role="graphics-object" aria-roledescription="group mark container"><g transform="translate(0,-59.453333333333326)"><path class="background" aria-hidden="true" d="M0,0h18.823529411764707v0h-18.823529411764707Z"/><g><g class="mark-rect role-mark marks" role="graphics-object" aria-roledescription="rect mark container"><path aria-label="Einkommensdezil: 2; Nettoveränderung (CHF/Monat): 1363; Szenario: A: Einkommensteuer" role="graphics-symbol" aria-roledescription="bar" d="M0,59.453333333333326h18.823529411764707v127.21333333333334h-18.823529411764707Z" fill="#a855f7"/></g></g><path class="foreground" aria-hidden="true" d="" display="none"/></g></g></g><path class="foreground" aria-hidden="true" d="" display="none"/></g><g transform="translate(155.2941176470588,83.06666666666669)"><path class="background" aria-hidden="true" d="M3,0L15.823529411764707,0C17.479274485246705,0,18.823529411764707,1.344254926518,18.823529411764707,3L18.823529411764707,103.59999999999997C18.823529411764707,103.59999999999997,18.823529411764707,103.59999999999997,18.823529411764707,103.59999999999997L0,103.59999999999997C0,103.59999999999997,0,103.59999999999997,0,103.59999999999997L0,3C0,1.344254926518,1.344254926518,0,3,0Z"/><g clip-path="url(#clip13)"><g class="mark-group role-scope" role="graphics-object" aria-roledescription="group mark container"><g transform="translate(0,-83.06666666666669)"><path class="background" aria-hidden="true" d="M0,0h18.823529411764707v0h-18.823529411764707Z"/><g><g class="mark-rect role-mark marks" role="graphics-object" aria-roledescription="rect mark container"><path aria-label="Einkommensdezil: 3; Nettoveränderung (CHF/Monat): 1110; Szenario: A: Einkommensteuer" role="graphics-symbol" aria-roledescription="bar" d="M0,83.06666666666669h18.823529411764707v103.59999999999997h-18.823529411764707Z" fill="#a855f7"/></g></g><path class="foreground" aria-hidden="true" d="" display="none"/></g></g></g><path class="foreground" aria-hidden="true" d="" display="none"/></g><g transform="translate(225.88235294117646,101.64)"><path class="background" aria-hidden="true" d="M3,0L15.823529411764707,0C17.479274485246705,0,18.823529411764707,1.344254926518,18.823529411764707,3L18.823529411764707,85.02666666666666C18.823529411764707,85.02666666666666,18.823529411764707,85.02666666666666,18.823529411764707,85.02666666666666L0,85.02666666666666C0,85.02666666666666,0,85.02666666666666,0,85.02666666666666L0,3C0,1.344254926518,1.344254926518,0,3,0Z"/><g clip-path="url(#clip14)"><g class="mark-group role-scope" role="graphics-object" aria-roledescription="group mark container"><g transform="translate(0,-101.64)"><path class="background" aria-hidden="true" d="M0,0h18.823529411764707v0h-18.823529411764707Z"/><g><g class="mark-rect role-mark marks" role="graphics-object" aria-roledescription="rect mark container"><path aria-label="Einkommensdezil: 4; Nettoveränderung (CHF/Monat): 911; Szenario: A: Einkommensteuer" role="graphics-symbol" aria-roledescription="bar" d="M0,101.64h18.823529411764707v85.02666666666666h-18.823529411764707Z" fill="#a855f7"/></g></g><path class="foreground" aria-hidden="true" d="" display="none"/></g></g></g><path class="foreground" aria-hidden="true" d="" display="none"/></g><g transform="translate(296.4705882352941,124.41333333333336)"><path class="background" aria-hidden="true" d="M3,0L15.823529411764707,0C17.479274485246705,0,18.823529411764707,1.344254926518,18.823529411764707,3L18.823529411764707,62.2533333333333C18.823529411764707,62.2533333333333,18.823529411764707,62.2533333333333,18.823529411764707,62.2533333333333L0,62.2533333333333C0,62.2533333333333,0,62.2533333333333,0,62.2533333333333L0,3C0,1.344254926518,1.344254926518,0,3,0Z"/><g clip-path="url(#clip15)"><g class="mark-group role-scope" role="graphics-object" aria-roledescription="group mark container"><g transform="translate(0,-124.41333333333336)"><path class="background" aria-hidden="true" d="M0,0h18.823529411764707v0h-18.823529411764707Z"/><g><g class="mark-rect role-mark marks" role="graphics-object" aria-roledescription="rect mark container"><path aria-label="Einkommensdezil: 5; Nettoveränderung (CHF/Monat): 667; Szenario: A: Einkommensteuer" role="graphics-symbol" aria-roledescription="bar" d="M0,124.41333333333336h18.823529411764707v62.2533333333333h-18.823529411764707Z" fill="#a855f7"/></g></g><path class="foreground" aria-hidden="true" d="" display="none"/></g></g></g><path class="foreground" aria-hidden="true" d="" display="none"/></g><g transform="translate(367.0588235294117,147.84)"><path class="background" aria-hidden="true" d="M3,0L15.823529411764707,0C17.479274485246705,0,18.823529411764707,1.344254926518,18.823529411764707,3L18.823529411764707,38.826666666666654C18.823529411764707,38.826666666666654,18.823529411764707,38.826666666666654,18.823529411764707,38.826666666666654L0,38.826666666666654C0,38.826666666666654,0,38.826666666666654,0,38.826666666666654L0,3C0,1.344254926518,1.344254926518,0,3,0Z"/><g clip-path="url(#clip16)"><g class="mark-group role-scope" role="graphics-object" aria-roledescription="group mark container"><g transform="translate(0,-147.84)"><path class="background" aria-hidden="true" d="M0,0h18.823529411764707v0h-18.823529411764707Z"/><g><g class="mark-rect role-mark marks" role="graphics-object" aria-roledescription="rect mark container"><path aria-label="Einkommensdezil: 6; Nettoveränderung (CHF/Monat): 416; Szenario: A: Einkommensteuer" role="graphics-symbol" aria-roledescription="bar" d="M0,147.84h18.823529411764707v38.826666666666654h-18.823529411764707Z" fill="#a855f7"/></g></g><path class="foreground" aria-hidden="true" d="" display="none"/></g></g></g><path class="foreground" aria-hidden="true" d="" display="none"/></g><g transform="translate(437.6470588235294,171.07999999999998)"><path class="background" aria-hidden="true" d="M3,0L15.823529411764707,0C17.479274485246705,0,18.823529411764707,1.344254926518,18.823529411764707,3L18.823529411764707,15.586666666666673C18.823529411764707,15.586666666666673,18.823529411764707,15.586666666666673,18.823529411764707,15.586666666666673L0,15.586666666666673C0,15.586666666666673,0,15.586666666666673,0,15.586666666666673L0,3C0,1.344254926518,1.344254926518,0,3,0Z"/><g clip-path="url(#clip17)"><g class="mark-group role-scope" role="graphics-object" aria-roledescription="group mark container"><g transform="translate(0,-171.07999999999998)"><path class="background" aria-hidden="true" d="M0,0h18.823529411764707v0h-18.823529411764707Z"/><g><g class="mark-rect role-mark marks" role="graphics-object" aria-roledescription="rect mark container"><path aria-label="Einkommensdezil: 7; Nettoveränderung (CHF/Monat): 167; Szenario: A: Einkommensteuer" role="graphics-symbol" aria-roledescription="bar" d="M0,171.07999999999998h18.823529411764707v15.586666666666673h-18.823529411764707Z" fill="#a855f7"/></g></g><path class="foreground" aria-hidden="true" d="" display="none"/></g></g></g><path class="foreground" aria-hidden="true" d="" display="none"/></g><g transform="translate(508.235294117647,186.66666666666666)"><path class="background" aria-hidden="true" d="M3,0L15.823529411764707,0C17.479274485246705,0,18.823529411764707,1.344254926518,18.823529411764707,3L18.823529411764707,16.706666666666678C18.823529411764707,16.706666666666678,18.823529411764707,16.706666666666678,18.823529411764707,16.706666666666678L0,16.706666666666678C0,16.706666666666678,0,16.706666666666678,0,16.706666666666678L0,3C0,1.344254926518,1.344254926518,0,3,0Z"/><g clip-path="url(#clip18)"><g class="mark-group role-scope" role="graphics-object" aria-roledescription="group mark container"><g transform="translate(0,-186.66666666666666)"><path class="background" aria-hidden="true" d="M0,0h18.823529411764707v0h-18.823529411764707Z"/><g><g class="mark-rect role-mark marks" role="graphics-object" aria-roledescription="rect mark container"><path aria-label="Einkommensdezil: 8; Nettoveränderung (CHF/Monat): −179; Szenario: A: Einkommensteuer" role="graphics-symbol" aria-roledescription="bar" d="M0,186.66666666666666h18.823529411764707v16.706666666666678h-18.823529411764707Z" fill="#a855f7"/></g></g><path class="foreground" aria-hidden="true" d="" display="none"/></g></g></g><path class="foreground" aria-hidden="true" d="" display="none"/></g><g transform="translate(578.8235294117646,186.66666666666666)"><path class="background" aria-hidden="true" d="M3,0L15.823529411764707,0C17.479274485246705,0,18.823529411764707,1.344254926518,18.823529411764707,3L18.823529411764707,60.01333333333332C18.823529411764707,60.01333333333332,18.823529411764707,60.01333333333332,18.823529411764707,60.01333333333332L0,60.01333333333332C0,60.01333333333332,0,60.01333333333332,0,60.01333333333332L0,3C0,1.344254926518,1.344254926518,0,3,0Z"/><g clip-path="url(#clip19)"><g class="mark-group role-scope" role="graphics-object" aria-roledescription="group mark container"><g transform="translate(0,-186.66666666666666)"><path class="background" aria-hidden="true" d="M0,0h18.823529411764707v0h-18.823529411764707Z"/><g><g class="mark-rect role-mark marks" role="graphics-object" aria-roledescription="rect mark container"><path aria-label="Einkommensdezil: 9; Nettoveränderung (CHF/Monat): −643; Szenario: A: Einkommensteuer" role="graphics-symbol" aria-roledescription="bar" d="M0,186.66666666666666h18.823529411764707v60.01333333333332h-18.823529411764707Z" fill="#a855f7"/></g></g><path class="foreground" aria-hidden="true" d="" display="none"/></g></g></g><path class="foreground" aria-hidden="true" d="" display="none"/></g><g transform="translate(649.4117647058823,186.66666666666666)"><path class="background" aria-hidden="true" d="M3,0L15.823529411764707,0C17.479274485246705,0,18.823529411764707,1.344254926518,18.823529411764707,3L18.823529411764707,219.23999999999998C18.823529411764707,219.23999999999998,18.823529411764707,219.23999999999998,18.823529411764707,219.23999999999998L0,219.23999999999998C0,219.23999999999998,0,219.23999999999998,0,219.23999999999998L0,3C0,1.344254926518,1.344254926518,0,3,0Z"/><g clip-path="url(#clip20)"><g class="mark-group role-scope" role="graphics-object" aria-roledescription="group mark container"><g transform="translate(0,-186.66666666666666)"><path class="background" aria-hidden="true" d="M0,0h18.823529411764707v0h-18.823529411764707Z"/><g><g class="mark-rect role-mark marks" role="graphics-object" aria-roledescription="rect mark container"><path aria-label="Einkommensdezil: 10; Nettoveränderung (CHF/Monat): −2349; Szenario: A: Einkommensteuer" role="graphics-symbol" aria-roledescription="bar" d="M0,186.66666666666666h18.823529411764707v219.23999999999998h-18.823529411764707Z" fill="#a855f7"/></g></g><path class="foreground" aria-hidden="true" d="" display="none"/></g></g></g><path class="foreground" aria-hidden="true" d="" display="none"/></g><g transform="translate(32.941176470588246,178.08)"><path class="background" aria-hidden="true" d="M3,0L15.823529411764707,0C17.479274485246705,0,18.823529411764707,1.344254926518,18.823529411764707,3L18.823529411764707,8.586666666666645C18.823529411764707,8.586666666666645,18.823529411764707,8.586666666666645,18.823529411764707,8.586666666666645L0,8.586666666666645C0,8.586666666666645,0,8.586666666666645,0,8.586666666666645L0,3C0,1.344254926518,1.344254926518,0,3,0Z"/><g clip-path="url(#clip21)"><g class="mark-group role-scope" role="graphics-object" aria-roledescription="group mark container"><g transform="translate(0,-178.08)"><path class="background" aria-hidden="true" d="M0,0h18.823529411764707v0h-18.823529411764707Z"/><g><g class="mark-rect role-mark marks" role="graphics-object" aria-roledescription="rect mark container"><path aria-label="Einkommensdezil: 1; Nettoveränderung (CHF/Monat): 92; Szenario: B: Transferablösung" role="graphics-symbol" aria-roledescription="bar" d="M0,178.08h18.823529411764707v8.586666666666645h-18.823529411764707Z" fill="#3b82f6"/></g></g><path class="foreground" aria-hidden="true" d="" display="none"/></g></g></g><path class="foreground" aria-hidden="true" d="" display="none"/></g><g transform="translate(103.52941176470588,165.66666666666669)"><path class="background" aria-hidden="true" d="M3,0L15.823529411764707,0C17.479274485246705,0,18.823529411764707,1.344254926518,18.823529411764707,3L18.823529411764707,20.99999999999997C18.823529411764707,20.99999999999997,18.823529411764707,20.99999999999997,18.823529411764707,20.99999999999997L0,20.99999999999997C0,20.99999999999997,0,20.99999999999997,0,20.99999999999997L0,3C0,1.344254926518,1.344254926518,0,3,0Z"/><g clip-path="url(#clip22)"><g class="mark-group role-scope" role="graphics-object" aria-roledescription="group mark container"><g transform="translate(0,-165.66666666666669)"><path class="background" aria-hidden="true" d="M0,0h18.823529411764707v0h-18.823529411764707Z"/><g><g class="mark-rect role-mark marks" role="graphics-object" aria-roledescription="rect mark container"><path aria-label="Einkommensdezil: 2; Nettoveränderung (CHF/Monat): 225; Szenario: B: Transferablösung" role="graphics-symbol" aria-roledescription="bar" d="M0,165.66666666666669h18.823529411764707v20.99999999999997h-18.823529411764707Z" fill="#3b82f6"/></g></g><path class="foreground" aria-hidden="true" d="" display="none"/></g></g></g><path class="foreground" aria-hidden="true" d="" display="none"/></g><g transform="translate(174.1176470588235,148.12)"><path class="background" aria-hidden="true" d="M3,0L15.823529411764707,0C17.479274485246705,0,18.823529411764707,1.344254926518,18.823529411764707,3L18.823529411764707,38.54666666666665C18.823529411764707,38.54666666666665,18.823529411764707,38.54666666666665,18.823529411764707,38.54666666666665L0,38.54666666666665C0,38.54666666666665,0,38.54666666666665,0,38.54666666666665L0,3C0,1.344254926518,1.344254926518,0,3,0Z"/><g clip-path="url(#clip23)"><g class="mark-group role-scope" role="graphics-object" aria-roledescription="group mark container"><g transform="translate(0,-148.12)"><path class="background" aria-hidden="true" d="M0,0h18.823529411764707v0h-18.823529411764707Z"/><g><g class="mark-rect role-mark marks" role="graphics-object" aria-roledescription="rect mark container"><path aria-label="Einkommensdezil: 3; Nettoveränderung (CHF/Monat): 413; Szenario: B: Transferablösung" role="graphics-symbol" aria-roledescription="bar" d="M0,148.12h18.823529411764707v38.54666666666665h-18.823529411764707Z" fill="#3b82f6"/></g></g><path class="foreground" aria-hidden="true" d="" display="none"/></g></g></g><path class="foreground" aria-hidden="true" d="" display="none"/></g><g transform="translate(244.70588235294116,133.84)"><path class="background" aria-hidden="true" d="M3,0L15.823529411764707,0C17.479274485246705,0,18.823529411764707,1.344254926518,18.823529411764707,3L18.823529411764707,52.826666666666654C18.823529411764707,52.826666666666654,18.823529411764707,52.826666666666654,18.823529411764707,52.826666666666654L0,52.826666666666654C0,52.826666666666654,0,52.826666666666654,0,52.826666666666654L0,3C0,1.344254926518,1.344254926518,0,3,0Z"/><g clip-path="url(#clip24)"><g class="mark-group role-scope" role="graphics-object" aria-roledescription="group mark container"><g transform="translate(0,-133.84)"><path class="background" aria-hidden="true" d="M0,0h18.823529411764707v0h-18.823529411764707Z"/><g><g class="mark-rect role-mark marks" role="graphics-object" aria-roledescription="rect mark container"><path aria-label="Einkommensdezil: 4; Nettoveränderung (CHF/Monat): 566; Szenario: B: Transferablösung" role="graphics-symbol" aria-roledescription="bar" d="M0,133.84h18.823529411764707v52.826666666666654h-18.823529411764707Z" fill="#3b82f6"/></g></g><path class="foreground" aria-hidden="true" d="" display="none"/></g></g></g><path class="foreground" aria-hidden="true" d="" display="none"/></g><g transform="translate(315.2941176470588,128.89333333333332)"><path class="background" aria-hidden="true" d="M3,0L15.823529411764707,0C17.479274485246705,0,18.823529411764707,1.344254926518,18.823529411764707,3L18.823529411764707,57.77333333333334C18.823529411764707,57.77333333333334,18.823529411764707,57.77333333333334,18.823529411764707,57.77333333333334L0,57.77333333333334C0,57.77333333333334,0,57.77333333333334,0,57.77333333333334L0,3C0,1.344254926518,1.344254926518,0,3,0Z"/><g clip-path="url(#clip25)"><g class="mark-group role-scope" role="graphics-object" aria-roledescription="group mark container"><g transform="translate(0,-128.89333333333332)"><path class="background" aria-hidden="true" d="M0,0h18.823529411764707v0h-18.823529411764707Z"/><g><g class="mark-rect role-mark marks" role="graphics-object" aria-roledescription="rect mark container"><path aria-label="Einkommensdezil: 5; Nettoveränderung (CHF/Monat): 619; Szenario: B: Transferablösung" role="graphics-symbol" aria-roledescription="bar" d="M0,128.89333333333332h18.823529411764707v57.77333333333334h-18.823529411764707Z" fill="#3b82f6"/></g></g><path class="foreground" aria-hidden="true" d="" display="none"/></g></g></g><path class="foreground" aria-hidden="true" d="" display="none"/></g><g transform="translate(385.8823529411764,127.58666666666669)"><path class="background" aria-hidden="true" d="M3,0L15.823529411764707,0C17.479274485246705,0,18.823529411764707,1.344254926518,18.823529411764707,3L18.823529411764707,59.07999999999997C18.823529411764707,59.07999999999997,18.823529411764707,59.07999999999997,18.823529411764707,59.07999999999997L0,59.07999999999997C0,59.07999999999997,0,59.07999999999997,0,59.07999999999997L0,3C0,1.344254926518,1.344254926518,0,3,0Z"/><g clip-path="url(#clip26)"><g class="mark-group role-scope" role="graphics-object" aria-roledescription="group mark container"><g transform="translate(0,-127.58666666666669)"><path class="background" aria-hidden="true" d="M0,0h18.823529411764707v0h-18.823529411764707Z"/><g><g class="mark-rect role-mark marks" role="graphics-object" aria-roledescription="rect mark container"><path aria-label="Einkommensdezil: 6; Nettoveränderung (CHF/Monat): 633; Szenario: B: Transferablösung" role="graphics-symbol" aria-roledescription="bar" d="M0,127.58666666666669h18.823529411764707v59.07999999999997h-18.823529411764707Z" fill="#3b82f6"/></g></g><path class="foreground" aria-hidden="true" d="" display="none"/></g></g></g><path class="foreground" aria-hidden="true" d="" display="none"/></g><g transform="translate(456.4705882352941,129.45333333333332)"><path class="background" aria-hidden="true" d="M3,0L15.823529411764707,0C17.479274485246705,0,18.823529411764707,1.344254926518,18.823529411764707,3L18.823529411764707,57.21333333333334C18.823529411764707,57.21333333333334,18.823529411764707,57.21333333333334,18.823529411764707,57.21333333333334L0,57.21333333333334C0,57.21333333333334,0,57.21333333333334,0,57.21333333333334L0,3C0,1.344254926518,1.344254926518,0,3,0Z"/><g clip-path="url(#clip27)"><g class="mark-group role-scope" role="graphics-object" aria-roledescription="group mark container"><g transform="translate(0,-129.45333333333332)"><path class="background" aria-hidden="true" d="M0,0h18.823529411764707v0h-18.823529411764707Z"/><g><g class="mark-rect role-mark marks" role="graphics-object" aria-roledescription="rect mark container"><path aria-label="Einkommensdezil: 7; Nettoveränderung (CHF/Monat): 613; Szenario: B: Transferablösung" role="graphics-symbol" aria-roledescription="bar" d="M0,129.45333333333332h18.823529411764707v57.21333333333334h-18.823529411764707Z" fill="#3b82f6"/></g></g><path class="foreground" aria-hidden="true" d="" display="none"/></g></g></g><path class="foreground" aria-hidden="true" d="" display="none"/></g><g transform="translate(527.0588235294117,140.37333333333333)"><path class="background" aria-hidden="true" d="M3,0L15.823529411764707,0C17.479274485246705,0,18.823529411764707,1.344254926518,18.823529411764707,3L18.823529411764707,46.29333333333332C18.823529411764707,46.29333333333332,18.823529411764707,46.29333333333332,18.823529411764707,46.29333333333332L0,46.29333333333332C0,46.29333333333332,0,46.29333333333332,0,46.29333333333332L0,3C0,1.344254926518,1.344254926518,0,3,0Z"/><g clip-path="url(#clip28)"><g class="mark-group role-scope" role="graphics-object" aria-roledescription="group mark container"><g transform="translate(0,-140.37333333333333)"><path class="background" aria-hidden="true" d="M0,0h18.823529411764707v0h-18.823529411764707Z"/><g><g class="mark-rect role-mark marks" role="graphics-object" aria-roledescription="rect mark container"><path aria-label="Einkommensdezil: 8; Nettoveränderung (CHF/Monat): 496; Szenario: B: Transferablösung" role="graphics-symbol" aria-roledescription="bar" d="M0,140.37333333333333h18.823529411764707v46.29333333333332h-18.823529411764707Z" fill="#3b82f6"/></g></g><path class="foreground" aria-hidden="true" d="" display="none"/></g></g></g><path class="foreground" aria-hidden="true" d="" display="none"/></g><g transform="translate(597.6470588235294,158.48)"><path class="background" aria-hidden="true" d="M3,0L15.823529411764707,0C17.479274485246705,0,18.823529411764707,1.344254926518,18.823529411764707,3L18.823529411764707,28.186666666666667C18.823529411764707,28.186666666666667,18.823529411764707,28.186666666666667,18.823529411764707,28.186666666666667L0,28.186666666666667C0,28.186666666666667,0,28.186666666666667,0,28.186666666666667L0,3C0,1.344254926518,1.344254926518,0,3,0Z"/><g clip-path="url(#clip29)"><g class="mark-group role-scope" role="graphics-object" aria-roledescription="group mark container"><g transform="translate(0,-158.48)"><path class="background" aria-hidden="true" d="M0,0h18.823529411764707v0h-18.823529411764707Z"/><g><g class="mark-rect role-mark marks" role="graphics-object" aria-roledescription="rect mark container"><path aria-label="Einkommensdezil: 9; Nettoveränderung (CHF/Monat): 302; Szenario: B: Transferablösung" role="graphics-symbol" aria-roledescription="bar" d="M0,158.48h18.823529411764707v28.186666666666667h-18.823529411764707Z" fill="#3b82f6"/></g></g><path class="foreground" aria-hidden="true" d="" display="none"/></g></g></g><path class="foreground" aria-hidden="true" d="" display="none"/></g><g transform="translate(668.2352941176471,186.66666666666666)"><path class="background" aria-hidden="true" d="M3,0L15.823529411764707,0C17.479274485246705,0,18.823529411764707,1.344254926518,18.823529411764707,3L18.823529411764707,64.4C18.823529411764707,64.4,18.823529411764707,64.4,18.823529411764707,64.4L0,64.4C0,64.4,0,64.4,0,64.4L0,3C0,1.344254926518,1.344254926518,0,3,0Z"/><g clip-path="url(#clip30)"><g class="mark-group role-scope" role="graphics-object" aria-roledescription="group mark container"><g transform="translate(0,-186.66666666666666)"><path class="background" aria-hidden="true" d="M0,0h18.823529411764707v0h-18.823529411764707Z"/><g><g class="mark-rect role-mark marks" role="graphics-object" aria-roledescription="rect mark container"><path aria-label="Einkommensdezil: 10; Nettoveränderung (CHF/Monat): −690; Szenario: B: Transferablösung" role="graphics-symbol" aria-roledescription="bar" d="M0,186.66666666666666h18.823529411764707v64.4h-18.823529411764707Z" fill="#3b82f6"/></g></g><path class="foreground" aria-hidden="true" d="" display="none"/></g></g></g><path class="foreground" aria-hidden="true" d="" display="none"/></g><g transform="translate(51.76470588235295,26.973333333333315)"><path class="background" aria-hidden="true" d="M3,0L15.823529411764707,0C17.479274485246705,0,18.823529411764707,1.344254926518,18.823529411764707,3L18.823529411764707,159.69333333333333C18.823529411764707,159.69333333333333,18.823529411764707,159.69333333333333,18.823529411764707,159.69333333333333L0,159.69333333333333C0,159.69333333333333,0,159.69333333333333,0,159.69333333333333L0,3C0,1.344254926518,1.344254926518,0,3,0Z"/><g clip-path="url(#clip31)"><g class="mark-group role-scope" role="graphics-object" aria-roledescription="group mark container"><g transform="translate(0,-26.973333333333315)"><path class="background" aria-hidden="true" d="M0,0h18.823529411764707v0h-18.823529411764707Z"/><g><g class="mark-rect role-mark marks" role="graphics-object" aria-roledescription="rect mark container"><path aria-label="Einkommensdezil: 1; Nettoveränderung (CHF/Monat): 1711; Szenario: C: Konsumsteuer" role="graphics-symbol" aria-roledescription="bar" d="M0,26.973333333333315h18.823529411764707v159.69333333333333h-18.823529411764707Z" fill="#06b6d4"/></g></g><path class="foreground" aria-hidden="true" d="" display="none"/></g></g></g><path class="foreground" aria-hidden="true" d="" display="none"/></g><g transform="translate(122.35294117647058,92.86666666666669)"><path class="background" aria-hidden="true" d="M3,0L15.823529411764707,0C17.479274485246705,0,18.823529411764707,1.344254926518,18.823529411764707,3L18.823529411764707,93.79999999999997C18.823529411764707,93.79999999999997,18.823529411764707,93.79999999999997,18.823529411764707,93.79999999999997L0,93.79999999999997C0,93.79999999999997,0,93.79999999999997,0,93.79999999999997L0,3C0,1.344254926518,1.344254926518,0,3,0Z"/><g clip-path="url(#clip32)"><g class="mark-group role-scope" role="graphics-object" aria-roledescription="group mark container"><g transform="translate(0,-92.86666666666669)"><path class="background" aria-hidden="true" d="M0,0h18.823529411764707v0h-18.823529411764707Z"/><g><g class="mark-rect role-mark marks" role="graphics-object" aria-roledescription="rect mark container"><path aria-label="Einkommensdezil: 2; Nettoveränderung (CHF/Monat): 1005; Szenario: C: Konsumsteuer" role="graphics-symbol" aria-roledescription="bar" d="M0,92.86666666666669h18.823529411764707v93.79999999999997h-18.823529411764707Z" fill="#06b6d4"/></g></g><path class="foreground" aria-hidden="true" d="" display="none"/></g></g></g><path class="foreground" aria-hidden="true" d="" display="none"/></g><g transform="translate(192.94117647058823,116.47999999999999)"><path class="background" aria-hidden="true" d="M3,0L15.823529411764707,0C17.479274485246705,0,18.823529411764707,1.344254926518,18.823529411764707,3L18.823529411764707,70.18666666666667C18.823529411764707,70.18666666666667,18.823529411764707,70.18666666666667,18.823529411764707,70.18666666666667L0,70.18666666666667C0,70.18666666666667,0,70.18666666666667,0,70.18666666666667L0,3C0,1.344254926518,1.344254926518,0,3,0Z"/><g clip-path="url(#clip33)"><g class="mark-group role-scope" role="graphics-object" aria-roledescription="group mark container"><g transform="translate(0,-116.47999999999999)"><path class="background" aria-hidden="true" d="M0,0h18.823529411764707v0h-18.823529411764707Z"/><g><g class="mark-rect role-mark marks" role="graphics-object" aria-roledescription="rect mark container"><path aria-label="Einkommensdezil: 3; Nettoveränderung (CHF/Monat): 752; Szenario: C: Konsumsteuer" role="graphics-symbol" aria-roledescription="bar" d="M0,116.47999999999999h18.823529411764707v70.18666666666667h-18.823529411764707Z" fill="#06b6d4"/></g></g><path class="foreground" aria-hidden="true" d="" display="none"/></g></g></g><path class="foreground" aria-hidden="true" d="" display="none"/></g><g transform="translate(263.52941176470586,133.4666666666667)"><path class="background" aria-hidden="true" d="M3,0L15.823529411764707,0C17.479274485246705,0,18.823529411764707,1.344254926518,18.823529411764707,3L18.823529411764707,53.19999999999996C18.823529411764707,53.19999999999996,18.823529411764707,53.19999999999996,18.823529411764707,53.19999999999996L0,53.19999999999996C0,53.19999999999996,0,53.19999999999996,0,53.19999999999996L0,3C0,1.344254926518,1.344254926518,0,3,0Z"/><g clip-path="url(#clip34)"><g class="mark-group role-scope" role="graphics-object" aria-roledescription="group mark container"><g transform="translate(0,-133.4666666666667)"><path class="background" aria-hidden="true" d="M0,0h18.823529411764707v0h-18.823529411764707Z"/><g><g class="mark-rect role-mark marks" role="graphics-object" aria-roledescription="rect mark container"><path aria-label="Einkommensdezil: 4; Nettoveränderung (CHF/Monat): 570; Szenario: C: Konsumsteuer" role="graphics-symbol" aria-roledescription="bar" d="M0,133.4666666666667h18.823529411764707v53.19999999999996h-18.823529411764707Z" fill="#06b6d4"/></g></g><path class="foreground" aria-hidden="true" d="" display="none"/></g></g></g><path class="foreground" aria-hidden="true" d="" display="none"/></g><g transform="translate(334.1176470588235,148.96)"><path class="background" aria-hidden="true" d="M3,0L15.823529411764707,0C17.479274485246705,0,18.823529411764707,1.344254926518,18.823529411764707,3L18.823529411764707,37.70666666666665C18.823529411764707,37.70666666666665,18.823529411764707,37.70666666666665,18.823529411764707,37.70666666666665L0,37.70666666666665C0,37.70666666666665,0,37.70666666666665,0,37.70666666666665L0,3C0,1.344254926518,1.344254926518,0,3,0Z"/><g clip-path="url(#clip35)"><g class="mark-group role-scope" role="graphics-object" aria-roledescription="group mark container"><g transform="translate(0,-148.96)"><path class="background" aria-hidden="true" d="M0,0h18.823529411764707v0h-18.823529411764707Z"/><g><g class="mark-rect role-mark marks" role="graphics-object" aria-roledescription="rect mark container"><path aria-label="Einkommensdezil: 5; Nettoveränderung (CHF/Monat): 404; Szenario: C: Konsumsteuer" role="graphics-symbol" aria-roledescription="bar" d="M0,148.96h18.823529411764707v37.70666666666665h-18.823529411764707Z" fill="#06b6d4"/></g></g><path class="foreground" aria-hidden="true" d="" display="none"/></g></g></g><path class="foreground" aria-hidden="true" d="" display="none"/></g><g transform="translate(404.7058823529411,161.74666666666664)"><path class="background" aria-hidden="true" d="M3,0L15.823529411764707,0C17.479274485246705,0,18.823529411764707,1.344254926518,18.823529411764707,3L18.823529411764707,24.920000000000016C18.823529411764707,24.920000000000016,18.823529411764707,24.920000000000016,18.823529411764707,24.920000000000016L0,24.920000000000016C0,24.920000000000016,0,24.920000000000016,0,24.920000000000016L0,3C0,1.344254926518,1.344254926518,0,3,0Z"/><g clip-path="url(#clip36)"><g class="mark-group role-scope" role="graphics-object" aria-roledescription="group mark container"><g transform="translate(0,-161.74666666666664)"><path class="background" aria-hidden="true" d="M0,0h18.823529411764707v0h-18.823529411764707Z"/><g><g class="mark-rect role-mark marks" role="graphics-object" aria-roledescription="rect mark container"><path aria-label="Einkommensdezil: 6; Nettoveränderung (CHF/Monat): 267; Szenario: C: Konsumsteuer" role="graphics-symbol" aria-roledescription="bar" d="M0,161.74666666666664h18.823529411764707v24.920000000000016h-18.823529411764707Z" fill="#06b6d4"/></g></g><path class="foreground" aria-hidden="true" d="" display="none"/></g></g></g><path class="foreground" aria-hidden="true" d="" display="none"/></g><g transform="translate(475.2941176470588,171.07999999999998)"><path class="background" aria-hidden="true" d="M3,0L15.823529411764707,0C17.479274485246705,0,18.823529411764707,1.344254926518,18.823529411764707,3L18.823529411764707,15.586666666666673C18.823529411764707,15.586666666666673,18.823529411764707,15.586666666666673,18.823529411764707,15.586666666666673L0,15.586666666666673C0,15.586666666666673,0,15.586666666666673,0,15.586666666666673L0,3C0,1.344254926518,1.344254926518,0,3,0Z"/><g clip-path="url(#clip37)"><g class="mark-group role-scope" role="graphics-object" aria-roledescription="group mark container"><g transform="translate(0,-171.07999999999998)"><path class="background" aria-hidden="true" d="M0,0h18.823529411764707v0h-18.823529411764707Z"/><g><g class="mark-rect role-mark marks" role="graphics-object" aria-roledescription="rect mark container"><path aria-label="Einkommensdezil: 7; Nettoveränderung (CHF/Monat): 167; Szenario: C: Konsumsteuer" role="graphics-symbol" aria-roledescription="bar" d="M0,171.07999999999998h18.823529411764707v15.586666666666673h-18.823529411764707Z" fill="#06b6d4"/></g></g><path class="foreground" aria-hidden="true" d="" display="none"/></g></g></g><path class="foreground" aria-hidden="true" d="" display="none"/></g><g transform="translate(545.8823529411765,185.54666666666668)"><path class="background" aria-hidden="true" d="M0.5599999999999881,0L18.26352941176472,0C18.572601825481353,0,18.823529411764707,0.25092758628335465,18.823529411764707,0.5599999999999881L18.823529411764707,1.1199999999999761C18.823529411764707,1.1199999999999761,18.823529411764707,1.1199999999999761,18.823529411764707,1.1199999999999761L0,1.1199999999999761C0,1.1199999999999761,0,1.1199999999999761,0,1.1199999999999761L0,0.5599999999999881C0,0.25092758628335465,0.25092758628335465,0,0.5599999999999881,0Z"/><g clip-path="url(#clip38)"><g class="mark-group role-scope" role="graphics-object" aria-roledescription="group mark container"><g transform="translate(0,-185.54666666666668)"><path class="background" aria-hidden="true" d="M0,0h18.823529411764707v0h-18.823529411764707Z"/><g><g class="mark-rect role-mark marks" role="graphics-object" aria-roledescription="rect mark container"><path aria-label="Einkommensdezil: 8; Nettoveränderung (CHF/Monat): 12; Szenario: C: Konsumsteuer" role="graphics-symbol" aria-roledescription="bar" d="M0,185.54666666666668h18.823529411764707v1.1199999999999761h-18.823529411764707Z" fill="#06b6d4"/></g></g><path class="foreground" aria-hidden="true" d="" display="none"/></g></g></g><path class="foreground" aria-hidden="true" d="" display="none"/></g><g transform="translate(616.470588235294,186.66666666666666)"><path class="background" aria-hidden="true" d="M3,0L15.823529411764707,0C17.479274485246705,0,18.823529411764707,1.344254926518,18.823529411764707,3L18.823529411764707,18.19999999999999C18.823529411764707,18.19999999999999,18.823529411764707,18.19999999999999,18.823529411764707,18.19999999999999L0,18.19999999999999C0,18.19999999999999,0,18.19999999999999,0,18.19999999999999L0,3C0,1.344254926518,1.344254926518,0,3,0Z"/><g clip-path="url(#clip39)"><g class="mark-group role-scope" role="graphics-object" aria-roledescription="group mark container"><g transform="translate(0,-186.66666666666666)"><path class="background" aria-hidden="true" d="M0,0h18.823529411764707v0h-18.823529411764707Z"/><g><g class="mark-rect role-mark marks" role="graphics-object" aria-roledescription="rect mark container"><path aria-label="Einkommensdezil: 9; Nettoveränderung (CHF/Monat): −195; Szenario: C: Konsumsteuer" role="graphics-symbol" aria-roledescription="bar" d="M0,186.66666666666666h18.823529411764707v18.19999999999999h-18.823529411764707Z" fill="#06b6d4"/></g></g><path class="foreground" aria-hidden="true" d="" display="none"/></g></g></g><path class="foreground" aria-hidden="true" d="" display="none"/></g><g transform="translate(687.0588235294117,186.66666666666666)"><path class="background" aria-hidden="true" d="M3,0L15.823529411764707,0C17.479274485246705,0,18.823529411764707,1.344254926518,18.823529411764707,3L18.823529411764707,122.35999999999999C18.823529411764707,122.35999999999999,18.823529411764707,122.35999999999999,18.823529411764707,122.35999999999999L0,122.35999999999999C0,122.35999999999999,0,122.35999999999999,0,122.35999999999999L0,3C0,1.344254926518,1.344254926518,0,3,0Z"/><g clip-path="url(#clip40)"><g class="mark-group role-scope" role="graphics-object" aria-roledescription="group mark container"><g transform="translate(0,-186.66666666666666)"><path class="background" aria-hidden="true" d="M0,0h18.823529411764707v0h-18.823529411764707Z"/><g><g class="mark-rect role-mark marks" role="graphics-object" aria-roledescription="rect mark container"><path aria-label="Einkommensdezil: 10; Nettoveränderung (CHF/Monat): −1311; Szenario: C: Konsumsteuer" role="graphics-symbol" aria-roledescription="bar" d="M0,186.66666666666666h18.823529411764707v122.35999999999999h-18.823529411764707Z" fill="#06b6d4"/></g></g><path class="foreground" aria-hidden="true" d="" display="none"/></g></g></g><path class="foreground" aria-hidden="true" d="" display="none"/></g></g><g class="mark-group role-legend" role="graphics-symbol" aria-roledescription="legend" aria-label="Symbol legend titled 'Szenario' for fill color with 3 values: A: Einkommensteuer, B: Transferablösung, C: Konsumsteuer"><g transform="translate(0,-45)"><path class="background" aria-hidden="true" d="M0,0h330v27h-330Z" pointer-events="none"/><g><g class="mark-group role-legend-entry"><g transform="translate(0,16)"><path class="background" aria-hidden="true" d="M0,0h0v0h0Z" pointer-events="none"/><g><g class="mark-group role-scope" role="graphics-object" aria-roledescription="group mark container"><g transform="translate(0,0)"><path class="background" aria-hidden="true" d="M0,0h109.22000885009766v11h-109.22000885009766Z" pointer-events="none" opacity="1"/><g><g class="mark-symbol role-legend-symbol" pointer-events="none"><path transform="translate(6,6)" d="M-5,-5h10v10h-10Z" fill="#a855f7" stroke-width="1.5" opacity="1"/></g><g class="mark-text role-legend-label" pointer-events="none"><text text-anchor="start" transform="translate(16,9)" font-family="Switzer, system-ui, sans-serif" font-size="10px" fill="#000" opacity="1">A: Einkommensteuer</text></g></g><path class="foreground" aria-hidden="true" d="" pointer-events="none" display="none"/></g><g transform="translate(120,0)"><path class="background" aria-hidden="true" d="M0,0h106.12000274658203v11h-106.12000274658203Z" pointer-events="none" opacity="1"/><g><g class="mark-symbol role-legend-symbol" pointer-events="none"><path transform="translate(6,6)" d="M-5,-5h10v10h-10Z" fill="#3b82f6" stroke-width="1.5" opacity="1"/></g><g class="mark-text role-legend-label" pointer-events="none"><text text-anchor="start" transform="translate(16,9)" font-family="Switzer, system-ui, sans-serif" font-size="10px" fill="#000" opacity="1">B: Transferablösung</text></g></g><path class="foreground" aria-hidden="true" d="" pointer-events="none" display="none"/></g><g transform="translate(237,0)"><path class="background" aria-hidden="true" d="M0,0h92.8800048828125v11h-92.8800048828125Z" pointer-events="none" opacity="1"/><g><g class="mark-symbol role-legend-symbol" pointer-events="none"><path transform="translate(6,6)" d="M-5,-5h10v10h-10Z" fill="#06b6d4" stroke-width="1.5" opacity="1"/></g><g class="mark-text role-legend-label" pointer-events="none"><text text-anchor="start" transform="translate(16,9)" font-family="Switzer, system-ui, sans-serif" font-size="10px" fill="#000" opacity="1">C: Konsumsteuer</text></g></g><path class="foreground" aria-hidden="true" d="" pointer-events="none" display="none"/></g></g></g><path class="foreground" aria-hidden="true" d="" pointer-events="none" display="none"/></g></g><g class="mark-text role-legend-title" pointer-events="none"><text text-anchor="start" transform="translate(0,9)" font-family="Switzer, system-ui, sans-serif" font-size="11px" font-weight="bold" fill="#000" opacity="1">Szenario</text></g></g><path class="foreground" aria-hidden="true" d="" pointer-events="none" display="none"/></g></g><g class="mark-group role-title"><g transform="translate(360,-62)"><path class="background" aria-hidden="true" d="M0,0h0v0h0Z" pointer-events="none"/><g><g class="mark-text role-title-text" role="graphics-symbol" aria-roledescription="title" aria-label="Title text 'Nettoveränderung des Monatseinkommens pro Dezil — drei Finanzierungsmodelle'" pointer-events="none"><text text-anchor="middle" transform="translate(0,10)" font-family="Switzer, system-ui, sans-serif" font-size="13px" font-weight="bold" fill="#000" opacity="1">Nettoveränderung des Monatseinkommens pro Dezil — drei Finanzierungsmodelle</text></g></g><path class="foreground" aria-hidden="true" d="" pointer-events="none" display="none"/></g></g></g><path class="foreground" aria-hidden="true" d="" display="none"/></g></g></g><defs><clipPath id="clip11"><path d="M3,0L15.823529411764707,0C17.479274485246705,0,18.823529411764707,1.344254926518,18.823529411764707,3L18.823529411764707,179.10666666666665C18.823529411764707,179.10666666666665,18.823529411764707,179.10666666666665,18.823529411764707,179.10666666666665L0,179.10666666666665C0,179.10666666666665,0,179.10666666666665,0,179.10666666666665L0,3C0,1.344254926518,1.344254926518,0,3,0Z"/></clipPath><clipPath id="clip12"><path d="M3,0L15.823529411764707,0C17.479274485246705,0,18.823529411764707,1.344254926518,18.823529411764707,3L18.823529411764707,127.21333333333334C18.823529411764707,127.21333333333334,18.823529411764707,127.21333333333334,18.823529411764707,127.21333333333334L0,127.21333333333334C0,127.21333333333334,0,127.21333333333334,0,127.21333333333334L0,3C0,1.344254926518,1.344254926518,0,3,0Z"/></clipPath><clipPath id="clip13"><path d="M3,0L15.823529411764707,0C17.479274485246705,0,18.823529411764707,1.344254926518,18.823529411764707,3L18.823529411764707,103.59999999999997C18.823529411764707,103.59999999999997,18.823529411764707,103.59999999999997,18.823529411764707,103.59999999999997L0,103.59999999999997C0,103.59999999999997,0,103.59999999999997,0,103.59999999999997L0,3C0,1.344254926518,1.344254926518,0,3,0Z"/></clipPath><clipPath id="clip14"><path d="M3,0L15.823529411764707,0C17.479274485246705,0,18.823529411764707,1.344254926518,18.823529411764707,3L18.823529411764707,85.02666666666666C18.823529411764707,85.02666666666666,18.823529411764707,85.02666666666666,18.823529411764707,85.02666666666666L0,85.02666666666666C0,85.02666666666666,0,85.02666666666666,0,85.02666666666666L0,3C0,1.344254926518,1.344254926518,0,3,0Z"/></clipPath><clipPath id="clip15"><path d="M3,0L15.823529411764707,0C17.479274485246705,0,18.823529411764707,1.344254926518,18.823529411764707,3L18.823529411764707,62.2533333333333C18.823529411764707,62.2533333333333,18.823529411764707,62.2533333333333,18.823529411764707,62.2533333333333L0,62.2533333333333C0,62.2533333333333,0,62.2533333333333,0,62.2533333333333L0,3C0,1.344254926518,1.344254926518,0,3,0Z"/></clipPath><clipPath id="clip16"><path d="M3,0L15.823529411764707,0C17.479274485246705,0,18.823529411764707,1.344254926518,18.823529411764707,3L18.823529411764707,38.826666666666654C18.823529411764707,38.826666666666654,18.823529411764707,38.826666666666654,18.823529411764707,38.826666666666654L0,38.826666666666654C0,38.826666666666654,0,38.826666666666654,0,38.826666666666654L0,3C0,1.344254926518,1.344254926518,0,3,0Z"/></clipPath><clipPath id="clip17"><path d="M3,0L15.823529411764707,0C17.479274485246705,0,18.823529411764707,1.344254926518,18.823529411764707,3L18.823529411764707,15.586666666666673C18.823529411764707,15.586666666666673,18.823529411764707,15.586666666666673,18.823529411764707,15.586666666666673L0,15.586666666666673C0,15.586666666666673,0,15.586666666666673,0,15.586666666666673L0,3C0,1.344254926518,1.344254926518,0,3,0Z"/></clipPath><clipPath id="clip18"><path d="M3,0L15.823529411764707,0C17.479274485246705,0,18.823529411764707,1.344254926518,18.823529411764707,3L18.823529411764707,16.706666666666678C18.823529411764707,16.706666666666678,18.823529411764707,16.706666666666678,18.823529411764707,16.706666666666678L0,16.706666666666678C0,16.706666666666678,0,16.706666666666678,0,16.706666666666678L0,3C0,1.344254926518,1.344254926518,0,3,0Z"/></clipPath><clipPath id="clip19"><path d="M3,0L15.823529411764707,0C17.479274485246705,0,18.823529411764707,1.344254926518,18.823529411764707,3L18.823529411764707,60.01333333333332C18.823529411764707,60.01333333333332,18.823529411764707,60.01333333333332,18.823529411764707,60.01333333333332L0,60.01333333333332C0,60.01333333333332,0,60.01333333333332,0,60.01333333333332L0,3C0,1.344254926518,1.344254926518,0,3,0Z"/></clipPath><clipPath id="clip20"><path d="M3,0L15.823529411764707,0C17.479274485246705,0,18.823529411764707,1.344254926518,18.823529411764707,3L18.823529411764707,219.23999999999998C18.823529411764707,219.23999999999998,18.823529411764707,219.23999999999998,18.823529411764707,219.23999999999998L0,219.23999999999998C0,219.23999999999998,0,219.23999999999998,0,219.23999999999998L0,3C0,1.344254926518,1.344254926518,0,3,0Z"/></clipPath><clipPath id="clip21"><path d="M3,0L15.823529411764707,0C17.479274485246705,0,18.823529411764707,1.344254926518,18.823529411764707,3L18.823529411764707,8.586666666666645C18.823529411764707,8.586666666666645,18.823529411764707,8.586666666666645,18.823529411764707,8.586666666666645L0,8.586666666666645C0,8.586666666666645,0,8.586666666666645,0,8.586666666666645L0,3C0,1.344254926518,1.344254926518,0,3,0Z"/></clipPath><clipPath id="clip22"><path d="M3,0L15.823529411764707,0C17.479274485246705,0,18.823529411764707,1.344254926518,18.823529411764707,3L18.823529411764707,20.99999999999997C18.823529411764707,20.99999999999997,18.823529411764707,20.99999999999997,18.823529411764707,20.99999999999997L0,20.99999999999997C0,20.99999999999997,0,20.99999999999997,0,20.99999999999997L0,3C0,1.344254926518,1.344254926518,0,3,0Z"/></clipPath><clipPath id="clip23"><path d="M3,0L15.823529411764707,0C17.479274485246705,0,18.823529411764707,1.344254926518,18.823529411764707,3L18.823529411764707,38.54666666666665C18.823529411764707,38.54666666666665,18.823529411764707,38.54666666666665,18.823529411764707,38.54666666666665L0,38.54666666666665C0,38.54666666666665,0,38.54666666666665,0,38.54666666666665L0,3C0,1.344254926518,1.344254926518,0,3,0Z"/></clipPath><clipPath id="clip24"><path d="M3,0L15.823529411764707,0C17.479274485246705,0,18.823529411764707,1.344254926518,18.823529411764707,3L18.823529411764707,52.826666666666654C18.823529411764707,52.826666666666654,18.823529411764707,52.826666666666654,18.823529411764707,52.826666666666654L0,52.826666666666654C0,52.826666666666654,0,52.826666666666654,0,52.826666666666654L0,3C0,1.344254926518,1.344254926518,0,3,0Z"/></clipPath><clipPath id="clip25"><path d="M3,0L15.823529411764707,0C17.479274485246705,0,18.823529411764707,1.344254926518,18.823529411764707,3L18.823529411764707,57.77333333333334C18.823529411764707,57.77333333333334,18.823529411764707,57.77333333333334,18.823529411764707,57.77333333333334L0,57.77333333333334C0,57.77333333333334,0,57.77333333333334,0,57.77333333333334L0,3C0,1.344254926518,1.344254926518,0,3,0Z"/></clipPath><clipPath id="clip26"><path d="M3,0L15.823529411764707,0C17.479274485246705,0,18.823529411764707,1.344254926518,18.823529411764707,3L18.823529411764707,59.07999999999997C18.823529411764707,59.07999999999997,18.823529411764707,59.07999999999997,18.823529411764707,59.07999999999997L0,59.07999999999997C0,59.07999999999997,0,59.07999999999997,0,59.07999999999997L0,3C0,1.344254926518,1.344254926518,0,3,0Z"/></clipPath><clipPath id="clip27"><path d="M3,0L15.823529411764707,0C17.479274485246705,0,18.823529411764707,1.344254926518,18.823529411764707,3L18.823529411764707,57.21333333333334C18.823529411764707,57.21333333333334,18.823529411764707,57.21333333333334,18.823529411764707,57.21333333333334L0,57.21333333333334C0,57.21333333333334,0,57.21333333333334,0,57.21333333333334L0,3C0,1.344254926518,1.344254926518,0,3,0Z"/></clipPath><clipPath id="clip28"><path d="M3,0L15.823529411764707,0C17.479274485246705,0,18.823529411764707,1.344254926518,18.823529411764707,3L18.823529411764707,46.29333333333332C18.823529411764707,46.29333333333332,18.823529411764707,46.29333333333332,18.823529411764707,46.29333333333332L0,46.29333333333332C0,46.29333333333332,0,46.29333333333332,0,46.29333333333332L0,3C0,1.344254926518,1.344254926518,0,3,0Z"/></clipPath><clipPath id="clip29"><path d="M3,0L15.823529411764707,0C17.479274485246705,0,18.823529411764707,1.344254926518,18.823529411764707,3L18.823529411764707,28.186666666666667C18.823529411764707,28.186666666666667,18.823529411764707,28.186666666666667,18.823529411764707,28.186666666666667L0,28.186666666666667C0,28.186666666666667,0,28.186666666666667,0,28.186666666666667L0,3C0,1.344254926518,1.344254926518,0,3,0Z"/></clipPath><clipPath id="clip30"><path d="M3,0L15.823529411764707,0C17.479274485246705,0,18.823529411764707,1.344254926518,18.823529411764707,3L18.823529411764707,64.4C18.823529411764707,64.4,18.823529411764707,64.4,18.823529411764707,64.4L0,64.4C0,64.4,0,64.4,0,64.4L0,3C0,1.344254926518,1.344254926518,0,3,0Z"/></clipPath><clipPath id="clip31"><path d="M3,0L15.823529411764707,0C17.479274485246705,0,18.823529411764707,1.344254926518,18.823529411764707,3L18.823529411764707,159.69333333333333C18.823529411764707,159.69333333333333,18.823529411764707,159.69333333333333,18.823529411764707,159.69333333333333L0,159.69333333333333C0,159.69333333333333,0,159.69333333333333,0,159.69333333333333L0,3C0,1.344254926518,1.344254926518,0,3,0Z"/></clipPath><clipPath id="clip32"><path d="M3,0L15.823529411764707,0C17.479274485246705,0,18.823529411764707,1.344254926518,18.823529411764707,3L18.823529411764707,93.79999999999997C18.823529411764707,93.79999999999997,18.823529411764707,93.79999999999997,18.823529411764707,93.79999999999997L0,93.79999999999997C0,93.79999999999997,0,93.79999999999997,0,93.79999999999997L0,3C0,1.344254926518,1.344254926518,0,3,0Z"/></clipPath><clipPath id="clip33"><path d="M3,0L15.823529411764707,0C17.479274485246705,0,18.823529411764707,1.344254926518,18.823529411764707,3L18.823529411764707,70.18666666666667C18.823529411764707,70.18666666666667,18.823529411764707,70.18666666666667,18.823529411764707,70.18666666666667L0,70.18666666666667C0,70.18666666666667,0,70.18666666666667,0,70.18666666666667L0,3C0,1.344254926518,1.344254926518,0,3,0Z"/></clipPath><clipPath id="clip34"><path d="M3,0L15.823529411764707,0C17.479274485246705,0,18.823529411764707,1.344254926518,18.823529411764707,3L18.823529411764707,53.19999999999996C18.823529411764707,53.19999999999996,18.823529411764707,53.19999999999996,18.823529411764707,53.19999999999996L0,53.19999999999996C0,53.19999999999996,0,53.19999999999996,0,53.19999999999996L0,3C0,1.344254926518,1.344254926518,0,3,0Z"/></clipPath><clipPath id="clip35"><path d="M3,0L15.823529411764707,0C17.479274485246705,0,18.823529411764707,1.344254926518,18.823529411764707,3L18.823529411764707,37.70666666666665C18.823529411764707,37.70666666666665,18.823529411764707,37.70666666666665,18.823529411764707,37.70666666666665L0,37.70666666666665C0,37.70666666666665,0,37.70666666666665,0,37.70666666666665L0,3C0,1.344254926518,1.344254926518,0,3,0Z"/></clipPath><clipPath id="clip36"><path d="M3,0L15.823529411764707,0C17.479274485246705,0,18.823529411764707,1.344254926518,18.823529411764707,3L18.823529411764707,24.920000000000016C18.823529411764707,24.920000000000016,18.823529411764707,24.920000000000016,18.823529411764707,24.920000000000016L0,24.920000000000016C0,24.920000000000016,0,24.920000000000016,0,24.920000000000016L0,3C0,1.344254926518,1.344254926518,0,3,0Z"/></clipPath><clipPath id="clip37"><path d="M3,0L15.823529411764707,0C17.479274485246705,0,18.823529411764707,1.344254926518,18.823529411764707,3L18.823529411764707,15.586666666666673C18.823529411764707,15.586666666666673,18.823529411764707,15.586666666666673,18.823529411764707,15.586666666666673L0,15.586666666666673C0,15.586666666666673,0,15.586666666666673,0,15.586666666666673L0,3C0,1.344254926518,1.344254926518,0,3,0Z"/></clipPath><clipPath id="clip38"><path d="M0.5599999999999881,0L18.26352941176472,0C18.572601825481353,0,18.823529411764707,0.25092758628335465,18.823529411764707,0.5599999999999881L18.823529411764707,1.1199999999999761C18.823529411764707,1.1199999999999761,18.823529411764707,1.1199999999999761,18.823529411764707,1.1199999999999761L0,1.1199999999999761C0,1.1199999999999761,0,1.1199999999999761,0,1.1199999999999761L0,0.5599999999999881C0,0.25092758628335465,0.25092758628335465,0,0.5599999999999881,0Z"/></clipPath><clipPath id="clip39"><path d="M3,0L15.823529411764707,0C17.479274485246705,0,18.823529411764707,1.344254926518,18.823529411764707,3L18.823529411764707,18.19999999999999C18.823529411764707,18.19999999999999,18.823529411764707,18.19999999999999,18.823529411764707,18.19999999999999L0,18.19999999999999C0,18.19999999999999,0,18.19999999999999,0,18.19999999999999L0,3C0,1.344254926518,1.344254926518,0,3,0Z"/></clipPath><clipPath id="clip40"><path d="M3,0L15.823529411764707,0C17.479274485246705,0,18.823529411764707,1.344254926518,18.823529411764707,3L18.823529411764707,122.35999999999999C18.823529411764707,122.35999999999999,18.823529411764707,122.35999999999999,18.823529411764707,122.35999999999999L0,122.35999999999999C0,122.35999999999999,0,122.35999999999999,0,122.35999999999999L0,3C0,1.344254926518,1.344254926518,0,3,0Z"/></clipPath></defs></svg>