<svg xmlns="http://www.w3.org/2000/svg" xmlns:xlink="http://www.w3.org/1999/xlink" version="1.1" class="marks" width="770" height="508" viewBox="0 0 770 508"><rect width="770" height="508" fill="white"/><g fill="none" stroke-miterlimit="10" transform="translate(45,69)"><g class="mark-group role-frame root" role="graphics-object" aria-roledescription="group mark container"><g transform="translate(0,0)"><path class="background" aria-hidden="true" d="M0.5,0.5h720v400h-720Z"/><g><g class="mark-group role-axis" aria-hidden="true"><g transform="translate(0.5,0.5)"><path class="background" aria-hidden="true" d="M0,0h0v0h0Z" pointer-events="none"/><g><g class="mark-rule role-axis-grid" pointer-events="none"><line transform="translate(0,400)" x2="720" y2="0" stroke="#ddd" stroke-width="1" opacity="1"/><line transform="translate(0,360)" x2="720" y2="0" stroke="#ddd" stroke-width="1" opacity="1"/><line transform="translate(0,320)" x2="720" y2="0" stroke="#ddd" stroke-width="1" opacity="1"/><line transform="translate(0,280)" x2="720" y2="0" stroke="#ddd" stroke-width="1" opacity="1"/><line transform="translate(0,240)" x2="720" y2="0" stroke="#ddd" stroke-width="1" opacity="1"/><line transform="translate(0,200)" x2="720" y2="0" stroke="#ddd" stroke-width="1" opacity="1"/><line transform="translate(0,160)" x2="720" y2="0" stroke="#ddd" stroke-width="1" opacity="1"/><line transform="translate(0,120)" x2="720" y2="0" stroke="#ddd" stroke-width="1" opacity="1"/><line transform="translate(0,80)" x2="720" y2="0" stroke="#ddd" stroke-width="1" opacity="1"/><line transform="translate(0,40)" x2="720" y2="0" stroke="#ddd" stroke-width="1" opacity="1"/><line transform="translate(0,0)" x2="720" y2="0" stroke="#ddd" stroke-width="1" opacity="1"/></g></g><path class="foreground" aria-hidden="true" d="" pointer-events="none" display="none"/></g></g><g class="mark-group role-axis" role="graphics-symbol" aria-roledescription="axis" aria-label="X-axis titled 'Einkommensdezil' for a discrete scale with 10 values: 1, 2, 3, 4, 5, ending with 10"><g transform="translate(0.5,400.5)"><path class="background" aria-hidden="true" d="M0,0h0v0h0Z" pointer-events="none"/><g><g class="mark-rule role-axis-tick" pointer-events="none"><line transform="translate(36,0)" x2="0" y2="5" stroke="#888" stroke-width="1" opacity="1"/><line transform="translate(108,0)" x2="0" y2="5" stroke="#888" stroke-width="1" opacity="1"/><line transform="translate(180,0)" x2="0" y2="5" stroke="#888" stroke-width="1" opacity="1"/><line transform="translate(252,0)" x2="0" y2="5" stroke="#888" stroke-width="1" opacity="1"/><line transform="translate(324,0)" x2="0" y2="5" stroke="#888" stroke-width="1" opacity="1"/><line transform="translate(396,0)" x2="0" y2="5" stroke="#888" stroke-width="1" opacity="1"/><line transform="translate(468,0)" x2="0" y2="5" stroke="#888" stroke-width="1" opacity="1"/><line transform="translate(540,0)" x2="0" y2="5" stroke="#888" stroke-width="1" opacity="1"/><line transform="translate(612,0)" x2="0" y2="5" stroke="#888" stroke-width="1" opacity="1"/><line transform="translate(684,0)" x2="0" y2="5" stroke="#888" stroke-width="1" opacity="1"/></g><g class="mark-text role-axis-label" pointer-events="none"><text text-anchor="end" transform="translate(36,7) rotate(270) translate(0,3)" font-family="Switzer, system-ui, sans-serif" font-size="10px" fill="#000" opacity="1">1</text><text text-anchor="end" transform="translate(108,7) rotate(270) translate(0,3)" font-family="Switzer, system-ui, sans-serif" font-size="10px" fill="#000" opacity="1">2</text><text text-anchor="end" transform="translate(180,7) rotate(270) translate(0,3)" font-family="Switzer, system-ui, sans-serif" font-size="10px" fill="#000" opacity="1">3</text><text text-anchor="end" transform="translate(252,7) rotate(270) translate(0,3)" font-family="Switzer, system-ui, sans-serif" font-size="10px" fill="#000" opacity="1">4</text><text text-anchor="end" transform="translate(324,7) rotate(270) translate(0,3)" font-family="Switzer, system-ui, sans-serif" font-size="10px" fill="#000" opacity="1">5</text><text text-anchor="end" transform="translate(396,7) rotate(270) translate(0,3)" font-family="Switzer, system-ui, sans-serif" font-size="10px" fill="#000" opacity="1">6</text><text text-anchor="end" transform="translate(468,7) rotate(270) translate(0,3)" font-family="Switzer, system-ui, sans-serif" font-size="10px" fill="#000" opacity="1">7</text><text text-anchor="end" transform="translate(540,7) rotate(270) translate(0,3)" font-family="Switzer, system-ui, sans-serif" font-size="10px" fill="#000" opacity="1">8</text><text text-anchor="end" transform="translate(612,7) rotate(270) translate(0,3)" font-family="Switzer, system-ui, sans-serif" font-size="10px" fill="#000" opacity="1">9</text><text text-anchor="end" transform="translate(684,7) rotate(270) translate(0,3)" font-family="Switzer, system-ui, sans-serif" font-size="10px" fill="#000" opacity="1">10</text></g><g class="mark-rule role-axis-domain" pointer-events="none"><line transform="translate(0,0)" x2="720" y2="0" stroke="#888" stroke-width="1" opacity="1"/></g><g class="mark-text role-axis-title" pointer-events="none"><text text-anchor="middle" transform="translate(360,31.520000457763672)" font-family="Switzer, system-ui, sans-serif" font-size="11px" font-weight="bold" fill="#000" opacity="1">Einkommensdezil</text></g></g><path class="foreground" aria-hidden="true" d="" pointer-events="none" display="none"/></g></g><g class="mark-group role-axis" role="graphics-symbol" aria-roledescription="axis" aria-label="Y-axis titled 'Relative Veränderung (%)' for a linear scale with values from −40 to 160"><g transform="translate(0.5,0.5)"><path class="background" aria-hidden="true" d="M0,0h0v0h0Z" pointer-events="none"/><g><g class="mark-rule role-axis-tick" pointer-events="none"><line transform="translate(0,400)" x2="-5" y2="0" stroke="#888" stroke-width="1" opacity="1"/><line transform="translate(0,360)" x2="-5" y2="0" stroke="#888" stroke-width="1" opacity="1"/><line transform="translate(0,320)" x2="-5" y2="0" stroke="#888" stroke-width="1" opacity="1"/><line transform="translate(0,280)" x2="-5" y2="0" stroke="#888" stroke-width="1" opacity="1"/><line transform="translate(0,240)" x2="-5" y2="0" stroke="#888" stroke-width="1" opacity="1"/><line transform="translate(0,200)" x2="-5" y2="0" stroke="#888" stroke-width="1" opacity="1"/><line transform="translate(0,160)" x2="-5" y2="0" stroke="#888" stroke-width="1" opacity="1"/><line transform="translate(0,120)" x2="-5" y2="0" stroke="#888" stroke-width="1" opacity="1"/><line transform="translate(0,80)" x2="-5" y2="0" stroke="#888" stroke-width="1" opacity="1"/><line transform="translate(0,40)" x2="-5" y2="0" stroke="#888" stroke-width="1" opacity="1"/><line transform="translate(0,0)" x2="-5" y2="0" stroke="#888" stroke-width="1" opacity="1"/></g><g class="mark-text role-axis-label" pointer-events="none"><text text-anchor="end" transform="translate(-7,403)" font-family="Switzer, system-ui, sans-serif" font-size="10px" fill="#000" opacity="1">−40</text><text text-anchor="end" transform="translate(-7,363)" font-family="Switzer, system-ui, sans-serif" font-size="10px" fill="#000" opacity="1">−20</text><text text-anchor="end" transform="translate(-7,323)" font-family="Switzer, system-ui, sans-serif" font-size="10px" fill="#000" opacity="1">0</text><text text-anchor="end" transform="translate(-7,283)" font-family="Switzer, system-ui, sans-serif" font-size="10px" fill="#000" opacity="1">20</text><text text-anchor="end" transform="translate(-7,243)" font-family="Switzer, system-ui, sans-serif" font-size="10px" fill="#000" opacity="1">40</text><text text-anchor="end" transform="translate(-7,203)" font-family="Switzer, system-ui, sans-serif" font-size="10px" fill="#000" opacity="1">60</text><text text-anchor="end" transform="translate(-7,163)" font-family="Switzer, system-ui, sans-serif" font-size="10px" fill="#000" opacity="1">80</text><text text-anchor="end" transform="translate(-7,123.00000000000001)" font-family="Switzer, system-ui, sans-serif" font-size="10px" fill="#000" opacity="1">100</text><text text-anchor="end" transform="translate(-7,82.99999999999999)" font-family="Switzer, system-ui, sans-serif" font-size="10px" fill="#000" opacity="1">120</text><text text-anchor="end" transform="translate(-7,42.99999999999999)" font-family="Switzer, system-ui, sans-serif" font-size="10px" fill="#000" opacity="1">140</text><text text-anchor="end" transform="translate(-7,3)" font-family="Switzer, system-ui, sans-serif" font-size="10px" fill="#000" opacity="1">160</text></g><g class="mark-rule role-axis-domain" pointer-events="none"><line transform="translate(0,400)" x2="0" y2="-400" stroke="#888" stroke-width="1" opacity="1"/></g><g class="mark-text role-axis-title" pointer-events="none"><text text-anchor="middle" transform="translate(-28.279998779296875,200) rotate(-90) translate(0,-2)" font-family="Switzer, system-ui, sans-serif" font-size="11px" font-weight="bold" fill="#000" opacity="1">Relative Veränderung (%)</text></g></g><path class="foreground" aria-hidden="true" d="" pointer-events="none" display="none"/></g></g><g class="mark-group role-scope layer_0_pathgroup" role="graphics-object" aria-roledescription="group mark container"><g transform="translate(0,0)"><path class="background" aria-hidden="true" d="M0,0h720v400h-720Z"/><g><g class="mark-line role-mark layer_0_marks" role="graphics-object" aria-roledescription="line mark container"><path aria-label="Einkommensdezil: 1; Relative Veränderung (%): 153.2; Szenario: A: Einkommensteuer" role="graphics-symbol" aria-roledescription="line mark" d="M36,13.6L108,208.8L180,246L252,266.8L324,286.2L396,301.4L468,313.4L540,326.2L612,339L684,365" stroke="#a855f7" stroke-width="2" stroke-dasharray="1,0"/></g></g><path class="foreground" aria-hidden="true" d="" display="none"/></g><g transform="translate(0,0)"><path class="background" aria-hidden="true" d="M0,0h720v400h-720Z"/><g><g class="mark-line role-mark layer_0_marks" role="graphics-object" aria-roledescription="line mark container"><path aria-label="Einkommensdezil: 1; Relative Veränderung (%): 7.3; Szenario: B: Transferablösung" role="graphics-symbol" aria-roledescription="line mark" d="M36,305.4L108,301.6L180,292.4L252,287L324,288.6L396,291.8L468,295.6L540,302.8L612,311L684,333.2" stroke="#3b82f6" stroke-width="2" stroke-dasharray="4,2"/></g></g><path class="foreground" aria-hidden="true" d="" display="none"/></g><g transform="translate(0,0)"><path class="background" aria-hidden="true" d="M0,0h720v400h-720Z"/><g><g class="mark-line role-mark layer_0_marks" role="graphics-object" aria-roledescription="line mark container"><path aria-label="Einkommensdezil: 1; Relative Veränderung (%): 136.6; Szenario: C: Konsumsteuer" role="graphics-symbol" aria-roledescription="line mark" d="M36,46.8L108,238L180,269.8L252,286.8L324,299.6L396,308.2L468,313.4L540,319.6L612,325.8L684,345" stroke="#06b6d4" stroke-width="2" stroke-dasharray="2,1"/></g></g><path class="foreground" aria-hidden="true" d="" display="none"/></g></g><g class="mark-symbol role-mark layer_1_marks" role="graphics-object" aria-roledescription="symbol mark container"><path aria-label="Einkommensdezil: 1; Relative Veränderung (%): 153.2; Szenario: A: Einkommensteuer" role="graphics-symbol" aria-roledescription="point" transform="translate(36,13.600000000000012)" d="M3.873,0A3.873,3.873,0,1,1,-3.873,0A3.873,3.873,0,1,1,3.873,0" fill="#a855f7" stroke-width="2" stroke-dasharray="1,0" opacity="1"/><path aria-label="Einkommensdezil: 2; Relative Veränderung (%): 55.6; Szenario: A: Einkommensteuer" role="graphics-symbol" aria-roledescription="point" transform="translate(108,208.8)" d="M3.873,0A3.873,3.873,0,1,1,-3.873,0A3.873,3.873,0,1,1,3.873,0" fill="#a855f7" stroke-width="2" stroke-dasharray="1,0" opacity="1"/><path aria-label="Einkommensdezil: 3; Relative Veränderung (%): 37; Szenario: A: Einkommensteuer" role="graphics-symbol" aria-roledescription="point" transform="translate(180,246)" d="M3.873,0A3.873,3.873,0,1,1,-3.873,0A3.873,3.873,0,1,1,3.873,0" fill="#a855f7" stroke-width="2" stroke-dasharray="1,0" opacity="1"/><path aria-label="Einkommensdezil: 4; Relative Veränderung (%): 26.6; Szenario: A: Einkommensteuer" role="graphics-symbol" aria-roledescription="point" transform="translate(252,266.8)" d="M3.873,0A3.873,3.873,0,1,1,-3.873,0A3.873,3.873,0,1,1,3.873,0" fill="#a855f7" stroke-width="2" stroke-dasharray="1,0" opacity="1"/><path aria-label="Einkommensdezil: 5; Relative Veränderung (%): 16.9; Szenario: A: Einkommensteuer" role="graphics-symbol" aria-roledescription="point" transform="translate(324,286.2)" d="M3.873,0A3.873,3.873,0,1,1,-3.873,0A3.873,3.873,0,1,1,3.873,0" fill="#a855f7" stroke-width="2" stroke-dasharray="1,0" opacity="1"/><path aria-label="Einkommensdezil: 6; Relative Veränderung (%): 9.3; Szenario: A: Einkommensteuer" role="graphics-symbol" aria-roledescription="point" transform="translate(396,301.40000000000003)" d="M3.873,0A3.873,3.873,0,1,1,-3.873,0A3.873,3.873,0,1,1,3.873,0" fill="#a855f7" stroke-width="2" stroke-dasharray="1,0" opacity="1"/><path aria-label="Einkommensdezil: 7; Relative Veränderung (%): 3.3; Szenario: A: Einkommensteuer" role="graphics-symbol" aria-roledescription="point" transform="translate(468,313.4)" d="M3.873,0A3.873,3.873,0,1,1,-3.873,0A3.873,3.873,0,1,1,3.873,0" fill="#a855f7" stroke-width="2" stroke-dasharray="1,0" opacity="1"/><path aria-label="Einkommensdezil: 8; Relative Veränderung (%): −3.1; Szenario: A: Einkommensteuer" role="graphics-symbol" aria-roledescription="point" transform="translate(540,326.2)" d="M3.873,0A3.873,3.873,0,1,1,-3.873,0A3.873,3.873,0,1,1,3.873,0" fill="#a855f7" stroke-width="2" stroke-dasharray="1,0" opacity="1"/><path aria-label="Einkommensdezil: 9; Relative Veränderung (%): −9.5; Szenario: A: Einkommensteuer" role="graphics-symbol" aria-roledescription="point" transform="translate(612,339)" d="M3.873,0A3.873,3.873,0,1,1,-3.873,0A3.873,3.873,0,1,1,3.873,0" fill="#a855f7" stroke-width="2" stroke-dasharray="1,0" opacity="1"/><path aria-label="Einkommensdezil: 10; Relative Veränderung (%): −22.5; Szenario: A: Einkommensteuer" role="graphics-symbol" aria-roledescription="point" transform="translate(684,365)" d="M3.873,0A3.873,3.873,0,1,1,-3.873,0A3.873,3.873,0,1,1,3.873,0" fill="#a855f7" stroke-width="2" stroke-dasharray="1,0" opacity="1"/><path aria-label="Einkommensdezil: 1; Relative Veränderung (%): 7.3; Szenario: B: Transferablösung" role="graphics-symbol" aria-roledescription="point" transform="translate(36,305.40000000000003)" d="M3.873,0A3.873,3.873,0,1,1,-3.873,0A3.873,3.873,0,1,1,3.873,0" fill="#3b82f6" stroke-width="2" stroke-dasharray="4,2" opacity="1"/><path aria-label="Einkommensdezil: 2; Relative Veränderung (%): 9.2; Szenario: B: Transferablösung" role="graphics-symbol" aria-roledescription="point" transform="translate(108,301.6)" d="M3.873,0A3.873,3.873,0,1,1,-3.873,0A3.873,3.873,0,1,1,3.873,0" fill="#3b82f6" stroke-width="2" stroke-dasharray="4,2" opacity="1"/><path aria-label="Einkommensdezil: 3; Relative Veränderung (%): 13.8; Szenario: B: Transferablösung" role="graphics-symbol" aria-roledescription="point" transform="translate(180,292.40000000000003)" d="M3.873,0A3.873,3.873,0,1,1,-3.873,0A3.873,3.873,0,1,1,3.873,0" fill="#3b82f6" stroke-width="2" stroke-dasharray="4,2" opacity="1"/><path aria-label="Einkommensdezil: 4; Relative Veränderung (%): 16.5; Szenario: B: Transferablösung" role="graphics-symbol" aria-roledescription="point" transform="translate(252,287)" d="M3.873,0A3.873,3.873,0,1,1,-3.873,0A3.873,3.873,0,1,1,3.873,0" fill="#3b82f6" stroke-width="2" stroke-dasharray="4,2" opacity="1"/><path aria-label="Einkommensdezil: 5; Relative Veränderung (%): 15.7; Szenario: B: Transferablösung" role="graphics-symbol" aria-roledescription="point" transform="translate(324,288.6)" d="M3.873,0A3.873,3.873,0,1,1,-3.873,0A3.873,3.873,0,1,1,3.873,0" fill="#3b82f6" stroke-width="2" stroke-dasharray="4,2" opacity="1"/><path aria-label="Einkommensdezil: 6; Relative Veränderung (%): 14.1; Szenario: B: Transferablösung" role="graphics-symbol" aria-roledescription="point" transform="translate(396,291.8)" d="M3.873,0A3.873,3.873,0,1,1,-3.873,0A3.873,3.873,0,1,1,3.873,0" fill="#3b82f6" stroke-width="2" stroke-dasharray="4,2" opacity="1"/><path aria-label="Einkommensdezil: 7; Relative Veränderung (%): 12.2; Szenario: B: Transferablösung" role="graphics-symbol" aria-roledescription="point" transform="translate(468,295.6)" d="M3.873,0A3.873,3.873,0,1,1,-3.873,0A3.873,3.873,0,1,1,3.873,0" fill="#3b82f6" stroke-width="2" stroke-dasharray="4,2" opacity="1"/><path aria-label="Einkommensdezil: 8; Relative Veränderung (%): 8.6; Szenario: B: Transferablösung" role="graphics-symbol" aria-roledescription="point" transform="translate(540,302.8)" d="M3.873,0A3.873,3.873,0,1,1,-3.873,0A3.873,3.873,0,1,1,3.873,0" fill="#3b82f6" stroke-width="2" stroke-dasharray="4,2" opacity="1"/><path aria-label="Einkommensdezil: 9; Relative Veränderung (%): 4.5; Szenario: B: Transferablösung" role="graphics-symbol" aria-roledescription="point" transform="translate(612,311)" d="M3.873,0A3.873,3.873,0,1,1,-3.873,0A3.873,3.873,0,1,1,3.873,0" fill="#3b82f6" stroke-width="2" stroke-dasharray="4,2" opacity="1"/><path aria-label="Einkommensdezil: 10; Relative Veränderung (%): −6.6; Szenario: B: Transferablösung" role="graphics-symbol" aria-roledescription="point" transform="translate(684,333.2)" d="M3.873,0A3.873,3.873,0,1,1,-3.873,0A3.873,3.873,0,1,1,3.873,0" fill="#3b82f6" stroke-width="2" stroke-dasharray="4,2" opacity="1"/><path aria-label="Einkommensdezil: 1; Relative Veränderung (%): 136.6; Szenario: C: Konsumsteuer" role="graphics-symbol" aria-roledescription="point" transform="translate(36,46.8)" d="M3.873,0A3.873,3.873,0,1,1,-3.873,0A3.873,3.873,0,1,1,3.873,0" fill="#06b6d4" stroke-width="2" stroke-dasharray="2,1" opacity="1"/><path aria-label="Einkommensdezil: 2; Relative Veränderung (%): 41; Szenario: C: Konsumsteuer" role="graphics-symbol" aria-roledescription="point" transform="translate(108,238)" d="M3.873,0A3.873,3.873,0,1,1,-3.873,0A3.873,3.873,0,1,1,3.873,0" fill="#06b6d4" stroke-width="2" stroke-dasharray="2,1" opacity="1"/><path aria-label="Einkommensdezil: 3; Relative Veränderung (%): 25.1; Szenario: C: Konsumsteuer" role="graphics-symbol" aria-roledescription="point" transform="translate(180,269.80000000000007)" d="M3.873,0A3.873,3.873,0,1,1,-3.873,0A3.873,3.873,0,1,1,3.873,0" fill="#06b6d4" stroke-width="2" stroke-dasharray="2,1" opacity="1"/><path aria-label="Einkommensdezil: 4; Relative Veränderung (%): 16.6; Szenario: C: Konsumsteuer" role="graphics-symbol" aria-roledescription="point" transform="translate(252,286.8)" d="M3.873,0A3.873,3.873,0,1,1,-3.873,0A3.873,3.873,0,1,1,3.873,0" fill="#06b6d4" stroke-width="2" stroke-dasharray="2,1" opacity="1"/><path aria-label="Einkommensdezil: 5; Relative Veränderung (%): 10.2; Szenario: C: Konsumsteuer" role="graphics-symbol" aria-roledescription="point" transform="translate(324,299.6)" d="M3.873,0A3.873,3.873,0,1,1,-3.873,0A3.873,3.873,0,1,1,3.873,0" fill="#06b6d4" stroke-width="2" stroke-dasharray="2,1" opacity="1"/><path aria-label="Einkommensdezil: 6; Relative Veränderung (%): 5.9; Szenario: C: Konsumsteuer" role="graphics-symbol" aria-roledescription="point" transform="translate(396,308.2)" d="M3.873,0A3.873,3.873,0,1,1,-3.873,0A3.873,3.873,0,1,1,3.873,0" fill="#06b6d4" stroke-width="2" stroke-dasharray="2,1" opacity="1"/><path aria-label="Einkommensdezil: 7; Relative Veränderung (%): 3.3; Szenario: C: Konsumsteuer" role="graphics-symbol" aria-roledescription="point" transform="translate(468,313.4)" d="M3.873,0A3.873,3.873,0,1,1,-3.873,0A3.873,3.873,0,1,1,3.873,0" fill="#06b6d4" stroke-width="2" stroke-dasharray="2,1" opacity="1"/><path aria-label="Einkommensdezil: 8; Relative Veränderung (%): 0.2; Szenario: C: Konsumsteuer" role="graphics-symbol" aria-roledescription="point" transform="translate(540,319.59999999999997)" d="M3.873,0A3.873,3.873,0,1,1,-3.873,0A3.873,3.873,0,1,1,3.873,0" fill="#06b6d4" stroke-width="2" stroke-dasharray="2,1" opacity="1"/><path aria-label="Einkommensdezil: 9; Relative Veränderung (%): −2.9; Szenario: C: Konsumsteuer" role="graphics-symbol" aria-roledescription="point" transform="translate(612,325.8)" d="M3.873,0A3.873,3.873,0,1,1,-3.873,0A3.873,3.873,0,1,1,3.873,0" fill="#06b6d4" stroke-width="2" stroke-dasharray="2,1" opacity="1"/><path aria-label="Einkommensdezil: 10; Relative Veränderung (%): −12.5; Szenario: C: Konsumsteuer" role="graphics-symbol" aria-roledescription="point" transform="translate(684,345)" d="M3.873,0A3.873,3.873,0,1,1,-3.873,0A3.873,3.873,0,1,1,3.873,0" fill="#06b6d4" stroke-width="2" stroke-dasharray="2,1" opacity="1"/></g><g class="mark-group role-legend" role="graphics-symbol" aria-roledescription="legend" aria-label="Symbol legend titled 'Szenario' for fill color, stroke color and strokeDash with 3 values: A: Einkommensteuer, B: Transferablösung, C: Konsumsteuer"><g transform="translate(0,-47)"><path class="background" aria-hidden="true" d="M0,0h332v29h-332Z" pointer-events="none"/><g><g class="mark-group role-legend-entry"><g transform="translate(0,16)"><path class="background" aria-hidden="true" d="M0,0h0v0h0Z" pointer-events="none"/><g><g class="mark-group role-scope" role="graphics-object" aria-roledescription="group mark container"><g transform="translate(0,0.25)"><path class="background" aria-hidden="true" d="M0,0h109.22000885009766v12.5h-109.22000885009766Z" pointer-events="none" opacity="1"/><g><g class="mark-symbol role-legend-symbol" pointer-events="none"><path transform="translate(6,6)" d="M5,0A5,5,0,1,1,-5,0A5,5,0,1,1,5,0" fill="#a855f7" stroke="#a855f7" stroke-width="1.5" stroke-dasharray="1,0" opacity="1"/></g><g class="mark-text role-legend-label" pointer-events="none"><text text-anchor="start" transform="translate(16,9)" font-family="Switzer, system-ui, sans-serif" font-size="10px" fill="#000" opacity="1">A: Einkommensteuer</text></g></g><path class="foreground" aria-hidden="true" d="" pointer-events="none" display="none"/></g><g transform="translate(121,0.25)"><path class="background" aria-hidden="true" d="M0,0h106.12000274658203v12.5h-106.12000274658203Z" pointer-events="none" opacity="1"/><g><g class="mark-symbol role-legend-symbol" pointer-events="none"><path transform="translate(6,6)" d="M5,0A5,5,0,1,1,-5,0A5,5,0,1,1,5,0" fill="#3b82f6" stroke="#3b82f6" stroke-width="1.5" stroke-dasharray="4,2" opacity="1"/></g><g class="mark-text role-legend-label" pointer-events="none"><text text-anchor="start" transform="translate(16,9)" font-family="Switzer, system-ui, sans-serif" font-size="10px" fill="#000" opacity="1">B: Transferablösung</text></g></g><path class="foreground" aria-hidden="true" d="" pointer-events="none" display="none"/></g><g transform="translate(239,0.25)"><path class="background" aria-hidden="true" d="M0,0h92.8800048828125v12.5h-92.8800048828125Z" pointer-events="none" opacity="1"/><g><g class="mark-symbol role-legend-symbol" pointer-events="none"><path transform="translate(6,6)" d="M5,0A5,5,0,1,1,-5,0A5,5,0,1,1,5,0" fill="#06b6d4" stroke="#06b6d4" stroke-width="1.5" stroke-dasharray="2,1" opacity="1"/></g><g class="mark-text role-legend-label" pointer-events="none"><text text-anchor="start" transform="translate(16,9)" font-family="Switzer, system-ui, sans-serif" font-size="10px" fill="#000" opacity="1">C: Konsumsteuer</text></g></g><path class="foreground" aria-hidden="true" d="" pointer-events="none" display="none"/></g></g></g><path class="foreground" aria-hidden="true" d="" pointer-events="none" display="none"/></g></g><g class="mark-text role-legend-title" pointer-events="none"><text text-anchor="start" transform="translate(0,9)" font-family="Switzer, system-ui, sans-serif" font-size="11px" font-weight="bold" fill="#000" opacity="1">Szenario</text></g></g><path class="foreground" aria-hidden="true" d="" pointer-events="none" display="none"/></g></g><g class="mark-group role-title"><g transform="translate(360,-64)"><path class="background" aria-hidden="true" d="M0,0h0v0h0Z" pointer-events="none"/><g><g class="mark-text role-title-text" role="graphics-symbol" aria-roledescription="title" aria-label="Title text 'Relative Einkommensveränderung nach Dezil und Szenario'" pointer-events="none"><text text-anchor="middle" transform="translate(0,10)" font-family="Switzer, system-ui, sans-serif" font-size="13px" font-weight="bold" fill="#000" opacity="1">Relative Einkommensveränderung nach Dezil und Szenario</text></g></g><path class="foreground" aria-hidden="true" d="" pointer-events="none" display="none"/></g></g></g><path class="foreground" aria-hidden="true" d="" display="none"/></g></g></g></svg>