<svg xmlns="http://www.w3.org/2000/svg" xmlns:xlink="http://www.w3.org/1999/xlink" version="1.1" class="marks" width="772" height="433" viewBox="0 0 772 433"><rect width="772" height="433" fill="white"/><g fill="none" stroke-miterlimit="10" transform="translate(47,27)"><g class="mark-group role-frame root" role="graphics-object" aria-roledescription="group mark container"><g transform="translate(0,0)"><path class="background" aria-hidden="true" d="M0.5,0.5h720v300h-720Z"/><g><g class="mark-group role-axis" aria-hidden="true"><g transform="translate(0.5,0.5)"><path class="background" aria-hidden="true" d="M0,0h0v0h0Z" pointer-events="none"/><g><g class="mark-rule role-axis-grid" pointer-events="none"><line transform="translate(0,300)" x2="720" y2="0" stroke="#ddd" stroke-width="1" opacity="1"/><line transform="translate(0,257)" x2="720" y2="0" stroke="#ddd" stroke-width="1" opacity="1"/><line transform="translate(0,214)" x2="720" y2="0" stroke="#ddd" stroke-width="1" opacity="1"/><line transform="translate(0,171)" x2="720" y2="0" stroke="#ddd" stroke-width="1" opacity="1"/><line transform="translate(0,129)" x2="720" y2="0" stroke="#ddd" stroke-width="1" opacity="1"/><line transform="translate(0,86)" x2="720" y2="0" stroke="#ddd" stroke-width="1" opacity="1"/><line transform="translate(0,43)" x2="720" y2="0" stroke="#ddd" stroke-width="1" opacity="1"/><line transform="translate(0,0)" x2="720" y2="0" stroke="#ddd" stroke-width="1" opacity="1"/></g></g><path class="foreground" aria-hidden="true" d="" pointer-events="none" display="none"/></g></g><g class="mark-group role-axis" role="graphics-symbol" aria-roledescription="axis" aria-label="X-axis for a discrete scale with 4 values: Status quo, A: Einkommensteuer, B: Transferablösung, C: Konsumsteuer"><g transform="translate(0.5,300.5)"><path class="background" aria-hidden="true" d="M0,0h0v0h0Z" pointer-events="none"/><g><g class="mark-rule role-axis-tick" pointer-events="none"><line transform="translate(90,0)" x2="0" y2="5" stroke="#888" stroke-width="1" opacity="1"/><line transform="translate(270,0)" x2="0" y2="5" stroke="#888" stroke-width="1" opacity="1"/><line transform="translate(450,0)" x2="0" y2="5" stroke="#888" stroke-width="1" opacity="1"/><line transform="translate(630,0)" x2="0" y2="5" stroke="#888" stroke-width="1" opacity="1"/></g><g class="mark-text role-axis-label" pointer-events="none"><text text-anchor="end" transform="translate(89.5,7) rotate(270) translate(0,3)" font-family="Switzer, system-ui, sans-serif" font-size="10px" fill="#000" opacity="1">Status quo</text><text text-anchor="end" transform="translate(269.5,7) rotate(270) translate(0,3)" font-family="Switzer, system-ui, sans-serif" font-size="10px" fill="#000" opacity="1">A: Einkommensteuer</text><text text-anchor="end" transform="translate(449.5,7) rotate(270) translate(0,3)" font-family="Switzer, system-ui, sans-serif" font-size="10px" fill="#000" opacity="1">B: Transferablösung</text><text text-anchor="end" transform="translate(629.5,7) rotate(270) translate(0,3)" font-family="Switzer, system-ui, sans-serif" font-size="10px" fill="#000" opacity="1">C: Konsumsteuer</text></g><g class="mark-rule role-axis-domain" pointer-events="none"><line transform="translate(0,0)" x2="720" y2="0" stroke="#888" stroke-width="1" opacity="1"/></g></g><path class="foreground" aria-hidden="true" d="" pointer-events="none" display="none"/></g></g><g class="mark-group role-axis" role="graphics-symbol" aria-roledescription="axis" aria-label="Y-axis titled 'Gini-Koeffizient' for a linear scale with values from 0.00 to 0.35"><g transform="translate(0.5,0.5)"><path class="background" aria-hidden="true" d="M0,0h0v0h0Z" pointer-events="none"/><g><g class="mark-rule role-axis-tick" pointer-events="none"><line transform="translate(0,300)" x2="-5" y2="0" stroke="#888" stroke-width="1" opacity="1"/><line transform="translate(0,257)" x2="-5" y2="0" stroke="#888" stroke-width="1" opacity="1"/><line transform="translate(0,214)" x2="-5" y2="0" stroke="#888" stroke-width="1" opacity="1"/><line transform="translate(0,171)" x2="-5" y2="0" stroke="#888" stroke-width="1" opacity="1"/><line transform="translate(0,129)" x2="-5" y2="0" stroke="#888" stroke-width="1" opacity="1"/><line transform="translate(0,86)" x2="-5" y2="0" stroke="#888" stroke-width="1" opacity="1"/><line transform="translate(0,43)" x2="-5" y2="0" stroke="#888" stroke-width="1" opacity="1"/><line transform="translate(0,0)" x2="-5" y2="0" stroke="#888" stroke-width="1" opacity="1"/></g><g class="mark-text role-axis-label" pointer-events="none"><text text-anchor="end" transform="translate(-7,303)" font-family="Switzer, system-ui, sans-serif" font-size="10px" fill="#000" opacity="1">0.00</text><text text-anchor="end" transform="translate(-7,260.1428571428571)" font-family="Switzer, system-ui, sans-serif" font-size="10px" fill="#000" opacity="1">0.05</text><text text-anchor="end" transform="translate(-7,217.28571428571425)" font-family="Switzer, system-ui, sans-serif" font-size="10px" fill="#000" opacity="1">0.10</text><text text-anchor="end" transform="translate(-7,174.42857142857142)" font-family="Switzer, system-ui, sans-serif" font-size="10px" fill="#000" opacity="1">0.15</text><text text-anchor="end" transform="translate(-7,131.57142857142856)" font-family="Switzer, system-ui, sans-serif" font-size="10px" fill="#000" opacity="1">0.20</text><text text-anchor="end" transform="translate(-7,88.71428571428571)" font-family="Switzer, system-ui, sans-serif" font-size="10px" fill="#000" opacity="1">0.25</text><text text-anchor="end" transform="translate(-7,45.85714285714284)" font-family="Switzer, system-ui, sans-serif" font-size="10px" fill="#000" opacity="1">0.30</text><text text-anchor="end" transform="translate(-7,3)" font-family="Switzer, system-ui, sans-serif" font-size="10px" fill="#000" opacity="1">0.35</text></g><g class="mark-rule role-axis-domain" pointer-events="none"><line transform="translate(0,300)" x2="0" y2="-300" stroke="#888" stroke-width="1" opacity="1"/></g><g class="mark-text role-axis-title" pointer-events="none"><text text-anchor="middle" transform="translate(-30.55999755859375,150) rotate(-90) translate(0,-2)" font-family="Switzer, system-ui, sans-serif" font-size="11px" font-weight="bold" fill="#000" opacity="1">Gini-Koeffizient</text></g></g><path class="foreground" aria-hidden="true" d="" pointer-events="none" display="none"/></g></g><g class="mark-group role-scope" role="graphics-object" aria-roledescription="group mark container"><g transform="translate(9,56.65714285714285)"><path class="background" aria-hidden="true" d="M4,0L158,0C160.207660097976,0,162,1.792339902024,162,4L162,243.34285714285716C162,243.34285714285716,162,243.34285714285716,162,243.34285714285716L0,243.34285714285716C0,243.34285714285716,0,243.34285714285716,0,243.34285714285716L0,4C0,1.792339902024,1.792339902024,0,4,0Z"/><g clip-path="url(#clip41)"><g class="mark-group role-scope" role="graphics-object" aria-roledescription="group mark container"><g transform="translate(0,-56.65714285714285)"><path class="background" aria-hidden="true" d="M0,0h162v0h-162Z"/><g><g class="mark-rect role-mark marks" role="graphics-object" aria-roledescription="rect mark container"><path aria-label="Szenario: Status quo; Gini-Koeffizient: 0.2839" role="graphics-symbol" aria-roledescription="bar" d="M0,56.65714285714285h162v243.34285714285716h-162Z" fill="#6b7280"/></g></g><path class="foreground" aria-hidden="true" d="" display="none"/></g></g></g><path class="foreground" aria-hidden="true" d="" display="none"/></g><g transform="translate(189,178.37142857142857)"><path class="background" aria-hidden="true" d="M4,0L158,0C160.207660097976,0,162,1.792339902024,162,4L162,121.62857142857143C162,121.62857142857143,162,121.62857142857143,162,121.62857142857143L0,121.62857142857143C0,121.62857142857143,0,121.62857142857143,0,121.62857142857143L0,4C0,1.792339902024,1.792339902024,0,4,0Z"/><g clip-path="url(#clip42)"><g class="mark-group role-scope" role="graphics-object" aria-roledescription="group mark container"><g transform="translate(0,-178.37142857142857)"><path class="background" aria-hidden="true" d="M0,0h162v0h-162Z"/><g><g class="mark-rect role-mark marks" role="graphics-object" aria-roledescription="rect mark container"><path aria-label="Szenario: A: Einkommensteuer; Gini-Koeffizient: 0.1419" role="graphics-symbol" aria-roledescription="bar" d="M0,178.37142857142857h162v121.62857142857143h-162Z" fill="#a855f7"/></g></g><path class="foreground" aria-hidden="true" d="" display="none"/></g></g></g><path class="foreground" aria-hidden="true" d="" display="none"/></g><g transform="translate(369,82.79999999999997)"><path class="background" aria-hidden="true" d="M4,0L158,0C160.207660097976,0,162,1.792339902024,162,4L162,217.20000000000005C162,217.20000000000005,162,217.20000000000005,162,217.20000000000005L0,217.20000000000005C0,217.20000000000005,0,217.20000000000005,0,217.20000000000005L0,4C0,1.792339902024,1.792339902024,0,4,0Z"/><g clip-path="url(#clip43)"><g class="mark-group role-scope" role="graphics-object" aria-roledescription="group mark container"><g transform="translate(0,-82.79999999999997)"><path class="background" aria-hidden="true" d="M0,0h162v0h-162Z"/><g><g class="mark-rect role-mark marks" role="graphics-object" aria-roledescription="rect mark container"><path aria-label="Szenario: B: Transferablösung; Gini-Koeffizient: 0.2534" role="graphics-symbol" aria-roledescription="bar" d="M0,82.79999999999997h162v217.20000000000005h-162Z" fill="#3b82f6"/></g></g><path class="foreground" aria-hidden="true" d="" display="none"/></g></g></g><path class="foreground" aria-hidden="true" d="" display="none"/></g><g transform="translate(549,142.79999999999998)"><path class="background" aria-hidden="true" d="M4,0L158,0C160.207660097976,0,162,1.792339902024,162,4L162,157.20000000000002C162,157.20000000000002,162,157.20000000000002,162,157.20000000000002L0,157.20000000000002C0,157.20000000000002,0,157.20000000000002,0,157.20000000000002L0,4C0,1.792339902024,1.792339902024,0,4,0Z"/><g clip-path="url(#clip44)"><g class="mark-group role-scope" role="graphics-object" aria-roledescription="group mark container"><g transform="translate(0,-142.79999999999998)"><path class="background" aria-hidden="true" d="M0,0h162v0h-162Z"/><g><g class="mark-rect role-mark marks" role="graphics-object" aria-roledescription="rect mark container"><path aria-label="Szenario: C: Konsumsteuer; Gini-Koeffizient: 0.1834" role="graphics-symbol" aria-roledescription="bar" d="M0,142.79999999999998h162v157.20000000000002h-162Z" fill="#06b6d4"/></g></g><path class="foreground" aria-hidden="true" d="" display="none"/></g></g></g><path class="foreground" aria-hidden="true" d="" display="none"/></g></g><g class="mark-group role-title"><g transform="translate(360,-22)"><path class="background" aria-hidden="true" d="M0,0h0v0h0Z" pointer-events="none"/><g><g class="mark-text role-title-text" role="graphics-symbol" aria-roledescription="title" aria-label="Title text 'Gini-Koeffizient nach Finanzierungsszenario'" pointer-events="none"><text text-anchor="middle" transform="translate(0,10)" font-family="Switzer, system-ui, sans-serif" font-size="13px" font-weight="bold" fill="#000" opacity="1">Gini-Koeffizient nach Finanzierungsszenario</text></g></g><path class="foreground" aria-hidden="true" d="" pointer-events="none" display="none"/></g></g></g><path class="foreground" aria-hidden="true" d="" display="none"/></g></g></g><defs><clipPath id="clip41"><path d="M4,0L158,0C160.207660097976,0,162,1.792339902024,162,4L162,243.34285714285716C162,243.34285714285716,162,243.34285714285716,162,243.34285714285716L0,243.34285714285716C0,243.34285714285716,0,243.34285714285716,0,243.34285714285716L0,4C0,1.792339902024,1.792339902024,0,4,0Z"/></clipPath><clipPath id="clip42"><path d="M4,0L158,0C160.207660097976,0,162,1.792339902024,162,4L162,121.62857142857143C162,121.62857142857143,162,121.62857142857143,162,121.62857142857143L0,121.62857142857143C0,121.62857142857143,0,121.62857142857143,0,121.62857142857143L0,4C0,1.792339902024,1.792339902024,0,4,0Z"/></clipPath><clipPath id="clip43"><path d="M4,0L158,0C160.207660097976,0,162,1.792339902024,162,4L162,217.20000000000005C162,217.20000000000005,162,217.20000000000005,162,217.20000000000005L0,217.20000000000005C0,217.20000000000005,0,217.20000000000005,0,217.20000000000005L0,4C0,1.792339902024,1.792339902024,0,4,0Z"/></clipPath><clipPath id="clip44"><path d="M4,0L158,0C160.207660097976,0,162,1.792339902024,162,4L162,157.20000000000002C162,157.20000000000002,162,157.20000000000002,162,157.20000000000002L0,157.20000000000002C0,157.20000000000002,0,157.20000000000002,0,157.20000000000002L0,4C0,1.792339902024,1.792339902024,0,4,0Z"/></clipPath></defs></svg>