<svg xmlns="http://www.w3.org/2000/svg" xmlns:xlink="http://www.w3.org/1999/xlink" version="1.1" class="marks" width="764" height="466" viewBox="0 0 764 466"><rect width="764" height="466" fill="white"/><g fill="none" stroke-miterlimit="10" transform="translate(39,27)"><g class="mark-group role-frame root" role="graphics-object" aria-roledescription="group mark container"><g transform="translate(0,0)"><path class="background" aria-hidden="true" d="M0.5,0.5h720v400h-720Z"/><g><g class="mark-group role-axis" aria-hidden="true"><g transform="translate(0.5,0.5)"><path class="background" aria-hidden="true" d="M0,0h0v0h0Z" pointer-events="none"/><g><g class="mark-rule role-axis-grid" pointer-events="none"><line transform="translate(0,400)" x2="720" y2="0" stroke="#ddd" stroke-width="1" opacity="1"/><line transform="translate(0,367)" x2="720" y2="0" stroke="#ddd" stroke-width="1" opacity="1"/><line transform="translate(0,333)" x2="720" y2="0" stroke="#ddd" stroke-width="1" opacity="1"/><line transform="translate(0,300)" x2="720" y2="0" stroke="#ddd" stroke-width="1" opacity="1"/><line transform="translate(0,267)" x2="720" y2="0" stroke="#ddd" stroke-width="1" opacity="1"/><line transform="translate(0,233)" x2="720" y2="0" stroke="#ddd" stroke-width="1" opacity="1"/><line transform="translate(0,200)" x2="720" y2="0" stroke="#ddd" stroke-width="1" opacity="1"/><line transform="translate(0,167)" x2="720" y2="0" stroke="#ddd" stroke-width="1" opacity="1"/><line transform="translate(0,133)" x2="720" y2="0" stroke="#ddd" stroke-width="1" opacity="1"/><line transform="translate(0,100)" x2="720" y2="0" stroke="#ddd" stroke-width="1" opacity="1"/><line transform="translate(0,67)" x2="720" y2="0" stroke="#ddd" stroke-width="1" opacity="1"/><line transform="translate(0,33)" x2="720" y2="0" stroke="#ddd" stroke-width="1" opacity="1"/><line transform="translate(0,0)" x2="720" y2="0" stroke="#ddd" stroke-width="1" opacity="1"/></g></g><path class="foreground" aria-hidden="true" d="" pointer-events="none" display="none"/></g></g><g class="mark-group role-axis" role="graphics-symbol" aria-roledescription="axis" aria-label="X-axis titled 'Einkommensdezil' for a discrete scale with 10 values: 1, 2, 3, 4, 5, ending with 10"><g transform="translate(0.5,400.5)"><path class="background" aria-hidden="true" d="M0,0h0v0h0Z" pointer-events="none"/><g><g class="mark-rule role-axis-tick" pointer-events="none"><line transform="translate(35,0)" x2="0" y2="5" stroke="#888" stroke-width="1" opacity="1"/><line transform="translate(107,0)" x2="0" y2="5" stroke="#888" stroke-width="1" opacity="1"/><line transform="translate(179,0)" x2="0" y2="5" stroke="#888" stroke-width="1" opacity="1"/><line transform="translate(251,0)" x2="0" y2="5" stroke="#888" stroke-width="1" opacity="1"/><line transform="translate(323,0)" x2="0" y2="5" stroke="#888" stroke-width="1" opacity="1"/><line transform="translate(395,0)" x2="0" y2="5" stroke="#888" stroke-width="1" opacity="1"/><line transform="translate(467,0)" x2="0" y2="5" stroke="#888" stroke-width="1" opacity="1"/><line transform="translate(540,0)" x2="0" y2="5" stroke="#888" stroke-width="1" opacity="1"/><line transform="translate(611,0)" x2="0" y2="5" stroke="#888" stroke-width="1" opacity="1"/><line transform="translate(683,0)" x2="0" y2="5" stroke="#888" stroke-width="1" opacity="1"/></g><g class="mark-text role-axis-label" pointer-events="none"><text text-anchor="end" transform="translate(35.499999999999964,7) rotate(270) translate(0,3)" font-family="Switzer, system-ui, sans-serif" font-size="10px" fill="#000" opacity="1">1</text><text text-anchor="end" transform="translate(107.49999999999997,7) rotate(270) translate(0,3)" font-family="Switzer, system-ui, sans-serif" font-size="10px" fill="#000" opacity="1">2</text><text text-anchor="end" transform="translate(179.49999999999997,7) rotate(270) translate(0,3)" font-family="Switzer, system-ui, sans-serif" font-size="10px" fill="#000" opacity="1">3</text><text text-anchor="end" transform="translate(251.49999999999997,7) rotate(270) translate(0,3)" font-family="Switzer, system-ui, sans-serif" font-size="10px" fill="#000" opacity="1">4</text><text text-anchor="end" transform="translate(323.49999999999994,7) rotate(270) translate(0,3)" font-family="Switzer, system-ui, sans-serif" font-size="10px" fill="#000" opacity="1">5</text><text text-anchor="end" transform="translate(395.49999999999994,7) rotate(270) translate(0,3)" font-family="Switzer, system-ui, sans-serif" font-size="10px" fill="#000" opacity="1">6</text><text text-anchor="end" transform="translate(467.49999999999994,7) rotate(270) translate(0,3)" font-family="Switzer, system-ui, sans-serif" font-size="10px" fill="#000" opacity="1">7</text><text text-anchor="end" transform="translate(539.5,7) rotate(270) translate(0,3)" font-family="Switzer, system-ui, sans-serif" font-size="10px" fill="#000" opacity="1">8</text><text text-anchor="end" transform="translate(611.4999999999999,7) rotate(270) translate(0,3)" font-family="Switzer, system-ui, sans-serif" font-size="10px" fill="#000" opacity="1">9</text><text text-anchor="end" transform="translate(683.4999999999999,7) rotate(270) translate(0,3)" font-family="Switzer, system-ui, sans-serif" font-size="10px" fill="#000" opacity="1">10</text></g><g class="mark-rule role-axis-domain" pointer-events="none"><line transform="translate(0,0)" x2="720" y2="0" stroke="#888" stroke-width="1" opacity="1"/></g><g class="mark-text role-axis-title" pointer-events="none"><text text-anchor="middle" transform="translate(360,31.520000457763672)" font-family="Switzer, system-ui, sans-serif" font-size="11px" font-weight="bold" fill="#000" opacity="1">Einkommensdezil</text></g></g><path class="foreground" aria-hidden="true" d="" pointer-events="none" display="none"/></g></g><g class="mark-group role-axis" role="graphics-symbol" aria-roledescription="axis" aria-label="Y-axis titled 'Anteil am Gesamteinkommen (%)' for a linear scale with values from 0 to 24"><g transform="translate(0.5,0.5)"><path class="background" aria-hidden="true" d="M0,0h0v0h0Z" pointer-events="none"/><g><g class="mark-rule role-axis-tick" pointer-events="none"><line transform="translate(0,400)" x2="-5" y2="0" stroke="#888" stroke-width="1" opacity="1"/><line transform="translate(0,367)" x2="-5" y2="0" stroke="#888" stroke-width="1" opacity="1"/><line transform="translate(0,333)" x2="-5" y2="0" stroke="#888" stroke-width="1" opacity="1"/><line transform="translate(0,300)" x2="-5" y2="0" stroke="#888" stroke-width="1" opacity="1"/><line transform="translate(0,267)" x2="-5" y2="0" stroke="#888" stroke-width="1" opacity="1"/><line transform="translate(0,233)" x2="-5" y2="0" stroke="#888" stroke-width="1" opacity="1"/><line transform="translate(0,200)" x2="-5" y2="0" stroke="#888" stroke-width="1" opacity="1"/><line transform="translate(0,167)" x2="-5" y2="0" stroke="#888" stroke-width="1" opacity="1"/><line transform="translate(0,133)" x2="-5" y2="0" stroke="#888" stroke-width="1" opacity="1"/><line transform="translate(0,100)" x2="-5" y2="0" stroke="#888" stroke-width="1" opacity="1"/><line transform="translate(0,67)" x2="-5" y2="0" stroke="#888" stroke-width="1" opacity="1"/><line transform="translate(0,33)" x2="-5" y2="0" stroke="#888" stroke-width="1" opacity="1"/><line transform="translate(0,0)" x2="-5" y2="0" stroke="#888" stroke-width="1" opacity="1"/></g><g class="mark-text role-axis-label" pointer-events="none"><text text-anchor="end" transform="translate(-7,403)" font-family="Switzer, system-ui, sans-serif" font-size="10px" fill="#000" opacity="1">0</text><text text-anchor="end" transform="translate(-7,369.66666666666663)" font-family="Switzer, system-ui, sans-serif" font-size="10px" fill="#000" opacity="1">2</text><text text-anchor="end" transform="translate(-7,336.33333333333337)" font-family="Switzer, system-ui, sans-serif" font-size="10px" fill="#000" opacity="1">4</text><text text-anchor="end" transform="translate(-7,303)" font-family="Switzer, system-ui, sans-serif" font-size="10px" fill="#000" opacity="1">6</text><text text-anchor="end" transform="translate(-7,269.6666666666667)" font-family="Switzer, system-ui, sans-serif" font-size="10px" fill="#000" opacity="1">8</text><text text-anchor="end" transform="translate(-7,236.33333333333331)" font-family="Switzer, system-ui, sans-serif" font-size="10px" fill="#000" opacity="1">10</text><text text-anchor="end" transform="translate(-7,203)" font-family="Switzer, system-ui, sans-serif" font-size="10px" fill="#000" opacity="1">12</text><text text-anchor="end" transform="translate(-7,169.66666666666666)" font-family="Switzer, system-ui, sans-serif" font-size="10px" fill="#000" opacity="1">14</text><text text-anchor="end" transform="translate(-7,136.33333333333334)" font-family="Switzer, system-ui, sans-serif" font-size="10px" fill="#000" opacity="1">16</text><text text-anchor="end" transform="translate(-7,103)" font-family="Switzer, system-ui, sans-serif" font-size="10px" fill="#000" opacity="1">18</text><text text-anchor="end" transform="translate(-7,69.66666666666666)" font-family="Switzer, system-ui, sans-serif" font-size="10px" fill="#000" opacity="1">20</text><text text-anchor="end" transform="translate(-7,36.33333333333335)" font-family="Switzer, system-ui, sans-serif" font-size="10px" fill="#000" opacity="1">22</text><text text-anchor="end" transform="translate(-7,3)" font-family="Switzer, system-ui, sans-serif" font-size="10px" fill="#000" opacity="1">24</text></g><g class="mark-rule role-axis-domain" pointer-events="none"><line transform="translate(0,400)" x2="0" y2="-400" stroke="#888" stroke-width="1" opacity="1"/></g><g class="mark-text role-axis-title" pointer-events="none"><text text-anchor="middle" transform="translate(-22.520000457763672,200) rotate(-90) translate(0,-2)" font-family="Switzer, system-ui, sans-serif" font-size="11px" font-weight="bold" fill="#000" opacity="1">Anteil am Gesamteinkommen (%)</text></g></g><path class="foreground" aria-hidden="true" d="" pointer-events="none" display="none"/></g></g><g class="mark-group role-scope" role="graphics-object" aria-roledescription="group mark container"><g transform="translate(3.599999999999966,355.1666666666667)"><path class="background" aria-hidden="true" d="M4,0L60.8,0C63.007660097976,0,64.8,1.792339902024,64.8,4L64.8,44.833333333333314C64.8,44.833333333333314,64.8,44.833333333333314,64.8,44.833333333333314L0,44.833333333333314C0,44.833333333333314,0,44.833333333333314,0,44.833333333333314L0,4C0,1.792339902024,1.792339902024,0,4,0Z"/><g clip-path="url(#clip1)"><g class="mark-group role-scope" role="graphics-object" aria-roledescription="group mark container"><g transform="translate(0,-355.1666666666667)"><path class="background" aria-hidden="true" d="M0,0h64.8v0h-64.8Z"/><g><g class="mark-rect role-mark marks" role="graphics-object" aria-roledescription="rect mark container"><path aria-label="Einkommensdezil: 1; Anteil am Gesamteinkommen (%): 2.69" role="graphics-symbol" aria-roledescription="bar" d="M0,355.1666666666667h64.8v44.833333333333314h-64.8Z" fill="#a855f7"/></g></g><path class="foreground" aria-hidden="true" d="" display="none"/></g></g></g><path class="foreground" aria-hidden="true" d="" display="none"/></g><g transform="translate(75.59999999999997,312.33333333333337)"><path class="background" aria-hidden="true" d="M4,0L60.8,0C63.007660097976,0,64.8,1.792339902024,64.8,4L64.8,87.66666666666663C64.8,87.66666666666663,64.8,87.66666666666663,64.8,87.66666666666663L0,87.66666666666663C0,87.66666666666663,0,87.66666666666663,0,87.66666666666663L0,4C0,1.792339902024,1.792339902024,0,4,0Z"/><g clip-path="url(#clip2)"><g class="mark-group role-scope" role="graphics-object" aria-roledescription="group mark container"><g transform="translate(0,-312.33333333333337)"><path class="background" aria-hidden="true" d="M0,0h64.8v0h-64.8Z"/><g><g class="mark-rect role-mark marks" role="graphics-object" aria-roledescription="rect mark container"><path aria-label="Einkommensdezil: 2; Anteil am Gesamteinkommen (%): 5.26" role="graphics-symbol" aria-roledescription="bar" d="M0,312.33333333333337h64.8v87.66666666666663h-64.8Z" fill="#a855f7"/></g></g><path class="foreground" aria-hidden="true" d="" display="none"/></g></g></g><path class="foreground" aria-hidden="true" d="" display="none"/></g><g transform="translate(147.59999999999997,292.83333333333337)"><path class="background" aria-hidden="true" d="M4,0L60.8,0C63.007660097976,0,64.8,1.792339902024,64.8,4L64.8,107.16666666666663C64.8,107.16666666666663,64.8,107.16666666666663,64.8,107.16666666666663L0,107.16666666666663C0,107.16666666666663,0,107.16666666666663,0,107.16666666666663L0,4C0,1.792339902024,1.792339902024,0,4,0Z"/><g clip-path="url(#clip3)"><g class="mark-group role-scope" role="graphics-object" aria-roledescription="group mark container"><g transform="translate(0,-292.83333333333337)"><path class="background" aria-hidden="true" d="M0,0h64.8v0h-64.8Z"/><g><g class="mark-rect role-mark marks" role="graphics-object" aria-roledescription="rect mark container"><path aria-label="Einkommensdezil: 3; Anteil am Gesamteinkommen (%): 6.43" role="graphics-symbol" aria-roledescription="bar" d="M0,292.83333333333337h64.8v107.16666666666663h-64.8Z" fill="#a855f7"/></g></g><path class="foreground" aria-hidden="true" d="" display="none"/></g></g></g><path class="foreground" aria-hidden="true" d="" display="none"/></g><g transform="translate(219.59999999999997,277.50000000000006)"><path class="background" aria-hidden="true" d="M4,0L60.8,0C63.007660097976,0,64.8,1.792339902024,64.8,4L64.8,122.49999999999994C64.8,122.49999999999994,64.8,122.49999999999994,64.8,122.49999999999994L0,122.49999999999994C0,122.49999999999994,0,122.49999999999994,0,122.49999999999994L0,4C0,1.792339902024,1.792339902024,0,4,0Z"/><g clip-path="url(#clip4)"><g class="mark-group role-scope" role="graphics-object" aria-roledescription="group mark container"><g transform="translate(0,-277.50000000000006)"><path class="background" aria-hidden="true" d="M0,0h64.8v0h-64.8Z"/><g><g class="mark-rect role-mark marks" role="graphics-object" aria-roledescription="rect mark container"><path aria-label="Einkommensdezil: 4; Anteil am Gesamteinkommen (%): 7.35" role="graphics-symbol" aria-roledescription="bar" d="M0,277.50000000000006h64.8v122.49999999999994h-64.8Z" fill="#a855f7"/></g></g><path class="foreground" aria-hidden="true" d="" display="none"/></g></g></g><path class="foreground" aria-hidden="true" d="" display="none"/></g><g transform="translate(291.59999999999997,258.6666666666667)"><path class="background" aria-hidden="true" d="M4,0L60.8,0C63.007660097976,0,64.8,1.792339902024,64.8,4L64.8,141.33333333333331C64.8,141.33333333333331,64.8,141.33333333333331,64.8,141.33333333333331L0,141.33333333333331C0,141.33333333333331,0,141.33333333333331,0,141.33333333333331L0,4C0,1.792339902024,1.792339902024,0,4,0Z"/><g clip-path="url(#clip5)"><g class="mark-group role-scope" role="graphics-object" aria-roledescription="group mark container"><g transform="translate(0,-258.6666666666667)"><path class="background" aria-hidden="true" d="M0,0h64.8v0h-64.8Z"/><g><g class="mark-rect role-mark marks" role="graphics-object" aria-roledescription="rect mark container"><path aria-label="Einkommensdezil: 5; Anteil am Gesamteinkommen (%): 8.48" role="graphics-symbol" aria-roledescription="bar" d="M0,258.6666666666667h64.8v141.33333333333331h-64.8Z" fill="#a855f7"/></g></g><path class="foreground" aria-hidden="true" d="" display="none"/></g></g></g><path class="foreground" aria-hidden="true" d="" display="none"/></g><g transform="translate(363.59999999999997,239.33333333333334)"><path class="background" aria-hidden="true" d="M4,0L60.8,0C63.007660097976,0,64.8,1.792339902024,64.8,4L64.8,160.66666666666666C64.8,160.66666666666666,64.8,160.66666666666666,64.8,160.66666666666666L0,160.66666666666666C0,160.66666666666666,0,160.66666666666666,0,160.66666666666666L0,4C0,1.792339902024,1.792339902024,0,4,0Z"/><g clip-path="url(#clip6)"><g class="mark-group role-scope" role="graphics-object" aria-roledescription="group mark container"><g transform="translate(0,-239.33333333333334)"><path class="background" aria-hidden="true" d="M0,0h64.8v0h-64.8Z"/><g><g class="mark-rect role-mark marks" role="graphics-object" aria-roledescription="rect mark container"><path aria-label="Einkommensdezil: 6; Anteil am Gesamteinkommen (%): 9.64" role="graphics-symbol" aria-roledescription="bar" d="M0,239.33333333333334h64.8v160.66666666666666h-64.8Z" fill="#a855f7"/></g></g><path class="foreground" aria-hidden="true" d="" display="none"/></g></g></g><path class="foreground" aria-hidden="true" d="" display="none"/></g><g transform="translate(435.59999999999997,220.1666666666667)"><path class="background" aria-hidden="true" d="M4,0L60.8,0C63.007660097976,0,64.8,1.792339902024,64.8,4L64.8,179.8333333333333C64.8,179.8333333333333,64.8,179.8333333333333,64.8,179.8333333333333L0,179.8333333333333C0,179.8333333333333,0,179.8333333333333,0,179.8333333333333L0,4C0,1.792339902024,1.792339902024,0,4,0Z"/><g clip-path="url(#clip7)"><g class="mark-group role-scope" role="graphics-object" aria-roledescription="group mark container"><g transform="translate(0,-220.1666666666667)"><path class="background" aria-hidden="true" d="M0,0h64.8v0h-64.8Z"/><g><g class="mark-rect role-mark marks" role="graphics-object" aria-roledescription="rect mark container"><path aria-label="Einkommensdezil: 7; Anteil am Gesamteinkommen (%): 10.79" role="graphics-symbol" aria-roledescription="bar" d="M0,220.1666666666667h64.8v179.8333333333333h-64.8Z" fill="#a855f7"/></g></g><path class="foreground" aria-hidden="true" d="" display="none"/></g></g></g><path class="foreground" aria-hidden="true" d="" display="none"/></g><g transform="translate(507.59999999999997,193.5)"><path class="background" aria-hidden="true" d="M4,0L60.8,0C63.007660097976,0,64.8,1.792339902024,64.8,4L64.8,206.5C64.8,206.5,64.8,206.5,64.8,206.5L0,206.5C0,206.5,0,206.5,0,206.5L0,4C0,1.792339902024,1.792339902024,0,4,0Z"/><g clip-path="url(#clip8)"><g class="mark-group role-scope" role="graphics-object" aria-roledescription="group mark container"><g transform="translate(0,-193.5)"><path class="background" aria-hidden="true" d="M0,0h64.8v0h-64.8Z"/><g><g class="mark-rect role-mark marks" role="graphics-object" aria-roledescription="rect mark container"><path aria-label="Einkommensdezil: 8; Anteil am Gesamteinkommen (%): 12.39" role="graphics-symbol" aria-roledescription="bar" d="M0,193.5h64.8v206.5h-64.8Z" fill="#a855f7"/></g></g><path class="foreground" aria-hidden="true" d="" display="none"/></g></g></g><path class="foreground" aria-hidden="true" d="" display="none"/></g><g transform="translate(579.5999999999999,157.66666666666666)"><path class="background" aria-hidden="true" d="M4,0L60.8,0C63.007660097976,0,64.8,1.792339902024,64.8,4L64.8,242.33333333333334C64.8,242.33333333333334,64.8,242.33333333333334,64.8,242.33333333333334L0,242.33333333333334C0,242.33333333333334,0,242.33333333333334,0,242.33333333333334L0,4C0,1.792339902024,1.792339902024,0,4,0Z"/><g clip-path="url(#clip9)"><g class="mark-group role-scope" role="graphics-object" aria-roledescription="group mark container"><g transform="translate(0,-157.66666666666666)"><path class="background" aria-hidden="true" d="M0,0h64.8v0h-64.8Z"/><g><g class="mark-rect role-mark marks" role="graphics-object" aria-roledescription="rect mark container"><path aria-label="Einkommensdezil: 9; Anteil am Gesamteinkommen (%): 14.54" role="graphics-symbol" aria-roledescription="bar" d="M0,157.66666666666666h64.8v242.33333333333334h-64.8Z" fill="#a855f7"/></g></g><path class="foreground" aria-hidden="true" d="" display="none"/></g></g></g><path class="foreground" aria-hidden="true" d="" display="none"/></g><g transform="translate(651.5999999999999,26.16666666666667)"><path class="background" aria-hidden="true" d="M4,0L60.8,0C63.007660097976,0,64.8,1.792339902024,64.8,4L64.8,373.8333333333333C64.8,373.8333333333333,64.8,373.8333333333333,64.8,373.8333333333333L0,373.8333333333333C0,373.8333333333333,0,373.8333333333333,0,373.8333333333333L0,4C0,1.792339902024,1.792339902024,0,4,0Z"/><g clip-path="url(#clip10)"><g class="mark-group role-scope" role="graphics-object" aria-roledescription="group mark container"><g transform="translate(0,-26.16666666666667)"><path class="background" aria-hidden="true" d="M0,0h64.8v0h-64.8Z"/><g><g class="mark-rect role-mark marks" role="graphics-object" aria-roledescription="rect mark container"><path aria-label="Einkommensdezil: 10; Anteil am Gesamteinkommen (%): 22.43" role="graphics-symbol" aria-roledescription="bar" d="M0,26.16666666666667h64.8v373.8333333333333h-64.8Z" fill="#a855f7"/></g></g><path class="foreground" aria-hidden="true" d="" display="none"/></g></g></g><path class="foreground" aria-hidden="true" d="" display="none"/></g></g><g class="mark-group role-title"><g transform="translate(360,-22)"><path class="background" aria-hidden="true" d="M0,0h0v0h0Z" pointer-events="none"/><g><g class="mark-text role-title-text" role="graphics-symbol" aria-roledescription="title" aria-label="Title text 'Einkommensanteile nach Dezil — Verfügbares Äquivalenzeinkommen (2018)'" pointer-events="none"><text text-anchor="middle" transform="translate(0,10)" font-family="Switzer, system-ui, sans-serif" font-size="13px" font-weight="bold" fill="#000" opacity="1">Einkommensanteile nach Dezil — Verfügbares Äquivalenzeinkommen (2018)</text></g></g><path class="foreground" aria-hidden="true" d="" pointer-events="none" display="none"/></g></g></g><path class="foreground" aria-hidden="true" d="" display="none"/></g></g></g><defs><clipPath id="clip1"><path d="M4,0L60.8,0C63.007660097976,0,64.8,1.792339902024,64.8,4L64.8,44.833333333333314C64.8,44.833333333333314,64.8,44.833333333333314,64.8,44.833333333333314L0,44.833333333333314C0,44.833333333333314,0,44.833333333333314,0,44.833333333333314L0,4C0,1.792339902024,1.792339902024,0,4,0Z"/></clipPath><clipPath id="clip2"><path d="M4,0L60.8,0C63.007660097976,0,64.8,1.792339902024,64.8,4L64.8,87.66666666666663C64.8,87.66666666666663,64.8,87.66666666666663,64.8,87.66666666666663L0,87.66666666666663C0,87.66666666666663,0,87.66666666666663,0,87.66666666666663L0,4C0,1.792339902024,1.792339902024,0,4,0Z"/></clipPath><clipPath id="clip3"><path d="M4,0L60.8,0C63.007660097976,0,64.8,1.792339902024,64.8,4L64.8,107.16666666666663C64.8,107.16666666666663,64.8,107.16666666666663,64.8,107.16666666666663L0,107.16666666666663C0,107.16666666666663,0,107.16666666666663,0,107.16666666666663L0,4C0,1.792339902024,1.792339902024,0,4,0Z"/></clipPath><clipPath id="clip4"><path d="M4,0L60.8,0C63.007660097976,0,64.8,1.792339902024,64.8,4L64.8,122.49999999999994C64.8,122.49999999999994,64.8,122.49999999999994,64.8,122.49999999999994L0,122.49999999999994C0,122.49999999999994,0,122.49999999999994,0,122.49999999999994L0,4C0,1.792339902024,1.792339902024,0,4,0Z"/></clipPath><clipPath id="clip5"><path d="M4,0L60.8,0C63.007660097976,0,64.8,1.792339902024,64.8,4L64.8,141.33333333333331C64.8,141.33333333333331,64.8,141.33333333333331,64.8,141.33333333333331L0,141.33333333333331C0,141.33333333333331,0,141.33333333333331,0,141.33333333333331L0,4C0,1.792339902024,1.792339902024,0,4,0Z"/></clipPath><clipPath id="clip6"><path d="M4,0L60.8,0C63.007660097976,0,64.8,1.792339902024,64.8,4L64.8,160.66666666666666C64.8,160.66666666666666,64.8,160.66666666666666,64.8,160.66666666666666L0,160.66666666666666C0,160.66666666666666,0,160.66666666666666,0,160.66666666666666L0,4C0,1.792339902024,1.792339902024,0,4,0Z"/></clipPath><clipPath id="clip7"><path d="M4,0L60.8,0C63.007660097976,0,64.8,1.792339902024,64.8,4L64.8,179.8333333333333C64.8,179.8333333333333,64.8,179.8333333333333,64.8,179.8333333333333L0,179.8333333333333C0,179.8333333333333,0,179.8333333333333,0,179.8333333333333L0,4C0,1.792339902024,1.792339902024,0,4,0Z"/></clipPath><clipPath id="clip8"><path d="M4,0L60.8,0C63.007660097976,0,64.8,1.792339902024,64.8,4L64.8,206.5C64.8,206.5,64.8,206.5,64.8,206.5L0,206.5C0,206.5,0,206.5,0,206.5L0,4C0,1.792339902024,1.792339902024,0,4,0Z"/></clipPath><clipPath id="clip9"><path d="M4,0L60.8,0C63.007660097976,0,64.8,1.792339902024,64.8,4L64.8,242.33333333333334C64.8,242.33333333333334,64.8,242.33333333333334,64.8,242.33333333333334L0,242.33333333333334C0,242.33333333333334,0,242.33333333333334,0,242.33333333333334L0,4C0,1.792339902024,1.792339902024,0,4,0Z"/></clipPath><clipPath id="clip10"><path d="M4,0L60.8,0C63.007660097976,0,64.8,1.792339902024,64.8,4L64.8,373.8333333333333C64.8,373.8333333333333,64.8,373.8333333333333,64.8,373.8333333333333L0,373.8333333333333C0,373.8333333333333,0,373.8333333333333,0,373.8333333333333L0,4C0,1.792339902024,1.792339902024,0,4,0Z"/></clipPath></defs></svg>