<svg xmlns="http://www.w3.org/2000/svg" xmlns:xlink="http://www.w3.org/1999/xlink" version="1.1" class="marks" width="818" height="659" viewBox="0 0 818 659"><rect width="818" height="659" fill="white"/><g fill="none" stroke-miterlimit="10" transform="translate(92,22)"><g class="mark-group role-frame root" role="graphics-object" aria-roledescription="group mark container"><g transform="translate(0,0)"><path class="background" aria-hidden="true" d="M0.5,0.5h720v600h-720Z"/><g><g class="mark-group role-axis" aria-hidden="true"><g transform="translate(0.5,600.5)"><path class="background" aria-hidden="true" d="M0,0h0v0h0Z" pointer-events="none"/><g><g class="mark-rule role-axis-grid" pointer-events="none"><line transform="translate(0,0)" x2="0" y2="-600" stroke="#ddd" stroke-width="1" opacity="1"/><line transform="translate(36,0)" x2="0" y2="-600" stroke="#ddd" stroke-width="1" opacity="1"/><line transform="translate(72,0)" x2="0" y2="-600" stroke="#ddd" stroke-width="1" opacity="1"/><line transform="translate(108,0)" x2="0" y2="-600" stroke="#ddd" stroke-width="1" opacity="1"/><line transform="translate(144,0)" x2="0" y2="-600" stroke="#ddd" stroke-width="1" opacity="1"/><line transform="translate(180,0)" x2="0" y2="-600" stroke="#ddd" stroke-width="1" opacity="1"/><line transform="translate(216,0)" x2="0" y2="-600" stroke="#ddd" stroke-width="1" opacity="1"/><line transform="translate(252,0)" x2="0" y2="-600" stroke="#ddd" stroke-width="1" opacity="1"/><line transform="translate(288,0)" x2="0" y2="-600" stroke="#ddd" stroke-width="1" opacity="1"/><line transform="translate(324,0)" x2="0" y2="-600" stroke="#ddd" stroke-width="1" opacity="1"/><line transform="translate(360,0)" x2="0" y2="-600" stroke="#ddd" stroke-width="1" opacity="1"/><line transform="translate(396,0)" x2="0" y2="-600" stroke="#ddd" stroke-width="1" opacity="1"/><line transform="translate(432,0)" x2="0" y2="-600" stroke="#ddd" stroke-width="1" opacity="1"/><line transform="translate(468,0)" x2="0" y2="-600" stroke="#ddd" stroke-width="1" opacity="1"/><line transform="translate(504,0)" x2="0" y2="-600" stroke="#ddd" stroke-width="1" opacity="1"/><line transform="translate(540,0)" x2="0" y2="-600" stroke="#ddd" stroke-width="1" opacity="1"/><line transform="translate(576,0)" x2="0" y2="-600" stroke="#ddd" stroke-width="1" opacity="1"/><line transform="translate(612,0)" x2="0" y2="-600" stroke="#ddd" stroke-width="1" opacity="1"/><line transform="translate(648,0)" x2="0" y2="-600" stroke="#ddd" stroke-width="1" opacity="1"/><line transform="translate(684,0)" x2="0" y2="-600" stroke="#ddd" stroke-width="1" opacity="1"/><line transform="translate(720,0)" x2="0" y2="-600" stroke="#ddd" stroke-width="1" opacity="1"/></g></g><path class="foreground" aria-hidden="true" d="" pointer-events="none" display="none"/></g></g><g class="mark-group role-axis" role="graphics-symbol" aria-roledescription="axis" aria-label="X-axis titled 'CHF/Monat' for a linear scale with values from 0 to 2,000"><g transform="translate(0.5,600.5)"><path class="background" aria-hidden="true" d="M0,0h0v0h0Z" pointer-events="none"/><g><g class="mark-rule role-axis-tick" pointer-events="none"><line transform="translate(0,0)" x2="0" y2="5" stroke="#888" stroke-width="1" opacity="1"/><line transform="translate(36,0)" x2="0" y2="5" stroke="#888" stroke-width="1" opacity="1"/><line transform="translate(72,0)" x2="0" y2="5" stroke="#888" stroke-width="1" opacity="1"/><line transform="translate(108,0)" x2="0" y2="5" stroke="#888" stroke-width="1" opacity="1"/><line transform="translate(144,0)" x2="0" y2="5" stroke="#888" stroke-width="1" opacity="1"/><line transform="translate(180,0)" x2="0" y2="5" stroke="#888" stroke-width="1" opacity="1"/><line transform="translate(216,0)" x2="0" y2="5" stroke="#888" stroke-width="1" opacity="1"/><line transform="translate(252,0)" x2="0" y2="5" stroke="#888" stroke-width="1" opacity="1"/><line transform="translate(288,0)" x2="0" y2="5" stroke="#888" stroke-width="1" opacity="1"/><line transform="translate(324,0)" x2="0" y2="5" stroke="#888" stroke-width="1" opacity="1"/><line transform="translate(360,0)" x2="0" y2="5" stroke="#888" stroke-width="1" opacity="1"/><line transform="translate(396,0)" x2="0" y2="5" stroke="#888" stroke-width="1" opacity="1"/><line transform="translate(432,0)" x2="0" y2="5" stroke="#888" stroke-width="1" opacity="1"/><line transform="translate(468,0)" x2="0" y2="5" stroke="#888" stroke-width="1" opacity="1"/><line transform="translate(504,0)" x2="0" y2="5" stroke="#888" stroke-width="1" opacity="1"/><line transform="translate(540,0)" x2="0" y2="5" stroke="#888" stroke-width="1" opacity="1"/><line transform="translate(576,0)" x2="0" y2="5" stroke="#888" stroke-width="1" opacity="1"/><line transform="translate(612,0)" x2="0" y2="5" stroke="#888" stroke-width="1" opacity="1"/><line transform="translate(648,0)" x2="0" y2="5" stroke="#888" stroke-width="1" opacity="1"/><line transform="translate(684,0)" x2="0" y2="5" stroke="#888" stroke-width="1" opacity="1"/><line transform="translate(720,0)" x2="0" y2="5" stroke="#888" stroke-width="1" opacity="1"/></g><g class="mark-text role-axis-label" pointer-events="none"><text text-anchor="start" transform="translate(0,15)" font-family="Switzer, system-ui, sans-serif" font-size="10px" fill="#000" opacity="1">0</text><text text-anchor="middle" transform="translate(36,15)" font-family="Switzer, system-ui, sans-serif" font-size="10px" fill="#000" opacity="0">100</text><text text-anchor="middle" transform="translate(72,15)" font-family="Switzer, system-ui, sans-serif" font-size="10px" fill="#000" opacity="1">200</text><text text-anchor="middle" transform="translate(108,15)" font-family="Switzer, system-ui, sans-serif" font-size="10px" fill="#000" opacity="0">300</text><text text-anchor="middle" transform="translate(144,15)" font-family="Switzer, system-ui, sans-serif" font-size="10px" fill="#000" opacity="1">400</text><text text-anchor="middle" transform="translate(180,15)" font-family="Switzer, system-ui, sans-serif" font-size="10px" fill="#000" opacity="0">500</text><text text-anchor="middle" transform="translate(216,15)" font-family="Switzer, system-ui, sans-serif" font-size="10px" fill="#000" opacity="1">600</text><text text-anchor="middle" transform="translate(251.99999999999997,15)" font-family="Switzer, system-ui, sans-serif" font-size="10px" fill="#000" opacity="0">700</text><text text-anchor="middle" transform="translate(288,15)" font-family="Switzer, system-ui, sans-serif" font-size="10px" fill="#000" opacity="1">800</text><text text-anchor="middle" transform="translate(324,15)" font-family="Switzer, system-ui, sans-serif" font-size="10px" fill="#000" opacity="0">900</text><text text-anchor="middle" transform="translate(360,15)" font-family="Switzer, system-ui, sans-serif" font-size="10px" fill="#000" opacity="1">1,000</text><text text-anchor="middle" transform="translate(396.00000000000006,15)" font-family="Switzer, system-ui, sans-serif" font-size="10px" fill="#000" opacity="0">1,100</text><text text-anchor="middle" transform="translate(432,15)" font-family="Switzer, system-ui, sans-serif" font-size="10px" fill="#000" opacity="1">1,200</text><text text-anchor="middle" transform="translate(468,15)" font-family="Switzer, system-ui, sans-serif" font-size="10px" fill="#000" opacity="0">1,300</text><text text-anchor="middle" transform="translate(503.99999999999994,15)" font-family="Switzer, system-ui, sans-serif" font-size="10px" fill="#000" opacity="1">1,400</text><text text-anchor="middle" transform="translate(540,15)" font-family="Switzer, system-ui, sans-serif" font-size="10px" fill="#000" opacity="0">1,500</text><text text-anchor="middle" transform="translate(576,15)" font-family="Switzer, system-ui, sans-serif" font-size="10px" fill="#000" opacity="1">1,600</text><text text-anchor="middle" transform="translate(612,15)" font-family="Switzer, system-ui, sans-serif" font-size="10px" fill="#000" opacity="0">1,700</text><text text-anchor="middle" transform="translate(648,15)" font-family="Switzer, system-ui, sans-serif" font-size="10px" fill="#000" opacity="1">1,800</text><text text-anchor="middle" transform="translate(684,15)" font-family="Switzer, system-ui, sans-serif" font-size="10px" fill="#000" opacity="0">1,900</text><text text-anchor="end" transform="translate(720,15)" font-family="Switzer, system-ui, sans-serif" font-size="10px" fill="#000" opacity="1">2,000</text></g><g class="mark-rule role-axis-domain" pointer-events="none"><line transform="translate(0,0)" x2="720" y2="0" stroke="#888" stroke-width="1" opacity="1"/></g><g class="mark-text role-axis-title" pointer-events="none"><text text-anchor="middle" transform="translate(360,30)" font-family="Switzer, system-ui, sans-serif" font-size="11px" font-weight="bold" fill="#000" opacity="1">CHF/Monat</text></g></g><path class="foreground" aria-hidden="true" d="" pointer-events="none" display="none"/></g></g><g class="mark-group role-axis" role="graphics-symbol" aria-roledescription="axis" aria-label="Y-axis for a discrete scale with 27 values: Zug, Zürich, Schwyz, Waadt, Genf, ending with Jura"><g transform="translate(0.5,0.5)"><path class="background" aria-hidden="true" d="M0,0h0v0h0Z" pointer-events="none"/><g><g class="mark-rule role-axis-tick" pointer-events="none"><line transform="translate(0,11)" x2="-5" y2="0" stroke="#888" stroke-width="1" opacity="1"/><line transform="translate(0,33)" x2="-5" y2="0" stroke="#888" stroke-width="1" opacity="1"/><line transform="translate(0,55)" x2="-5" y2="0" stroke="#888" stroke-width="1" opacity="1"/><line transform="translate(0,77)" x2="-5" y2="0" stroke="#888" stroke-width="1" opacity="1"/><line transform="translate(0,100)" x2="-5" y2="0" stroke="#888" stroke-width="1" opacity="1"/><line transform="translate(0,122)" x2="-5" y2="0" stroke="#888" stroke-width="1" opacity="1"/><line transform="translate(0,144)" x2="-5" y2="0" stroke="#888" stroke-width="1" opacity="1"/><line transform="translate(0,166)" x2="-5" y2="0" stroke="#888" stroke-width="1" opacity="1"/><line transform="translate(0,188)" x2="-5" y2="0" stroke="#888" stroke-width="1" opacity="1"/><line transform="translate(0,211)" x2="-5" y2="0" stroke="#888" stroke-width="1" opacity="1"/><line transform="translate(0,233)" x2="-5" y2="0" stroke="#888" stroke-width="1" opacity="1"/><line transform="translate(0,255)" x2="-5" y2="0" stroke="#888" stroke-width="1" opacity="1"/><line transform="translate(0,277)" x2="-5" y2="0" stroke="#888" stroke-width="1" opacity="1"/><line transform="translate(0,300)" x2="-5" y2="0" stroke="#888" stroke-width="1" opacity="1"/><line transform="translate(0,322)" x2="-5" y2="0" stroke="#888" stroke-width="1" opacity="1"/><line transform="translate(0,344)" x2="-5" y2="0" stroke="#888" stroke-width="1" opacity="1"/><line transform="translate(0,366)" x2="-5" y2="0" stroke="#888" stroke-width="1" opacity="1"/><line transform="translate(0,388)" x2="-5" y2="0" stroke="#888" stroke-width="1" opacity="1"/><line transform="translate(0,411)" x2="-5" y2="0" stroke="#888" stroke-width="1" opacity="1"/><line transform="translate(0,433)" x2="-5" y2="0" stroke="#888" stroke-width="1" opacity="1"/><line transform="translate(0,455)" x2="-5" y2="0" stroke="#888" stroke-width="1" opacity="1"/><line transform="translate(0,477)" x2="-5" y2="0" stroke="#888" stroke-width="1" opacity="1"/><line transform="translate(0,500)" x2="-5" y2="0" stroke="#888" stroke-width="1" opacity="1"/><line transform="translate(0,522)" x2="-5" y2="0" stroke="#888" stroke-width="1" opacity="1"/><line transform="translate(0,544)" x2="-5" y2="0" stroke="#888" stroke-width="1" opacity="1"/><line transform="translate(0,566)" x2="-5" y2="0" stroke="#888" stroke-width="1" opacity="1"/><line transform="translate(0,588)" x2="-5" y2="0" stroke="#888" stroke-width="1" opacity="1"/></g><g class="mark-text role-axis-label" pointer-events="none"><text text-anchor="end" transform="translate(-7,13.611111111111143)" font-family="Switzer, system-ui, sans-serif" font-size="10px" fill="#000" opacity="1">Zug</text><text text-anchor="end" transform="translate(-7,35.833333333333364)" font-family="Switzer, system-ui, sans-serif" font-size="10px" fill="#000" opacity="1">Zürich</text><text text-anchor="end" transform="translate(-7,58.055555555555586)" font-family="Switzer, system-ui, sans-serif" font-size="10px" fill="#000" opacity="1">Schwyz</text><text text-anchor="end" transform="translate(-7,80.2777777777778)" font-family="Switzer, system-ui, sans-serif" font-size="10px" fill="#000" opacity="1">Waadt</text><text text-anchor="end" transform="translate(-7,102.50000000000003)" font-family="Switzer, system-ui, sans-serif" font-size="10px" fill="#000" opacity="1">Genf</text><text text-anchor="end" transform="translate(-7,124.72222222222226)" font-family="Switzer, system-ui, sans-serif" font-size="10px" fill="#000" opacity="1">Nidwalden</text><text text-anchor="end" transform="translate(-7,146.94444444444446)" font-family="Switzer, system-ui, sans-serif" font-size="10px" fill="#000" opacity="1">Schweiz</text><text text-anchor="end" transform="translate(-7,169.16666666666669)" font-family="Switzer, system-ui, sans-serif" font-size="10px" fill="#000" opacity="1">Basel-Landschaft</text><text text-anchor="end" transform="translate(-7,191.3888888888889)" font-family="Switzer, system-ui, sans-serif" font-size="10px" fill="#000" opacity="1">Basel-Stadt</text><text text-anchor="end" transform="translate(-7,213.61111111111114)" font-family="Switzer, system-ui, sans-serif" font-size="10px" fill="#000" opacity="1">Aargau</text><text text-anchor="end" transform="translate(-7,235.83333333333337)" font-family="Switzer, system-ui, sans-serif" font-size="10px" fill="#000" opacity="1">Luzern</text><text text-anchor="end" transform="translate(-7,258.05555555555554)" font-family="Switzer, system-ui, sans-serif" font-size="10px" fill="#000" opacity="1">Graubünden</text><text text-anchor="end" transform="translate(-7,280.27777777777777)" font-family="Switzer, system-ui, sans-serif" font-size="10px" fill="#000" opacity="1">Obwalden</text><text text-anchor="end" transform="translate(-7,302.5)" font-family="Switzer, system-ui, sans-serif" font-size="10px" fill="#000" opacity="1">St.Gallen</text><text text-anchor="end" transform="translate(-7,324.72222222222223)" font-family="Switzer, system-ui, sans-serif" font-size="10px" fill="#000" opacity="1">Thurgau</text><text text-anchor="end" transform="translate(-7,346.94444444444446)" font-family="Switzer, system-ui, sans-serif" font-size="10px" fill="#000" opacity="1">Appenzell A.Rh.</text><text text-anchor="end" transform="translate(-7,369.1666666666667)" font-family="Switzer, system-ui, sans-serif" font-size="10px" fill="#000" opacity="1">Freiburg</text><text text-anchor="end" transform="translate(-7,391.3888888888889)" font-family="Switzer, system-ui, sans-serif" font-size="10px" fill="#000" opacity="1">Appenzell I.Rh.</text><text text-anchor="end" transform="translate(-7,413.61111111111114)" font-family="Switzer, system-ui, sans-serif" font-size="10px" fill="#000" opacity="1">Bern</text><text text-anchor="end" transform="translate(-7,435.83333333333337)" font-family="Switzer, system-ui, sans-serif" font-size="10px" fill="#000" opacity="1">Wallis</text><text text-anchor="end" transform="translate(-7,458.0555555555556)" font-family="Switzer, system-ui, sans-serif" font-size="10px" fill="#000" opacity="1">Tessin</text><text text-anchor="end" transform="translate(-7,480.27777777777777)" font-family="Switzer, system-ui, sans-serif" font-size="10px" fill="#000" opacity="1">Schaffhausen</text><text text-anchor="end" transform="translate(-7,502.5)" font-family="Switzer, system-ui, sans-serif" font-size="10px" fill="#000" opacity="1">Solothurn</text><text text-anchor="end" transform="translate(-7,524.7222222222222)" font-family="Switzer, system-ui, sans-serif" font-size="10px" fill="#000" opacity="1">Uri</text><text text-anchor="end" transform="translate(-7,546.9444444444443)" font-family="Switzer, system-ui, sans-serif" font-size="10px" fill="#000" opacity="1">Glarus</text><text text-anchor="end" transform="translate(-7,569.1666666666667)" font-family="Switzer, system-ui, sans-serif" font-size="10px" fill="#000" opacity="1">Neuenburg</text><text text-anchor="end" transform="translate(-7,591.3888888888889)" font-family="Switzer, system-ui, sans-serif" font-size="10px" fill="#000" opacity="1">Jura</text></g><g class="mark-rule role-axis-domain" pointer-events="none"><line transform="translate(0,0)" x2="0" y2="600" stroke="#888" stroke-width="1" opacity="1"/></g></g><path class="foreground" aria-hidden="true" d="" pointer-events="none" display="none"/></g></g><g class="mark-group role-scope" role="graphics-object" aria-roledescription="group mark container"><g transform="translate(0,1.1111111111111427)"><path class="background" aria-hidden="true" d="M0,0L648.68,0C650.887660097976,0,652.68,1.792339902024,652.68,4L652.68,16C652.68,18.207660097976,650.887660097976,20,648.68,20L0,20C0,20,0,20,0,20L0,0C0,0,0,0,0,0Z"/><g clip-path="url(#clip70)"><g class="mark-group role-scope" role="graphics-object" aria-roledescription="group mark container"><g transform="translate(0,0)"><path class="background" aria-hidden="true" d="M0,0h0v20h0Z"/><g><g class="mark-rect role-mark marks" role="graphics-object" aria-roledescription="rect mark container"><path aria-label="CHF/Monat: 1813; Kanton: Zug; Miete_CHF: 1813" role="graphics-symbol" aria-roledescription="bar" d="M0,0h652.68v20h-652.68Z" fill="rgb(80, 31, 140)"/></g></g><path class="foreground" aria-hidden="true" d="" display="none"/></g></g></g><path class="foreground" aria-hidden="true" d="" display="none"/></g><g transform="translate(0,23.333333333333364)"><path class="background" aria-hidden="true" d="M0,0L601.16,0C603.367660097976,0,605.16,1.792339902024,605.16,4L605.16,16C605.16,18.207660097976,603.367660097976,20,601.16,20L0,20C0,20,0,20,0,20L0,0C0,0,0,0,0,0Z"/><g clip-path="url(#clip71)"><g class="mark-group role-scope" role="graphics-object" aria-roledescription="group mark container"><g transform="translate(0,0)"><path class="background" aria-hidden="true" d="M0,0h0v20h0Z"/><g><g class="mark-rect role-mark marks" role="graphics-object" aria-roledescription="rect mark container"><path aria-label="CHF/Monat: 1681; Kanton: Zürich; Miete_CHF: 1681" role="graphics-symbol" aria-roledescription="bar" d="M0,0h605.16v20h-605.16Z" fill="rgb(98, 66, 156)"/></g></g><path class="foreground" aria-hidden="true" d="" display="none"/></g></g></g><path class="foreground" aria-hidden="true" d="" display="none"/></g><g transform="translate(0,45.555555555555586)"><path class="background" aria-hidden="true" d="M0,0L588.92,0C591.127660097976,0,592.92,1.792339902024,592.92,4L592.92,16C592.92,18.207660097976,591.127660097976,20,588.92,20L0,20C0,20,0,20,0,20L0,0C0,0,0,0,0,0Z"/><g clip-path="url(#clip72)"><g class="mark-group role-scope" role="graphics-object" aria-roledescription="group mark container"><g transform="translate(0,0)"><path class="background" aria-hidden="true" d="M0,0h0v20h0Z"/><g><g class="mark-rect role-mark marks" role="graphics-object" aria-roledescription="rect mark container"><path aria-label="CHF/Monat: 1647; Kanton: Schwyz; Miete_CHF: 1647" role="graphics-symbol" aria-roledescription="bar" d="M0,0h592.92v20h-592.92Z" fill="rgb(102, 75, 160)"/></g></g><path class="foreground" aria-hidden="true" d="" display="none"/></g></g></g><path class="foreground" aria-hidden="true" d="" display="none"/></g><g transform="translate(0,67.7777777777778)"><path class="background" aria-hidden="true" d="M0,0L520.52,0C522.727660097976,0,524.52,1.792339902024,524.52,4L524.52,16C524.52,18.207660097976,522.727660097976,20,520.52,20L0,20C0,20,0,20,0,20L0,0C0,0,0,0,0,0Z"/><g clip-path="url(#clip73)"><g class="mark-group role-scope" role="graphics-object" aria-roledescription="group mark container"><g transform="translate(0,0)"><path class="background" aria-hidden="true" d="M0,0h0v20h0Z"/><g><g class="mark-rect role-mark marks" role="graphics-object" aria-roledescription="rect mark container"><path aria-label="CHF/Monat: 1457; Kanton: Waadt; Miete_CHF: 1457" role="graphics-symbol" aria-roledescription="bar" d="M0,0h524.52v20h-524.52Z" fill="rgb(130, 124, 185)"/></g></g><path class="foreground" aria-hidden="true" d="" display="none"/></g></g></g><path class="foreground" aria-hidden="true" d="" display="none"/></g><g transform="translate(0,90.00000000000003)"><path class="background" aria-hidden="true" d="M0,0L518.72,0C520.9276600979761,0,522.72,1.792339902024,522.72,4L522.72,16C522.72,18.207660097976,520.9276600979761,20,518.72,20L0,20C0,20,0,20,0,20L0,0C0,0,0,0,0,0Z"/><g clip-path="url(#clip74)"><g class="mark-group role-scope" role="graphics-object" aria-roledescription="group mark container"><g transform="translate(0,0)"><path class="background" aria-hidden="true" d="M0,0h0v20h0Z"/><g><g class="mark-rect role-mark marks" role="graphics-object" aria-roledescription="rect mark container"><path aria-label="CHF/Monat: 1452; Kanton: Genf; Miete_CHF: 1452" role="graphics-symbol" aria-roledescription="bar" d="M0,0h522.72v20h-522.72Z" fill="rgb(131, 125, 186)"/></g></g><path class="foreground" aria-hidden="true" d="" display="none"/></g></g></g><path class="foreground" aria-hidden="true" d="" display="none"/></g><g transform="translate(0,112.22222222222226)"><path class="background" aria-hidden="true" d="M0,0L517.64,0C519.847660097976,0,521.64,1.792339902024,521.64,4L521.64,16C521.64,18.207660097976,519.847660097976,20,517.64,20L0,20C0,20,0,20,0,20L0,0C0,0,0,0,0,0Z"/><g clip-path="url(#clip75)"><g class="mark-group role-scope" role="graphics-object" aria-roledescription="group mark container"><g transform="translate(0,0)"><path class="background" aria-hidden="true" d="M0,0h0v20h0Z"/><g><g class="mark-rect role-mark marks" role="graphics-object" aria-roledescription="rect mark container"><path aria-label="CHF/Monat: 1449; Kanton: Nidwalden; Miete_CHF: 1449" role="graphics-symbol" aria-roledescription="bar" d="M0,0h521.64v20h-521.64Z" fill="rgb(132, 126, 186)"/></g></g><path class="foreground" aria-hidden="true" d="" display="none"/></g></g></g><path class="foreground" aria-hidden="true" d="" display="none"/></g><g transform="translate(0,134.44444444444446)"><path class="background" aria-hidden="true" d="M0,0L503.59999999999997,0C505.80766009797594,0,507.59999999999997,1.792339902024,507.59999999999997,4L507.59999999999997,16C507.59999999999997,18.207660097976,505.80766009797594,20,503.59999999999997,20L0,20C0,20,0,20,0,20L0,0C0,0,0,0,0,0Z"/><g clip-path="url(#clip76)"><g class="mark-group role-scope" role="graphics-object" aria-roledescription="group mark container"><g transform="translate(0,0)"><path class="background" aria-hidden="true" d="M0,0h0v20h0Z"/><g><g class="mark-rect role-mark marks" role="graphics-object" aria-roledescription="rect mark container"><path aria-label="CHF/Monat: 1410; Kanton: Schweiz; Miete_CHF: 1410" role="graphics-symbol" aria-roledescription="bar" d="M0,0h507.59999999999997v20h-507.59999999999997Z" fill="rgb(139, 134, 190)"/></g></g><path class="foreground" aria-hidden="true" d="" display="none"/></g></g></g><path class="foreground" aria-hidden="true" d="" display="none"/></g><g transform="translate(0,156.66666666666669)"><path class="background" aria-hidden="true" d="M0,0L499.99999999999994,0C502.2076600979759,0,503.99999999999994,1.792339902024,503.99999999999994,4L503.99999999999994,16C503.99999999999994,18.207660097976,502.2076600979759,20,499.99999999999994,20L0,20C0,20,0,20,0,20L0,0C0,0,0,0,0,0Z"/><g clip-path="url(#clip77)"><g class="mark-group role-scope" role="graphics-object" aria-roledescription="group mark container"><g transform="translate(0,0)"><path class="background" aria-hidden="true" d="M0,0h0v20h0Z"/><g><g class="mark-rect role-mark marks" role="graphics-object" aria-roledescription="rect mark container"><path aria-label="CHF/Monat: 1400; Kanton: Basel-Landschaft; Miete_CHF: 1400" role="graphics-symbol" aria-roledescription="bar" d="M0,0h503.99999999999994v20h-503.99999999999994Z" fill="rgb(140, 136, 192)"/></g></g><path class="foreground" aria-hidden="true" d="" display="none"/></g></g></g><path class="foreground" aria-hidden="true" d="" display="none"/></g><g transform="translate(0,178.8888888888889)"><path class="background" aria-hidden="true" d="M0,0L499.64,0C501.84766009797596,0,503.64,1.792339902024,503.64,4L503.64,16C503.64,18.207660097976,501.84766009797596,20,499.64,20L0,20C0,20,0,20,0,20L0,0C0,0,0,0,0,0Z"/><g clip-path="url(#clip78)"><g class="mark-group role-scope" role="graphics-object" aria-roledescription="group mark container"><g transform="translate(0,0)"><path class="background" aria-hidden="true" d="M0,0h0v20h0Z"/><g><g class="mark-rect role-mark marks" role="graphics-object" aria-roledescription="rect mark container"><path aria-label="CHF/Monat: 1399; Kanton: Basel-Stadt; Miete_CHF: 1399" role="graphics-symbol" aria-roledescription="bar" d="M0,0h503.64v20h-503.64Z" fill="rgb(141, 136, 192)"/></g></g><path class="foreground" aria-hidden="true" d="" display="none"/></g></g></g><path class="foreground" aria-hidden="true" d="" display="none"/></g><g transform="translate(0,201.11111111111114)"><path class="background" aria-hidden="true" d="M0,0L499.28,0C501.48766009797595,0,503.28,1.792339902024,503.28,4L503.28,16C503.28,18.207660097976,501.48766009797595,20,499.28,20L0,20C0,20,0,20,0,20L0,0C0,0,0,0,0,0Z"/><g clip-path="url(#clip79)"><g class="mark-group role-scope" role="graphics-object" aria-roledescription="group mark container"><g transform="translate(0,0)"><path class="background" aria-hidden="true" d="M0,0h0v20h0Z"/><g><g class="mark-rect role-mark marks" role="graphics-object" aria-roledescription="rect mark container"><path aria-label="CHF/Monat: 1398; Kanton: Aargau; Miete_CHF: 1398" role="graphics-symbol" aria-roledescription="bar" d="M0,0h503.28v20h-503.28Z" fill="rgb(141, 136, 192)"/></g></g><path class="foreground" aria-hidden="true" d="" display="none"/></g></g></g><path class="foreground" aria-hidden="true" d="" display="none"/></g><g transform="translate(0,223.33333333333337)"><path class="background" aria-hidden="true" d="M0,0L498.2,0C500.40766009797596,0,502.2,1.792339902024,502.2,4L502.2,16C502.2,18.207660097976,500.40766009797596,20,498.2,20L0,20C0,20,0,20,0,20L0,0C0,0,0,0,0,0Z"/><g clip-path="url(#clip80)"><g class="mark-group role-scope" role="graphics-object" aria-roledescription="group mark container"><g transform="translate(0,0)"><path class="background" aria-hidden="true" d="M0,0h0v20h0Z"/><g><g class="mark-rect role-mark marks" role="graphics-object" aria-roledescription="rect mark container"><path aria-label="CHF/Monat: 1395; Kanton: Luzern; Miete_CHF: 1395" role="graphics-symbol" aria-roledescription="bar" d="M0,0h502.2v20h-502.2Z" fill="rgb(141, 137, 192)"/></g></g><path class="foreground" aria-hidden="true" d="" display="none"/></g></g></g><path class="foreground" aria-hidden="true" d="" display="none"/></g><g transform="translate(0,245.55555555555557)"><path class="background" aria-hidden="true" d="M0,0L489.92,0C492.127660097976,0,493.92,1.792339902024,493.92,4L493.92,16C493.92,18.207660097976,492.127660097976,20,489.92,20L0,20C0,20,0,20,0,20L0,0C0,0,0,0,0,0Z"/><g clip-path="url(#clip81)"><g class="mark-group role-scope" role="graphics-object" aria-roledescription="group mark container"><g transform="translate(0,0)"><path class="background" aria-hidden="true" d="M0,0h0v20h0Z"/><g><g class="mark-rect role-mark marks" role="graphics-object" aria-roledescription="rect mark container"><path aria-label="CHF/Monat: 1372; Kanton: Graubünden; Miete_CHF: 1372" role="graphics-symbol" aria-roledescription="bar" d="M0,0h493.92v20h-493.92Z" fill="rgb(146, 141, 195)"/></g></g><path class="foreground" aria-hidden="true" d="" display="none"/></g></g></g><path class="foreground" aria-hidden="true" d="" display="none"/></g><g transform="translate(0,267.77777777777777)"><path class="background" aria-hidden="true" d="M0,0L474.08000000000004,0C476.287660097976,0,478.08000000000004,1.792339902024,478.08000000000004,4L478.08000000000004,16C478.08000000000004,18.207660097976,476.287660097976,20,474.08000000000004,20L0,20C0,20,0,20,0,20L0,0C0,0,0,0,0,0Z"/><g clip-path="url(#clip82)"><g class="mark-group role-scope" role="graphics-object" aria-roledescription="group mark container"><g transform="translate(0,0)"><path class="background" aria-hidden="true" d="M0,0h0v20h0Z"/><g><g class="mark-rect role-mark marks" role="graphics-object" aria-roledescription="rect mark container"><path aria-label="CHF/Monat: 1328; Kanton: Obwalden; Miete_CHF: 1328" role="graphics-symbol" aria-roledescription="bar" d="M0,0h478.08000000000004v20h-478.08000000000004Z" fill="rgb(154, 150, 199)"/></g></g><path class="foreground" aria-hidden="true" d="" display="none"/></g></g></g><path class="foreground" aria-hidden="true" d="" display="none"/></g><g transform="translate(0,290)"><path class="background" aria-hidden="true" d="M0,0L462.2,0C464.40766009797596,0,466.2,1.792339902024,466.2,4L466.2,16C466.2,18.207660097976,464.40766009797596,20,462.2,20L0,20C0,20,0,20,0,20L0,0C0,0,0,0,0,0Z"/><g clip-path="url(#clip83)"><g class="mark-group role-scope" role="graphics-object" aria-roledescription="group mark container"><g transform="translate(0,0)"><path class="background" aria-hidden="true" d="M0,0h0v20h0Z"/><g><g class="mark-rect role-mark marks" role="graphics-object" aria-roledescription="rect mark container"><path aria-label="CHF/Monat: 1295; Kanton: St.Gallen; Miete_CHF: 1295" role="graphics-symbol" aria-roledescription="bar" d="M0,0h466.2v20h-466.2Z" fill="rgb(160, 157, 203)"/></g></g><path class="foreground" aria-hidden="true" d="" display="none"/></g></g></g><path class="foreground" aria-hidden="true" d="" display="none"/></g><g transform="translate(0,312.22222222222223)"><path class="background" aria-hidden="true" d="M0,0L456.8,0C459.007660097976,0,460.8,1.792339902024,460.8,4L460.8,16C460.8,18.207660097976,459.007660097976,20,456.8,20L0,20C0,20,0,20,0,20L0,0C0,0,0,0,0,0Z"/><g clip-path="url(#clip84)"><g class="mark-group role-scope" role="graphics-object" aria-roledescription="group mark container"><g transform="translate(0,0)"><path class="background" aria-hidden="true" d="M0,0h0v20h0Z"/><g><g class="mark-rect role-mark marks" role="graphics-object" aria-roledescription="rect mark container"><path aria-label="CHF/Monat: 1280; Kanton: Thurgau; Miete_CHF: 1280" role="graphics-symbol" aria-roledescription="bar" d="M0,0h460.8v20h-460.8Z" fill="rgb(163, 160, 204)"/></g></g><path class="foreground" aria-hidden="true" d="" display="none"/></g></g></g><path class="foreground" aria-hidden="true" d="" display="none"/></g><g transform="translate(0,334.44444444444446)"><path class="background" aria-hidden="true" d="M0,0L454.28,0C456.48766009797595,0,458.28,1.792339902024,458.28,4L458.28,16C458.28,18.207660097976,456.48766009797595,20,454.28,20L0,20C0,20,0,20,0,20L0,0C0,0,0,0,0,0Z"/><g clip-path="url(#clip85)"><g class="mark-group role-scope" role="graphics-object" aria-roledescription="group mark container"><g transform="translate(0,0)"><path class="background" aria-hidden="true" d="M0,0h0v20h0Z"/><g><g class="mark-rect role-mark marks" role="graphics-object" aria-roledescription="rect mark container"><path aria-label="CHF/Monat: 1273; Kanton: Appenzell A.Rh.; Miete_CHF: 1273" role="graphics-symbol" aria-roledescription="bar" d="M0,0h458.28v20h-458.28Z" fill="rgb(164, 162, 205)"/></g></g><path class="foreground" aria-hidden="true" d="" display="none"/></g></g></g><path class="foreground" aria-hidden="true" d="" display="none"/></g><g transform="translate(0,356.6666666666667)"><path class="background" aria-hidden="true" d="M0,0L451.4,0C453.60766009797595,0,455.4,1.792339902024,455.4,4L455.4,16C455.4,18.207660097976,453.60766009797595,20,451.4,20L0,20C0,20,0,20,0,20L0,0C0,0,0,0,0,0Z"/><g clip-path="url(#clip86)"><g class="mark-group role-scope" role="graphics-object" aria-roledescription="group mark container"><g transform="translate(0,0)"><path class="background" aria-hidden="true" d="M0,0h0v20h0Z"/><g><g class="mark-rect role-mark marks" role="graphics-object" aria-roledescription="rect mark container"><path aria-label="CHF/Monat: 1265; Kanton: Freiburg; Miete_CHF: 1265" role="graphics-symbol" aria-roledescription="bar" d="M0,0h455.4v20h-455.4Z" fill="rgb(166, 163, 206)"/></g></g><path class="foreground" aria-hidden="true" d="" display="none"/></g></g></g><path class="foreground" aria-hidden="true" d="" display="none"/></g><g transform="translate(0,378.8888888888889)"><path class="background" aria-hidden="true" d="M0,0L447.08,0C449.28766009797596,0,451.08,1.792339902024,451.08,4L451.08,16C451.08,18.207660097976,449.28766009797596,20,447.08,20L0,20C0,20,0,20,0,20L0,0C0,0,0,0,0,0Z"/><g clip-path="url(#clip87)"><g class="mark-group role-scope" role="graphics-object" aria-roledescription="group mark container"><g transform="translate(0,0)"><path class="background" aria-hidden="true" d="M0,0h0v20h0Z"/><g><g class="mark-rect role-mark marks" role="graphics-object" aria-roledescription="rect mark container"><path aria-label="CHF/Monat: 1253; Kanton: Appenzell I.Rh.; Miete_CHF: 1253" role="graphics-symbol" aria-roledescription="bar" d="M0,0h451.08v20h-451.08Z" fill="rgb(168, 166, 207)"/></g></g><path class="foreground" aria-hidden="true" d="" display="none"/></g></g></g><path class="foreground" aria-hidden="true" d="" display="none"/></g><g transform="translate(0,401.11111111111114)"><path class="background" aria-hidden="true" d="M0,0L443.84,0C446.04766009797595,0,447.84,1.792339902024,447.84,4L447.84,16C447.84,18.207660097976,446.04766009797595,20,443.84,20L0,20C0,20,0,20,0,20L0,0C0,0,0,0,0,0Z"/><g clip-path="url(#clip88)"><g class="mark-group role-scope" role="graphics-object" aria-roledescription="group mark container"><g transform="translate(0,0)"><path class="background" aria-hidden="true" d="M0,0h0v20h0Z"/><g><g class="mark-rect role-mark marks" role="graphics-object" aria-roledescription="rect mark container"><path aria-label="CHF/Monat: 1244; Kanton: Bern; Miete_CHF: 1244" role="graphics-symbol" aria-roledescription="bar" d="M0,0h447.84v20h-447.84Z" fill="rgb(170, 168, 208)"/></g></g><path class="foreground" aria-hidden="true" d="" display="none"/></g></g></g><path class="foreground" aria-hidden="true" d="" display="none"/></g><g transform="translate(0,423.33333333333337)"><path class="background" aria-hidden="true" d="M0,0L442.76000000000005,0C444.967660097976,0,446.76000000000005,1.792339902024,446.76000000000005,4L446.76000000000005,16C446.76000000000005,18.207660097976,444.967660097976,20,442.76000000000005,20L0,20C0,20,0,20,0,20L0,0C0,0,0,0,0,0Z"/><g clip-path="url(#clip89)"><g class="mark-group role-scope" role="graphics-object" aria-roledescription="group mark container"><g transform="translate(0,0)"><path class="background" aria-hidden="true" d="M0,0h0v20h0Z"/><g><g class="mark-rect role-mark marks" role="graphics-object" aria-roledescription="rect mark container"><path aria-label="CHF/Monat: 1241; Kanton: Wallis; Miete_CHF: 1241" role="graphics-symbol" aria-roledescription="bar" d="M0,0h446.76000000000005v20h-446.76000000000005Z" fill="rgb(171, 169, 208)"/></g></g><path class="foreground" aria-hidden="true" d="" display="none"/></g></g></g><path class="foreground" aria-hidden="true" d="" display="none"/></g><g transform="translate(0,445.5555555555556)"><path class="background" aria-hidden="true" d="M0,0L433.76,0C435.96766009797597,0,437.76,1.792339902024,437.76,4L437.76,16C437.76,18.207660097976,435.96766009797597,20,433.76,20L0,20C0,20,0,20,0,20L0,0C0,0,0,0,0,0Z"/><g clip-path="url(#clip90)"><g class="mark-group role-scope" role="graphics-object" aria-roledescription="group mark container"><g transform="translate(0,0)"><path class="background" aria-hidden="true" d="M0,0h0v20h0Z"/><g><g class="mark-rect role-mark marks" role="graphics-object" aria-roledescription="rect mark container"><path aria-label="CHF/Monat: 1216; Kanton: Tessin; Miete_CHF: 1216" role="graphics-symbol" aria-roledescription="bar" d="M0,0h437.76v20h-437.76Z" fill="rgb(175, 174, 211)"/></g></g><path class="foreground" aria-hidden="true" d="" display="none"/></g></g></g><path class="foreground" aria-hidden="true" d="" display="none"/></g><g transform="translate(0,467.77777777777777)"><path class="background" aria-hidden="true" d="M0,0L424.04,0C426.247660097976,0,428.04,1.792339902024,428.04,4L428.04,16C428.04,18.207660097976,426.247660097976,20,424.04,20L0,20C0,20,0,20,0,20L0,0C0,0,0,0,0,0Z"/><g clip-path="url(#clip91)"><g class="mark-group role-scope" role="graphics-object" aria-roledescription="group mark container"><g transform="translate(0,0)"><path class="background" aria-hidden="true" d="M0,0h0v20h0Z"/><g><g class="mark-rect role-mark marks" role="graphics-object" aria-roledescription="rect mark container"><path aria-label="CHF/Monat: 1189; Kanton: Schaffhausen; Miete_CHF: 1189" role="graphics-symbol" aria-roledescription="bar" d="M0,0h428.04v20h-428.04Z" fill="rgb(181, 180, 214)"/></g></g><path class="foreground" aria-hidden="true" d="" display="none"/></g></g></g><path class="foreground" aria-hidden="true" d="" display="none"/></g><g transform="translate(0,490)"><path class="background" aria-hidden="true" d="M0,0L422.6,0C424.807660097976,0,426.6,1.792339902024,426.6,4L426.6,16C426.6,18.207660097976,424.807660097976,20,422.6,20L0,20C0,20,0,20,0,20L0,0C0,0,0,0,0,0Z"/><g clip-path="url(#clip92)"><g class="mark-group role-scope" role="graphics-object" aria-roledescription="group mark container"><g transform="translate(0,0)"><path class="background" aria-hidden="true" d="M0,0h0v20h0Z"/><g><g class="mark-rect role-mark marks" role="graphics-object" aria-roledescription="rect mark container"><path aria-label="CHF/Monat: 1185; Kanton: Solothurn; Miete_CHF: 1185" role="graphics-symbol" aria-roledescription="bar" d="M0,0h426.6v20h-426.6Z" fill="rgb(181, 180, 215)"/></g></g><path class="foreground" aria-hidden="true" d="" display="none"/></g></g></g><path class="foreground" aria-hidden="true" d="" display="none"/></g><g transform="translate(0,512.2222222222222)"><path class="background" aria-hidden="true" d="M0,0L418.64,0C420.84766009797596,0,422.64,1.792339902024,422.64,4L422.64,16C422.64,18.207660097976,420.84766009797596,20,418.64,20L0,20C0,20,0,20,0,20L0,0C0,0,0,0,0,0Z"/><g clip-path="url(#clip93)"><g class="mark-group role-scope" role="graphics-object" aria-roledescription="group mark container"><g transform="translate(0,0)"><path class="background" aria-hidden="true" d="M0,0h0v20h0Z"/><g><g class="mark-rect role-mark marks" role="graphics-object" aria-roledescription="rect mark container"><path aria-label="CHF/Monat: 1174; Kanton: Uri; Miete_CHF: 1174" role="graphics-symbol" aria-roledescription="bar" d="M0,0h422.64v20h-422.64Z" fill="rgb(183, 183, 216)"/></g></g><path class="foreground" aria-hidden="true" d="" display="none"/></g></g></g><path class="foreground" aria-hidden="true" d="" display="none"/></g><g transform="translate(0,534.4444444444443)"><path class="background" aria-hidden="true" d="M0,0L411.08,0C413.28766009797596,0,415.08,1.792339902024,415.08,4L415.08,16C415.08,18.207660097976,413.28766009797596,20,411.08,20L0,20C0,20,0,20,0,20L0,0C0,0,0,0,0,0Z"/><g clip-path="url(#clip94)"><g class="mark-group role-scope" role="graphics-object" aria-roledescription="group mark container"><g transform="translate(0,0)"><path class="background" aria-hidden="true" d="M0,0h0v20h0Z"/><g><g class="mark-rect role-mark marks" role="graphics-object" aria-roledescription="rect mark container"><path aria-label="CHF/Monat: 1153; Kanton: Glarus; Miete_CHF: 1153" role="graphics-symbol" aria-roledescription="bar" d="M0,0h415.08v20h-415.08Z" fill="rgb(187, 187, 218)"/></g></g><path class="foreground" aria-hidden="true" d="" display="none"/></g></g></g><path class="foreground" aria-hidden="true" d="" display="none"/></g><g transform="translate(0,556.6666666666667)"><path class="background" aria-hidden="true" d="M0,0L359.6,0C361.807660097976,0,363.6,1.792339902024,363.6,4L363.6,16C363.6,18.207660097976,361.807660097976,20,359.6,20L0,20C0,20,0,20,0,20L0,0C0,0,0,0,0,0Z"/><g clip-path="url(#clip95)"><g class="mark-group role-scope" role="graphics-object" aria-roledescription="group mark container"><g transform="translate(0,0)"><path class="background" aria-hidden="true" d="M0,0h0v20h0Z"/><g><g class="mark-rect role-mark marks" role="graphics-object" aria-roledescription="rect mark container"><path aria-label="CHF/Monat: 1010; Kanton: Neuenburg; Miete_CHF: 1010" role="graphics-symbol" aria-roledescription="bar" d="M0,0h363.6v20h-363.6Z" fill="rgb(213, 213, 232)"/></g></g><path class="foreground" aria-hidden="true" d="" display="none"/></g></g></g><path class="foreground" aria-hidden="true" d="" display="none"/></g><g transform="translate(0,578.8888888888889)"><path class="background" aria-hidden="true" d="M0,0L329.36,0C331.567660097976,0,333.36,1.792339902024,333.36,4L333.36,16C333.36,18.207660097976,331.567660097976,20,329.36,20L0,20C0,20,0,20,0,20L0,0C0,0,0,0,0,0Z"/><g clip-path="url(#clip96)"><g class="mark-group role-scope" role="graphics-object" aria-roledescription="group mark container"><g transform="translate(0,0)"><path class="background" aria-hidden="true" d="M0,0h0v20h0Z"/><g><g class="mark-rect role-mark marks" role="graphics-object" aria-roledescription="rect mark container"><path aria-label="CHF/Monat: 926; Kanton: Jura; Miete_CHF: 926" role="graphics-symbol" aria-roledescription="bar" d="M0,0h333.36v20h-333.36Z" fill="rgb(226, 225, 239)"/></g></g><path class="foreground" aria-hidden="true" d="" display="none"/></g></g></g><path class="foreground" aria-hidden="true" d="" display="none"/></g></g><g class="mark-group role-title"><g transform="translate(360,-17)"><path class="background" aria-hidden="true" d="M0,0h0v0h0Z" pointer-events="none"/><g><g class="mark-text role-title-text" role="graphics-symbol" aria-roledescription="title" aria-label="Title text 'Durchschnittliche Monatsmiete, 3-Zimmer-Wohnung (2023)'" pointer-events="none"><text text-anchor="middle" transform="translate(0,10)" font-family="Switzer, system-ui, sans-serif" font-size="13px" font-weight="bold" fill="#000" opacity="1">Durchschnittliche Monatsmiete, 3-Zimmer-Wohnung (2023)</text></g></g><path class="foreground" aria-hidden="true" d="" pointer-events="none" display="none"/></g></g></g><path class="foreground" aria-hidden="true" d="" display="none"/></g></g></g><defs><clipPath id="clip70"><path d="M0,0L648.68,0C650.887660097976,0,652.68,1.792339902024,652.68,4L652.68,16C652.68,18.207660097976,650.887660097976,20,648.68,20L0,20C0,20,0,20,0,20L0,0C0,0,0,0,0,0Z"/></clipPath><clipPath id="clip71"><path d="M0,0L601.16,0C603.367660097976,0,605.16,1.792339902024,605.16,4L605.16,16C605.16,18.207660097976,603.367660097976,20,601.16,20L0,20C0,20,0,20,0,20L0,0C0,0,0,0,0,0Z"/></clipPath><clipPath id="clip72"><path d="M0,0L588.92,0C591.127660097976,0,592.92,1.792339902024,592.92,4L592.92,16C592.92,18.207660097976,591.127660097976,20,588.92,20L0,20C0,20,0,20,0,20L0,0C0,0,0,0,0,0Z"/></clipPath><clipPath id="clip73"><path d="M0,0L520.52,0C522.727660097976,0,524.52,1.792339902024,524.52,4L524.52,16C524.52,18.207660097976,522.727660097976,20,520.52,20L0,20C0,20,0,20,0,20L0,0C0,0,0,0,0,0Z"/></clipPath><clipPath id="clip74"><path d="M0,0L518.72,0C520.9276600979761,0,522.72,1.792339902024,522.72,4L522.72,16C522.72,18.207660097976,520.9276600979761,20,518.72,20L0,20C0,20,0,20,0,20L0,0C0,0,0,0,0,0Z"/></clipPath><clipPath id="clip75"><path d="M0,0L517.64,0C519.847660097976,0,521.64,1.792339902024,521.64,4L521.64,16C521.64,18.207660097976,519.847660097976,20,517.64,20L0,20C0,20,0,20,0,20L0,0C0,0,0,0,0,0Z"/></clipPath><clipPath id="clip76"><path d="M0,0L503.59999999999997,0C505.80766009797594,0,507.59999999999997,1.792339902024,507.59999999999997,4L507.59999999999997,16C507.59999999999997,18.207660097976,505.80766009797594,20,503.59999999999997,20L0,20C0,20,0,20,0,20L0,0C0,0,0,0,0,0Z"/></clipPath><clipPath id="clip77"><path d="M0,0L499.99999999999994,0C502.2076600979759,0,503.99999999999994,1.792339902024,503.99999999999994,4L503.99999999999994,16C503.99999999999994,18.207660097976,502.2076600979759,20,499.99999999999994,20L0,20C0,20,0,20,0,20L0,0C0,0,0,0,0,0Z"/></clipPath><clipPath id="clip78"><path d="M0,0L499.64,0C501.84766009797596,0,503.64,1.792339902024,503.64,4L503.64,16C503.64,18.207660097976,501.84766009797596,20,499.64,20L0,20C0,20,0,20,0,20L0,0C0,0,0,0,0,0Z"/></clipPath><clipPath id="clip79"><path d="M0,0L499.28,0C501.48766009797595,0,503.28,1.792339902024,503.28,4L503.28,16C503.28,18.207660097976,501.48766009797595,20,499.28,20L0,20C0,20,0,20,0,20L0,0C0,0,0,0,0,0Z"/></clipPath><clipPath id="clip80"><path d="M0,0L498.2,0C500.40766009797596,0,502.2,1.792339902024,502.2,4L502.2,16C502.2,18.207660097976,500.40766009797596,20,498.2,20L0,20C0,20,0,20,0,20L0,0C0,0,0,0,0,0Z"/></clipPath><clipPath id="clip81"><path d="M0,0L489.92,0C492.127660097976,0,493.92,1.792339902024,493.92,4L493.92,16C493.92,18.207660097976,492.127660097976,20,489.92,20L0,20C0,20,0,20,0,20L0,0C0,0,0,0,0,0Z"/></clipPath><clipPath id="clip82"><path d="M0,0L474.08000000000004,0C476.287660097976,0,478.08000000000004,1.792339902024,478.08000000000004,4L478.08000000000004,16C478.08000000000004,18.207660097976,476.287660097976,20,474.08000000000004,20L0,20C0,20,0,20,0,20L0,0C0,0,0,0,0,0Z"/></clipPath><clipPath id="clip83"><path d="M0,0L462.2,0C464.40766009797596,0,466.2,1.792339902024,466.2,4L466.2,16C466.2,18.207660097976,464.40766009797596,20,462.2,20L0,20C0,20,0,20,0,20L0,0C0,0,0,0,0,0Z"/></clipPath><clipPath id="clip84"><path d="M0,0L456.8,0C459.007660097976,0,460.8,1.792339902024,460.8,4L460.8,16C460.8,18.207660097976,459.007660097976,20,456.8,20L0,20C0,20,0,20,0,20L0,0C0,0,0,0,0,0Z"/></clipPath><clipPath id="clip85"><path d="M0,0L454.28,0C456.48766009797595,0,458.28,1.792339902024,458.28,4L458.28,16C458.28,18.207660097976,456.48766009797595,20,454.28,20L0,20C0,20,0,20,0,20L0,0C0,0,0,0,0,0Z"/></clipPath><clipPath id="clip86"><path d="M0,0L451.4,0C453.60766009797595,0,455.4,1.792339902024,455.4,4L455.4,16C455.4,18.207660097976,453.60766009797595,20,451.4,20L0,20C0,20,0,20,0,20L0,0C0,0,0,0,0,0Z"/></clipPath><clipPath id="clip87"><path d="M0,0L447.08,0C449.28766009797596,0,451.08,1.792339902024,451.08,4L451.08,16C451.08,18.207660097976,449.28766009797596,20,447.08,20L0,20C0,20,0,20,0,20L0,0C0,0,0,0,0,0Z"/></clipPath><clipPath id="clip88"><path d="M0,0L443.84,0C446.04766009797595,0,447.84,1.792339902024,447.84,4L447.84,16C447.84,18.207660097976,446.04766009797595,20,443.84,20L0,20C0,20,0,20,0,20L0,0C0,0,0,0,0,0Z"/></clipPath><clipPath id="clip89"><path d="M0,0L442.76000000000005,0C444.967660097976,0,446.76000000000005,1.792339902024,446.76000000000005,4L446.76000000000005,16C446.76000000000005,18.207660097976,444.967660097976,20,442.76000000000005,20L0,20C0,20,0,20,0,20L0,0C0,0,0,0,0,0Z"/></clipPath><clipPath id="clip90"><path d="M0,0L433.76,0C435.96766009797597,0,437.76,1.792339902024,437.76,4L437.76,16C437.76,18.207660097976,435.96766009797597,20,433.76,20L0,20C0,20,0,20,0,20L0,0C0,0,0,0,0,0Z"/></clipPath><clipPath id="clip91"><path d="M0,0L424.04,0C426.247660097976,0,428.04,1.792339902024,428.04,4L428.04,16C428.04,18.207660097976,426.247660097976,20,424.04,20L0,20C0,20,0,20,0,20L0,0C0,0,0,0,0,0Z"/></clipPath><clipPath id="clip92"><path d="M0,0L422.6,0C424.807660097976,0,426.6,1.792339902024,426.6,4L426.6,16C426.6,18.207660097976,424.807660097976,20,422.6,20L0,20C0,20,0,20,0,20L0,0C0,0,0,0,0,0Z"/></clipPath><clipPath id="clip93"><path d="M0,0L418.64,0C420.84766009797596,0,422.64,1.792339902024,422.64,4L422.64,16C422.64,18.207660097976,420.84766009797596,20,418.64,20L0,20C0,20,0,20,0,20L0,0C0,0,0,0,0,0Z"/></clipPath><clipPath id="clip94"><path d="M0,0L411.08,0C413.28766009797596,0,415.08,1.792339902024,415.08,4L415.08,16C415.08,18.207660097976,413.28766009797596,20,411.08,20L0,20C0,20,0,20,0,20L0,0C0,0,0,0,0,0Z"/></clipPath><clipPath id="clip95"><path d="M0,0L359.6,0C361.807660097976,0,363.6,1.792339902024,363.6,4L363.6,16C363.6,18.207660097976,361.807660097976,20,359.6,20L0,20C0,20,0,20,0,20L0,0C0,0,0,0,0,0Z"/></clipPath><clipPath id="clip96"><path d="M0,0L329.36,0C331.567660097976,0,333.36,1.792339902024,333.36,4L333.36,16C333.36,18.207660097976,331.567660097976,20,329.36,20L0,20C0,20,0,20,0,20L0,0C0,0,0,0,0,0Z"/></clipPath></defs></svg>