<svg xmlns="http://www.w3.org/2000/svg" xmlns:xlink="http://www.w3.org/1999/xlink" version="1.1" class="marks" width="764" height="510" viewBox="0 0 764 510"><rect width="764" height="510" fill="white"/><g fill="none" stroke-miterlimit="10" transform="translate(39,27)"><g class="mark-group role-frame root" role="graphics-object" aria-roledescription="group mark container"><g transform="translate(0,0)"><path class="background" aria-hidden="true" d="M0.5,0.5h720v400h-720Z"/><g><g class="mark-group role-axis" aria-hidden="true"><g transform="translate(0.5,0.5)"><path class="background" aria-hidden="true" d="M0,0h0v0h0Z" pointer-events="none"/><g><g class="mark-rule role-axis-grid" pointer-events="none"><line transform="translate(0,400)" x2="720" y2="0" stroke="#ddd" stroke-width="1" opacity="1"/><line transform="translate(0,350)" x2="720" y2="0" stroke="#ddd" stroke-width="1" opacity="1"/><line transform="translate(0,300)" x2="720" y2="0" stroke="#ddd" stroke-width="1" opacity="1"/><line transform="translate(0,250)" x2="720" y2="0" stroke="#ddd" stroke-width="1" opacity="1"/><line transform="translate(0,200)" x2="720" y2="0" stroke="#ddd" stroke-width="1" opacity="1"/><line transform="translate(0,150)" x2="720" y2="0" stroke="#ddd" stroke-width="1" opacity="1"/><line transform="translate(0,100)" x2="720" y2="0" stroke="#ddd" stroke-width="1" opacity="1"/><line transform="translate(0,50)" x2="720" y2="0" stroke="#ddd" stroke-width="1" opacity="1"/><line transform="translate(0,0)" x2="720" y2="0" stroke="#ddd" stroke-width="1" opacity="1"/></g></g><path class="foreground" aria-hidden="true" d="" pointer-events="none" display="none"/></g></g><g class="mark-group role-axis" role="graphics-symbol" aria-roledescription="axis" aria-label="X-axis titled 'Einkommensquintil (1 = tiefstes)' for a discrete scale with 5 values: 1 (tiefstes), 2, 3, 4, 5 (höchstes)"><g transform="translate(0.5,400.5)"><path class="background" aria-hidden="true" d="M0,0h0v0h0Z" pointer-events="none"/><g><g class="mark-rule role-axis-tick" pointer-events="none"><line transform="translate(71,0)" x2="0" y2="5" stroke="#888" stroke-width="1" opacity="1"/><line transform="translate(216,0)" x2="0" y2="5" stroke="#888" stroke-width="1" opacity="1"/><line transform="translate(360,0)" x2="0" y2="5" stroke="#888" stroke-width="1" opacity="1"/><line transform="translate(504,0)" x2="0" y2="5" stroke="#888" stroke-width="1" opacity="1"/><line transform="translate(648,0)" x2="0" y2="5" stroke="#888" stroke-width="1" opacity="1"/></g><g class="mark-text role-axis-label" pointer-events="none"><text text-anchor="end" transform="translate(71.49999999999999,7) rotate(270) translate(0,3)" font-family="Switzer, system-ui, sans-serif" font-size="10px" fill="#000" opacity="1">1 (tiefstes)</text><text text-anchor="end" transform="translate(215.5,7) rotate(270) translate(0,3)" font-family="Switzer, system-ui, sans-serif" font-size="10px" fill="#000" opacity="1">2</text><text text-anchor="end" transform="translate(359.5,7) rotate(270) translate(0,3)" font-family="Switzer, system-ui, sans-serif" font-size="10px" fill="#000" opacity="1">3</text><text text-anchor="end" transform="translate(503.5,7) rotate(270) translate(0,3)" font-family="Switzer, system-ui, sans-serif" font-size="10px" fill="#000" opacity="1">4</text><text text-anchor="end" transform="translate(647.5,7) rotate(270) translate(0,3)" font-family="Switzer, system-ui, sans-serif" font-size="10px" fill="#000" opacity="1">5 (höchstes)</text></g><g class="mark-rule role-axis-domain" pointer-events="none"><line transform="translate(0,0)" x2="720" y2="0" stroke="#888" stroke-width="1" opacity="1"/></g><g class="mark-text role-axis-title" pointer-events="none"><text text-anchor="middle" transform="translate(360,75.87000274658203)" font-family="Switzer, system-ui, sans-serif" font-size="11px" font-weight="bold" fill="#000" opacity="1">Einkommensquintil (1 = tiefstes)</text></g></g><path class="foreground" aria-hidden="true" d="" pointer-events="none" display="none"/></g></g><g class="mark-group role-axis" role="graphics-symbol" aria-roledescription="axis" aria-label="Y-axis titled 'Mietanteil am Einkommen (%)' for a linear scale with values from 0 to 40"><g transform="translate(0.5,0.5)"><path class="background" aria-hidden="true" d="M0,0h0v0h0Z" pointer-events="none"/><g><g class="mark-rule role-axis-tick" pointer-events="none"><line transform="translate(0,400)" x2="-5" y2="0" stroke="#888" stroke-width="1" opacity="1"/><line transform="translate(0,350)" x2="-5" y2="0" stroke="#888" stroke-width="1" opacity="1"/><line transform="translate(0,300)" x2="-5" y2="0" stroke="#888" stroke-width="1" opacity="1"/><line transform="translate(0,250)" x2="-5" y2="0" stroke="#888" stroke-width="1" opacity="1"/><line transform="translate(0,200)" x2="-5" y2="0" stroke="#888" stroke-width="1" opacity="1"/><line transform="translate(0,150)" x2="-5" y2="0" stroke="#888" stroke-width="1" opacity="1"/><line transform="translate(0,100)" x2="-5" y2="0" stroke="#888" stroke-width="1" opacity="1"/><line transform="translate(0,50)" x2="-5" y2="0" stroke="#888" stroke-width="1" opacity="1"/><line transform="translate(0,0)" x2="-5" y2="0" stroke="#888" stroke-width="1" opacity="1"/></g><g class="mark-text role-axis-label" pointer-events="none"><text text-anchor="end" transform="translate(-7,403)" font-family="Switzer, system-ui, sans-serif" font-size="10px" fill="#000" opacity="1">0</text><text text-anchor="end" transform="translate(-7,353)" font-family="Switzer, system-ui, sans-serif" font-size="10px" fill="#000" opacity="1">5</text><text text-anchor="end" transform="translate(-7,303)" font-family="Switzer, system-ui, sans-serif" font-size="10px" fill="#000" opacity="1">10</text><text text-anchor="end" transform="translate(-7,253)" font-family="Switzer, system-ui, sans-serif" font-size="10px" fill="#000" opacity="1">15</text><text text-anchor="end" transform="translate(-7,203)" font-family="Switzer, system-ui, sans-serif" font-size="10px" fill="#000" opacity="1">20</text><text text-anchor="end" transform="translate(-7,153)" font-family="Switzer, system-ui, sans-serif" font-size="10px" fill="#000" opacity="1">25</text><text text-anchor="end" transform="translate(-7,103)" font-family="Switzer, system-ui, sans-serif" font-size="10px" fill="#000" opacity="1">30</text><text text-anchor="end" transform="translate(-7,53)" font-family="Switzer, system-ui, sans-serif" font-size="10px" fill="#000" opacity="1">35</text><text text-anchor="end" transform="translate(-7,3)" font-family="Switzer, system-ui, sans-serif" font-size="10px" fill="#000" opacity="1">40</text></g><g class="mark-rule role-axis-domain" pointer-events="none"><line transform="translate(0,400)" x2="0" y2="-400" stroke="#888" stroke-width="1" opacity="1"/></g><g class="mark-text role-axis-title" pointer-events="none"><text text-anchor="middle" transform="translate(-22.520000457763672,200) rotate(-90) translate(0,-2)" font-family="Switzer, system-ui, sans-serif" font-size="11px" font-weight="bold" fill="#000" opacity="1">Mietanteil am Einkommen (%)</text></g></g><path class="foreground" aria-hidden="true" d="" pointer-events="none" display="none"/></g></g><g class="mark-group role-scope" role="graphics-object" aria-roledescription="group mark container"><g transform="translate(7.199999999999989,0)"><path class="background" aria-hidden="true" d="M4,0L125.6,0C127.807660097976,0,129.6,1.792339902024,129.6,4L129.6,400C129.6,400,129.6,400,129.6,400L0,400C0,400,0,400,0,400L0,4C0,1.792339902024,1.792339902024,0,4,0Z"/><g clip-path="url(#clip65)"><g class="mark-group role-scope" role="graphics-object" aria-roledescription="group mark container"><g transform="translate(0,0)"><path class="background" aria-hidden="true" d="M0,0h129.6v0h-129.6Z"/><g><g class="mark-rect role-mark marks" role="graphics-object" aria-roledescription="rect mark container"><path aria-label="Einkommensquintil (1 = tiefstes): 1 (tiefstes); Mietanteil am Einkommen (%): 40; Mietanteil: 40" role="graphics-symbol" aria-roledescription="bar" d="M0,0h129.6v400h-129.6Z" fill="rgb(151, 11, 19)"/></g></g><path class="foreground" aria-hidden="true" d="" display="none"/></g></g></g><path class="foreground" aria-hidden="true" d="" display="none"/></g><g transform="translate(151.2,120.00000000000001)"><path class="background" aria-hidden="true" d="M4,0L125.6,0C127.807660097976,0,129.6,1.792339902024,129.6,4L129.6,280C129.6,280,129.6,280,129.6,280L0,280C0,280,0,280,0,280L0,4C0,1.792339902024,1.792339902024,0,4,0Z"/><g clip-path="url(#clip66)"><g class="mark-group role-scope" role="graphics-object" aria-roledescription="group mark container"><g transform="translate(0,-120.00000000000001)"><path class="background" aria-hidden="true" d="M0,0h129.6v0h-129.6Z"/><g><g class="mark-rect role-mark marks" role="graphics-object" aria-roledescription="rect mark container"><path aria-label="Einkommensquintil (1 = tiefstes): 2; Mietanteil am Einkommen (%): 28; Mietanteil: 28" role="graphics-symbol" aria-roledescription="bar" d="M0,120.00000000000001h129.6v280h-129.6Z" fill="rgb(239, 70, 52)"/></g></g><path class="foreground" aria-hidden="true" d="" display="none"/></g></g></g><path class="foreground" aria-hidden="true" d="" display="none"/></g><g transform="translate(295.2,179.99999999999997)"><path class="background" aria-hidden="true" d="M4,0L125.6,0C127.807660097976,0,129.6,1.792339902024,129.6,4L129.6,220.00000000000003C129.6,220.00000000000003,129.6,220.00000000000003,129.6,220.00000000000003L0,220.00000000000003C0,220.00000000000003,0,220.00000000000003,0,220.00000000000003L0,4C0,1.792339902024,1.792339902024,0,4,0Z"/><g clip-path="url(#clip67)"><g class="mark-group role-scope" role="graphics-object" aria-roledescription="group mark container"><g transform="translate(0,-179.99999999999997)"><path class="background" aria-hidden="true" d="M0,0h129.6v0h-129.6Z"/><g><g class="mark-rect role-mark marks" role="graphics-object" aria-roledescription="rect mark container"><path aria-label="Einkommensquintil (1 = tiefstes): 3; Mietanteil am Einkommen (%): 22; Mietanteil: 22" role="graphics-symbol" aria-roledescription="bar" d="M0,179.99999999999997h129.6v220.00000000000003h-129.6Z" fill="rgb(251, 122, 90)"/></g></g><path class="foreground" aria-hidden="true" d="" display="none"/></g></g></g><path class="foreground" aria-hidden="true" d="" display="none"/></g><g transform="translate(439.2,220.00000000000003)"><path class="background" aria-hidden="true" d="M4,0L125.6,0C127.807660097976,0,129.6,1.792339902024,129.6,4L129.6,179.99999999999997C129.6,179.99999999999997,129.6,179.99999999999997,129.6,179.99999999999997L0,179.99999999999997C0,179.99999999999997,0,179.99999999999997,0,179.99999999999997L0,4C0,1.792339902024,1.792339902024,0,4,0Z"/><g clip-path="url(#clip68)"><g class="mark-group role-scope" role="graphics-object" aria-roledescription="group mark container"><g transform="translate(0,-220.00000000000003)"><path class="background" aria-hidden="true" d="M0,0h129.6v0h-129.6Z"/><g><g class="mark-rect role-mark marks" role="graphics-object" aria-roledescription="rect mark container"><path aria-label="Einkommensquintil (1 = tiefstes): 4; Mietanteil am Einkommen (%): 18; Mietanteil: 18" role="graphics-symbol" aria-roledescription="bar" d="M0,220.00000000000003h129.6v179.99999999999997h-129.6Z" fill="rgb(252, 155, 124)"/></g></g><path class="foreground" aria-hidden="true" d="" display="none"/></g></g></g><path class="foreground" aria-hidden="true" d="" display="none"/></g><g transform="translate(583.2,280)"><path class="background" aria-hidden="true" d="M4,0L125.6,0C127.807660097976,0,129.6,1.792339902024,129.6,4L129.6,120C129.6,120,129.6,120,129.6,120L0,120C0,120,0,120,0,120L0,4C0,1.792339902024,1.792339902024,0,4,0Z"/><g clip-path="url(#clip69)"><g class="mark-group role-scope" role="graphics-object" aria-roledescription="group mark container"><g transform="translate(0,-280)"><path class="background" aria-hidden="true" d="M0,0h129.6v0h-129.6Z"/><g><g class="mark-rect role-mark marks" role="graphics-object" aria-roledescription="rect mark container"><path aria-label="Einkommensquintil (1 = tiefstes): 5 (höchstes); Mietanteil am Einkommen (%): 12; Mietanteil: 12" role="graphics-symbol" aria-roledescription="bar" d="M0,280h129.6v120h-129.6Z" fill="rgb(253, 201, 180)"/></g></g><path class="foreground" aria-hidden="true" d="" display="none"/></g></g></g><path class="foreground" aria-hidden="true" d="" display="none"/></g></g><g class="mark-group role-title"><g transform="translate(360,-22)"><path class="background" aria-hidden="true" d="M0,0h0v0h0Z" pointer-events="none"/><g><g class="mark-text role-title-text" role="graphics-symbol" aria-roledescription="title" aria-label="Title text 'Mietbelastungsquote nach Einkommensquintil (BFS SILC 2022)'" pointer-events="none"><text text-anchor="middle" transform="translate(0,10)" font-family="Switzer, system-ui, sans-serif" font-size="13px" font-weight="bold" fill="#000" opacity="1">Mietbelastungsquote nach Einkommensquintil (BFS SILC 2022)</text></g></g><path class="foreground" aria-hidden="true" d="" pointer-events="none" display="none"/></g></g></g><path class="foreground" aria-hidden="true" d="" display="none"/></g></g></g><defs><clipPath id="clip65"><path d="M4,0L125.6,0C127.807660097976,0,129.6,1.792339902024,129.6,4L129.6,400C129.6,400,129.6,400,129.6,400L0,400C0,400,0,400,0,400L0,4C0,1.792339902024,1.792339902024,0,4,0Z"/></clipPath><clipPath id="clip66"><path d="M4,0L125.6,0C127.807660097976,0,129.6,1.792339902024,129.6,4L129.6,280C129.6,280,129.6,280,129.6,280L0,280C0,280,0,280,0,280L0,4C0,1.792339902024,1.792339902024,0,4,0Z"/></clipPath><clipPath id="clip67"><path d="M4,0L125.6,0C127.807660097976,0,129.6,1.792339902024,129.6,4L129.6,220.00000000000003C129.6,220.00000000000003,129.6,220.00000000000003,129.6,220.00000000000003L0,220.00000000000003C0,220.00000000000003,0,220.00000000000003,0,220.00000000000003L0,4C0,1.792339902024,1.792339902024,0,4,0Z"/></clipPath><clipPath id="clip68"><path d="M4,0L125.6,0C127.807660097976,0,129.6,1.792339902024,129.6,4L129.6,179.99999999999997C129.6,179.99999999999997,129.6,179.99999999999997,129.6,179.99999999999997L0,179.99999999999997C0,179.99999999999997,0,179.99999999999997,0,179.99999999999997L0,4C0,1.792339902024,1.792339902024,0,4,0Z"/></clipPath><clipPath id="clip69"><path d="M4,0L125.6,0C127.807660097976,0,129.6,1.792339902024,129.6,4L129.6,120C129.6,120,129.6,120,129.6,120L0,120C0,120,0,120,0,120L0,4C0,1.792339902024,1.792339902024,0,4,0Z"/></clipPath></defs></svg>