<svg xmlns="http://www.w3.org/2000/svg" xmlns:xlink="http://www.w3.org/1999/xlink" version="1.1" class="marks" width="895" height="510" viewBox="0 0 895 510"><rect width="895" height="510" fill="white"/><g fill="none" stroke-miterlimit="10" transform="translate(39,27)"><g class="mark-group role-frame root" role="graphics-object" aria-roledescription="group mark container"><g transform="translate(0,0)"><path class="background" aria-hidden="true" d="M0.5,0.5h720v400h-720Z"/><g><g class="mark-group role-axis" aria-hidden="true"><g transform="translate(0.5,0.5)"><path class="background" aria-hidden="true" d="M0,0h0v0h0Z" pointer-events="none"/><g><g class="mark-rule role-axis-grid" pointer-events="none"><line transform="translate(0,400)" x2="720" y2="0" stroke="#ddd" stroke-width="1" opacity="1"/><line transform="translate(0,350)" x2="720" y2="0" stroke="#ddd" stroke-width="1" opacity="1"/><line transform="translate(0,300)" x2="720" y2="0" stroke="#ddd" stroke-width="1" opacity="1"/><line transform="translate(0,250)" x2="720" y2="0" stroke="#ddd" stroke-width="1" opacity="1"/><line transform="translate(0,200)" x2="720" y2="0" stroke="#ddd" stroke-width="1" opacity="1"/><line transform="translate(0,150)" x2="720" y2="0" stroke="#ddd" stroke-width="1" opacity="1"/><line transform="translate(0,100)" x2="720" y2="0" stroke="#ddd" stroke-width="1" opacity="1"/><line transform="translate(0,50)" x2="720" y2="0" stroke="#ddd" stroke-width="1" opacity="1"/><line transform="translate(0,0)" x2="720" y2="0" stroke="#ddd" stroke-width="1" opacity="1"/></g></g><path class="foreground" aria-hidden="true" d="" pointer-events="none" display="none"/></g></g><g class="mark-group role-axis" role="graphics-symbol" aria-roledescription="axis" aria-label="X-axis titled 'Einkommensquintil' for a discrete scale with 5 values: 1 (tiefstes), 2, 3, 4, 5 (höchstes)"><g transform="translate(0.5,400.5)"><path class="background" aria-hidden="true" d="M0,0h0v0h0Z" pointer-events="none"/><g><g class="mark-rule role-axis-tick" pointer-events="none"><line transform="translate(83,0)" x2="0" y2="5" stroke="#888" stroke-width="1" opacity="1"/><line transform="translate(221,0)" x2="0" y2="5" stroke="#888" stroke-width="1" opacity="1"/><line transform="translate(360,0)" x2="0" y2="5" stroke="#888" stroke-width="1" opacity="1"/><line transform="translate(498,0)" x2="0" y2="5" stroke="#888" stroke-width="1" opacity="1"/><line transform="translate(636,0)" x2="0" y2="5" stroke="#888" stroke-width="1" opacity="1"/></g><g class="mark-text role-axis-label" pointer-events="none"><text text-anchor="end" transform="translate(82.57692307692312,7) rotate(270) translate(0,3)" font-family="Switzer, system-ui, sans-serif" font-size="10px" fill="#000" opacity="1">1 (tiefstes)</text><text text-anchor="end" transform="translate(221.03846153846158,7) rotate(270) translate(0,3)" font-family="Switzer, system-ui, sans-serif" font-size="10px" fill="#000" opacity="1">2</text><text text-anchor="end" transform="translate(359.5,7) rotate(270) translate(0,3)" font-family="Switzer, system-ui, sans-serif" font-size="10px" fill="#000" opacity="1">3</text><text text-anchor="end" transform="translate(497.96153846153845,7) rotate(270) translate(0,3)" font-family="Switzer, system-ui, sans-serif" font-size="10px" fill="#000" opacity="1">4</text><text text-anchor="end" transform="translate(636.4230769230769,7) rotate(270) translate(0,3)" font-family="Switzer, system-ui, sans-serif" font-size="10px" fill="#000" opacity="1">5 (höchstes)</text></g><g class="mark-rule role-axis-domain" pointer-events="none"><line transform="translate(0,0)" x2="720" y2="0" stroke="#888" stroke-width="1" opacity="1"/></g><g class="mark-text role-axis-title" pointer-events="none"><text text-anchor="middle" transform="translate(360,75.87000274658203)" font-family="Switzer, system-ui, sans-serif" font-size="11px" font-weight="bold" fill="#000" opacity="1">Einkommensquintil</text></g></g><path class="foreground" aria-hidden="true" d="" pointer-events="none" display="none"/></g></g><g class="mark-group role-axis" role="graphics-symbol" aria-roledescription="axis" aria-label="Y-axis titled 'Mietanteil am Einkommen (%)' for a linear scale with values from 0 to 40"><g transform="translate(0.5,0.5)"><path class="background" aria-hidden="true" d="M0,0h0v0h0Z" pointer-events="none"/><g><g class="mark-rule role-axis-tick" pointer-events="none"><line transform="translate(0,400)" x2="-5" y2="0" stroke="#888" stroke-width="1" opacity="1"/><line transform="translate(0,350)" x2="-5" y2="0" stroke="#888" stroke-width="1" opacity="1"/><line transform="translate(0,300)" x2="-5" y2="0" stroke="#888" stroke-width="1" opacity="1"/><line transform="translate(0,250)" x2="-5" y2="0" stroke="#888" stroke-width="1" opacity="1"/><line transform="translate(0,200)" x2="-5" y2="0" stroke="#888" stroke-width="1" opacity="1"/><line transform="translate(0,150)" x2="-5" y2="0" stroke="#888" stroke-width="1" opacity="1"/><line transform="translate(0,100)" x2="-5" y2="0" stroke="#888" stroke-width="1" opacity="1"/><line transform="translate(0,50)" x2="-5" y2="0" stroke="#888" stroke-width="1" opacity="1"/><line transform="translate(0,0)" x2="-5" y2="0" stroke="#888" stroke-width="1" opacity="1"/></g><g class="mark-text role-axis-label" pointer-events="none"><text text-anchor="end" transform="translate(-7,403)" font-family="Switzer, system-ui, sans-serif" font-size="10px" fill="#000" opacity="1">0</text><text text-anchor="end" transform="translate(-7,353)" font-family="Switzer, system-ui, sans-serif" font-size="10px" fill="#000" opacity="1">5</text><text text-anchor="end" transform="translate(-7,303)" font-family="Switzer, system-ui, sans-serif" font-size="10px" fill="#000" opacity="1">10</text><text text-anchor="end" transform="translate(-7,253)" font-family="Switzer, system-ui, sans-serif" font-size="10px" fill="#000" opacity="1">15</text><text text-anchor="end" transform="translate(-7,203)" font-family="Switzer, system-ui, sans-serif" font-size="10px" fill="#000" opacity="1">20</text><text text-anchor="end" transform="translate(-7,153)" font-family="Switzer, system-ui, sans-serif" font-size="10px" fill="#000" opacity="1">25</text><text text-anchor="end" transform="translate(-7,103)" font-family="Switzer, system-ui, sans-serif" font-size="10px" fill="#000" opacity="1">30</text><text text-anchor="end" transform="translate(-7,53)" font-family="Switzer, system-ui, sans-serif" font-size="10px" fill="#000" opacity="1">35</text><text text-anchor="end" transform="translate(-7,3)" font-family="Switzer, system-ui, sans-serif" font-size="10px" fill="#000" opacity="1">40</text></g><g class="mark-rule role-axis-domain" pointer-events="none"><line transform="translate(0,400)" x2="0" y2="-400" stroke="#888" stroke-width="1" opacity="1"/></g><g class="mark-text role-axis-title" pointer-events="none"><text text-anchor="middle" transform="translate(-22.520000457763672,200) rotate(-90) translate(0,-2)" font-family="Switzer, system-ui, sans-serif" font-size="11px" font-weight="bold" fill="#000" opacity="1">Mietanteil am Einkommen (%)</text></g></g><path class="foreground" aria-hidden="true" d="" pointer-events="none" display="none"/></g></g><g class="mark-group role-scope" role="graphics-object" aria-roledescription="group mark container"><g transform="translate(83.07692307692312,0)"><path class="background" aria-hidden="true" d="M4,0L51.38461538461539,0C53.59227548259139,0,55.38461538461539,1.792339902024,55.38461538461539,4L55.38461538461539,400C55.38461538461539,400,55.38461538461539,400,55.38461538461539,400L0,400C0,400,0,400,0,400L0,4C0,1.792339902024,1.792339902024,0,4,0Z"/><g clip-path="url(#clip97)"><g class="mark-group role-scope" role="graphics-object" aria-roledescription="group mark container"><g transform="translate(0,0)"><path class="background" aria-hidden="true" d="M0,0h55.38461538461539v0h-55.38461538461539Z"/><g><g class="mark-rect role-mark marks" role="graphics-object" aria-roledescription="rect mark container"><path aria-label="Einkommensquintil: 1 (tiefstes); Mietanteil am Einkommen (%): 40; Szenario: Status quo" role="graphics-symbol" aria-roledescription="bar" d="M0,0h55.38461538461539v400h-55.38461538461539Z" fill="#10b981"/></g></g><path class="foreground" aria-hidden="true" d="" display="none"/></g></g></g><path class="foreground" aria-hidden="true" d="" display="none"/></g><g transform="translate(27.692307692307736,221.99999999999997)"><path class="background" aria-hidden="true" d="M4,0L51.38461538461539,0C53.59227548259139,0,55.38461538461539,1.792339902024,55.38461538461539,4L55.38461538461539,178.00000000000003C55.38461538461539,178.00000000000003,55.38461538461539,178.00000000000003,55.38461538461539,178.00000000000003L0,178.00000000000003C0,178.00000000000003,0,178.00000000000003,0,178.00000000000003L0,4C0,1.792339902024,1.792339902024,0,4,0Z"/><g clip-path="url(#clip98)"><g class="mark-group role-scope" role="graphics-object" aria-roledescription="group mark container"><g transform="translate(0,-221.99999999999997)"><path class="background" aria-hidden="true" d="M0,0h55.38461538461539v0h-55.38461538461539Z"/><g><g class="mark-rect role-mark marks" role="graphics-object" aria-roledescription="rect mark container"><path aria-label="Einkommensquintil: 1 (tiefstes); Mietanteil am Einkommen (%): 17.8; Szenario: Mit Grundeinkommen" role="graphics-symbol" aria-roledescription="bar" d="M0,221.99999999999997h55.38461538461539v178.00000000000003h-55.38461538461539Z" fill="#ef4444"/></g></g><path class="foreground" aria-hidden="true" d="" display="none"/></g></g></g><path class="foreground" aria-hidden="true" d="" display="none"/></g><g transform="translate(221.53846153846158,120.00000000000001)"><path class="background" aria-hidden="true" d="M4,0L51.38461538461539,0C53.59227548259139,0,55.38461538461539,1.792339902024,55.38461538461539,4L55.38461538461539,280C55.38461538461539,280,55.38461538461539,280,55.38461538461539,280L0,280C0,280,0,280,0,280L0,4C0,1.792339902024,1.792339902024,0,4,0Z"/><g clip-path="url(#clip99)"><g class="mark-group role-scope" role="graphics-object" aria-roledescription="group mark container"><g transform="translate(0,-120.00000000000001)"><path class="background" aria-hidden="true" d="M0,0h55.38461538461539v0h-55.38461538461539Z"/><g><g class="mark-rect role-mark marks" role="graphics-object" aria-roledescription="rect mark container"><path aria-label="Einkommensquintil: 2; Mietanteil am Einkommen (%): 28; Szenario: Status quo" role="graphics-symbol" aria-roledescription="bar" d="M0,120.00000000000001h55.38461538461539v280h-55.38461538461539Z" fill="#10b981"/></g></g><path class="foreground" aria-hidden="true" d="" display="none"/></g></g></g><path class="foreground" aria-hidden="true" d="" display="none"/></g><g transform="translate(166.1538461538462,244)"><path class="background" aria-hidden="true" d="M4,0L51.38461538461539,0C53.59227548259139,0,55.38461538461539,1.792339902024,55.38461538461539,4L55.38461538461539,156C55.38461538461539,156,55.38461538461539,156,55.38461538461539,156L0,156C0,156,0,156,0,156L0,4C0,1.792339902024,1.792339902024,0,4,0Z"/><g clip-path="url(#clip100)"><g class="mark-group role-scope" role="graphics-object" aria-roledescription="group mark container"><g transform="translate(0,-244)"><path class="background" aria-hidden="true" d="M0,0h55.38461538461539v0h-55.38461538461539Z"/><g><g class="mark-rect role-mark marks" role="graphics-object" aria-roledescription="rect mark container"><path aria-label="Einkommensquintil: 2; Mietanteil am Einkommen (%): 15.6; Szenario: Mit Grundeinkommen" role="graphics-symbol" aria-roledescription="bar" d="M0,244h55.38461538461539v156h-55.38461538461539Z" fill="#ef4444"/></g></g><path class="foreground" aria-hidden="true" d="" display="none"/></g></g></g><path class="foreground" aria-hidden="true" d="" display="none"/></g><g transform="translate(360,179.99999999999997)"><path class="background" aria-hidden="true" d="M4,0L51.38461538461539,0C53.59227548259139,0,55.38461538461539,1.792339902024,55.38461538461539,4L55.38461538461539,220.00000000000003C55.38461538461539,220.00000000000003,55.38461538461539,220.00000000000003,55.38461538461539,220.00000000000003L0,220.00000000000003C0,220.00000000000003,0,220.00000000000003,0,220.00000000000003L0,4C0,1.792339902024,1.792339902024,0,4,0Z"/><g clip-path="url(#clip101)"><g class="mark-group role-scope" role="graphics-object" aria-roledescription="group mark container"><g transform="translate(0,-179.99999999999997)"><path class="background" aria-hidden="true" d="M0,0h55.38461538461539v0h-55.38461538461539Z"/><g><g class="mark-rect role-mark marks" role="graphics-object" aria-roledescription="rect mark container"><path aria-label="Einkommensquintil: 3; Mietanteil am Einkommen (%): 22; Szenario: Status quo" role="graphics-symbol" aria-roledescription="bar" d="M0,179.99999999999997h55.38461538461539v220.00000000000003h-55.38461538461539Z" fill="#10b981"/></g></g><path class="foreground" aria-hidden="true" d="" display="none"/></g></g></g><path class="foreground" aria-hidden="true" d="" display="none"/></g><g transform="translate(304.61538461538464,262)"><path class="background" aria-hidden="true" d="M4,0L51.38461538461539,0C53.59227548259139,0,55.38461538461539,1.792339902024,55.38461538461539,4L55.38461538461539,138C55.38461538461539,138,55.38461538461539,138,55.38461538461539,138L0,138C0,138,0,138,0,138L0,4C0,1.792339902024,1.792339902024,0,4,0Z"/><g clip-path="url(#clip102)"><g class="mark-group role-scope" role="graphics-object" aria-roledescription="group mark container"><g transform="translate(0,-262)"><path class="background" aria-hidden="true" d="M0,0h55.38461538461539v0h-55.38461538461539Z"/><g><g class="mark-rect role-mark marks" role="graphics-object" aria-roledescription="rect mark container"><path aria-label="Einkommensquintil: 3; Mietanteil am Einkommen (%): 13.8; Szenario: Mit Grundeinkommen" role="graphics-symbol" aria-roledescription="bar" d="M0,262h55.38461538461539v138h-55.38461538461539Z" fill="#ef4444"/></g></g><path class="foreground" aria-hidden="true" d="" display="none"/></g></g></g><path class="foreground" aria-hidden="true" d="" display="none"/></g><g transform="translate(498.46153846153845,220.00000000000003)"><path class="background" aria-hidden="true" d="M4,0L51.38461538461539,0C53.59227548259139,0,55.38461538461539,1.792339902024,55.38461538461539,4L55.38461538461539,179.99999999999997C55.38461538461539,179.99999999999997,55.38461538461539,179.99999999999997,55.38461538461539,179.99999999999997L0,179.99999999999997C0,179.99999999999997,0,179.99999999999997,0,179.99999999999997L0,4C0,1.792339902024,1.792339902024,0,4,0Z"/><g clip-path="url(#clip103)"><g class="mark-group role-scope" role="graphics-object" aria-roledescription="group mark container"><g transform="translate(0,-220.00000000000003)"><path class="background" aria-hidden="true" d="M0,0h55.38461538461539v0h-55.38461538461539Z"/><g><g class="mark-rect role-mark marks" role="graphics-object" aria-roledescription="rect mark container"><path aria-label="Einkommensquintil: 4; Mietanteil am Einkommen (%): 18; Szenario: Status quo" role="graphics-symbol" aria-roledescription="bar" d="M0,220.00000000000003h55.38461538461539v179.99999999999997h-55.38461538461539Z" fill="#10b981"/></g></g><path class="foreground" aria-hidden="true" d="" display="none"/></g></g></g><path class="foreground" aria-hidden="true" d="" display="none"/></g><g transform="translate(443.0769230769231,277)"><path class="background" aria-hidden="true" d="M4,0L51.38461538461539,0C53.59227548259139,0,55.38461538461539,1.792339902024,55.38461538461539,4L55.38461538461539,123C55.38461538461539,123,55.38461538461539,123,55.38461538461539,123L0,123C0,123,0,123,0,123L0,4C0,1.792339902024,1.792339902024,0,4,0Z"/><g clip-path="url(#clip104)"><g class="mark-group role-scope" role="graphics-object" aria-roledescription="group mark container"><g transform="translate(0,-277)"><path class="background" aria-hidden="true" d="M0,0h55.38461538461539v0h-55.38461538461539Z"/><g><g class="mark-rect role-mark marks" role="graphics-object" aria-roledescription="rect mark container"><path aria-label="Einkommensquintil: 4; Mietanteil am Einkommen (%): 12.3; Szenario: Mit Grundeinkommen" role="graphics-symbol" aria-roledescription="bar" d="M0,277h55.38461538461539v123h-55.38461538461539Z" fill="#ef4444"/></g></g><path class="foreground" aria-hidden="true" d="" display="none"/></g></g></g><path class="foreground" aria-hidden="true" d="" display="none"/></g><g transform="translate(636.9230769230769,280)"><path class="background" aria-hidden="true" d="M4,0L51.38461538461539,0C53.59227548259139,0,55.38461538461539,1.792339902024,55.38461538461539,4L55.38461538461539,120C55.38461538461539,120,55.38461538461539,120,55.38461538461539,120L0,120C0,120,0,120,0,120L0,4C0,1.792339902024,1.792339902024,0,4,0Z"/><g clip-path="url(#clip105)"><g class="mark-group role-scope" role="graphics-object" aria-roledescription="group mark container"><g transform="translate(0,-280)"><path class="background" aria-hidden="true" d="M0,0h55.38461538461539v0h-55.38461538461539Z"/><g><g class="mark-rect role-mark marks" role="graphics-object" aria-roledescription="rect mark container"><path aria-label="Einkommensquintil: 5 (höchstes); Mietanteil am Einkommen (%): 12; Szenario: Status quo" role="graphics-symbol" aria-roledescription="bar" d="M0,280h55.38461538461539v120h-55.38461538461539Z" fill="#10b981"/></g></g><path class="foreground" aria-hidden="true" d="" display="none"/></g></g></g><path class="foreground" aria-hidden="true" d="" display="none"/></g><g transform="translate(581.5384615384615,307)"><path class="background" aria-hidden="true" d="M4,0L51.38461538461539,0C53.59227548259139,0,55.38461538461539,1.792339902024,55.38461538461539,4L55.38461538461539,93C55.38461538461539,93,55.38461538461539,93,55.38461538461539,93L0,93C0,93,0,93,0,93L0,4C0,1.792339902024,1.792339902024,0,4,0Z"/><g clip-path="url(#clip106)"><g class="mark-group role-scope" role="graphics-object" aria-roledescription="group mark container"><g transform="translate(0,-307)"><path class="background" aria-hidden="true" d="M0,0h55.38461538461539v0h-55.38461538461539Z"/><g><g class="mark-rect role-mark marks" role="graphics-object" aria-roledescription="rect mark container"><path aria-label="Einkommensquintil: 5 (höchstes); Mietanteil am Einkommen (%): 9.3; Szenario: Mit Grundeinkommen" role="graphics-symbol" aria-roledescription="bar" d="M0,307h55.38461538461539v93h-55.38461538461539Z" fill="#ef4444"/></g></g><path class="foreground" aria-hidden="true" d="" display="none"/></g></g></g><path class="foreground" aria-hidden="true" d="" display="none"/></g></g><g class="mark-group role-legend" role="graphics-symbol" aria-roledescription="legend" aria-label="Symbol legend titled 'Szenario' for fill color with 2 values: Mit Grundeinkommen, Status quo"><g transform="translate(738,0)"><path class="background" aria-hidden="true" d="M0,0h113v40h-113Z" pointer-events="none"/><g><g class="mark-group role-legend-entry"><g transform="translate(0,16)"><path class="background" aria-hidden="true" d="M0,0h0v0h0Z" pointer-events="none"/><g><g class="mark-group role-scope" role="graphics-object" aria-roledescription="group mark container"><g transform="translate(0,0)"><path class="background" aria-hidden="true" d="M0,0h112.84000396728516v11h-112.84000396728516Z" pointer-events="none" opacity="1"/><g><g class="mark-symbol role-legend-symbol" pointer-events="none"><path transform="translate(6,6)" d="M-5,-5h10v10h-10Z" fill="#ef4444" stroke-width="1.5" opacity="1"/></g><g class="mark-text role-legend-label" pointer-events="none"><text text-anchor="start" transform="translate(16,9)" font-family="Switzer, system-ui, sans-serif" font-size="10px" fill="#000" opacity="1">Mit Grundeinkommen</text></g></g><path class="foreground" aria-hidden="true" d="" pointer-events="none" display="none"/></g><g transform="translate(0,13)"><path class="background" aria-hidden="true" d="M0,0h112.84000396728516v11h-112.84000396728516Z" pointer-events="none" opacity="1"/><g><g class="mark-symbol role-legend-symbol" pointer-events="none"><path transform="translate(6,6)" d="M-5,-5h10v10h-10Z" fill="#10b981" stroke-width="1.5" opacity="1"/></g><g class="mark-text role-legend-label" pointer-events="none"><text text-anchor="start" transform="translate(16,9)" font-family="Switzer, system-ui, sans-serif" font-size="10px" fill="#000" opacity="1">Status quo</text></g></g><path class="foreground" aria-hidden="true" d="" pointer-events="none" display="none"/></g></g></g><path class="foreground" aria-hidden="true" d="" pointer-events="none" display="none"/></g></g><g class="mark-text role-legend-title" pointer-events="none"><text text-anchor="start" transform="translate(0,9)" font-family="Switzer, system-ui, sans-serif" font-size="11px" font-weight="bold" fill="#000" opacity="1">Szenario</text></g></g><path class="foreground" aria-hidden="true" d="" pointer-events="none" display="none"/></g></g><g class="mark-group role-title"><g transform="translate(360,-22)"><path class="background" aria-hidden="true" d="M0,0h0v0h0Z" pointer-events="none"/><g><g class="mark-text role-title-text" role="graphics-symbol" aria-roledescription="title" aria-label="Title text 'Mietbelastung: Status quo vs. Grundeinkommen (CHF 2'500/Mt)'" pointer-events="none"><text text-anchor="middle" transform="translate(0,10)" font-family="Switzer, system-ui, sans-serif" font-size="13px" font-weight="bold" fill="#000" opacity="1">Mietbelastung: Status quo vs. Grundeinkommen (CHF 2'500/Mt)</text></g></g><path class="foreground" aria-hidden="true" d="" pointer-events="none" display="none"/></g></g></g><path class="foreground" aria-hidden="true" d="" display="none"/></g></g></g><defs><clipPath id="clip97"><path d="M4,0L51.38461538461539,0C53.59227548259139,0,55.38461538461539,1.792339902024,55.38461538461539,4L55.38461538461539,400C55.38461538461539,400,55.38461538461539,400,55.38461538461539,400L0,400C0,400,0,400,0,400L0,4C0,1.792339902024,1.792339902024,0,4,0Z"/></clipPath><clipPath id="clip98"><path d="M4,0L51.38461538461539,0C53.59227548259139,0,55.38461538461539,1.792339902024,55.38461538461539,4L55.38461538461539,178.00000000000003C55.38461538461539,178.00000000000003,55.38461538461539,178.00000000000003,55.38461538461539,178.00000000000003L0,178.00000000000003C0,178.00000000000003,0,178.00000000000003,0,178.00000000000003L0,4C0,1.792339902024,1.792339902024,0,4,0Z"/></clipPath><clipPath id="clip99"><path d="M4,0L51.38461538461539,0C53.59227548259139,0,55.38461538461539,1.792339902024,55.38461538461539,4L55.38461538461539,280C55.38461538461539,280,55.38461538461539,280,55.38461538461539,280L0,280C0,280,0,280,0,280L0,4C0,1.792339902024,1.792339902024,0,4,0Z"/></clipPath><clipPath id="clip100"><path d="M4,0L51.38461538461539,0C53.59227548259139,0,55.38461538461539,1.792339902024,55.38461538461539,4L55.38461538461539,156C55.38461538461539,156,55.38461538461539,156,55.38461538461539,156L0,156C0,156,0,156,0,156L0,4C0,1.792339902024,1.792339902024,0,4,0Z"/></clipPath><clipPath id="clip101"><path d="M4,0L51.38461538461539,0C53.59227548259139,0,55.38461538461539,1.792339902024,55.38461538461539,4L55.38461538461539,220.00000000000003C55.38461538461539,220.00000000000003,55.38461538461539,220.00000000000003,55.38461538461539,220.00000000000003L0,220.00000000000003C0,220.00000000000003,0,220.00000000000003,0,220.00000000000003L0,4C0,1.792339902024,1.792339902024,0,4,0Z"/></clipPath><clipPath id="clip102"><path d="M4,0L51.38461538461539,0C53.59227548259139,0,55.38461538461539,1.792339902024,55.38461538461539,4L55.38461538461539,138C55.38461538461539,138,55.38461538461539,138,55.38461538461539,138L0,138C0,138,0,138,0,138L0,4C0,1.792339902024,1.792339902024,0,4,0Z"/></clipPath><clipPath id="clip103"><path d="M4,0L51.38461538461539,0C53.59227548259139,0,55.38461538461539,1.792339902024,55.38461538461539,4L55.38461538461539,179.99999999999997C55.38461538461539,179.99999999999997,55.38461538461539,179.99999999999997,55.38461538461539,179.99999999999997L0,179.99999999999997C0,179.99999999999997,0,179.99999999999997,0,179.99999999999997L0,4C0,1.792339902024,1.792339902024,0,4,0Z"/></clipPath><clipPath id="clip104"><path d="M4,0L51.38461538461539,0C53.59227548259139,0,55.38461538461539,1.792339902024,55.38461538461539,4L55.38461538461539,123C55.38461538461539,123,55.38461538461539,123,55.38461538461539,123L0,123C0,123,0,123,0,123L0,4C0,1.792339902024,1.792339902024,0,4,0Z"/></clipPath><clipPath id="clip105"><path d="M4,0L51.38461538461539,0C53.59227548259139,0,55.38461538461539,1.792339902024,55.38461538461539,4L55.38461538461539,120C55.38461538461539,120,55.38461538461539,120,55.38461538461539,120L0,120C0,120,0,120,0,120L0,4C0,1.792339902024,1.792339902024,0,4,0Z"/></clipPath><clipPath id="clip106"><path d="M4,0L51.38461538461539,0C53.59227548259139,0,55.38461538461539,1.792339902024,55.38461538461539,4L55.38461538461539,93C55.38461538461539,93,55.38461538461539,93,55.38461538461539,93L0,93C0,93,0,93,0,93L0,4C0,1.792339902024,1.792339902024,0,4,0Z"/></clipPath></defs></svg>