<svg xmlns="http://www.w3.org/2000/svg" xmlns:xlink="http://www.w3.org/1999/xlink" version="1.1" class="marks" width="834" height="409" viewBox="0 0 834 409"><rect width="834" height="409" fill="white"/><g fill="none" stroke-miterlimit="10" transform="translate(109,22)"><g class="mark-group role-frame root" role="graphics-object" aria-roledescription="group mark container"><g transform="translate(0,0)"><path class="background" aria-hidden="true" d="M0.5,0.5h720v350h-720Z"/><g><g class="mark-group role-axis" aria-hidden="true"><g transform="translate(0.5,350.5)"><path class="background" aria-hidden="true" d="M0,0h0v0h0Z" pointer-events="none"/><g><g class="mark-rule role-axis-grid" pointer-events="none"><line transform="translate(0,0)" x2="0" y2="-350" stroke="#ddd" stroke-width="1" opacity="1"/><line transform="translate(26,0)" x2="0" y2="-350" stroke="#ddd" stroke-width="1" opacity="1"/><line transform="translate(52,0)" x2="0" y2="-350" stroke="#ddd" stroke-width="1" opacity="1"/><line transform="translate(79,0)" x2="0" y2="-350" stroke="#ddd" stroke-width="1" opacity="1"/><line transform="translate(105,0)" x2="0" y2="-350" stroke="#ddd" stroke-width="1" opacity="1"/><line transform="translate(131,0)" x2="0" y2="-350" stroke="#ddd" stroke-width="1" opacity="1"/><line transform="translate(157,0)" x2="0" y2="-350" stroke="#ddd" stroke-width="1" opacity="1"/><line transform="translate(183,0)" x2="0" y2="-350" stroke="#ddd" stroke-width="1" opacity="1"/><line transform="translate(209,0)" x2="0" y2="-350" stroke="#ddd" stroke-width="1" opacity="1"/><line transform="translate(236,0)" x2="0" y2="-350" stroke="#ddd" stroke-width="1" opacity="1"/><line transform="translate(262,0)" x2="0" y2="-350" stroke="#ddd" stroke-width="1" opacity="1"/><line transform="translate(288,0)" x2="0" y2="-350" stroke="#ddd" stroke-width="1" opacity="1"/><line transform="translate(314,0)" x2="0" y2="-350" stroke="#ddd" stroke-width="1" opacity="1"/><line transform="translate(340,0)" x2="0" y2="-350" stroke="#ddd" stroke-width="1" opacity="1"/><line transform="translate(367,0)" x2="0" y2="-350" stroke="#ddd" stroke-width="1" opacity="1"/><line transform="translate(393,0)" x2="0" y2="-350" stroke="#ddd" stroke-width="1" opacity="1"/><line transform="translate(419,0)" x2="0" y2="-350" stroke="#ddd" stroke-width="1" opacity="1"/><line transform="translate(445,0)" x2="0" y2="-350" stroke="#ddd" stroke-width="1" opacity="1"/><line transform="translate(471,0)" x2="0" y2="-350" stroke="#ddd" stroke-width="1" opacity="1"/><line transform="translate(497,0)" x2="0" y2="-350" stroke="#ddd" stroke-width="1" opacity="1"/><line transform="translate(524,0)" x2="0" y2="-350" stroke="#ddd" stroke-width="1" opacity="1"/><line transform="translate(550,0)" x2="0" y2="-350" stroke="#ddd" stroke-width="1" opacity="1"/><line transform="translate(576,0)" x2="0" y2="-350" stroke="#ddd" stroke-width="1" opacity="1"/><line transform="translate(602,0)" x2="0" y2="-350" stroke="#ddd" stroke-width="1" opacity="1"/><line transform="translate(628,0)" x2="0" y2="-350" stroke="#ddd" stroke-width="1" opacity="1"/><line transform="translate(655,0)" x2="0" y2="-350" stroke="#ddd" stroke-width="1" opacity="1"/><line transform="translate(681,0)" x2="0" y2="-350" stroke="#ddd" stroke-width="1" opacity="1"/><line transform="translate(707,0)" x2="0" y2="-350" stroke="#ddd" stroke-width="1" opacity="1"/></g></g><path class="foreground" aria-hidden="true" d="" pointer-events="none" display="none"/></g></g><g class="mark-group role-axis" role="graphics-symbol" aria-roledescription="axis" aria-label="X-axis titled 'Arbeiten unter Qualifikationsniveau (%)' for a linear scale with values from 0 to 55"><g transform="translate(0.5,350.5)"><path class="background" aria-hidden="true" d="M0,0h0v0h0Z" pointer-events="none"/><g><g class="mark-rule role-axis-tick" pointer-events="none"><line transform="translate(0,0)" x2="0" y2="5" stroke="#888" stroke-width="1" opacity="1"/><line transform="translate(26,0)" x2="0" y2="5" stroke="#888" stroke-width="1" opacity="1"/><line transform="translate(52,0)" x2="0" y2="5" stroke="#888" stroke-width="1" opacity="1"/><line transform="translate(79,0)" x2="0" y2="5" stroke="#888" stroke-width="1" opacity="1"/><line transform="translate(105,0)" x2="0" y2="5" stroke="#888" stroke-width="1" opacity="1"/><line transform="translate(131,0)" x2="0" y2="5" stroke="#888" stroke-width="1" opacity="1"/><line transform="translate(157,0)" x2="0" y2="5" stroke="#888" stroke-width="1" opacity="1"/><line transform="translate(183,0)" x2="0" y2="5" stroke="#888" stroke-width="1" opacity="1"/><line transform="translate(209,0)" x2="0" y2="5" stroke="#888" stroke-width="1" opacity="1"/><line transform="translate(236,0)" x2="0" y2="5" stroke="#888" stroke-width="1" opacity="1"/><line transform="translate(262,0)" x2="0" y2="5" stroke="#888" stroke-width="1" opacity="1"/><line transform="translate(288,0)" x2="0" y2="5" stroke="#888" stroke-width="1" opacity="1"/><line transform="translate(314,0)" x2="0" y2="5" stroke="#888" stroke-width="1" opacity="1"/><line transform="translate(340,0)" x2="0" y2="5" stroke="#888" stroke-width="1" opacity="1"/><line transform="translate(367,0)" x2="0" y2="5" stroke="#888" stroke-width="1" opacity="1"/><line transform="translate(393,0)" x2="0" y2="5" stroke="#888" stroke-width="1" opacity="1"/><line transform="translate(419,0)" x2="0" y2="5" stroke="#888" stroke-width="1" opacity="1"/><line transform="translate(445,0)" x2="0" y2="5" stroke="#888" stroke-width="1" opacity="1"/><line transform="translate(471,0)" x2="0" y2="5" stroke="#888" stroke-width="1" opacity="1"/><line transform="translate(497,0)" x2="0" y2="5" stroke="#888" stroke-width="1" opacity="1"/><line transform="translate(524,0)" x2="0" y2="5" stroke="#888" stroke-width="1" opacity="1"/><line transform="translate(550,0)" x2="0" y2="5" stroke="#888" stroke-width="1" opacity="1"/><line transform="translate(576,0)" x2="0" y2="5" stroke="#888" stroke-width="1" opacity="1"/><line transform="translate(602,0)" x2="0" y2="5" stroke="#888" stroke-width="1" opacity="1"/><line transform="translate(628,0)" x2="0" y2="5" stroke="#888" stroke-width="1" opacity="1"/><line transform="translate(655,0)" x2="0" y2="5" stroke="#888" stroke-width="1" opacity="1"/><line transform="translate(681,0)" x2="0" y2="5" stroke="#888" stroke-width="1" opacity="1"/><line transform="translate(707,0)" x2="0" y2="5" stroke="#888" stroke-width="1" opacity="1"/></g><g class="mark-text role-axis-label" pointer-events="none"><text text-anchor="start" transform="translate(0,15)" font-family="Switzer, system-ui, sans-serif" font-size="10px" fill="#000" opacity="1">0</text><text text-anchor="middle" transform="translate(26.18181818181818,15)" font-family="Switzer, system-ui, sans-serif" font-size="10px" fill="#000" opacity="1">2</text><text text-anchor="middle" transform="translate(52.36363636363636,15)" font-family="Switzer, system-ui, sans-serif" font-size="10px" fill="#000" opacity="1">4</text><text text-anchor="middle" transform="translate(78.54545454545455,15)" font-family="Switzer, system-ui, sans-serif" font-size="10px" fill="#000" opacity="1">6</text><text text-anchor="middle" transform="translate(104.72727272727272,15)" font-family="Switzer, system-ui, sans-serif" font-size="10px" fill="#000" opacity="1">8</text><text text-anchor="middle" transform="translate(130.9090909090909,15)" font-family="Switzer, system-ui, sans-serif" font-size="10px" fill="#000" opacity="1">10</text><text text-anchor="middle" transform="translate(157.0909090909091,15)" font-family="Switzer, system-ui, sans-serif" font-size="10px" fill="#000" opacity="1">12</text><text text-anchor="middle" transform="translate(183.27272727272725,15)" font-family="Switzer, system-ui, sans-serif" font-size="10px" fill="#000" opacity="1">14</text><text text-anchor="middle" transform="translate(209.45454545454544,15)" font-family="Switzer, system-ui, sans-serif" font-size="10px" fill="#000" opacity="1">16</text><text text-anchor="middle" transform="translate(235.63636363636363,15)" font-family="Switzer, system-ui, sans-serif" font-size="10px" fill="#000" opacity="1">18</text><text text-anchor="middle" transform="translate(261.8181818181818,15)" font-family="Switzer, system-ui, sans-serif" font-size="10px" fill="#000" opacity="1">20</text><text text-anchor="middle" transform="translate(288,15)" font-family="Switzer, system-ui, sans-serif" font-size="10px" fill="#000" opacity="1">22</text><text text-anchor="middle" transform="translate(314.1818181818182,15)" font-family="Switzer, system-ui, sans-serif" font-size="10px" fill="#000" opacity="1">24</text><text text-anchor="middle" transform="translate(340.3636363636364,15)" font-family="Switzer, system-ui, sans-serif" font-size="10px" fill="#000" opacity="1">26</text><text text-anchor="middle" transform="translate(366.5454545454545,15)" font-family="Switzer, system-ui, sans-serif" font-size="10px" fill="#000" opacity="1">28</text><text text-anchor="middle" transform="translate(392.7272727272727,15)" font-family="Switzer, system-ui, sans-serif" font-size="10px" fill="#000" opacity="1">30</text><text text-anchor="middle" transform="translate(418.9090909090909,15)" font-family="Switzer, system-ui, sans-serif" font-size="10px" fill="#000" opacity="1">32</text><text text-anchor="middle" transform="translate(445.09090909090907,15)" font-family="Switzer, system-ui, sans-serif" font-size="10px" fill="#000" opacity="1">34</text><text text-anchor="middle" transform="translate(471.27272727272725,15)" font-family="Switzer, system-ui, sans-serif" font-size="10px" fill="#000" opacity="1">36</text><text text-anchor="middle" transform="translate(497.45454545454544,15)" font-family="Switzer, system-ui, sans-serif" font-size="10px" fill="#000" opacity="1">38</text><text text-anchor="middle" transform="translate(523.6363636363636,15)" font-family="Switzer, system-ui, sans-serif" font-size="10px" fill="#000" opacity="1">40</text><text text-anchor="middle" transform="translate(549.8181818181819,15)" font-family="Switzer, system-ui, sans-serif" font-size="10px" fill="#000" opacity="1">42</text><text text-anchor="middle" transform="translate(576,15)" font-family="Switzer, system-ui, sans-serif" font-size="10px" fill="#000" opacity="1">44</text><text text-anchor="middle" transform="translate(602.1818181818181,15)" font-family="Switzer, system-ui, sans-serif" font-size="10px" fill="#000" opacity="1">46</text><text text-anchor="middle" transform="translate(628.3636363636364,15)" font-family="Switzer, system-ui, sans-serif" font-size="10px" fill="#000" opacity="1">48</text><text text-anchor="middle" transform="translate(654.5454545454545,15)" font-family="Switzer, system-ui, sans-serif" font-size="10px" fill="#000" opacity="1">50</text><text text-anchor="middle" transform="translate(680.7272727272727,15)" font-family="Switzer, system-ui, sans-serif" font-size="10px" fill="#000" opacity="1">52</text><text text-anchor="middle" transform="translate(706.9090909090909,15)" font-family="Switzer, system-ui, sans-serif" font-size="10px" fill="#000" opacity="1">54</text></g><g class="mark-rule role-axis-domain" pointer-events="none"><line transform="translate(0,0)" x2="720" y2="0" stroke="#888" stroke-width="1" opacity="1"/></g><g class="mark-text role-axis-title" pointer-events="none"><text text-anchor="middle" transform="translate(360,30)" font-family="Switzer, system-ui, sans-serif" font-size="11px" font-weight="bold" fill="#000" opacity="1">Arbeiten unter Qualifikationsniveau (%)</text></g></g><path class="foreground" aria-hidden="true" d="" pointer-events="none" display="none"/></g></g><g class="mark-group role-axis" role="graphics-symbol" aria-roledescription="axis" aria-label="Y-axis for a discrete scale with 6 values:   davon: Afrika/Nahost, Drittstaaten (Total),   davon: Asien,   davon: Lateinamerika, EU/EFTA-Bürger, Schweizer/innen"><g transform="translate(0.5,0.5)"><path class="background" aria-hidden="true" d="M0,0h0v0h0Z" pointer-events="none"/><g><g class="mark-rule role-axis-tick" pointer-events="none"><line transform="translate(0,29)" x2="-5" y2="0" stroke="#888" stroke-width="1" opacity="1"/><line transform="translate(0,87)" x2="-5" y2="0" stroke="#888" stroke-width="1" opacity="1"/><line transform="translate(0,145)" x2="-5" y2="0" stroke="#888" stroke-width="1" opacity="1"/><line transform="translate(0,204)" x2="-5" y2="0" stroke="#888" stroke-width="1" opacity="1"/><line transform="translate(0,262)" x2="-5" y2="0" stroke="#888" stroke-width="1" opacity="1"/><line transform="translate(0,320)" x2="-5" y2="0" stroke="#888" stroke-width="1" opacity="1"/></g><g class="mark-text role-axis-label" pointer-events="none"><text text-anchor="end" transform="translate(-7,31.666666666666657)" font-family="Switzer, system-ui, sans-serif" font-size="10px" fill="#000" opacity="1">davon: Afrika/Nahost</text><text text-anchor="end" transform="translate(-7,90)" font-family="Switzer, system-ui, sans-serif" font-size="10px" fill="#000" opacity="1">Drittstaaten (Total)</text><text text-anchor="end" transform="translate(-7,148.33333333333331)" font-family="Switzer, system-ui, sans-serif" font-size="10px" fill="#000" opacity="1">davon: Asien</text><text text-anchor="end" transform="translate(-7,206.66666666666666)" font-family="Switzer, system-ui, sans-serif" font-size="10px" fill="#000" opacity="1">davon: Lateinamerika</text><text text-anchor="end" transform="translate(-7,265)" font-family="Switzer, system-ui, sans-serif" font-size="10px" fill="#000" opacity="1">EU/EFTA-Bürger</text><text text-anchor="end" transform="translate(-7,323.33333333333337)" font-family="Switzer, system-ui, sans-serif" font-size="10px" fill="#000" opacity="1">Schweizer/innen</text></g><g class="mark-rule role-axis-domain" pointer-events="none"><line transform="translate(0,0)" x2="0" y2="350" stroke="#888" stroke-width="1" opacity="1"/></g></g><path class="foreground" aria-hidden="true" d="" pointer-events="none" display="none"/></g></g><g class="mark-group role-scope" role="graphics-object" aria-roledescription="group mark container"><g transform="translate(0,294.58333333333337)"><path class="background" aria-hidden="true" d="M0,0L166.1818181818182,0C168.3894782797942,0,170.1818181818182,1.792339902024,170.1818181818182,4L170.1818181818182,48.5C170.1818181818182,50.707660097976,168.3894782797942,52.5,166.1818181818182,52.5L0,52.5C0,52.5,0,52.5,0,52.5L0,0C0,0,0,0,0,0Z"/><g clip-path="url(#clip243)"><g class="mark-group role-scope" role="graphics-object" aria-roledescription="group mark container"><g transform="translate(0,0)"><path class="background" aria-hidden="true" d="M0,0h0v52.5h0Z"/><g><g class="mark-rect role-mark marks" role="graphics-object" aria-roledescription="rect mark container"><path aria-label="Arbeiten unter Qualifikationsniveau (%): 13; Gruppe: Schweizer/innen; Überqualifikation %: 13" role="graphics-symbol" aria-roledescription="bar" d="M0,0h170.1818181818182v52.5h-170.1818181818182Z" fill="rgb(253, 201, 180)"/></g></g><path class="foreground" aria-hidden="true" d="" display="none"/></g></g></g><path class="foreground" aria-hidden="true" d="" display="none"/></g><g transform="translate(0,236.25)"><path class="background" aria-hidden="true" d="M0,0L270.90909090909093,0C273.1167510070669,0,274.90909090909093,1.792339902024,274.90909090909093,4L274.90909090909093,48.5C274.90909090909093,50.707660097976,273.1167510070669,52.5,270.90909090909093,52.5L0,52.5C0,52.5,0,52.5,0,52.5L0,0C0,0,0,0,0,0Z"/><g clip-path="url(#clip244)"><g class="mark-group role-scope" role="graphics-object" aria-roledescription="group mark container"><g transform="translate(0,0)"><path class="background" aria-hidden="true" d="M0,0h0v52.5h0Z"/><g><g class="mark-rect role-mark marks" role="graphics-object" aria-roledescription="rect mark container"><path aria-label="Arbeiten unter Qualifikationsniveau (%): 21; Gruppe: EU/EFTA-Bürger; Überqualifikation %: 21" role="graphics-symbol" aria-roledescription="bar" d="M0,0h274.90909090909093v52.5h-274.90909090909093Z" fill="rgb(252, 151, 121)"/></g></g><path class="foreground" aria-hidden="true" d="" display="none"/></g></g></g><path class="foreground" aria-hidden="true" d="" display="none"/></g><g transform="translate(0,61.24999999999999)"><path class="background" aria-hidden="true" d="M0,0L467.27272727272725,0C469.4803873707032,0,471.27272727272725,1.792339902024,471.27272727272725,4L471.27272727272725,48.5C471.27272727272725,50.707660097976,469.4803873707032,52.5,467.27272727272725,52.5L0,52.5C0,52.5,0,52.5,0,52.5L0,0C0,0,0,0,0,0Z"/><g clip-path="url(#clip245)"><g class="mark-group role-scope" role="graphics-object" aria-roledescription="group mark container"><g transform="translate(0,0)"><path class="background" aria-hidden="true" d="M0,0h0v52.5h0Z"/><g><g class="mark-rect role-mark marks" role="graphics-object" aria-roledescription="rect mark container"><path aria-label="Arbeiten unter Qualifikationsniveau (%): 36; Gruppe: Drittstaaten (Total); Überqualifikation %: 36" role="graphics-symbol" aria-roledescription="bar" d="M0,0h471.27272727272725v52.5h-471.27272727272725Z" fill="rgb(227, 51, 41)"/></g></g><path class="foreground" aria-hidden="true" d="" display="none"/></g></g></g><path class="foreground" aria-hidden="true" d="" display="none"/></g><g transform="translate(0,2.916666666666657)"><path class="background" aria-hidden="true" d="M0,0L624.3636363636364,0C626.5712964616124,0,628.3636363636364,1.792339902024,628.3636363636364,4L628.3636363636364,48.5C628.3636363636364,50.707660097976,626.5712964616124,52.5,624.3636363636364,52.5L0,52.5C0,52.5,0,52.5,0,52.5L0,0C0,0,0,0,0,0Z"/><g clip-path="url(#clip246)"><g class="mark-group role-scope" role="graphics-object" aria-roledescription="group mark container"><g transform="translate(0,0)"><path class="background" aria-hidden="true" d="M0,0h0v52.5h0Z"/><g><g class="mark-rect role-mark marks" role="graphics-object" aria-roledescription="rect mark container"><path aria-label="Arbeiten unter Qualifikationsniveau (%): 48; Gruppe:   davon: Afrika/Nahost; Überqualifikation %: 48" role="graphics-symbol" aria-roledescription="bar" d="M0,0h628.3636363636364v52.5h-628.3636363636364Z" fill="rgb(151, 11, 19)"/></g></g><path class="foreground" aria-hidden="true" d="" display="none"/></g></g></g><path class="foreground" aria-hidden="true" d="" display="none"/></g><g transform="translate(0,119.58333333333333)"><path class="background" aria-hidden="true" d="M0,0L414.9090909090909,0C417.11675100706685,0,418.9090909090909,1.792339902024,418.9090909090909,4L418.9090909090909,48.5C418.9090909090909,50.707660097976,417.11675100706685,52.5,414.9090909090909,52.5L0,52.5C0,52.5,0,52.5,0,52.5L0,0C0,0,0,0,0,0Z"/><g clip-path="url(#clip247)"><g class="mark-group role-scope" role="graphics-object" aria-roledescription="group mark container"><g transform="translate(0,0)"><path class="background" aria-hidden="true" d="M0,0h0v52.5h0Z"/><g><g class="mark-rect role-mark marks" role="graphics-object" aria-roledescription="rect mark container"><path aria-label="Arbeiten unter Qualifikationsniveau (%): 32; Gruppe:   davon: Asien; Überqualifikation %: 32" role="graphics-symbol" aria-roledescription="bar" d="M0,0h418.9090909090909v52.5h-418.9090909090909Z" fill="rgb(242, 77, 56)"/></g></g><path class="foreground" aria-hidden="true" d="" display="none"/></g></g></g><path class="foreground" aria-hidden="true" d="" display="none"/></g><g transform="translate(0,177.91666666666666)"><path class="background" aria-hidden="true" d="M0,0L375.6363636363636,0C377.8440237343396,0,379.6363636363636,1.792339902024,379.6363636363636,4L379.6363636363636,48.5C379.6363636363636,50.707660097976,377.8440237343396,52.5,375.6363636363636,52.5L0,52.5C0,52.5,0,52.5,0,52.5L0,0C0,0,0,0,0,0Z"/><g clip-path="url(#clip248)"><g class="mark-group role-scope" role="graphics-object" aria-roledescription="group mark container"><g transform="translate(0,0)"><path class="background" aria-hidden="true" d="M0,0h0v52.5h0Z"/><g><g class="mark-rect role-mark marks" role="graphics-object" aria-roledescription="rect mark container"><path aria-label="Arbeiten unter Qualifikationsniveau (%): 29; Gruppe:   davon: Lateinamerika; Überqualifikation %: 29" role="graphics-symbol" aria-roledescription="bar" d="M0,0h379.6363636363636v52.5h-379.6363636363636Z" fill="rgb(248, 98, 71)"/></g></g><path class="foreground" aria-hidden="true" d="" display="none"/></g></g></g><path class="foreground" aria-hidden="true" d="" display="none"/></g></g><g class="mark-group role-title"><g transform="translate(360,-17)"><path class="background" aria-hidden="true" d="M0,0h0v0h0Z" pointer-events="none"/><g><g class="mark-text role-title-text" role="graphics-symbol" aria-roledescription="title" aria-label="Title text 'Überqualifikationsrate nach Herkunftsgruppe (BFS/OECD 2023)'" pointer-events="none"><text text-anchor="middle" transform="translate(0,10)" font-family="Switzer, system-ui, sans-serif" font-size="13px" font-weight="bold" fill="#000" opacity="1">Überqualifikationsrate nach Herkunftsgruppe (BFS/OECD 2023)</text></g></g><path class="foreground" aria-hidden="true" d="" pointer-events="none" display="none"/></g></g></g><path class="foreground" aria-hidden="true" d="" display="none"/></g></g></g><defs><clipPath id="clip243"><path d="M0,0L166.1818181818182,0C168.3894782797942,0,170.1818181818182,1.792339902024,170.1818181818182,4L170.1818181818182,48.5C170.1818181818182,50.707660097976,168.3894782797942,52.5,166.1818181818182,52.5L0,52.5C0,52.5,0,52.5,0,52.5L0,0C0,0,0,0,0,0Z"/></clipPath><clipPath id="clip244"><path d="M0,0L270.90909090909093,0C273.1167510070669,0,274.90909090909093,1.792339902024,274.90909090909093,4L274.90909090909093,48.5C274.90909090909093,50.707660097976,273.1167510070669,52.5,270.90909090909093,52.5L0,52.5C0,52.5,0,52.5,0,52.5L0,0C0,0,0,0,0,0Z"/></clipPath><clipPath id="clip245"><path d="M0,0L467.27272727272725,0C469.4803873707032,0,471.27272727272725,1.792339902024,471.27272727272725,4L471.27272727272725,48.5C471.27272727272725,50.707660097976,469.4803873707032,52.5,467.27272727272725,52.5L0,52.5C0,52.5,0,52.5,0,52.5L0,0C0,0,0,0,0,0Z"/></clipPath><clipPath id="clip246"><path d="M0,0L624.3636363636364,0C626.5712964616124,0,628.3636363636364,1.792339902024,628.3636363636364,4L628.3636363636364,48.5C628.3636363636364,50.707660097976,626.5712964616124,52.5,624.3636363636364,52.5L0,52.5C0,52.5,0,52.5,0,52.5L0,0C0,0,0,0,0,0Z"/></clipPath><clipPath id="clip247"><path d="M0,0L414.9090909090909,0C417.11675100706685,0,418.9090909090909,1.792339902024,418.9090909090909,4L418.9090909090909,48.5C418.9090909090909,50.707660097976,417.11675100706685,52.5,414.9090909090909,52.5L0,52.5C0,52.5,0,52.5,0,52.5L0,0C0,0,0,0,0,0Z"/></clipPath><clipPath id="clip248"><path d="M0,0L375.6363636363636,0C377.8440237343396,0,379.6363636363636,1.792339902024,379.6363636363636,4L379.6363636363636,48.5C379.6363636363636,50.707660097976,377.8440237343396,52.5,375.6363636363636,52.5L0,52.5C0,52.5,0,52.5,0,52.5L0,0C0,0,0,0,0,0Z"/></clipPath></defs></svg>