<svg xmlns="http://www.w3.org/2000/svg" xmlns:xlink="http://www.w3.org/1999/xlink" version="1.1" class="marks" width="796" height="459" viewBox="0 0 796 459"><rect width="796" height="459" fill="white"/><g fill="none" stroke-miterlimit="10" transform="translate(70,22)"><g class="mark-group role-frame root" role="graphics-object" aria-roledescription="group mark container"><g transform="translate(0,0)"><path class="background" aria-hidden="true" d="M0.5,0.5h720v400h-720Z"/><g><g class="mark-group role-axis" aria-hidden="true"><g transform="translate(0.5,400.5)"><path class="background" aria-hidden="true" d="M0,0h0v0h0Z" pointer-events="none"/><g><g class="mark-rule role-axis-grid" pointer-events="none"><line transform="translate(0,0)" x2="0" y2="-400" stroke="#ddd" stroke-width="1" opacity="1"/><line transform="translate(51,0)" x2="0" y2="-400" stroke="#ddd" stroke-width="1" opacity="1"/><line transform="translate(103,0)" x2="0" y2="-400" stroke="#ddd" stroke-width="1" opacity="1"/><line transform="translate(154,0)" x2="0" y2="-400" stroke="#ddd" stroke-width="1" opacity="1"/><line transform="translate(206,0)" x2="0" y2="-400" stroke="#ddd" stroke-width="1" opacity="1"/><line transform="translate(257,0)" x2="0" y2="-400" stroke="#ddd" stroke-width="1" opacity="1"/><line transform="translate(309,0)" x2="0" y2="-400" stroke="#ddd" stroke-width="1" opacity="1"/><line transform="translate(360,0)" x2="0" y2="-400" stroke="#ddd" stroke-width="1" opacity="1"/><line transform="translate(411,0)" x2="0" y2="-400" stroke="#ddd" stroke-width="1" opacity="1"/><line transform="translate(463,0)" x2="0" y2="-400" stroke="#ddd" stroke-width="1" opacity="1"/><line transform="translate(514,0)" x2="0" y2="-400" stroke="#ddd" stroke-width="1" opacity="1"/><line transform="translate(566,0)" x2="0" y2="-400" stroke="#ddd" stroke-width="1" opacity="1"/><line transform="translate(617,0)" x2="0" y2="-400" stroke="#ddd" stroke-width="1" opacity="1"/><line transform="translate(669,0)" x2="0" y2="-400" stroke="#ddd" stroke-width="1" opacity="1"/><line transform="translate(720,0)" x2="0" y2="-400" stroke="#ddd" stroke-width="1" opacity="1"/></g></g><path class="foreground" aria-hidden="true" d="" pointer-events="none" display="none"/></g></g><g class="mark-group role-axis" role="graphics-symbol" aria-roledescription="axis" aria-label="X-axis titled 'Nettowanderung (Personen)' for a linear scale with values from 0 to 14,000"><g transform="translate(0.5,400.5)"><path class="background" aria-hidden="true" d="M0,0h0v0h0Z" pointer-events="none"/><g><g class="mark-rule role-axis-tick" pointer-events="none"><line transform="translate(0,0)" x2="0" y2="5" stroke="#888" stroke-width="1" opacity="1"/><line transform="translate(51,0)" x2="0" y2="5" stroke="#888" stroke-width="1" opacity="1"/><line transform="translate(103,0)" x2="0" y2="5" stroke="#888" stroke-width="1" opacity="1"/><line transform="translate(154,0)" x2="0" y2="5" stroke="#888" stroke-width="1" opacity="1"/><line transform="translate(206,0)" x2="0" y2="5" stroke="#888" stroke-width="1" opacity="1"/><line transform="translate(257,0)" x2="0" y2="5" stroke="#888" stroke-width="1" opacity="1"/><line transform="translate(309,0)" x2="0" y2="5" stroke="#888" stroke-width="1" opacity="1"/><line transform="translate(360,0)" x2="0" y2="5" stroke="#888" stroke-width="1" opacity="1"/><line transform="translate(411,0)" x2="0" y2="5" stroke="#888" stroke-width="1" opacity="1"/><line transform="translate(463,0)" x2="0" y2="5" stroke="#888" stroke-width="1" opacity="1"/><line transform="translate(514,0)" x2="0" y2="5" stroke="#888" stroke-width="1" opacity="1"/><line transform="translate(566,0)" x2="0" y2="5" stroke="#888" stroke-width="1" opacity="1"/><line transform="translate(617,0)" x2="0" y2="5" stroke="#888" stroke-width="1" opacity="1"/><line transform="translate(669,0)" x2="0" y2="5" stroke="#888" stroke-width="1" opacity="1"/><line transform="translate(720,0)" x2="0" y2="5" stroke="#888" stroke-width="1" opacity="1"/></g><g class="mark-text role-axis-label" pointer-events="none"><text text-anchor="start" transform="translate(0,15)" font-family="Switzer, system-ui, sans-serif" font-size="10px" fill="#000" opacity="1">0</text><text text-anchor="middle" transform="translate(51.42857142857142,15)" font-family="Switzer, system-ui, sans-serif" font-size="10px" fill="#000" opacity="1">1,000</text><text text-anchor="middle" transform="translate(102.85714285714285,15)" font-family="Switzer, system-ui, sans-serif" font-size="10px" fill="#000" opacity="1">2,000</text><text text-anchor="middle" transform="translate(154.28571428571428,15)" font-family="Switzer, system-ui, sans-serif" font-size="10px" fill="#000" opacity="1">3,000</text><text text-anchor="middle" transform="translate(205.7142857142857,15)" font-family="Switzer, system-ui, sans-serif" font-size="10px" fill="#000" opacity="1">4,000</text><text text-anchor="middle" transform="translate(257.14285714285717,15)" font-family="Switzer, system-ui, sans-serif" font-size="10px" fill="#000" opacity="1">5,000</text><text text-anchor="middle" transform="translate(308.57142857142856,15)" font-family="Switzer, system-ui, sans-serif" font-size="10px" fill="#000" opacity="1">6,000</text><text text-anchor="middle" transform="translate(360,15)" font-family="Switzer, system-ui, sans-serif" font-size="10px" fill="#000" opacity="1">7,000</text><text text-anchor="middle" transform="translate(411.4285714285714,15)" font-family="Switzer, system-ui, sans-serif" font-size="10px" fill="#000" opacity="1">8,000</text><text text-anchor="middle" transform="translate(462.8571428571429,15)" font-family="Switzer, system-ui, sans-serif" font-size="10px" fill="#000" opacity="1">9,000</text><text text-anchor="middle" transform="translate(514.2857142857143,15)" font-family="Switzer, system-ui, sans-serif" font-size="10px" fill="#000" opacity="1">10,000</text><text text-anchor="middle" transform="translate(565.7142857142857,15)" font-family="Switzer, system-ui, sans-serif" font-size="10px" fill="#000" opacity="1">11,000</text><text text-anchor="middle" transform="translate(617.1428571428571,15)" font-family="Switzer, system-ui, sans-serif" font-size="10px" fill="#000" opacity="1">12,000</text><text text-anchor="middle" transform="translate(668.5714285714286,15)" font-family="Switzer, system-ui, sans-serif" font-size="10px" fill="#000" opacity="1">13,000</text><text text-anchor="end" transform="translate(720,15)" font-family="Switzer, system-ui, sans-serif" font-size="10px" fill="#000" opacity="1">14,000</text></g><g class="mark-rule role-axis-domain" pointer-events="none"><line transform="translate(0,0)" x2="720" y2="0" stroke="#888" stroke-width="1" opacity="1"/></g><g class="mark-text role-axis-title" pointer-events="none"><text text-anchor="middle" transform="translate(360,30)" font-family="Switzer, system-ui, sans-serif" font-size="11px" font-weight="bold" fill="#000" opacity="1">Nettowanderung (Personen)</text></g></g><path class="foreground" aria-hidden="true" d="" pointer-events="none" display="none"/></g></g><g class="mark-group role-axis" role="graphics-symbol" aria-roledescription="axis" aria-label="Y-axis for a discrete scale with 9 values: Deutschland, Frankreich, Asien, Italien, Spanien, ending with Portugal"><g transform="translate(0.5,0.5)"><path class="background" aria-hidden="true" d="M0,0h0v0h0Z" pointer-events="none"/><g><g class="mark-rule role-axis-tick" pointer-events="none"><line transform="translate(0,22)" x2="-5" y2="0" stroke="#888" stroke-width="1" opacity="1"/><line transform="translate(0,66)" x2="-5" y2="0" stroke="#888" stroke-width="1" opacity="1"/><line transform="translate(0,111)" x2="-5" y2="0" stroke="#888" stroke-width="1" opacity="1"/><line transform="translate(0,155)" x2="-5" y2="0" stroke="#888" stroke-width="1" opacity="1"/><line transform="translate(0,200)" x2="-5" y2="0" stroke="#888" stroke-width="1" opacity="1"/><line transform="translate(0,244)" x2="-5" y2="0" stroke="#888" stroke-width="1" opacity="1"/><line transform="translate(0,288)" x2="-5" y2="0" stroke="#888" stroke-width="1" opacity="1"/><line transform="translate(0,333)" x2="-5" y2="0" stroke="#888" stroke-width="1" opacity="1"/><line transform="translate(0,377)" x2="-5" y2="0" stroke="#888" stroke-width="1" opacity="1"/></g><g class="mark-text role-axis-label" pointer-events="none"><text text-anchor="end" transform="translate(-7,24.72222222222223)" font-family="Switzer, system-ui, sans-serif" font-size="10px" fill="#000" opacity="1">Deutschland</text><text text-anchor="end" transform="translate(-7,69.16666666666667)" font-family="Switzer, system-ui, sans-serif" font-size="10px" fill="#000" opacity="1">Frankreich</text><text text-anchor="end" transform="translate(-7,113.61111111111111)" font-family="Switzer, system-ui, sans-serif" font-size="10px" fill="#000" opacity="1">Asien</text><text text-anchor="end" transform="translate(-7,158.05555555555554)" font-family="Switzer, system-ui, sans-serif" font-size="10px" fill="#000" opacity="1">Italien</text><text text-anchor="end" transform="translate(-7,202.5)" font-family="Switzer, system-ui, sans-serif" font-size="10px" fill="#000" opacity="1">Spanien</text><text text-anchor="end" transform="translate(-7,246.94444444444446)" font-family="Switzer, system-ui, sans-serif" font-size="10px" fill="#000" opacity="1">Afrika</text><text text-anchor="end" transform="translate(-7,291.38888888888886)" font-family="Switzer, system-ui, sans-serif" font-size="10px" fill="#000" opacity="1">Türkei</text><text text-anchor="end" transform="translate(-7,335.8333333333333)" font-family="Switzer, system-ui, sans-serif" font-size="10px" fill="#000" opacity="1">Amerika</text><text text-anchor="end" transform="translate(-7,380.27777777777777)" font-family="Switzer, system-ui, sans-serif" font-size="10px" fill="#000" opacity="1">Portugal</text></g><g class="mark-rule role-axis-domain" pointer-events="none"><line transform="translate(0,0)" x2="0" y2="400" stroke="#888" stroke-width="1" opacity="1"/></g></g><path class="foreground" aria-hidden="true" d="" pointer-events="none" display="none"/></g></g><g class="mark-group role-scope" role="graphics-object" aria-roledescription="group mark container"><g transform="translate(0,2.2222222222222285)"><path class="background" aria-hidden="true" d="M0,0L683.1371428571429,0C685.3448029551189,0,687.1371428571429,1.792339902024,687.1371428571429,4L687.1371428571429,36C687.1371428571429,38.207660097976,685.3448029551189,40,683.1371428571429,40L0,40C0,40,0,40,0,40L0,0C0,0,0,0,0,0Z"/><g clip-path="url(#clip169)"><g class="mark-group role-scope" role="graphics-object" aria-roledescription="group mark container"><g transform="translate(0,0)"><path class="background" aria-hidden="true" d="M0,0h0v40h0Z"/><g><g class="mark-rect role-mark marks" role="graphics-object" aria-roledescription="rect mark container"><path aria-label="Nettowanderung (Personen): 13361; Land: Deutschland; Nettowanderung: 13361" role="graphics-symbol" aria-roledescription="bar" d="M0,0h687.1371428571429v40h-687.1371428571429Z" fill="rgb(80, 31, 140)"/></g></g><path class="foreground" aria-hidden="true" d="" display="none"/></g></g></g><path class="foreground" aria-hidden="true" d="" display="none"/></g><g transform="translate(0,46.66666666666667)"><path class="background" aria-hidden="true" d="M0,0L533.3257142857143,0C535.5333743836903,0,537.3257142857143,1.792339902024,537.3257142857143,4L537.3257142857143,36C537.3257142857143,38.207660097976,535.5333743836903,40,533.3257142857143,40L0,40C0,40,0,40,0,40L0,0C0,0,0,0,0,0Z"/><g clip-path="url(#clip170)"><g class="mark-group role-scope" role="graphics-object" aria-roledescription="group mark container"><g transform="translate(0,0)"><path class="background" aria-hidden="true" d="M0,0h0v40h0Z"/><g><g class="mark-rect role-mark marks" role="graphics-object" aria-roledescription="rect mark container"><path aria-label="Nettowanderung (Personen): 10448; Land: Frankreich; Nettowanderung: 10448" role="graphics-symbol" aria-roledescription="bar" d="M0,0h537.3257142857143v40h-537.3257142857143Z" fill="rgb(112, 92, 169)"/></g></g><path class="foreground" aria-hidden="true" d="" display="none"/></g></g></g><path class="foreground" aria-hidden="true" d="" display="none"/></g><g transform="translate(0,91.11111111111111)"><path class="background" aria-hidden="true" d="M0,0L490.3314285714286,0C492.5390886694046,0,494.3314285714286,1.792339902024,494.3314285714286,4L494.3314285714286,36C494.3314285714286,38.207660097976,492.5390886694046,40,490.3314285714286,40L0,40C0,40,0,40,0,40L0,0C0,0,0,0,0,0Z"/><g clip-path="url(#clip171)"><g class="mark-group role-scope" role="graphics-object" aria-roledescription="group mark container"><g transform="translate(0,0)"><path class="background" aria-hidden="true" d="M0,0h0v40h0Z"/><g><g class="mark-rect role-mark marks" role="graphics-object" aria-roledescription="rect mark container"><path aria-label="Nettowanderung (Personen): 9612; Land: Asien; Nettowanderung: 9612" role="graphics-symbol" aria-roledescription="bar" d="M0,0h494.3314285714286v40h-494.3314285714286Z" fill="rgb(121, 109, 178)"/></g></g><path class="foreground" aria-hidden="true" d="" display="none"/></g></g></g><path class="foreground" aria-hidden="true" d="" display="none"/></g><g transform="translate(0,135.55555555555554)"><path class="background" aria-hidden="true" d="M0,0L417.56,0C419.767660097976,0,421.56,1.792339902024,421.56,4L421.56,36C421.56,38.207660097976,419.767660097976,40,417.56,40L0,40C0,40,0,40,0,40L0,0C0,0,0,0,0,0Z"/><g clip-path="url(#clip172)"><g class="mark-group role-scope" role="graphics-object" aria-roledescription="group mark container"><g transform="translate(0,0)"><path class="background" aria-hidden="true" d="M0,0h0v40h0Z"/><g><g class="mark-rect role-mark marks" role="graphics-object" aria-roledescription="rect mark container"><path aria-label="Nettowanderung (Personen): 8197; Land: Italien; Nettowanderung: 8197" role="graphics-symbol" aria-roledescription="bar" d="M0,0h421.56v40h-421.56Z" fill="rgb(140, 135, 191)"/></g></g><path class="foreground" aria-hidden="true" d="" display="none"/></g></g></g><path class="foreground" aria-hidden="true" d="" display="none"/></g><g transform="translate(0,180)"><path class="background" aria-hidden="true" d="M0,0L241.6742857142857,0C243.8819458122617,0,245.6742857142857,1.792339902024,245.6742857142857,4L245.6742857142857,36C245.6742857142857,38.207660097976,243.8819458122617,40,241.6742857142857,40L0,40C0,40,0,40,0,40L0,0C0,0,0,0,0,0Z"/><g clip-path="url(#clip173)"><g class="mark-group role-scope" role="graphics-object" aria-roledescription="group mark container"><g transform="translate(0,0)"><path class="background" aria-hidden="true" d="M0,0h0v40h0Z"/><g><g class="mark-rect role-mark marks" role="graphics-object" aria-roledescription="rect mark container"><path aria-label="Nettowanderung (Personen): 4777; Land: Spanien; Nettowanderung: 4777" role="graphics-symbol" aria-roledescription="bar" d="M0,0h245.6742857142857v40h-245.6742857142857Z" fill="rgb(190, 191, 220)"/></g></g><path class="foreground" aria-hidden="true" d="" display="none"/></g></g></g><path class="foreground" aria-hidden="true" d="" display="none"/></g><g transform="translate(0,224.44444444444446)"><path class="background" aria-hidden="true" d="M0,0L241.05714285714285,0C243.26480295511885,0,245.05714285714285,1.792339902024,245.05714285714285,4L245.05714285714285,36C245.05714285714285,38.207660097976,243.26480295511885,40,241.05714285714285,40L0,40C0,40,0,40,0,40L0,0C0,0,0,0,0,0Z"/><g clip-path="url(#clip174)"><g class="mark-group role-scope" role="graphics-object" aria-roledescription="group mark container"><g transform="translate(0,0)"><path class="background" aria-hidden="true" d="M0,0h0v40h0Z"/><g><g class="mark-rect role-mark marks" role="graphics-object" aria-roledescription="rect mark container"><path aria-label="Nettowanderung (Personen): 4765; Land: Afrika; Nettowanderung: 4765" role="graphics-symbol" aria-roledescription="bar" d="M0,0h245.05714285714285v40h-245.05714285714285Z" fill="rgb(190, 191, 221)"/></g></g><path class="foreground" aria-hidden="true" d="" display="none"/></g></g></g><path class="foreground" aria-hidden="true" d="" display="none"/></g><g transform="translate(0,268.88888888888886)"><path class="background" aria-hidden="true" d="M0,0L204.59428571428572,0C206.80194581226172,0,208.59428571428572,1.792339902024,208.59428571428572,4L208.59428571428572,36C208.59428571428572,38.207660097976,206.80194581226172,40,204.59428571428572,40L0,40C0,40,0,40,0,40L0,0C0,0,0,0,0,0Z"/><g clip-path="url(#clip175)"><g class="mark-group role-scope" role="graphics-object" aria-roledescription="group mark container"><g transform="translate(0,0)"><path class="background" aria-hidden="true" d="M0,0h0v40h0Z"/><g><g class="mark-rect role-mark marks" role="graphics-object" aria-roledescription="rect mark container"><path aria-label="Nettowanderung (Personen): 4056; Land: Türkei; Nettowanderung: 4056" role="graphics-symbol" aria-roledescription="bar" d="M0,0h208.59428571428572v40h-208.59428571428572Z" fill="rgb(201, 201, 226)"/></g></g><path class="foreground" aria-hidden="true" d="" display="none"/></g></g></g><path class="foreground" aria-hidden="true" d="" display="none"/></g><g transform="translate(0,313.3333333333333)"><path class="background" aria-hidden="true" d="M0,0L184.64000000000001,0C186.84766009797602,0,188.64000000000001,1.792339902024,188.64000000000001,4L188.64000000000001,36C188.64000000000001,38.207660097976,186.84766009797602,40,184.64000000000001,40L0,40C0,40,0,40,0,40L0,0C0,0,0,0,0,0Z"/><g clip-path="url(#clip176)"><g class="mark-group role-scope" role="graphics-object" aria-roledescription="group mark container"><g transform="translate(0,0)"><path class="background" aria-hidden="true" d="M0,0h0v40h0Z"/><g><g class="mark-rect role-mark marks" role="graphics-object" aria-roledescription="rect mark container"><path aria-label="Nettowanderung (Personen): 3668; Land: Amerika; Nettowanderung: 3668" role="graphics-symbol" aria-roledescription="bar" d="M0,0h188.64000000000001v40h-188.64000000000001Z" fill="rgb(206, 206, 229)"/></g></g><path class="foreground" aria-hidden="true" d="" display="none"/></g></g></g><path class="foreground" aria-hidden="true" d="" display="none"/></g><g transform="translate(0,357.77777777777777)"><path class="background" aria-hidden="true" d="M0,0L105.44,0C107.647660097976,0,109.44,1.792339902024,109.44,4L109.44,36C109.44,38.207660097976,107.647660097976,40,105.44,40L0,40C0,40,0,40,0,40L0,0C0,0,0,0,0,0Z"/><g clip-path="url(#clip177)"><g class="mark-group role-scope" role="graphics-object" aria-roledescription="group mark container"><g transform="translate(0,0)"><path class="background" aria-hidden="true" d="M0,0h0v40h0Z"/><g><g class="mark-rect role-mark marks" role="graphics-object" aria-roledescription="rect mark container"><path aria-label="Nettowanderung (Personen): 2128; Land: Portugal; Nettowanderung: 2128" role="graphics-symbol" aria-roledescription="bar" d="M0,0h109.44v40h-109.44Z" fill="rgb(226, 225, 239)"/></g></g><path class="foreground" aria-hidden="true" d="" display="none"/></g></g></g><path class="foreground" aria-hidden="true" d="" display="none"/></g></g><g class="mark-group role-title"><g transform="translate(360,-17)"><path class="background" aria-hidden="true" d="M0,0h0v0h0Z" pointer-events="none"/><g><g class="mark-text role-title-text" role="graphics-symbol" aria-roledescription="title" aria-label="Title text 'Nettowanderung nach Herkunftsland/Region (2024)'" pointer-events="none"><text text-anchor="middle" transform="translate(0,10)" font-family="Switzer, system-ui, sans-serif" font-size="13px" font-weight="bold" fill="#000" opacity="1">Nettowanderung nach Herkunftsland/Region (2024)</text></g></g><path class="foreground" aria-hidden="true" d="" pointer-events="none" display="none"/></g></g></g><path class="foreground" aria-hidden="true" d="" display="none"/></g></g></g><defs><clipPath id="clip169"><path d="M0,0L683.1371428571429,0C685.3448029551189,0,687.1371428571429,1.792339902024,687.1371428571429,4L687.1371428571429,36C687.1371428571429,38.207660097976,685.3448029551189,40,683.1371428571429,40L0,40C0,40,0,40,0,40L0,0C0,0,0,0,0,0Z"/></clipPath><clipPath id="clip170"><path d="M0,0L533.3257142857143,0C535.5333743836903,0,537.3257142857143,1.792339902024,537.3257142857143,4L537.3257142857143,36C537.3257142857143,38.207660097976,535.5333743836903,40,533.3257142857143,40L0,40C0,40,0,40,0,40L0,0C0,0,0,0,0,0Z"/></clipPath><clipPath id="clip171"><path d="M0,0L490.3314285714286,0C492.5390886694046,0,494.3314285714286,1.792339902024,494.3314285714286,4L494.3314285714286,36C494.3314285714286,38.207660097976,492.5390886694046,40,490.3314285714286,40L0,40C0,40,0,40,0,40L0,0C0,0,0,0,0,0Z"/></clipPath><clipPath id="clip172"><path d="M0,0L417.56,0C419.767660097976,0,421.56,1.792339902024,421.56,4L421.56,36C421.56,38.207660097976,419.767660097976,40,417.56,40L0,40C0,40,0,40,0,40L0,0C0,0,0,0,0,0Z"/></clipPath><clipPath id="clip173"><path d="M0,0L241.6742857142857,0C243.8819458122617,0,245.6742857142857,1.792339902024,245.6742857142857,4L245.6742857142857,36C245.6742857142857,38.207660097976,243.8819458122617,40,241.6742857142857,40L0,40C0,40,0,40,0,40L0,0C0,0,0,0,0,0Z"/></clipPath><clipPath id="clip174"><path d="M0,0L241.05714285714285,0C243.26480295511885,0,245.05714285714285,1.792339902024,245.05714285714285,4L245.05714285714285,36C245.05714285714285,38.207660097976,243.26480295511885,40,241.05714285714285,40L0,40C0,40,0,40,0,40L0,0C0,0,0,0,0,0Z"/></clipPath><clipPath id="clip175"><path d="M0,0L204.59428571428572,0C206.80194581226172,0,208.59428571428572,1.792339902024,208.59428571428572,4L208.59428571428572,36C208.59428571428572,38.207660097976,206.80194581226172,40,204.59428571428572,40L0,40C0,40,0,40,0,40L0,0C0,0,0,0,0,0Z"/></clipPath><clipPath id="clip176"><path d="M0,0L184.64000000000001,0C186.84766009797602,0,188.64000000000001,1.792339902024,188.64000000000001,4L188.64000000000001,36C188.64000000000001,38.207660097976,186.84766009797602,40,184.64000000000001,40L0,40C0,40,0,40,0,40L0,0C0,0,0,0,0,0Z"/></clipPath><clipPath id="clip177"><path d="M0,0L105.44,0C107.647660097976,0,109.44,1.792339902024,109.44,4L109.44,36C109.44,38.207660097976,107.647660097976,40,105.44,40L0,40C0,40,0,40,0,40L0,0C0,0,0,0,0,0Z"/></clipPath></defs></svg>