<svg xmlns="http://www.w3.org/2000/svg" xmlns:xlink="http://www.w3.org/1999/xlink" version="1.1" class="marks" width="795" height="439" viewBox="0 0 795 439"><rect width="795" height="439" fill="white"/><g fill="none" stroke-miterlimit="10" transform="translate(70,22)"><g class="mark-group role-frame root" role="graphics-object" aria-roledescription="group mark container"><g transform="translate(0,0)"><path class="background" aria-hidden="true" d="M0.5,0.5h720v380h-720Z"/><g><g class="mark-group role-axis" aria-hidden="true"><g transform="translate(0.5,380.5)"><path class="background" aria-hidden="true" d="M0,0h0v0h0Z" pointer-events="none"/><g><g class="mark-rule role-axis-grid" pointer-events="none"><line transform="translate(0,0)" x2="0" y2="-380" stroke="#ddd" stroke-width="1" opacity="1"/><line transform="translate(41,0)" x2="0" y2="-380" stroke="#ddd" stroke-width="1" opacity="1"/><line transform="translate(82,0)" x2="0" y2="-380" stroke="#ddd" stroke-width="1" opacity="1"/><line transform="translate(123,0)" x2="0" y2="-380" stroke="#ddd" stroke-width="1" opacity="1"/><line transform="translate(165,0)" x2="0" y2="-380" stroke="#ddd" stroke-width="1" opacity="1"/><line transform="translate(206,0)" x2="0" y2="-380" stroke="#ddd" stroke-width="1" opacity="1"/><line transform="translate(247,0)" x2="0" y2="-380" stroke="#ddd" stroke-width="1" opacity="1"/><line transform="translate(288,0)" x2="0" y2="-380" stroke="#ddd" stroke-width="1" opacity="1"/><line transform="translate(329,0)" x2="0" y2="-380" stroke="#ddd" stroke-width="1" opacity="1"/><line transform="translate(370,0)" x2="0" y2="-380" stroke="#ddd" stroke-width="1" opacity="1"/><line transform="translate(411,0)" x2="0" y2="-380" stroke="#ddd" stroke-width="1" opacity="1"/><line transform="translate(453,0)" x2="0" y2="-380" stroke="#ddd" stroke-width="1" opacity="1"/><line transform="translate(494,0)" x2="0" y2="-380" stroke="#ddd" stroke-width="1" opacity="1"/><line transform="translate(535,0)" x2="0" y2="-380" stroke="#ddd" stroke-width="1" opacity="1"/><line transform="translate(576,0)" x2="0" y2="-380" stroke="#ddd" stroke-width="1" opacity="1"/><line transform="translate(617,0)" x2="0" y2="-380" stroke="#ddd" stroke-width="1" opacity="1"/><line transform="translate(658,0)" x2="0" y2="-380" stroke="#ddd" stroke-width="1" opacity="1"/><line transform="translate(699,0)" x2="0" y2="-380" stroke="#ddd" stroke-width="1" opacity="1"/></g></g><path class="foreground" aria-hidden="true" d="" pointer-events="none" display="none"/></g></g><g class="mark-group role-axis" role="graphics-symbol" aria-roledescription="axis" aria-label="X-axis titled 'Verteidigungsausgaben (% BIP)' for a linear scale with values from 0.0 to 3.5"><g transform="translate(0.5,380.5)"><path class="background" aria-hidden="true" d="M0,0h0v0h0Z" pointer-events="none"/><g><g class="mark-rule role-axis-tick" pointer-events="none"><line transform="translate(0,0)" x2="0" y2="5" stroke="#888" stroke-width="1" opacity="1"/><line transform="translate(41,0)" x2="0" y2="5" stroke="#888" stroke-width="1" opacity="1"/><line transform="translate(82,0)" x2="0" y2="5" stroke="#888" stroke-width="1" opacity="1"/><line transform="translate(123,0)" x2="0" y2="5" stroke="#888" stroke-width="1" opacity="1"/><line transform="translate(165,0)" x2="0" y2="5" stroke="#888" stroke-width="1" opacity="1"/><line transform="translate(206,0)" x2="0" y2="5" stroke="#888" stroke-width="1" opacity="1"/><line transform="translate(247,0)" x2="0" y2="5" stroke="#888" stroke-width="1" opacity="1"/><line transform="translate(288,0)" x2="0" y2="5" stroke="#888" stroke-width="1" opacity="1"/><line transform="translate(329,0)" x2="0" y2="5" stroke="#888" stroke-width="1" opacity="1"/><line transform="translate(370,0)" x2="0" y2="5" stroke="#888" stroke-width="1" opacity="1"/><line transform="translate(411,0)" x2="0" y2="5" stroke="#888" stroke-width="1" opacity="1"/><line transform="translate(453,0)" x2="0" y2="5" stroke="#888" stroke-width="1" opacity="1"/><line transform="translate(494,0)" x2="0" y2="5" stroke="#888" stroke-width="1" opacity="1"/><line transform="translate(535,0)" x2="0" y2="5" stroke="#888" stroke-width="1" opacity="1"/><line transform="translate(576,0)" x2="0" y2="5" stroke="#888" stroke-width="1" opacity="1"/><line transform="translate(617,0)" x2="0" y2="5" stroke="#888" stroke-width="1" opacity="1"/><line transform="translate(658,0)" x2="0" y2="5" stroke="#888" stroke-width="1" opacity="1"/><line transform="translate(699,0)" x2="0" y2="5" stroke="#888" stroke-width="1" opacity="1"/></g><g class="mark-text role-axis-label" pointer-events="none"><text text-anchor="start" transform="translate(0,15)" font-family="Switzer, system-ui, sans-serif" font-size="10px" fill="#000" opacity="1">0.0</text><text text-anchor="middle" transform="translate(41.142857142857146,15)" font-family="Switzer, system-ui, sans-serif" font-size="10px" fill="#000" opacity="1">0.2</text><text text-anchor="middle" transform="translate(82.28571428571429,15)" font-family="Switzer, system-ui, sans-serif" font-size="10px" fill="#000" opacity="1">0.4</text><text text-anchor="middle" transform="translate(123.42857142857143,15)" font-family="Switzer, system-ui, sans-serif" font-size="10px" fill="#000" opacity="1">0.6</text><text text-anchor="middle" transform="translate(164.57142857142858,15)" font-family="Switzer, system-ui, sans-serif" font-size="10px" fill="#000" opacity="1">0.8</text><text text-anchor="middle" transform="translate(205.7142857142857,15)" font-family="Switzer, system-ui, sans-serif" font-size="10px" fill="#000" opacity="1">1.0</text><text text-anchor="middle" transform="translate(246.85714285714286,15)" font-family="Switzer, system-ui, sans-serif" font-size="10px" fill="#000" opacity="1">1.2</text><text text-anchor="middle" transform="translate(288,15)" font-family="Switzer, system-ui, sans-serif" font-size="10px" fill="#000" opacity="1">1.4</text><text text-anchor="middle" transform="translate(329.14285714285717,15)" font-family="Switzer, system-ui, sans-serif" font-size="10px" fill="#000" opacity="1">1.6</text><text text-anchor="middle" transform="translate(370.28571428571433,15)" font-family="Switzer, system-ui, sans-serif" font-size="10px" fill="#000" opacity="1">1.8</text><text text-anchor="middle" transform="translate(411.4285714285714,15)" font-family="Switzer, system-ui, sans-serif" font-size="10px" fill="#000" opacity="1">2.0</text><text text-anchor="middle" transform="translate(452.57142857142867,15)" font-family="Switzer, system-ui, sans-serif" font-size="10px" fill="#000" opacity="1">2.2</text><text text-anchor="middle" transform="translate(493.7142857142857,15)" font-family="Switzer, system-ui, sans-serif" font-size="10px" fill="#000" opacity="1">2.4</text><text text-anchor="middle" transform="translate(534.8571428571429,15)" font-family="Switzer, system-ui, sans-serif" font-size="10px" fill="#000" opacity="1">2.6</text><text text-anchor="middle" transform="translate(576,15)" font-family="Switzer, system-ui, sans-serif" font-size="10px" fill="#000" opacity="1">2.8</text><text text-anchor="middle" transform="translate(617.1428571428571,15)" font-family="Switzer, system-ui, sans-serif" font-size="10px" fill="#000" opacity="1">3.0</text><text text-anchor="middle" transform="translate(658.2857142857143,15)" font-family="Switzer, system-ui, sans-serif" font-size="10px" fill="#000" opacity="1">3.2</text><text text-anchor="middle" transform="translate(699.4285714285714,15)" font-family="Switzer, system-ui, sans-serif" font-size="10px" fill="#000" opacity="1">3.4</text></g><g class="mark-rule role-axis-domain" pointer-events="none"><line transform="translate(0,0)" x2="720" y2="0" stroke="#888" stroke-width="1" opacity="1"/></g><g class="mark-text role-axis-title" pointer-events="none"><text text-anchor="middle" transform="translate(360,30)" font-family="Switzer, system-ui, sans-serif" font-size="11px" font-weight="bold" fill="#000" opacity="1">Verteidigungsausgaben (% BIP)</text></g></g><path class="foreground" aria-hidden="true" d="" pointer-events="none" display="none"/></g></g><g class="mark-group role-axis" role="graphics-symbol" aria-roledescription="axis" aria-label="Y-axis for a discrete scale with 7 values: USA, Finnland, Frankreich, Schweden, Deutschland, Österreich, Schweiz"><g transform="translate(0.5,0.5)"><path class="background" aria-hidden="true" d="M0,0h0v0h0Z" pointer-events="none"/><g><g class="mark-rule role-axis-tick" pointer-events="none"><line transform="translate(0,27)" x2="-5" y2="0" stroke="#888" stroke-width="1" opacity="1"/><line transform="translate(0,81)" x2="-5" y2="0" stroke="#888" stroke-width="1" opacity="1"/><line transform="translate(0,135)" x2="-5" y2="0" stroke="#888" stroke-width="1" opacity="1"/><line transform="translate(0,189)" x2="-5" y2="0" stroke="#888" stroke-width="1" opacity="1"/><line transform="translate(0,244)" x2="-5" y2="0" stroke="#888" stroke-width="1" opacity="1"/><line transform="translate(0,298)" x2="-5" y2="0" stroke="#888" stroke-width="1" opacity="1"/><line transform="translate(0,352)" x2="-5" y2="0" stroke="#888" stroke-width="1" opacity="1"/></g><g class="mark-text role-axis-label" pointer-events="none"><text text-anchor="end" transform="translate(-7,29.64285714285712)" font-family="Switzer, system-ui, sans-serif" font-size="10px" fill="#000" opacity="1">USA</text><text text-anchor="end" transform="translate(-7,83.9285714285714)" font-family="Switzer, system-ui, sans-serif" font-size="10px" fill="#000" opacity="1">Finnland</text><text text-anchor="end" transform="translate(-7,138.2142857142857)" font-family="Switzer, system-ui, sans-serif" font-size="10px" fill="#000" opacity="1">Frankreich</text><text text-anchor="end" transform="translate(-7,192.49999999999997)" font-family="Switzer, system-ui, sans-serif" font-size="10px" fill="#000" opacity="1">Schweden</text><text text-anchor="end" transform="translate(-7,246.78571428571425)" font-family="Switzer, system-ui, sans-serif" font-size="10px" fill="#000" opacity="1">Deutschland</text><text text-anchor="end" transform="translate(-7,301.07142857142856)" font-family="Switzer, system-ui, sans-serif" font-size="10px" fill="#000" opacity="1">Österreich</text><text text-anchor="end" transform="translate(-7,355.3571428571429)" font-family="Switzer, system-ui, sans-serif" font-size="10px" fill="#000" opacity="1">Schweiz</text></g><g class="mark-rule role-axis-domain" pointer-events="none"><line transform="translate(0,0)" x2="0" y2="380" stroke="#888" stroke-width="1" opacity="1"/></g></g><path class="foreground" aria-hidden="true" d="" pointer-events="none" display="none"/></g></g><g class="mark-group role-scope" role="graphics-object" aria-roledescription="group mark container"><g transform="translate(0,2.714285714285694)"><path class="background" aria-hidden="true" d="M0,0L675.68,0C677.887660097976,0,679.68,1.792339902024,679.68,4L679.68,44.857142857142854C679.68,47.06480295511886,677.887660097976,48.857142857142854,675.68,48.857142857142854L0,48.857142857142854C0,48.857142857142854,0,48.857142857142854,0,48.857142857142854L0,0C0,0,0,0,0,0Z"/><g clip-path="url(#clip184)"><g class="mark-group role-scope" role="graphics-object" aria-roledescription="group mark container"><g transform="translate(0,0)"><path class="background" aria-hidden="true" d="M0,0h0v48.857142857142854h0Z"/><g><g class="mark-rect role-mark marks" role="graphics-object" aria-roledescription="rect mark container"><path aria-label="Verteidigungsausgaben (% BIP): 3.304; Land: USA" role="graphics-symbol" aria-roledescription="bar" d="M0,0h679.68v48.857142857142854h-679.68Z" fill="#6b7280"/></g></g><path class="foreground" aria-hidden="true" d="" display="none"/></g></g></g><path class="foreground" aria-hidden="true" d="" display="none"/></g><g transform="translate(0,56.99999999999998)"><path class="background" aria-hidden="true" d="M0,0L409.07428571428574,0C411.2819458122617,0,413.07428571428574,1.792339902024,413.07428571428574,4L413.07428571428574,44.857142857142854C413.07428571428574,47.06480295511886,411.2819458122617,48.857142857142854,409.07428571428574,48.857142857142854L0,48.857142857142854C0,48.857142857142854,0,48.857142857142854,0,48.857142857142854L0,0C0,0,0,0,0,0Z"/><g clip-path="url(#clip185)"><g class="mark-group role-scope" role="graphics-object" aria-roledescription="group mark container"><g transform="translate(0,0)"><path class="background" aria-hidden="true" d="M0,0h0v48.857142857142854h0Z"/><g><g class="mark-rect role-mark marks" role="graphics-object" aria-roledescription="rect mark container"><path aria-label="Verteidigungsausgaben (% BIP): 2.008; Land: Finnland" role="graphics-symbol" aria-roledescription="bar" d="M0,0h413.07428571428574v48.857142857142854h-413.07428571428574Z" fill="#06b6d4"/></g></g><path class="foreground" aria-hidden="true" d="" display="none"/></g></g></g><path class="foreground" aria-hidden="true" d="" display="none"/></g><g transform="translate(0,111.28571428571426)"><path class="background" aria-hidden="true" d="M0,0L397.34857142857146,0C399.55623152654744,0,401.34857142857146,1.792339902024,401.34857142857146,4L401.34857142857146,44.857142857142854C401.34857142857146,47.06480295511886,399.55623152654744,48.857142857142854,397.34857142857146,48.857142857142854L0,48.857142857142854C0,48.857142857142854,0,48.857142857142854,0,48.857142857142854L0,0C0,0,0,0,0,0Z"/><g clip-path="url(#clip186)"><g class="mark-group role-scope" role="graphics-object" aria-roledescription="group mark container"><g transform="translate(0,0)"><path class="background" aria-hidden="true" d="M0,0h0v48.857142857142854h0Z"/><g><g class="mark-rect role-mark marks" role="graphics-object" aria-roledescription="rect mark container"><path aria-label="Verteidigungsausgaben (% BIP): 1.951; Land: Frankreich" role="graphics-symbol" aria-roledescription="bar" d="M0,0h401.34857142857146v48.857142857142854h-401.34857142857146Z" fill="#f59e0b"/></g></g><path class="foreground" aria-hidden="true" d="" display="none"/></g></g></g><path class="foreground" aria-hidden="true" d="" display="none"/></g><g transform="translate(0,165.57142857142856)"><path class="background" aria-hidden="true" d="M0,0L304.77714285714285,0C306.9848029551188,0,308.77714285714285,1.792339902024,308.77714285714285,4L308.77714285714285,44.857142857142854C308.77714285714285,47.06480295511886,306.9848029551188,48.857142857142854,304.77714285714285,48.857142857142854L0,48.857142857142854C0,48.857142857142854,0,48.857142857142854,0,48.857142857142854L0,0C0,0,0,0,0,0Z"/><g clip-path="url(#clip187)"><g class="mark-group role-scope" role="graphics-object" aria-roledescription="group mark container"><g transform="translate(0,0)"><path class="background" aria-hidden="true" d="M0,0h0v48.857142857142854h0Z"/><g><g class="mark-rect role-mark marks" role="graphics-object" aria-roledescription="rect mark container"><path aria-label="Verteidigungsausgaben (% BIP): 1.501; Land: Schweden" role="graphics-symbol" aria-roledescription="bar" d="M0,0h308.77714285714285v48.857142857142854h-308.77714285714285Z" fill="#3b82f6"/></g></g><path class="foreground" aria-hidden="true" d="" display="none"/></g></g></g><path class="foreground" aria-hidden="true" d="" display="none"/></g><g transform="translate(0,219.85714285714283)"><path class="background" aria-hidden="true" d="M0,0L302.10285714285715,0C304.3105172408331,0,306.10285714285715,1.792339902024,306.10285714285715,4L306.10285714285715,44.857142857142854C306.10285714285715,47.06480295511886,304.3105172408331,48.857142857142854,302.10285714285715,48.857142857142854L0,48.857142857142854C0,48.857142857142854,0,48.857142857142854,0,48.857142857142854L0,0C0,0,0,0,0,0Z"/><g clip-path="url(#clip188)"><g class="mark-group role-scope" role="graphics-object" aria-roledescription="group mark container"><g transform="translate(0,0)"><path class="background" aria-hidden="true" d="M0,0h0v48.857142857142854h0Z"/><g><g class="mark-rect role-mark marks" role="graphics-object" aria-roledescription="rect mark container"><path aria-label="Verteidigungsausgaben (% BIP): 1.488; Land: Deutschland" role="graphics-symbol" aria-roledescription="bar" d="M0,0h306.10285714285715v48.857142857142854h-306.10285714285715Z" fill="#10b981"/></g></g><path class="foreground" aria-hidden="true" d="" display="none"/></g></g></g><path class="foreground" aria-hidden="true" d="" display="none"/></g><g transform="translate(0,274.1428571428571)"><path class="background" aria-hidden="true" d="M0,0L175.17714285714285,0C177.38480295511886,0,179.17714285714285,1.792339902024,179.17714285714285,4L179.17714285714285,44.857142857142854C179.17714285714285,47.06480295511886,177.38480295511886,48.857142857142854,175.17714285714285,48.857142857142854L0,48.857142857142854C0,48.857142857142854,0,48.857142857142854,0,48.857142857142854L0,0C0,0,0,0,0,0Z"/><g clip-path="url(#clip189)"><g class="mark-group role-scope" role="graphics-object" aria-roledescription="group mark container"><g transform="translate(0,0)"><path class="background" aria-hidden="true" d="M0,0h0v48.857142857142854h0Z"/><g><g class="mark-rect role-mark marks" role="graphics-object" aria-roledescription="rect mark container"><path aria-label="Verteidigungsausgaben (% BIP): 0.871; Land: Österreich" role="graphics-symbol" aria-roledescription="bar" d="M0,0h179.17714285714285v48.857142857142854h-179.17714285714285Z" fill="#8b5cf6"/></g></g><path class="foreground" aria-hidden="true" d="" display="none"/></g></g></g><path class="foreground" aria-hidden="true" d="" display="none"/></g><g transform="translate(0,328.42857142857144)"><path class="background" aria-hidden="true" d="M0,0L141.2342857142857,0C143.4419458122617,0,145.2342857142857,1.792339902024,145.2342857142857,4L145.2342857142857,44.857142857142854C145.2342857142857,47.06480295511886,143.4419458122617,48.857142857142854,141.2342857142857,48.857142857142854L0,48.857142857142854C0,48.857142857142854,0,48.857142857142854,0,48.857142857142854L0,0C0,0,0,0,0,0Z"/><g clip-path="url(#clip190)"><g class="mark-group role-scope" role="graphics-object" aria-roledescription="group mark container"><g transform="translate(0,0)"><path class="background" aria-hidden="true" d="M0,0h0v48.857142857142854h0Z"/><g><g class="mark-rect role-mark marks" role="graphics-object" aria-roledescription="rect mark container"><path aria-label="Verteidigungsausgaben (% BIP): 0.706; Land: Schweiz" role="graphics-symbol" aria-roledescription="bar" d="M0,0h145.2342857142857v48.857142857142854h-145.2342857142857Z" fill="#a855f7"/></g></g><path class="foreground" aria-hidden="true" d="" display="none"/></g></g></g><path class="foreground" aria-hidden="true" d="" display="none"/></g></g><g class="mark-group role-title"><g transform="translate(360,-17)"><path class="background" aria-hidden="true" d="M0,0h0v0h0Z" pointer-events="none"/><g><g class="mark-text role-title-text" role="graphics-symbol" aria-roledescription="title" aria-label="Title text 'Verteidigungsausgaben im internationalen Vergleich (2023, % BIP)'" pointer-events="none"><text text-anchor="middle" transform="translate(0,10)" font-family="Switzer, system-ui, sans-serif" font-size="13px" font-weight="bold" fill="#000" opacity="1">Verteidigungsausgaben im internationalen Vergleich (2023, % BIP)</text></g></g><path class="foreground" aria-hidden="true" d="" pointer-events="none" display="none"/></g></g></g><path class="foreground" aria-hidden="true" d="" display="none"/></g></g></g><defs><clipPath id="clip184"><path d="M0,0L675.68,0C677.887660097976,0,679.68,1.792339902024,679.68,4L679.68,44.857142857142854C679.68,47.06480295511886,677.887660097976,48.857142857142854,675.68,48.857142857142854L0,48.857142857142854C0,48.857142857142854,0,48.857142857142854,0,48.857142857142854L0,0C0,0,0,0,0,0Z"/></clipPath><clipPath id="clip185"><path d="M0,0L409.07428571428574,0C411.2819458122617,0,413.07428571428574,1.792339902024,413.07428571428574,4L413.07428571428574,44.857142857142854C413.07428571428574,47.06480295511886,411.2819458122617,48.857142857142854,409.07428571428574,48.857142857142854L0,48.857142857142854C0,48.857142857142854,0,48.857142857142854,0,48.857142857142854L0,0C0,0,0,0,0,0Z"/></clipPath><clipPath id="clip186"><path d="M0,0L397.34857142857146,0C399.55623152654744,0,401.34857142857146,1.792339902024,401.34857142857146,4L401.34857142857146,44.857142857142854C401.34857142857146,47.06480295511886,399.55623152654744,48.857142857142854,397.34857142857146,48.857142857142854L0,48.857142857142854C0,48.857142857142854,0,48.857142857142854,0,48.857142857142854L0,0C0,0,0,0,0,0Z"/></clipPath><clipPath id="clip187"><path d="M0,0L304.77714285714285,0C306.9848029551188,0,308.77714285714285,1.792339902024,308.77714285714285,4L308.77714285714285,44.857142857142854C308.77714285714285,47.06480295511886,306.9848029551188,48.857142857142854,304.77714285714285,48.857142857142854L0,48.857142857142854C0,48.857142857142854,0,48.857142857142854,0,48.857142857142854L0,0C0,0,0,0,0,0Z"/></clipPath><clipPath id="clip188"><path d="M0,0L302.10285714285715,0C304.3105172408331,0,306.10285714285715,1.792339902024,306.10285714285715,4L306.10285714285715,44.857142857142854C306.10285714285715,47.06480295511886,304.3105172408331,48.857142857142854,302.10285714285715,48.857142857142854L0,48.857142857142854C0,48.857142857142854,0,48.857142857142854,0,48.857142857142854L0,0C0,0,0,0,0,0Z"/></clipPath><clipPath id="clip189"><path d="M0,0L175.17714285714285,0C177.38480295511886,0,179.17714285714285,1.792339902024,179.17714285714285,4L179.17714285714285,44.857142857142854C179.17714285714285,47.06480295511886,177.38480295511886,48.857142857142854,175.17714285714285,48.857142857142854L0,48.857142857142854C0,48.857142857142854,0,48.857142857142854,0,48.857142857142854L0,0C0,0,0,0,0,0Z"/></clipPath><clipPath id="clip190"><path d="M0,0L141.2342857142857,0C143.4419458122617,0,145.2342857142857,1.792339902024,145.2342857142857,4L145.2342857142857,44.857142857142854C145.2342857142857,47.06480295511886,143.4419458122617,48.857142857142854,141.2342857142857,48.857142857142854L0,48.857142857142854C0,48.857142857142854,0,48.857142857142854,0,48.857142857142854L0,0C0,0,0,0,0,0Z"/></clipPath></defs></svg>