<svg xmlns="http://www.w3.org/2000/svg" xmlns:xlink="http://www.w3.org/1999/xlink" version="1.1" class="marks" width="898" height="439" viewBox="0 0 898 439"><rect width="898" height="439" fill="white"/><g fill="none" stroke-miterlimit="10" transform="translate(80,22)"><g class="mark-group role-frame root" role="graphics-object" aria-roledescription="group mark container"><g transform="translate(0,0)"><path class="background" aria-hidden="true" d="M0.5,0.5h720v380h-720Z"/><g><g class="mark-group role-axis" aria-hidden="true"><g transform="translate(0.5,380.5)"><path class="background" aria-hidden="true" d="M0,0h0v0h0Z" pointer-events="none"/><g><g class="mark-rule role-axis-grid" pointer-events="none"><line transform="translate(0,0)" x2="0" y2="-380" stroke="#ddd" stroke-width="1" opacity="1"/><line transform="translate(36,0)" x2="0" y2="-380" stroke="#ddd" stroke-width="1" opacity="1"/><line transform="translate(72,0)" x2="0" y2="-380" stroke="#ddd" stroke-width="1" opacity="1"/><line transform="translate(108,0)" x2="0" y2="-380" stroke="#ddd" stroke-width="1" opacity="1"/><line transform="translate(144,0)" x2="0" y2="-380" stroke="#ddd" stroke-width="1" opacity="1"/><line transform="translate(180,0)" x2="0" y2="-380" stroke="#ddd" stroke-width="1" opacity="1"/><line transform="translate(216,0)" x2="0" y2="-380" stroke="#ddd" stroke-width="1" opacity="1"/><line transform="translate(252,0)" x2="0" y2="-380" stroke="#ddd" stroke-width="1" opacity="1"/><line transform="translate(288,0)" x2="0" y2="-380" stroke="#ddd" stroke-width="1" opacity="1"/><line transform="translate(324,0)" x2="0" y2="-380" stroke="#ddd" stroke-width="1" opacity="1"/><line transform="translate(360,0)" x2="0" y2="-380" stroke="#ddd" stroke-width="1" opacity="1"/><line transform="translate(396,0)" x2="0" y2="-380" stroke="#ddd" stroke-width="1" opacity="1"/><line transform="translate(432,0)" x2="0" y2="-380" stroke="#ddd" stroke-width="1" opacity="1"/><line transform="translate(468,0)" x2="0" y2="-380" stroke="#ddd" stroke-width="1" opacity="1"/><line transform="translate(504,0)" x2="0" y2="-380" stroke="#ddd" stroke-width="1" opacity="1"/><line transform="translate(540,0)" x2="0" y2="-380" stroke="#ddd" stroke-width="1" opacity="1"/><line transform="translate(576,0)" x2="0" y2="-380" stroke="#ddd" stroke-width="1" opacity="1"/><line transform="translate(612,0)" x2="0" y2="-380" stroke="#ddd" stroke-width="1" opacity="1"/><line transform="translate(648,0)" x2="0" y2="-380" stroke="#ddd" stroke-width="1" opacity="1"/><line transform="translate(684,0)" x2="0" y2="-380" stroke="#ddd" stroke-width="1" opacity="1"/><line transform="translate(720,0)" x2="0" y2="-380" stroke="#ddd" stroke-width="1" opacity="1"/></g></g><path class="foreground" aria-hidden="true" d="" pointer-events="none" display="none"/></g></g><g class="mark-group role-axis" role="graphics-symbol" aria-roledescription="axis" aria-label="X-axis titled 'USD pro aktivem Soldaten/AdA' for a linear scale with values from 0 to 400,000"><g transform="translate(0.5,380.5)"><path class="background" aria-hidden="true" d="M0,0h0v0h0Z" pointer-events="none"/><g><g class="mark-rule role-axis-tick" pointer-events="none"><line transform="translate(0,0)" x2="0" y2="5" stroke="#888" stroke-width="1" opacity="1"/><line transform="translate(36,0)" x2="0" y2="5" stroke="#888" stroke-width="1" opacity="1"/><line transform="translate(72,0)" x2="0" y2="5" stroke="#888" stroke-width="1" opacity="1"/><line transform="translate(108,0)" x2="0" y2="5" stroke="#888" stroke-width="1" opacity="1"/><line transform="translate(144,0)" x2="0" y2="5" stroke="#888" stroke-width="1" opacity="1"/><line transform="translate(180,0)" x2="0" y2="5" stroke="#888" stroke-width="1" opacity="1"/><line transform="translate(216,0)" x2="0" y2="5" stroke="#888" stroke-width="1" opacity="1"/><line transform="translate(252,0)" x2="0" y2="5" stroke="#888" stroke-width="1" opacity="1"/><line transform="translate(288,0)" x2="0" y2="5" stroke="#888" stroke-width="1" opacity="1"/><line transform="translate(324,0)" x2="0" y2="5" stroke="#888" stroke-width="1" opacity="1"/><line transform="translate(360,0)" x2="0" y2="5" stroke="#888" stroke-width="1" opacity="1"/><line transform="translate(396,0)" x2="0" y2="5" stroke="#888" stroke-width="1" opacity="1"/><line transform="translate(432,0)" x2="0" y2="5" stroke="#888" stroke-width="1" opacity="1"/><line transform="translate(468,0)" x2="0" y2="5" stroke="#888" stroke-width="1" opacity="1"/><line transform="translate(504,0)" x2="0" y2="5" stroke="#888" stroke-width="1" opacity="1"/><line transform="translate(540,0)" x2="0" y2="5" stroke="#888" stroke-width="1" opacity="1"/><line transform="translate(576,0)" x2="0" y2="5" stroke="#888" stroke-width="1" opacity="1"/><line transform="translate(612,0)" x2="0" y2="5" stroke="#888" stroke-width="1" opacity="1"/><line transform="translate(648,0)" x2="0" y2="5" stroke="#888" stroke-width="1" opacity="1"/><line transform="translate(684,0)" x2="0" y2="5" stroke="#888" stroke-width="1" opacity="1"/><line transform="translate(720,0)" x2="0" y2="5" stroke="#888" stroke-width="1" opacity="1"/></g><g class="mark-text role-axis-label" pointer-events="none"><text text-anchor="start" transform="translate(0,15)" font-family="Switzer, system-ui, sans-serif" font-size="10px" fill="#000" opacity="1">0</text><text text-anchor="middle" transform="translate(36,15)" font-family="Switzer, system-ui, sans-serif" font-size="10px" fill="#000" opacity="0">20,000</text><text text-anchor="middle" transform="translate(72,15)" font-family="Switzer, system-ui, sans-serif" font-size="10px" fill="#000" opacity="1">40,000</text><text text-anchor="middle" transform="translate(108,15)" font-family="Switzer, system-ui, sans-serif" font-size="10px" fill="#000" opacity="0">60,000</text><text text-anchor="middle" transform="translate(144,15)" font-family="Switzer, system-ui, sans-serif" font-size="10px" fill="#000" opacity="1">80,000</text><text text-anchor="middle" transform="translate(180,15)" font-family="Switzer, system-ui, sans-serif" font-size="10px" fill="#000" opacity="0">100,000</text><text text-anchor="middle" transform="translate(216,15)" font-family="Switzer, system-ui, sans-serif" font-size="10px" fill="#000" opacity="1">120,000</text><text text-anchor="middle" transform="translate(251.99999999999997,15)" font-family="Switzer, system-ui, sans-serif" font-size="10px" fill="#000" opacity="0">140,000</text><text text-anchor="middle" transform="translate(288,15)" font-family="Switzer, system-ui, sans-serif" font-size="10px" fill="#000" opacity="1">160,000</text><text text-anchor="middle" transform="translate(324,15)" font-family="Switzer, system-ui, sans-serif" font-size="10px" fill="#000" opacity="0">180,000</text><text text-anchor="middle" transform="translate(360,15)" font-family="Switzer, system-ui, sans-serif" font-size="10px" fill="#000" opacity="1">200,000</text><text text-anchor="middle" transform="translate(396.00000000000006,15)" font-family="Switzer, system-ui, sans-serif" font-size="10px" fill="#000" opacity="0">220,000</text><text text-anchor="middle" transform="translate(432,15)" font-family="Switzer, system-ui, sans-serif" font-size="10px" fill="#000" opacity="1">240,000</text><text text-anchor="middle" transform="translate(468,15)" font-family="Switzer, system-ui, sans-serif" font-size="10px" fill="#000" opacity="0">260,000</text><text text-anchor="middle" transform="translate(503.99999999999994,15)" font-family="Switzer, system-ui, sans-serif" font-size="10px" fill="#000" opacity="1">280,000</text><text text-anchor="middle" transform="translate(540,15)" font-family="Switzer, system-ui, sans-serif" font-size="10px" fill="#000" opacity="0">300,000</text><text text-anchor="middle" transform="translate(576,15)" font-family="Switzer, system-ui, sans-serif" font-size="10px" fill="#000" opacity="1">320,000</text><text text-anchor="middle" transform="translate(612,15)" font-family="Switzer, system-ui, sans-serif" font-size="10px" fill="#000" opacity="0">340,000</text><text text-anchor="middle" transform="translate(648,15)" font-family="Switzer, system-ui, sans-serif" font-size="10px" fill="#000" opacity="1">360,000</text><text text-anchor="middle" transform="translate(684,15)" font-family="Switzer, system-ui, sans-serif" font-size="10px" fill="#000" opacity="0">380,000</text><text text-anchor="end" transform="translate(720,15)" font-family="Switzer, system-ui, sans-serif" font-size="10px" fill="#000" opacity="1">400,000</text></g><g class="mark-rule role-axis-domain" pointer-events="none"><line transform="translate(0,0)" x2="720" y2="0" stroke="#888" stroke-width="1" opacity="1"/></g><g class="mark-text role-axis-title" pointer-events="none"><text text-anchor="middle" transform="translate(360,30)" font-family="Switzer, system-ui, sans-serif" font-size="11px" font-weight="bold" fill="#000" opacity="1">USD pro aktivem Soldaten/AdA</text></g></g><path class="foreground" aria-hidden="true" d="" pointer-events="none" display="none"/></g></g><g class="mark-group role-axis" role="graphics-symbol" aria-roledescription="axis" aria-label="Y-axis for a discrete scale with 6 values: Schweden, Deutschland, Finnland, Österreich, Israel, Schweiz (Miliz)"><g transform="translate(0.5,0.5)"><path class="background" aria-hidden="true" d="M0,0h0v0h0Z" pointer-events="none"/><g><g class="mark-rule role-axis-tick" pointer-events="none"><line transform="translate(0,31)" x2="-5" y2="0" stroke="#888" stroke-width="1" opacity="1"/><line transform="translate(0,95)" x2="-5" y2="0" stroke="#888" stroke-width="1" opacity="1"/><line transform="translate(0,158)" x2="-5" y2="0" stroke="#888" stroke-width="1" opacity="1"/><line transform="translate(0,221)" x2="-5" y2="0" stroke="#888" stroke-width="1" opacity="1"/><line transform="translate(0,285)" x2="-5" y2="0" stroke="#888" stroke-width="1" opacity="1"/><line transform="translate(0,348)" x2="-5" y2="0" stroke="#888" stroke-width="1" opacity="1"/></g><g class="mark-text role-axis-label" pointer-events="none"><text text-anchor="end" transform="translate(-7,34.16666666666666)" font-family="Switzer, system-ui, sans-serif" font-size="10px" fill="#000" opacity="1">Schweden</text><text text-anchor="end" transform="translate(-7,97.5)" font-family="Switzer, system-ui, sans-serif" font-size="10px" fill="#000" opacity="1">Deutschland</text><text text-anchor="end" transform="translate(-7,160.83333333333331)" font-family="Switzer, system-ui, sans-serif" font-size="10px" fill="#000" opacity="1">Finnland</text><text text-anchor="end" transform="translate(-7,224.16666666666666)" font-family="Switzer, system-ui, sans-serif" font-size="10px" fill="#000" opacity="1">Österreich</text><text text-anchor="end" transform="translate(-7,287.5)" font-family="Switzer, system-ui, sans-serif" font-size="10px" fill="#000" opacity="1">Israel</text><text text-anchor="end" transform="translate(-7,350.83333333333337)" font-family="Switzer, system-ui, sans-serif" font-size="10px" fill="#000" opacity="1">Schweiz (Miliz)</text></g><g class="mark-rule role-axis-domain" pointer-events="none"><line transform="translate(0,0)" x2="0" y2="380" stroke="#888" stroke-width="1" opacity="1"/></g></g><path class="foreground" aria-hidden="true" d="" pointer-events="none" display="none"/></g></g><g class="mark-group role-scope" role="graphics-object" aria-roledescription="group mark container"><g transform="translate(0,319.83333333333337)"><path class="background" aria-hidden="true" d="M0,0L74.42779999999999,0C76.635460097976,0,78.42779999999999,1.792339902024,78.42779999999999,4L78.42779999999999,53C78.42779999999999,55.207660097976,76.635460097976,57,74.42779999999999,57L0,57C0,57,0,57,0,57L0,0C0,0,0,0,0,0Z"/><g clip-path="url(#clip256)"><g class="mark-group role-scope" role="graphics-object" aria-roledescription="group mark container"><g transform="translate(0,0)"><path class="background" aria-hidden="true" d="M0,0h0v57h0Z"/><g><g class="mark-rect role-mark marks" role="graphics-object" aria-roledescription="rect mark container"><path aria-label="USD pro aktivem Soldaten/AdA: 43571; Land: Schweiz (Miliz); System: Miliz" role="graphics-symbol" aria-roledescription="bar" d="M0,0h78.42779999999999v57h-78.42779999999999Z" fill="#a855f7"/></g></g><path class="foreground" aria-hidden="true" d="" display="none"/></g></g></g><path class="foreground" aria-hidden="true" d="" display="none"/></g><g transform="translate(0,193.16666666666666)"><path class="background" aria-hidden="true" d="M0,0L282.6662,0C284.873860097976,0,286.6662,1.792339902024,286.6662,4L286.6662,53C286.6662,55.207660097976,284.873860097976,57,282.6662,57L0,57C0,57,0,57,0,57L0,0C0,0,0,0,0,0Z"/><g clip-path="url(#clip257)"><g class="mark-group role-scope" role="graphics-object" aria-roledescription="group mark container"><g transform="translate(0,0)"><path class="background" aria-hidden="true" d="M0,0h0v57h0Z"/><g><g class="mark-rect role-mark marks" role="graphics-object" aria-roledescription="rect mark container"><path aria-label="USD pro aktivem Soldaten/AdA: 159259; Land: Österreich; System: Berufsarmee" role="graphics-symbol" aria-roledescription="bar" d="M0,0h286.6662v57h-286.6662Z" fill="#6b7280"/></g></g><path class="foreground" aria-hidden="true" d="" display="none"/></g></g></g><path class="foreground" aria-hidden="true" d="" display="none"/></g><g transform="translate(0,3.166666666666657)"><path class="background" aria-hidden="true" d="M0,0L711.5738,0C713.781460097976,0,715.5738,1.792339902024,715.5738,4L715.5738,53C715.5738,55.207660097976,713.781460097976,57,711.5738,57L0,57C0,57,0,57,0,57L0,0C0,0,0,0,0,0Z"/><g clip-path="url(#clip258)"><g class="mark-group role-scope" role="graphics-object" aria-roledescription="group mark container"><g transform="translate(0,0)"><path class="background" aria-hidden="true" d="M0,0h0v57h0Z"/><g><g class="mark-rect role-mark marks" role="graphics-object" aria-roledescription="rect mark container"><path aria-label="USD pro aktivem Soldaten/AdA: 397541; Land: Schweden; System: Berufsarmee" role="graphics-symbol" aria-roledescription="bar" d="M0,0h715.5738v57h-715.5738Z" fill="#6b7280"/></g></g><path class="foreground" aria-hidden="true" d="" display="none"/></g></g></g><path class="foreground" aria-hidden="true" d="" display="none"/></g><g transform="translate(0,129.83333333333331)"><path class="background" aria-hidden="true" d="M0,0L390.839,0C393.046660097976,0,394.839,1.792339902024,394.839,4L394.839,53C394.839,55.207660097976,393.046660097976,57,390.839,57L0,57C0,57,0,57,0,57L0,0C0,0,0,0,0,0Z"/><g clip-path="url(#clip259)"><g class="mark-group role-scope" role="graphics-object" aria-roledescription="group mark container"><g transform="translate(0,0)"><path class="background" aria-hidden="true" d="M0,0h0v57h0Z"/><g><g class="mark-rect role-mark marks" role="graphics-object" aria-roledescription="rect mark container"><path aria-label="USD pro aktivem Soldaten/AdA: 219355; Land: Finnland; System: Wehrpflicht" role="graphics-symbol" aria-roledescription="bar" d="M0,0h394.839v57h-394.839Z" fill="#3b82f6"/></g></g><path class="foreground" aria-hidden="true" d="" display="none"/></g></g></g><path class="foreground" aria-hidden="true" d="" display="none"/></g><g transform="translate(0,66.5)"><path class="background" aria-hidden="true" d="M0,0L658.1138,0C660.321460097976,0,662.1138,1.792339902024,662.1138,4L662.1138,53C662.1138,55.207660097976,660.321460097976,57,658.1138,57L0,57C0,57,0,57,0,57L0,0C0,0,0,0,0,0Z"/><g clip-path="url(#clip260)"><g class="mark-group role-scope" role="graphics-object" aria-roledescription="group mark container"><g transform="translate(0,0)"><path class="background" aria-hidden="true" d="M0,0h0v57h0Z"/><g><g class="mark-rect role-mark marks" role="graphics-object" aria-roledescription="rect mark container"><path aria-label="USD pro aktivem Soldaten/AdA: 367841; Land: Deutschland; System: Berufsarmee" role="graphics-symbol" aria-roledescription="bar" d="M0,0h662.1138v57h-662.1138Z" fill="#6b7280"/></g></g><path class="foreground" aria-hidden="true" d="" display="none"/></g></g></g><path class="foreground" aria-hidden="true" d="" display="none"/></g><g transform="translate(0,256.5)"><path class="background" aria-hidden="true" d="M0,0L244.49540000000002,0C246.70306009797602,0,248.49540000000002,1.792339902024,248.49540000000002,4L248.49540000000002,53C248.49540000000002,55.207660097976,246.70306009797602,57,244.49540000000002,57L0,57C0,57,0,57,0,57L0,0C0,0,0,0,0,0Z"/><g clip-path="url(#clip261)"><g class="mark-group role-scope" role="graphics-object" aria-roledescription="group mark container"><g transform="translate(0,0)"><path class="background" aria-hidden="true" d="M0,0h0v57h0Z"/><g><g class="mark-rect role-mark marks" role="graphics-object" aria-roledescription="rect mark container"><path aria-label="USD pro aktivem Soldaten/AdA: 138053; Land: Israel; System: Wehrpflicht" role="graphics-symbol" aria-roledescription="bar" d="M0,0h248.49540000000002v57h-248.49540000000002Z" fill="#3b82f6"/></g></g><path class="foreground" aria-hidden="true" d="" display="none"/></g></g></g><path class="foreground" aria-hidden="true" d="" display="none"/></g></g><g class="mark-group role-legend" role="graphics-symbol" aria-roledescription="legend" aria-label="Symbol legend titled 'System' for fill color with 3 values: Miliz, Wehrpflicht, Berufsarmee"><g transform="translate(738,0)"><path class="background" aria-hidden="true" d="M0,0h75v53h-75Z" pointer-events="none"/><g><g class="mark-group role-legend-entry"><g transform="translate(0,16)"><path class="background" aria-hidden="true" d="M0,0h0v0h0Z" pointer-events="none"/><g><g class="mark-group role-scope" role="graphics-object" aria-roledescription="group mark container"><g transform="translate(0,0)"><path class="background" aria-hidden="true" d="M0,0h74.81999969482422v11h-74.81999969482422Z" pointer-events="none" opacity="1"/><g><g class="mark-symbol role-legend-symbol" pointer-events="none"><path transform="translate(6,6)" d="M-5,-5h10v10h-10Z" fill="#a855f7" stroke-width="1.5" opacity="1"/></g><g class="mark-text role-legend-label" pointer-events="none"><text text-anchor="start" transform="translate(16,9)" font-family="Switzer, system-ui, sans-serif" font-size="10px" fill="#000" opacity="1">Miliz</text></g></g><path class="foreground" aria-hidden="true" d="" pointer-events="none" display="none"/></g><g transform="translate(0,13)"><path class="background" aria-hidden="true" d="M0,0h74.81999969482422v11h-74.81999969482422Z" pointer-events="none" opacity="1"/><g><g class="mark-symbol role-legend-symbol" pointer-events="none"><path transform="translate(6,6)" d="M-5,-5h10v10h-10Z" fill="#3b82f6" stroke-width="1.5" opacity="1"/></g><g class="mark-text role-legend-label" pointer-events="none"><text text-anchor="start" transform="translate(16,9)" font-family="Switzer, system-ui, sans-serif" font-size="10px" fill="#000" opacity="1">Wehrpflicht</text></g></g><path class="foreground" aria-hidden="true" d="" pointer-events="none" display="none"/></g><g transform="translate(0,26)"><path class="background" aria-hidden="true" d="M0,0h74.81999969482422v11h-74.81999969482422Z" pointer-events="none" opacity="1"/><g><g class="mark-symbol role-legend-symbol" pointer-events="none"><path transform="translate(6,6)" d="M-5,-5h10v10h-10Z" fill="#6b7280" stroke-width="1.5" opacity="1"/></g><g class="mark-text role-legend-label" pointer-events="none"><text text-anchor="start" transform="translate(16,9)" font-family="Switzer, system-ui, sans-serif" font-size="10px" fill="#000" opacity="1">Berufsarmee</text></g></g><path class="foreground" aria-hidden="true" d="" pointer-events="none" display="none"/></g></g></g><path class="foreground" aria-hidden="true" d="" pointer-events="none" display="none"/></g></g><g class="mark-text role-legend-title" pointer-events="none"><text text-anchor="start" transform="translate(0,9)" font-family="Switzer, system-ui, sans-serif" font-size="11px" font-weight="bold" fill="#000" opacity="1">System</text></g></g><path class="foreground" aria-hidden="true" d="" pointer-events="none" display="none"/></g></g><g class="mark-group role-title"><g transform="translate(360,-17)"><path class="background" aria-hidden="true" d="M0,0h0v0h0Z" pointer-events="none"/><g><g class="mark-text role-title-text" role="graphics-symbol" aria-roledescription="title" aria-label="Title text 'Verteidigungsausgaben pro aktivem Soldaten (USD, 2023/24)'" pointer-events="none"><text text-anchor="middle" transform="translate(0,10)" font-family="Switzer, system-ui, sans-serif" font-size="13px" font-weight="bold" fill="#000" opacity="1">Verteidigungsausgaben pro aktivem Soldaten (USD, 2023/24)</text></g></g><path class="foreground" aria-hidden="true" d="" pointer-events="none" display="none"/></g></g></g><path class="foreground" aria-hidden="true" d="" display="none"/></g></g></g><defs><clipPath id="clip256"><path d="M0,0L74.42779999999999,0C76.635460097976,0,78.42779999999999,1.792339902024,78.42779999999999,4L78.42779999999999,53C78.42779999999999,55.207660097976,76.635460097976,57,74.42779999999999,57L0,57C0,57,0,57,0,57L0,0C0,0,0,0,0,0Z"/></clipPath><clipPath id="clip257"><path d="M0,0L282.6662,0C284.873860097976,0,286.6662,1.792339902024,286.6662,4L286.6662,53C286.6662,55.207660097976,284.873860097976,57,282.6662,57L0,57C0,57,0,57,0,57L0,0C0,0,0,0,0,0Z"/></clipPath><clipPath id="clip258"><path d="M0,0L711.5738,0C713.781460097976,0,715.5738,1.792339902024,715.5738,4L715.5738,53C715.5738,55.207660097976,713.781460097976,57,711.5738,57L0,57C0,57,0,57,0,57L0,0C0,0,0,0,0,0Z"/></clipPath><clipPath id="clip259"><path d="M0,0L390.839,0C393.046660097976,0,394.839,1.792339902024,394.839,4L394.839,53C394.839,55.207660097976,393.046660097976,57,390.839,57L0,57C0,57,0,57,0,57L0,0C0,0,0,0,0,0Z"/></clipPath><clipPath id="clip260"><path d="M0,0L658.1138,0C660.321460097976,0,662.1138,1.792339902024,662.1138,4L662.1138,53C662.1138,55.207660097976,660.321460097976,57,658.1138,57L0,57C0,57,0,57,0,57L0,0C0,0,0,0,0,0Z"/></clipPath><clipPath id="clip261"><path d="M0,0L244.49540000000002,0C246.70306009797602,0,248.49540000000002,1.792339902024,248.49540000000002,4L248.49540000000002,53C248.49540000000002,55.207660097976,246.70306009797602,57,244.49540000000002,57L0,57C0,57,0,57,0,57L0,0C0,0,0,0,0,0Z"/></clipPath></defs></svg>