<svg xmlns="http://www.w3.org/2000/svg" xmlns:xlink="http://www.w3.org/1999/xlink" version="1.1" class="marks" width="767" height="359" viewBox="0 0 767 359"><rect width="767" height="359" fill="white"/><g fill="none" stroke-miterlimit="10" transform="translate(41,22)"><g class="mark-group role-frame root" role="graphics-object" aria-roledescription="group mark container"><g transform="translate(0,0)"><path class="background" aria-hidden="true" d="M0.5,0.5h720v300h-720Z"/><g><g class="mark-group role-axis" aria-hidden="true"><g transform="translate(0.5,300.5)"><path class="background" aria-hidden="true" d="M0,0h0v0h0Z" pointer-events="none"/><g><g class="mark-rule role-axis-grid" pointer-events="none"><line transform="translate(0,0)" x2="0" y2="-300" stroke="#ddd" stroke-width="1" opacity="1"/><line transform="translate(36,0)" x2="0" y2="-300" stroke="#ddd" stroke-width="1" opacity="1"/><line transform="translate(72,0)" x2="0" y2="-300" stroke="#ddd" stroke-width="1" opacity="1"/><line transform="translate(108,0)" x2="0" y2="-300" stroke="#ddd" stroke-width="1" opacity="1"/><line transform="translate(144,0)" x2="0" y2="-300" stroke="#ddd" stroke-width="1" opacity="1"/><line transform="translate(180,0)" x2="0" y2="-300" stroke="#ddd" stroke-width="1" opacity="1"/><line transform="translate(216,0)" x2="0" y2="-300" stroke="#ddd" stroke-width="1" opacity="1"/><line transform="translate(252,0)" x2="0" y2="-300" stroke="#ddd" stroke-width="1" opacity="1"/><line transform="translate(288,0)" x2="0" y2="-300" stroke="#ddd" stroke-width="1" opacity="1"/><line transform="translate(324,0)" x2="0" y2="-300" stroke="#ddd" stroke-width="1" opacity="1"/><line transform="translate(360,0)" x2="0" y2="-300" stroke="#ddd" stroke-width="1" opacity="1"/><line transform="translate(396,0)" x2="0" y2="-300" stroke="#ddd" stroke-width="1" opacity="1"/><line transform="translate(432,0)" x2="0" y2="-300" stroke="#ddd" stroke-width="1" opacity="1"/><line transform="translate(468,0)" x2="0" y2="-300" stroke="#ddd" stroke-width="1" opacity="1"/><line transform="translate(504,0)" x2="0" y2="-300" stroke="#ddd" stroke-width="1" opacity="1"/><line transform="translate(540,0)" x2="0" y2="-300" stroke="#ddd" stroke-width="1" opacity="1"/><line transform="translate(576,0)" x2="0" y2="-300" stroke="#ddd" stroke-width="1" opacity="1"/><line transform="translate(612,0)" x2="0" y2="-300" stroke="#ddd" stroke-width="1" opacity="1"/><line transform="translate(648,0)" x2="0" y2="-300" stroke="#ddd" stroke-width="1" opacity="1"/><line transform="translate(684,0)" x2="0" y2="-300" stroke="#ddd" stroke-width="1" opacity="1"/><line transform="translate(720,0)" x2="0" y2="-300" stroke="#ddd" stroke-width="1" opacity="1"/></g></g><path class="foreground" aria-hidden="true" d="" pointer-events="none" display="none"/></g></g><g class="mark-group role-axis" role="graphics-symbol" aria-roledescription="axis" aria-label="X-axis titled 'Teilnahme (%)' for a linear scale with values from 0 to 100"><g transform="translate(0.5,300.5)"><path class="background" aria-hidden="true" d="M0,0h0v0h0Z" pointer-events="none"/><g><g class="mark-rule role-axis-tick" pointer-events="none"><line transform="translate(0,0)" x2="0" y2="5" stroke="#888" stroke-width="1" opacity="1"/><line transform="translate(36,0)" x2="0" y2="5" stroke="#888" stroke-width="1" opacity="1"/><line transform="translate(72,0)" x2="0" y2="5" stroke="#888" stroke-width="1" opacity="1"/><line transform="translate(108,0)" x2="0" y2="5" stroke="#888" stroke-width="1" opacity="1"/><line transform="translate(144,0)" x2="0" y2="5" stroke="#888" stroke-width="1" opacity="1"/><line transform="translate(180,0)" x2="0" y2="5" stroke="#888" stroke-width="1" opacity="1"/><line transform="translate(216,0)" x2="0" y2="5" stroke="#888" stroke-width="1" opacity="1"/><line transform="translate(252,0)" x2="0" y2="5" stroke="#888" stroke-width="1" opacity="1"/><line transform="translate(288,0)" x2="0" y2="5" stroke="#888" stroke-width="1" opacity="1"/><line transform="translate(324,0)" x2="0" y2="5" stroke="#888" stroke-width="1" opacity="1"/><line transform="translate(360,0)" x2="0" y2="5" stroke="#888" stroke-width="1" opacity="1"/><line transform="translate(396,0)" x2="0" y2="5" stroke="#888" stroke-width="1" opacity="1"/><line transform="translate(432,0)" x2="0" y2="5" stroke="#888" stroke-width="1" opacity="1"/><line transform="translate(468,0)" x2="0" y2="5" stroke="#888" stroke-width="1" opacity="1"/><line transform="translate(504,0)" x2="0" y2="5" stroke="#888" stroke-width="1" opacity="1"/><line transform="translate(540,0)" x2="0" y2="5" stroke="#888" stroke-width="1" opacity="1"/><line transform="translate(576,0)" x2="0" y2="5" stroke="#888" stroke-width="1" opacity="1"/><line transform="translate(612,0)" x2="0" y2="5" stroke="#888" stroke-width="1" opacity="1"/><line transform="translate(648,0)" x2="0" y2="5" stroke="#888" stroke-width="1" opacity="1"/><line transform="translate(684,0)" x2="0" y2="5" stroke="#888" stroke-width="1" opacity="1"/><line transform="translate(720,0)" x2="0" y2="5" stroke="#888" stroke-width="1" opacity="1"/></g><g class="mark-text role-axis-label" pointer-events="none"><text text-anchor="start" transform="translate(0,15)" font-family="Switzer, system-ui, sans-serif" font-size="10px" fill="#000" opacity="1">0</text><text text-anchor="middle" transform="translate(36,15)" font-family="Switzer, system-ui, sans-serif" font-size="10px" fill="#000" opacity="1">5</text><text text-anchor="middle" transform="translate(72,15)" font-family="Switzer, system-ui, sans-serif" font-size="10px" fill="#000" opacity="1">10</text><text text-anchor="middle" transform="translate(108,15)" font-family="Switzer, system-ui, sans-serif" font-size="10px" fill="#000" opacity="1">15</text><text text-anchor="middle" transform="translate(144,15)" font-family="Switzer, system-ui, sans-serif" font-size="10px" fill="#000" opacity="1">20</text><text text-anchor="middle" transform="translate(180,15)" font-family="Switzer, system-ui, sans-serif" font-size="10px" fill="#000" opacity="1">25</text><text text-anchor="middle" transform="translate(216,15)" font-family="Switzer, system-ui, sans-serif" font-size="10px" fill="#000" opacity="1">30</text><text text-anchor="middle" transform="translate(251.99999999999997,15)" font-family="Switzer, system-ui, sans-serif" font-size="10px" fill="#000" opacity="1">35</text><text text-anchor="middle" transform="translate(288,15)" font-family="Switzer, system-ui, sans-serif" font-size="10px" fill="#000" opacity="1">40</text><text text-anchor="middle" transform="translate(324,15)" font-family="Switzer, system-ui, sans-serif" font-size="10px" fill="#000" opacity="1">45</text><text text-anchor="middle" transform="translate(360,15)" font-family="Switzer, system-ui, sans-serif" font-size="10px" fill="#000" opacity="1">50</text><text text-anchor="middle" transform="translate(396.00000000000006,15)" font-family="Switzer, system-ui, sans-serif" font-size="10px" fill="#000" opacity="1">55</text><text text-anchor="middle" transform="translate(432,15)" font-family="Switzer, system-ui, sans-serif" font-size="10px" fill="#000" opacity="1">60</text><text text-anchor="middle" transform="translate(468,15)" font-family="Switzer, system-ui, sans-serif" font-size="10px" fill="#000" opacity="1">65</text><text text-anchor="middle" transform="translate(503.99999999999994,15)" font-family="Switzer, system-ui, sans-serif" font-size="10px" fill="#000" opacity="1">70</text><text text-anchor="middle" transform="translate(540,15)" font-family="Switzer, system-ui, sans-serif" font-size="10px" fill="#000" opacity="1">75</text><text text-anchor="middle" transform="translate(576,15)" font-family="Switzer, system-ui, sans-serif" font-size="10px" fill="#000" opacity="1">80</text><text text-anchor="middle" transform="translate(612,15)" font-family="Switzer, system-ui, sans-serif" font-size="10px" fill="#000" opacity="1">85</text><text text-anchor="middle" transform="translate(648,15)" font-family="Switzer, system-ui, sans-serif" font-size="10px" fill="#000" opacity="1">90</text><text text-anchor="middle" transform="translate(684,15)" font-family="Switzer, system-ui, sans-serif" font-size="10px" fill="#000" opacity="1">95</text><text text-anchor="end" transform="translate(720,15)" font-family="Switzer, system-ui, sans-serif" font-size="10px" fill="#000" opacity="1">100</text></g><g class="mark-rule role-axis-domain" pointer-events="none"><line transform="translate(0,0)" x2="720" y2="0" stroke="#888" stroke-width="1" opacity="1"/></g><g class="mark-text role-axis-title" pointer-events="none"><text text-anchor="middle" transform="translate(360,30)" font-family="Switzer, system-ui, sans-serif" font-size="11px" font-weight="bold" fill="#000" opacity="1">Teilnahme (%)</text></g></g><path class="foreground" aria-hidden="true" d="" pointer-events="none" display="none"/></g></g><g class="mark-group role-axis" role="graphics-symbol" aria-roledescription="axis" aria-label="Y-axis for a discrete scale with 5 values: 25–34, 35–44, 45–54, 55–64, 65–75"><g transform="translate(0.5,0.5)"><path class="background" aria-hidden="true" d="M0,0h0v0h0Z" pointer-events="none"/><g><g class="mark-rule role-axis-tick" pointer-events="none"><line transform="translate(0,30)" x2="-5" y2="0" stroke="#888" stroke-width="1" opacity="1"/><line transform="translate(0,90)" x2="-5" y2="0" stroke="#888" stroke-width="1" opacity="1"/><line transform="translate(0,150)" x2="-5" y2="0" stroke="#888" stroke-width="1" opacity="1"/><line transform="translate(0,210)" x2="-5" y2="0" stroke="#888" stroke-width="1" opacity="1"/><line transform="translate(0,270)" x2="-5" y2="0" stroke="#888" stroke-width="1" opacity="1"/></g><g class="mark-text role-axis-label" pointer-events="none"><text text-anchor="end" transform="translate(-7,32.5)" font-family="Switzer, system-ui, sans-serif" font-size="10px" fill="#000" opacity="1">25–34</text><text text-anchor="end" transform="translate(-7,92.5)" font-family="Switzer, system-ui, sans-serif" font-size="10px" fill="#000" opacity="1">35–44</text><text text-anchor="end" transform="translate(-7,152.5)" font-family="Switzer, system-ui, sans-serif" font-size="10px" fill="#000" opacity="1">45–54</text><text text-anchor="end" transform="translate(-7,212.5)" font-family="Switzer, system-ui, sans-serif" font-size="10px" fill="#000" opacity="1">55–64</text><text text-anchor="end" transform="translate(-7,272.5)" font-family="Switzer, system-ui, sans-serif" font-size="10px" fill="#000" opacity="1">65–75</text></g><g class="mark-rule role-axis-domain" pointer-events="none"><line transform="translate(0,0)" x2="0" y2="300" stroke="#888" stroke-width="1" opacity="1"/></g></g><path class="foreground" aria-hidden="true" d="" pointer-events="none" display="none"/></g></g><g class="mark-group role-scope" role="graphics-object" aria-roledescription="group mark container"><g transform="translate(0,3)"><path class="background" aria-hidden="true" d="M0,0L514.4,0C516.607660097976,0,518.4,1.792339902024,518.4,4L518.4,50C518.4,52.207660097976,516.607660097976,54,514.4,54L0,54C0,54,0,54,0,54L0,0C0,0,0,0,0,0Z"/><g clip-path="url(#clip218)"><g class="mark-group role-scope" role="graphics-object" aria-roledescription="group mark container"><g transform="translate(0,0)"><path class="background" aria-hidden="true" d="M0,0h0v54h0Z"/><g><g class="mark-rect role-mark marks" role="graphics-object" aria-roledescription="rect mark container"><path aria-label="Teilnahme (%): 72; Altersgruppe: 25–34; Teilnahme %: 72" role="graphics-symbol" aria-roledescription="bar" d="M0,0h518.4v54h-518.4Z" fill="rgb(80, 31, 140)"/></g></g><path class="foreground" aria-hidden="true" d="" display="none"/></g></g></g><path class="foreground" aria-hidden="true" d="" display="none"/></g><g transform="translate(0,63)"><path class="background" aria-hidden="true" d="M0,0L485.6,0C487.807660097976,0,489.6,1.792339902024,489.6,4L489.6,50C489.6,52.207660097976,487.807660097976,54,485.6,54L0,54C0,54,0,54,0,54L0,0C0,0,0,0,0,0Z"/><g clip-path="url(#clip219)"><g class="mark-group role-scope" role="graphics-object" aria-roledescription="group mark container"><g transform="translate(0,0)"><path class="background" aria-hidden="true" d="M0,0h0v54h0Z"/><g><g class="mark-rect role-mark marks" role="graphics-object" aria-roledescription="rect mark container"><path aria-label="Teilnahme (%): 68; Altersgruppe: 35–44; Teilnahme %: 68" role="graphics-symbol" aria-roledescription="bar" d="M0,0h489.6v54h-489.6Z" fill="rgb(93, 56, 151)"/></g></g><path class="foreground" aria-hidden="true" d="" display="none"/></g></g></g><path class="foreground" aria-hidden="true" d="" display="none"/></g><g transform="translate(0,123)"><path class="background" aria-hidden="true" d="M0,0L442.4,0C444.60766009797595,0,446.4,1.792339902024,446.4,4L446.4,50C446.4,52.207660097976,444.60766009797595,54,442.4,54L0,54C0,54,0,54,0,54L0,0C0,0,0,0,0,0Z"/><g clip-path="url(#clip220)"><g class="mark-group role-scope" role="graphics-object" aria-roledescription="group mark container"><g transform="translate(0,0)"><path class="background" aria-hidden="true" d="M0,0h0v54h0Z"/><g><g class="mark-rect role-mark marks" role="graphics-object" aria-roledescription="rect mark container"><path aria-label="Teilnahme (%): 62; Altersgruppe: 45–54; Teilnahme %: 62" role="graphics-symbol" aria-roledescription="bar" d="M0,0h446.4v54h-446.4Z" fill="rgb(113, 95, 170)"/></g></g><path class="foreground" aria-hidden="true" d="" display="none"/></g></g></g><path class="foreground" aria-hidden="true" d="" display="none"/></g><g transform="translate(0,183)"><path class="background" aria-hidden="true" d="M0,0L363.2,0C365.40766009797596,0,367.2,1.792339902024,367.2,4L367.2,50C367.2,52.207660097976,365.40766009797596,54,363.2,54L0,54C0,54,0,54,0,54L0,0C0,0,0,0,0,0Z"/><g clip-path="url(#clip221)"><g class="mark-group role-scope" role="graphics-object" aria-roledescription="group mark container"><g transform="translate(0,0)"><path class="background" aria-hidden="true" d="M0,0h0v54h0Z"/><g><g class="mark-rect role-mark marks" role="graphics-object" aria-roledescription="rect mark container"><path aria-label="Teilnahme (%): 51; Altersgruppe: 55–64; Teilnahme %: 51" role="graphics-symbol" aria-roledescription="bar" d="M0,0h367.2v54h-367.2Z" fill="rgb(157, 154, 201)"/></g></g><path class="foreground" aria-hidden="true" d="" display="none"/></g></g></g><path class="foreground" aria-hidden="true" d="" display="none"/></g><g transform="translate(0,243)"><path class="background" aria-hidden="true" d="M0,0L247.99999999999997,0C250.20766009797597,0,251.99999999999997,1.792339902024,251.99999999999997,4L251.99999999999997,50C251.99999999999997,52.207660097976,250.20766009797597,54,247.99999999999997,54L0,54C0,54,0,54,0,54L0,0C0,0,0,0,0,0Z"/><g clip-path="url(#clip222)"><g class="mark-group role-scope" role="graphics-object" aria-roledescription="group mark container"><g transform="translate(0,0)"><path class="background" aria-hidden="true" d="M0,0h0v54h0Z"/><g><g class="mark-rect role-mark marks" role="graphics-object" aria-roledescription="rect mark container"><path aria-label="Teilnahme (%): 35; Altersgruppe: 65–75; Teilnahme %: 35" role="graphics-symbol" aria-roledescription="bar" d="M0,0h251.99999999999997v54h-251.99999999999997Z" fill="rgb(226, 225, 239)"/></g></g><path class="foreground" aria-hidden="true" d="" display="none"/></g></g></g><path class="foreground" aria-hidden="true" d="" display="none"/></g></g><g class="mark-group role-title"><g transform="translate(360,-17)"><path class="background" aria-hidden="true" d="M0,0h0v0h0Z" pointer-events="none"/><g><g class="mark-text role-title-text" role="graphics-symbol" aria-roledescription="title" aria-label="Title text 'Weiterbildungsteilnahme nach Altersgruppe (BFS Mikrozensus 2021)'" pointer-events="none"><text text-anchor="middle" transform="translate(0,10)" font-family="Switzer, system-ui, sans-serif" font-size="13px" font-weight="bold" fill="#000" opacity="1">Weiterbildungsteilnahme nach Altersgruppe (BFS Mikrozensus 2021)</text></g></g><path class="foreground" aria-hidden="true" d="" pointer-events="none" display="none"/></g></g></g><path class="foreground" aria-hidden="true" d="" display="none"/></g></g></g><defs><clipPath id="clip218"><path d="M0,0L514.4,0C516.607660097976,0,518.4,1.792339902024,518.4,4L518.4,50C518.4,52.207660097976,516.607660097976,54,514.4,54L0,54C0,54,0,54,0,54L0,0C0,0,0,0,0,0Z"/></clipPath><clipPath id="clip219"><path d="M0,0L485.6,0C487.807660097976,0,489.6,1.792339902024,489.6,4L489.6,50C489.6,52.207660097976,487.807660097976,54,485.6,54L0,54C0,54,0,54,0,54L0,0C0,0,0,0,0,0Z"/></clipPath><clipPath id="clip220"><path d="M0,0L442.4,0C444.60766009797595,0,446.4,1.792339902024,446.4,4L446.4,50C446.4,52.207660097976,444.60766009797595,54,442.4,54L0,54C0,54,0,54,0,54L0,0C0,0,0,0,0,0Z"/></clipPath><clipPath id="clip221"><path d="M0,0L363.2,0C365.40766009797596,0,367.2,1.792339902024,367.2,4L367.2,50C367.2,52.207660097976,365.40766009797596,54,363.2,54L0,54C0,54,0,54,0,54L0,0C0,0,0,0,0,0Z"/></clipPath><clipPath id="clip222"><path d="M0,0L247.99999999999997,0C250.20766009797597,0,251.99999999999997,1.792339902024,251.99999999999997,4L251.99999999999997,50C251.99999999999997,52.207660097976,250.20766009797597,54,247.99999999999997,54L0,54C0,54,0,54,0,54L0,0C0,0,0,0,0,0Z"/></clipPath></defs></svg>