<svg xmlns="http://www.w3.org/2000/svg" xmlns:xlink="http://www.w3.org/1999/xlink" version="1.1" class="marks" width="894" height="409" viewBox="0 0 894 409"><rect width="894" height="409" fill="white"/><g fill="none" stroke-miterlimit="10" transform="translate(168,22)"><g class="mark-group role-frame root" role="graphics-object" aria-roledescription="group mark container"><g transform="translate(0,0)"><path class="background" aria-hidden="true" d="M0.5,0.5h720v350h-720Z"/><g><g class="mark-group role-axis" aria-hidden="true"><g transform="translate(0.5,350.5)"><path class="background" aria-hidden="true" d="M0,0h0v0h0Z" pointer-events="none"/><g><g class="mark-rule role-axis-grid" pointer-events="none"><line transform="translate(0,0)" x2="0" y2="-350" stroke="#ddd" stroke-width="1" opacity="1"/><line transform="translate(36,0)" x2="0" y2="-350" stroke="#ddd" stroke-width="1" opacity="1"/><line transform="translate(72,0)" x2="0" y2="-350" stroke="#ddd" stroke-width="1" opacity="1"/><line transform="translate(108,0)" x2="0" y2="-350" stroke="#ddd" stroke-width="1" opacity="1"/><line transform="translate(144,0)" x2="0" y2="-350" stroke="#ddd" stroke-width="1" opacity="1"/><line transform="translate(180,0)" x2="0" y2="-350" stroke="#ddd" stroke-width="1" opacity="1"/><line transform="translate(216,0)" x2="0" y2="-350" stroke="#ddd" stroke-width="1" opacity="1"/><line transform="translate(252,0)" x2="0" y2="-350" stroke="#ddd" stroke-width="1" opacity="1"/><line transform="translate(288,0)" x2="0" y2="-350" stroke="#ddd" stroke-width="1" opacity="1"/><line transform="translate(324,0)" x2="0" y2="-350" stroke="#ddd" stroke-width="1" opacity="1"/><line transform="translate(360,0)" x2="0" y2="-350" stroke="#ddd" stroke-width="1" opacity="1"/><line transform="translate(396,0)" x2="0" y2="-350" stroke="#ddd" stroke-width="1" opacity="1"/><line transform="translate(432,0)" x2="0" y2="-350" stroke="#ddd" stroke-width="1" opacity="1"/><line transform="translate(468,0)" x2="0" y2="-350" stroke="#ddd" stroke-width="1" opacity="1"/><line transform="translate(504,0)" x2="0" y2="-350" stroke="#ddd" stroke-width="1" opacity="1"/><line transform="translate(540,0)" x2="0" y2="-350" stroke="#ddd" stroke-width="1" opacity="1"/><line transform="translate(576,0)" x2="0" y2="-350" stroke="#ddd" stroke-width="1" opacity="1"/><line transform="translate(612,0)" x2="0" y2="-350" stroke="#ddd" stroke-width="1" opacity="1"/><line transform="translate(648,0)" x2="0" y2="-350" stroke="#ddd" stroke-width="1" opacity="1"/><line transform="translate(684,0)" x2="0" y2="-350" stroke="#ddd" stroke-width="1" opacity="1"/><line transform="translate(720,0)" x2="0" y2="-350" stroke="#ddd" stroke-width="1" opacity="1"/></g></g><path class="foreground" aria-hidden="true" d="" pointer-events="none" display="none"/></g></g><g class="mark-group role-axis" role="graphics-symbol" aria-roledescription="axis" aria-label="X-axis titled 'Teilnahme an nicht-formaler Weiterbildung (%)' for a linear scale with values from 0 to 100"><g transform="translate(0.5,350.5)"><path class="background" aria-hidden="true" d="M0,0h0v0h0Z" pointer-events="none"/><g><g class="mark-rule role-axis-tick" pointer-events="none"><line transform="translate(0,0)" x2="0" y2="5" stroke="#888" stroke-width="1" opacity="1"/><line transform="translate(36,0)" x2="0" y2="5" stroke="#888" stroke-width="1" opacity="1"/><line transform="translate(72,0)" x2="0" y2="5" stroke="#888" stroke-width="1" opacity="1"/><line transform="translate(108,0)" x2="0" y2="5" stroke="#888" stroke-width="1" opacity="1"/><line transform="translate(144,0)" x2="0" y2="5" stroke="#888" stroke-width="1" opacity="1"/><line transform="translate(180,0)" x2="0" y2="5" stroke="#888" stroke-width="1" opacity="1"/><line transform="translate(216,0)" x2="0" y2="5" stroke="#888" stroke-width="1" opacity="1"/><line transform="translate(252,0)" x2="0" y2="5" stroke="#888" stroke-width="1" opacity="1"/><line transform="translate(288,0)" x2="0" y2="5" stroke="#888" stroke-width="1" opacity="1"/><line transform="translate(324,0)" x2="0" y2="5" stroke="#888" stroke-width="1" opacity="1"/><line transform="translate(360,0)" x2="0" y2="5" stroke="#888" stroke-width="1" opacity="1"/><line transform="translate(396,0)" x2="0" y2="5" stroke="#888" stroke-width="1" opacity="1"/><line transform="translate(432,0)" x2="0" y2="5" stroke="#888" stroke-width="1" opacity="1"/><line transform="translate(468,0)" x2="0" y2="5" stroke="#888" stroke-width="1" opacity="1"/><line transform="translate(504,0)" x2="0" y2="5" stroke="#888" stroke-width="1" opacity="1"/><line transform="translate(540,0)" x2="0" y2="5" stroke="#888" stroke-width="1" opacity="1"/><line transform="translate(576,0)" x2="0" y2="5" stroke="#888" stroke-width="1" opacity="1"/><line transform="translate(612,0)" x2="0" y2="5" stroke="#888" stroke-width="1" opacity="1"/><line transform="translate(648,0)" x2="0" y2="5" stroke="#888" stroke-width="1" opacity="1"/><line transform="translate(684,0)" x2="0" y2="5" stroke="#888" stroke-width="1" opacity="1"/><line transform="translate(720,0)" x2="0" y2="5" stroke="#888" stroke-width="1" opacity="1"/></g><g class="mark-text role-axis-label" pointer-events="none"><text text-anchor="start" transform="translate(0,15)" font-family="Switzer, system-ui, sans-serif" font-size="10px" fill="#000" opacity="1">0</text><text text-anchor="middle" transform="translate(36,15)" font-family="Switzer, system-ui, sans-serif" font-size="10px" fill="#000" opacity="1">5</text><text text-anchor="middle" transform="translate(72,15)" font-family="Switzer, system-ui, sans-serif" font-size="10px" fill="#000" opacity="1">10</text><text text-anchor="middle" transform="translate(108,15)" font-family="Switzer, system-ui, sans-serif" font-size="10px" fill="#000" opacity="1">15</text><text text-anchor="middle" transform="translate(144,15)" font-family="Switzer, system-ui, sans-serif" font-size="10px" fill="#000" opacity="1">20</text><text text-anchor="middle" transform="translate(180,15)" font-family="Switzer, system-ui, sans-serif" font-size="10px" fill="#000" opacity="1">25</text><text text-anchor="middle" transform="translate(216,15)" font-family="Switzer, system-ui, sans-serif" font-size="10px" fill="#000" opacity="1">30</text><text text-anchor="middle" transform="translate(251.99999999999997,15)" font-family="Switzer, system-ui, sans-serif" font-size="10px" fill="#000" opacity="1">35</text><text text-anchor="middle" transform="translate(288,15)" font-family="Switzer, system-ui, sans-serif" font-size="10px" fill="#000" opacity="1">40</text><text text-anchor="middle" transform="translate(324,15)" font-family="Switzer, system-ui, sans-serif" font-size="10px" fill="#000" opacity="1">45</text><text text-anchor="middle" transform="translate(360,15)" font-family="Switzer, system-ui, sans-serif" font-size="10px" fill="#000" opacity="1">50</text><text text-anchor="middle" transform="translate(396.00000000000006,15)" font-family="Switzer, system-ui, sans-serif" font-size="10px" fill="#000" opacity="1">55</text><text text-anchor="middle" transform="translate(432,15)" font-family="Switzer, system-ui, sans-serif" font-size="10px" fill="#000" opacity="1">60</text><text text-anchor="middle" transform="translate(468,15)" font-family="Switzer, system-ui, sans-serif" font-size="10px" fill="#000" opacity="1">65</text><text text-anchor="middle" transform="translate(503.99999999999994,15)" font-family="Switzer, system-ui, sans-serif" font-size="10px" fill="#000" opacity="1">70</text><text text-anchor="middle" transform="translate(540,15)" font-family="Switzer, system-ui, sans-serif" font-size="10px" fill="#000" opacity="1">75</text><text text-anchor="middle" transform="translate(576,15)" font-family="Switzer, system-ui, sans-serif" font-size="10px" fill="#000" opacity="1">80</text><text text-anchor="middle" transform="translate(612,15)" font-family="Switzer, system-ui, sans-serif" font-size="10px" fill="#000" opacity="1">85</text><text text-anchor="middle" transform="translate(648,15)" font-family="Switzer, system-ui, sans-serif" font-size="10px" fill="#000" opacity="1">90</text><text text-anchor="middle" transform="translate(684,15)" font-family="Switzer, system-ui, sans-serif" font-size="10px" fill="#000" opacity="1">95</text><text text-anchor="end" transform="translate(720,15)" font-family="Switzer, system-ui, sans-serif" font-size="10px" fill="#000" opacity="1">100</text></g><g class="mark-rule role-axis-domain" pointer-events="none"><line transform="translate(0,0)" x2="720" y2="0" stroke="#888" stroke-width="1" opacity="1"/></g><g class="mark-text role-axis-title" pointer-events="none"><text text-anchor="middle" transform="translate(360,30)" font-family="Switzer, system-ui, sans-serif" font-size="11px" font-weight="bold" fill="#000" opacity="1">Teilnahme an nicht-formaler Weiterbildung (%)</text></g></g><path class="foreground" aria-hidden="true" d="" pointer-events="none" display="none"/></g></g><g class="mark-group role-axis" role="graphics-symbol" aria-roledescription="axis" aria-label="Y-axis for a discrete scale with 5 values: Hochschule (FH/Uni/ETH), Höhere Berufsbildung, Sekundarstufe II: Allgemeinbildung, Sekundarstufe II: Berufsbildung, Obligatorische Schule"><g transform="translate(0.5,0.5)"><path class="background" aria-hidden="true" d="M0,0h0v0h0Z" pointer-events="none"/><g><g class="mark-rule role-axis-tick" pointer-events="none"><line transform="translate(0,35)" x2="-5" y2="0" stroke="#888" stroke-width="1" opacity="1"/><line transform="translate(0,105)" x2="-5" y2="0" stroke="#888" stroke-width="1" opacity="1"/><line transform="translate(0,175)" x2="-5" y2="0" stroke="#888" stroke-width="1" opacity="1"/><line transform="translate(0,245)" x2="-5" y2="0" stroke="#888" stroke-width="1" opacity="1"/><line transform="translate(0,315)" x2="-5" y2="0" stroke="#888" stroke-width="1" opacity="1"/></g><g class="mark-text role-axis-label" pointer-events="none"><text text-anchor="end" transform="translate(-7,37.5)" font-family="Switzer, system-ui, sans-serif" font-size="10px" fill="#000" opacity="1">Hochschule (FH/Uni/ETH)</text><text text-anchor="end" transform="translate(-7,107.5)" font-family="Switzer, system-ui, sans-serif" font-size="10px" fill="#000" opacity="1">Höhere Berufsbildung</text><text text-anchor="end" transform="translate(-7,177.5)" font-family="Switzer, system-ui, sans-serif" font-size="10px" fill="#000" opacity="1">Sekundarstufe II: Allgemeinbildung</text><text text-anchor="end" transform="translate(-7,247.5)" font-family="Switzer, system-ui, sans-serif" font-size="10px" fill="#000" opacity="1">Sekundarstufe II: Berufsbildung</text><text text-anchor="end" transform="translate(-7,317.5)" font-family="Switzer, system-ui, sans-serif" font-size="10px" fill="#000" opacity="1">Obligatorische Schule</text></g><g class="mark-rule role-axis-domain" pointer-events="none"><line transform="translate(0,0)" x2="0" y2="350" stroke="#888" stroke-width="1" opacity="1"/></g></g><path class="foreground" aria-hidden="true" d="" pointer-events="none" display="none"/></g></g><g class="mark-group role-scope" role="graphics-object" aria-roledescription="group mark container"><g transform="translate(0,283.5)"><path class="background" aria-hidden="true" d="M0,0L212,0C214.207660097976,0,216,1.792339902024,216,4L216,59C216,61.207660097976,214.207660097976,63,212,63L0,63C0,63,0,63,0,63L0,0C0,0,0,0,0,0Z"/><g clip-path="url(#clip213)"><g class="mark-group role-scope" role="graphics-object" aria-roledescription="group mark container"><g transform="translate(0,0)"><path class="background" aria-hidden="true" d="M0,0h0v63h0Z"/><g><g class="mark-rect role-mark marks" role="graphics-object" aria-roledescription="rect mark container"><path aria-label="Teilnahme an nicht-formaler Weiterbildung (%): 30; Bildungsniveau: Obligatorische Schule; Teilnahme %: 30" role="graphics-symbol" aria-roledescription="bar" d="M0,0h216v63h-216Z" fill="rgb(226, 225, 239)"/></g></g><path class="foreground" aria-hidden="true" d="" display="none"/></g></g></g><path class="foreground" aria-hidden="true" d="" display="none"/></g><g transform="translate(0,213.5)"><path class="background" aria-hidden="true" d="M0,0L399.20000000000005,0C401.407660097976,0,403.20000000000005,1.792339902024,403.20000000000005,4L403.20000000000005,59C403.20000000000005,61.207660097976,401.407660097976,63,399.20000000000005,63L0,63C0,63,0,63,0,63L0,0C0,0,0,0,0,0Z"/><g clip-path="url(#clip214)"><g class="mark-group role-scope" role="graphics-object" aria-roledescription="group mark container"><g transform="translate(0,0)"><path class="background" aria-hidden="true" d="M0,0h0v63h0Z"/><g><g class="mark-rect role-mark marks" role="graphics-object" aria-roledescription="rect mark container"><path aria-label="Teilnahme an nicht-formaler Weiterbildung (%): 56; Bildungsniveau: Sekundarstufe II: Berufsbildung; Teilnahme %: 56" role="graphics-symbol" aria-roledescription="bar" d="M0,0h403.20000000000005v63h-403.20000000000005Z" fill="rgb(141, 136, 192)"/></g></g><path class="foreground" aria-hidden="true" d="" display="none"/></g></g></g><path class="foreground" aria-hidden="true" d="" display="none"/></g><g transform="translate(0,143.5)"><path class="background" aria-hidden="true" d="M0,0L456.8,0C459.007660097976,0,460.8,1.792339902024,460.8,4L460.8,59C460.8,61.207660097976,459.007660097976,63,456.8,63L0,63C0,63,0,63,0,63L0,0C0,0,0,0,0,0Z"/><g clip-path="url(#clip215)"><g class="mark-group role-scope" role="graphics-object" aria-roledescription="group mark container"><g transform="translate(0,0)"><path class="background" aria-hidden="true" d="M0,0h0v63h0Z"/><g><g class="mark-rect role-mark marks" role="graphics-object" aria-roledescription="rect mark container"><path aria-label="Teilnahme an nicht-formaler Weiterbildung (%): 64; Bildungsniveau: Sekundarstufe II: Allgemeinbildung; Teilnahme %: 64" role="graphics-symbol" aria-roledescription="bar" d="M0,0h460.8v63h-460.8Z" fill="rgb(118, 103, 175)"/></g></g><path class="foreground" aria-hidden="true" d="" display="none"/></g></g></g><path class="foreground" aria-hidden="true" d="" display="none"/></g><g transform="translate(0,73.5)"><path class="background" aria-hidden="true" d="M0,0L528.8,0C531.007660097976,0,532.8,1.792339902024,532.8,4L532.8,59C532.8,61.207660097976,531.007660097976,63,528.8,63L0,63C0,63,0,63,0,63L0,0C0,0,0,0,0,0Z"/><g clip-path="url(#clip216)"><g class="mark-group role-scope" role="graphics-object" aria-roledescription="group mark container"><g transform="translate(0,0)"><path class="background" aria-hidden="true" d="M0,0h0v63h0Z"/><g><g class="mark-rect role-mark marks" role="graphics-object" aria-roledescription="rect mark container"><path aria-label="Teilnahme an nicht-formaler Weiterbildung (%): 74; Bildungsniveau: Höhere Berufsbildung; Teilnahme %: 74" role="graphics-symbol" aria-roledescription="bar" d="M0,0h532.8v63h-532.8Z" fill="rgb(92, 54, 150)"/></g></g><path class="foreground" aria-hidden="true" d="" display="none"/></g></g></g><path class="foreground" aria-hidden="true" d="" display="none"/></g><g transform="translate(0,3.5)"><path class="background" aria-hidden="true" d="M0,0L564.8000000000001,0C567.0076600979761,0,568.8000000000001,1.792339902024,568.8000000000001,4L568.8000000000001,59C568.8000000000001,61.207660097976,567.0076600979761,63,564.8000000000001,63L0,63C0,63,0,63,0,63L0,0C0,0,0,0,0,0Z"/><g clip-path="url(#clip217)"><g class="mark-group role-scope" role="graphics-object" aria-roledescription="group mark container"><g transform="translate(0,0)"><path class="background" aria-hidden="true" d="M0,0h0v63h0Z"/><g><g class="mark-rect role-mark marks" role="graphics-object" aria-roledescription="rect mark container"><path aria-label="Teilnahme an nicht-formaler Weiterbildung (%): 79; Bildungsniveau: Hochschule (FH/Uni/ETH); Teilnahme %: 79" role="graphics-symbol" aria-roledescription="bar" d="M0,0h568.8000000000001v63h-568.8000000000001Z" fill="rgb(80, 31, 140)"/></g></g><path class="foreground" aria-hidden="true" d="" display="none"/></g></g></g><path class="foreground" aria-hidden="true" d="" display="none"/></g></g><g class="mark-group role-title"><g transform="translate(360,-17)"><path class="background" aria-hidden="true" d="M0,0h0v0h0Z" pointer-events="none"/><g><g class="mark-text role-title-text" role="graphics-symbol" aria-roledescription="title" aria-label="Title text 'Weiterbildungsteilnahme nach Bildungsniveau (BFS Mikrozensus 2021)'" pointer-events="none"><text text-anchor="middle" transform="translate(0,10)" font-family="Switzer, system-ui, sans-serif" font-size="13px" font-weight="bold" fill="#000" opacity="1">Weiterbildungsteilnahme nach Bildungsniveau (BFS Mikrozensus 2021)</text></g></g><path class="foreground" aria-hidden="true" d="" pointer-events="none" display="none"/></g></g></g><path class="foreground" aria-hidden="true" d="" display="none"/></g></g></g><defs><clipPath id="clip213"><path d="M0,0L212,0C214.207660097976,0,216,1.792339902024,216,4L216,59C216,61.207660097976,214.207660097976,63,212,63L0,63C0,63,0,63,0,63L0,0C0,0,0,0,0,0Z"/></clipPath><clipPath id="clip214"><path d="M0,0L399.20000000000005,0C401.407660097976,0,403.20000000000005,1.792339902024,403.20000000000005,4L403.20000000000005,59C403.20000000000005,61.207660097976,401.407660097976,63,399.20000000000005,63L0,63C0,63,0,63,0,63L0,0C0,0,0,0,0,0Z"/></clipPath><clipPath id="clip215"><path d="M0,0L456.8,0C459.007660097976,0,460.8,1.792339902024,460.8,4L460.8,59C460.8,61.207660097976,459.007660097976,63,456.8,63L0,63C0,63,0,63,0,63L0,0C0,0,0,0,0,0Z"/></clipPath><clipPath id="clip216"><path d="M0,0L528.8,0C531.007660097976,0,532.8,1.792339902024,532.8,4L532.8,59C532.8,61.207660097976,531.007660097976,63,528.8,63L0,63C0,63,0,63,0,63L0,0C0,0,0,0,0,0Z"/></clipPath><clipPath id="clip217"><path d="M0,0L564.8000000000001,0C567.0076600979761,0,568.8000000000001,1.792339902024,568.8000000000001,4L568.8000000000001,59C568.8000000000001,61.207660097976,567.0076600979761,63,564.8000000000001,63L0,63C0,63,0,63,0,63L0,0C0,0,0,0,0,0Z"/></clipPath></defs></svg>