<svg xmlns="http://www.w3.org/2000/svg" xmlns:xlink="http://www.w3.org/1999/xlink" version="1.1" class="marks" width="872" height="514" viewBox="0 0 872 514"><rect width="872" height="514" fill="white"/><g fill="none" stroke-miterlimit="10" transform="translate(39,27)"><g class="mark-group role-frame root" role="graphics-object" aria-roledescription="group mark container"><g transform="translate(0,0)"><path class="background" aria-hidden="true" d="M0.5,0.5h720v450h-720Z"/><g><g class="mark-group role-axis" aria-hidden="true"><g transform="translate(0.5,450.5)"><path class="background" aria-hidden="true" d="M0,0h0v0h0Z" pointer-events="none"/><g><g class="mark-rule role-axis-grid" pointer-events="none"><line transform="translate(0,-450)" x2="0" y2="450" stroke="#ddd" stroke-width="1" opacity="1"/><line transform="translate(32,-450)" x2="0" y2="450" stroke="#ddd" stroke-width="1" opacity="1"/><line transform="translate(64,-450)" x2="0" y2="450" stroke="#ddd" stroke-width="1" opacity="1"/><line transform="translate(96,-450)" x2="0" y2="450" stroke="#ddd" stroke-width="1" opacity="1"/><line transform="translate(128,-450)" x2="0" y2="450" stroke="#ddd" stroke-width="1" opacity="1"/><line transform="translate(160,-450)" x2="0" y2="450" stroke="#ddd" stroke-width="1" opacity="1"/><line transform="translate(192,-450)" x2="0" y2="450" stroke="#ddd" stroke-width="1" opacity="1"/><line transform="translate(224,-450)" x2="0" y2="450" stroke="#ddd" stroke-width="1" opacity="1"/><line transform="translate(256,-450)" x2="0" y2="450" stroke="#ddd" stroke-width="1" opacity="1"/><line transform="translate(288,-450)" x2="0" y2="450" stroke="#ddd" stroke-width="1" opacity="1"/><line transform="translate(320,-450)" x2="0" y2="450" stroke="#ddd" stroke-width="1" opacity="1"/><line transform="translate(352,-450)" x2="0" y2="450" stroke="#ddd" stroke-width="1" opacity="1"/><line transform="translate(384,-450)" x2="0" y2="450" stroke="#ddd" stroke-width="1" opacity="1"/><line transform="translate(416,-450)" x2="0" y2="450" stroke="#ddd" stroke-width="1" opacity="1"/><line transform="translate(448,-450)" x2="0" y2="450" stroke="#ddd" stroke-width="1" opacity="1"/><line transform="translate(480,-450)" x2="0" y2="450" stroke="#ddd" stroke-width="1" opacity="1"/><line transform="translate(512,-450)" x2="0" y2="450" stroke="#ddd" stroke-width="1" opacity="1"/><line transform="translate(544,-450)" x2="0" y2="450" stroke="#ddd" stroke-width="1" opacity="1"/><line transform="translate(576,-450)" x2="0" y2="450" stroke="#ddd" stroke-width="1" opacity="1"/><line transform="translate(608,-450)" x2="0" y2="450" stroke="#ddd" stroke-width="1" opacity="1"/><line transform="translate(640,-450)" x2="0" y2="450" stroke="#ddd" stroke-width="1" opacity="1"/><line transform="translate(672,-450)" x2="0" y2="450" stroke="#ddd" stroke-width="1" opacity="1"/><line transform="translate(704,-450)" x2="0" y2="450" stroke="#ddd" stroke-width="1" opacity="1"/></g></g><path class="foreground" aria-hidden="true" d="" pointer-events="none" display="none"/></g></g><g class="mark-group role-axis" aria-hidden="true"><g transform="translate(0.5,0.5)"><path class="background" aria-hidden="true" d="M0,0h0v0h0Z" pointer-events="none"/><g><g class="mark-rule role-axis-grid" pointer-events="none"><line transform="translate(0,450)" x2="720" y2="0" stroke="#ddd" stroke-width="1" opacity="1"/><line transform="translate(0,400)" x2="720" y2="0" stroke="#ddd" stroke-width="1" opacity="1"/><line transform="translate(0,350)" x2="720" y2="0" stroke="#ddd" stroke-width="1" opacity="1"/><line transform="translate(0,300)" x2="720" y2="0" stroke="#ddd" stroke-width="1" opacity="1"/><line transform="translate(0,250)" x2="720" y2="0" stroke="#ddd" stroke-width="1" opacity="1"/><line transform="translate(0,200)" x2="720" y2="0" stroke="#ddd" stroke-width="1" opacity="1"/><line transform="translate(0,150)" x2="720" y2="0" stroke="#ddd" stroke-width="1" opacity="1"/><line transform="translate(0,100)" x2="720" y2="0" stroke="#ddd" stroke-width="1" opacity="1"/><line transform="translate(0,50)" x2="720" y2="0" stroke="#ddd" stroke-width="1" opacity="1"/><line transform="translate(0,0)" x2="720" y2="0" stroke="#ddd" stroke-width="1" opacity="1"/></g></g><path class="foreground" aria-hidden="true" d="" pointer-events="none" display="none"/></g></g><g class="mark-group role-axis" role="graphics-symbol" aria-roledescription="axis" aria-label="X-axis titled 'Post-LLM Automatisierungsrisiko (%)' for a linear scale with values from 0 to 45"><g transform="translate(0.5,450.5)"><path class="background" aria-hidden="true" d="M0,0h0v0h0Z" pointer-events="none"/><g><g class="mark-rule role-axis-tick" pointer-events="none"><line transform="translate(0,0)" x2="0" y2="5" stroke="#888" stroke-width="1" opacity="1"/><line transform="translate(32,0)" x2="0" y2="5" stroke="#888" stroke-width="1" opacity="1"/><line transform="translate(64,0)" x2="0" y2="5" stroke="#888" stroke-width="1" opacity="1"/><line transform="translate(96,0)" x2="0" y2="5" stroke="#888" stroke-width="1" opacity="1"/><line transform="translate(128,0)" x2="0" y2="5" stroke="#888" stroke-width="1" opacity="1"/><line transform="translate(160,0)" x2="0" y2="5" stroke="#888" stroke-width="1" opacity="1"/><line transform="translate(192,0)" x2="0" y2="5" stroke="#888" stroke-width="1" opacity="1"/><line transform="translate(224,0)" x2="0" y2="5" stroke="#888" stroke-width="1" opacity="1"/><line transform="translate(256,0)" x2="0" y2="5" stroke="#888" stroke-width="1" opacity="1"/><line transform="translate(288,0)" x2="0" y2="5" stroke="#888" stroke-width="1" opacity="1"/><line transform="translate(320,0)" x2="0" y2="5" stroke="#888" stroke-width="1" opacity="1"/><line transform="translate(352,0)" x2="0" y2="5" stroke="#888" stroke-width="1" opacity="1"/><line transform="translate(384,0)" x2="0" y2="5" stroke="#888" stroke-width="1" opacity="1"/><line transform="translate(416,0)" x2="0" y2="5" stroke="#888" stroke-width="1" opacity="1"/><line transform="translate(448,0)" x2="0" y2="5" stroke="#888" stroke-width="1" opacity="1"/><line transform="translate(480,0)" x2="0" y2="5" stroke="#888" stroke-width="1" opacity="1"/><line transform="translate(512,0)" x2="0" y2="5" stroke="#888" stroke-width="1" opacity="1"/><line transform="translate(544,0)" x2="0" y2="5" stroke="#888" stroke-width="1" opacity="1"/><line transform="translate(576,0)" x2="0" y2="5" stroke="#888" stroke-width="1" opacity="1"/><line transform="translate(608,0)" x2="0" y2="5" stroke="#888" stroke-width="1" opacity="1"/><line transform="translate(640,0)" x2="0" y2="5" stroke="#888" stroke-width="1" opacity="1"/><line transform="translate(672,0)" x2="0" y2="5" stroke="#888" stroke-width="1" opacity="1"/><line transform="translate(704,0)" x2="0" y2="5" stroke="#888" stroke-width="1" opacity="1"/></g><g class="mark-text role-axis-label" pointer-events="none"><text text-anchor="start" transform="translate(0,15)" font-family="Switzer, system-ui, sans-serif" font-size="10px" fill="#000" opacity="1">0</text><text text-anchor="middle" transform="translate(32,15)" font-family="Switzer, system-ui, sans-serif" font-size="10px" fill="#000" opacity="1">2</text><text text-anchor="middle" transform="translate(64,15)" font-family="Switzer, system-ui, sans-serif" font-size="10px" fill="#000" opacity="1">4</text><text text-anchor="middle" transform="translate(96,15)" font-family="Switzer, system-ui, sans-serif" font-size="10px" fill="#000" opacity="1">6</text><text text-anchor="middle" transform="translate(128,15)" font-family="Switzer, system-ui, sans-serif" font-size="10px" fill="#000" opacity="1">8</text><text text-anchor="middle" transform="translate(160,15)" font-family="Switzer, system-ui, sans-serif" font-size="10px" fill="#000" opacity="1">10</text><text text-anchor="middle" transform="translate(192,15)" font-family="Switzer, system-ui, sans-serif" font-size="10px" fill="#000" opacity="1">12</text><text text-anchor="middle" transform="translate(224,15)" font-family="Switzer, system-ui, sans-serif" font-size="10px" fill="#000" opacity="1">14</text><text text-anchor="middle" transform="translate(256,15)" font-family="Switzer, system-ui, sans-serif" font-size="10px" fill="#000" opacity="1">16</text><text text-anchor="middle" transform="translate(288,15)" font-family="Switzer, system-ui, sans-serif" font-size="10px" fill="#000" opacity="1">18</text><text text-anchor="middle" transform="translate(320,15)" font-family="Switzer, system-ui, sans-serif" font-size="10px" fill="#000" opacity="1">20</text><text text-anchor="middle" transform="translate(352,15)" font-family="Switzer, system-ui, sans-serif" font-size="10px" fill="#000" opacity="1">22</text><text text-anchor="middle" transform="translate(384,15)" font-family="Switzer, system-ui, sans-serif" font-size="10px" fill="#000" opacity="1">24</text><text text-anchor="middle" transform="translate(415.99999999999994,15)" font-family="Switzer, system-ui, sans-serif" font-size="10px" fill="#000" opacity="1">26</text><text text-anchor="middle" transform="translate(448,15)" font-family="Switzer, system-ui, sans-serif" font-size="10px" fill="#000" opacity="1">28</text><text text-anchor="middle" transform="translate(480,15)" font-family="Switzer, system-ui, sans-serif" font-size="10px" fill="#000" opacity="1">30</text><text text-anchor="middle" transform="translate(512,15)" font-family="Switzer, system-ui, sans-serif" font-size="10px" fill="#000" opacity="1">32</text><text text-anchor="middle" transform="translate(544,15)" font-family="Switzer, system-ui, sans-serif" font-size="10px" fill="#000" opacity="1">34</text><text text-anchor="middle" transform="translate(576,15)" font-family="Switzer, system-ui, sans-serif" font-size="10px" fill="#000" opacity="1">36</text><text text-anchor="middle" transform="translate(608,15)" font-family="Switzer, system-ui, sans-serif" font-size="10px" fill="#000" opacity="1">38</text><text text-anchor="middle" transform="translate(640,15)" font-family="Switzer, system-ui, sans-serif" font-size="10px" fill="#000" opacity="1">40</text><text text-anchor="middle" transform="translate(672,15)" font-family="Switzer, system-ui, sans-serif" font-size="10px" fill="#000" opacity="1">42</text><text text-anchor="middle" transform="translate(704,15)" font-family="Switzer, system-ui, sans-serif" font-size="10px" fill="#000" opacity="1">44</text></g><g class="mark-rule role-axis-domain" pointer-events="none"><line transform="translate(0,0)" x2="720" y2="0" stroke="#888" stroke-width="1" opacity="1"/></g><g class="mark-text role-axis-title" pointer-events="none"><text text-anchor="middle" transform="translate(360,30)" font-family="Switzer, system-ui, sans-serif" font-size="11px" font-weight="bold" fill="#000" opacity="1">Post-LLM Automatisierungsrisiko (%)</text></g></g><path class="foreground" aria-hidden="true" d="" pointer-events="none" display="none"/></g></g><g class="mark-group role-axis" role="graphics-symbol" aria-roledescription="axis" aria-label="Y-axis titled 'Weiterbildungsquote (%)' for a linear scale with values from 0 to 90"><g transform="translate(0.5,0.5)"><path class="background" aria-hidden="true" d="M0,0h0v0h0Z" pointer-events="none"/><g><g class="mark-rule role-axis-tick" pointer-events="none"><line transform="translate(0,450)" x2="-5" y2="0" stroke="#888" stroke-width="1" opacity="1"/><line transform="translate(0,400)" x2="-5" y2="0" stroke="#888" stroke-width="1" opacity="1"/><line transform="translate(0,350)" x2="-5" y2="0" stroke="#888" stroke-width="1" opacity="1"/><line transform="translate(0,300)" x2="-5" y2="0" stroke="#888" stroke-width="1" opacity="1"/><line transform="translate(0,250)" x2="-5" y2="0" stroke="#888" stroke-width="1" opacity="1"/><line transform="translate(0,200)" x2="-5" y2="0" stroke="#888" stroke-width="1" opacity="1"/><line transform="translate(0,150)" x2="-5" y2="0" stroke="#888" stroke-width="1" opacity="1"/><line transform="translate(0,100)" x2="-5" y2="0" stroke="#888" stroke-width="1" opacity="1"/><line transform="translate(0,50)" x2="-5" y2="0" stroke="#888" stroke-width="1" opacity="1"/><line transform="translate(0,0)" x2="-5" y2="0" stroke="#888" stroke-width="1" opacity="1"/></g><g class="mark-text role-axis-label" pointer-events="none"><text text-anchor="end" transform="translate(-7,453)" font-family="Switzer, system-ui, sans-serif" font-size="10px" fill="#000" opacity="1">0</text><text text-anchor="end" transform="translate(-7,403)" font-family="Switzer, system-ui, sans-serif" font-size="10px" fill="#000" opacity="1">10</text><text text-anchor="end" transform="translate(-7,353)" font-family="Switzer, system-ui, sans-serif" font-size="10px" fill="#000" opacity="1">20</text><text text-anchor="end" transform="translate(-7,303.00000000000006)" font-family="Switzer, system-ui, sans-serif" font-size="10px" fill="#000" opacity="1">30</text><text text-anchor="end" transform="translate(-7,253)" font-family="Switzer, system-ui, sans-serif" font-size="10px" fill="#000" opacity="1">40</text><text text-anchor="end" transform="translate(-7,203)" font-family="Switzer, system-ui, sans-serif" font-size="10px" fill="#000" opacity="1">50</text><text text-anchor="end" transform="translate(-7,153.00000000000003)" font-family="Switzer, system-ui, sans-serif" font-size="10px" fill="#000" opacity="1">60</text><text text-anchor="end" transform="translate(-7,103)" font-family="Switzer, system-ui, sans-serif" font-size="10px" fill="#000" opacity="1">70</text><text text-anchor="end" transform="translate(-7,53.00000000000002)" font-family="Switzer, system-ui, sans-serif" font-size="10px" fill="#000" opacity="1">80</text><text text-anchor="end" transform="translate(-7,3)" font-family="Switzer, system-ui, sans-serif" font-size="10px" fill="#000" opacity="1">90</text></g><g class="mark-rule role-axis-domain" pointer-events="none"><line transform="translate(0,450)" x2="0" y2="-450" stroke="#888" stroke-width="1" opacity="1"/></g><g class="mark-text role-axis-title" pointer-events="none"><text text-anchor="middle" transform="translate(-22.520000457763672,225) rotate(-90) translate(0,-2)" font-family="Switzer, system-ui, sans-serif" font-size="11px" font-weight="bold" fill="#000" opacity="1">Weiterbildungsquote (%)</text></g></g><path class="foreground" aria-hidden="true" d="" pointer-events="none" display="none"/></g></g><g class="mark-symbol role-mark marks" role="graphics-object" aria-roledescription="symbol mark container"><path aria-label="Post-LLM Automatisierungsrisiko (%): 28; Weiterbildungsquote (%): 52; Automatisierungsrisiko %: 28; Erwerbstätige Tsd: 658492; Sektor: Verarbeitendes Gewerbe" role="graphics-symbol" aria-roledescription="circle" transform="translate(448,190.00000000000003)" d="M17.812,0A17.812,17.812,0,1,1,-17.812,0A17.812,17.812,0,1,1,17.812,0" fill="rgb(226, 241, 153)" stroke-width="2" opacity="0.7"/><path aria-label="Post-LLM Automatisierungsrisiko (%): 32; Weiterbildungsquote (%): 55; Automatisierungsrisiko %: 32; Erwerbstätige Tsd: 592462; Sektor: Handel, Reparatur" role="graphics-symbol" aria-roledescription="circle" transform="translate(512,174.99999999999997)" d="M16.97,0A16.97,16.97,0,1,1,-16.97,0A16.97,16.97,0,1,1,16.97,0" fill="rgb(252, 230, 152)" stroke-width="2" opacity="0.7"/><path aria-label="Post-LLM Automatisierungsrisiko (%): 30; Weiterbildungsquote (%): 35; Automatisierungsrisiko %: 30; Erwerbstätige Tsd: 252386; Sektor: Gastgewerbe" role="graphics-symbol" aria-roledescription="circle" transform="translate(480,275)" d="M11.706,0A11.706,11.706,0,1,1,-11.706,0A11.706,11.706,0,1,1,11.706,0" fill="rgb(249, 247, 174)" stroke-width="2" opacity="0.7"/><path aria-label="Post-LLM Automatisierungsrisiko (%): 25; Weiterbildungsquote (%): 40; Automatisierungsrisiko %: 25; Erwerbstätige Tsd: 253055; Sektor: Verkehr, Lagerei" role="graphics-symbol" aria-roledescription="circle" transform="translate(400,250)" d="M11.718,0A11.718,11.718,0,1,1,-11.718,0A11.718,11.718,0,1,1,11.718,0" fill="rgb(181, 223, 121)" stroke-width="2" opacity="0.7"/><path aria-label="Post-LLM Automatisierungsrisiko (%): 45; Weiterbildungsquote (%): 75; Automatisierungsrisiko %: 45; Erwerbstätige Tsd: 241105; Sektor: Finanz-, Versicherungsdienstl." role="graphics-symbol" aria-roledescription="circle" transform="translate(720,74.99999999999999)" d="M11.49,0A11.49,11.49,0,1,1,-11.49,0A11.49,11.49,0,1,1,11.49,0" fill="rgb(165, 0, 38)" stroke-width="2" opacity="0.7"/><path aria-label="Post-LLM Automatisierungsrisiko (%): 18; Weiterbildungsquote (%): 70; Automatisierungsrisiko %: 18; Erwerbstätige Tsd: 788539; Sektor: Gesundheits-, Sozialwesen" role="graphics-symbol" aria-roledescription="circle" transform="translate(288,100)" d="M19.365,0A19.365,19.365,0,1,1,-19.365,0A19.365,19.365,0,1,1,19.365,0" fill="rgb(34, 150, 79)" stroke-width="2" opacity="0.7"/><path aria-label="Post-LLM Automatisierungsrisiko (%): 35; Weiterbildungsquote (%): 78; Automatisierungsrisiko %: 35; Erwerbstätige Tsd: 193424; Sektor: Information, Kommunikation" role="graphics-symbol" aria-roledescription="circle" transform="translate(560,59.999999999999986)" d="M10.529,0A10.529,10.529,0,1,1,-10.529,0A10.529,10.529,0,1,1,10.529,0" fill="rgb(253, 188, 113)" stroke-width="2" opacity="0.7"/><path aria-label="Post-LLM Automatisierungsrisiko (%): 15; Weiterbildungsquote (%): 42; Automatisierungsrisiko %: 15; Erwerbstätige Tsd: 350822; Sektor: Baugewerbe" role="graphics-symbol" aria-roledescription="circle" transform="translate(240,240)" d="M13.443,0A13.443,13.443,0,1,1,-13.443,0A13.443,13.443,0,1,1,13.443,0" fill="rgb(0, 104, 55)" stroke-width="2" opacity="0.7"/><path aria-label="Post-LLM Automatisierungsrisiko (%): 15; Weiterbildungsquote (%): 82; Automatisierungsrisiko %: 15; Erwerbstätige Tsd: 386453; Sektor: Erziehung und Unterricht" role="graphics-symbol" aria-roledescription="circle" transform="translate(240,40.00000000000001)" d="M14.019,0A14.019,14.019,0,1,1,-14.019,0A14.019,14.019,0,1,1,14.019,0" fill="rgb(0, 104, 55)" stroke-width="2" opacity="0.7"/><path aria-label="Post-LLM Automatisierungsrisiko (%): 28; Weiterbildungsquote (%): 72; Automatisierungsrisiko %: 28; Erwerbstätige Tsd: 205712; Sektor: Öffentliche Verwaltung" role="graphics-symbol" aria-roledescription="circle" transform="translate(448,89.99999999999999)" d="M10.785,0A10.785,10.785,0,1,1,-10.785,0A10.785,10.785,0,1,1,10.785,0" fill="rgb(226, 241, 153)" stroke-width="2" opacity="0.7"/><path aria-label="Post-LLM Automatisierungsrisiko (%): 38; Weiterbildungsquote (%): 76; Automatisierungsrisiko %: 38; Erwerbstätige Tsd: 465590; Sektor: Freiberufliche Dienstl." role="graphics-symbol" aria-roledescription="circle" transform="translate(608,70)" d="M15.22,0A15.22,15.22,0,1,1,-15.22,0A15.22,15.22,0,1,1,15.22,0" fill="rgb(245, 131, 78)" stroke-width="2" opacity="0.7"/><path aria-label="Post-LLM Automatisierungsrisiko (%): 22; Weiterbildungsquote (%): 38; Automatisierungsrisiko %: 22; Erwerbstätige Tsd: 356614; Sektor: Sonstige wirtsch. Dienstl." role="graphics-symbol" aria-roledescription="circle" transform="translate(352,260)" d="M13.538,0A13.538,13.538,0,1,1,-13.538,0A13.538,13.538,0,1,1,13.538,0" fill="rgb(121, 197, 101)" stroke-width="2" opacity="0.7"/></g><g class="mark-group role-legend" role="graphics-symbol" aria-roledescription="legend" aria-label="Symbol legend titled 'Erwerbstätige Tsd' for size with values from 0 to 788,539"><g transform="translate(738,0)"><path class="background" aria-hidden="true" d="M0,0h90v130h-90Z" pointer-events="none"/><g><g class="mark-group role-legend-entry"><g transform="translate(0,16)"><path class="background" aria-hidden="true" d="M0,0h0v0h0Z" pointer-events="none"/><g><g class="mark-group role-scope" role="graphics-object" aria-roledescription="group mark container"><g transform="translate(0,0)"><path class="background" aria-hidden="true" d="M0,0h76.84000015258789v12.5h-76.84000015258789Z" pointer-events="none" opacity="1"/><g><g class="mark-symbol role-legend-symbol" pointer-events="none"><path transform="translate(18,6)" d="M5,0A5,5,0,1,1,-5,0A5,5,0,1,1,5,0" fill="black" fill-opacity="0.7" stroke-width="1.5" opacity="0.7"/></g><g class="mark-text role-legend-label" pointer-events="none"><text text-anchor="start" transform="translate(40,9)" font-family="Switzer, system-ui, sans-serif" font-size="10px" fill="#000" opacity="1">0</text></g></g><path class="foreground" aria-hidden="true" d="" pointer-events="none" display="none"/></g><g transform="translate(0,16)"><path class="background" aria-hidden="true" d="M0,0h76.84000015258789v23.66638488524152h-76.84000015258789Z" pointer-events="none" opacity="1"/><g><g class="mark-symbol role-legend-symbol" pointer-events="none"><path transform="translate(18,11.5)" d="M10.666,0A10.666,10.666,0,1,1,-10.666,0A10.666,10.666,0,1,1,10.666,0" fill="black" fill-opacity="0.7" stroke-width="1.5" opacity="0.7"/></g><g class="mark-text role-legend-label" pointer-events="none"><text text-anchor="start" transform="translate(40,14.5)" font-family="Switzer, system-ui, sans-serif" font-size="10px" fill="#000" opacity="1">200,000</text></g></g><path class="foreground" aria-hidden="true" d="" pointer-events="none" display="none"/></g><g transform="translate(0,43)"><path class="background" aria-hidden="true" d="M0,0h76.84000015258789v30.73177898367655h-76.84000015258789Z" pointer-events="none" opacity="1"/><g><g class="mark-symbol role-legend-symbol" pointer-events="none"><path transform="translate(18,15)" d="M14.232,0A14.232,14.232,0,1,1,-14.232,0A14.232,14.232,0,1,1,14.232,0" fill="black" fill-opacity="0.7" stroke-width="1.5" opacity="0.7"/></g><g class="mark-text role-legend-label" pointer-events="none"><text text-anchor="start" transform="translate(40,18)" font-family="Switzer, system-ui, sans-serif" font-size="10px" fill="#000" opacity="1">400,000</text></g></g><path class="foreground" aria-hidden="true" d="" pointer-events="none" display="none"/></g><g transform="translate(0,77)"><path class="background" aria-hidden="true" d="M0,0h76.84000015258789v36.56796120104349h-76.84000015258789Z" pointer-events="none" opacity="1"/><g><g class="mark-symbol role-legend-symbol" pointer-events="none"><path transform="translate(18,18)" d="M17.068,0A17.068,17.068,0,1,1,-17.068,0A17.068,17.068,0,1,1,17.068,0" fill="black" fill-opacity="0.7" stroke-width="1.5" opacity="0.7"/></g><g class="mark-text role-legend-label" pointer-events="none"><text text-anchor="start" transform="translate(40,21)" font-family="Switzer, system-ui, sans-serif" font-size="10px" fill="#000" opacity="1">600,000</text></g></g><path class="foreground" aria-hidden="true" d="" pointer-events="none" display="none"/></g></g></g><path class="foreground" aria-hidden="true" d="" pointer-events="none" display="none"/></g></g><g class="mark-text role-legend-title" pointer-events="none"><text text-anchor="start" transform="translate(0,9)" font-family="Switzer, system-ui, sans-serif" font-size="11px" font-weight="bold" fill="#000" opacity="1">Erwerbstätige Tsd</text></g></g><path class="foreground" aria-hidden="true" d="" pointer-events="none" display="none"/></g></g><g class="mark-group role-title"><g transform="translate(360,-22)"><path class="background" aria-hidden="true" d="M0,0h0v0h0Z" pointer-events="none"/><g><g class="mark-text role-title-text" role="graphics-symbol" aria-roledescription="title" aria-label="Title text 'Weiterbildungsquote vs. Automatisierungsrisiko (r = 0.28)'" pointer-events="none"><text text-anchor="middle" transform="translate(0,10)" font-family="Switzer, system-ui, sans-serif" font-size="13px" font-weight="bold" fill="#000" opacity="1">Weiterbildungsquote vs. Automatisierungsrisiko (r = 0.28)</text></g></g><path class="foreground" aria-hidden="true" d="" pointer-events="none" display="none"/></g></g></g><path class="foreground" aria-hidden="true" d="" display="none"/></g></g></g></svg>