<svg xmlns="http://www.w3.org/2000/svg" xmlns:xlink="http://www.w3.org/1999/xlink" version="1.1" class="marks" width="764" height="469" viewBox="0 0 764 469"><rect width="764" height="469" fill="white"/><g fill="none" stroke-miterlimit="10" transform="translate(39,27)"><g class="mark-group role-frame root" role="graphics-object" aria-roledescription="group mark container"><g transform="translate(0,0)"><path class="background" aria-hidden="true" d="M0.5,0.5h720v350h-720Z"/><g><g class="mark-group role-axis" aria-hidden="true"><g transform="translate(0.5,0.5)"><path class="background" aria-hidden="true" d="M0,0h0v0h0Z" pointer-events="none"/><g><g class="mark-rule role-axis-grid" pointer-events="none"><line transform="translate(0,350)" x2="720" y2="0" stroke="#ddd" stroke-width="1" opacity="1"/><line transform="translate(0,315)" x2="720" y2="0" stroke="#ddd" stroke-width="1" opacity="1"/><line transform="translate(0,280)" x2="720" y2="0" stroke="#ddd" stroke-width="1" opacity="1"/><line transform="translate(0,245)" x2="720" y2="0" stroke="#ddd" stroke-width="1" opacity="1"/><line transform="translate(0,210)" x2="720" y2="0" stroke="#ddd" stroke-width="1" opacity="1"/><line transform="translate(0,175)" x2="720" y2="0" stroke="#ddd" stroke-width="1" opacity="1"/><line transform="translate(0,140)" x2="720" y2="0" stroke="#ddd" stroke-width="1" opacity="1"/><line transform="translate(0,105)" x2="720" y2="0" stroke="#ddd" stroke-width="1" opacity="1"/><line transform="translate(0,70)" x2="720" y2="0" stroke="#ddd" stroke-width="1" opacity="1"/><line transform="translate(0,35)" x2="720" y2="0" stroke="#ddd" stroke-width="1" opacity="1"/><line transform="translate(0,0)" x2="720" y2="0" stroke="#ddd" stroke-width="1" opacity="1"/></g></g><path class="foreground" aria-hidden="true" d="" pointer-events="none" display="none"/></g></g><g class="mark-group role-axis" role="graphics-symbol" aria-roledescription="axis" aria-label="X-axis titled 'Einkommensquintil' for a discrete scale with 5 values: Q1 (unterstes), Q2, Q3, Q4, Q5 (oberstes)"><g transform="translate(0.5,350.5)"><path class="background" aria-hidden="true" d="M0,0h0v0h0Z" pointer-events="none"/><g><g class="mark-rule role-axis-tick" pointer-events="none"><line transform="translate(71,0)" x2="0" y2="5" stroke="#888" stroke-width="1" opacity="1"/><line transform="translate(216,0)" x2="0" y2="5" stroke="#888" stroke-width="1" opacity="1"/><line transform="translate(360,0)" x2="0" y2="5" stroke="#888" stroke-width="1" opacity="1"/><line transform="translate(504,0)" x2="0" y2="5" stroke="#888" stroke-width="1" opacity="1"/><line transform="translate(648,0)" x2="0" y2="5" stroke="#888" stroke-width="1" opacity="1"/></g><g class="mark-text role-axis-label" pointer-events="none"><text text-anchor="end" transform="translate(71.49999999999999,7) rotate(270) translate(0,3)" font-family="Switzer, system-ui, sans-serif" font-size="10px" fill="#000" opacity="1">Q1 (unterstes)</text><text text-anchor="end" transform="translate(215.5,7) rotate(270) translate(0,3)" font-family="Switzer, system-ui, sans-serif" font-size="10px" fill="#000" opacity="1">Q2</text><text text-anchor="end" transform="translate(359.5,7) rotate(270) translate(0,3)" font-family="Switzer, system-ui, sans-serif" font-size="10px" fill="#000" opacity="1">Q3</text><text text-anchor="end" transform="translate(503.5,7) rotate(270) translate(0,3)" font-family="Switzer, system-ui, sans-serif" font-size="10px" fill="#000" opacity="1">Q4</text><text text-anchor="end" transform="translate(647.5,7) rotate(270) translate(0,3)" font-family="Switzer, system-ui, sans-serif" font-size="10px" fill="#000" opacity="1">Q5 (oberstes)</text></g><g class="mark-rule role-axis-domain" pointer-events="none"><line transform="translate(0,0)" x2="720" y2="0" stroke="#888" stroke-width="1" opacity="1"/></g><g class="mark-text role-axis-title" pointer-events="none"><text text-anchor="middle" transform="translate(360,84.51000213623047)" font-family="Switzer, system-ui, sans-serif" font-size="11px" font-weight="bold" fill="#000" opacity="1">Einkommensquintil</text></g></g><path class="foreground" aria-hidden="true" d="" pointer-events="none" display="none"/></g></g><g class="mark-group role-axis" role="graphics-symbol" aria-roledescription="axis" aria-label="Y-axis titled 'Mietbelastung (% des Einkommens)' for a linear scale with values from 0 to 50"><g transform="translate(0.5,0.5)"><path class="background" aria-hidden="true" d="M0,0h0v0h0Z" pointer-events="none"/><g><g class="mark-rule role-axis-tick" pointer-events="none"><line transform="translate(0,350)" x2="-5" y2="0" stroke="#888" stroke-width="1" opacity="1"/><line transform="translate(0,315)" x2="-5" y2="0" stroke="#888" stroke-width="1" opacity="1"/><line transform="translate(0,280)" x2="-5" y2="0" stroke="#888" stroke-width="1" opacity="1"/><line transform="translate(0,245)" x2="-5" y2="0" stroke="#888" stroke-width="1" opacity="1"/><line transform="translate(0,210)" x2="-5" y2="0" stroke="#888" stroke-width="1" opacity="1"/><line transform="translate(0,175)" x2="-5" y2="0" stroke="#888" stroke-width="1" opacity="1"/><line transform="translate(0,140)" x2="-5" y2="0" stroke="#888" stroke-width="1" opacity="1"/><line transform="translate(0,105)" x2="-5" y2="0" stroke="#888" stroke-width="1" opacity="1"/><line transform="translate(0,70)" x2="-5" y2="0" stroke="#888" stroke-width="1" opacity="1"/><line transform="translate(0,35)" x2="-5" y2="0" stroke="#888" stroke-width="1" opacity="1"/><line transform="translate(0,0)" x2="-5" y2="0" stroke="#888" stroke-width="1" opacity="1"/></g><g class="mark-text role-axis-label" pointer-events="none"><text text-anchor="end" transform="translate(-7,353)" font-family="Switzer, system-ui, sans-serif" font-size="10px" fill="#000" opacity="1">0</text><text text-anchor="end" transform="translate(-7,318)" font-family="Switzer, system-ui, sans-serif" font-size="10px" fill="#000" opacity="1">5</text><text text-anchor="end" transform="translate(-7,283)" font-family="Switzer, system-ui, sans-serif" font-size="10px" fill="#000" opacity="1">10</text><text text-anchor="end" transform="translate(-7,247.99999999999997)" font-family="Switzer, system-ui, sans-serif" font-size="10px" fill="#000" opacity="1">15</text><text text-anchor="end" transform="translate(-7,213)" font-family="Switzer, system-ui, sans-serif" font-size="10px" fill="#000" opacity="1">20</text><text text-anchor="end" transform="translate(-7,178)" font-family="Switzer, system-ui, sans-serif" font-size="10px" fill="#000" opacity="1">25</text><text text-anchor="end" transform="translate(-7,143)" font-family="Switzer, system-ui, sans-serif" font-size="10px" fill="#000" opacity="1">30</text><text text-anchor="end" transform="translate(-7,108.00000000000001)" font-family="Switzer, system-ui, sans-serif" font-size="10px" fill="#000" opacity="1">35</text><text text-anchor="end" transform="translate(-7,72.99999999999999)" font-family="Switzer, system-ui, sans-serif" font-size="10px" fill="#000" opacity="1">40</text><text text-anchor="end" transform="translate(-7,37.99999999999999)" font-family="Switzer, system-ui, sans-serif" font-size="10px" fill="#000" opacity="1">45</text><text text-anchor="end" transform="translate(-7,3)" font-family="Switzer, system-ui, sans-serif" font-size="10px" fill="#000" opacity="1">50</text></g><g class="mark-rule role-axis-domain" pointer-events="none"><line transform="translate(0,350)" x2="0" y2="-350" stroke="#888" stroke-width="1" opacity="1"/></g><g class="mark-text role-axis-title" pointer-events="none"><text text-anchor="middle" transform="translate(-22.520000457763672,175) rotate(-90) translate(0,-2)" font-family="Switzer, system-ui, sans-serif" font-size="11px" font-weight="bold" fill="#000" opacity="1">Mietbelastung (% des Einkommens)</text></g></g><path class="foreground" aria-hidden="true" d="" pointer-events="none" display="none"/></g></g><g class="mark-group role-scope" role="graphics-object" aria-roledescription="group mark container"><g transform="translate(7.199999999999989,69.99999999999999)"><path class="background" aria-hidden="true" d="M4,0L125.6,0C127.807660097976,0,129.6,1.792339902024,129.6,4L129.6,280C129.6,280,129.6,280,129.6,280L0,280C0,280,0,280,0,280L0,4C0,1.792339902024,1.792339902024,0,4,0Z"/><g clip-path="url(#clip103)"><g class="mark-group role-scope" role="graphics-object" aria-roledescription="group mark container"><g transform="translate(0,-69.99999999999999)"><path class="background" aria-hidden="true" d="M0,0h129.6v0h-129.6Z"/><g><g class="mark-rect role-mark marks" role="graphics-object" aria-roledescription="rect mark container"><path aria-label="Einkommensquintil: Q1 (unterstes); Mietbelastung (% des Einkommens): 40; Quintil: Q1 (unterstes)" role="graphics-symbol" aria-roledescription="bar" d="M0,69.99999999999999h129.6v280h-129.6Z" fill="#ef4444"/></g></g><path class="foreground" aria-hidden="true" d="" display="none"/></g></g></g><path class="foreground" aria-hidden="true" d="" display="none"/></g><g transform="translate(151.2,153.99999999999997)"><path class="background" aria-hidden="true" d="M4,0L125.6,0C127.807660097976,0,129.6,1.792339902024,129.6,4L129.6,196.00000000000003C129.6,196.00000000000003,129.6,196.00000000000003,129.6,196.00000000000003L0,196.00000000000003C0,196.00000000000003,0,196.00000000000003,0,196.00000000000003L0,4C0,1.792339902024,1.792339902024,0,4,0Z"/><g clip-path="url(#clip104)"><g class="mark-group role-scope" role="graphics-object" aria-roledescription="group mark container"><g transform="translate(0,-153.99999999999997)"><path class="background" aria-hidden="true" d="M0,0h129.6v0h-129.6Z"/><g><g class="mark-rect role-mark marks" role="graphics-object" aria-roledescription="rect mark container"><path aria-label="Einkommensquintil: Q2; Mietbelastung (% des Einkommens): 28; Quintil: Q2" role="graphics-symbol" aria-roledescription="bar" d="M0,153.99999999999997h129.6v196.00000000000003h-129.6Z" fill="#f59e0b"/></g></g><path class="foreground" aria-hidden="true" d="" display="none"/></g></g></g><path class="foreground" aria-hidden="true" d="" display="none"/></g><g transform="translate(295.2,196.00000000000003)"><path class="background" aria-hidden="true" d="M4,0L125.6,0C127.807660097976,0,129.6,1.792339902024,129.6,4L129.6,153.99999999999997C129.6,153.99999999999997,129.6,153.99999999999997,129.6,153.99999999999997L0,153.99999999999997C0,153.99999999999997,0,153.99999999999997,0,153.99999999999997L0,4C0,1.792339902024,1.792339902024,0,4,0Z"/><g clip-path="url(#clip105)"><g class="mark-group role-scope" role="graphics-object" aria-roledescription="group mark container"><g transform="translate(0,-196.00000000000003)"><path class="background" aria-hidden="true" d="M0,0h129.6v0h-129.6Z"/><g><g class="mark-rect role-mark marks" role="graphics-object" aria-roledescription="rect mark container"><path aria-label="Einkommensquintil: Q3; Mietbelastung (% des Einkommens): 22; Quintil: Q3" role="graphics-symbol" aria-roledescription="bar" d="M0,196.00000000000003h129.6v153.99999999999997h-129.6Z" fill="#a855f7"/></g></g><path class="foreground" aria-hidden="true" d="" display="none"/></g></g></g><path class="foreground" aria-hidden="true" d="" display="none"/></g><g transform="translate(439.2,224)"><path class="background" aria-hidden="true" d="M4,0L125.6,0C127.807660097976,0,129.6,1.792339902024,129.6,4L129.6,126C129.6,126,129.6,126,129.6,126L0,126C0,126,0,126,0,126L0,4C0,1.792339902024,1.792339902024,0,4,0Z"/><g clip-path="url(#clip106)"><g class="mark-group role-scope" role="graphics-object" aria-roledescription="group mark container"><g transform="translate(0,-224)"><path class="background" aria-hidden="true" d="M0,0h129.6v0h-129.6Z"/><g><g class="mark-rect role-mark marks" role="graphics-object" aria-roledescription="rect mark container"><path aria-label="Einkommensquintil: Q4; Mietbelastung (% des Einkommens): 18; Quintil: Q4" role="graphics-symbol" aria-roledescription="bar" d="M0,224h129.6v126h-129.6Z" fill="#3b82f6"/></g></g><path class="foreground" aria-hidden="true" d="" display="none"/></g></g></g><path class="foreground" aria-hidden="true" d="" display="none"/></g><g transform="translate(583.2,266)"><path class="background" aria-hidden="true" d="M4,0L125.6,0C127.807660097976,0,129.6,1.792339902024,129.6,4L129.6,84C129.6,84,129.6,84,129.6,84L0,84C0,84,0,84,0,84L0,4C0,1.792339902024,1.792339902024,0,4,0Z"/><g clip-path="url(#clip107)"><g class="mark-group role-scope" role="graphics-object" aria-roledescription="group mark container"><g transform="translate(0,-266)"><path class="background" aria-hidden="true" d="M0,0h129.6v0h-129.6Z"/><g><g class="mark-rect role-mark marks" role="graphics-object" aria-roledescription="rect mark container"><path aria-label="Einkommensquintil: Q5 (oberstes); Mietbelastung (% des Einkommens): 12; Quintil: Q5 (oberstes)" role="graphics-symbol" aria-roledescription="bar" d="M0,266h129.6v84h-129.6Z" fill="#06b6d4"/></g></g><path class="foreground" aria-hidden="true" d="" display="none"/></g></g></g><path class="foreground" aria-hidden="true" d="" display="none"/></g></g><g class="mark-group role-title"><g transform="translate(360,-22)"><path class="background" aria-hidden="true" d="M0,0h0v0h0Z" pointer-events="none"/><g><g class="mark-text role-title-text" role="graphics-symbol" aria-roledescription="title" aria-label="Title text 'Mietbelastungsquote nach Einkommensquintil (BFS SILC 2022)'" pointer-events="none"><text text-anchor="middle" transform="translate(0,10)" font-family="Switzer, system-ui, sans-serif" font-size="13px" font-weight="bold" fill="#000" opacity="1">Mietbelastungsquote nach Einkommensquintil (BFS SILC 2022)</text></g></g><path class="foreground" aria-hidden="true" d="" pointer-events="none" display="none"/></g></g></g><path class="foreground" aria-hidden="true" d="" display="none"/></g></g></g><defs><clipPath id="clip103"><path d="M4,0L125.6,0C127.807660097976,0,129.6,1.792339902024,129.6,4L129.6,280C129.6,280,129.6,280,129.6,280L0,280C0,280,0,280,0,280L0,4C0,1.792339902024,1.792339902024,0,4,0Z"/></clipPath><clipPath id="clip104"><path d="M4,0L125.6,0C127.807660097976,0,129.6,1.792339902024,129.6,4L129.6,196.00000000000003C129.6,196.00000000000003,129.6,196.00000000000003,129.6,196.00000000000003L0,196.00000000000003C0,196.00000000000003,0,196.00000000000003,0,196.00000000000003L0,4C0,1.792339902024,1.792339902024,0,4,0Z"/></clipPath><clipPath id="clip105"><path d="M4,0L125.6,0C127.807660097976,0,129.6,1.792339902024,129.6,4L129.6,153.99999999999997C129.6,153.99999999999997,129.6,153.99999999999997,129.6,153.99999999999997L0,153.99999999999997C0,153.99999999999997,0,153.99999999999997,0,153.99999999999997L0,4C0,1.792339902024,1.792339902024,0,4,0Z"/></clipPath><clipPath id="clip106"><path d="M4,0L125.6,0C127.807660097976,0,129.6,1.792339902024,129.6,4L129.6,126C129.6,126,129.6,126,129.6,126L0,126C0,126,0,126,0,126L0,4C0,1.792339902024,1.792339902024,0,4,0Z"/></clipPath><clipPath id="clip107"><path d="M4,0L125.6,0C127.807660097976,0,129.6,1.792339902024,129.6,4L129.6,84C129.6,84,129.6,84,129.6,84L0,84C0,84,0,84,0,84L0,4C0,1.792339902024,1.792339902024,0,4,0Z"/></clipPath></defs></svg>